<svg width="134" height="210" viewBox="0 0 134 210" fill="none" xmlns="http://www.w3.org/2000/svg">
<g filter="url(#filter0_dd_3862_5075)">
<mask id="path-1-inside-1_3862_5075" fill="white">
<path d="M12 12C12 6.47715 16.4772 2 22 2H112C117.523 2 122 6.47715 122 12V178C122 183.523 117.523 188 112 188H22C16.4771 188 12 183.523 12 178V12Z"/>
</mask>
<path d="M12 12C12 6.47715 16.4772 2 22 2H112C117.523 2 122 6.47715 122 12V178C122 183.523 117.523 188 112 188H22C16.4771 188 12 183.523 12 178V12Z" fill="white" shape-rendering="crispEdges"/>
<path d="M22 2V3H112V2V1H22V2ZM122 12H121V178H122H123V12H122ZM112 188V187H22V188V189H112V188ZM12 178H13V12H12H11V178H12ZM22 188V187C17.0294 187 13 182.971 13 178H12H11C11 184.075 15.9249 189 22 189V188ZM122 178H121C121 182.971 116.971 187 112 187V188V189C118.075 189 123 184.075 123 178H122ZM112 2V3C116.971 3 121 7.02944 121 12H122H123C123 5.92487 118.075 1 112 1V2ZM22 2V1C15.9249 1 11 5.92487 11 12H12H13C13 7.02944 17.0294 3 22 3V2Z" fill="#E5E7EB" mask="url(#path-1-inside-1_3862_5075)"/>
<path d="M44.9794 30V28.8864L48.4247 25.3168C48.7926 24.929 49.0959 24.5893 49.3345 24.2976C49.5765 24.0026 49.7571 23.7225 49.8764 23.4574C49.9957 23.1922 50.0554 22.9105 50.0554 22.6122C50.0554 22.2741 49.9759 21.9825 49.8168 21.7372C49.6577 21.4886 49.4406 21.2981 49.1655 21.1655C48.8904 21.0296 48.5805 20.9616 48.2358 20.9616C47.8712 20.9616 47.553 21.0362 47.2812 21.1854C47.0095 21.3345 46.8007 21.545 46.6548 21.8168C46.509 22.0885 46.4361 22.4067 46.4361 22.7713H44.9695C44.9695 22.1515 45.112 21.6096 45.397 21.1456C45.6821 20.6816 46.0732 20.322 46.5703 20.0668C47.0675 19.8082 47.6326 19.679 48.2656 19.679C48.9053 19.679 49.4688 19.8066 49.956 20.0618C50.4465 20.3137 50.8293 20.6584 51.1044 21.0959C51.3795 21.5301 51.517 22.0206 51.517 22.5675C51.517 22.9453 51.4458 23.3149 51.3033 23.6761C51.1641 24.0374 50.9205 24.4401 50.5724 24.8842C50.2244 25.325 49.7405 25.8603 49.1207 26.4901L47.0973 28.608V28.6825H51.6811V30H44.9794ZM56.9597 30.169C56.1742 30.1657 55.503 29.9586 54.9462 29.5476C54.3894 29.1366 53.9635 28.5384 53.6685 27.7528C53.3735 26.9673 53.226 26.0211 53.226 24.9141C53.226 23.8104 53.3735 22.8674 53.6685 22.0852C53.9668 21.303 54.3944 20.7064 54.9512 20.2955C55.5113 19.8845 56.1808 19.679 56.9597 19.679C57.7386 19.679 58.4064 19.8861 58.9632 20.3004C59.5201 20.7114 59.946 21.308 60.2409 22.0902C60.5392 22.8691 60.6884 23.8104 60.6884 24.9141C60.6884 26.0244 60.5409 26.9723 60.2459 27.7578C59.9509 28.54 59.525 29.1383 58.9682 29.5526C58.4114 29.9635 57.7419 30.169 56.9597 30.169ZM56.9597 28.8416C57.6491 28.8416 58.1877 28.5052 58.5755 27.8324C58.9666 27.1596 59.1621 26.1868 59.1621 24.9141C59.1621 24.0689 59.0726 23.3546 58.8936 22.7713C58.718 22.1847 58.4644 21.7405 58.133 21.4389C57.8049 21.134 57.4138 20.9815 56.9597 20.9815C56.2736 20.9815 55.735 21.3196 55.3439 21.9957C54.9528 22.6719 54.7556 23.6446 54.7523 24.9141C54.7523 25.7625 54.8401 26.4801 55.0158 27.0668C55.1948 27.6501 55.4483 28.0926 55.7765 28.3942C56.1046 28.6925 56.499 28.8416 56.9597 28.8416ZM66.1646 19.8182V30H64.6234V21.3594H64.5637L62.1277 22.9503V21.4787L64.6681 19.8182H66.1646ZM72.1293 30.1392C71.5062 30.1392 70.946 30.0199 70.4489 29.7812C69.955 29.5393 69.5606 29.2079 69.2656 28.7869C68.9706 28.366 68.8132 27.8854 68.7933 27.3452H70.2848C70.3213 27.7827 70.5152 28.1423 70.8665 28.424C71.2178 28.7057 71.6387 28.8466 72.1293 28.8466C72.5204 28.8466 72.8667 28.7571 73.1683 28.5781C73.4732 28.3958 73.7119 28.1456 73.8842 27.8274C74.0599 27.5092 74.1477 27.1463 74.1477 26.7386C74.1477 26.3243 74.0582 25.9548 73.8793 25.63C73.7003 25.3052 73.4534 25.05 73.1385 24.8643C72.8269 24.6787 72.469 24.5843 72.0646 24.581C71.7564 24.581 71.4465 24.634 71.1349 24.7401C70.8234 24.8461 70.5715 24.9853 70.3793 25.1577L68.9723 24.9489L69.544 19.8182H75.142V21.1357H70.8217L70.4986 23.9844H70.5582C70.7571 23.7921 71.0206 23.6314 71.3487 23.5021C71.6802 23.3729 72.0348 23.3082 72.4126 23.3082C73.0324 23.3082 73.5843 23.4557 74.0682 23.7507C74.5554 24.0457 74.9382 24.4484 75.2166 24.9588C75.4983 25.4659 75.6375 26.0492 75.6342 26.7088C75.6375 27.3684 75.4884 27.9567 75.1868 28.4737C74.8885 28.9908 74.4742 29.3984 73.9439 29.6967C73.4169 29.9917 72.812 30.1392 72.1293 30.1392ZM86.0923 18.366H87.5623V27.802H86.0923V18.366ZM82.7043 19.92H86.6103V21.082H82.7043V19.92ZM79.2603 29.706H87.8843V30.896H79.2603V29.706ZM79.2603 26.99H80.7303V30.294H79.2603V26.99ZM77.6923 19.234H79.1483V25.268H77.6923V19.234ZM77.6923 24.806H78.6723C79.5963 24.806 80.4923 24.778 81.3603 24.722C82.2376 24.666 83.1523 24.5493 84.1043 24.372L84.2583 25.576C83.269 25.7627 82.3263 25.884 81.4303 25.94C80.5436 25.996 79.6243 26.024 78.6723 26.024H77.6923V24.806ZM82.7043 22.328H86.6103V23.504H82.7043V22.328Z" fill="#0A0A0A"/>
<path d="M44.9794 58V56.8864L48.4247 53.3168C48.7926 52.929 49.0959 52.5893 49.3345 52.2976C49.5765 52.0026 49.7571 51.7225 49.8764 51.4574C49.9957 51.1922 50.0554 50.9105 50.0554 50.6122C50.0554 50.2741 49.9759 49.9825 49.8168 49.7372C49.6577 49.4886 49.4406 49.2981 49.1655 49.1655C48.8904 49.0296 48.5805 48.9616 48.2358 48.9616C47.8712 48.9616 47.553 49.0362 47.2812 49.1854C47.0095 49.3345 46.8007 49.545 46.6548 49.8168C46.509 50.0885 46.4361 50.4067 46.4361 50.7713H44.9695C44.9695 50.1515 45.112 49.6096 45.397 49.1456C45.6821 48.6816 46.0732 48.322 46.5703 48.0668C47.0675 47.8082 47.6326 47.679 48.2656 47.679C48.9053 47.679 49.4688 47.8066 49.956 48.0618C50.4465 48.3137 50.8293 48.6584 51.1044 49.0959C51.3795 49.5301 51.517 50.0206 51.517 50.5675C51.517 50.9453 51.4458 51.3149 51.3033 51.6761C51.1641 52.0374 50.9205 52.4401 50.5724 52.8842C50.2244 53.325 49.7405 53.8603 49.1207 54.4901L47.0973 56.608V56.6825H51.6811V58H44.9794ZM56.9597 58.169C56.1742 58.1657 55.503 57.9586 54.9462 57.5476C54.3894 57.1366 53.9635 56.5384 53.6685 55.7528C53.3735 54.9673 53.226 54.0211 53.226 52.9141C53.226 51.8104 53.3735 50.8674 53.6685 50.0852C53.9668 49.303 54.3944 48.7064 54.9512 48.2955C55.5113 47.8845 56.1808 47.679 56.9597 47.679C57.7386 47.679 58.4064 47.8861 58.9632 48.3004C59.5201 48.7114 59.946 49.308 60.2409 50.0902C60.5392 50.8691 60.6884 51.8104 60.6884 52.9141C60.6884 54.0244 60.5409 54.9723 60.2459 55.7578C59.9509 56.54 59.525 57.1383 58.9682 57.5526C58.4114 57.9635 57.7419 58.169 56.9597 58.169ZM56.9597 56.8416C57.6491 56.8416 58.1877 56.5052 58.5755 55.8324C58.9666 55.1596 59.1621 54.1868 59.1621 52.9141C59.1621 52.0689 59.0726 51.3546 58.8936 50.7713C58.718 50.1847 58.4644 49.7405 58.133 49.4389C57.8049 49.134 57.4138 48.9815 56.9597 48.9815C56.2736 48.9815 55.735 49.3196 55.3439 49.9957C54.9528 50.6719 54.7556 51.6446 54.7523 52.9141C54.7523 53.7625 54.8401 54.4801 55.0158 55.0668C55.1948 55.6501 55.4483 56.0926 55.7765 56.3942C56.1046 56.6925 56.499 56.8416 56.9597 56.8416ZM66.1646 47.8182V58H64.6234V49.3594H64.5637L62.1277 50.9503V49.4787L64.6681 47.8182H66.1646ZM68.5547 56.0114V54.7685L72.9545 47.8182H73.9339V49.6477H73.3125L70.1655 54.6293V54.7088H76.196V56.0114H68.5547ZM73.3821 58V55.6335L73.392 55.0668V47.8182H74.8487V58H73.3821ZM86.5708 46.366H88.0408V55.802H86.5708V46.366ZM83.1828 47.92H87.0888V49.082H83.1828V47.92ZM79.7388 57.706H88.3628V58.896H79.7388V57.706ZM79.7388 54.99H81.2088V58.294H79.7388V54.99ZM78.1708 47.234H79.6268V53.268H78.1708V47.234ZM78.1708 52.806H79.1508C80.0748 52.806 80.9708 52.778 81.8388 52.722C82.7162 52.666 83.6308 52.5493 84.5828 52.372L84.7368 53.576C83.7475 53.7627 82.8048 53.884 81.9088 53.94C81.0222 53.996 80.1028 54.024 79.1508 54.024H78.1708V52.806ZM83.1828 50.328H87.0888V51.504H83.1828V50.328Z" fill="#0A0A0A"/>
<path d="M44.9794 86V84.8864L48.4247 81.3168C48.7926 80.929 49.0959 80.5893 49.3345 80.2976C49.5765 80.0026 49.7571 79.7225 49.8764 79.4574C49.9957 79.1922 50.0554 78.9105 50.0554 78.6122C50.0554 78.2741 49.9759 77.9825 49.8168 77.7372C49.6577 77.4886 49.4406 77.2981 49.1655 77.1655C48.8904 77.0296 48.5805 76.9616 48.2358 76.9616C47.8712 76.9616 47.553 77.0362 47.2812 77.1854C47.0095 77.3345 46.8007 77.545 46.6548 77.8168C46.509 78.0885 46.4361 78.4067 46.4361 78.7713H44.9695C44.9695 78.1515 45.112 77.6096 45.397 77.1456C45.6821 76.6816 46.0732 76.322 46.5703 76.0668C47.0675 75.8082 47.6326 75.679 48.2656 75.679C48.9053 75.679 49.4688 75.8066 49.956 76.0618C50.4465 76.3137 50.8293 76.6584 51.1044 77.0959C51.3795 77.5301 51.517 78.0206 51.517 78.5675C51.517 78.9453 51.4458 79.3149 51.3033 79.6761C51.1641 80.0374 50.9205 80.4401 50.5724 80.8842C50.2244 81.325 49.7405 81.8603 49.1207 82.4901L47.0973 84.608V84.6825H51.6811V86H44.9794ZM56.9597 86.169C56.1742 86.1657 55.503 85.9586 54.9462 85.5476C54.3894 85.1366 53.9635 84.5384 53.6685 83.7528C53.3735 82.9673 53.226 82.0211 53.226 80.9141C53.226 79.8104 53.3735 78.8674 53.6685 78.0852C53.9668 77.303 54.3944 76.7064 54.9512 76.2955C55.5113 75.8845 56.1808 75.679 56.9597 75.679C57.7386 75.679 58.4064 75.8861 58.9632 76.3004C59.5201 76.7114 59.946 77.308 60.2409 78.0902C60.5392 78.8691 60.6884 79.8104 60.6884 80.9141C60.6884 82.0244 60.5409 82.9723 60.2459 83.7578C59.9509 84.54 59.525 85.1383 58.9682 85.5526C58.4114 85.9635 57.7419 86.169 56.9597 86.169ZM56.9597 84.8416C57.6491 84.8416 58.1877 84.5052 58.5755 83.8324C58.9666 83.1596 59.1621 82.1868 59.1621 80.9141C59.1621 80.0689 59.0726 79.3546 58.8936 78.7713C58.718 78.1847 58.4644 77.7405 58.133 77.4389C57.8049 77.134 57.4138 76.9815 56.9597 76.9815C56.2736 76.9815 55.735 77.3196 55.3439 77.9957C54.9528 78.6719 54.7556 79.6446 54.7523 80.9141C54.7523 81.7625 54.8401 82.4801 55.0158 83.0668C55.1948 83.6501 55.4483 84.0926 55.7765 84.3942C56.1046 84.6925 56.499 84.8416 56.9597 84.8416ZM66.1646 75.8182V86H64.6234V77.3594H64.5637L62.1277 78.9503V77.4787L64.6681 75.8182H66.1646ZM72.3132 86.1392C71.6304 86.1392 71.0206 86.0215 70.4837 85.7862C69.95 85.5509 69.5275 85.2244 69.2159 84.8068C68.9077 84.3859 68.742 83.8987 68.7188 83.3452H70.2798C70.2997 83.6468 70.4008 83.9086 70.5831 84.1307C70.7687 84.3494 71.0107 84.5185 71.3089 84.6378C71.6072 84.7571 71.9387 84.8168 72.3033 84.8168C72.7043 84.8168 73.0589 84.7472 73.3672 84.608C73.6787 84.4687 73.9223 84.2749 74.098 84.0263C74.2737 83.7744 74.3615 83.4844 74.3615 83.1562C74.3615 82.8149 74.2737 82.5149 74.098 82.2564C73.9257 81.9946 73.6721 81.7891 73.3374 81.6399C73.0059 81.4908 72.6049 81.4162 72.1342 81.4162H71.2741V80.1634H72.1342C72.5121 80.1634 72.8435 80.0954 73.1286 79.9595C73.4169 79.8236 73.6423 79.6347 73.8047 79.3928C73.9671 79.1475 74.0483 78.8608 74.0483 78.5327C74.0483 78.2178 73.977 77.9444 73.8345 77.7124C73.6953 77.477 73.4964 77.2931 73.2379 77.1605C72.9827 77.0279 72.6811 76.9616 72.3331 76.9616C72.0017 76.9616 71.6918 77.023 71.4034 77.1456C71.1184 77.2649 70.8864 77.4373 70.7074 77.6626C70.5284 77.8847 70.4323 78.1515 70.419 78.4631H68.9325C68.9491 77.9129 69.1115 77.429 69.4197 77.0114C69.7313 76.5937 70.1423 76.2673 70.6527 76.032C71.1631 75.7966 71.7299 75.679 72.353 75.679C73.0059 75.679 73.5694 75.8066 74.0433 76.0618C74.5206 76.3137 74.8885 76.6501 75.147 77.071C75.4089 77.492 75.5381 77.9527 75.5348 78.4531C75.5381 79.0232 75.379 79.5071 75.0575 79.9048C74.7393 80.3026 74.3151 80.5694 73.7848 80.7053V80.7848C74.4609 80.8875 74.9846 81.156 75.3558 81.5902C75.7304 82.0244 75.916 82.563 75.9126 83.206C75.916 83.7661 75.7602 84.2682 75.4453 84.7124C75.1338 85.1565 74.7079 85.5062 74.1676 85.7614C73.6274 86.0133 73.0092 86.1392 72.3132 86.1392ZM86.4341 74.366H87.9041V83.802H86.4341V74.366ZM83.0461 75.92H86.9521V77.082H83.0461V75.92ZM79.6021 85.706H88.2261V86.896H79.6021V85.706ZM79.6021 82.99H81.0721V86.294H79.6021V82.99ZM78.0341 75.234H79.4901V81.268H78.0341V75.234ZM78.0341 80.806H79.0141C79.9381 80.806 80.8341 80.778 81.7021 80.722C82.5794 80.666 83.4941 80.5493 84.4461 80.372L84.6001 81.576C83.6108 81.7627 82.6681 81.884 81.7721 81.94C80.8854 81.996 79.9661 82.024 79.0141 82.024H78.0341V80.806ZM83.0461 78.328H86.9521V79.504H83.0461V78.328Z" fill="#0A0A0A"/>
<path d="M44.9794 114V112.886L48.4247 109.317C48.7926 108.929 49.0959 108.589 49.3345 108.298C49.5765 108.003 49.7571 107.723 49.8764 107.457C49.9957 107.192 50.0554 106.911 50.0554 106.612C50.0554 106.274 49.9759 105.982 49.8168 105.737C49.6577 105.489 49.4406 105.298 49.1655 105.165C48.8904 105.03 48.5805 104.962 48.2358 104.962C47.8712 104.962 47.553 105.036 47.2812 105.185C47.0095 105.335 46.8007 105.545 46.6548 105.817C46.509 106.089 46.4361 106.407 46.4361 106.771H44.9695C44.9695 106.152 45.112 105.61 45.397 105.146C45.6821 104.682 46.0732 104.322 46.5703 104.067C47.0675 103.808 47.6326 103.679 48.2656 103.679C48.9053 103.679 49.4688 103.807 49.956 104.062C50.4465 104.314 50.8293 104.658 51.1044 105.096C51.3795 105.53 51.517 106.021 51.517 106.567C51.517 106.945 51.4458 107.315 51.3033 107.676C51.1641 108.037 50.9205 108.44 50.5724 108.884C50.2244 109.325 49.7405 109.86 49.1207 110.49L47.0973 112.608V112.683H51.6811V114H44.9794ZM56.9597 114.169C56.1742 114.166 55.503 113.959 54.9462 113.548C54.3894 113.137 53.9635 112.538 53.6685 111.753C53.3735 110.967 53.226 110.021 53.226 108.914C53.226 107.81 53.3735 106.867 53.6685 106.085C53.9668 105.303 54.3944 104.706 54.9512 104.295C55.5113 103.884 56.1808 103.679 56.9597 103.679C57.7386 103.679 58.4064 103.886 58.9632 104.3C59.5201 104.711 59.946 105.308 60.2409 106.09C60.5392 106.869 60.6884 107.81 60.6884 108.914C60.6884 110.024 60.5409 110.972 60.2459 111.758C59.9509 112.54 59.525 113.138 58.9682 113.553C58.4114 113.964 57.7419 114.169 56.9597 114.169ZM56.9597 112.842C57.6491 112.842 58.1877 112.505 58.5755 111.832C58.9666 111.16 59.1621 110.187 59.1621 108.914C59.1621 108.069 59.0726 107.355 58.8936 106.771C58.718 106.185 58.4644 105.741 58.133 105.439C57.8049 105.134 57.4138 104.982 56.9597 104.982C56.2736 104.982 55.735 105.32 55.3439 105.996C54.9528 106.672 54.7556 107.645 54.7523 108.914C54.7523 109.763 54.8401 110.48 55.0158 111.067C55.1948 111.65 55.4483 112.093 55.7765 112.394C56.1046 112.692 56.499 112.842 56.9597 112.842ZM66.1646 103.818V114H64.6234V105.359H64.5637L62.1277 106.95V105.479L64.6681 103.818H66.1646ZM68.7685 114V112.886L72.2138 109.317C72.5817 108.929 72.8849 108.589 73.1236 108.298C73.3655 108.003 73.5462 107.723 73.6655 107.457C73.7848 107.192 73.8445 106.911 73.8445 106.612C73.8445 106.274 73.7649 105.982 73.6058 105.737C73.4467 105.489 73.2296 105.298 72.9545 105.165C72.6795 105.03 72.3696 104.962 72.0249 104.962C71.6603 104.962 71.3421 105.036 71.0703 105.185C70.7985 105.335 70.5897 105.545 70.4439 105.817C70.2981 106.089 70.2251 106.407 70.2251 106.771H68.7585C68.7585 106.152 68.901 105.61 69.1861 105.146C69.4711 104.682 69.8622 104.322 70.3594 104.067C70.8565 103.808 71.4216 103.679 72.0547 103.679C72.6944 103.679 73.2578 103.807 73.745 104.062C74.2356 104.314 74.6184 104.658 74.8935 105.096C75.1686 105.53 75.3061 106.021 75.3061 106.567C75.3061 106.945 75.2348 107.315 75.0923 107.676C74.9531 108.037 74.7095 108.44 74.3615 108.884C74.0135 109.325 73.5296 109.86 72.9098 110.49L70.8864 112.608V112.683H75.4702V114H68.7685ZM85.9966 102.366H87.4666V111.802H85.9966V102.366ZM82.6086 103.92H86.5146V105.082H82.6086V103.92ZM79.1646 113.706H87.7886V114.896H79.1646V113.706ZM79.1646 110.99H80.6346V114.294H79.1646V110.99ZM77.5966 103.234H79.0526V109.268H77.5966V103.234ZM77.5966 108.806H78.5766C79.5006 108.806 80.3966 108.778 81.2646 108.722C82.1419 108.666 83.0566 108.549 84.0086 108.372L84.1626 109.576C83.1733 109.763 82.2306 109.884 81.3346 109.94C80.4479 109.996 79.5286 110.024 78.5766 110.024H77.5966V108.806ZM82.6086 106.328H86.5146V107.504H82.6086V106.328Z" fill="#0A0A0A"/>
<path d="M20 133C20 127.477 24.4772 123 30 123H104C109.523 123 114 127.477 114 133V141C114 146.523 109.523 151 104 151H30C24.4772 151 20 146.523 20 141V133Z" fill="#EBEBEB"/>
<path d="M44.9794 142V140.886L48.4247 137.317C48.7926 136.929 49.0959 136.589 49.3345 136.298C49.5765 136.003 49.7571 135.723 49.8764 135.457C49.9957 135.192 50.0554 134.911 50.0554 134.612C50.0554 134.274 49.9759 133.982 49.8168 133.737C49.6577 133.489 49.4406 133.298 49.1655 133.165C48.8904 133.03 48.5805 132.962 48.2358 132.962C47.8712 132.962 47.553 133.036 47.2812 133.185C47.0095 133.335 46.8007 133.545 46.6548 133.817C46.509 134.089 46.4361 134.407 46.4361 134.771H44.9695C44.9695 134.152 45.112 133.61 45.397 133.146C45.6821 132.682 46.0732 132.322 46.5703 132.067C47.0675 131.808 47.6326 131.679 48.2656 131.679C48.9053 131.679 49.4688 131.807 49.956 132.062C50.4465 132.314 50.8293 132.658 51.1044 133.096C51.3795 133.53 51.517 134.021 51.517 134.567C51.517 134.945 51.4458 135.315 51.3033 135.676C51.1641 136.037 50.9205 136.44 50.5724 136.884C50.2244 137.325 49.7405 137.86 49.1207 138.49L47.0973 140.608V140.683H51.6811V142H44.9794ZM56.9597 142.169C56.1742 142.166 55.503 141.959 54.9462 141.548C54.3894 141.137 53.9635 140.538 53.6685 139.753C53.3735 138.967 53.226 138.021 53.226 136.914C53.226 135.81 53.3735 134.867 53.6685 134.085C53.9668 133.303 54.3944 132.706 54.9512 132.295C55.5113 131.884 56.1808 131.679 56.9597 131.679C57.7386 131.679 58.4064 131.886 58.9632 132.3C59.5201 132.711 59.946 133.308 60.2409 134.09C60.5392 134.869 60.6884 135.81 60.6884 136.914C60.6884 138.024 60.5409 138.972 60.2459 139.758C59.9509 140.54 59.525 141.138 58.9682 141.553C58.4114 141.964 57.7419 142.169 56.9597 142.169ZM56.9597 140.842C57.6491 140.842 58.1877 140.505 58.5755 139.832C58.9666 139.16 59.1621 138.187 59.1621 136.914C59.1621 136.069 59.0726 135.355 58.8936 134.771C58.718 134.185 58.4644 133.741 58.133 133.439C57.8049 133.134 57.4138 132.982 56.9597 132.982C56.2736 132.982 55.735 133.32 55.3439 133.996C54.9528 134.672 54.7556 135.645 54.7523 136.914C54.7523 137.763 54.8401 138.48 55.0158 139.067C55.1948 139.65 55.4483 140.093 55.7765 140.394C56.1046 140.692 56.499 140.842 56.9597 140.842ZM66.1646 131.818V142H64.6234V133.359H64.5637L62.1277 134.95V133.479L64.6681 131.818H66.1646ZM72.6314 131.818V142H71.0902V133.359H71.0305L68.5945 134.95V133.479L71.1349 131.818H72.6314ZM84.0279 130.366H85.4979V139.802H84.0279V130.366ZM80.6399 131.92H84.5459V133.082H80.6399V131.92ZM77.1959 141.706H85.8199V142.896H77.1959V141.706ZM77.1959 138.99H78.6659V142.294H77.1959V138.99ZM75.6279 131.234H77.0839V137.268H75.6279V131.234ZM75.6279 136.806H76.6079C77.5319 136.806 78.4279 136.778 79.2959 136.722C80.1732 136.666 81.0879 136.549 82.0399 136.372L82.1939 137.576C81.2045 137.763 80.2619 137.884 79.3659 137.94C78.4792 137.996 77.5599 138.024 76.6079 138.024H75.6279V136.806ZM80.6399 134.328H84.5459V135.504H80.6399V134.328Z" fill="#0A0A0A"/>
<path d="M44.9794 170V168.886L48.4247 165.317C48.7926 164.929 49.0959 164.589 49.3345 164.298C49.5765 164.003 49.7571 163.723 49.8764 163.457C49.9957 163.192 50.0554 162.911 50.0554 162.612C50.0554 162.274 49.9759 161.982 49.8168 161.737C49.6577 161.489 49.4406 161.298 49.1655 161.165C48.8904 161.03 48.5805 160.962 48.2358 160.962C47.8712 160.962 47.553 161.036 47.2812 161.185C47.0095 161.335 46.8007 161.545 46.6548 161.817C46.509 162.089 46.4361 162.407 46.4361 162.771H44.9695C44.9695 162.152 45.112 161.61 45.397 161.146C45.6821 160.682 46.0732 160.322 46.5703 160.067C47.0675 159.808 47.6326 159.679 48.2656 159.679C48.9053 159.679 49.4688 159.807 49.956 160.062C50.4465 160.314 50.8293 160.658 51.1044 161.096C51.3795 161.53 51.517 162.021 51.517 162.567C51.517 162.945 51.4458 163.315 51.3033 163.676C51.1641 164.037 50.9205 164.44 50.5724 164.884C50.2244 165.325 49.7405 165.86 49.1207 166.49L47.0973 168.608V168.683H51.6811V170H44.9794ZM56.9597 170.169C56.1742 170.166 55.503 169.959 54.9462 169.548C54.3894 169.137 53.9635 168.538 53.6685 167.753C53.3735 166.967 53.226 166.021 53.226 164.914C53.226 163.81 53.3735 162.867 53.6685 162.085C53.9668 161.303 54.3944 160.706 54.9512 160.295C55.5113 159.884 56.1808 159.679 56.9597 159.679C57.7386 159.679 58.4064 159.886 58.9632 160.3C59.5201 160.711 59.946 161.308 60.2409 162.09C60.5392 162.869 60.6884 163.81 60.6884 164.914C60.6884 166.024 60.5409 166.972 60.2459 167.758C59.9509 168.54 59.525 169.138 58.9682 169.553C58.4114 169.964 57.7419 170.169 56.9597 170.169ZM56.9597 168.842C57.6491 168.842 58.1877 168.505 58.5755 167.832C58.9666 167.16 59.1621 166.187 59.1621 164.914C59.1621 164.069 59.0726 163.355 58.8936 162.771C58.718 162.185 58.4644 161.741 58.133 161.439C57.8049 161.134 57.4138 160.982 56.9597 160.982C56.2736 160.982 55.735 161.32 55.3439 161.996C54.9528 162.672 54.7556 163.645 54.7523 164.914C54.7523 165.763 54.8401 166.48 55.0158 167.067C55.1948 167.65 55.4483 168.093 55.7765 168.394C56.1046 168.692 56.499 168.842 56.9597 168.842ZM66.1646 159.818V170H64.6234V161.359H64.5637L62.1277 162.95V161.479L64.6681 159.818H66.1646ZM72.3132 170.169C71.5277 170.166 70.8565 169.959 70.2997 169.548C69.7429 169.137 69.317 168.538 69.022 167.753C68.727 166.967 68.5795 166.021 68.5795 164.914C68.5795 163.81 68.727 162.867 69.022 162.085C69.3203 161.303 69.7479 160.706 70.3047 160.295C70.8648 159.884 71.5343 159.679 72.3132 159.679C73.0921 159.679 73.7599 159.886 74.3168 160.3C74.8736 160.711 75.2995 161.308 75.5945 162.09C75.8928 162.869 76.0419 163.81 76.0419 164.914C76.0419 166.024 75.8944 166.972 75.5994 167.758C75.3045 168.54 74.8786 169.138 74.3217 169.553C73.7649 169.964 73.0954 170.169 72.3132 170.169ZM72.3132 168.842C73.0026 168.842 73.5412 168.505 73.929 167.832C74.3201 167.16 74.5156 166.187 74.5156 164.914C74.5156 164.069 74.4261 163.355 74.2472 162.771C74.0715 162.185 73.8179 161.741 73.4865 161.439C73.1584 161.134 72.7673 160.982 72.3132 160.982C71.6271 160.982 71.0885 161.32 70.6974 161.996C70.3063 162.672 70.1091 163.645 70.1058 164.914C70.1058 165.763 70.1937 166.48 70.3693 167.067C70.5483 167.65 70.8018 168.093 71.13 168.394C71.4581 168.692 71.8525 168.842 72.3132 168.842ZM86.4478 158.366H87.9178V167.802H86.4478V158.366ZM83.0598 159.92H86.9658V161.082H83.0598V159.92ZM79.6158 169.706H88.2398V170.896H79.6158V169.706ZM79.6158 166.99H81.0858V170.294H79.6158V166.99ZM78.0478 159.234H79.5038V165.268H78.0478V159.234ZM78.0478 164.806H79.0278C79.9518 164.806 80.8478 164.778 81.7158 164.722C82.5931 164.666 83.5078 164.549 84.4598 164.372L84.6138 165.576C83.6244 165.763 82.6818 165.884 81.7858 165.94C80.8991 165.996 79.9798 166.024 79.0278 166.024H78.0478V164.806ZM83.0598 162.328H86.9658V163.504H83.0598V162.328Z" fill="#0A0A0A"/>
</g>
<defs>
<filter id="filter0_dd_3862_5075" x="0" y="0" width="134" height="210" filterUnits="userSpaceOnUse" color-interpolation-filters="sRGB">
<feFlood flood-opacity="0" result="BackgroundImageFix"/>
<feColorMatrix in="SourceAlpha" type="matrix" values="0 0 0 0 0 0 0 0 0 0 0 0 0 0 0 0 0 0 127 0" result="hardAlpha"/>
<feMorphology radius="4" operator="erode" in="SourceAlpha" result="effect1_dropShadow_3862_5075"/>
<feOffset dy="4"/>
<feGaussianBlur stdDeviation="3"/>
<feComposite in2="hardAlpha" operator="out"/>
<feColorMatrix type="matrix" values="0 0 0 0 0 0 0 0 0 0 0 0 0 0 0 0 0 0 0.1 0"/>
<feBlend mode="normal" in2="BackgroundImageFix" result="effect1_dropShadow_3862_5075"/>
<feColorMatrix in="SourceAlpha" type="matrix" values="0 0 0 0 0 0 0 0 0 0 0 0 0 0 0 0 0 0 127 0" result="hardAlpha"/>
<feMorphology radius="3" operator="erode" in="SourceAlpha" result="effect2_dropShadow_3862_5075"/>
<feOffset dy="10"/>
<feGaussianBlur stdDeviation="7.5"/>
<feComposite in2="hardAlpha" operator="out"/>
<feColorMatrix type="matrix" values="0 0 0 0 0 0 0 0 0 0 0 0 0 0 0 0 0 0 0.1 0"/>
<feBlend mode="normal" in2="effect1_dropShadow_3862_5075" result="effect2_dropShadow_3862_5075"/>
<feBlend mode="normal" in="SourceGraphic" in2="effect2_dropShadow_3862_5075" result="shape"/>
</filter>
</defs>
</svg>
