<svg width="79" height="62" viewBox="0 0 79 62" fill="none" xmlns="http://www.w3.org/2000/svg">
<path d="M0 27.6367H78.4337V56.0223C78.4337 59.3227 75.7582 61.9982 72.4578 61.9982H5.9759C2.6755 61.9982 0 59.3227 0 56.0223V27.6367Z" fill="url(#paint0_linear_4722_473)"/>
<rect x="25.3984" y="10.457" width="27.6386" height="51.5422" fill="url(#paint1_linear_4722_473)"/>
<path d="M22.4102 5.23047H56.0246V9.7124C56.0246 11.3626 54.6869 12.7003 53.0367 12.7003H25.3981C23.7479 12.7003 22.4102 11.3626 22.4102 9.7124V5.23047Z" fill="#75A1D4"/>
<path d="M22.4102 2.98795C22.4102 1.33775 23.7479 0 25.3981 0H29.133C30.7832 0 32.121 1.33775 32.121 2.98795V5.22892H22.4102V2.98795Z" fill="#75A1D4"/>
<path d="M0 25.3981C0 23.7479 1.33775 22.4102 2.98795 22.4102H6.72289C8.37309 22.4102 9.71084 23.7479 9.71084 25.3981V27.6391H0V25.3981Z" fill="#B5CFED"/>
<path d="M12.6992 25.3981C12.6992 23.7479 14.037 22.4102 15.6872 22.4102H19.4221C21.0723 22.4102 22.4101 23.7479 22.4101 25.3981V27.6391H12.6992V25.3981Z" fill="#B5CFED"/>
<path d="M68.7227 25.3981C68.7227 23.7479 70.0604 22.4102 71.7106 22.4102H75.4455C77.0957 22.4102 78.4335 23.7479 78.4335 25.3981V27.6391H68.7227V25.3981Z" fill="#B5CFED"/>
<path d="M56.0234 25.3981C56.0234 23.7479 57.3612 22.4102 59.0114 22.4102H62.7463C64.3965 22.4102 65.7343 23.7479 65.7343 25.3981V27.6391H56.0234V25.3981Z" fill="#B5CFED"/>
<path d="M34.3613 2.98795C34.3613 1.33775 35.6991 0 37.3493 0H41.0842C42.7344 0 44.0722 1.33775 44.0722 2.98795V5.22892H34.3613V2.98795Z" fill="#75A1D4"/>
<path d="M46.3125 2.98795C46.3125 1.33775 47.6503 0 49.3005 0H53.0354C54.6856 0 56.0233 1.33775 56.0233 2.98795V5.22892H46.3125V2.98795Z" fill="#75A1D4"/>
<rect x="60.5059" y="34.3633" width="10.4578" height="10.4578" rx="1.49398" fill="#E2F7FF"/>
<rect x="33.6152" y="19.4219" width="11.2048" height="10.4578" rx="1.49398" fill="#E2F7FF"/>
<rect x="7.4707" y="34.3633" width="10.4578" height="10.4578" rx="1.49398" fill="#E2F7FF"/>
<defs>
<linearGradient id="paint0_linear_4722_473" x1="39.2169" y1="27.6367" x2="39.2169" y2="61.9982" gradientUnits="userSpaceOnUse">
<stop stop-color="#B5CFED"/>
<stop offset="1" stop-color="#C5E1FF"/>
</linearGradient>
<linearGradient id="paint1_linear_4722_473" x1="39.2177" y1="10.457" x2="39.2177" y2="61.9992" gradientUnits="userSpaceOnUse">
<stop stop-color="#89B4E3"/>
<stop offset="1" stop-color="#99BDE5"/>
</linearGradient>
</defs>
</svg>
