<svg preserveAspectRatio="none" width="100%" height="100%" overflow="visible" style="display: block;" viewBox="0 0 185.632 67.426" fill="none" xmlns="http://www.w3.org/2000/svg">
<g id="Group 2085664235">
<g id="Union">
<path d="M76.2551 17.6592C85.5646 17.6592 93.1114 25.2062 93.1116 34.5156C93.1113 43.825 85.5645 51.3721 76.2551 51.3721C70.6436 51.3719 65.6734 48.6285 62.6096 44.4111C59.5458 48.6286 54.5757 51.372 48.9641 51.3721C39.6548 51.3719 32.1079 43.8249 32.1076 34.5156C32.1078 25.2063 39.6548 17.6594 48.9641 17.6592C54.5754 17.6592 59.5457 20.4011 62.6096 24.6182C65.6735 20.4011 70.6439 17.6594 76.2551 17.6592ZM48.9641 27.292C44.9745 27.2922 41.7406 30.5261 41.7405 34.5156C41.7407 38.5051 44.9746 41.7401 48.9641 41.7402C52.9537 41.7401 56.1885 38.5052 56.1887 34.5156C56.1885 30.526 52.9537 27.2921 48.9641 27.292ZM76.2551 27.292C72.2657 27.2923 69.0316 30.5261 69.0315 34.5156C69.0317 38.505 72.2657 41.7399 76.2551 41.7402C80.2448 41.7402 83.4795 38.5052 83.4797 34.5156C83.4795 30.5259 80.2448 27.292 76.2551 27.292Z" fill="#B2F165"/>
<path d="M76.2551 17.6592C85.5646 17.6592 93.1114 25.2062 93.1116 34.5156C93.1113 43.825 85.5645 51.3721 76.2551 51.3721C70.6436 51.3719 65.6734 48.6285 62.6096 44.4111C59.5458 48.6286 54.5757 51.372 48.9641 51.3721C39.6548 51.3719 32.1079 43.8249 32.1076 34.5156C32.1078 25.2063 39.6548 17.6594 48.9641 17.6592C54.5754 17.6592 59.5457 20.4011 62.6096 24.6182C65.6735 20.4011 70.6439 17.6594 76.2551 17.6592ZM48.9641 27.292C44.9745 27.2922 41.7406 30.5261 41.7405 34.5156C41.7407 38.5051 44.9746 41.7401 48.9641 41.7402C52.9537 41.7401 56.1885 38.5052 56.1887 34.5156C56.1885 30.526 52.9537 27.2921 48.9641 27.292ZM76.2551 27.292C72.2657 27.2923 69.0316 30.5261 69.0315 34.5156C69.0317 38.505 72.2657 41.7399 76.2551 41.7402C80.2448 41.7402 83.4795 38.5052 83.4797 34.5156C83.4795 30.5259 80.2448 27.292 76.2551 27.292Z" fill="white" fill-opacity="0.2"/>
</g>
<path d="M4.81614 6.42139V36.1209C4.81614 41.4407 9.12867 45.7532 14.4484 45.7532H28.0942" stroke="white" stroke-width="9.63229"/>
<path d="M102.744 17.6592L102.744 67.426" stroke="white" stroke-width="9.63229"/>
<circle cx="114.785" cy="34.5155" r="12.0404" stroke="white" stroke-width="9.63229"/>
<g id="Group 2085664233">
<path d="M151.117 20.8701L151.117 48.1616L139.879 48.1616L139.879 20.8701L151.117 20.8701Z" fill="white"/>
<g id="Group 2085664234">
<circle cx="141.484" cy="4.81614" r="4.01345" fill="white" stroke="white" stroke-width="1.60538"/>
<circle cx="149.511" cy="4.81614" r="4.01345" fill="white" stroke="white" stroke-width="1.60538"/>
<circle cx="149.511" cy="12.843" r="4.01345" fill="white" stroke="white" stroke-width="1.60538"/>
<circle cx="141.484" cy="12.843" r="4.01345" fill="white" stroke="white" stroke-width="1.60538"/>
<circle cx="145.414" cy="8.96456" r="4.10922" transform="rotate(45 145.414 8.96456)" fill="white" stroke="white" stroke-width="1.60538"/>
</g>
<path d="M163.157 47.3586V32.1074C163.157 27.231 167.11 23.2778 171.987 23.2778C176.863 23.2778 180.816 27.231 180.816 32.1074V47.3586" stroke="white" stroke-width="9.63229"/>
</g>
</g>
</svg>
