<svg width="186" height="68" viewBox="0 0 186 68" fill="none" xmlns="http://www.w3.org/2000/svg">
<rect width="186" height="68" fill="#F5F5F5"/>
<g id="Section 1">
<path d="M-18639.2 -33357C-18639.2 -33358.1 -18638.3 -33359 -18637.2 -33359H45912.8C45913.9 -33359 45914.8 -33358.1 45914.8 -33357V45597C45914.8 45598.1 45913.9 45599 45912.8 45599H-18637.2C-18638.3 45599 -18639.2 45598.1 -18639.2 45597V-33357Z" fill="white"/>
<path d="M-18637.2 -33359V-33358H45912.8V-33359V-33360H-18637.2V-33359ZM45914.8 -33357H45913.8V45597H45914.8H45915.8V-33357H45914.8ZM45912.8 45599V45598H-18637.2V45599V45600H45912.8V45599ZM-18639.2 45597H-18638.2V-33357H-18639.2H-18640.2V45597H-18639.2ZM-18637.2 45599V45598C-18637.7 45598 -18638.2 45597.6 -18638.2 45597H-18639.2H-18640.2C-18640.2 45598.7 -18638.8 45600 -18637.2 45600V45599ZM45914.8 45597H45913.8C45913.8 45597.6 45913.4 45598 45912.8 45598V45599V45600C45914.5 45600 45915.8 45598.7 45915.8 45597H45914.8ZM45912.8 -33359V-33358C45913.4 -33358 45913.8 -33357.6 45913.8 -33357H45914.8H45915.8C45915.8 -33358.7 45914.5 -33360 45912.8 -33360V-33359ZM-18637.2 -33359V-33360C-18638.8 -33360 -18640.2 -33358.7 -18640.2 -33357H-18639.2H-18638.2C-18638.2 -33357.6 -18637.7 -33358 -18637.2 -33358V-33359Z" fill="black" fill-opacity="0.1"/>
<g id="&#237;&#148;&#140;&#235;&#158;&#152;&#236;&#139;&#156;&#237;&#153;&#148;&#235;&#169;&#180;">
<rect width="393" height="852" transform="translate(-101.184 -373)" fill="#2AA3FF"/>
<g id="Group 2085664369">
<g id="Union">
<path d="M76.2549 17.6602C85.5644 17.6602 93.1112 25.2072 93.1113 34.5166C93.1111 43.826 85.5643 51.373 76.2549 51.373C70.6434 51.3729 65.6732 48.6295 62.6094 44.4121C59.5456 48.6296 54.5755 51.373 48.9639 51.373C39.6546 51.3729 32.1077 43.8259 32.1074 34.5166C32.1076 25.2073 39.6545 17.6603 48.9639 17.6602C54.5751 17.6602 59.5455 20.4021 62.6094 24.6191C65.6733 20.4021 70.6437 17.6603 76.2549 17.6602ZM48.9639 27.293C44.9743 27.2931 41.7404 30.527 41.7402 34.5166C41.7405 38.5061 44.9743 41.741 48.9639 41.7412C52.9534 41.7411 56.1882 38.5061 56.1885 34.5166C56.1883 30.527 52.9535 27.2931 48.9639 27.293ZM76.2549 27.293C72.2654 27.2933 69.0314 30.5271 69.0312 34.5166C69.0315 38.506 72.2655 41.7409 76.2549 41.7412C80.2446 41.7412 83.4792 38.5062 83.4795 34.5166C83.4793 30.5269 80.2446 27.293 76.2549 27.293Z" fill="#B2F165"/>
<path d="M76.2549 17.6602C85.5644 17.6602 93.1112 25.2072 93.1113 34.5166C93.1111 43.826 85.5643 51.373 76.2549 51.373C70.6434 51.3729 65.6732 48.6295 62.6094 44.4121C59.5456 48.6296 54.5755 51.373 48.9639 51.373C39.6546 51.3729 32.1077 43.8259 32.1074 34.5166C32.1076 25.2073 39.6545 17.6603 48.9639 17.6602C54.5751 17.6602 59.5455 20.4021 62.6094 24.6191C65.6733 20.4021 70.6437 17.6603 76.2549 17.6602ZM48.9639 27.293C44.9743 27.2931 41.7404 30.527 41.7402 34.5166C41.7405 38.5061 44.9743 41.741 48.9639 41.7412C52.9534 41.7411 56.1882 38.5061 56.1885 34.5166C56.1883 30.527 52.9535 27.2931 48.9639 27.293ZM76.2549 27.293C72.2654 27.2933 69.0314 30.5271 69.0312 34.5166C69.0315 38.506 72.2655 41.7409 76.2549 41.7412C80.2446 41.7412 83.4792 38.5062 83.4795 34.5166C83.4793 30.5269 80.2446 27.293 76.2549 27.293Z" fill="white" fill-opacity="0.2"/>
</g>
<path id="Vector 19739" d="M4.81641 6.42188V36.1214C4.81641 41.4412 9.12893 45.7537 14.4487 45.7537H28.0944" stroke="white" stroke-width="9.63229"/>
<path id="Vector 19740" d="M102.744 17.6602L102.744 67.427" stroke="white" stroke-width="9.63229"/>
<circle id="Ellipse 321684" cx="114.785" cy="34.5169" r="12.0404" stroke="white" stroke-width="9.63229"/>
<g id="Group 2085664233">
<path id="Vector 19737 (Stroke)" d="M151.117 20.8711L151.117 48.1626L139.879 48.1626L139.879 20.8711L151.117 20.8711Z" fill="white"/>
<g id="Group 2085664234">
<circle id="Ellipse 321685" cx="141.484" cy="4.81614" r="4.01345" fill="white" stroke="white" stroke-width="1.60538"/>
<circle id="Ellipse 321686" cx="149.511" cy="4.81614" r="4.01345" fill="white" stroke="white" stroke-width="1.60538"/>
<circle id="Ellipse 321687" cx="149.511" cy="12.8435" r="4.01345" fill="white" stroke="white" stroke-width="1.60538"/>
<circle id="Ellipse 321688" cx="141.484" cy="12.8435" r="4.01345" fill="white" stroke="white" stroke-width="1.60538"/>
<circle id="Ellipse 321689" cx="145.414" cy="8.96602" r="4.10922" transform="rotate(45 145.414 8.96602)" fill="white" stroke="white" stroke-width="1.60538"/>
</g>
<path id="Vector 19741" d="M163.156 47.3581V32.1069C163.156 27.2305 167.109 23.2773 171.986 23.2773C176.862 23.2773 180.815 27.2305 180.815 32.1069V47.3581" stroke="white" stroke-width="9.63229"/>
</g>
</g>
</g>
</g>
</svg>
