<svg width="46" height="46" viewBox="0 0 46 46" fill="none" xmlns="http://www.w3.org/2000/svg">
<g filter="url(#filter0_d_5191_2881)">
<path d="M40 20C40 29.3888 32.3888 37 23 37C13.6112 37 6 29.3888 6 20C6 10.6112 13.6112 3 23 3C32.3888 3 40 10.6112 40 20Z" fill="#FD3D3D"/>
<path d="M40 20C40 29.3888 32.3888 37 23 37C13.6112 37 6 29.3888 6 20C6 10.6112 13.6112 3 23 3C32.3888 3 40 10.6112 40 20Z" fill="#FD3D3D"/>
<path d="M40 20C40 29.3888 32.3888 37 23 37C13.6112 37 6 29.3888 6 20C6 10.6112 13.6112 3 23 3C32.3888 3 40 10.6112 40 20Z" stroke="white" stroke-width="2.5"/>
</g>
<path d="M15 20L20 25L31 14" stroke="white" stroke-width="3.2" stroke-linecap="round" stroke-linejoin="round"/>
<defs>
<filter id="filter0_d_5191_2881" x="0" y="0" width="46" height="46" filterUnits="userSpaceOnUse" color-interpolation-filters="sRGB">
<feFlood flood-opacity="0" result="BackgroundImageFix"/>
<feColorMatrix in="SourceAlpha" type="matrix" values="0 0 0 0 0 0 0 0 0 0 0 0 0 0 0 0 0 0 127 0" result="hardAlpha"/>
<feOffset dy="3"/>
<feGaussianBlur stdDeviation="3"/>
<feColorMatrix type="matrix" values="0 0 0 0 0.1 0 0 0 0 0.15 0 0 0 0 0.3 0 0 0 0.18 0"/>
<feBlend mode="normal" in2="BackgroundImageFix" result="effect1_dropShadow_5191_2881"/>
<feBlend mode="normal" in="SourceGraphic" in2="effect1_dropShadow_5191_2881" result="shape"/>
</filter>
</defs>
</svg>
