<svg width="393" height="852" viewBox="0 0 393 852" fill="none" xmlns="http://www.w3.org/2000/svg">
<rect width="393" height="852" fill="white"/>
<rect width="393" height="98" fill="#FEFEFE"/>
<rect width="393" height="54" fill="#FEFEFE"/>
<path d="M38.9526 38V28.1304H38.8032L35.8232 30.2305V28.2217L38.9526 26.022H41.0859V38H38.9526ZM48.8887 38.2407C47.9701 38.2407 47.1593 38.0941 46.4565 37.8008C45.7537 37.502 45.2031 37.0924 44.8047 36.5723C44.4118 36.0465 44.2153 35.4434 44.2153 34.7627V34.7461C44.2153 34.2314 44.3288 33.7666 44.5557 33.3516C44.7881 32.931 45.109 32.5768 45.5186 32.2891C45.9281 32.0013 46.3984 31.8049 46.9297 31.6997V31.6499C46.2435 31.4673 45.6901 31.1408 45.2695 30.6704C44.8545 30.1945 44.647 29.6356 44.647 28.9937V28.9771C44.647 28.3628 44.8268 27.8149 45.1865 27.3335C45.5518 26.8521 46.0526 26.473 46.689 26.1963C47.3309 25.9196 48.0641 25.7812 48.8887 25.7812C49.7132 25.7812 50.4437 25.9196 51.0801 26.1963C51.722 26.473 52.2228 26.8521 52.5825 27.3335C52.9422 27.8149 53.1221 28.3628 53.1221 28.9771V28.9937C53.1221 29.6356 52.9146 30.1945 52.4995 30.6704C52.0845 31.1408 51.5339 31.4673 50.8477 31.6499V31.6997C51.3789 31.8049 51.8493 32.0013 52.2588 32.2891C52.6683 32.5768 52.9865 32.931 53.2134 33.3516C53.4458 33.7666 53.562 34.2314 53.562 34.7461V34.7627C53.562 35.4434 53.3628 36.0465 52.9644 36.5723C52.5715 37.0924 52.0236 37.502 51.3208 37.8008C50.618 38.0941 49.8073 38.2407 48.8887 38.2407ZM48.8887 36.6055C49.3701 36.6055 49.7935 36.5225 50.1587 36.3564C50.5295 36.1849 50.82 35.9497 51.0303 35.6509C51.2406 35.3465 51.3457 35.0034 51.3457 34.6216V34.605C51.3457 34.2176 51.2406 33.8745 51.0303 33.5757C50.8255 33.2713 50.5378 33.0334 50.167 32.8618C49.7962 32.6903 49.3701 32.6045 48.8887 32.6045C48.4017 32.6045 47.9728 32.6903 47.6021 32.8618C47.2368 33.0334 46.9491 33.2713 46.7388 33.5757C46.5285 33.8745 46.4233 34.2176 46.4233 34.605V34.6216C46.4233 35.0034 46.5285 35.3465 46.7388 35.6509C46.9546 35.9497 47.2451 36.1849 47.6104 36.3564C47.9811 36.5225 48.4072 36.6055 48.8887 36.6055ZM48.8887 30.9692C49.3092 30.9692 49.6772 30.8945 49.9927 30.7451C50.3136 30.5902 50.5627 30.3799 50.7397 30.1143C50.9224 29.8486 51.0137 29.5387 51.0137 29.1846V29.168C51.0137 28.8193 50.9224 28.5122 50.7397 28.2466C50.5627 27.981 50.3136 27.7734 49.9927 27.624C49.6717 27.4746 49.3037 27.3999 48.8887 27.3999C48.4681 27.3999 48.0973 27.4746 47.7764 27.624C47.4609 27.7734 47.2119 27.981 47.0293 28.2466C46.8522 28.5122 46.7637 28.8193 46.7637 29.168V29.1846C46.7637 29.5387 46.8522 29.8486 47.0293 30.1143C47.2119 30.3799 47.4609 30.5902 47.7764 30.7451C48.0973 30.8945 48.4681 30.9692 48.8887 30.9692ZM57.4136 36.3896C57.0373 36.3896 56.7218 36.2651 56.4673 36.0161C56.2183 35.7616 56.0938 35.4517 56.0938 35.0864C56.0938 34.7157 56.2183 34.4058 56.4673 34.1567C56.7218 33.9022 57.0373 33.7749 57.4136 33.7749C57.7954 33.7749 58.1108 33.9022 58.3599 34.1567C58.6089 34.4058 58.7334 34.7157 58.7334 35.0864C58.7334 35.4517 58.6089 35.7616 58.3599 36.0161C58.1108 36.2651 57.7954 36.3896 57.4136 36.3896ZM57.4136 30.2305C57.0373 30.2305 56.7218 30.106 56.4673 29.8569C56.2183 29.6024 56.0938 29.2925 56.0938 28.9272C56.0938 28.5565 56.2183 28.2466 56.4673 27.9976C56.7218 27.743 57.0373 27.6157 57.4136 27.6157C57.7954 27.6157 58.1108 27.743 58.3599 27.9976C58.6089 28.2466 58.7334 28.5565 58.7334 28.9272C58.7334 29.2925 58.6089 29.6024 58.3599 29.8569C58.1108 30.106 57.7954 30.2305 57.4136 30.2305ZM65.7725 38.2988C64.8206 38.2988 64.0044 38.0443 63.3237 37.5352C62.6486 37.026 62.1284 36.3011 61.7632 35.3604C61.3979 34.4196 61.2153 33.3045 61.2153 32.0151V31.9985C61.2153 30.7091 61.3979 29.5968 61.7632 28.6616C62.1284 27.7209 62.6486 26.9959 63.3237 26.4868C64.0044 25.9777 64.8206 25.7231 65.7725 25.7231C66.7243 25.7231 67.5405 25.9777 68.2212 26.4868C68.9019 26.9959 69.4248 27.7209 69.79 28.6616C70.1553 29.5968 70.3379 30.7091 70.3379 31.9985V32.0151C70.3379 33.3045 70.1553 34.4196 69.79 35.3604C69.4248 36.3011 68.9019 37.026 68.2212 37.5352C67.5405 38.0443 66.7243 38.2988 65.7725 38.2988ZM65.7725 36.564C66.2816 36.564 66.716 36.3813 67.0757 36.0161C67.4354 35.6509 67.7093 35.1307 67.8975 34.4556C68.0911 33.7749 68.188 32.9614 68.188 32.0151V31.9985C68.188 31.0522 68.0911 30.2415 67.8975 29.5664C67.7093 28.8857 67.4354 28.3656 67.0757 28.0059C66.716 27.6406 66.2816 27.458 65.7725 27.458C65.2633 27.458 64.8289 27.6406 64.4692 28.0059C64.1151 28.3656 63.8411 28.8857 63.6475 29.5664C63.4593 30.2415 63.3652 31.0522 63.3652 31.9985V32.0151C63.3652 32.9614 63.4593 33.7749 63.6475 34.4556C63.8411 35.1307 64.1151 35.6509 64.4692 36.0161C64.8289 36.3813 65.2633 36.564 65.7725 36.564ZM77.0781 38.2988C76.1263 38.2988 75.3101 38.0443 74.6294 37.5352C73.9543 37.026 73.4341 36.3011 73.0688 35.3604C72.7036 34.4196 72.521 33.3045 72.521 32.0151V31.9985C72.521 30.7091 72.7036 29.5968 73.0688 28.6616C73.4341 27.7209 73.9543 26.9959 74.6294 26.4868C75.3101 25.9777 76.1263 25.7231 77.0781 25.7231C78.0299 25.7231 78.8462 25.9777 79.5269 26.4868C80.2075 26.9959 80.7305 27.7209 81.0957 28.6616C81.4609 29.5968 81.6436 30.7091 81.6436 31.9985V32.0151C81.6436 33.3045 81.4609 34.4196 81.0957 35.3604C80.7305 36.3011 80.2075 37.026 79.5269 37.5352C78.8462 38.0443 78.0299 38.2988 77.0781 38.2988ZM77.0781 36.564C77.5872 36.564 78.0216 36.3813 78.3813 36.0161C78.741 35.6509 79.015 35.1307 79.2031 34.4556C79.3968 33.7749 79.4937 32.9614 79.4937 32.0151V31.9985C79.4937 31.0522 79.3968 30.2415 79.2031 29.5664C79.015 28.8857 78.741 28.3656 78.3813 28.0059C78.0216 27.6406 77.5872 27.458 77.0781 27.458C76.569 27.458 76.1346 27.6406 75.7749 28.0059C75.4207 28.3656 75.1468 28.8857 74.9531 29.5664C74.765 30.2415 74.6709 31.0522 74.6709 31.9985V32.0151C74.6709 32.9614 74.765 33.7749 74.9531 34.4556C75.1468 35.1307 75.4207 35.6509 75.7749 36.0161C76.1346 36.3813 76.569 36.564 77.0781 36.564Z" fill="black"/>
<path fill-rule="evenodd" clip-rule="evenodd" d="M314.614 27.0329C314.614 26.3999 314.136 25.8867 313.547 25.8867H312.481C311.892 25.8867 311.414 26.3999 311.414 27.0329V36.9669C311.414 37.5999 311.892 38.1131 312.481 38.1131H313.547C314.136 38.1131 314.614 37.5999 314.614 36.9669V27.0329ZM307.18 28.332H308.247C308.836 28.332 309.313 28.8575 309.313 29.5057V36.9394C309.313 37.5876 308.836 38.1131 308.247 38.1131H307.18C306.591 38.1131 306.113 37.5876 306.113 36.9394V29.5057C306.113 28.8575 306.591 28.332 307.18 28.332ZM302.848 30.981H301.782C301.192 30.981 300.715 31.5132 300.715 32.1697V36.9244C300.715 37.5809 301.192 38.1131 301.782 38.1131H302.848C303.437 38.1131 303.915 37.5809 303.915 36.9244V32.1697C303.915 31.5132 303.437 30.981 302.848 30.981ZM297.547 33.4263H296.481C295.892 33.4263 295.414 33.9509 295.414 34.598V36.9414C295.414 37.5885 295.892 38.1131 296.481 38.1131H297.547C298.136 38.1131 298.614 37.5885 298.614 36.9414V34.598C298.614 33.9509 298.136 33.4263 297.547 33.4263Z" fill="black"/>
<path fill-rule="evenodd" clip-rule="evenodd" d="M330.185 28.3022C332.672 28.3023 335.064 29.2244 336.866 30.8779C337.002 31.0055 337.219 31.0039 337.353 30.8743L338.65 29.6108C338.718 29.545 338.756 29.456 338.755 29.3633C338.754 29.2706 338.716 29.182 338.647 29.117C333.916 24.7423 326.452 24.7423 321.721 29.117C321.653 29.1819 321.614 29.2705 321.613 29.3632C321.613 29.4559 321.65 29.545 321.718 29.6108L323.016 30.8743C323.149 31.0041 323.367 31.0057 323.502 30.8779C325.305 29.2243 327.697 28.3022 330.185 28.3022ZM330.181 32.5225C331.539 32.5224 332.847 33.0342 333.854 33.9583C333.99 34.0894 334.204 34.0866 334.337 33.9519L335.624 32.6326C335.692 32.5634 335.729 32.4695 335.728 32.3719C335.727 32.2744 335.688 32.1813 335.619 32.1135C332.555 29.2227 327.81 29.2227 324.746 32.1135C324.677 32.1813 324.638 32.2744 324.637 32.372C324.636 32.4696 324.674 32.5635 324.741 32.6326L326.028 33.9519C326.161 34.0866 326.375 34.0894 326.512 33.9583C327.517 33.0348 328.825 32.5231 330.181 32.5225ZM332.706 35.316C332.708 35.4214 332.671 35.523 332.603 35.5968L330.427 38.0515C330.363 38.1236 330.276 38.1642 330.185 38.1642C330.094 38.1642 330.007 38.1236 329.943 38.0515L327.766 35.5968C327.699 35.5229 327.662 35.4213 327.664 35.316C327.666 35.2106 327.707 35.1108 327.777 35.0402C329.167 33.7263 331.203 33.7263 332.593 35.0402C332.663 35.1109 332.704 35.2107 332.706 35.316Z" fill="black"/>
<rect opacity="0.35" x="346.258" y="26" width="24" height="12" rx="3.8" stroke="black"/>
<path opacity="0.4" d="M371.758 30.2812V34.3567C372.563 34.0116 373.086 33.2086 373.086 32.319C373.086 31.4294 372.563 30.6264 371.758 30.2812Z" fill="black"/>
<rect x="347.758" y="27.5" width="21" height="9" rx="2.5" fill="black"/>
<path d="M38.5625 111.828V133.156H35.5859V111.828H38.5625ZM20.7266 127.133C22.3555 127.121 24.2188 127.121 26.1641 127.062V125.258C23.8203 124.848 22.2969 123.395 22.3203 121.391C22.2969 119 24.4766 117.383 27.6172 117.383C30.7812 117.383 32.9844 119 32.9844 121.391C32.9844 123.383 31.4609 124.836 29.1172 125.258V126.969C30.8984 126.887 32.7031 126.746 34.4141 126.523L34.625 128.727C29.9609 129.523 24.9219 129.57 21.125 129.57L20.7266 127.133ZM34.1094 114.195V116.539H21.1484V114.195H26.1641V111.922H29.1406V114.195H34.1094ZM27.6172 119.656C26.1641 119.656 25.1328 120.289 25.1562 121.391C25.1328 122.516 26.1641 123.125 27.6172 123.125C29.1172 123.125 30.125 122.516 30.125 121.391C30.125 120.289 29.1172 119.656 27.6172 119.656ZM59.4453 111.852V127.953H56.4453V126.266H52.3672V124.227H56.4453V111.852H59.4453ZM59.9141 130.391V132.781H44.0234V126.406H47V123.57C45.0898 123.652 43.2734 123.664 41.6562 123.664L41.3047 121.297C45.2188 121.273 50.4922 121.227 54.9922 120.664L55.1562 122.797C53.4688 123.078 51.7227 123.277 50 123.406V127.461H47V130.391H59.9141ZM48.2422 112.578C51.3359 112.555 53.5625 114.125 53.5625 116.398C53.5625 118.672 51.3359 120.148 48.2422 120.148C45.0781 120.148 42.875 118.672 42.875 116.398C42.875 114.125 45.0547 112.555 48.2422 112.578ZM48.2422 114.758C46.7188 114.758 45.6875 115.344 45.7109 116.398C45.6875 117.43 46.7188 117.992 48.2422 117.992C49.6719 117.992 50.7031 117.43 50.7266 116.398C50.7031 115.344 49.6719 114.758 48.2422 114.758ZM78.9453 111.828V120.008H81.9688V122.469H78.9453V133.109H75.9453V111.828H78.9453ZM73.25 114.008C73.2266 120.383 70.7422 125.914 63.5703 129.43L61.8828 127.133C66.9336 124.602 69.6406 121.203 70.2031 116.445H63.1016V114.008H73.25ZM100.719 111.828V123.289H97.7188V111.828H100.719ZM89.3984 124.227V126.219H97.7422V124.227H100.719V132.922H86.4453V124.227H89.3984ZM89.3984 130.508H97.7422V128.539H89.3984V130.508ZM89.0234 112.719C92.3516 112.695 94.8594 114.781 94.8594 117.781C94.8594 120.688 92.3516 122.773 89.0234 122.773C85.6953 122.773 83.1875 120.688 83.1875 117.781C83.1875 114.781 85.6953 112.695 89.0234 112.719ZM89.0234 115.203C87.3125 115.203 86.0938 116.164 86.1172 117.781C86.0938 119.375 87.3125 120.312 89.0234 120.312C90.6875 120.312 91.9062 119.375 91.9062 117.781C91.9062 116.164 90.6875 115.203 89.0234 115.203ZM113.328 112.133C118.227 112.133 121.062 113.422 121.086 115.766C121.062 118.133 118.227 119.422 113.328 119.422C108.406 119.422 105.547 118.133 105.547 115.766C105.547 113.422 108.406 112.133 113.328 112.133ZM113.328 114.312C110.188 114.312 108.664 114.828 108.688 115.766C108.664 116.82 110.188 117.219 113.328 117.219C116.492 117.219 117.992 116.82 117.992 115.766C117.992 114.828 116.492 114.312 113.328 114.312ZM123.055 120.43V122.797H103.602V120.43H123.055ZM120.688 124.039V129.477H108.805V130.766H121.25V133.016H105.875V127.391H117.734V126.219H105.852V124.039H120.688ZM136.836 112.719C140.094 112.695 142.461 114.547 142.461 117.242C142.461 119.914 140.094 121.789 136.836 121.766C133.578 121.789 131.211 119.914 131.234 117.242C131.211 114.547 133.578 112.695 136.836 112.719ZM136.836 115.109C135.242 115.109 134.117 115.883 134.117 117.242C134.117 118.578 135.242 119.352 136.836 119.328C138.477 119.352 139.625 118.578 139.625 117.242C139.625 115.883 138.477 115.109 136.836 115.109ZM147.852 111.852V133.156H144.898V111.852H147.852ZM129.922 123.078C133.695 123.078 139.062 122.984 143.609 122.305L143.797 124.508C142.039 124.859 140.234 125.082 138.453 125.211V132.523H135.477V125.398C133.602 125.48 131.832 125.492 130.297 125.516L129.922 123.078ZM160.906 115.086V117.453H150.594V115.086H154.297V112.414H157.25V115.086H160.906ZM155.797 118.414C158.516 118.414 160.461 120.523 160.484 123.477C160.461 126.453 158.516 128.562 155.797 128.562C153.078 128.562 151.086 126.453 151.086 123.477C151.086 120.523 153.078 118.414 155.797 118.414ZM155.797 120.898C154.555 120.898 153.711 121.859 153.711 123.477C153.711 125.094 154.555 126.031 155.797 126.031C156.992 126.031 157.836 125.094 157.859 123.477C157.836 121.859 156.992 120.898 155.797 120.898ZM169.062 111.828V133.156H166.227V122.891H164.492V132.242H161.703V112.25H164.492V120.5H166.227V111.828H169.062ZM38.4922 143.828V165.203H35.4688V143.828H38.4922ZM26.9141 145.328C30.125 145.328 32.5156 148.281 32.5156 152.922C32.5156 157.609 30.125 160.539 26.9141 160.539C23.6328 160.539 21.2422 157.609 21.2656 152.922C21.2422 148.281 23.6328 145.328 26.9141 145.328ZM26.9141 148.023C25.25 148.023 24.1484 149.758 24.1484 152.922C24.1484 156.109 25.25 157.82 26.9141 157.82C28.5312 157.82 29.6328 156.109 29.6328 152.922C29.6328 149.758 28.5312 148.023 26.9141 148.023ZM60.8281 153.93V156.32H41.375V153.93H45.7578V151.375C44.1992 150.684 43.3203 149.629 43.3203 148.258C43.3203 145.68 46.3438 144.133 51.1016 144.133C55.8125 144.133 58.8359 145.68 58.8594 148.258C58.8477 149.641 57.9336 150.719 56.3516 151.398V153.93H60.8281ZM51.0781 157.445C55.6953 157.445 58.4844 158.805 58.5078 161.266C58.4844 163.773 55.6953 165.133 51.0781 165.133C46.3906 165.133 43.6016 163.773 43.6016 161.266C43.6016 158.805 46.3906 157.445 51.0781 157.445ZM51.0781 159.695C48.125 159.695 46.625 160.211 46.6484 161.266C46.625 162.367 48.125 162.906 51.0781 162.906C53.9609 162.906 55.4844 162.367 55.5078 161.266C55.4844 160.211 53.9609 159.695 51.0781 159.695ZM51.1016 146.43C48.0781 146.43 46.4141 147.062 46.4375 148.258C46.4141 149.43 48.0781 150.016 51.1016 150.016C54.0781 150.016 55.7656 149.43 55.7656 148.258C55.7656 147.062 54.0781 146.43 51.1016 146.43ZM48.7812 153.93H53.375V152.148C52.6719 152.23 51.9102 152.266 51.1016 152.266C50.2695 152.266 49.4961 152.23 48.7812 152.125V153.93ZM81.8047 146.641V149.055H79.0391V151.234H81.8047V153.719H79.0391V156.414H76.0391V143.828H79.0391V146.641H81.8047ZM79.0391 157.258V165.156H76.0391V159.672H64.6719V157.258H79.0391ZM68.1172 145C71.4219 144.977 73.9297 147.18 73.9297 150.18C73.9297 153.25 71.4219 155.406 68.1172 155.406C64.7891 155.406 62.2578 153.25 62.2578 150.18C62.2578 147.18 64.7891 144.977 68.1172 145ZM68.1172 147.555C66.4297 147.555 65.1875 148.516 65.2109 150.18C65.1875 151.891 66.4297 152.875 68.1172 152.875C69.7578 152.875 71 151.891 71.0234 150.18C71 148.516 69.7578 147.555 68.1172 147.555ZM94.8125 145.375V146.711C94.8125 148.188 94.8125 150.32 94.3203 152.969L91.3906 152.688C91.7656 150.637 91.8594 149.09 91.8828 147.812H83.8438V145.375H94.8125ZM89.5156 150.297V154.375C91.6367 154.293 93.8164 154.129 95.8203 153.836L95.9844 155.992C91.5547 156.812 86.5391 156.883 82.8359 156.906L82.5781 154.516C83.7734 154.516 85.1211 154.516 86.5391 154.469V150.297H89.5156ZM100.039 143.828V150.32H102.617V152.828H100.039V159.789H96.9688V143.828H100.039ZM100.695 162.391V164.781H85.7188V158.359H88.7188V162.391H100.695ZM122.094 143.828V165.156H119.234V143.828H122.094ZM117.641 144.133V164.172H114.828V154.094H113.117C112.836 158.289 111.055 160.82 108.43 160.82C105.617 160.82 103.789 157.867 103.789 153.062C103.789 148.281 105.617 145.352 108.43 145.352C110.996 145.352 112.754 147.742 113.094 151.727H114.828V144.133H117.641ZM108.43 148.164C107.234 148.164 106.531 149.805 106.555 153.062C106.531 156.344 107.234 157.961 108.43 157.938C109.648 157.961 110.375 156.344 110.375 153.062C110.375 149.805 109.648 148.164 108.43 148.164ZM149.375 153.906V156.25H129.875V153.906H138.172V152.078H132.242V144.766H147.031V147.086H135.219V149.734H147.148V152.078H141.102V153.906H149.375ZM139.578 157.328C144.195 157.328 146.984 158.734 147.008 161.266C146.984 163.75 144.195 165.18 139.578 165.18C134.914 165.18 132.102 163.75 132.102 161.266C132.102 158.734 134.914 157.328 139.578 157.328ZM139.578 159.602C136.625 159.602 135.125 160.164 135.148 161.266C135.125 162.391 136.625 162.906 139.578 162.906C142.461 162.906 143.984 162.391 144.008 161.266C143.984 160.164 142.461 159.602 139.578 159.602ZM157.531 145.258C160.906 145.234 163.438 147.438 163.438 150.484C163.438 153.555 160.906 155.734 157.531 155.734C154.156 155.734 151.602 153.555 151.602 150.484C151.602 147.438 154.156 145.234 157.531 145.258ZM157.531 147.836C155.844 147.836 154.555 148.82 154.578 150.484C154.555 152.172 155.844 153.133 157.531 153.133C159.219 153.133 160.508 152.172 160.531 150.484C160.508 148.82 159.242 147.836 157.531 147.836ZM168.547 143.828V165.203H165.57V143.828H168.547ZM150.711 158.406C154.508 158.43 159.781 158.359 164.352 157.727L164.586 159.883C159.852 160.797 154.789 160.844 151.062 160.844L150.711 158.406ZM181.648 147.086V149.453H171.336V147.086H175.039V144.414H177.992V147.086H181.648ZM176.539 150.414C179.258 150.414 181.203 152.523 181.227 155.477C181.203 158.453 179.258 160.562 176.539 160.562C173.82 160.562 171.828 158.453 171.828 155.477C171.828 152.523 173.82 150.414 176.539 150.414ZM176.539 152.898C175.297 152.898 174.453 153.859 174.453 155.477C174.453 157.094 175.297 158.031 176.539 158.031C177.734 158.031 178.578 157.094 178.602 155.477C178.578 153.859 177.734 152.898 176.539 152.898ZM189.805 143.828V165.156H186.969V154.891H185.234V164.242H182.445V144.25H185.234V152.5H186.969V143.828H189.805ZM217.086 155.594V157.984H208.789V165.156H205.836V157.984H197.633V155.594H217.086ZM215.352 144.953V147.297H209.141C209.434 149.383 211.789 151.48 216.172 152.008L215.094 154.352C211.344 153.848 208.66 152.242 207.383 150.039C206.07 152.242 203.41 153.848 199.695 154.352L198.594 152.008C202.906 151.48 205.285 149.383 205.625 147.297H199.391V144.953H215.352ZM225.219 149.195C225.219 152.641 226.18 156.203 229.086 158.078L227.469 160.398C225.629 159.285 224.457 157.457 223.789 155.266C223.016 157.68 221.738 159.695 219.805 160.867L217.977 158.664C221.141 156.695 222.312 152.945 222.312 149.336V145.656H225.219V149.195ZM236.867 143.828V165.156H234.008V143.828H236.867ZM232.391 144.133V164.172H229.602V153.461H226.836V151.023H229.602V144.133H232.391ZM258.641 160.211V162.672H239.117V160.211H243.477V154.984C241.824 154 240.828 152.488 240.828 150.602C240.828 147.156 244.203 144.859 248.844 144.859C253.461 144.859 256.859 147.156 256.883 150.602C256.871 152.441 255.898 153.941 254.305 154.938V160.211H258.641ZM248.844 147.227C245.797 147.227 243.781 148.445 243.781 150.602C243.781 152.688 245.797 153.977 248.844 153.977C251.867 153.977 253.906 152.688 253.93 150.602C253.906 148.445 251.867 147.227 248.844 147.227ZM246.43 160.211H251.281V156.062C250.52 156.215 249.699 156.297 248.844 156.297C247.988 156.297 247.18 156.227 246.43 156.062V160.211Z" fill="#1E1E1E"/>
<g clip-path="url(#clip0_2962_2653)">
<circle cx="32" cy="242" r="10.5" stroke="#D9D9D9" stroke-width="3"/>
</g>
<path d="M69.7188 250.688V235.703H73.0312V236.812H70.9844V249.562H73.0312V250.688H69.7188ZM85.5 234.875V242.094H84.2656V234.875H85.5ZM85.5 242.766V246.078H77.6562V247.609H86.0312V248.609H76.4531V245.156H84.2812V243.75H76.4062V242.766H85.5ZM82.1562 235.828V236.812H80.75V240.359C81.4688 240.32 82.1797 240.25 82.8438 240.172L82.9062 241.078C80.125 241.484 76.8594 241.594 74.4062 241.594L74.25 240.578L76.0312 240.562V236.812H74.6406V235.828H82.1562ZM77.2188 240.531C77.9844 240.516 78.7734 240.492 79.5625 240.438V236.812H77.2188V240.531ZM94.8125 236.172C94.8125 238.125 97.375 239.828 99.875 240.172L99.375 241.172C97.2188 240.812 95.0859 239.617 94.1875 237.906C93.2969 239.625 91.1562 240.812 89 241.172L88.5 240.172C91 239.828 93.5469 238.156 93.5469 236.172V235.375H94.8125V236.172ZM100.5 242.703V243.734H94.75V248.766H93.5469V243.734H87.8438V242.703H100.5ZM104.844 250.688H101.531V249.562H103.578V236.812H101.531V235.703H104.844V250.688ZM126.609 234.875V248.797H125.375V234.875H126.609ZM119.219 235.953C121.281 235.969 122.766 237.844 122.766 240.797C122.766 243.75 121.281 245.625 119.219 245.625C117.141 245.625 115.672 243.75 115.672 240.797C115.672 237.844 117.141 235.969 119.219 235.953ZM119.219 237.047C117.828 237.062 116.859 238.531 116.859 240.797C116.859 243.062 117.828 244.531 119.219 244.531C120.609 244.531 121.578 243.062 121.578 240.797C121.578 238.531 120.609 237.062 119.219 237.047ZM141.641 241.75V242.766H128.984V241.75H132.125V239.797C131.016 239.367 130.391 238.656 130.391 237.719C130.391 236.078 132.266 235.141 135.312 235.141C138.328 235.141 140.219 236.078 140.219 237.719C140.219 238.648 139.602 239.359 138.5 239.781V241.75H141.641ZM135.312 243.828C138.297 243.828 140.078 244.688 140.094 246.281C140.078 247.859 138.297 248.734 135.312 248.734C132.297 248.734 130.516 247.859 130.516 246.281C130.516 244.688 132.297 243.828 135.312 243.828ZM135.312 244.766C133.078 244.781 131.75 245.328 131.766 246.281C131.75 247.219 133.078 247.781 135.312 247.781C137.516 247.781 138.859 247.219 138.859 246.281C138.859 245.328 137.516 244.781 135.312 244.766ZM135.312 236.109C133.047 236.109 131.641 236.719 131.656 237.719C131.641 238.734 133.047 239.328 135.312 239.328C137.562 239.328 138.969 238.734 138.969 237.719C138.969 236.719 137.562 236.109 135.312 236.109ZM133.344 241.75H137.281V240.125C136.695 240.227 136.039 240.281 135.312 240.281C134.586 240.281 133.93 240.227 133.344 240.125V241.75ZM155.734 237.031V238.031H153.672V239.984H155.734V241.031H153.672V243.141H152.453V234.875H153.672V237.031H155.734ZM153.672 243.781V248.766H152.453V244.797H144.578V243.781H153.672ZM146.719 235.719C148.828 235.703 150.359 237.062 150.375 238.984C150.359 240.938 148.828 242.281 146.719 242.281C144.609 242.281 143.062 240.938 143.078 238.984C143.062 237.062 144.609 235.703 146.719 235.719ZM146.719 236.766C145.312 236.766 144.266 237.672 144.281 238.984C144.266 240.312 145.312 241.234 146.719 241.219C148.141 241.234 149.172 240.312 149.172 238.984C149.172 237.672 148.141 236.766 146.719 236.766ZM164.344 235.953V236.688C164.328 237.594 164.328 238.984 163.984 240.797L162.75 240.703C163.086 239.039 163.117 237.859 163.141 236.984H157.422V235.953H164.344ZM160.766 239.031V242.016C162.305 241.953 163.898 241.844 165.344 241.641L165.422 242.547C162.516 243.047 159.156 243.109 156.688 243.109L156.562 242.094C157.461 242.086 158.477 242.078 159.547 242.047V239.031H160.766ZM167.531 234.875V239.406H169.562V240.453H167.531V245.328H166.281V234.875H167.531ZM167.984 247.438V248.469H158.703V244.391H159.938V247.438H167.984ZM187.156 241.75V242.734H174.484V241.75H180.219V240.125H176.094V235.531H185.578V236.516H177.297V239.125H185.672V240.125H181.406V241.75H187.156ZM180.812 243.75C183.797 243.75 185.578 244.656 185.594 246.25C185.578 247.859 183.797 248.75 180.812 248.766C177.812 248.75 176.016 247.859 176.016 246.25C176.016 244.656 177.812 243.75 180.812 243.75ZM180.812 244.719C178.578 244.719 177.25 245.297 177.266 246.25C177.25 247.219 178.578 247.781 180.812 247.781C183.016 247.781 184.359 247.219 184.359 246.25C184.359 245.297 183.016 244.719 180.812 244.719ZM192.859 235.891C195.047 235.891 196.594 237.219 196.594 239.156C196.594 241.094 195.047 242.422 192.859 242.422C190.672 242.422 189.094 241.094 189.109 239.156C189.094 237.219 190.672 235.891 192.859 235.891ZM192.859 236.969C191.375 236.969 190.297 237.859 190.312 239.156C190.297 240.453 191.375 241.344 192.859 241.344C194.328 241.344 195.391 240.453 195.391 239.156C195.391 237.859 194.328 236.969 192.859 236.969ZM199.703 234.875V248.797H198.484V234.875H199.703ZM188.391 244.688C190.953 244.688 194.484 244.672 197.562 244.219L197.656 245.125C194.484 245.719 191.062 245.734 188.562 245.734L188.391 244.688Z" fill="#1E1E1E"/>
<path d="M357 234L365 242L357 250" stroke="#D9D9D9" stroke-width="3"/>
<g clip-path="url(#clip1_2962_2653)">
<circle cx="32" cy="310" r="10.5" stroke="#D9D9D9" stroke-width="3"/>
</g>
<path d="M69.7188 318.688V303.703H73.0312V304.812H70.9844V317.562H73.0312V318.688H69.7188ZM85.5 302.875V310.094H84.2656V302.875H85.5ZM85.5 310.766V314.078H77.6562V315.609H86.0312V316.609H76.4531V313.156H84.2812V311.75H76.4062V310.766H85.5ZM82.1562 303.828V304.812H80.75V308.359C81.4688 308.32 82.1797 308.25 82.8438 308.172L82.9062 309.078C80.125 309.484 76.8594 309.594 74.4062 309.594L74.25 308.578L76.0312 308.562V304.812H74.6406V303.828H82.1562ZM77.2188 308.531C77.9844 308.516 78.7734 308.492 79.5625 308.438V304.812H77.2188V308.531ZM94.8125 304.172C94.8125 306.125 97.375 307.828 99.875 308.172L99.375 309.172C97.2188 308.812 95.0859 307.617 94.1875 305.906C93.2969 307.625 91.1562 308.812 89 309.172L88.5 308.172C91 307.828 93.5469 306.156 93.5469 304.172V303.375H94.8125V304.172ZM100.5 310.703V311.734H94.75V316.766H93.5469V311.734H87.8438V310.703H100.5ZM104.844 318.688H101.531V317.562H103.578V304.812H101.531V303.703H104.844V318.688ZM127.016 302.875V316.766H125.812V309.5H123.891V316.078H122.719V303.25H123.891V308.484H125.812V302.875H127.016ZM121.141 304.688C121.125 308.219 119.891 311.562 115.891 313.781L115.172 312.922C118.398 311.125 119.734 308.578 119.938 305.703H115.703V304.688H121.141ZM140.453 302.891V313.047H139.234V302.891H140.453ZM140.891 315.438V316.469H131.484V312.016H132.703V315.438H140.891ZM132.953 303.859C135.031 303.859 136.594 305.266 136.594 307.266C136.594 309.297 135.031 310.688 132.953 310.688C130.875 310.688 129.312 309.297 129.312 307.266C129.312 305.266 130.875 303.859 132.953 303.859ZM132.953 304.938C131.547 304.938 130.5 305.906 130.516 307.266C130.5 308.656 131.547 309.609 132.953 309.609C134.328 309.609 135.391 308.656 135.391 307.266C135.391 305.906 134.328 304.938 132.953 304.938ZM154.328 302.875V311.156H153.094V307.516H150.297V306.5H153.094V302.875H154.328ZM149.719 311.594C152.609 311.594 154.375 312.531 154.375 314.172C154.375 315.812 152.609 316.75 149.719 316.766C146.828 316.75 145.062 315.812 145.062 314.172C145.062 312.531 146.828 311.594 149.719 311.594ZM149.719 312.547C147.594 312.547 146.266 313.156 146.281 314.172C146.266 315.172 147.594 315.781 149.719 315.781C151.844 315.781 153.156 315.172 153.156 314.172C153.156 313.156 151.844 312.547 149.719 312.547ZM147.641 305.422C147.641 307.234 149.031 308.953 151.062 309.656L150.422 310.641C148.859 310.078 147.648 308.914 147.062 307.469C146.453 309.102 145.164 310.406 143.516 311.031L142.875 310.047C144.938 309.297 146.406 307.422 146.406 305.438V304.922H143.266V303.891H150.75V304.922H147.641V305.422ZM169.359 313.969V314.984H156.641V313.969H162.359V310.969H158.141V303.859H159.375V306.375H166.594V303.859H167.797V310.969H163.562V313.969H169.359ZM159.375 309.969H166.594V307.375H159.375V309.969ZM181.453 304.172C181.453 306.125 184.016 307.828 186.516 308.172L186.016 309.172C183.859 308.812 181.727 307.617 180.828 305.906C179.938 307.625 177.797 308.812 175.641 309.172L175.141 308.172C177.641 307.828 180.188 306.156 180.188 304.172V303.375H181.453V304.172ZM187.141 310.703V311.734H181.391V316.766H180.188V311.734H174.484V310.703H187.141ZM193.312 305.172C193.312 306.984 194.828 308.594 196.891 309.219L196.266 310.188C194.641 309.672 193.336 308.555 192.703 307.125C192.094 308.656 190.781 309.852 189.125 310.422L188.484 309.453C190.578 308.797 192.078 307.078 192.078 305.172V304.812H188.828V303.812H196.516V304.812H193.312V305.172ZM199.781 302.875V310.391H198.562V302.875H199.781ZM192 311.078V312.766H198.562V311.078H199.781V316.578H190.781V311.078H192ZM192 315.578H198.562V313.75H192V315.578ZM213.406 303.781V309.438H206.891V303.781H213.406ZM208.094 304.781V308.469H212.203V304.781H208.094ZM217.609 302.875V310.859H216.406V302.875H217.609ZM213.844 312.766C213.844 314.125 216.062 315.469 218.453 315.766L218.031 316.719C215.938 316.438 214.031 315.453 213.219 314.156C212.375 315.477 210.422 316.438 208.328 316.719L207.891 315.766C210.281 315.5 212.578 314.156 212.578 312.766H208.469V311.812H212.594V310.453H213.812V311.812H217.969V312.766H213.844ZM235.453 302.875V316.797H234.219V302.875H235.453ZM228.062 303.953C230.125 303.969 231.609 305.844 231.609 308.797C231.609 311.75 230.125 313.625 228.062 313.625C225.984 313.625 224.516 311.75 224.516 308.797C224.516 305.844 225.984 303.969 228.062 303.953ZM228.062 305.047C226.672 305.062 225.703 306.531 225.703 308.797C225.703 311.062 226.672 312.531 228.062 312.531C229.453 312.531 230.422 311.062 230.422 308.797C230.422 306.531 229.453 305.062 228.062 305.047ZM250.484 309.75V310.766H237.828V309.75H240.969V307.797C239.859 307.367 239.234 306.656 239.234 305.719C239.234 304.078 241.109 303.141 244.156 303.141C247.172 303.141 249.062 304.078 249.062 305.719C249.062 306.648 248.445 307.359 247.344 307.781V309.75H250.484ZM244.156 311.828C247.141 311.828 248.922 312.688 248.938 314.281C248.922 315.859 247.141 316.734 244.156 316.734C241.141 316.734 239.359 315.859 239.359 314.281C239.359 312.688 241.141 311.828 244.156 311.828ZM244.156 312.766C241.922 312.781 240.594 313.328 240.609 314.281C240.594 315.219 241.922 315.781 244.156 315.781C246.359 315.781 247.703 315.219 247.703 314.281C247.703 313.328 246.359 312.781 244.156 312.766ZM244.156 304.109C241.891 304.109 240.484 304.719 240.5 305.719C240.484 306.734 241.891 307.328 244.156 307.328C246.406 307.328 247.812 306.734 247.812 305.719C247.812 304.719 246.406 304.109 244.156 304.109ZM242.188 309.75H246.125V308.125C245.539 308.227 244.883 308.281 244.156 308.281C243.43 308.281 242.773 308.227 242.188 308.125V309.75ZM268.344 309.75V310.734H255.672V309.75H261.406V308.125H257.281V303.531H266.766V304.516H258.484V307.125H266.859V308.125H262.594V309.75H268.344ZM262 311.75C264.984 311.75 266.766 312.656 266.781 314.25C266.766 315.859 264.984 316.75 262 316.766C259 316.75 257.203 315.859 257.203 314.25C257.203 312.656 259 311.75 262 311.75ZM262 312.719C259.766 312.719 258.438 313.297 258.453 314.25C258.438 315.219 259.766 315.781 262 315.781C264.203 315.781 265.547 315.219 265.547 314.25C265.547 313.297 264.203 312.719 262 312.719ZM274.047 303.891C276.234 303.891 277.781 305.219 277.781 307.156C277.781 309.094 276.234 310.422 274.047 310.422C271.859 310.422 270.281 309.094 270.297 307.156C270.281 305.219 271.859 303.891 274.047 303.891ZM274.047 304.969C272.562 304.969 271.484 305.859 271.5 307.156C271.484 308.453 272.562 309.344 274.047 309.344C275.516 309.344 276.578 308.453 276.578 307.156C276.578 305.859 275.516 304.969 274.047 304.969ZM280.891 302.875V316.797H279.672V302.875H280.891ZM269.578 312.688C272.141 312.688 275.672 312.672 278.75 312.219L278.844 313.125C275.672 313.719 272.25 313.734 269.75 313.734L269.578 312.688Z" fill="#1E1E1E"/>
<path d="M357 302L365 310L357 318" stroke="#D9D9D9" stroke-width="3"/>
<g clip-path="url(#clip2_2962_2653)">
<circle cx="32" cy="378" r="10.5" stroke="#D9D9D9" stroke-width="3"/>
</g>
<path d="M69.7188 386.688V371.703H73.0312V372.812H70.9844V385.562H73.0312V386.688H69.7188ZM78.7656 373.5C78.7656 375.438 80.1719 377.266 82.2031 378L81.5156 378.953C79.9922 378.344 78.7812 377.133 78.1875 375.625C77.5938 377.305 76.3281 378.641 74.6875 379.297L74.0312 378.297C76.1094 377.531 77.5469 375.594 77.5625 373.453V371.734H78.7656V373.5ZM85.5312 370.891V381.297H84.2969V375.188H81.2031V374.156H84.2969V370.891H85.5312ZM85.8438 383.438V384.469H76.5469V380.109H77.7812V383.438H85.8438ZM93.8594 371.891V372.922H89.6406V374.656H93.7031V375.625H89.6406V377.547C91.6641 377.539 92.9297 377.469 94.4219 377.172L94.5469 378.188C92.9219 378.5 91.6094 378.578 89.3438 378.578H88.4688V371.891H93.8594ZM99.6406 370.891V379.312H98.4688V375.516H96.5156V379.219H95.375V371.156H96.5156V374.516H98.4688V370.891H99.6406ZM99.6406 380.031V384.766H98.4375V381.031H90.2812V380.031H99.6406ZM104.844 386.688H101.531V385.562H103.578V372.812H101.531V371.703H104.844V386.688ZM126.609 370.875V384.797H125.375V370.875H126.609ZM119.219 371.953C121.281 371.969 122.766 373.844 122.766 376.797C122.766 379.75 121.281 381.625 119.219 381.625C117.141 381.625 115.672 379.75 115.672 376.797C115.672 373.844 117.141 371.969 119.219 371.953ZM119.219 373.047C117.828 373.062 116.859 374.531 116.859 376.797C116.859 379.062 117.828 380.531 119.219 380.531C120.609 380.531 121.578 379.062 121.578 376.797C121.578 374.531 120.609 373.062 119.219 373.047ZM140.781 370.875V381.438H139.609V370.875H140.781ZM138.125 371.156V381.016H136.953V375.938H135.031V378.797H129.625V372H130.781V374.344H133.875V372H135.031V374.922H136.953V371.156H138.125ZM130.781 377.781H133.875V375.312H130.781V377.781ZM141.203 383.438V384.469H131.672V380.016H132.891V383.438H141.203ZM154.062 378.391V379.391H144.453V372.078H153.906V373.109H145.703V375.172H153.609V376.156H145.703V378.391H154.062ZM155.531 381.938V382.953H142.812V381.938H155.531ZM158.922 382.453L157.703 386.703H156.547L157.406 382.453H158.922ZM176.656 370.875V384.766H175.469V370.875H176.656ZM174.047 371.188V384.078H172.891V379.75H170.875C170.438 380.906 169.43 381.641 168.156 381.641C166.469 381.641 165.219 380.328 165.234 378.438C165.219 376.531 166.469 375.234 168.156 375.234C169.859 375.234 171.094 376.531 171.094 378.438L171.078 378.766H172.891V376.609H170.938V375.594H172.891V371.188H174.047ZM171.641 373.281V374.281H164.719V373.281H167.562V371.25H168.797V373.281H171.641ZM168.156 376.281C167.078 376.297 166.312 377.172 166.312 378.438C166.312 379.688 167.078 380.578 168.156 380.578C169.234 380.578 170.016 379.688 170.016 378.438C170.016 377.172 169.234 376.297 168.156 376.281ZM184.594 371.891V372.922H180.375V374.656H184.438V375.625H180.375V377.547C182.398 377.539 183.664 377.469 185.156 377.172L185.281 378.188C183.656 378.5 182.344 378.578 180.078 378.578H179.203V371.891H184.594ZM190.375 370.891V379.312H189.203V375.516H187.25V379.219H186.109V371.156H187.25V374.516H189.203V370.891H190.375ZM190.375 380.031V384.766H189.172V381.031H181.016V380.031H190.375ZM207.281 370.875V373.891H209.375V374.922H207.281V377.953H206.062V370.875H207.281ZM207.281 378.609V382H199.656V383.594H207.797V384.578H198.453V381.062H206.062V379.594H198.422V378.609H207.281ZM200.297 371.391C202.391 371.406 203.906 372.656 203.906 374.469C203.906 376.297 202.391 377.562 200.297 377.562C198.219 377.562 196.672 376.297 196.688 374.469C196.672 372.656 198.219 371.406 200.297 371.391ZM200.297 372.422C198.906 372.406 197.875 373.266 197.891 374.469C197.875 375.688 198.906 376.562 200.297 376.562C201.688 376.562 202.703 375.688 202.703 374.469C202.703 373.266 201.688 372.406 200.297 372.422ZM221.719 370.891V379.125H220.5V370.891H221.719ZM217.297 371.734V375.5H212.172V377.422C214.656 377.438 216.516 377.359 218.766 376.984L218.906 378.016C216.578 378.375 214.672 378.453 212.109 378.453H210.984V374.531H216.078V372.719H210.953V371.734H217.297ZM221.719 379.875V384.578H212.688V379.875H221.719ZM213.891 380.875V383.578H220.516V380.875H213.891ZM238.953 370.875V374.234H241.047V375.266H238.953V379H237.734V370.875H238.953ZM229.891 371.672V373.797H233.938V371.672H235.156V378.125H228.688V371.672H229.891ZM229.891 377.141H233.938V374.781H229.891V377.141ZM239.062 379.781V380.766H231.453V383.578H239.328V384.578H230.234V379.781H239.062ZM253.406 370.875V384.766H252.172V370.875H253.406ZM249.297 372.391C249.281 376.391 247.422 379.922 242.766 382.156L242.094 381.156C245.852 379.375 247.766 376.711 248.047 373.391H242.734V372.391H249.297Z" fill="#1E1E1E"/>
<path d="M357 370L365 378L357 386" stroke="#D9D9D9" stroke-width="3"/>
<g clip-path="url(#clip3_2962_2653)">
<circle cx="31" cy="689" r="10.5" stroke="#D9D9D9" stroke-width="3"/>
</g>
<path d="M80.4375 692.641V694.281H67.4219V692.641H72.9062V689.734H68.7969V682.766H78.9844V689.734H74.8906V692.641H80.4375ZM70.7656 688.172H77.0156V684.359H70.7656V688.172ZM92.7188 686.781V688.344H82.8906V682.469H92.5781V684.062H84.9375V686.781H92.7188ZM81.2344 691.359V689.781H94.25V691.359H88.6875V695.922H86.7188V691.359H81.2344ZM111.766 688.438V690H98.7656V688.438H104.297V687.219H100.344V682.344H110.203V683.891H102.328V685.656H110.281V687.219H106.25V688.438H111.766ZM100.25 693.344C100.25 691.656 102.125 690.719 105.234 690.719C108.32 690.719 110.172 691.656 110.188 693.344C110.172 695.008 108.32 695.953 105.234 695.953C102.125 695.953 100.25 695.008 100.25 693.344ZM102.281 693.344C102.273 694.086 103.266 694.438 105.234 694.438C107.164 694.438 108.18 694.086 108.188 693.344C108.18 692.609 107.164 692.234 105.234 692.234C103.266 692.234 102.273 692.609 102.281 693.344ZM117.203 682.672C119.461 682.664 121.133 684.117 121.141 686.156C121.133 688.203 119.461 689.648 117.203 689.656C114.961 689.648 113.242 688.203 113.25 686.156C113.242 684.117 114.961 682.664 117.203 682.672ZM112.656 691.438C115.195 691.445 118.711 691.414 121.75 690.984L121.906 692.422C118.75 693.039 115.375 693.062 112.891 693.062L112.656 691.438ZM115.234 686.156C115.227 687.281 116.078 687.93 117.203 687.922C118.336 687.93 119.195 687.281 119.203 686.156C119.195 685.047 118.336 684.391 117.203 684.391C116.078 684.391 115.227 685.047 115.234 686.156ZM122.562 695.969V681.719H124.547V695.969H122.562ZM137.703 681.719V685.141H139.625V686.797H137.703V690.047H135.703V681.719H137.703ZM126.422 684.531V682.969H129.656V681.625H131.641V682.969H134.859V684.531H126.422ZM127.109 687.453C127.109 685.938 128.547 684.938 130.641 684.938C132.711 684.938 134.141 685.938 134.141 687.453C134.141 688.969 132.711 689.969 130.641 689.969C128.547 689.969 127.109 688.969 127.109 687.453ZM128.391 695.781V690.594H130.375V691.672H135.703V690.594H137.703V695.781H128.391ZM129.062 687.453C129.055 688.141 129.688 688.508 130.641 688.516C131.602 688.508 132.25 688.141 132.25 687.453C132.25 686.789 131.602 686.391 130.641 686.406C129.688 686.391 129.055 686.789 129.062 687.453ZM130.375 694.219H135.703V693.203H130.375V694.219ZM152.203 681.719V695.938H150.219V681.719H152.203ZM141.016 692.422V683.078H142.984V690.727C144.906 690.695 146.969 690.516 149.062 690.109L149.312 691.75C146.82 692.273 144.461 692.43 142.266 692.422H141.016ZM165.297 681.719V687H167.391V688.625H165.297V695.969H163.297V681.719H165.297ZM154.641 692.516V683.031H161.312V684.641H156.625V690.875C158.688 690.859 160.391 690.75 162.281 690.422L162.5 692.094C160.289 692.469 158.352 692.523 155.844 692.516H154.641Z" fill="#1E1E1E"/>
<g filter="url(#filter0_di_2962_2653)">
<path d="M30 757C30 748.163 37.1634 741 46 741H347C355.837 741 363 748.163 363 757V785C363 793.837 355.837 801 347 801H46C37.1634 801 30 793.837 30 785V757Z" fill="#BEC3CD"/>
<path d="M46 741.5H347C355.56 741.5 362.5 748.44 362.5 757V785C362.5 793.56 355.56 800.5 347 800.5H46C37.4396 800.5 30.5 793.56 30.5 785V757C30.5 748.44 37.4396 741.5 46 741.5Z" stroke="white"/>
</g>
<path d="M194.096 762.621V768.562H196.451V770.391H194.096V778.652H191.846V762.621H194.096ZM189.613 764.098V765.908H184.34V772.922C186.66 772.896 188.576 772.79 190.703 772.412L190.949 774.293C188.471 774.715 186.291 774.785 183.461 774.768H182.107V764.098H189.613ZM204.326 762.92C207.877 762.92 210.127 764.098 210.145 766.049C210.127 767.982 207.877 769.16 204.326 769.143C200.793 769.16 198.49 767.982 198.49 766.049C198.49 764.098 200.793 762.92 204.326 762.92ZM204.326 764.66C202.094 764.66 200.811 765.135 200.828 766.049C200.811 766.945 202.094 767.402 204.326 767.402C206.541 767.402 207.824 766.945 207.824 766.049C207.824 765.135 206.541 764.66 204.326 764.66ZM209.881 772.992V778.441H198.719V772.992H209.881ZM200.934 774.768V776.648H207.684V774.768H200.934ZM211.621 770.074V771.867H197.031V770.074H211.621Z" fill="white"/>
<defs>
<filter id="filter0_di_2962_2653" x="26" y="737" width="341" height="68" filterUnits="userSpaceOnUse" color-interpolation-filters="sRGB">
<feFlood flood-opacity="0" result="BackgroundImageFix"/>
<feColorMatrix in="SourceAlpha" type="matrix" values="0 0 0 0 0 0 0 0 0 0 0 0 0 0 0 0 0 0 127 0" result="hardAlpha"/>
<feOffset/>
<feGaussianBlur stdDeviation="2"/>
<feComposite in2="hardAlpha" operator="out"/>
<feColorMatrix type="matrix" values="0 0 0 0 0.715912 0 0 0 0 0.69906 0 0 0 0 0.614798 0 0 0 0.25 0"/>
<feBlend mode="normal" in2="BackgroundImageFix" result="effect1_dropShadow_2962_2653"/>
<feBlend mode="normal" in="SourceGraphic" in2="effect1_dropShadow_2962_2653" result="shape"/>
<feColorMatrix in="SourceAlpha" type="matrix" values="0 0 0 0 0 0 0 0 0 0 0 0 0 0 0 0 0 0 127 0" result="hardAlpha"/>
<feOffset dy="4"/>
<feGaussianBlur stdDeviation="2"/>
<feComposite in2="hardAlpha" operator="arithmetic" k2="-1" k3="1"/>
<feColorMatrix type="matrix" values="0 0 0 0 1 0 0 0 0 1 0 0 0 0 1 0 0 0 0.25 0"/>
<feBlend mode="normal" in2="shape" result="effect2_innerShadow_2962_2653"/>
</filter>
<clipPath id="clip0_2962_2653">
<rect width="24" height="24" fill="white" transform="translate(20 230)"/>
</clipPath>
<clipPath id="clip1_2962_2653">
<rect width="24" height="24" fill="white" transform="translate(20 298)"/>
</clipPath>
<clipPath id="clip2_2962_2653">
<rect width="24" height="24" fill="white" transform="translate(20 366)"/>
</clipPath>
<clipPath id="clip3_2962_2653">
<rect width="24" height="24" fill="white" transform="translate(19 677)"/>
</clipPath>
</defs>
</svg>
