<svg width="393" height="852" viewBox="0 0 393 852" fill="none" xmlns="http://www.w3.org/2000/svg">
<rect width="393" height="852" fill="white"/>
<rect width="393" height="98" fill="#FEFEFE"/>
<rect width="393" height="54" fill="#FEFEFE"/>
<path d="M38.9526 38V28.1304H38.8032L35.8232 30.2305V28.2217L38.9526 26.022H41.0859V38H38.9526ZM48.8887 38.2407C47.9701 38.2407 47.1593 38.0941 46.4565 37.8008C45.7537 37.502 45.2031 37.0924 44.8047 36.5723C44.4118 36.0465 44.2153 35.4434 44.2153 34.7627V34.7461C44.2153 34.2314 44.3288 33.7666 44.5557 33.3516C44.7881 32.931 45.109 32.5768 45.5186 32.2891C45.9281 32.0013 46.3984 31.8049 46.9297 31.6997V31.6499C46.2435 31.4673 45.6901 31.1408 45.2695 30.6704C44.8545 30.1945 44.647 29.6356 44.647 28.9937V28.9771C44.647 28.3628 44.8268 27.8149 45.1865 27.3335C45.5518 26.8521 46.0526 26.473 46.689 26.1963C47.3309 25.9196 48.0641 25.7812 48.8887 25.7812C49.7132 25.7812 50.4437 25.9196 51.0801 26.1963C51.722 26.473 52.2228 26.8521 52.5825 27.3335C52.9422 27.8149 53.1221 28.3628 53.1221 28.9771V28.9937C53.1221 29.6356 52.9146 30.1945 52.4995 30.6704C52.0845 31.1408 51.5339 31.4673 50.8477 31.6499V31.6997C51.3789 31.8049 51.8493 32.0013 52.2588 32.2891C52.6683 32.5768 52.9865 32.931 53.2134 33.3516C53.4458 33.7666 53.562 34.2314 53.562 34.7461V34.7627C53.562 35.4434 53.3628 36.0465 52.9644 36.5723C52.5715 37.0924 52.0236 37.502 51.3208 37.8008C50.618 38.0941 49.8073 38.2407 48.8887 38.2407ZM48.8887 36.6055C49.3701 36.6055 49.7935 36.5225 50.1587 36.3564C50.5295 36.1849 50.82 35.9497 51.0303 35.6509C51.2406 35.3465 51.3457 35.0034 51.3457 34.6216V34.605C51.3457 34.2176 51.2406 33.8745 51.0303 33.5757C50.8255 33.2713 50.5378 33.0334 50.167 32.8618C49.7962 32.6903 49.3701 32.6045 48.8887 32.6045C48.4017 32.6045 47.9728 32.6903 47.6021 32.8618C47.2368 33.0334 46.9491 33.2713 46.7388 33.5757C46.5285 33.8745 46.4233 34.2176 46.4233 34.605V34.6216C46.4233 35.0034 46.5285 35.3465 46.7388 35.6509C46.9546 35.9497 47.2451 36.1849 47.6104 36.3564C47.9811 36.5225 48.4072 36.6055 48.8887 36.6055ZM48.8887 30.9692C49.3092 30.9692 49.6772 30.8945 49.9927 30.7451C50.3136 30.5902 50.5627 30.3799 50.7397 30.1143C50.9224 29.8486 51.0137 29.5387 51.0137 29.1846V29.168C51.0137 28.8193 50.9224 28.5122 50.7397 28.2466C50.5627 27.981 50.3136 27.7734 49.9927 27.624C49.6717 27.4746 49.3037 27.3999 48.8887 27.3999C48.4681 27.3999 48.0973 27.4746 47.7764 27.624C47.4609 27.7734 47.2119 27.981 47.0293 28.2466C46.8522 28.5122 46.7637 28.8193 46.7637 29.168V29.1846C46.7637 29.5387 46.8522 29.8486 47.0293 30.1143C47.2119 30.3799 47.4609 30.5902 47.7764 30.7451C48.0973 30.8945 48.4681 30.9692 48.8887 30.9692ZM57.4136 36.3896C57.0373 36.3896 56.7218 36.2651 56.4673 36.0161C56.2183 35.7616 56.0938 35.4517 56.0938 35.0864C56.0938 34.7157 56.2183 34.4058 56.4673 34.1567C56.7218 33.9022 57.0373 33.7749 57.4136 33.7749C57.7954 33.7749 58.1108 33.9022 58.3599 34.1567C58.6089 34.4058 58.7334 34.7157 58.7334 35.0864C58.7334 35.4517 58.6089 35.7616 58.3599 36.0161C58.1108 36.2651 57.7954 36.3896 57.4136 36.3896ZM57.4136 30.2305C57.0373 30.2305 56.7218 30.106 56.4673 29.8569C56.2183 29.6024 56.0938 29.2925 56.0938 28.9272C56.0938 28.5565 56.2183 28.2466 56.4673 27.9976C56.7218 27.743 57.0373 27.6157 57.4136 27.6157C57.7954 27.6157 58.1108 27.743 58.3599 27.9976C58.6089 28.2466 58.7334 28.5565 58.7334 28.9272C58.7334 29.2925 58.6089 29.6024 58.3599 29.8569C58.1108 30.106 57.7954 30.2305 57.4136 30.2305ZM65.7725 38.2988C64.8206 38.2988 64.0044 38.0443 63.3237 37.5352C62.6486 37.026 62.1284 36.3011 61.7632 35.3604C61.3979 34.4196 61.2153 33.3045 61.2153 32.0151V31.9985C61.2153 30.7091 61.3979 29.5968 61.7632 28.6616C62.1284 27.7209 62.6486 26.9959 63.3237 26.4868C64.0044 25.9777 64.8206 25.7231 65.7725 25.7231C66.7243 25.7231 67.5405 25.9777 68.2212 26.4868C68.9019 26.9959 69.4248 27.7209 69.79 28.6616C70.1553 29.5968 70.3379 30.7091 70.3379 31.9985V32.0151C70.3379 33.3045 70.1553 34.4196 69.79 35.3604C69.4248 36.3011 68.9019 37.026 68.2212 37.5352C67.5405 38.0443 66.7243 38.2988 65.7725 38.2988ZM65.7725 36.564C66.2816 36.564 66.716 36.3813 67.0757 36.0161C67.4354 35.6509 67.7093 35.1307 67.8975 34.4556C68.0911 33.7749 68.188 32.9614 68.188 32.0151V31.9985C68.188 31.0522 68.0911 30.2415 67.8975 29.5664C67.7093 28.8857 67.4354 28.3656 67.0757 28.0059C66.716 27.6406 66.2816 27.458 65.7725 27.458C65.2633 27.458 64.8289 27.6406 64.4692 28.0059C64.1151 28.3656 63.8411 28.8857 63.6475 29.5664C63.4593 30.2415 63.3652 31.0522 63.3652 31.9985V32.0151C63.3652 32.9614 63.4593 33.7749 63.6475 34.4556C63.8411 35.1307 64.1151 35.6509 64.4692 36.0161C64.8289 36.3813 65.2633 36.564 65.7725 36.564ZM77.0781 38.2988C76.1263 38.2988 75.3101 38.0443 74.6294 37.5352C73.9543 37.026 73.4341 36.3011 73.0688 35.3604C72.7036 34.4196 72.521 33.3045 72.521 32.0151V31.9985C72.521 30.7091 72.7036 29.5968 73.0688 28.6616C73.4341 27.7209 73.9543 26.9959 74.6294 26.4868C75.3101 25.9777 76.1263 25.7231 77.0781 25.7231C78.0299 25.7231 78.8462 25.9777 79.5269 26.4868C80.2075 26.9959 80.7305 27.7209 81.0957 28.6616C81.4609 29.5968 81.6436 30.7091 81.6436 31.9985V32.0151C81.6436 33.3045 81.4609 34.4196 81.0957 35.3604C80.7305 36.3011 80.2075 37.026 79.5269 37.5352C78.8462 38.0443 78.0299 38.2988 77.0781 38.2988ZM77.0781 36.564C77.5872 36.564 78.0216 36.3813 78.3813 36.0161C78.741 35.6509 79.015 35.1307 79.2031 34.4556C79.3968 33.7749 79.4937 32.9614 79.4937 32.0151V31.9985C79.4937 31.0522 79.3968 30.2415 79.2031 29.5664C79.015 28.8857 78.741 28.3656 78.3813 28.0059C78.0216 27.6406 77.5872 27.458 77.0781 27.458C76.569 27.458 76.1346 27.6406 75.7749 28.0059C75.4207 28.3656 75.1468 28.8857 74.9531 29.5664C74.765 30.2415 74.6709 31.0522 74.6709 31.9985V32.0151C74.6709 32.9614 74.765 33.7749 74.9531 34.4556C75.1468 35.1307 75.4207 35.6509 75.7749 36.0161C76.1346 36.3813 76.569 36.564 77.0781 36.564Z" fill="black"/>
<path fill-rule="evenodd" clip-rule="evenodd" d="M314.614 27.0329C314.614 26.3999 314.136 25.8867 313.547 25.8867H312.481C311.892 25.8867 311.414 26.3999 311.414 27.0329V36.9669C311.414 37.5999 311.892 38.1131 312.481 38.1131H313.547C314.136 38.1131 314.614 37.5999 314.614 36.9669V27.0329ZM307.18 28.332H308.247C308.836 28.332 309.313 28.8575 309.313 29.5057V36.9394C309.313 37.5876 308.836 38.1131 308.247 38.1131H307.18C306.591 38.1131 306.113 37.5876 306.113 36.9394V29.5057C306.113 28.8575 306.591 28.332 307.18 28.332ZM302.848 30.981H301.782C301.192 30.981 300.715 31.5132 300.715 32.1697V36.9244C300.715 37.5809 301.192 38.1131 301.782 38.1131H302.848C303.437 38.1131 303.915 37.5809 303.915 36.9244V32.1697C303.915 31.5132 303.437 30.981 302.848 30.981ZM297.547 33.4263H296.481C295.892 33.4263 295.414 33.9509 295.414 34.598V36.9414C295.414 37.5885 295.892 38.1131 296.481 38.1131H297.547C298.136 38.1131 298.614 37.5885 298.614 36.9414V34.598C298.614 33.9509 298.136 33.4263 297.547 33.4263Z" fill="black"/>
<path fill-rule="evenodd" clip-rule="evenodd" d="M330.185 28.3022C332.672 28.3023 335.064 29.2244 336.866 30.8779C337.002 31.0055 337.219 31.0039 337.353 30.8743L338.65 29.6108C338.718 29.545 338.756 29.456 338.755 29.3633C338.754 29.2706 338.716 29.182 338.647 29.117C333.916 24.7423 326.452 24.7423 321.721 29.117C321.653 29.1819 321.614 29.2705 321.613 29.3632C321.613 29.4559 321.65 29.545 321.718 29.6108L323.016 30.8743C323.149 31.0041 323.367 31.0057 323.502 30.8779C325.305 29.2243 327.697 28.3022 330.185 28.3022ZM330.181 32.5225C331.539 32.5224 332.847 33.0342 333.854 33.9583C333.99 34.0894 334.204 34.0866 334.337 33.9519L335.624 32.6326C335.692 32.5634 335.729 32.4695 335.728 32.3719C335.727 32.2744 335.688 32.1813 335.619 32.1135C332.555 29.2227 327.81 29.2227 324.746 32.1135C324.677 32.1813 324.638 32.2744 324.637 32.372C324.636 32.4696 324.674 32.5635 324.741 32.6326L326.028 33.9519C326.161 34.0866 326.375 34.0894 326.512 33.9583C327.517 33.0348 328.825 32.5231 330.181 32.5225ZM332.706 35.316C332.708 35.4214 332.671 35.523 332.603 35.5968L330.427 38.0515C330.363 38.1236 330.276 38.1642 330.185 38.1642C330.094 38.1642 330.007 38.1236 329.943 38.0515L327.766 35.5968C327.699 35.5229 327.662 35.4213 327.664 35.316C327.666 35.2106 327.707 35.1108 327.777 35.0402C329.167 33.7263 331.203 33.7263 332.593 35.0402C332.663 35.1109 332.704 35.2107 332.706 35.316Z" fill="black"/>
<rect opacity="0.35" x="346.258" y="26" width="24" height="12" rx="3.8" stroke="black"/>
<path opacity="0.4" d="M371.758 30.2812V34.3567C372.563 34.0116 373.086 33.2086 373.086 32.319C373.086 31.4294 372.563 30.6264 371.758 30.2812Z" fill="black"/>
<rect x="347.758" y="27.5" width="21" height="9" rx="2.5" fill="black"/>
<g filter="url(#filter0_di_3855_3325)">
<path d="M30 757C30 748.163 37.1634 741 46 741H347C355.837 741 363 748.163 363 757V785C363 793.837 355.837 801 347 801H46C37.1634 801 30 793.837 30 785V757Z" fill="#BEC3CD"/>
<path d="M46 741.5H347C355.56 741.5 362.5 748.44 362.5 757V785C362.5 793.56 355.56 800.5 347 800.5H46C37.4396 800.5 30.5 793.56 30.5 785V757C30.5 748.44 37.4396 741.5 46 741.5Z" stroke="white"/>
</g>
<path d="M194.096 762.621V768.562H196.451V770.391H194.096V778.652H191.846V762.621H194.096ZM189.613 764.098V765.908H184.34V772.922C186.66 772.896 188.576 772.79 190.703 772.412L190.949 774.293C188.471 774.715 186.291 774.785 183.461 774.768H182.107V764.098H189.613ZM204.326 762.92C207.877 762.92 210.127 764.098 210.145 766.049C210.127 767.982 207.877 769.16 204.326 769.143C200.793 769.16 198.49 767.982 198.49 766.049C198.49 764.098 200.793 762.92 204.326 762.92ZM204.326 764.66C202.094 764.66 200.811 765.135 200.828 766.049C200.811 766.945 202.094 767.402 204.326 767.402C206.541 767.402 207.824 766.945 207.824 766.049C207.824 765.135 206.541 764.66 204.326 764.66ZM209.881 772.992V778.441H198.719V772.992H209.881ZM200.934 774.768V776.648H207.684V774.768H200.934ZM211.621 770.074V771.867H197.031V770.074H211.621Z" fill="white"/>
<path d="M27.4531 113.625C27.4531 115.922 28.6484 118.219 31.4844 119.297L29.8906 121.57C28.0742 120.879 26.8203 119.613 26.0469 118.031C25.2734 119.883 23.9375 121.43 21.9453 122.25L20.3281 119.953C23.3281 118.641 24.5469 116.016 24.5469 113.625V111.117H27.4531V113.625ZM38.9609 109.852V122.883H36.125V117.469H34.3438V122.227H31.5547V110.227H34.3438V115.055H36.125V109.852H38.9609ZM31.6719 123.188C36.1719 123.188 39.0547 124.688 39.0781 127.172C39.0547 129.656 36.1719 131.156 31.6719 131.156C27.1484 131.156 24.2891 129.656 24.2891 127.172C24.2891 124.688 27.1484 123.188 31.6719 123.188ZM31.6719 125.414C28.8828 125.414 27.2656 126.023 27.2891 127.172C27.2656 128.32 28.8828 128.906 31.6719 128.906C34.4375 128.906 36.0547 128.32 36.0547 127.172C36.0547 126.023 34.4375 125.414 31.6719 125.414ZM59.3516 109.852V125.531H56.375V118.547H51.0781V116.203H56.375V114.562H51.0781V112.219H56.375V109.852H59.3516ZM59.8672 128.391V130.781H45.1719V124.125H48.1719V128.391H59.8672ZM45.5234 111.188V120.305C48.1367 120.281 50.5742 120.105 53.2344 119.625L53.5391 122.039C50.3516 122.648 47.4688 122.766 44.2812 122.766H42.5703V111.188H45.5234ZM80.1875 109.852V122.203H77.1875V121.523H73.3203V119.719H77.1875V109.852H80.1875ZM62.1172 117.352C66.2422 117.375 71.3516 117.328 75.9219 116.906L76.0625 118.758C74.1758 119.016 72.2422 119.18 70.3438 119.273V122.25H67.3906V119.391C65.6445 119.438 63.9688 119.438 62.4219 119.414L62.1172 117.352ZM80.1875 122.836V127.828H68.1875V128.93H80.6797V131.016H65.2578V125.906H77.2109V124.852H65.1641V122.836H80.1875ZM68.9844 110.133C72.1484 110.133 74.3281 111.422 74.3516 113.344C74.3281 115.336 72.1484 116.531 68.9844 116.531C65.7266 116.531 63.5703 115.336 63.5703 113.344C63.5703 111.422 65.7266 110.133 68.9844 110.133ZM68.9844 112.102C67.3672 112.078 66.3828 112.57 66.4062 113.344C66.3828 114.141 67.3672 114.586 68.9844 114.586C70.5547 114.586 71.5625 114.141 71.5625 113.344C71.5625 112.57 70.5547 112.078 68.9844 112.102ZM88.9297 110.461C92.1641 110.461 94.625 112.477 94.625 115.336C94.625 118.148 92.1641 120.188 88.9297 120.188C85.625 120.188 83.1875 118.148 83.1875 115.336C83.1875 112.477 85.625 110.461 88.9297 110.461ZM88.9297 112.898C87.2891 112.898 86.0703 113.789 86.0938 115.336C86.0703 116.859 87.2891 117.773 88.9297 117.773C90.5469 117.773 91.7422 116.859 91.7422 115.336C91.7422 113.789 90.5469 112.898 88.9297 112.898ZM100.719 109.828V120.516H97.7188V109.828H100.719ZM100.719 121.406V127.195H89.375V128.578H101.305V130.922H86.4453V125.016H97.7422V123.703H86.3984V121.406H100.719ZM113.328 110.133C118.227 110.133 121.062 111.422 121.086 113.766C121.062 116.133 118.227 117.422 113.328 117.422C108.406 117.422 105.547 116.133 105.547 113.766C105.547 111.422 108.406 110.133 113.328 110.133ZM113.328 112.312C110.188 112.312 108.664 112.828 108.688 113.766C108.664 114.82 110.188 115.219 113.328 115.219C116.492 115.219 117.992 114.82 117.992 113.766C117.992 112.828 116.492 112.312 113.328 112.312ZM123.055 118.43V120.797H103.602V118.43H123.055ZM120.688 122.039V127.477H108.805V128.766H121.25V131.016H105.875V125.391H117.734V124.219H105.852V122.039H120.688ZM146.797 109.828V113.953H149.68V116.414H146.797V120.492H143.797V109.828H146.797ZM146.797 121.336V127.148H135.617V128.578H147.406V130.922H132.688V124.992H143.82V123.633H132.641V121.336H146.797ZM135.758 110.461C139.039 110.484 141.477 112.453 141.477 115.289C141.477 118.102 139.039 120.117 135.758 120.117C132.477 120.117 130.016 118.102 130.016 115.289C130.016 112.453 132.477 110.484 135.758 110.461ZM135.758 112.898C134.117 112.898 132.922 113.789 132.945 115.289C132.922 116.812 134.117 117.75 135.758 117.75C137.398 117.75 138.57 116.812 138.57 115.289C138.57 113.789 137.398 112.898 135.758 112.898ZM168.594 109.828V131.203H165.617V122.602H161.961V120.141H165.617V116.789H162.031V114.352H165.617V109.828H168.594ZM160.906 111.609V119.812H154.344V123.961C156.98 123.949 159.324 123.82 162.008 123.422L162.242 125.859C159.055 126.375 156.336 126.422 153.055 126.422H151.367V117.492H157.977V113.977H151.32V111.609H160.906ZM190.812 121.594V123.984H182.516V131.156H179.562V123.984H171.359V121.594H190.812ZM189.078 110.953V113.297H182.867C183.16 115.383 185.516 117.48 189.898 118.008L188.82 120.352C185.07 119.848 182.387 118.242 181.109 116.039C179.797 118.242 177.137 119.848 173.422 120.352L172.32 118.008C176.633 117.48 179.012 115.383 179.352 113.297H173.117V110.953H189.078ZM198.945 115.195C198.945 118.641 199.906 122.203 202.812 124.078L201.195 126.398C199.355 125.285 198.184 123.457 197.516 121.266C196.742 123.68 195.465 125.695 193.531 126.867L191.703 124.664C194.867 122.695 196.039 118.945 196.039 115.336V111.656H198.945V115.195ZM210.594 109.828V131.156H207.734V109.828H210.594ZM206.117 110.133V130.172H203.328V119.461H200.562V117.023H203.328V110.133H206.117ZM232.367 126.211V128.672H212.844V126.211H217.203V120.984C215.551 120 214.555 118.488 214.555 116.602C214.555 113.156 217.93 110.859 222.57 110.859C227.188 110.859 230.586 113.156 230.609 116.602C230.598 118.441 229.625 119.941 228.031 120.938V126.211H232.367ZM222.57 113.227C219.523 113.227 217.508 114.445 217.508 116.602C217.508 118.688 219.523 119.977 222.57 119.977C225.594 119.977 227.633 118.688 227.656 116.602C227.633 114.445 225.594 113.227 222.57 113.227ZM220.156 126.211H225.008V122.062C224.246 122.215 223.426 122.297 222.57 122.297C221.715 122.297 220.906 122.227 220.156 122.062V126.211Z" fill="#1E1E1E"/>
<path d="M20 203C20 198.582 23.5817 195 28 195H121.664C126.082 195 129.664 198.582 129.664 203V223C129.664 227.418 126.082 231 121.664 231H28C23.5817 231 20 227.418 20 223V203Z" fill="#F3F3F5"/>
<g clip-path="url(#clip0_3855_3325)">
<path d="M39.6923 208.256H43.5143V209.446H39.6923V208.256ZM39.6923 211.35H43.5143V212.54H39.6923V211.35ZM42.9683 206.366H44.4383V215.774H42.9683V206.366ZM36.1503 217.706H44.7743V218.896H36.1503V217.706ZM36.1503 214.836H37.6203V218.28H36.1503V214.836ZM37.3403 207.15C37.975 207.15 38.5443 207.29 39.0483 207.57C39.5523 207.85 39.949 208.233 40.2383 208.718C40.5276 209.203 40.6723 209.763 40.6723 210.398C40.6723 211.033 40.5276 211.597 40.2383 212.092C39.949 212.577 39.5523 212.96 39.0483 213.24C38.5443 213.511 37.975 213.646 37.3403 213.646C36.715 213.646 36.1503 213.511 35.6463 213.24C35.1423 212.96 34.7456 212.577 34.4563 212.092C34.167 211.597 34.0223 211.033 34.0223 210.398C34.0223 209.763 34.167 209.203 34.4563 208.718C34.7456 208.233 35.1423 207.85 35.6463 207.57C36.1503 207.29 36.715 207.15 37.3403 207.15ZM37.3403 208.452C36.9763 208.452 36.6496 208.536 36.3603 208.704C36.071 208.863 35.8376 209.087 35.6603 209.376C35.4923 209.665 35.4083 210.006 35.4083 210.398C35.4083 210.79 35.4923 211.135 35.6603 211.434C35.8376 211.733 36.071 211.966 36.3603 212.134C36.6496 212.293 36.981 212.372 37.3543 212.372C37.7183 212.372 38.045 212.293 38.3343 212.134C38.6236 211.966 38.8523 211.733 39.0203 211.434C39.1883 211.135 39.2723 210.79 39.2723 210.398C39.2723 210.006 39.1883 209.665 39.0203 209.376C38.8523 209.087 38.6236 208.863 38.3343 208.704C38.045 208.536 37.7136 208.452 37.3403 208.452ZM47.9828 212.218H56.8588V213.394H47.9828V212.218ZM46.5688 216.418H58.1608V217.622H46.5688V216.418ZM51.6088 212.736H53.0788V216.838H51.6088V212.736ZM47.9828 207.318H56.7468V208.508H49.4528V212.736H47.9828V207.318Z" fill="#717182"/>
</g>
<g opacity="0.5">
<path d="M104.664 211L108.664 215L112.664 211" stroke="#717182" stroke-width="1.33333" stroke-linecap="round" stroke-linejoin="round"/>
</g>
<path d="M141.664 203C141.664 198.582 145.246 195 149.664 195H243.336C247.754 195 251.336 198.582 251.336 203V223C251.336 227.418 247.754 231 243.336 231H149.664C145.246 231 141.664 227.418 141.664 223V203Z" fill="#F3F3F5"/>
<g clip-path="url(#clip1_3855_3325)">
<path d="M158.645 211.602H160.115V213.87H158.645V211.602ZM164.497 206.366H165.967V213.828H164.497V206.366ZM155.509 212.078L155.355 211.028C156.167 211.028 157.039 211.023 157.973 211.014C158.906 211.005 159.853 210.981 160.815 210.944C161.776 210.897 162.709 210.827 163.615 210.734L163.685 211.658C162.761 211.789 161.823 211.887 160.871 211.952C159.919 212.008 158.985 212.045 158.071 212.064C157.165 212.073 156.311 212.078 155.509 212.078ZM157.231 214.276H165.967V217.076H158.701V218.336H157.259V216.124H164.525V215.284H157.231V214.276ZM157.259 218H166.345V219.036H157.259V218ZM162.089 212.372H164.959V213.282H162.089V212.372ZM159.443 206.576C160.077 206.576 160.633 206.655 161.109 206.814C161.585 206.963 161.953 207.183 162.215 207.472C162.485 207.761 162.621 208.107 162.621 208.508C162.621 208.891 162.485 209.227 162.215 209.516C161.953 209.805 161.585 210.029 161.109 210.188C160.633 210.337 160.077 210.412 159.443 210.412C158.817 210.412 158.262 210.337 157.777 210.188C157.301 210.029 156.932 209.805 156.671 209.516C156.409 209.227 156.279 208.891 156.279 208.508C156.279 208.107 156.409 207.761 156.671 207.472C156.932 207.183 157.301 206.963 157.777 206.814C158.262 206.655 158.817 206.576 159.443 206.576ZM159.443 207.57C158.901 207.57 158.463 207.654 158.127 207.822C157.8 207.981 157.637 208.209 157.637 208.508C157.637 208.797 157.8 209.026 158.127 209.194C158.463 209.353 158.901 209.432 159.443 209.432C159.993 209.432 160.432 209.353 160.759 209.194C161.085 209.026 161.249 208.797 161.249 208.508C161.249 208.209 161.085 207.981 160.759 207.822C160.432 207.654 159.993 207.57 159.443 207.57Z" fill="#717182"/>
</g>
<g opacity="0.5">
<path d="M226.336 211L230.336 215L234.336 211" stroke="#717182" stroke-width="1.33333" stroke-linecap="round" stroke-linejoin="round"/>
</g>
<path d="M263.336 203C263.336 198.582 266.918 195 271.336 195H365C369.418 195 373 198.582 373 203V223C373 227.418 369.418 231 365 231H271.336C266.918 231 263.336 227.418 263.336 223V203Z" fill="#F3F3F5"/>
<g clip-path="url(#clip2_3855_3325)">
<path d="M280.638 206.786C281.282 206.786 281.856 206.907 282.36 207.15C282.864 207.393 283.261 207.733 283.55 208.172C283.84 208.601 283.984 209.101 283.984 209.67C283.984 210.23 283.84 210.725 283.55 211.154C283.261 211.583 282.864 211.919 282.36 212.162C281.856 212.405 281.282 212.526 280.638 212.526C279.994 212.526 279.42 212.405 278.916 212.162C278.412 211.919 278.011 211.583 277.712 211.154C277.423 210.725 277.278 210.23 277.278 209.67C277.278 209.101 277.423 208.601 277.712 208.172C278.011 207.733 278.412 207.393 278.916 207.15C279.42 206.907 279.994 206.786 280.638 206.786ZM280.638 207.976C280.265 207.976 279.934 208.046 279.644 208.186C279.355 208.326 279.126 208.522 278.958 208.774C278.79 209.026 278.706 209.32 278.706 209.656C278.706 210.001 278.79 210.3 278.958 210.552C279.126 210.804 279.355 211 279.644 211.14C279.934 211.271 280.265 211.336 280.638 211.336C281.012 211.336 281.343 211.271 281.632 211.14C281.922 211 282.15 210.804 282.318 210.552C282.486 210.3 282.57 210.001 282.57 209.656C282.57 209.32 282.486 209.026 282.318 208.774C282.15 208.522 281.917 208.326 281.618 208.186C281.329 208.046 281.002 207.976 280.638 207.976ZM286.112 206.366H287.582V212.848H286.112V206.366ZM279.196 213.422H287.582V216.712H280.666V218.462H279.224V215.634H286.14V214.57H279.196V213.422ZM279.224 217.846H287.974V218.994H279.224V217.846Z" fill="#717182"/>
</g>
<g opacity="0.5">
<path d="M348 211L352 215L356 211" stroke="#717182" stroke-width="1.33333" stroke-linecap="round" stroke-linejoin="round"/>
</g>
<defs>
<filter id="filter0_di_3855_3325" x="26" y="737" width="341" height="68" filterUnits="userSpaceOnUse" color-interpolation-filters="sRGB">
<feFlood flood-opacity="0" result="BackgroundImageFix"/>
<feColorMatrix in="SourceAlpha" type="matrix" values="0 0 0 0 0 0 0 0 0 0 0 0 0 0 0 0 0 0 127 0" result="hardAlpha"/>
<feOffset/>
<feGaussianBlur stdDeviation="2"/>
<feComposite in2="hardAlpha" operator="out"/>
<feColorMatrix type="matrix" values="0 0 0 0 0.715912 0 0 0 0 0.69906 0 0 0 0 0.614798 0 0 0 0.25 0"/>
<feBlend mode="normal" in2="BackgroundImageFix" result="effect1_dropShadow_3855_3325"/>
<feBlend mode="normal" in="SourceGraphic" in2="effect1_dropShadow_3855_3325" result="shape"/>
<feColorMatrix in="SourceAlpha" type="matrix" values="0 0 0 0 0 0 0 0 0 0 0 0 0 0 0 0 0 0 127 0" result="hardAlpha"/>
<feOffset dy="4"/>
<feGaussianBlur stdDeviation="2"/>
<feComposite in2="hardAlpha" operator="arithmetic" k2="-1" k3="1"/>
<feColorMatrix type="matrix" values="0 0 0 0 1 0 0 0 0 1 0 0 0 0 1 0 0 0 0.25 0"/>
<feBlend mode="normal" in2="shape" result="effect2_innerShadow_3855_3325"/>
</filter>
<clipPath id="clip0_3855_3325">
<rect width="24.2266" height="20" fill="white" transform="translate(33 203)"/>
</clipPath>
<clipPath id="clip1_3855_3325">
<rect width="12.1172" height="20" fill="white" transform="translate(154.664 203)"/>
</clipPath>
<clipPath id="clip2_3855_3325">
<rect width="12.1172" height="20" fill="white" transform="translate(276.336 203)"/>
</clipPath>
</defs>
</svg>
