<svg width="393" height="852" viewBox="0 0 393 852" fill="none" xmlns="http://www.w3.org/2000/svg">
<rect width="393" height="852" fill="white"/>
<path d="M40.0859 119.508V121.922H31.8359V123.492C35.5508 123.773 37.7422 125.109 37.7656 127.312C37.7422 129.773 34.9531 131.156 30.3359 131.156C25.6484 131.156 22.8594 129.773 22.8594 127.312C22.8594 125.098 25.0742 123.762 28.8594 123.492V121.922H20.6328V119.508H40.0859ZM30.3359 125.695C27.3828 125.719 25.8828 126.234 25.9062 127.312C25.8828 128.344 27.3828 128.906 30.3359 128.906C33.2188 128.906 34.7422 128.344 34.7656 127.312C34.7422 126.234 33.2188 125.719 30.3359 125.695ZM38.3281 110.742V113.086H32.5391C33.043 114.586 35.2109 116.027 39.2656 116.367L38.2109 118.711C34.1914 118.324 31.4727 116.801 30.3359 114.727C29.2109 116.801 26.5391 118.324 22.4844 118.711L21.5 116.367C25.4492 116.027 27.6289 114.574 28.1797 113.086H22.4141V110.742H38.3281ZM54.0312 111.727V114.094H41.375V111.727H46.2266V109.711H49.2031V111.727H54.0312ZM47.7031 114.773C50.7969 114.773 52.9531 116.367 52.9531 118.711C52.9531 121.055 50.7969 122.648 47.7031 122.648C44.6094 122.648 42.4062 121.055 42.4062 118.711C42.4062 116.367 44.6094 114.773 47.7031 114.773ZM47.7031 117.023C46.2734 117.023 45.3125 117.609 45.3359 118.711C45.3125 119.789 46.2734 120.352 47.7031 120.352C49.1328 120.352 50.1172 119.789 50.1172 118.711C50.1172 117.609 49.1328 117.023 47.7031 117.023ZM58.2969 109.828V115.359H61.1797V117.797H58.2969V123.211H55.2969V109.828H58.2969ZM58.2969 124.102V131.156H55.2969V126.492H43.9297V124.102H58.2969ZM79.8125 111.68V113.766C79.7891 116.367 79.7891 119.297 79.0156 123.586L76.0859 123.328C76.7891 119.426 76.8125 116.52 76.8125 114.047H64.0391V111.68H79.8125ZM81.5703 126.117V128.555H62.1172V126.117H66.2656V119.414H69.2422V126.117H71.5859V119.414H74.5391V126.117H81.5703ZM101.047 111.727V114.094H88.3906V111.727H93.2422V109.711H96.2188V111.727H101.047ZM94.7188 114.773C97.8125 114.773 99.9688 116.367 99.9688 118.711C99.9688 121.055 97.8125 122.648 94.7188 122.648C91.625 122.648 89.4219 121.055 89.4219 118.711C89.4219 116.367 91.625 114.773 94.7188 114.773ZM94.7188 117.023C93.2891 117.023 92.3281 117.609 92.3516 118.711C92.3281 119.789 93.2891 120.352 94.7188 120.352C96.1484 120.352 97.1328 119.789 97.1328 118.711C97.1328 117.609 96.1484 117.023 94.7188 117.023ZM105.312 109.828V115.359H108.195V117.797H105.312V123.211H102.312V109.828H105.312ZM105.312 124.102V131.156H102.312V126.492H90.9453V124.102H105.312ZM127.109 109.852V125.531H124.133V118.547H118.836V116.203H124.133V114.562H118.836V112.219H124.133V109.852H127.109ZM127.625 128.391V130.781H112.93V124.125H115.93V128.391H127.625ZM113.281 111.188V120.305C115.895 120.281 118.332 120.105 120.992 119.625L121.297 122.039C118.109 122.648 115.227 122.766 112.039 122.766H110.328V111.188H113.281ZM153.383 109.828V122.484H150.406V117.445H147.078V115.031H150.406V109.828H153.383ZM146.094 122.953C150.641 122.977 153.43 124.477 153.453 127.078C153.43 129.656 150.641 131.18 146.094 131.18C141.547 131.18 138.758 129.656 138.758 127.078C138.758 124.477 141.547 122.977 146.094 122.953ZM146.094 125.25C143.258 125.25 141.734 125.836 141.734 127.078C141.734 128.297 143.258 128.906 146.094 128.906C148.93 128.906 150.477 128.297 150.477 127.078C150.477 125.836 148.93 125.25 146.094 125.25ZM147.711 111.117V113.508H143.469C143.539 115.992 145.039 118.5 148.367 119.602L146.891 121.945C144.535 121.184 142.918 119.637 141.992 117.703C141.043 119.883 139.344 121.641 136.812 122.508L135.266 120.141C138.77 118.969 140.34 116.18 140.422 113.508H136.133V111.117H147.711ZM175.672 126.234V128.672H156.148V126.234H164.375V122.297H158.211V111.188H161.211V114.492H170.516V111.188H173.492V122.297H167.352V126.234H175.672ZM161.211 119.906H170.516V116.883H161.211V119.906ZM196.391 119.391V121.617H176.867V119.391H196.391ZM194.047 122.672V127.711H182.094V128.93H194.68V130.969H179.117V125.812H191.094V124.734H179.094V122.672H194.047ZM194.023 110.203V115.219H182.281V116.367H194.398V118.383H179.305V113.32H191.023V112.242H179.258V110.203H194.023ZM220.086 109.828V113.953H222.969V116.414H220.086V120.492H217.086V109.828H220.086ZM220.086 121.336V127.148H208.906V128.578H220.695V130.922H205.977V124.992H217.109V123.633H205.93V121.336H220.086ZM209.047 110.461C212.328 110.484 214.766 112.453 214.766 115.289C214.766 118.102 212.328 120.117 209.047 120.117C205.766 120.117 203.305 118.102 203.305 115.289C203.305 112.453 205.766 110.484 209.047 110.461ZM209.047 112.898C207.406 112.898 206.211 113.789 206.234 115.289C206.211 116.812 207.406 117.75 209.047 117.75C210.688 117.75 211.859 116.812 211.859 115.289C211.859 113.789 210.688 112.898 209.047 112.898ZM241.883 109.828V131.203H238.906V122.602H235.25V120.141H238.906V116.789H235.32V114.352H238.906V109.828H241.883ZM234.195 111.609V119.812H227.633V123.961C230.27 123.949 232.613 123.82 235.297 123.422L235.531 125.859C232.344 126.375 229.625 126.422 226.344 126.422H224.656V117.492H231.266V113.977H224.609V111.609H234.195ZM264.102 121.594V123.984H255.805V131.156H252.852V123.984H244.648V121.594H264.102ZM262.367 110.953V113.297H256.156C256.449 115.383 258.805 117.48 263.188 118.008L262.109 120.352C258.359 119.848 255.676 118.242 254.398 116.039C253.086 118.242 250.426 119.848 246.711 120.352L245.609 118.008C249.922 117.48 252.301 115.383 252.641 113.297H246.406V110.953H262.367ZM272.234 115.195C272.234 118.641 273.195 122.203 276.102 124.078L274.484 126.398C272.645 125.285 271.473 123.457 270.805 121.266C270.031 123.68 268.754 125.695 266.82 126.867L264.992 124.664C268.156 122.695 269.328 118.945 269.328 115.336V111.656H272.234V115.195ZM283.883 109.828V131.156H281.023V109.828H283.883ZM279.406 110.133V130.172H276.617V119.461H273.852V117.023H276.617V110.133H279.406ZM305.656 126.211V128.672H286.133V126.211H290.492V120.984C288.84 120 287.844 118.488 287.844 116.602C287.844 113.156 291.219 110.859 295.859 110.859C300.477 110.859 303.875 113.156 303.898 116.602C303.887 118.441 302.914 119.941 301.32 120.938V126.211H305.656ZM295.859 113.227C292.812 113.227 290.797 114.445 290.797 116.602C290.797 118.688 292.812 119.977 295.859 119.977C298.883 119.977 300.922 118.688 300.945 116.602C300.922 114.445 298.883 113.227 295.859 113.227ZM293.445 126.211H298.297V122.062C297.535 122.215 296.715 122.297 295.859 122.297C295.004 122.297 294.195 122.227 293.445 122.062V126.211ZM28.875 147.875V148.875H20.5938V147.875H24.125V146.312H25.3438V147.875H28.875ZM24.7344 149.594C26.7344 149.609 28.0625 150.578 28.0781 152.109C28.0625 153.625 26.7344 154.609 24.7344 154.609C22.7344 154.609 21.375 153.625 21.3906 152.109C21.375 150.578 22.7344 149.609 24.7344 149.594ZM24.7344 150.547C23.4219 150.562 22.5469 151.172 22.5625 152.109C22.5469 153.031 23.4219 153.625 24.7344 153.625C26.0312 153.625 26.9062 153.031 26.9219 152.109C26.9062 151.172 26.0312 150.562 24.7344 150.547ZM31.4219 146.375V150.234H33.5156V151.266H31.4219V155.062H30.2031V146.375H31.4219ZM31.4219 155.828V160.266H30.2031V156.828H22.3281V155.828H31.4219ZM45.9062 146.391V156.672H44.6719V151.859H40.6719V150.875H44.6719V149.203H40.6719V148.219H44.6719V146.391H45.9062ZM46.2812 158.938V159.969H36.9531V155.797H38.1875V158.938H46.2812ZM36.4531 147.391V153.562C38.3672 153.555 40.2109 153.453 42.3281 153.062L42.4531 154.078C40.1875 154.5 38.2969 154.594 36.2656 154.609H35.2188V147.391H36.4531ZM59.7188 146.375V153.641H58.5V151.859H55.2188V153.078H48.9219V147.031H50.1406V149.031H54.0156V147.031H55.2188V148.375H58.5V146.375H59.7188ZM59.7188 154.312V157.578H51.9688V159.094H60.25V160.078H50.75V156.641H58.5V155.297H50.7188V154.312H59.7188ZM50.1406 152.078H54.0156V150H50.1406V152.078ZM55.2188 150.891H58.5V149.328H55.2188V150.891ZM73.0781 147.328V153.266H66.6562V147.328H73.0781ZM67.8594 148.328V152.266H71.8906V148.328H67.8594ZM76.9219 146.375V149.719H79.0156V150.75H76.9219V154.312H75.7031V146.375H76.9219ZM77.1719 155.125V156.125H73.2344C73.3672 157.609 75.4375 158.906 77.7031 159.266L77.25 160.219C75.2188 159.883 73.375 158.875 72.5781 157.484C71.7891 158.883 69.9609 159.875 67.9375 160.203L67.4688 159.266C69.7656 158.906 71.7969 157.633 71.9531 156.125H68.0156V155.125H77.1719ZM92.5469 153.25V154.25H86.8125V155.781H91V160.078H81.4375V155.781H85.6094V154.25H79.8906V153.25H92.5469ZM86.8125 146.297V147.688H91.2656V148.672H86.8906C86.9766 150.219 89.1875 151.258 91.7969 151.5L91.4375 152.422C89.125 152.18 87.0625 151.383 86.2188 150C85.3672 151.383 83.3047 152.18 81 152.422L80.625 151.5C83.25 151.258 85.4453 150.219 85.5469 148.672H81.2031V147.688H85.6094V146.297H86.8125ZM82.6562 156.766V159.078H89.7969V156.766H82.6562ZM108.812 147.062V148.219C108.812 149.516 108.812 150.922 108.438 152.828L107.219 152.719C107.391 151.906 107.484 151.18 107.547 150.516L99.0781 150.922L98.9062 149.875L107.594 149.594C107.609 149.109 107.609 148.656 107.609 148.219V148.062H99.25V147.062H108.812ZM110.391 153.766V154.766H97.75V153.766H102.906V151.719H104.141V153.766H110.391ZM109.141 159.047V160.047H99.3594V155.953H100.594V159.047H109.141ZM123.359 146.391V156.797H122.188V146.391H123.359ZM120.656 146.672V156.438H119.469V151.328H117.594V150.344H119.469V146.672H120.656ZM123.781 158.938V159.969H114.297V155.641H115.547V158.938H123.781ZM117.516 147.531V148.547H113.391V150.469H116.938V151.438H113.391V153.469C115.398 153.461 116.648 153.406 118.141 153.094L118.266 154.094C116.656 154.422 115.344 154.484 113.094 154.484H112.219V147.531H117.516ZM138.109 157.453V158.484H125.391V157.453H138.109ZM132.359 149.625C132.359 151.922 134.656 153.656 137.297 154.125L136.797 155.125C134.602 154.68 132.602 153.477 131.734 151.656C130.852 153.477 128.852 154.68 126.656 155.125L126.172 154.125C128.797 153.656 131.109 151.922 131.109 149.625H126.578V148.625H131.125V146.719H132.328V148.625H136.891V149.625H132.359ZM151.922 152.828V153.797H139.203V152.828H151.922ZM150.328 154.906V157.859H141.984V159.188H150.781V160.078H140.75V157.016H149.109V155.828H140.734V154.906H150.328ZM150.281 146.797V149.672H142.078V150.891H150.531V151.781H140.859V148.828H149.047V147.688H140.812V146.797H150.281ZM164.188 148.109C164.172 149.812 166.516 151.203 168.969 151.547L168.484 152.516C166.242 152.195 164.148 151.07 163.391 149.438C162.641 151.07 160.555 152.195 158.297 152.516L157.844 151.547C160.297 151.203 162.594 149.812 162.594 148.109V148.078H158.219V147.078H168.594V148.078H164.188V148.109ZM169.766 153.531V154.547H164.109V157.391H162.891V154.547H157.047V153.531H169.766ZM168.344 158.938V159.969H158.672V156H159.906V158.938H168.344ZM182.344 146.375V160.297H181.109V146.375H182.344ZM172.922 147.562V151.234H177.062V147.562H178.266V156.938H171.703V147.562H172.922ZM172.922 155.906H177.062V152.219H172.922V155.906ZM191.656 148.781V149.781H184.688V148.781H187.578V146.797H188.797V148.781H191.656ZM188.172 150.719C189.922 150.719 191.172 152.031 191.188 153.875C191.172 155.734 189.922 157.062 188.172 157.062C186.438 157.062 185.188 155.734 185.188 153.875C185.188 152.031 186.438 150.719 188.172 150.719ZM188.172 151.75C187.078 151.766 186.281 152.656 186.281 153.875C186.281 155.109 187.078 156 188.172 155.984C189.281 156 190.094 155.109 190.094 153.875C190.094 152.656 189.281 151.766 188.172 151.75ZM196.547 146.375V160.266H195.375V153.25H193.531V159.578H192.375V146.719H193.531V152.234H195.375V146.375H196.547ZM209.766 153.062V154.078H200.172V147.672H209.625V148.688H201.391V153.062H209.766ZM211.266 157.344V158.375H198.547V157.344H211.266ZM219.453 147.062V150.453H214.297V152.172C216.93 152.172 218.711 152.102 220.891 151.766L221 152.719C218.766 153.078 216.938 153.156 214.203 153.156H213.078V149.547H218.25V148.016H213.031V147.062H219.453ZM223.844 154.312V157.578H216.062V159.125H224.344V160.109H214.844V156.656H222.594V155.281H214.812V154.312H223.844ZM223.844 146.375V153.703H222.625V146.375H223.844ZM238.094 146.375V160.266H236.922V146.375H238.094ZM235.172 146.75V159.562H234V153.078H231.062C230.211 154.695 228.875 156.125 226.938 157.266L226.219 156.375C229.242 154.586 230.758 152.078 230.984 149.172H226.812V148.156H232.203C232.195 149.523 231.977 150.844 231.516 152.078H234V146.75H235.172ZM252.75 157.453V158.484H240.031V157.453H243.188V153.703C242 153.086 241.281 152.086 241.281 150.828C241.281 148.672 243.391 147.266 246.359 147.25C249.328 147.266 251.438 148.672 251.438 150.828C251.438 152.062 250.742 153.055 249.594 153.672V157.453H252.75ZM246.359 148.266C244.078 148.25 242.469 149.281 242.469 150.828C242.469 152.375 244.078 153.422 246.359 153.422C248.625 153.422 250.25 152.375 250.25 150.828C250.25 149.281 248.625 148.25 246.359 148.266ZM244.391 157.453H248.359V154.141C247.758 154.305 247.086 154.391 246.359 154.391C245.648 154.391 244.984 154.312 244.391 154.156V157.453Z" fill="#1E1E1E"/>
<g clip-path="url(#clip0_2917_6070)">
<circle cx="32" cy="244" r="10.5" stroke="#D9D9D9" stroke-width="3"/>
</g>
<path d="M76.0625 238.688V250H74.6406V240.156H74.5781L71.8281 241.984V240.562L74.6406 238.688H76.0625ZM86.8906 238.875V239.875H78.6094V238.875H82.1406V237.312H83.3594V238.875H86.8906ZM82.75 240.594C84.75 240.609 86.0781 241.578 86.0938 243.109C86.0781 244.625 84.75 245.609 82.75 245.609C80.75 245.609 79.3906 244.625 79.4062 243.109C79.3906 241.578 80.75 240.609 82.75 240.594ZM82.75 241.547C81.4375 241.562 80.5625 242.172 80.5781 243.109C80.5625 244.031 81.4375 244.625 82.75 244.625C84.0469 244.625 84.9219 244.031 84.9375 243.109C84.9219 242.172 84.0469 241.562 82.75 241.547ZM89.4375 237.375V241.234H91.5312V242.266H89.4375V246.062H88.2188V237.375H89.4375ZM89.4375 246.828V251.266H88.2188V247.828H80.3438V246.828H89.4375ZM103.922 237.391V247.672H102.688V242.859H98.6875V241.875H102.688V240.203H98.6875V239.219H102.688V237.391H103.922ZM104.297 249.938V250.969H94.9688V246.797H96.2031V249.938H104.297ZM94.4688 238.391V244.562C96.3828 244.555 98.2266 244.453 100.344 244.062L100.469 245.078C98.2031 245.5 96.3125 245.594 94.2812 245.609H93.2344V238.391H94.4688Z" fill="black"/>
<g clip-path="url(#clip1_2917_6070)">
<circle cx="32" cy="318" r="10.5" stroke="#D9D9D9" stroke-width="3"/>
</g>
<path d="M69.0625 324L69.0469 322.969L72.9062 318.906C74.25 317.484 74.8906 316.719 74.8906 315.672C74.8906 314.516 73.9062 313.75 72.6406 313.75C71.2969 313.75 70.4375 314.609 70.4375 315.875H69.1094C69.0938 313.875 70.6406 312.531 72.6875 312.531C74.7344 312.531 76.2031 313.906 76.2031 315.672C76.2031 316.938 75.6094 317.922 73.6094 319.984L71.0156 322.656V322.75H76.4062V324H69.0625ZM86.2656 312.875V313.875H77.9844V312.875H81.5156V311.312H82.7344V312.875H86.2656ZM82.125 314.594C84.125 314.609 85.4531 315.578 85.4688 317.109C85.4531 318.625 84.125 319.609 82.125 319.609C80.125 319.609 78.7656 318.625 78.7812 317.109C78.7656 315.578 80.125 314.609 82.125 314.594ZM82.125 315.547C80.8125 315.562 79.9375 316.172 79.9531 317.109C79.9375 318.031 80.8125 318.625 82.125 318.625C83.4219 318.625 84.2969 318.031 84.3125 317.109C84.2969 316.172 83.4219 315.562 82.125 315.547ZM88.8125 311.375V315.234H90.9062V316.266H88.8125V320.062H87.5938V311.375H88.8125ZM88.8125 320.828V325.266H87.5938V321.828H79.7188V320.828H88.8125ZM103.297 311.391V321.672H102.062V316.859H98.0625V315.875H102.062V314.203H98.0625V313.219H102.062V311.391H103.297ZM103.672 323.938V324.969H94.3438V320.797H95.5781V323.938H103.672ZM93.8438 312.391V318.562C95.7578 318.555 97.6016 318.453 99.7188 318.062L99.8438 319.078C97.5781 319.5 95.6875 319.594 93.6562 319.609H92.6094V312.391H93.8438Z" fill="black"/>
<g clip-path="url(#clip2_2917_6070)">
<circle cx="32" cy="392" r="10.5" stroke="#D9D9D9" stroke-width="3"/>
</g>
<path d="M72.9688 398.156C72.224 398.156 71.5573 398.031 70.9688 397.781C70.3854 397.531 69.9219 397.18 69.5781 396.727C69.2396 396.273 69.0573 395.75 69.0312 395.156H70.4531C70.4792 395.505 70.6042 395.812 70.8281 396.078C71.0573 396.344 71.3568 396.549 71.7266 396.695C72.0964 396.836 72.5052 396.906 72.9531 396.906C73.4427 396.906 73.8828 396.823 74.2734 396.656C74.6693 396.484 74.9766 396.25 75.1953 395.953C75.4193 395.651 75.5312 395.307 75.5312 394.922C75.5312 394.505 75.4219 394.138 75.2031 393.82C74.9896 393.503 74.6771 393.255 74.2656 393.078C73.8542 392.901 73.3594 392.812 72.7812 392.812H71.8594V391.578H72.7812C73.2344 391.578 73.638 391.497 73.9922 391.336C74.3464 391.174 74.6198 390.948 74.8125 390.656C75.0104 390.365 75.1094 390.026 75.1094 389.641C75.1094 389.271 75.0208 388.943 74.8438 388.656C74.6719 388.37 74.4271 388.148 74.1094 387.992C73.7917 387.831 73.4219 387.75 73 387.75C72.5938 387.75 72.2135 387.823 71.8594 387.969C71.5052 388.115 71.2161 388.323 70.9922 388.594C70.7682 388.859 70.6458 389.172 70.625 389.531H69.2656C69.2917 388.948 69.474 388.43 69.8125 387.977C70.151 387.518 70.6016 387.164 71.1641 386.914C71.7266 386.659 72.3438 386.531 73.0156 386.531C73.7135 386.531 74.3229 386.669 74.8438 386.945C75.3698 387.216 75.7734 387.583 76.0547 388.047C76.3359 388.51 76.474 389.016 76.4688 389.562C76.474 390.198 76.3047 390.742 75.9609 391.195C75.6172 391.648 75.1458 391.958 74.5469 392.125V392.203C75.0312 392.281 75.4505 392.445 75.8047 392.695C76.1641 392.94 76.4375 393.255 76.625 393.641C76.8177 394.021 76.9115 394.448 76.9062 394.922C76.9115 395.531 76.7422 396.083 76.3984 396.578C76.0547 397.068 75.5807 397.453 74.9766 397.734C74.3776 398.016 73.7083 398.156 72.9688 398.156ZM86.75 387.875H78.4688V386.875H82V385.312H83.2188V386.875H86.75V387.875ZM82.6094 388.594C83.2708 388.599 83.8516 388.706 84.3516 388.914C84.8568 389.117 85.2474 389.409 85.5234 389.789C85.8047 390.164 85.9479 390.604 85.9531 391.109C85.9479 391.609 85.8047 392.049 85.5234 392.43C85.2474 392.805 84.8568 393.096 84.3516 393.305C83.8516 393.508 83.2708 393.609 82.6094 393.609C81.9479 393.609 81.362 393.508 80.8516 393.305C80.3464 393.096 79.9531 392.805 79.6719 392.43C79.3958 392.049 79.2604 391.609 79.2656 391.109C79.2604 390.604 79.3958 390.164 79.6719 389.789C79.9531 389.409 80.3464 389.117 80.8516 388.914C81.362 388.706 81.9479 388.599 82.6094 388.594ZM82.6094 389.547C82.1771 389.552 81.7943 389.62 81.4609 389.75C81.1328 389.88 80.8776 390.062 80.6953 390.297C80.5182 390.531 80.4323 390.802 80.4375 391.109C80.4323 391.411 80.5182 391.677 80.6953 391.906C80.8776 392.135 81.1328 392.312 81.4609 392.438C81.7943 392.562 82.1771 392.625 82.6094 392.625C83.0365 392.625 83.4141 392.562 83.7422 392.438C84.0755 392.312 84.3333 392.135 84.5156 391.906C84.6979 391.677 84.7917 391.411 84.7969 391.109C84.7917 390.802 84.6979 390.531 84.5156 390.297C84.3333 390.062 84.0755 389.88 83.7422 389.75C83.4141 389.62 83.0365 389.552 82.6094 389.547ZM89.2969 389.234H91.3906V390.266H89.2969V394.062H88.0781V385.375H89.2969V389.234ZM89.2969 399.266H88.0781V395.828H80.2031V394.828H89.2969V399.266ZM103.781 395.672H102.547V390.859H98.5469V389.875H102.547V388.203H98.5469V387.219H102.547V385.391H103.781V395.672ZM104.156 398.969H94.8281V394.797H96.0625V397.938H104.156V398.969ZM94.3281 392.562C95.3802 392.557 96.3724 392.518 97.3047 392.445C98.2422 392.372 99.2083 392.245 100.203 392.062L100.328 393.078C99.276 393.276 98.2656 393.411 97.2969 393.484C96.3333 393.557 95.2812 393.599 94.1406 393.609H93.0938V386.391H94.3281V392.562Z" fill="black"/>
<rect width="393" height="98" fill="#FEFEFE"/>
<rect width="393" height="54" fill="#FEFEFE"/>
<path d="M38.9526 38V28.1304H38.8032L35.8232 30.2305V28.2217L38.9526 26.022H41.0859V38H38.9526ZM48.8887 38.2407C47.9701 38.2407 47.1593 38.0941 46.4565 37.8008C45.7537 37.502 45.2031 37.0924 44.8047 36.5723C44.4118 36.0465 44.2153 35.4434 44.2153 34.7627V34.7461C44.2153 34.2314 44.3288 33.7666 44.5557 33.3516C44.7881 32.931 45.109 32.5768 45.5186 32.2891C45.9281 32.0013 46.3984 31.8049 46.9297 31.6997V31.6499C46.2435 31.4673 45.6901 31.1408 45.2695 30.6704C44.8545 30.1945 44.647 29.6356 44.647 28.9937V28.9771C44.647 28.3628 44.8268 27.8149 45.1865 27.3335C45.5518 26.8521 46.0526 26.473 46.689 26.1963C47.3309 25.9196 48.0641 25.7812 48.8887 25.7812C49.7132 25.7812 50.4437 25.9196 51.0801 26.1963C51.722 26.473 52.2228 26.8521 52.5825 27.3335C52.9422 27.8149 53.1221 28.3628 53.1221 28.9771V28.9937C53.1221 29.6356 52.9146 30.1945 52.4995 30.6704C52.0845 31.1408 51.5339 31.4673 50.8477 31.6499V31.6997C51.3789 31.8049 51.8493 32.0013 52.2588 32.2891C52.6683 32.5768 52.9865 32.931 53.2134 33.3516C53.4458 33.7666 53.562 34.2314 53.562 34.7461V34.7627C53.562 35.4434 53.3628 36.0465 52.9644 36.5723C52.5715 37.0924 52.0236 37.502 51.3208 37.8008C50.618 38.0941 49.8073 38.2407 48.8887 38.2407ZM48.8887 36.6055C49.3701 36.6055 49.7935 36.5225 50.1587 36.3564C50.5295 36.1849 50.82 35.9497 51.0303 35.6509C51.2406 35.3465 51.3457 35.0034 51.3457 34.6216V34.605C51.3457 34.2176 51.2406 33.8745 51.0303 33.5757C50.8255 33.2713 50.5378 33.0334 50.167 32.8618C49.7962 32.6903 49.3701 32.6045 48.8887 32.6045C48.4017 32.6045 47.9728 32.6903 47.6021 32.8618C47.2368 33.0334 46.9491 33.2713 46.7388 33.5757C46.5285 33.8745 46.4233 34.2176 46.4233 34.605V34.6216C46.4233 35.0034 46.5285 35.3465 46.7388 35.6509C46.9546 35.9497 47.2451 36.1849 47.6104 36.3564C47.9811 36.5225 48.4072 36.6055 48.8887 36.6055ZM48.8887 30.9692C49.3092 30.9692 49.6772 30.8945 49.9927 30.7451C50.3136 30.5902 50.5627 30.3799 50.7397 30.1143C50.9224 29.8486 51.0137 29.5387 51.0137 29.1846V29.168C51.0137 28.8193 50.9224 28.5122 50.7397 28.2466C50.5627 27.981 50.3136 27.7734 49.9927 27.624C49.6717 27.4746 49.3037 27.3999 48.8887 27.3999C48.4681 27.3999 48.0973 27.4746 47.7764 27.624C47.4609 27.7734 47.2119 27.981 47.0293 28.2466C46.8522 28.5122 46.7637 28.8193 46.7637 29.168V29.1846C46.7637 29.5387 46.8522 29.8486 47.0293 30.1143C47.2119 30.3799 47.4609 30.5902 47.7764 30.7451C48.0973 30.8945 48.4681 30.9692 48.8887 30.9692ZM57.4136 36.3896C57.0373 36.3896 56.7218 36.2651 56.4673 36.0161C56.2183 35.7616 56.0938 35.4517 56.0938 35.0864C56.0938 34.7157 56.2183 34.4058 56.4673 34.1567C56.7218 33.9022 57.0373 33.7749 57.4136 33.7749C57.7954 33.7749 58.1108 33.9022 58.3599 34.1567C58.6089 34.4058 58.7334 34.7157 58.7334 35.0864C58.7334 35.4517 58.6089 35.7616 58.3599 36.0161C58.1108 36.2651 57.7954 36.3896 57.4136 36.3896ZM57.4136 30.2305C57.0373 30.2305 56.7218 30.106 56.4673 29.8569C56.2183 29.6024 56.0938 29.2925 56.0938 28.9272C56.0938 28.5565 56.2183 28.2466 56.4673 27.9976C56.7218 27.743 57.0373 27.6157 57.4136 27.6157C57.7954 27.6157 58.1108 27.743 58.3599 27.9976C58.6089 28.2466 58.7334 28.5565 58.7334 28.9272C58.7334 29.2925 58.6089 29.6024 58.3599 29.8569C58.1108 30.106 57.7954 30.2305 57.4136 30.2305ZM65.7725 38.2988C64.8206 38.2988 64.0044 38.0443 63.3237 37.5352C62.6486 37.026 62.1284 36.3011 61.7632 35.3604C61.3979 34.4196 61.2153 33.3045 61.2153 32.0151V31.9985C61.2153 30.7091 61.3979 29.5968 61.7632 28.6616C62.1284 27.7209 62.6486 26.9959 63.3237 26.4868C64.0044 25.9777 64.8206 25.7231 65.7725 25.7231C66.7243 25.7231 67.5405 25.9777 68.2212 26.4868C68.9019 26.9959 69.4248 27.7209 69.79 28.6616C70.1553 29.5968 70.3379 30.7091 70.3379 31.9985V32.0151C70.3379 33.3045 70.1553 34.4196 69.79 35.3604C69.4248 36.3011 68.9019 37.026 68.2212 37.5352C67.5405 38.0443 66.7243 38.2988 65.7725 38.2988ZM65.7725 36.564C66.2816 36.564 66.716 36.3813 67.0757 36.0161C67.4354 35.6509 67.7093 35.1307 67.8975 34.4556C68.0911 33.7749 68.188 32.9614 68.188 32.0151V31.9985C68.188 31.0522 68.0911 30.2415 67.8975 29.5664C67.7093 28.8857 67.4354 28.3656 67.0757 28.0059C66.716 27.6406 66.2816 27.458 65.7725 27.458C65.2633 27.458 64.8289 27.6406 64.4692 28.0059C64.1151 28.3656 63.8411 28.8857 63.6475 29.5664C63.4593 30.2415 63.3652 31.0522 63.3652 31.9985V32.0151C63.3652 32.9614 63.4593 33.7749 63.6475 34.4556C63.8411 35.1307 64.1151 35.6509 64.4692 36.0161C64.8289 36.3813 65.2633 36.564 65.7725 36.564ZM77.0781 38.2988C76.1263 38.2988 75.3101 38.0443 74.6294 37.5352C73.9543 37.026 73.4341 36.3011 73.0688 35.3604C72.7036 34.4196 72.521 33.3045 72.521 32.0151V31.9985C72.521 30.7091 72.7036 29.5968 73.0688 28.6616C73.4341 27.7209 73.9543 26.9959 74.6294 26.4868C75.3101 25.9777 76.1263 25.7231 77.0781 25.7231C78.0299 25.7231 78.8462 25.9777 79.5269 26.4868C80.2075 26.9959 80.7305 27.7209 81.0957 28.6616C81.4609 29.5968 81.6436 30.7091 81.6436 31.9985V32.0151C81.6436 33.3045 81.4609 34.4196 81.0957 35.3604C80.7305 36.3011 80.2075 37.026 79.5269 37.5352C78.8462 38.0443 78.0299 38.2988 77.0781 38.2988ZM77.0781 36.564C77.5872 36.564 78.0216 36.3813 78.3813 36.0161C78.741 35.6509 79.015 35.1307 79.2031 34.4556C79.3968 33.7749 79.4937 32.9614 79.4937 32.0151V31.9985C79.4937 31.0522 79.3968 30.2415 79.2031 29.5664C79.015 28.8857 78.741 28.3656 78.3813 28.0059C78.0216 27.6406 77.5872 27.458 77.0781 27.458C76.569 27.458 76.1346 27.6406 75.7749 28.0059C75.4207 28.3656 75.1468 28.8857 74.9531 29.5664C74.765 30.2415 74.6709 31.0522 74.6709 31.9985V32.0151C74.6709 32.9614 74.765 33.7749 74.9531 34.4556C75.1468 35.1307 75.4207 35.6509 75.7749 36.0161C76.1346 36.3813 76.569 36.564 77.0781 36.564Z" fill="black"/>
<path fill-rule="evenodd" clip-rule="evenodd" d="M314.614 27.0329C314.614 26.3999 314.136 25.8867 313.547 25.8867H312.481C311.892 25.8867 311.414 26.3999 311.414 27.0329V36.9669C311.414 37.5999 311.892 38.1131 312.481 38.1131H313.547C314.136 38.1131 314.614 37.5999 314.614 36.9669V27.0329ZM307.18 28.332H308.247C308.836 28.332 309.313 28.8575 309.313 29.5057V36.9394C309.313 37.5876 308.836 38.1131 308.247 38.1131H307.18C306.591 38.1131 306.113 37.5876 306.113 36.9394V29.5057C306.113 28.8575 306.591 28.332 307.18 28.332ZM302.848 30.981H301.782C301.192 30.981 300.715 31.5132 300.715 32.1697V36.9244C300.715 37.5809 301.192 38.1131 301.782 38.1131H302.848C303.437 38.1131 303.915 37.5809 303.915 36.9244V32.1697C303.915 31.5132 303.437 30.981 302.848 30.981ZM297.547 33.4263H296.481C295.892 33.4263 295.414 33.9509 295.414 34.598V36.9414C295.414 37.5885 295.892 38.1131 296.481 38.1131H297.547C298.136 38.1131 298.614 37.5885 298.614 36.9414V34.598C298.614 33.9509 298.136 33.4263 297.547 33.4263Z" fill="black"/>
<path fill-rule="evenodd" clip-rule="evenodd" d="M330.185 28.3022C332.672 28.3023 335.064 29.2244 336.866 30.8779C337.002 31.0055 337.219 31.0039 337.353 30.8743L338.65 29.6108C338.718 29.545 338.756 29.456 338.755 29.3633C338.754 29.2706 338.716 29.182 338.647 29.117C333.916 24.7423 326.452 24.7423 321.721 29.117C321.653 29.1819 321.614 29.2705 321.613 29.3632C321.613 29.4559 321.65 29.545 321.718 29.6108L323.016 30.8743C323.149 31.0041 323.367 31.0057 323.502 30.8779C325.305 29.2243 327.697 28.3022 330.185 28.3022ZM330.181 32.5225C331.539 32.5224 332.847 33.0342 333.854 33.9583C333.99 34.0894 334.204 34.0866 334.337 33.9519L335.624 32.6326C335.692 32.5634 335.729 32.4695 335.728 32.3719C335.727 32.2744 335.688 32.1813 335.619 32.1135C332.555 29.2227 327.81 29.2227 324.746 32.1135C324.677 32.1813 324.638 32.2744 324.637 32.372C324.636 32.4696 324.674 32.5635 324.741 32.6326L326.028 33.9519C326.161 34.0866 326.375 34.0894 326.512 33.9583C327.517 33.0348 328.825 32.5231 330.181 32.5225ZM332.706 35.316C332.708 35.4214 332.671 35.523 332.603 35.5968L330.427 38.0515C330.363 38.1236 330.276 38.1642 330.185 38.1642C330.094 38.1642 330.007 38.1236 329.943 38.0515L327.766 35.5968C327.699 35.5229 327.662 35.4213 327.664 35.316C327.666 35.2106 327.707 35.1108 327.777 35.0402C329.167 33.7263 331.203 33.7263 332.593 35.0402C332.663 35.1109 332.704 35.2107 332.706 35.316Z" fill="black"/>
<rect opacity="0.35" x="346.258" y="26" width="24" height="12" rx="3.8" stroke="black"/>
<path opacity="0.4" d="M371.758 30.2812V34.3567C372.563 34.0116 373.086 33.2086 373.086 32.319C373.086 31.4294 372.563 30.6264 371.758 30.2812Z" fill="black"/>
<rect x="347.758" y="27.5" width="21" height="9" rx="2.5" fill="black"/>
<g filter="url(#filter0_di_2917_6070)">
<path d="M30 757C30 748.163 37.1634 741 46 741H347C355.837 741 363 748.163 363 757V785C363 793.837 355.837 801 347 801H46C37.1634 801 30 793.837 30 785V757Z" fill="#BEC3CD"/>
<path d="M46 741.5H347C355.56 741.5 362.5 748.44 362.5 757V785C362.5 793.56 355.56 800.5 347 800.5H46C37.4396 800.5 30.5 793.56 30.5 785V757C30.5 748.44 37.4396 741.5 46 741.5Z" stroke="white"/>
</g>
<path d="M194.096 762.621V768.562H196.451V770.391H194.096V778.652H191.846V762.621H194.096ZM189.613 764.098V765.908H184.34V772.922C186.66 772.896 188.576 772.79 190.703 772.412L190.949 774.293C188.471 774.715 186.291 774.785 183.461 774.768H182.107V764.098H189.613ZM204.326 762.92C207.877 762.92 210.127 764.098 210.145 766.049C210.127 767.982 207.877 769.16 204.326 769.143C200.793 769.16 198.49 767.982 198.49 766.049C198.49 764.098 200.793 762.92 204.326 762.92ZM204.326 764.66C202.094 764.66 200.811 765.135 200.828 766.049C200.811 766.945 202.094 767.402 204.326 767.402C206.541 767.402 207.824 766.945 207.824 766.049C207.824 765.135 206.541 764.66 204.326 764.66ZM209.881 772.992V778.441H198.719V772.992H209.881ZM200.934 774.768V776.648H207.684V774.768H200.934ZM211.621 770.074V771.867H197.031V770.074H211.621Z" fill="white"/>
<defs>
<filter id="filter0_di_2917_6070" x="26" y="737" width="341" height="68" filterUnits="userSpaceOnUse" color-interpolation-filters="sRGB">
<feFlood flood-opacity="0" result="BackgroundImageFix"/>
<feColorMatrix in="SourceAlpha" type="matrix" values="0 0 0 0 0 0 0 0 0 0 0 0 0 0 0 0 0 0 127 0" result="hardAlpha"/>
<feOffset/>
<feGaussianBlur stdDeviation="2"/>
<feComposite in2="hardAlpha" operator="out"/>
<feColorMatrix type="matrix" values="0 0 0 0 0.715912 0 0 0 0 0.69906 0 0 0 0 0.614798 0 0 0 0.25 0"/>
<feBlend mode="normal" in2="BackgroundImageFix" result="effect1_dropShadow_2917_6070"/>
<feBlend mode="normal" in="SourceGraphic" in2="effect1_dropShadow_2917_6070" result="shape"/>
<feColorMatrix in="SourceAlpha" type="matrix" values="0 0 0 0 0 0 0 0 0 0 0 0 0 0 0 0 0 0 127 0" result="hardAlpha"/>
<feOffset dy="4"/>
<feGaussianBlur stdDeviation="2"/>
<feComposite in2="hardAlpha" operator="arithmetic" k2="-1" k3="1"/>
<feColorMatrix type="matrix" values="0 0 0 0 1 0 0 0 0 1 0 0 0 0 1 0 0 0 0.25 0"/>
<feBlend mode="normal" in2="shape" result="effect2_innerShadow_2917_6070"/>
</filter>
<clipPath id="clip0_2917_6070">
<rect width="24" height="24" fill="white" transform="translate(20 232)"/>
</clipPath>
<clipPath id="clip1_2917_6070">
<rect width="24" height="24" fill="white" transform="translate(20 306)"/>
</clipPath>
<clipPath id="clip2_2917_6070">
<rect width="24" height="24" fill="white" transform="translate(20 380)"/>
</clipPath>
</defs>
</svg>
