<svg width="393" height="852" viewBox="0 0 393 852" fill="none" xmlns="http://www.w3.org/2000/svg">
<rect width="393" height="852" fill="#FEFEFE"/>
<path d="M35.9922 110.828V132.203H32.9688V110.828H35.9922ZM24.4141 112.328C27.625 112.328 30.0156 115.281 30.0156 119.922C30.0156 124.609 27.625 127.539 24.4141 127.539C21.1328 127.539 18.7422 124.609 18.7656 119.922C18.7422 115.281 21.1328 112.328 24.4141 112.328ZM24.4141 115.023C22.75 115.023 21.6484 116.758 21.6484 119.922C21.6484 123.109 22.75 124.82 24.4141 124.82C26.0312 124.82 27.1328 123.109 27.1328 119.922C27.1328 116.758 26.0312 115.023 24.4141 115.023ZM58.375 121.586V123.953H38.8516V121.586H58.375ZM56.0078 111.227V116.922H44.2656V118.164H56.4062V120.438H41.2891V114.766H53.0078V113.523H41.2422V111.227H56.0078ZM56.1016 125.266V131.922H41.3594V125.266H56.1016ZM44.2891 127.633V129.531H53.125V127.633H44.2891ZM69.3438 111.133C74.2422 111.133 77.0781 112.422 77.1016 114.766C77.0781 117.133 74.2422 118.422 69.3438 118.422C64.4219 118.422 61.5625 117.133 61.5625 114.766C61.5625 112.422 64.4219 111.133 69.3438 111.133ZM69.3438 113.312C66.2031 113.312 64.6797 113.828 64.7031 114.766C64.6797 115.82 66.2031 116.219 69.3438 116.219C72.5078 116.219 74.0078 115.82 74.0078 114.766C74.0078 113.828 72.5078 113.312 69.3438 113.312ZM79.0703 119.43V121.797H59.6172V119.43H79.0703ZM76.7031 123.039V128.477H64.8203V129.766H77.2656V132.016H61.8906V126.391H73.75V125.219H61.8672V123.039H76.7031ZM98.1953 112.023V114.391H93.9531C93.9766 116.91 95.4766 119.488 98.8516 120.602L97.375 122.898C95.0078 122.148 93.3906 120.602 92.4766 118.68C91.5156 120.812 89.8164 122.535 87.2969 123.344L85.7734 120.977C89.2773 119.852 90.8711 117.051 90.9062 114.391H86.6172V112.023H98.1953ZM103.867 124.469V132.156H100.891V126.859H89.2188V124.469H103.867ZM103.867 110.828V123.531H100.891V118.398H97.5859V115.961H100.891V110.828H103.867ZM112.516 112.328C115.398 112.328 117.543 114.707 117.977 118.539H121.68V110.828H124.633V132.203H121.68V120.93H118C117.684 125.031 115.492 127.539 112.516 127.539C109.281 127.539 106.961 124.609 106.984 119.922C106.961 115.281 109.281 112.328 112.516 112.328ZM112.516 115.023C110.922 115.023 109.82 116.758 109.844 119.922C109.82 123.109 110.922 124.82 112.516 124.82C114.133 124.82 115.188 123.109 115.188 119.922C115.188 116.758 114.133 115.023 112.516 115.023ZM146.828 122.594V124.984H138.531V132.156H135.578V124.984H127.375V122.594H146.828ZM145.094 111.953V114.297H138.883C139.176 116.383 141.531 118.48 145.914 119.008L144.836 121.352C141.086 120.848 138.402 119.242 137.125 117.039C135.812 119.242 133.152 120.848 129.438 121.352L128.336 119.008C132.648 118.48 135.027 116.383 135.367 114.297H129.133V111.953H145.094ZM154.961 116.195C154.961 119.641 155.922 123.203 158.828 125.078L157.211 127.398C155.371 126.285 154.199 124.457 153.531 122.266C152.758 124.68 151.48 126.695 149.547 127.867L147.719 125.664C150.883 123.695 152.055 119.945 152.055 116.336V112.656H154.961V116.195ZM166.609 110.828V132.156H163.75V110.828H166.609ZM162.133 111.133V131.172H159.344V120.461H156.578V118.023H159.344V111.133H162.133ZM188.383 127.211V129.672H168.859V127.211H173.219V121.984C171.566 121 170.57 119.488 170.57 117.602C170.57 114.156 173.945 111.859 178.586 111.859C183.203 111.859 186.602 114.156 186.625 117.602C186.613 119.441 185.641 120.941 184.047 121.938V127.211H188.383ZM178.586 114.227C175.539 114.227 173.523 115.445 173.523 117.602C173.523 119.688 175.539 120.977 178.586 120.977C181.609 120.977 183.648 119.688 183.672 117.602C183.648 115.445 181.609 114.227 178.586 114.227ZM176.172 127.211H181.023V123.062C180.262 123.215 179.441 123.297 178.586 123.297C177.73 123.297 176.922 123.227 176.172 123.062V127.211Z" fill="black"/>
<rect x="22.5" y="230.5" width="347" height="60" rx="19.5" stroke="#DCDCDC"/>
<path d="M27.916 321.098L31.293 317.543C31.7396 317.074 32.0791 316.695 32.3115 316.408C32.5485 316.117 32.7262 315.836 32.8447 315.567C32.9678 315.294 33.0293 315.009 33.0293 314.713C33.0293 314.385 32.9427 314.093 32.7695 313.838C32.5964 313.583 32.3594 313.384 32.0586 313.243C31.7624 313.102 31.4297 313.031 31.0605 313.031C30.6732 313.031 30.3337 313.109 30.042 313.264C29.7503 313.419 29.5247 313.637 29.3652 313.92C29.2103 314.202 29.1328 314.526 29.1328 314.891H27.9707C27.9661 314.316 28.0983 313.808 28.3672 313.366C28.6406 312.924 29.0166 312.58 29.4951 312.334C29.9736 312.088 30.5091 311.965 31.1016 311.965C31.6895 311.965 32.2158 312.086 32.6807 312.327C33.1501 312.569 33.5169 312.899 33.7812 313.318C34.0456 313.738 34.1777 314.202 34.1777 314.713C34.1777 315.091 34.1094 315.453 33.9727 315.8C33.8359 316.142 33.6058 316.522 33.2822 316.941C32.9632 317.356 32.5052 317.871 31.9082 318.486L29.6387 320.824V320.906H34.3555V322H27.9297L27.916 321.098ZM40.0566 316.9C40.2754 316.645 40.5192 316.451 40.7881 316.319C41.057 316.187 41.3418 316.121 41.6426 316.121C41.8704 316.121 42.0938 316.155 42.3125 316.224C42.5312 316.287 42.8138 316.385 43.1602 316.518C43.4746 316.65 43.7412 316.75 43.96 316.818C44.1833 316.882 44.4043 316.914 44.623 316.914C44.9284 316.914 45.2132 316.841 45.4775 316.695C45.7419 316.549 45.9766 316.335 46.1816 316.053V317.188C45.7305 317.707 45.2018 317.967 44.5957 317.967C44.3678 317.967 44.1445 317.935 43.9258 317.871C43.707 317.803 43.4245 317.702 43.0781 317.57C42.7637 317.438 42.4948 317.34 42.2715 317.276C42.0527 317.208 41.8294 317.174 41.6016 317.174C41.3008 317.174 41.0182 317.247 40.7539 317.393C40.4941 317.538 40.2617 317.753 40.0566 318.035V316.9ZM55.1777 322.137C54.5898 322.137 54.0544 322.025 53.5713 321.802C53.0928 321.574 52.71 321.262 52.4229 320.865C52.1403 320.464 51.9876 320.013 51.9648 319.512H53.1543C53.1862 319.803 53.2956 320.068 53.4824 320.305C53.6693 320.537 53.9108 320.722 54.207 320.858C54.5033 320.991 54.8268 321.057 55.1777 321.057C55.597 321.057 55.9753 320.961 56.3125 320.77C56.6497 320.578 56.9141 320.316 57.1055 319.983C57.2969 319.651 57.3926 319.279 57.3926 318.869C57.3926 318.445 57.2923 318.065 57.0918 317.728C56.8958 317.386 56.6224 317.119 56.2715 316.928C55.9251 316.732 55.5332 316.632 55.0957 316.627C54.2161 316.613 53.6009 316.91 53.25 317.516H52.0605L52.7578 312.102H58.1172V313.195H53.7832L53.4141 316.094H53.5098C53.7331 315.921 54.0042 315.782 54.3232 315.677C54.6423 315.572 54.9727 315.52 55.3145 315.52C55.9342 315.52 56.4925 315.663 56.9893 315.95C57.4906 316.233 57.8825 316.627 58.165 317.133C58.4521 317.639 58.5957 318.208 58.5957 318.842C58.5957 319.471 58.4476 320.036 58.1514 320.537C57.8551 321.038 57.4473 321.43 56.9277 321.713C56.4082 321.995 55.8249 322.137 55.1777 322.137ZM63.9824 314.686C63.9779 315.324 64.1146 315.973 64.3926 316.634C64.6751 317.29 65.0579 317.885 65.541 318.418C66.0241 318.947 66.5573 319.348 67.1406 319.621L66.5254 320.469C65.8464 320.141 65.2334 319.639 64.6865 318.965C64.1442 318.29 63.734 317.538 63.4561 316.709C63.2738 317.301 63.0231 317.864 62.7041 318.397C62.3851 318.931 62.0205 319.402 61.6104 319.812C61.2002 320.218 60.7695 320.537 60.3184 320.77L59.6621 319.922C60.2409 319.644 60.7786 319.222 61.2754 318.657C61.7767 318.092 62.1755 317.459 62.4717 316.757C62.7725 316.055 62.9251 315.365 62.9297 314.686V313.1H60.0996V312.211H66.7168V313.1H63.9824V314.686ZM69.2734 315.875H71.3105V316.791H69.2734V323.107H68.207V310.953H69.2734V315.875ZM85.502 323.135H84.4219V310.953H85.502V323.135ZM79.0352 311.896C79.6367 311.901 80.1722 312.079 80.6416 312.43C81.111 312.776 81.4779 313.268 81.7422 313.906C82.0065 314.544 82.1387 315.287 82.1387 316.135C82.1387 316.982 82.0065 317.725 81.7422 318.363C81.4779 319.001 81.111 319.493 80.6416 319.84C80.1722 320.186 79.6367 320.359 79.0352 320.359C78.4336 320.359 77.8958 320.186 77.4219 319.84C76.9525 319.493 76.5856 319.001 76.3213 318.363C76.0615 317.725 75.9316 316.982 75.9316 316.135C75.9316 315.287 76.0615 314.544 76.3213 313.906C76.5856 313.268 76.9525 312.776 77.4219 312.43C77.8913 312.079 78.429 311.901 79.0352 311.896ZM79.0352 312.854C78.6296 312.858 78.2695 312.997 77.9551 313.271C77.6452 313.539 77.4036 313.922 77.2305 314.419C77.0573 314.911 76.9707 315.483 76.9707 316.135C76.9707 316.786 77.0573 317.361 77.2305 317.857C77.4036 318.35 77.6475 318.73 77.9619 318.999C78.2764 319.268 78.6341 319.402 79.0352 319.402C79.4362 319.402 79.7939 319.268 80.1084 318.999C80.4229 318.73 80.6667 318.35 80.8398 317.857C81.013 317.361 81.0996 316.786 81.0996 316.135C81.0996 315.483 81.013 314.911 80.8398 314.419C80.6667 313.922 80.4229 313.539 80.1084 313.271C79.7985 312.997 79.4408 312.858 79.0352 312.854ZM97.957 323.107H96.9043V316.818H95.1543V322.479H94.1426V311.227H95.1543V315.902H96.9043V310.953H97.957V323.107ZM89.2617 319.006C89.9408 318.997 90.6016 318.965 91.2441 318.91C91.8867 318.851 92.5521 318.751 93.2402 318.609L93.377 319.566C92.5703 319.708 91.8092 319.81 91.0938 319.874C90.3783 319.933 89.6628 319.963 88.9473 319.963H88.1953V312.443H89.2617V319.006ZM102.947 311.896C103.503 311.901 104 312.058 104.438 312.368C104.875 312.674 105.226 313.109 105.49 313.674H108.689V310.953H109.756V323.135H108.689V318.418H105.565C105.31 319.038 104.955 319.516 104.499 319.854C104.048 320.191 103.531 320.359 102.947 320.359C102.355 320.359 101.826 320.186 101.361 319.84C100.901 319.493 100.541 319.001 100.281 318.363C100.026 317.725 99.8984 316.982 99.8984 316.135C99.8984 315.287 100.026 314.544 100.281 313.906C100.541 313.268 100.901 312.776 101.361 312.43C101.822 312.079 102.35 311.901 102.947 311.896ZM102.947 312.854C102.551 312.858 102.198 312.997 101.888 313.271C101.582 313.539 101.345 313.922 101.177 314.419C101.008 314.911 100.924 315.483 100.924 316.135C100.924 316.786 101.008 317.361 101.177 317.857C101.345 318.35 101.582 318.73 101.888 318.999C102.198 319.268 102.551 319.402 102.947 319.402C103.339 319.402 103.688 319.268 103.993 318.999C104.303 318.73 104.542 318.35 104.711 317.857C104.884 317.361 104.971 316.786 104.971 316.135C104.971 315.483 104.884 314.911 104.711 314.419C104.542 313.922 104.305 313.539 104 313.271C103.695 312.997 103.344 312.858 102.947 312.854ZM105.805 314.576C105.923 315.087 105.982 315.606 105.982 316.135C105.982 316.609 105.935 317.074 105.839 317.529H108.689V314.576H105.805ZM115.033 311.896C115.63 311.901 116.159 312.079 116.619 312.43C117.084 312.776 117.446 313.268 117.706 313.906C117.97 314.544 118.105 315.287 118.109 316.135C118.105 316.982 117.97 317.725 117.706 318.363C117.446 319.001 117.084 319.493 116.619 319.84C116.154 320.186 115.626 320.359 115.033 320.359C114.436 320.359 113.905 320.186 113.44 319.84C112.976 319.493 112.613 319.001 112.354 318.363C112.098 317.725 111.971 316.982 111.971 316.135C111.971 315.287 112.098 314.544 112.354 313.906C112.613 313.268 112.976 312.776 113.44 312.43C113.905 312.079 114.436 311.901 115.033 311.896ZM115.033 312.854C114.632 312.858 114.277 312.997 113.967 313.271C113.657 313.539 113.415 313.922 113.242 314.419C113.069 314.911 112.982 315.483 112.982 316.135C112.982 316.786 113.069 317.361 113.242 317.857C113.415 318.35 113.657 318.73 113.967 318.999C114.281 319.268 114.637 319.402 115.033 319.402C115.434 319.402 115.787 319.268 116.093 318.999C116.403 318.73 116.642 318.35 116.811 317.857C116.984 317.361 117.07 316.786 117.07 316.135C117.07 315.483 116.984 314.911 116.811 314.419C116.642 313.922 116.403 313.539 116.093 313.271C115.787 312.997 115.434 312.858 115.033 312.854ZM123.154 314.932H121.186V317.639H123.154V318.541H121.186V323.107H120.119V310.953H121.186V314.016H123.154V314.932ZM136.799 315.971H138.836V316.859H136.799V323.107H135.732V310.953H136.799V315.971ZM134.557 313.797H127.324V312.908H130.455V311.104H131.521V312.908H134.557V313.797ZM131.002 314.809C131.572 314.809 132.082 314.927 132.533 315.164C132.984 315.401 133.338 315.731 133.593 316.155C133.848 316.579 133.978 317.06 133.982 317.598C133.978 318.135 133.848 318.616 133.593 319.04C133.338 319.464 132.984 319.794 132.533 320.031C132.082 320.268 131.572 320.387 131.002 320.387C130.428 320.387 129.913 320.268 129.457 320.031C129.006 319.794 128.653 319.464 128.397 319.04C128.142 318.616 128.017 318.135 128.021 317.598C128.017 317.06 128.142 316.579 128.397 316.155C128.653 315.731 129.006 315.401 129.457 315.164C129.913 314.927 130.428 314.809 131.002 314.809ZM131.002 315.711C130.628 315.711 130.291 315.793 129.99 315.957C129.694 316.117 129.462 316.34 129.293 316.627C129.124 316.914 129.042 317.238 129.047 317.598C129.042 317.962 129.124 318.288 129.293 318.575C129.462 318.858 129.694 319.079 129.99 319.238C130.291 319.398 130.628 319.475 131.002 319.471C131.371 319.475 131.704 319.398 132 319.238C132.296 319.079 132.529 318.858 132.697 318.575C132.866 318.288 132.952 317.962 132.957 317.598C132.952 317.238 132.866 316.914 132.697 316.627C132.529 316.34 132.296 316.117 132 315.957C131.704 315.793 131.371 315.711 131.002 315.711ZM149.24 313.4V313.551C149.231 314.553 149.199 315.453 149.145 316.251C149.094 317.044 148.976 317.962 148.789 319.006L147.695 318.883C147.841 318.163 147.946 317.484 148.01 316.846C148.078 316.208 148.119 315.64 148.133 315.144C148.151 314.647 148.16 314.066 148.16 313.4V313.072H140.668V312.184H149.24V313.4ZM150.566 321.385H139.492V320.496H143.84V316.148H144.893V320.496H150.566V321.385ZM166.18 318.254H155.092V317.393H166.18V318.254ZM164.744 323.107H163.65V320.305H156.336V319.443H164.744V323.107ZM164.867 316.217H156.568V311.281H164.799V312.143H157.648V313.305H164.471V314.139H157.648V315.383H164.867V316.217ZM173.303 312.088C173.303 312.635 173.515 313.159 173.938 313.66C174.367 314.161 174.923 314.583 175.606 314.925C176.29 315.267 176.999 315.488 177.732 315.588L177.295 316.463C176.657 316.358 176.039 316.176 175.442 315.916C174.845 315.652 174.312 315.324 173.843 314.932C173.373 314.535 173.011 314.095 172.756 313.612C172.505 314.095 172.143 314.535 171.669 314.932C171.2 315.324 170.666 315.652 170.069 315.916C169.472 316.176 168.855 316.358 168.217 316.463L167.779 315.588C168.518 315.488 169.226 315.269 169.905 314.932C170.584 314.59 171.136 314.171 171.56 313.674C171.983 313.173 172.195 312.644 172.195 312.088V311.391H173.303V312.088ZM178.279 318.705H173.248V323.107H172.195V318.705H167.205V317.803H178.279V318.705ZM190.42 318.062H185.471V320.551H184.404V318.062H179.291V317.174H190.42V318.062ZM188.971 315.779H180.74V311.555H188.971V315.779ZM181.793 314.918H187.904V312.402H181.793V314.918ZM189.176 322.848H180.713V319.348H181.793V321.945H189.176V322.848ZM195.52 314.686C195.515 315.324 195.652 315.973 195.93 316.634C196.212 317.29 196.595 317.885 197.078 318.418C197.561 318.947 198.094 319.348 198.678 319.621L198.062 320.469C197.383 320.141 196.771 319.639 196.224 318.965C195.681 318.29 195.271 317.538 194.993 316.709C194.811 317.301 194.56 317.864 194.241 318.397C193.922 318.931 193.558 319.402 193.147 319.812C192.737 320.218 192.307 320.537 191.855 320.77L191.199 319.922C191.778 319.644 192.316 319.222 192.812 318.657C193.314 318.092 193.713 317.459 194.009 316.757C194.31 316.055 194.462 315.365 194.467 314.686V313.1H191.637V312.211H198.254V313.1H195.52V314.686ZM200.811 315.875H202.848V316.791H200.811V323.107H199.744V310.953H200.811V315.875ZM213.334 315.506H205.008V311.404H206.074V314.645H213.334V315.506ZM214.619 318.035H203.49V317.16H214.619V318.035ZM213.402 322.807H204.939V319.279H206.006V321.918H213.402V322.807ZM226.35 313.797H219.117V312.908H222.193V311.104H223.26V312.908H226.35V313.797ZM222.74 314.809C223.283 314.809 223.77 314.929 224.203 315.171C224.636 315.408 224.976 315.738 225.222 316.162C225.468 316.586 225.593 317.064 225.598 317.598C225.593 318.126 225.465 318.605 225.215 319.033C224.969 319.457 224.629 319.79 224.196 320.031C223.763 320.268 223.278 320.387 222.74 320.387C222.198 320.387 221.708 320.268 221.271 320.031C220.833 319.79 220.489 319.457 220.238 319.033C219.992 318.605 219.869 318.126 219.869 317.598C219.869 317.064 219.992 316.586 220.238 316.162C220.489 315.738 220.831 315.408 221.264 315.171C221.701 314.929 222.193 314.809 222.74 314.809ZM222.74 315.725C222.389 315.729 222.07 315.813 221.783 315.978C221.501 316.137 221.277 316.358 221.113 316.641C220.954 316.923 220.876 317.242 220.881 317.598C220.876 317.958 220.954 318.281 221.113 318.568C221.277 318.851 221.501 319.072 221.783 319.231C222.07 319.386 222.389 319.462 222.74 319.457C223.091 319.462 223.408 319.386 223.69 319.231C223.978 319.072 224.203 318.851 224.367 318.568C224.531 318.281 224.613 317.958 224.613 317.598C224.613 317.242 224.531 316.923 224.367 316.641C224.203 316.358 223.978 316.137 223.69 315.978C223.408 315.813 223.091 315.729 222.74 315.725ZM229.193 323.107H228.127V316.969H226.09V316.066H228.127V310.953H229.193V323.107ZM242.291 317.857H231.217V316.969H233.965V315.26C233.473 315.068 233.097 314.82 232.837 314.515C232.577 314.205 232.447 313.847 232.447 313.441C232.447 312.967 232.62 312.562 232.967 312.225C233.313 311.887 233.808 311.63 234.45 311.452C235.097 311.274 235.865 311.186 236.754 311.186C237.633 311.186 238.395 311.274 239.037 311.452C239.684 311.63 240.181 311.887 240.527 312.225C240.874 312.562 241.047 312.967 241.047 313.441C241.047 313.842 240.917 314.198 240.657 314.508C240.402 314.813 240.031 315.062 239.543 315.253V316.969H242.291V317.857ZM236.754 318.787C237.624 318.787 238.372 318.869 238.996 319.033C239.62 319.197 240.099 319.441 240.432 319.765C240.764 320.084 240.933 320.473 240.938 320.934C240.933 321.389 240.764 321.777 240.432 322.096C240.099 322.419 239.62 322.663 238.996 322.827C238.372 322.996 237.624 323.08 236.754 323.08C235.874 323.08 235.12 322.996 234.491 322.827C233.867 322.663 233.388 322.419 233.056 322.096C232.723 321.777 232.557 321.389 232.557 320.934C232.557 320.473 232.721 320.084 233.049 319.765C233.382 319.441 233.862 319.197 234.491 319.033C235.12 318.869 235.874 318.787 236.754 318.787ZM236.754 319.607C235.77 319.617 235.004 319.737 234.457 319.97C233.915 320.198 233.646 320.519 233.65 320.934C233.646 321.207 233.767 321.442 234.013 321.638C234.259 321.834 234.614 321.984 235.079 322.089C235.549 322.194 236.107 322.246 236.754 322.246C237.392 322.246 237.943 322.194 238.408 322.089C238.878 321.984 239.235 321.834 239.481 321.638C239.732 321.442 239.857 321.207 239.857 320.934C239.857 320.519 239.582 320.198 239.03 319.97C238.483 319.737 237.725 319.617 236.754 319.607ZM236.754 312.033C236.098 312.033 235.528 312.09 235.045 312.204C234.562 312.318 234.19 312.482 233.931 312.696C233.675 312.906 233.55 313.154 233.555 313.441C233.55 313.733 233.675 313.986 233.931 314.2C234.19 314.41 234.56 314.572 235.038 314.686C235.521 314.795 236.093 314.85 236.754 314.85C237.41 314.85 237.978 314.795 238.456 314.686C238.935 314.572 239.304 314.41 239.563 314.2C239.823 313.986 239.953 313.733 239.953 313.441C239.953 313.154 239.823 312.906 239.563 312.696C239.304 312.482 238.932 312.318 238.449 312.204C237.971 312.09 237.406 312.033 236.754 312.033ZM238.477 316.969V315.547C237.952 315.638 237.378 315.684 236.754 315.684C236.13 315.684 235.555 315.638 235.031 315.547V316.969H238.477ZM250.562 317.092H247.896V319.484C249.186 319.434 250.357 319.348 251.41 319.225L251.492 320.031C250.289 320.209 249.036 320.327 247.732 320.387C246.429 320.441 245.03 320.469 243.535 320.469L243.385 319.566C244.715 319.566 245.864 319.553 246.83 319.525V317.092H244.314V312.115H250.508V312.99H245.367V316.203H250.562V317.092ZM253.283 323.135H252.217V310.953H253.283V323.135ZM259.764 314.686C259.764 315.355 259.912 316.023 260.208 316.688C260.504 317.349 260.903 317.939 261.404 318.459C261.91 318.974 262.462 319.361 263.059 319.621L262.457 320.469C261.742 320.141 261.097 319.646 260.522 318.985C259.948 318.32 259.52 317.57 259.237 316.736C258.955 317.63 258.526 318.438 257.952 319.163C257.382 319.883 256.751 320.419 256.059 320.77L255.416 319.922C255.99 319.644 256.526 319.225 257.022 318.664C257.524 318.104 257.925 317.472 258.226 316.771C258.526 316.064 258.679 315.369 258.684 314.686V313.1H255.812V312.211H262.662V313.1H259.764V314.686ZM265.438 323.107H264.357V310.953H265.438V323.107ZM274.42 311.65C275.021 311.65 275.562 311.771 276.04 312.013C276.519 312.25 276.895 312.582 277.168 313.011C277.441 313.435 277.578 313.915 277.578 314.453C277.578 314.995 277.441 315.481 277.168 315.909C276.895 316.333 276.519 316.666 276.04 316.907C275.562 317.144 275.021 317.265 274.42 317.27C273.818 317.265 273.276 317.144 272.793 316.907C272.314 316.666 271.938 316.333 271.665 315.909C271.392 315.481 271.257 314.995 271.262 314.453C271.257 313.915 271.392 313.435 271.665 313.011C271.938 312.582 272.314 312.25 272.793 312.013C273.276 311.771 273.818 311.65 274.42 311.65ZM274.42 312.553C274.028 312.553 273.67 312.635 273.347 312.799C273.023 312.963 272.768 313.191 272.581 313.482C272.399 313.77 272.31 314.093 272.314 314.453C272.31 314.818 272.399 315.148 272.581 315.444C272.768 315.736 273.023 315.966 273.347 316.135C273.67 316.299 274.028 316.381 274.42 316.381C274.816 316.381 275.174 316.299 275.493 316.135C275.817 315.966 276.07 315.736 276.252 315.444C276.434 315.153 276.525 314.822 276.525 314.453C276.525 314.093 276.434 313.77 276.252 313.482C276.07 313.191 275.817 312.963 275.493 312.799C275.174 312.635 274.816 312.553 274.42 312.553ZM280.531 313.701H282.363V314.59H280.531V317.037H279.465V310.953H280.531V313.701ZM273.367 321.897C274.311 321.861 275.145 321.722 275.869 321.48L276.033 322.342C275.505 322.52 274.983 322.636 274.468 322.69C273.953 322.75 273.431 322.779 272.902 322.779H272.328V318.35H273.367V321.897ZM281.748 319.238H275.609V318.404H278.166V317.324H279.219V318.404H281.748V319.238ZM278.672 319.648C279.114 319.648 279.506 319.719 279.848 319.86C280.194 320.002 280.463 320.202 280.654 320.462C280.85 320.722 280.951 321.025 280.955 321.371C280.951 321.717 280.85 322.018 280.654 322.273C280.463 322.533 280.194 322.731 279.848 322.868C279.506 323.009 279.114 323.08 278.672 323.08C278.225 323.08 277.831 323.009 277.489 322.868C277.147 322.731 276.881 322.533 276.689 322.273C276.503 322.018 276.411 321.717 276.416 321.371C276.411 321.025 276.503 320.722 276.689 320.462C276.881 320.202 277.147 320.002 277.489 319.86C277.831 319.719 278.225 319.648 278.672 319.648ZM278.672 320.428C278.421 320.428 278.198 320.469 278.002 320.551C277.806 320.628 277.651 320.74 277.537 320.886C277.428 321.027 277.373 321.189 277.373 321.371C277.373 321.654 277.494 321.882 277.735 322.055C277.977 322.228 278.289 322.314 278.672 322.314C279.059 322.314 279.371 322.228 279.608 322.055C279.85 321.886 279.971 321.658 279.971 321.371C279.971 321.093 279.85 320.868 279.608 320.694C279.367 320.517 279.055 320.428 278.672 320.428ZM286.383 311.896C286.98 311.901 287.508 312.079 287.969 312.43C288.434 312.776 288.796 313.268 289.056 313.906C289.32 314.544 289.454 315.287 289.459 316.135C289.454 316.982 289.32 317.725 289.056 318.363C288.796 319.001 288.434 319.493 287.969 319.84C287.504 320.186 286.975 320.359 286.383 320.359C285.786 320.359 285.255 320.186 284.79 319.84C284.325 319.493 283.963 319.001 283.703 318.363C283.448 317.725 283.32 316.982 283.32 316.135C283.32 315.287 283.448 314.544 283.703 313.906C283.963 313.268 284.325 312.776 284.79 312.43C285.255 312.079 285.786 311.901 286.383 311.896ZM286.383 312.854C285.982 312.858 285.626 312.997 285.316 313.271C285.007 313.539 284.765 313.922 284.592 314.419C284.419 314.911 284.332 315.483 284.332 316.135C284.332 316.786 284.419 317.361 284.592 317.857C284.765 318.35 285.007 318.73 285.316 318.999C285.631 319.268 285.986 319.402 286.383 319.402C286.784 319.402 287.137 319.268 287.442 318.999C287.752 318.73 287.992 318.35 288.16 317.857C288.333 317.361 288.42 316.786 288.42 316.135C288.42 315.483 288.333 314.911 288.16 314.419C287.992 313.922 287.752 313.539 287.442 313.271C287.137 312.997 286.784 312.858 286.383 312.854ZM292.535 315.807H294.572V316.736H292.535V323.107H291.469V310.953H292.535V315.807ZM306.357 321.549H295.229V320.646H297.99V317.365C297.462 317.092 297.051 316.741 296.76 316.312C296.468 315.88 296.322 315.392 296.322 314.85C296.322 314.23 296.511 313.685 296.89 313.216C297.268 312.742 297.792 312.375 298.462 312.115C299.136 311.855 299.904 311.723 300.766 311.719C301.627 311.723 302.393 311.855 303.062 312.115C303.737 312.375 304.263 312.742 304.642 313.216C305.02 313.685 305.209 314.23 305.209 314.85C305.209 315.383 305.068 315.864 304.785 316.292C304.503 316.716 304.106 317.064 303.596 317.338V320.646H306.357V321.549ZM300.766 312.607C300.105 312.603 299.517 312.694 299.002 312.881C298.487 313.068 298.084 313.332 297.792 313.674C297.505 314.011 297.361 314.403 297.361 314.85C297.361 315.296 297.505 315.693 297.792 316.039C298.084 316.381 298.487 316.647 299.002 316.839C299.517 317.026 300.105 317.119 300.766 317.119C301.422 317.119 302.007 317.023 302.522 316.832C303.037 316.641 303.441 316.374 303.732 316.032C304.024 315.69 304.17 315.296 304.17 314.85C304.17 314.403 304.024 314.011 303.732 313.674C303.441 313.332 303.037 313.068 302.522 312.881C302.007 312.694 301.422 312.603 300.766 312.607ZM302.516 320.646V317.755C301.973 317.896 301.39 317.967 300.766 317.967C300.137 317.967 299.562 317.898 299.043 317.762V320.646H302.516Z" fill="#767676"/>
<rect width="393" height="98" fill="#FEFEFE"/>
<rect width="393" height="54" fill="#FEFEFE"/>
<path d="M38.9526 38V28.1304H38.8032L35.8232 30.2305V28.2217L38.9526 26.022H41.0859V38H38.9526ZM48.8887 38.2407C47.9701 38.2407 47.1593 38.0941 46.4565 37.8008C45.7537 37.502 45.2031 37.0924 44.8047 36.5723C44.4118 36.0465 44.2153 35.4434 44.2153 34.7627V34.7461C44.2153 34.2314 44.3288 33.7666 44.5557 33.3516C44.7881 32.931 45.109 32.5768 45.5186 32.2891C45.9281 32.0013 46.3984 31.8049 46.9297 31.6997V31.6499C46.2435 31.4673 45.6901 31.1408 45.2695 30.6704C44.8545 30.1945 44.647 29.6356 44.647 28.9937V28.9771C44.647 28.3628 44.8268 27.8149 45.1865 27.3335C45.5518 26.8521 46.0526 26.473 46.689 26.1963C47.3309 25.9196 48.0641 25.7812 48.8887 25.7812C49.7132 25.7812 50.4437 25.9196 51.0801 26.1963C51.722 26.473 52.2228 26.8521 52.5825 27.3335C52.9422 27.8149 53.1221 28.3628 53.1221 28.9771V28.9937C53.1221 29.6356 52.9146 30.1945 52.4995 30.6704C52.0845 31.1408 51.5339 31.4673 50.8477 31.6499V31.6997C51.3789 31.8049 51.8493 32.0013 52.2588 32.2891C52.6683 32.5768 52.9865 32.931 53.2134 33.3516C53.4458 33.7666 53.562 34.2314 53.562 34.7461V34.7627C53.562 35.4434 53.3628 36.0465 52.9644 36.5723C52.5715 37.0924 52.0236 37.502 51.3208 37.8008C50.618 38.0941 49.8073 38.2407 48.8887 38.2407ZM48.8887 36.6055C49.3701 36.6055 49.7935 36.5225 50.1587 36.3564C50.5295 36.1849 50.82 35.9497 51.0303 35.6509C51.2406 35.3465 51.3457 35.0034 51.3457 34.6216V34.605C51.3457 34.2176 51.2406 33.8745 51.0303 33.5757C50.8255 33.2713 50.5378 33.0334 50.167 32.8618C49.7962 32.6903 49.3701 32.6045 48.8887 32.6045C48.4017 32.6045 47.9728 32.6903 47.6021 32.8618C47.2368 33.0334 46.9491 33.2713 46.7388 33.5757C46.5285 33.8745 46.4233 34.2176 46.4233 34.605V34.6216C46.4233 35.0034 46.5285 35.3465 46.7388 35.6509C46.9546 35.9497 47.2451 36.1849 47.6104 36.3564C47.9811 36.5225 48.4072 36.6055 48.8887 36.6055ZM48.8887 30.9692C49.3092 30.9692 49.6772 30.8945 49.9927 30.7451C50.3136 30.5902 50.5627 30.3799 50.7397 30.1143C50.9224 29.8486 51.0137 29.5387 51.0137 29.1846V29.168C51.0137 28.8193 50.9224 28.5122 50.7397 28.2466C50.5627 27.981 50.3136 27.7734 49.9927 27.624C49.6717 27.4746 49.3037 27.3999 48.8887 27.3999C48.4681 27.3999 48.0973 27.4746 47.7764 27.624C47.4609 27.7734 47.2119 27.981 47.0293 28.2466C46.8522 28.5122 46.7637 28.8193 46.7637 29.168V29.1846C46.7637 29.5387 46.8522 29.8486 47.0293 30.1143C47.2119 30.3799 47.4609 30.5902 47.7764 30.7451C48.0973 30.8945 48.4681 30.9692 48.8887 30.9692ZM57.4136 36.3896C57.0373 36.3896 56.7218 36.2651 56.4673 36.0161C56.2183 35.7616 56.0938 35.4517 56.0938 35.0864C56.0938 34.7157 56.2183 34.4058 56.4673 34.1567C56.7218 33.9022 57.0373 33.7749 57.4136 33.7749C57.7954 33.7749 58.1108 33.9022 58.3599 34.1567C58.6089 34.4058 58.7334 34.7157 58.7334 35.0864C58.7334 35.4517 58.6089 35.7616 58.3599 36.0161C58.1108 36.2651 57.7954 36.3896 57.4136 36.3896ZM57.4136 30.2305C57.0373 30.2305 56.7218 30.106 56.4673 29.8569C56.2183 29.6024 56.0938 29.2925 56.0938 28.9272C56.0938 28.5565 56.2183 28.2466 56.4673 27.9976C56.7218 27.743 57.0373 27.6157 57.4136 27.6157C57.7954 27.6157 58.1108 27.743 58.3599 27.9976C58.6089 28.2466 58.7334 28.5565 58.7334 28.9272C58.7334 29.2925 58.6089 29.6024 58.3599 29.8569C58.1108 30.106 57.7954 30.2305 57.4136 30.2305ZM65.7725 38.2988C64.8206 38.2988 64.0044 38.0443 63.3237 37.5352C62.6486 37.026 62.1284 36.3011 61.7632 35.3604C61.3979 34.4196 61.2153 33.3045 61.2153 32.0151V31.9985C61.2153 30.7091 61.3979 29.5968 61.7632 28.6616C62.1284 27.7209 62.6486 26.9959 63.3237 26.4868C64.0044 25.9777 64.8206 25.7231 65.7725 25.7231C66.7243 25.7231 67.5405 25.9777 68.2212 26.4868C68.9019 26.9959 69.4248 27.7209 69.79 28.6616C70.1553 29.5968 70.3379 30.7091 70.3379 31.9985V32.0151C70.3379 33.3045 70.1553 34.4196 69.79 35.3604C69.4248 36.3011 68.9019 37.026 68.2212 37.5352C67.5405 38.0443 66.7243 38.2988 65.7725 38.2988ZM65.7725 36.564C66.2816 36.564 66.716 36.3813 67.0757 36.0161C67.4354 35.6509 67.7093 35.1307 67.8975 34.4556C68.0911 33.7749 68.188 32.9614 68.188 32.0151V31.9985C68.188 31.0522 68.0911 30.2415 67.8975 29.5664C67.7093 28.8857 67.4354 28.3656 67.0757 28.0059C66.716 27.6406 66.2816 27.458 65.7725 27.458C65.2633 27.458 64.8289 27.6406 64.4692 28.0059C64.1151 28.3656 63.8411 28.8857 63.6475 29.5664C63.4593 30.2415 63.3652 31.0522 63.3652 31.9985V32.0151C63.3652 32.9614 63.4593 33.7749 63.6475 34.4556C63.8411 35.1307 64.1151 35.6509 64.4692 36.0161C64.8289 36.3813 65.2633 36.564 65.7725 36.564ZM77.0781 38.2988C76.1263 38.2988 75.3101 38.0443 74.6294 37.5352C73.9543 37.026 73.4341 36.3011 73.0688 35.3604C72.7036 34.4196 72.521 33.3045 72.521 32.0151V31.9985C72.521 30.7091 72.7036 29.5968 73.0688 28.6616C73.4341 27.7209 73.9543 26.9959 74.6294 26.4868C75.3101 25.9777 76.1263 25.7231 77.0781 25.7231C78.0299 25.7231 78.8462 25.9777 79.5269 26.4868C80.2075 26.9959 80.7305 27.7209 81.0957 28.6616C81.4609 29.5968 81.6436 30.7091 81.6436 31.9985V32.0151C81.6436 33.3045 81.4609 34.4196 81.0957 35.3604C80.7305 36.3011 80.2075 37.026 79.5269 37.5352C78.8462 38.0443 78.0299 38.2988 77.0781 38.2988ZM77.0781 36.564C77.5872 36.564 78.0216 36.3813 78.3813 36.0161C78.741 35.6509 79.015 35.1307 79.2031 34.4556C79.3968 33.7749 79.4937 32.9614 79.4937 32.0151V31.9985C79.4937 31.0522 79.3968 30.2415 79.2031 29.5664C79.015 28.8857 78.741 28.3656 78.3813 28.0059C78.0216 27.6406 77.5872 27.458 77.0781 27.458C76.569 27.458 76.1346 27.6406 75.7749 28.0059C75.4207 28.3656 75.1468 28.8857 74.9531 29.5664C74.765 30.2415 74.6709 31.0522 74.6709 31.9985V32.0151C74.6709 32.9614 74.765 33.7749 74.9531 34.4556C75.1468 35.1307 75.4207 35.6509 75.7749 36.0161C76.1346 36.3813 76.569 36.564 77.0781 36.564Z" fill="black"/>
<path fill-rule="evenodd" clip-rule="evenodd" d="M314.614 27.0329C314.614 26.3999 314.136 25.8867 313.547 25.8867H312.481C311.892 25.8867 311.414 26.3999 311.414 27.0329V36.9669C311.414 37.5999 311.892 38.1131 312.481 38.1131H313.547C314.136 38.1131 314.614 37.5999 314.614 36.9669V27.0329ZM307.18 28.332H308.247C308.836 28.332 309.313 28.8575 309.313 29.5057V36.9394C309.313 37.5876 308.836 38.1131 308.247 38.1131H307.18C306.591 38.1131 306.113 37.5876 306.113 36.9394V29.5057C306.113 28.8575 306.591 28.332 307.18 28.332ZM302.848 30.981H301.782C301.192 30.981 300.715 31.5132 300.715 32.1697V36.9244C300.715 37.5809 301.192 38.1131 301.782 38.1131H302.848C303.437 38.1131 303.915 37.5809 303.915 36.9244V32.1697C303.915 31.5132 303.437 30.981 302.848 30.981ZM297.547 33.4263H296.481C295.892 33.4263 295.414 33.9509 295.414 34.598V36.9414C295.414 37.5885 295.892 38.1131 296.481 38.1131H297.547C298.136 38.1131 298.614 37.5885 298.614 36.9414V34.598C298.614 33.9509 298.136 33.4263 297.547 33.4263Z" fill="black"/>
<path fill-rule="evenodd" clip-rule="evenodd" d="M330.185 28.3022C332.672 28.3023 335.064 29.2244 336.866 30.8779C337.002 31.0055 337.219 31.0039 337.353 30.8743L338.65 29.6108C338.718 29.545 338.756 29.456 338.755 29.3633C338.754 29.2706 338.716 29.182 338.647 29.117C333.916 24.7423 326.452 24.7423 321.721 29.117C321.653 29.1819 321.614 29.2705 321.613 29.3632C321.613 29.4559 321.65 29.545 321.718 29.6108L323.016 30.8743C323.149 31.0041 323.367 31.0057 323.502 30.8779C325.305 29.2243 327.697 28.3022 330.185 28.3022ZM330.181 32.5225C331.539 32.5224 332.847 33.0342 333.854 33.9583C333.99 34.0894 334.204 34.0866 334.337 33.9519L335.624 32.6326C335.692 32.5634 335.729 32.4695 335.728 32.3719C335.727 32.2744 335.688 32.1813 335.619 32.1135C332.555 29.2227 327.81 29.2227 324.746 32.1135C324.677 32.1813 324.638 32.2744 324.637 32.372C324.636 32.4696 324.674 32.5635 324.741 32.6326L326.028 33.9519C326.161 34.0866 326.375 34.0894 326.512 33.9583C327.517 33.0348 328.825 32.5231 330.181 32.5225ZM332.706 35.316C332.708 35.4214 332.671 35.523 332.603 35.5968L330.427 38.0515C330.363 38.1236 330.276 38.1642 330.185 38.1642C330.094 38.1642 330.007 38.1236 329.943 38.0515L327.766 35.5968C327.699 35.5229 327.662 35.4213 327.664 35.316C327.666 35.2106 327.707 35.1108 327.777 35.0402C329.167 33.7263 331.203 33.7263 332.593 35.0402C332.663 35.1109 332.704 35.2107 332.706 35.316Z" fill="black"/>
<rect opacity="0.35" x="346.258" y="26" width="24" height="12" rx="3.8" stroke="black"/>
<path opacity="0.4" d="M371.758 30.2812V34.3567C372.563 34.0116 373.086 33.2086 373.086 32.319C373.086 31.4294 372.563 30.6264 371.758 30.2812Z" fill="black"/>
<rect x="347.758" y="27.5" width="21" height="9" rx="2.5" fill="black"/>
<g filter="url(#filter0_di_2962_2699)">
<path d="M30 757C30 748.163 37.1634 741 46 741H347C355.837 741 363 748.163 363 757V785C363 793.837 355.837 801 347 801H46C37.1634 801 30 793.837 30 785V757Z" fill="#BEC3CD"/>
<path d="M46 741.5H347C355.56 741.5 362.5 748.44 362.5 757V785C362.5 793.56 355.56 800.5 347 800.5H46C37.4396 800.5 30.5 793.56 30.5 785V757C30.5 748.44 37.4396 741.5 46 741.5Z" stroke="white"/>
</g>
<path d="M194.096 762.621V768.562H196.451V770.391H194.096V778.652H191.846V762.621H194.096ZM189.613 764.098V765.908H184.34V772.922C186.66 772.896 188.576 772.79 190.703 772.412L190.949 774.293C188.471 774.715 186.291 774.785 183.461 774.768H182.107V764.098H189.613ZM204.326 762.92C207.877 762.92 210.127 764.098 210.145 766.049C210.127 767.982 207.877 769.16 204.326 769.143C200.793 769.16 198.49 767.982 198.49 766.049C198.49 764.098 200.793 762.92 204.326 762.92ZM204.326 764.66C202.094 764.66 200.811 765.135 200.828 766.049C200.811 766.945 202.094 767.402 204.326 767.402C206.541 767.402 207.824 766.945 207.824 766.049C207.824 765.135 206.541 764.66 204.326 764.66ZM209.881 772.992V778.441H198.719V772.992H209.881ZM200.934 774.768V776.648H207.684V774.768H200.934ZM211.621 770.074V771.867H197.031V770.074H211.621Z" fill="white"/>
<defs>
<filter id="filter0_di_2962_2699" x="26" y="737" width="341" height="68" filterUnits="userSpaceOnUse" color-interpolation-filters="sRGB">
<feFlood flood-opacity="0" result="BackgroundImageFix"/>
<feColorMatrix in="SourceAlpha" type="matrix" values="0 0 0 0 0 0 0 0 0 0 0 0 0 0 0 0 0 0 127 0" result="hardAlpha"/>
<feOffset/>
<feGaussianBlur stdDeviation="2"/>
<feComposite in2="hardAlpha" operator="out"/>
<feColorMatrix type="matrix" values="0 0 0 0 0.715912 0 0 0 0 0.69906 0 0 0 0 0.614798 0 0 0 0.25 0"/>
<feBlend mode="normal" in2="BackgroundImageFix" result="effect1_dropShadow_2962_2699"/>
<feBlend mode="normal" in="SourceGraphic" in2="effect1_dropShadow_2962_2699" result="shape"/>
<feColorMatrix in="SourceAlpha" type="matrix" values="0 0 0 0 0 0 0 0 0 0 0 0 0 0 0 0 0 0 127 0" result="hardAlpha"/>
<feOffset dy="4"/>
<feGaussianBlur stdDeviation="2"/>
<feComposite in2="hardAlpha" operator="arithmetic" k2="-1" k3="1"/>
<feColorMatrix type="matrix" values="0 0 0 0 1 0 0 0 0 1 0 0 0 0 1 0 0 0 0.25 0"/>
<feBlend mode="normal" in2="shape" result="effect2_innerShadow_2962_2699"/>
</filter>
</defs>
</svg>
