<svg width="393" height="852" viewBox="0 0 393 852" fill="none" xmlns="http://www.w3.org/2000/svg">
<rect width="393" height="852" fill="#FEFEFE"/>
<path d="M30.7891 112.727V115.094H18.1328V112.727H22.9844V110.711H25.9609V112.727H30.7891ZM24.4609 115.773C27.5547 115.773 29.7109 117.367 29.7109 119.711C29.7109 122.055 27.5547 123.648 24.4609 123.648C21.3672 123.648 19.1641 122.055 19.1641 119.711C19.1641 117.367 21.3672 115.773 24.4609 115.773ZM24.4609 118.023C23.0312 118.023 22.0703 118.609 22.0938 119.711C22.0703 120.789 23.0312 121.352 24.4609 121.352C25.8906 121.352 26.875 120.789 26.875 119.711C26.875 118.609 25.8906 118.023 24.4609 118.023ZM35.0547 110.828V116.359H37.9375V118.797H35.0547V124.211H32.0547V110.828H35.0547ZM35.0547 125.102V132.156H32.0547V127.492H20.6875V125.102H35.0547ZM56.5703 112.68V114.766C56.5469 117.367 56.5469 120.297 55.7734 124.586L52.8438 124.328C53.5469 120.426 53.5703 117.52 53.5703 115.047H40.7969V112.68H56.5703ZM58.3281 127.117V129.555H38.875V127.117H43.0234V120.414H46V127.117H48.3438V120.414H51.2969V127.117H58.3281ZM77.5938 110.828V123.32H74.6172V120.602H70.6328V122.148H60.5078V112.398H70.6328V113.945H74.6172V110.828H77.5938ZM63.4844 114.766V119.781H67.7031V114.766H63.4844ZM70.3047 123.883C74.8516 123.883 77.6406 125.406 77.6641 128.031C77.6406 130.656 74.8516 132.156 70.3047 132.156C65.7578 132.156 62.9688 130.656 62.9688 128.031C62.9688 125.406 65.7578 123.883 70.3047 123.883ZM70.3047 126.156C67.4688 126.156 65.9453 126.766 65.9453 128.031C65.9453 129.25 67.4688 129.883 70.3047 129.883C73.1406 129.883 74.6875 129.25 74.6875 128.031C74.6875 126.766 73.1406 126.156 70.3047 126.156ZM70.6328 118.188H74.6172V116.312H70.6328V118.188ZM90.0859 111.133C94.9844 111.133 97.8203 112.422 97.8438 114.766C97.8203 117.133 94.9844 118.422 90.0859 118.422C85.1641 118.422 82.3047 117.133 82.3047 114.766C82.3047 112.422 85.1641 111.133 90.0859 111.133ZM90.0859 113.312C86.9453 113.312 85.4219 113.828 85.4453 114.766C85.4219 115.82 86.9453 116.219 90.0859 116.219C93.25 116.219 94.75 115.82 94.75 114.766C94.75 113.828 93.25 113.312 90.0859 113.312ZM99.8125 119.43V121.797H80.3594V119.43H99.8125ZM97.4453 123.039V128.477H85.5625V129.766H98.0078V132.016H82.6328V126.391H94.4922V125.219H82.6094V123.039H97.4453ZM118.938 112.023V114.391H114.695C114.719 116.91 116.219 119.488 119.594 120.602L118.117 122.898C115.75 122.148 114.133 120.602 113.219 118.68C112.258 120.812 110.559 122.535 108.039 123.344L106.516 120.977C110.02 119.852 111.613 117.051 111.648 114.391H107.359V112.023H118.938ZM124.609 124.469V132.156H121.633V126.859H109.961V124.469H124.609ZM124.609 110.828V123.531H121.633V118.398H118.328V115.961H121.633V110.828H124.609ZM133.258 112.328C136.141 112.328 138.285 114.707 138.719 118.539H142.422V110.828H145.375V132.203H142.422V120.93H138.742C138.426 125.031 136.234 127.539 133.258 127.539C130.023 127.539 127.703 124.609 127.727 119.922C127.703 115.281 130.023 112.328 133.258 112.328ZM133.258 115.023C131.664 115.023 130.562 116.758 130.586 119.922C130.562 123.109 131.664 124.82 133.258 124.82C134.875 124.82 135.93 123.109 135.93 119.922C135.93 116.758 134.875 115.023 133.258 115.023ZM167.57 122.594V124.984H159.273V132.156H156.32V124.984H148.117V122.594H167.57ZM165.836 111.953V114.297H159.625C159.918 116.383 162.273 118.48 166.656 119.008L165.578 121.352C161.828 120.848 159.145 119.242 157.867 117.039C156.555 119.242 153.895 120.848 150.18 121.352L149.078 119.008C153.391 118.48 155.77 116.383 156.109 114.297H149.875V111.953H165.836ZM175.703 116.195C175.703 119.641 176.664 123.203 179.57 125.078L177.953 127.398C176.113 126.285 174.941 124.457 174.273 122.266C173.5 124.68 172.223 126.695 170.289 127.867L168.461 125.664C171.625 123.695 172.797 119.945 172.797 116.336V112.656H175.703V116.195ZM187.352 110.828V132.156H184.492V110.828H187.352ZM182.875 111.133V131.172H180.086V120.461H177.32V118.023H180.086V111.133H182.875ZM209.125 127.211V129.672H189.602V127.211H193.961V121.984C192.309 121 191.312 119.488 191.312 117.602C191.312 114.156 194.688 111.859 199.328 111.859C203.945 111.859 207.344 114.156 207.367 117.602C207.355 119.441 206.383 120.941 204.789 121.938V127.211H209.125ZM199.328 114.227C196.281 114.227 194.266 115.445 194.266 117.602C194.266 119.688 196.281 120.977 199.328 120.977C202.352 120.977 204.391 119.688 204.414 117.602C204.391 115.445 202.352 114.227 199.328 114.227ZM196.914 127.211H201.766V123.062C201.004 123.215 200.184 123.297 199.328 123.297C198.473 123.297 197.664 123.227 196.914 123.062V127.211Z" fill="black"/>
<rect x="22.5" y="230.5" width="347" height="60" rx="19.5" stroke="#DCDCDC"/>
<rect width="393" height="98" fill="#FEFEFE"/>
<rect width="393" height="54" fill="#FEFEFE"/>
<path d="M38.9526 38V28.1304H38.8032L35.8232 30.2305V28.2217L38.9526 26.022H41.0859V38H38.9526ZM48.8887 38.2407C47.9701 38.2407 47.1593 38.0941 46.4565 37.8008C45.7537 37.502 45.2031 37.0924 44.8047 36.5723C44.4118 36.0465 44.2153 35.4434 44.2153 34.7627V34.7461C44.2153 34.2314 44.3288 33.7666 44.5557 33.3516C44.7881 32.931 45.109 32.5768 45.5186 32.2891C45.9281 32.0013 46.3984 31.8049 46.9297 31.6997V31.6499C46.2435 31.4673 45.6901 31.1408 45.2695 30.6704C44.8545 30.1945 44.647 29.6356 44.647 28.9937V28.9771C44.647 28.3628 44.8268 27.8149 45.1865 27.3335C45.5518 26.8521 46.0526 26.473 46.689 26.1963C47.3309 25.9196 48.0641 25.7812 48.8887 25.7812C49.7132 25.7812 50.4437 25.9196 51.0801 26.1963C51.722 26.473 52.2228 26.8521 52.5825 27.3335C52.9422 27.8149 53.1221 28.3628 53.1221 28.9771V28.9937C53.1221 29.6356 52.9146 30.1945 52.4995 30.6704C52.0845 31.1408 51.5339 31.4673 50.8477 31.6499V31.6997C51.3789 31.8049 51.8493 32.0013 52.2588 32.2891C52.6683 32.5768 52.9865 32.931 53.2134 33.3516C53.4458 33.7666 53.562 34.2314 53.562 34.7461V34.7627C53.562 35.4434 53.3628 36.0465 52.9644 36.5723C52.5715 37.0924 52.0236 37.502 51.3208 37.8008C50.618 38.0941 49.8073 38.2407 48.8887 38.2407ZM48.8887 36.6055C49.3701 36.6055 49.7935 36.5225 50.1587 36.3564C50.5295 36.1849 50.82 35.9497 51.0303 35.6509C51.2406 35.3465 51.3457 35.0034 51.3457 34.6216V34.605C51.3457 34.2176 51.2406 33.8745 51.0303 33.5757C50.8255 33.2713 50.5378 33.0334 50.167 32.8618C49.7962 32.6903 49.3701 32.6045 48.8887 32.6045C48.4017 32.6045 47.9728 32.6903 47.6021 32.8618C47.2368 33.0334 46.9491 33.2713 46.7388 33.5757C46.5285 33.8745 46.4233 34.2176 46.4233 34.605V34.6216C46.4233 35.0034 46.5285 35.3465 46.7388 35.6509C46.9546 35.9497 47.2451 36.1849 47.6104 36.3564C47.9811 36.5225 48.4072 36.6055 48.8887 36.6055ZM48.8887 30.9692C49.3092 30.9692 49.6772 30.8945 49.9927 30.7451C50.3136 30.5902 50.5627 30.3799 50.7397 30.1143C50.9224 29.8486 51.0137 29.5387 51.0137 29.1846V29.168C51.0137 28.8193 50.9224 28.5122 50.7397 28.2466C50.5627 27.981 50.3136 27.7734 49.9927 27.624C49.6717 27.4746 49.3037 27.3999 48.8887 27.3999C48.4681 27.3999 48.0973 27.4746 47.7764 27.624C47.4609 27.7734 47.2119 27.981 47.0293 28.2466C46.8522 28.5122 46.7637 28.8193 46.7637 29.168V29.1846C46.7637 29.5387 46.8522 29.8486 47.0293 30.1143C47.2119 30.3799 47.4609 30.5902 47.7764 30.7451C48.0973 30.8945 48.4681 30.9692 48.8887 30.9692ZM57.4136 36.3896C57.0373 36.3896 56.7218 36.2651 56.4673 36.0161C56.2183 35.7616 56.0938 35.4517 56.0938 35.0864C56.0938 34.7157 56.2183 34.4058 56.4673 34.1567C56.7218 33.9022 57.0373 33.7749 57.4136 33.7749C57.7954 33.7749 58.1108 33.9022 58.3599 34.1567C58.6089 34.4058 58.7334 34.7157 58.7334 35.0864C58.7334 35.4517 58.6089 35.7616 58.3599 36.0161C58.1108 36.2651 57.7954 36.3896 57.4136 36.3896ZM57.4136 30.2305C57.0373 30.2305 56.7218 30.106 56.4673 29.8569C56.2183 29.6024 56.0938 29.2925 56.0938 28.9272C56.0938 28.5565 56.2183 28.2466 56.4673 27.9976C56.7218 27.743 57.0373 27.6157 57.4136 27.6157C57.7954 27.6157 58.1108 27.743 58.3599 27.9976C58.6089 28.2466 58.7334 28.5565 58.7334 28.9272C58.7334 29.2925 58.6089 29.6024 58.3599 29.8569C58.1108 30.106 57.7954 30.2305 57.4136 30.2305ZM65.7725 38.2988C64.8206 38.2988 64.0044 38.0443 63.3237 37.5352C62.6486 37.026 62.1284 36.3011 61.7632 35.3604C61.3979 34.4196 61.2153 33.3045 61.2153 32.0151V31.9985C61.2153 30.7091 61.3979 29.5968 61.7632 28.6616C62.1284 27.7209 62.6486 26.9959 63.3237 26.4868C64.0044 25.9777 64.8206 25.7231 65.7725 25.7231C66.7243 25.7231 67.5405 25.9777 68.2212 26.4868C68.9019 26.9959 69.4248 27.7209 69.79 28.6616C70.1553 29.5968 70.3379 30.7091 70.3379 31.9985V32.0151C70.3379 33.3045 70.1553 34.4196 69.79 35.3604C69.4248 36.3011 68.9019 37.026 68.2212 37.5352C67.5405 38.0443 66.7243 38.2988 65.7725 38.2988ZM65.7725 36.564C66.2816 36.564 66.716 36.3813 67.0757 36.0161C67.4354 35.6509 67.7093 35.1307 67.8975 34.4556C68.0911 33.7749 68.188 32.9614 68.188 32.0151V31.9985C68.188 31.0522 68.0911 30.2415 67.8975 29.5664C67.7093 28.8857 67.4354 28.3656 67.0757 28.0059C66.716 27.6406 66.2816 27.458 65.7725 27.458C65.2633 27.458 64.8289 27.6406 64.4692 28.0059C64.1151 28.3656 63.8411 28.8857 63.6475 29.5664C63.4593 30.2415 63.3652 31.0522 63.3652 31.9985V32.0151C63.3652 32.9614 63.4593 33.7749 63.6475 34.4556C63.8411 35.1307 64.1151 35.6509 64.4692 36.0161C64.8289 36.3813 65.2633 36.564 65.7725 36.564ZM77.0781 38.2988C76.1263 38.2988 75.3101 38.0443 74.6294 37.5352C73.9543 37.026 73.4341 36.3011 73.0688 35.3604C72.7036 34.4196 72.521 33.3045 72.521 32.0151V31.9985C72.521 30.7091 72.7036 29.5968 73.0688 28.6616C73.4341 27.7209 73.9543 26.9959 74.6294 26.4868C75.3101 25.9777 76.1263 25.7231 77.0781 25.7231C78.0299 25.7231 78.8462 25.9777 79.5269 26.4868C80.2075 26.9959 80.7305 27.7209 81.0957 28.6616C81.4609 29.5968 81.6436 30.7091 81.6436 31.9985V32.0151C81.6436 33.3045 81.4609 34.4196 81.0957 35.3604C80.7305 36.3011 80.2075 37.026 79.5269 37.5352C78.8462 38.0443 78.0299 38.2988 77.0781 38.2988ZM77.0781 36.564C77.5872 36.564 78.0216 36.3813 78.3813 36.0161C78.741 35.6509 79.015 35.1307 79.2031 34.4556C79.3968 33.7749 79.4937 32.9614 79.4937 32.0151V31.9985C79.4937 31.0522 79.3968 30.2415 79.2031 29.5664C79.015 28.8857 78.741 28.3656 78.3813 28.0059C78.0216 27.6406 77.5872 27.458 77.0781 27.458C76.569 27.458 76.1346 27.6406 75.7749 28.0059C75.4207 28.3656 75.1468 28.8857 74.9531 29.5664C74.765 30.2415 74.6709 31.0522 74.6709 31.9985V32.0151C74.6709 32.9614 74.765 33.7749 74.9531 34.4556C75.1468 35.1307 75.4207 35.6509 75.7749 36.0161C76.1346 36.3813 76.569 36.564 77.0781 36.564Z" fill="black"/>
<path fill-rule="evenodd" clip-rule="evenodd" d="M314.614 27.0329C314.614 26.3999 314.136 25.8867 313.547 25.8867H312.481C311.892 25.8867 311.414 26.3999 311.414 27.0329V36.9669C311.414 37.5999 311.892 38.1131 312.481 38.1131H313.547C314.136 38.1131 314.614 37.5999 314.614 36.9669V27.0329ZM307.18 28.332H308.247C308.836 28.332 309.313 28.8575 309.313 29.5057V36.9394C309.313 37.5876 308.836 38.1131 308.247 38.1131H307.18C306.591 38.1131 306.113 37.5876 306.113 36.9394V29.5057C306.113 28.8575 306.591 28.332 307.18 28.332ZM302.848 30.981H301.782C301.192 30.981 300.715 31.5132 300.715 32.1697V36.9244C300.715 37.5809 301.192 38.1131 301.782 38.1131H302.848C303.437 38.1131 303.915 37.5809 303.915 36.9244V32.1697C303.915 31.5132 303.437 30.981 302.848 30.981ZM297.547 33.4263H296.481C295.892 33.4263 295.414 33.9509 295.414 34.598V36.9414C295.414 37.5885 295.892 38.1131 296.481 38.1131H297.547C298.136 38.1131 298.614 37.5885 298.614 36.9414V34.598C298.614 33.9509 298.136 33.4263 297.547 33.4263Z" fill="black"/>
<path fill-rule="evenodd" clip-rule="evenodd" d="M330.185 28.3022C332.672 28.3023 335.064 29.2244 336.866 30.8779C337.002 31.0055 337.219 31.0039 337.353 30.8743L338.65 29.6108C338.718 29.545 338.756 29.456 338.755 29.3633C338.754 29.2706 338.716 29.182 338.647 29.117C333.916 24.7423 326.452 24.7423 321.721 29.117C321.653 29.1819 321.614 29.2705 321.613 29.3632C321.613 29.4559 321.65 29.545 321.718 29.6108L323.016 30.8743C323.149 31.0041 323.367 31.0057 323.502 30.8779C325.305 29.2243 327.697 28.3022 330.185 28.3022ZM330.181 32.5225C331.539 32.5224 332.847 33.0342 333.854 33.9583C333.99 34.0894 334.204 34.0866 334.337 33.9519L335.624 32.6326C335.692 32.5634 335.729 32.4695 335.728 32.3719C335.727 32.2744 335.688 32.1813 335.619 32.1135C332.555 29.2227 327.81 29.2227 324.746 32.1135C324.677 32.1813 324.638 32.2744 324.637 32.372C324.636 32.4696 324.674 32.5635 324.741 32.6326L326.028 33.9519C326.161 34.0866 326.375 34.0894 326.512 33.9583C327.517 33.0348 328.825 32.5231 330.181 32.5225ZM332.706 35.316C332.708 35.4214 332.671 35.523 332.603 35.5968L330.427 38.0515C330.363 38.1236 330.276 38.1642 330.185 38.1642C330.094 38.1642 330.007 38.1236 329.943 38.0515L327.766 35.5968C327.699 35.5229 327.662 35.4213 327.664 35.316C327.666 35.2106 327.707 35.1108 327.777 35.0402C329.167 33.7263 331.203 33.7263 332.593 35.0402C332.663 35.1109 332.704 35.2107 332.706 35.316Z" fill="black"/>
<rect opacity="0.35" x="346.258" y="26" width="24" height="12" rx="3.8" stroke="black"/>
<path opacity="0.4" d="M371.758 30.2812V34.3567C372.563 34.0116 373.086 33.2086 373.086 32.319C373.086 31.4294 372.563 30.6264 371.758 30.2812Z" fill="black"/>
<rect x="347.758" y="27.5" width="21" height="9" rx="2.5" fill="black"/>
<g filter="url(#filter0_di_2962_2721)">
<path d="M30 757C30 748.163 37.1634 741 46 741H347C355.837 741 363 748.163 363 757V785C363 793.837 355.837 801 347 801H46C37.1634 801 30 793.837 30 785V757Z" fill="#BEC3CD"/>
<path d="M46 741.5H347C355.56 741.5 362.5 748.44 362.5 757V785C362.5 793.56 355.56 800.5 347 800.5H46C37.4396 800.5 30.5 793.56 30.5 785V757C30.5 748.44 37.4396 741.5 46 741.5Z" stroke="white"/>
</g>
<path d="M194.096 762.621V768.562H196.451V770.391H194.096V778.652H191.846V762.621H194.096ZM189.613 764.098V765.908H184.34V772.922C186.66 772.896 188.576 772.79 190.703 772.412L190.949 774.293C188.471 774.715 186.291 774.785 183.461 774.768H182.107V764.098H189.613ZM204.326 762.92C207.877 762.92 210.127 764.098 210.145 766.049C210.127 767.982 207.877 769.16 204.326 769.143C200.793 769.16 198.49 767.982 198.49 766.049C198.49 764.098 200.793 762.92 204.326 762.92ZM204.326 764.66C202.094 764.66 200.811 765.135 200.828 766.049C200.811 766.945 202.094 767.402 204.326 767.402C206.541 767.402 207.824 766.945 207.824 766.049C207.824 765.135 206.541 764.66 204.326 764.66ZM209.881 772.992V778.441H198.719V772.992H209.881ZM200.934 774.768V776.648H207.684V774.768H200.934ZM211.621 770.074V771.867H197.031V770.074H211.621Z" fill="white"/>
<defs>
<filter id="filter0_di_2962_2721" x="26" y="737" width="341" height="68" filterUnits="userSpaceOnUse" color-interpolation-filters="sRGB">
<feFlood flood-opacity="0" result="BackgroundImageFix"/>
<feColorMatrix in="SourceAlpha" type="matrix" values="0 0 0 0 0 0 0 0 0 0 0 0 0 0 0 0 0 0 127 0" result="hardAlpha"/>
<feOffset/>
<feGaussianBlur stdDeviation="2"/>
<feComposite in2="hardAlpha" operator="out"/>
<feColorMatrix type="matrix" values="0 0 0 0 0.715912 0 0 0 0 0.69906 0 0 0 0 0.614798 0 0 0 0.25 0"/>
<feBlend mode="normal" in2="BackgroundImageFix" result="effect1_dropShadow_2962_2721"/>
<feBlend mode="normal" in="SourceGraphic" in2="effect1_dropShadow_2962_2721" result="shape"/>
<feColorMatrix in="SourceAlpha" type="matrix" values="0 0 0 0 0 0 0 0 0 0 0 0 0 0 0 0 0 0 127 0" result="hardAlpha"/>
<feOffset dy="4"/>
<feGaussianBlur stdDeviation="2"/>
<feComposite in2="hardAlpha" operator="arithmetic" k2="-1" k3="1"/>
<feColorMatrix type="matrix" values="0 0 0 0 1 0 0 0 0 1 0 0 0 0 1 0 0 0 0.25 0"/>
<feBlend mode="normal" in2="shape" result="effect2_innerShadow_2962_2721"/>
</filter>
</defs>
</svg>
