<svg width="35" height="13" viewBox="0 0 35 13" fill="none" xmlns="http://www.w3.org/2000/svg">
<path d="M6.01562 1.12109V9.47461H0V1.12109H6.01562ZM1.75 2.48828V8.09375H4.32031V2.48828H1.75ZM9.80273 0V12.4688H8.03906V0H9.80273ZM15.2305 0.505859C17.0488 0.505859 18.3613 1.53125 18.3613 3.03516C18.3613 4.25195 17.4658 5.18164 16.1328 5.46875V6.37109C17.1035 6.31641 18.0811 6.22754 18.9902 6.09766L19.127 7.36914C16.5703 7.82031 13.7129 7.875 11.6348 7.875L11.457 6.49414C12.3184 6.49414 13.3232 6.4873 14.3828 6.45312V5.48242C13.0088 5.20898 12.0859 4.27246 12.0996 3.03516C12.0859 1.53125 13.3984 0.505859 15.2305 0.505859ZM15.2305 1.81836C14.3418 1.83203 13.7129 2.25586 13.7266 3.03516C13.7129 3.78711 14.3418 4.23828 15.2305 4.23828C16.1191 4.23828 16.7207 3.78711 16.7207 3.03516C16.7207 2.25586 16.1191 1.83203 15.2305 1.81836ZM21.4375 0.0136719V3.92383H23.0234V5.37305H21.4375V9.50195H19.6875V0.0136719H21.4375ZM21.8613 10.8145V12.209H13.0977V8.66797H14.8477V10.8145H21.8613ZM34.9727 9.625V11.0605H23.584V9.625H26.4961V7.72461H24.8965V3.54102H31.9375V2.20117H24.8828V0.806641H33.6602V4.93555H26.6465V6.31641H33.9473V7.72461H32.1836V9.625H34.9727ZM28.1914 9.625H30.4746V7.72461H28.1914V9.625Z" fill="#7C8597"/>
</svg>
