<svg width="203" height="185" viewBox="0 0 203 185" fill="none" xmlns="http://www.w3.org/2000/svg">
<g filter="url(#filter0_dd_5014_1435)">
<mask id="path-1-inside-1_5014_1435" fill="white">
<path d="M12 17C12 11.4772 16.4772 7 22 7H181C186.523 7 191 11.4772 191 17V153C191 158.523 186.523 163 181 163H22C16.4772 163 12 158.523 12 153V17Z"/>
</mask>
<path d="M12 17C12 11.4772 16.4772 7 22 7H181C186.523 7 191 11.4772 191 17V153C191 158.523 186.523 163 181 163H22C16.4772 163 12 158.523 12 153V17Z" fill="white" shape-rendering="crispEdges"/>
<path d="M22 7V8H181V7V6H22V7ZM191 17H190V153H191H192V17H191ZM181 163V162H22V163V164H181V163ZM12 153H13V17H12H11V153H12ZM22 163V162C17.0294 162 13 157.971 13 153H12H11C11 159.075 15.9249 164 22 164V163ZM191 153H190C190 157.971 185.971 162 181 162V163V164C187.075 164 192 159.075 192 153H191ZM181 7V8C185.971 8 190 12.0294 190 17H191H192C192 10.9249 187.075 6 181 6V7ZM22 7V6C15.9249 6 11 10.9249 11 17H12H13C13 12.0294 17.0294 8 22 8V7Z" fill="#E5E7EB" mask="url(#path-1-inside-1_5014_1435)"/>
<path d="M42.0625 38H40.6406V28.1562H40.5781L37.8281 29.9844V28.5625L40.6406 26.6875H42.0625V38ZM55.9688 39.2656H54.75V25.375H55.9688V39.2656ZM44.6562 35.5625C46.3906 35.5521 47.7083 35.5339 48.6094 35.5078V33.9844C48.0573 33.9271 47.5729 33.7865 47.1562 33.5625C46.7448 33.3385 46.4271 33.0495 46.2031 32.6953C45.9792 32.3359 45.8698 31.9271 45.875 31.4688C45.8698 30.9531 46.0052 30.5026 46.2812 30.1172C46.5573 29.7266 46.9479 29.4245 47.4531 29.2109C47.9583 28.9974 48.5417 28.8906 49.2031 28.8906C49.8646 28.8906 50.4479 28.9974 50.9531 29.2109C51.4635 29.4245 51.8594 29.7266 52.1406 30.1172C52.4219 30.5026 52.5625 30.9531 52.5625 31.4688C52.5625 31.9219 52.4505 32.3281 52.2266 32.6875C52.0026 33.0417 51.6849 33.3307 51.2734 33.5547C50.8672 33.7734 50.3906 33.9141 49.8438 33.9766V35.4609C51.3542 35.3932 52.6823 35.2812 53.8281 35.125L53.9219 36.0625C52.5417 36.2865 51.1068 36.4349 49.6172 36.5078C48.1276 36.5755 46.5365 36.6094 44.8438 36.6094L44.6562 35.5625ZM53.4688 28.0938H44.9531V27.0938H48.6094V25.3906H49.8438V27.0938H53.4688V28.0938ZM49.2031 29.8438C48.7812 29.8438 48.4036 29.9115 48.0703 30.0469C47.737 30.1823 47.4766 30.375 47.2891 30.625C47.1068 30.8698 47.0156 31.151 47.0156 31.4688C47.0156 31.7865 47.1068 32.0651 47.2891 32.3047C47.4766 32.5443 47.737 32.7292 48.0703 32.8594C48.4036 32.9896 48.7812 33.0521 49.2031 33.0469C49.6302 33.0521 50.0078 32.9922 50.3359 32.8672C50.6693 32.737 50.9271 32.5521 51.1094 32.3125C51.2969 32.0677 51.3906 31.7865 51.3906 31.4688C51.3906 31.151 51.2969 30.8698 51.1094 30.625C50.9271 30.375 50.6693 30.1823 50.3359 30.0469C50.0078 29.9115 49.6302 29.8438 49.2031 29.8438ZM63.0312 29.9062C63.0312 30.6354 63.1797 31.362 63.4766 32.0859C63.7734 32.8047 64.1849 33.4531 64.7109 34.0312C65.2422 34.6094 65.8385 35.0573 66.5 35.375L65.7812 36.3281C65.0208 35.9583 64.349 35.4167 63.7656 34.7031C63.1875 33.9844 62.7526 33.1745 62.4609 32.2734C62.1589 33.237 61.7005 34.1016 61.0859 34.8672C60.4766 35.6276 59.776 36.1979 58.9844 36.5781L58.2812 35.625C58.9531 35.3125 59.5573 34.8568 60.0938 34.2578C60.6354 33.6589 61.0599 32.9818 61.3672 32.2266C61.6797 31.4661 61.8385 30.6927 61.8438 29.9062V28.7969H58.6562V27.7969H61.8281V25.6406H63.0625V27.7969H66.1875V28.7969H63.0312V29.9062ZM69.1562 31.0781H71.4844V32.125H69.1562V39.2656H67.9375V25.375H69.1562V31.0781Z" fill="#0A0A0A"/>
<path d="M40.6328 55.1172C40.1055 55.1172 39.627 55.0176 39.1973 54.8184C38.7676 54.6152 38.4258 54.3379 38.1719 53.9863C37.918 53.6309 37.7812 53.2305 37.7617 52.7852H39.0156C39.0391 53.0234 39.125 53.2383 39.2734 53.4297C39.4219 53.6211 39.6152 53.7715 39.8535 53.8809C40.0918 53.9863 40.3516 54.0391 40.6328 54.0391C40.9727 54.0391 41.2754 53.9629 41.541 53.8105C41.8105 53.6582 42.0215 53.4492 42.1738 53.1836C42.3262 52.9141 42.4023 52.6133 42.4023 52.2812C42.4023 51.9414 42.3242 51.6367 42.168 51.3672C42.0117 51.0938 41.7949 50.8809 41.5176 50.7285C41.2402 50.5723 40.9258 50.4922 40.5742 50.4883C39.8594 50.4883 39.3633 50.7383 39.0859 51.2383H37.8672L38.418 46.5156H43.2227V47.6172H39.4844L39.2031 49.9961H39.2852C39.4648 49.8242 39.6953 49.6855 39.9766 49.5801C40.2617 49.4746 40.5625 49.4219 40.8789 49.4219C41.4023 49.4219 41.875 49.543 42.2969 49.7852C42.7227 50.0273 43.0547 50.3633 43.293 50.793C43.5352 51.2227 43.6562 51.707 43.6562 52.2461C43.6562 52.7969 43.5273 53.291 43.2695 53.7285C43.0117 54.166 42.6523 54.5078 42.1914 54.7539C41.7344 54.9961 41.2148 55.1172 40.6328 55.1172ZM53.3945 51.6602H52.2812V51.1562H50.2305V50.4531H52.2812V45.5078H53.3945V51.6602ZM45.4258 49.375C47.8672 49.375 49.8945 49.2891 51.5078 49.1172L51.5664 49.832C50.6797 49.9531 49.6719 50.043 48.543 50.1016V51.6836H47.4414V50.1484C46.957 50.1641 46.2656 50.1719 45.3672 50.1719H44.7695L44.6406 49.375H45.4258ZM53.3945 54.2734H47.3477V55.082H53.7109V55.8906H46.2578V53.5352H52.293V52.7852H46.2109V52.0117H53.3945V54.2734ZM48.0508 45.6836C48.5664 45.6836 49.0215 45.75 49.416 45.8828C49.8105 46.0117 50.1172 46.1953 50.3359 46.4336C50.5586 46.6719 50.6719 46.9492 50.6758 47.2656C50.6719 47.5898 50.5605 47.8711 50.3418 48.1094C50.123 48.3438 49.8164 48.5234 49.4219 48.6484C49.0273 48.7734 48.5703 48.8359 48.0508 48.8359C47.5195 48.8359 47.0547 48.7734 46.6562 48.6484C46.2617 48.5234 45.957 48.3438 45.7422 48.1094C45.5273 47.8711 45.4219 47.5898 45.4258 47.2656C45.4219 46.9492 45.5273 46.6719 45.7422 46.4336C45.9609 46.1953 46.2676 46.0117 46.6621 45.8828C47.0605 45.75 47.5234 45.6836 48.0508 45.6836ZM48.0508 46.4336C47.7305 46.4336 47.4512 46.4688 47.2129 46.5391C46.9746 46.6055 46.791 46.7012 46.6621 46.8262C46.5332 46.9512 46.4688 47.0977 46.4688 47.2656C46.4688 47.5195 46.6113 47.7207 46.8965 47.8691C47.1816 48.0137 47.5664 48.0859 48.0508 48.0859C48.5273 48.0859 48.9082 48.0117 49.1934 47.8633C49.4785 47.7148 49.6211 47.5156 49.6211 47.2656C49.6211 47.0977 49.5566 46.9512 49.4277 46.8262C49.2988 46.7012 49.1152 46.6055 48.877 46.5391C48.6387 46.4688 48.3633 46.4336 48.0508 46.4336ZM61.4219 55.1172C60.8438 55.1172 60.3125 54.9902 59.8281 54.7363C59.3477 54.4785 58.9531 54.0469 58.6445 53.4414C58.3398 52.8359 58.1875 52.0352 58.1875 51.0391C58.1875 50.0664 58.3203 49.2324 58.5859 48.5371C58.8555 47.8379 59.2383 47.3066 59.7344 46.9434C60.2344 46.5801 60.8242 46.3984 61.5039 46.3984C62.0117 46.3984 62.4688 46.498 62.875 46.6973C63.2852 46.8926 63.6172 47.166 63.8711 47.5176C64.125 47.8691 64.2852 48.2695 64.3516 48.7188H63.0742C62.9883 48.3594 62.8086 48.0703 62.5352 47.8516C62.2617 47.6328 61.918 47.5234 61.5039 47.5234C61.0703 47.5234 60.6973 47.6465 60.3848 47.8926C60.0762 48.1348 59.8398 48.4863 59.6758 48.9473C59.5117 49.4043 59.4297 49.9492 59.4297 50.582H59.5234C59.7539 50.2227 60.0586 49.9414 60.4375 49.7383C60.8203 49.5352 61.2422 49.4336 61.7031 49.4336C62.2031 49.4336 62.6621 49.5547 63.0801 49.7969C63.498 50.0352 63.8281 50.3672 64.0703 50.793C64.3125 51.2148 64.4336 51.6914 64.4336 52.2227C64.4336 52.7656 64.3086 53.2578 64.0586 53.6992C63.8086 54.1367 63.4551 54.4824 62.998 54.7363C62.541 54.9902 62.0156 55.1172 61.4219 55.1172ZM61.3867 54.0391C61.7227 54.0391 62.0273 53.959 62.3008 53.7988C62.5742 53.6387 62.7891 53.4219 62.9453 53.1484C63.1016 52.875 63.1797 52.5742 63.1797 52.2461C63.1797 51.9258 63.1035 51.6309 62.9512 51.3613C62.7988 51.0918 62.5879 50.8789 62.3184 50.7227C62.0527 50.5664 61.7539 50.4883 61.4219 50.4883C61.082 50.4883 60.7715 50.5703 60.4902 50.7344C60.2129 50.8945 59.9922 51.1113 59.8281 51.3848C59.668 51.6543 59.5859 51.9453 59.582 52.2578C59.5859 52.5703 59.666 52.8633 59.8223 53.1367C59.9785 53.4102 60.1934 53.6289 60.4668 53.793C60.7441 53.957 61.0508 54.0391 61.3867 54.0391ZM68.418 45.8477C68.9414 45.8516 69.4102 45.9551 69.8242 46.1582C70.2422 46.3574 70.5703 46.6367 70.8086 46.9961C71.0469 47.3516 71.168 47.7539 71.1719 48.2031C71.168 48.6562 71.0469 49.0605 70.8086 49.416C70.5703 49.7715 70.2422 50.0488 69.8242 50.248C69.4102 50.4473 68.9414 50.5469 68.418 50.5469C67.8906 50.5469 67.416 50.4473 66.9941 50.248C66.5762 50.0488 66.248 49.7715 66.0098 49.416C65.7715 49.0605 65.6523 48.6562 65.6523 48.2031C65.6523 47.7539 65.7715 47.3516 66.0098 46.9961C66.248 46.6367 66.5762 46.3574 66.9941 46.1582C67.416 45.9551 67.8906 45.8516 68.418 45.8477ZM68.418 46.7852C68.0977 46.7812 67.8086 46.8379 67.5508 46.9551C67.2969 47.0723 67.0977 47.2402 66.9531 47.459C66.8086 47.6738 66.7383 47.9219 66.7422 48.2031C66.7383 48.4883 66.8066 48.7402 66.9473 48.959C67.0918 49.1777 67.291 49.3477 67.5449 49.4688C67.8027 49.5859 68.0938 49.6445 68.418 49.6445C68.7383 49.6445 69.0254 49.584 69.2793 49.4629C69.5332 49.3418 69.7324 49.1738 69.877 48.959C70.0215 48.7402 70.0938 48.4883 70.0938 48.2031C70.0938 47.9219 70.0215 47.6738 69.877 47.459C69.7324 47.2402 69.5312 47.0723 69.2734 46.9551C69.0195 46.8379 68.7344 46.7812 68.418 46.7852ZM74.1484 50.8398H73.0352V45.4961H74.1484V50.8398ZM74.1484 53.9688H68.3594V54.9766H74.5V55.8672H67.2812V53.1367H73.0469V52.2109H67.2461V51.3203H74.1484V53.9688ZM79.375 51.7656C79.3867 49.6562 79.9648 47.7852 81.1094 46.1523H82.2578C81.9844 46.5469 81.7266 47.0547 81.4844 47.6758C81.2422 48.293 81.0469 48.9629 80.8984 49.6855C80.75 50.4043 80.6758 51.0977 80.6758 51.7656C80.6758 52.4375 80.75 53.1348 80.8984 53.8574C81.0469 54.5762 81.2422 55.2441 81.4844 55.8613C81.7266 56.4824 81.9844 56.9922 82.2578 57.3906H81.1094C79.9648 55.7578 79.3867 53.8828 79.375 51.7656ZM91.2578 49.8906H92.8398V50.8281H91.2578V55.9961H90.1445V45.4961H91.2578V49.8906ZM82.9023 53.1367C84.0938 53.1367 85.0234 53.127 85.6914 53.1074V52.041C85.2969 51.9863 84.9512 51.873 84.6543 51.7012C84.3613 51.5293 84.1348 51.3105 83.9746 51.0449C83.8184 50.7754 83.7422 50.4727 83.7461 50.1367C83.7422 49.7461 83.8438 49.4023 84.0508 49.1055C84.2617 48.8086 84.5566 48.5781 84.9355 48.4141C85.3184 48.25 85.7578 48.168 86.2539 48.168C86.7461 48.168 87.1816 48.25 87.5605 48.4141C87.9434 48.5781 88.2422 48.8086 88.457 49.1055C88.6719 49.4023 88.7812 49.7461 88.7852 50.1367C88.7812 50.4727 88.6973 50.7754 88.5332 51.0449C88.3691 51.3105 88.1387 51.5312 87.8418 51.707C87.5449 51.8789 87.1992 51.9922 86.8047 52.0469V53.0605C87.8125 53.0176 88.7266 52.9375 89.5469 52.8203L89.6172 53.6406C88.6133 53.8203 87.5898 53.9355 86.5469 53.9863C85.5078 54.0371 84.3516 54.0625 83.0781 54.0625L82.9023 53.1367ZM89.3945 47.6289H83.1016V46.7383H85.6914V45.5195H86.8047V46.7383H89.3945V47.6289ZM86.2539 49.0352C85.9648 49.0352 85.709 49.0801 85.4863 49.1699C85.2637 49.2598 85.0918 49.3887 84.9707 49.5566C84.8496 49.7246 84.7891 49.918 84.7891 50.1367C84.7891 50.4688 84.9219 50.7324 85.1875 50.9277C85.457 51.1191 85.8125 51.2148 86.2539 51.2148C86.6953 51.2148 87.0488 51.1191 87.3145 50.9277C87.584 50.7324 87.7188 50.4688 87.7188 50.1367C87.7188 49.918 87.6582 49.7246 87.5371 49.5566C87.416 49.3887 87.2441 49.2598 87.0215 49.1699C86.7988 49.0801 86.543 49.0352 86.2539 49.0352ZM96.2852 51.7656C96.2734 53.8828 95.6953 55.7578 94.5508 57.3906H93.4023C93.6758 56.9922 93.9336 56.4824 94.1758 55.8613C94.418 55.2441 94.6133 54.5762 94.7617 53.8574C94.9102 53.1348 94.9844 52.4375 94.9844 51.7656C94.9844 51.0977 94.9102 50.4043 94.7617 49.6855C94.6133 48.9629 94.418 48.293 94.1758 47.6758C93.9336 47.0547 93.6758 46.5469 93.4023 46.1523H94.5508C95.6953 47.7852 96.2734 49.6562 96.2852 51.7656Z" fill="#9AA3B0"/>
<path d="M38.0469 82.9688L41.9062 78.9062C42.4167 78.3698 42.8047 77.9375 43.0703 77.6094C43.3411 77.276 43.5443 76.9557 43.6797 76.6484C43.8203 76.3359 43.8906 76.0104 43.8906 75.6719C43.8906 75.2969 43.7917 74.9635 43.5938 74.6719C43.3958 74.3802 43.125 74.1536 42.7812 73.9922C42.4427 73.8307 42.0625 73.75 41.6406 73.75C41.1979 73.75 40.8099 73.8385 40.4766 74.0156C40.1432 74.1927 39.8854 74.4427 39.7031 74.7656C39.526 75.0885 39.4375 75.4583 39.4375 75.875H38.1094C38.1042 75.2188 38.2552 74.638 38.5625 74.1328C38.875 73.6276 39.3047 73.2344 39.8516 72.9531C40.3984 72.6719 41.0104 72.5312 41.6875 72.5312C42.3594 72.5312 42.9609 72.6693 43.4922 72.9453C44.0286 73.2214 44.4479 73.599 44.75 74.0781C45.0521 74.5573 45.2031 75.0885 45.2031 75.6719C45.2031 76.1042 45.125 76.5182 44.9688 76.9141C44.8125 77.3047 44.5495 77.7396 44.1797 78.2188C43.8151 78.6927 43.2917 79.2812 42.6094 79.9844L40.0156 82.6562V82.75H45.4062V84H38.0625L38.0469 82.9688ZM58.3438 85.2656H57.125V71.375H58.3438V85.2656ZM47.0312 81.5625C48.7656 81.5521 50.0833 81.5339 50.9844 81.5078V79.9844C50.4323 79.9271 49.9479 79.7865 49.5312 79.5625C49.1198 79.3385 48.8021 79.0495 48.5781 78.6953C48.3542 78.3359 48.2448 77.9271 48.25 77.4688C48.2448 76.9531 48.3802 76.5026 48.6562 76.1172C48.9323 75.7266 49.3229 75.4245 49.8281 75.2109C50.3333 74.9974 50.9167 74.8906 51.5781 74.8906C52.2396 74.8906 52.8229 74.9974 53.3281 75.2109C53.8385 75.4245 54.2344 75.7266 54.5156 76.1172C54.7969 76.5026 54.9375 76.9531 54.9375 77.4688C54.9375 77.9219 54.8255 78.3281 54.6016 78.6875C54.3776 79.0417 54.0599 79.3307 53.6484 79.5547C53.2422 79.7734 52.7656 79.9141 52.2188 79.9766V81.4609C53.7292 81.3932 55.0573 81.2812 56.2031 81.125L56.2969 82.0625C54.9167 82.2865 53.4818 82.4349 51.9922 82.5078C50.5026 82.5755 48.9115 82.6094 47.2188 82.6094L47.0312 81.5625ZM55.8438 74.0938H47.3281V73.0938H50.9844V71.3906H52.2188V73.0938H55.8438V74.0938ZM51.5781 75.8438C51.1562 75.8438 50.7786 75.9115 50.4453 76.0469C50.112 76.1823 49.8516 76.375 49.6641 76.625C49.4818 76.8698 49.3906 77.151 49.3906 77.4688C49.3906 77.7865 49.4818 78.0651 49.6641 78.3047C49.8516 78.5443 50.112 78.7292 50.4453 78.8594C50.7786 78.9896 51.1562 79.0521 51.5781 79.0469C52.0052 79.0521 52.3828 78.9922 52.7109 78.8672C53.0443 78.737 53.3021 78.5521 53.4844 78.3125C53.6719 78.0677 53.7656 77.7865 53.7656 77.4688C53.7656 77.151 53.6719 76.8698 53.4844 76.625C53.3021 76.375 53.0443 76.1823 52.7109 76.0469C52.3828 75.9115 52.0052 75.8438 51.5781 75.8438ZM65.4062 75.9062C65.4062 76.6354 65.5547 77.362 65.8516 78.0859C66.1484 78.8047 66.5599 79.4531 67.0859 80.0312C67.6172 80.6094 68.2135 81.0573 68.875 81.375L68.1562 82.3281C67.3958 81.9583 66.724 81.4167 66.1406 80.7031C65.5625 79.9844 65.1276 79.1745 64.8359 78.2734C64.5339 79.237 64.0755 80.1016 63.4609 80.8672C62.8516 81.6276 62.151 82.1979 61.3594 82.5781L60.6562 81.625C61.3281 81.3125 61.9323 80.8568 62.4688 80.2578C63.0104 79.6589 63.4349 78.9818 63.7422 78.2266C64.0547 77.4661 64.2135 76.6927 64.2188 75.9062V74.7969H61.0312V73.7969H64.2031V71.6406H65.4375V73.7969H68.5625V74.7969H65.4062V75.9062ZM71.5312 77.0781H73.8594V78.125H71.5312V85.2656H70.3125V71.375H71.5312V77.0781Z" fill="#0A0A0A"/>
<path d="M40.6328 101.117C40.1055 101.117 39.627 101.018 39.1973 100.818C38.7676 100.615 38.4258 100.338 38.1719 99.9863C37.918 99.6309 37.7812 99.2305 37.7617 98.7852H39.0156C39.0391 99.0234 39.125 99.2383 39.2734 99.4297C39.4219 99.6211 39.6152 99.7715 39.8535 99.8809C40.0918 99.9863 40.3516 100.039 40.6328 100.039C40.9727 100.039 41.2754 99.9629 41.541 99.8105C41.8105 99.6582 42.0215 99.4492 42.1738 99.1836C42.3262 98.9141 42.4023 98.6133 42.4023 98.2812C42.4023 97.9414 42.3242 97.6367 42.168 97.3672C42.0117 97.0938 41.7949 96.8809 41.5176 96.7285C41.2402 96.5723 40.9258 96.4922 40.5742 96.4883C39.8594 96.4883 39.3633 96.7383 39.0859 97.2383H37.8672L38.418 92.5156H43.2227V93.6172H39.4844L39.2031 95.9961H39.2852C39.4648 95.8242 39.6953 95.6855 39.9766 95.5801C40.2617 95.4746 40.5625 95.4219 40.8789 95.4219C41.4023 95.4219 41.875 95.543 42.2969 95.7852C42.7227 96.0273 43.0547 96.3633 43.293 96.793C43.5352 97.2227 43.6562 97.707 43.6562 98.2461C43.6562 98.7969 43.5273 99.291 43.2695 99.7285C43.0117 100.166 42.6523 100.508 42.1914 100.754C41.7344 100.996 41.2148 101.117 40.6328 101.117ZM53.3945 97.6602H52.2812V97.1562H50.2305V96.4531H52.2812V91.5078H53.3945V97.6602ZM45.4258 95.375C47.8672 95.375 49.8945 95.2891 51.5078 95.1172L51.5664 95.832C50.6797 95.9531 49.6719 96.043 48.543 96.1016V97.6836H47.4414V96.1484C46.957 96.1641 46.2656 96.1719 45.3672 96.1719H44.7695L44.6406 95.375H45.4258ZM53.3945 100.273H47.3477V101.082H53.7109V101.891H46.2578V99.5352H52.293V98.7852H46.2109V98.0117H53.3945V100.273ZM48.0508 91.6836C48.5664 91.6836 49.0215 91.75 49.416 91.8828C49.8105 92.0117 50.1172 92.1953 50.3359 92.4336C50.5586 92.6719 50.6719 92.9492 50.6758 93.2656C50.6719 93.5898 50.5605 93.8711 50.3418 94.1094C50.123 94.3438 49.8164 94.5234 49.4219 94.6484C49.0273 94.7734 48.5703 94.8359 48.0508 94.8359C47.5195 94.8359 47.0547 94.7734 46.6562 94.6484C46.2617 94.5234 45.957 94.3438 45.7422 94.1094C45.5273 93.8711 45.4219 93.5898 45.4258 93.2656C45.4219 92.9492 45.5273 92.6719 45.7422 92.4336C45.9609 92.1953 46.2676 92.0117 46.6621 91.8828C47.0605 91.75 47.5234 91.6836 48.0508 91.6836ZM48.0508 92.4336C47.7305 92.4336 47.4512 92.4688 47.2129 92.5391C46.9746 92.6055 46.791 92.7012 46.6621 92.8262C46.5332 92.9512 46.4688 93.0977 46.4688 93.2656C46.4688 93.5195 46.6113 93.7207 46.8965 93.8691C47.1816 94.0137 47.5664 94.0859 48.0508 94.0859C48.5273 94.0859 48.9082 94.0117 49.1934 93.8633C49.4785 93.7148 49.6211 93.5156 49.6211 93.2656C49.6211 93.0977 49.5566 92.9512 49.4277 92.8262C49.2988 92.7012 49.1152 92.6055 48.877 92.5391C48.6387 92.4688 48.3633 92.4336 48.0508 92.4336ZM61.2227 92.3984C61.793 92.3984 62.3184 92.5273 62.7988 92.7852C63.2832 93.0391 63.6777 93.4688 63.9824 94.0742C64.291 94.6758 64.4453 95.4688 64.4453 96.4531C64.4453 97.4336 64.3105 98.2734 64.041 98.9727C63.7754 99.6719 63.3926 100.205 62.8926 100.572C62.3965 100.936 61.8086 101.117 61.1289 101.117C60.6172 101.117 60.1562 101.02 59.7461 100.824C59.3398 100.625 59.0078 100.35 58.75 99.998C58.4961 99.6426 58.3359 99.2344 58.2695 98.7734H59.5469C59.6367 99.1445 59.8184 99.4414 60.0918 99.6641C60.3691 99.8828 60.7148 99.9922 61.1289 99.9922C61.5625 99.9922 61.9336 99.8711 62.2422 99.6289C62.5547 99.3828 62.793 99.0293 62.957 98.5684C63.125 98.1035 63.2109 97.5508 63.2148 96.9102H63.1094C62.8789 97.2695 62.5723 97.5508 62.1895 97.7539C61.8105 97.957 61.3945 98.0586 60.9414 98.0586C60.4375 98.0586 59.9766 97.9395 59.5586 97.7012C59.1406 97.4629 58.8086 97.1309 58.5625 96.7051C58.3203 96.2793 58.1992 95.8008 58.1992 95.2695C58.1992 94.7344 58.3242 94.248 58.5742 93.8105C58.8281 93.373 59.1836 93.0293 59.6406 92.7793C60.1016 92.5254 60.6289 92.3984 61.2227 92.3984ZM61.2461 93.4766C60.9102 93.4766 60.6055 93.5566 60.332 93.7168C60.0586 93.873 59.8438 94.0879 59.6875 94.3613C59.5312 94.6309 59.4531 94.9258 59.4531 95.2461C59.4531 95.5703 59.5293 95.8672 59.6816 96.1367C59.834 96.4062 60.0449 96.6191 60.3145 96.7754C60.584 96.9277 60.8867 97.0039 61.2227 97.0039C61.5547 97.0039 61.8594 96.9219 62.1367 96.7578C62.4141 96.5938 62.6328 96.377 62.793 96.1074C62.957 95.834 63.0391 95.543 63.0391 95.2344C63.0391 94.9297 62.9609 94.6426 62.8047 94.373C62.6523 94.1035 62.4375 93.8867 62.1602 93.7227C61.8867 93.5586 61.582 93.4766 61.2461 93.4766ZM68.418 91.8477C68.9414 91.8516 69.4102 91.9551 69.8242 92.1582C70.2422 92.3574 70.5703 92.6367 70.8086 92.9961C71.0469 93.3516 71.168 93.7539 71.1719 94.2031C71.168 94.6562 71.0469 95.0605 70.8086 95.416C70.5703 95.7715 70.2422 96.0488 69.8242 96.248C69.4102 96.4473 68.9414 96.5469 68.418 96.5469C67.8906 96.5469 67.416 96.4473 66.9941 96.248C66.5762 96.0488 66.248 95.7715 66.0098 95.416C65.7715 95.0605 65.6523 94.6562 65.6523 94.2031C65.6523 93.7539 65.7715 93.3516 66.0098 92.9961C66.248 92.6367 66.5762 92.3574 66.9941 92.1582C67.416 91.9551 67.8906 91.8516 68.418 91.8477ZM68.418 92.7852C68.0977 92.7812 67.8086 92.8379 67.5508 92.9551C67.2969 93.0723 67.0977 93.2402 66.9531 93.459C66.8086 93.6738 66.7383 93.9219 66.7422 94.2031C66.7383 94.4883 66.8066 94.7402 66.9473 94.959C67.0918 95.1777 67.291 95.3477 67.5449 95.4688C67.8027 95.5859 68.0938 95.6445 68.418 95.6445C68.7383 95.6445 69.0254 95.584 69.2793 95.4629C69.5332 95.3418 69.7324 95.1738 69.877 94.959C70.0215 94.7402 70.0938 94.4883 70.0938 94.2031C70.0938 93.9219 70.0215 93.6738 69.877 93.459C69.7324 93.2402 69.5312 93.0723 69.2734 92.9551C69.0195 92.8379 68.7344 92.7812 68.418 92.7852ZM74.1484 96.8398H73.0352V91.4961H74.1484V96.8398ZM74.1484 99.9688H68.3594V100.977H74.5V101.867H67.2812V99.1367H73.0469V98.2109H67.2461V97.3203H74.1484V99.9688ZM79.375 97.7656C79.3867 95.6562 79.9648 93.7852 81.1094 92.1523H82.2578C81.9844 92.5469 81.7266 93.0547 81.4844 93.6758C81.2422 94.293 81.0469 94.9629 80.8984 95.6855C80.75 96.4043 80.6758 97.0977 80.6758 97.7656C80.6758 98.4375 80.75 99.1348 80.8984 99.8574C81.0469 100.576 81.2422 101.244 81.4844 101.861C81.7266 102.482 81.9844 102.992 82.2578 103.391H81.1094C79.9648 101.758 79.3867 99.8828 79.375 97.7656ZM91.4219 92.8203C91.4219 93.3906 91.4062 93.8984 91.375 94.3438C91.3477 94.7891 91.2734 95.293 91.1523 95.8555H92.6406V96.7695H83.0312V95.8555H90.0273C90.1523 95.3086 90.2324 94.8164 90.2676 94.3789C90.3027 93.9414 90.3203 93.4609 90.3203 92.9375H84.2383V92.0234H91.4219V92.8203ZM91.4336 101.867H84.2031V98.1055H91.4336V101.867ZM85.293 100.965H90.332V98.9844H85.293V100.965ZM96.2852 97.7656C96.2734 99.8828 95.6953 101.758 94.5508 103.391H93.4023C93.6758 102.992 93.9336 102.482 94.1758 101.861C94.418 101.244 94.6133 100.576 94.7617 99.8574C94.9102 99.1348 94.9844 98.4375 94.9844 97.7656C94.9844 97.0977 94.9102 96.4043 94.7617 95.6855C94.6133 94.9629 94.418 94.293 94.1758 93.6758C93.9336 93.0547 93.6758 92.5469 93.4023 92.1523H94.5508C95.6953 93.7852 96.2734 95.6562 96.2852 97.7656Z" fill="#9AA3B0"/>
<path d="M23.5 116C23.5 111.582 27.0817 108 31.5 108H171.5C175.918 108 179.5 111.582 179.5 116V146C179.5 150.418 175.918 154 171.5 154H31.5C27.0817 154 23.5 150.418 23.5 146V116Z" fill="#EFF6FF"/>
<path d="M44.2305 131.656C43.4857 131.656 42.819 131.531 42.2305 131.281C41.6471 131.031 41.1836 130.68 40.8398 130.227C40.5013 129.773 40.319 129.25 40.293 128.656H41.7148C41.7409 129.005 41.8659 129.312 42.0898 129.578C42.319 129.844 42.6185 130.049 42.9883 130.195C43.3581 130.336 43.7669 130.406 44.2148 130.406C44.7044 130.406 45.1445 130.323 45.5352 130.156C45.931 129.984 46.2383 129.75 46.457 129.453C46.681 129.151 46.793 128.807 46.793 128.422C46.793 128.005 46.6836 127.638 46.4648 127.32C46.2513 127.003 45.9388 126.755 45.5273 126.578C45.1159 126.401 44.6211 126.312 44.043 126.312H43.1211V125.078H44.043C44.4961 125.078 44.8997 124.997 45.2539 124.836C45.6081 124.674 45.8815 124.448 46.0742 124.156C46.2721 123.865 46.3711 123.526 46.3711 123.141C46.3711 122.771 46.2826 122.443 46.1055 122.156C45.9336 121.87 45.6888 121.648 45.3711 121.492C45.0534 121.331 44.6836 121.25 44.2617 121.25C43.8555 121.25 43.4753 121.323 43.1211 121.469C42.7669 121.615 42.4779 121.823 42.2539 122.094C42.0299 122.359 41.9076 122.672 41.8867 123.031H40.5273C40.5534 122.448 40.7357 121.93 41.0742 121.477C41.4128 121.018 41.8633 120.664 42.4258 120.414C42.9883 120.159 43.6055 120.031 44.2773 120.031C44.9753 120.031 45.5846 120.169 46.1055 120.445C46.6315 120.716 47.0352 121.083 47.3164 121.547C47.5977 122.01 47.7357 122.516 47.7305 123.062C47.7357 123.698 47.5664 124.242 47.2227 124.695C46.8789 125.148 46.4076 125.458 45.8086 125.625V125.703C46.293 125.781 46.7122 125.945 47.0664 126.195C47.4258 126.44 47.6992 126.755 47.8867 127.141C48.0794 127.521 48.1732 127.948 48.168 128.422C48.1732 129.031 48.0039 129.583 47.6602 130.078C47.3164 130.568 46.8424 130.953 46.2383 131.234C45.6393 131.516 44.9701 131.656 44.2305 131.656ZM61.0898 132.766H59.8711V118.875H61.0898V132.766ZM49.7773 129.062C51.5117 129.052 52.8294 129.034 53.7305 129.008V127.484C53.1784 127.427 52.694 127.286 52.2773 127.062C51.8659 126.839 51.5482 126.549 51.3242 126.195C51.1003 125.836 50.9909 125.427 50.9961 124.969C50.9909 124.453 51.1263 124.003 51.4023 123.617C51.6784 123.227 52.069 122.924 52.5742 122.711C53.0794 122.497 53.6628 122.391 54.3242 122.391C54.9857 122.391 55.569 122.497 56.0742 122.711C56.5846 122.924 56.9805 123.227 57.2617 123.617C57.543 124.003 57.6836 124.453 57.6836 124.969C57.6836 125.422 57.5716 125.828 57.3477 126.188C57.1237 126.542 56.806 126.831 56.3945 127.055C55.9883 127.273 55.5117 127.414 54.9648 127.477V128.961C56.4753 128.893 57.8034 128.781 58.9492 128.625L59.043 129.562C57.6628 129.786 56.2279 129.935 54.7383 130.008C53.2487 130.076 51.6576 130.109 49.9648 130.109L49.7773 129.062ZM58.5898 121.594H50.0742V120.594H53.7305V118.891H54.9648V120.594H58.5898V121.594ZM54.3242 123.344C53.9023 123.344 53.5247 123.411 53.1914 123.547C52.8581 123.682 52.5977 123.875 52.4102 124.125C52.2279 124.37 52.1367 124.651 52.1367 124.969C52.1367 125.286 52.2279 125.565 52.4102 125.805C52.5977 126.044 52.8581 126.229 53.1914 126.359C53.5247 126.49 53.9023 126.552 54.3242 126.547C54.7513 126.552 55.1289 126.492 55.457 126.367C55.7904 126.237 56.0482 126.052 56.2305 125.812C56.418 125.568 56.5117 125.286 56.5117 124.969C56.5117 124.651 56.418 124.37 56.2305 124.125C56.0482 123.875 55.7904 123.682 55.457 123.547C55.1289 123.411 54.7513 123.344 54.3242 123.344ZM68.1523 123.406C68.1523 124.135 68.3008 124.862 68.5977 125.586C68.8945 126.305 69.306 126.953 69.832 127.531C70.3633 128.109 70.9596 128.557 71.6211 128.875L70.9023 129.828C70.1419 129.458 69.4701 128.917 68.8867 128.203C68.3086 127.484 67.8737 126.674 67.582 125.773C67.2799 126.737 66.8216 127.602 66.207 128.367C65.5977 129.128 64.8971 129.698 64.1055 130.078L63.4023 129.125C64.0742 128.812 64.6784 128.357 65.2148 127.758C65.7565 127.159 66.181 126.482 66.4883 125.727C66.8008 124.966 66.9596 124.193 66.9648 123.406V122.297H63.7773V121.297H66.9492V119.141H68.1836V121.297H71.3086V122.297H68.1523V123.406ZM74.2773 124.578H76.6055V125.625H74.2773V132.766H73.0586V118.875H74.2773V124.578Z" fill="#155DFC"/>
<path d="M43.1328 147.117C42.6055 147.117 42.127 147.018 41.6973 146.818C41.2676 146.615 40.9258 146.338 40.6719 145.986C40.418 145.631 40.2812 145.23 40.2617 144.785H41.5156C41.5391 145.023 41.625 145.238 41.7734 145.43C41.9219 145.621 42.1152 145.771 42.3535 145.881C42.5918 145.986 42.8516 146.039 43.1328 146.039C43.4727 146.039 43.7754 145.963 44.041 145.811C44.3105 145.658 44.5215 145.449 44.6738 145.184C44.8262 144.914 44.9023 144.613 44.9023 144.281C44.9023 143.941 44.8242 143.637 44.668 143.367C44.5117 143.094 44.2949 142.881 44.0176 142.729C43.7402 142.572 43.4258 142.492 43.0742 142.488C42.3594 142.488 41.8633 142.738 41.5859 143.238H40.3672L40.918 138.516H45.7227V139.617H41.9844L41.7031 141.996H41.7852C41.9648 141.824 42.1953 141.686 42.4766 141.58C42.7617 141.475 43.0625 141.422 43.3789 141.422C43.9023 141.422 44.375 141.543 44.7969 141.785C45.2227 142.027 45.5547 142.363 45.793 142.793C46.0352 143.223 46.1562 143.707 46.1562 144.246C46.1562 144.797 46.0273 145.291 45.7695 145.729C45.5117 146.166 45.1523 146.508 44.6914 146.754C44.2344 146.996 43.7148 147.117 43.1328 147.117ZM55.8945 143.66H54.7812V143.156H52.7305V142.453H54.7812V137.508H55.8945V143.66ZM47.9258 141.375C50.3672 141.375 52.3945 141.289 54.0078 141.117L54.0664 141.832C53.1797 141.953 52.1719 142.043 51.043 142.102V143.684H49.9414V142.148C49.457 142.164 48.7656 142.172 47.8672 142.172H47.2695L47.1406 141.375H47.9258ZM55.8945 146.273H49.8477V147.082H56.2109V147.891H48.7578V145.535H54.793V144.785H48.7109V144.012H55.8945V146.273ZM50.5508 137.684C51.0664 137.684 51.5215 137.75 51.916 137.883C52.3105 138.012 52.6172 138.195 52.8359 138.434C53.0586 138.672 53.1719 138.949 53.1758 139.266C53.1719 139.59 53.0605 139.871 52.8418 140.109C52.623 140.344 52.3164 140.523 51.9219 140.648C51.5273 140.773 51.0703 140.836 50.5508 140.836C50.0195 140.836 49.5547 140.773 49.1562 140.648C48.7617 140.523 48.457 140.344 48.2422 140.109C48.0273 139.871 47.9219 139.59 47.9258 139.266C47.9219 138.949 48.0273 138.672 48.2422 138.434C48.4609 138.195 48.7676 138.012 49.1621 137.883C49.5605 137.75 50.0234 137.684 50.5508 137.684ZM50.5508 138.434C50.2305 138.434 49.9512 138.469 49.7129 138.539C49.4746 138.605 49.291 138.701 49.1621 138.826C49.0332 138.951 48.9688 139.098 48.9688 139.266C48.9688 139.52 49.1113 139.721 49.3965 139.869C49.6816 140.014 50.0664 140.086 50.5508 140.086C51.0273 140.086 51.4082 140.012 51.6934 139.863C51.9785 139.715 52.1211 139.516 52.1211 139.266C52.1211 139.098 52.0566 138.951 51.9277 138.826C51.7988 138.701 51.6152 138.605 51.377 138.539C51.1387 138.469 50.8633 138.434 50.5508 138.434ZM64.0508 147H62.75V139.805H62.7031L60.6758 141.129V139.898L62.7852 138.516H64.0508V147ZM69.2188 147.117C68.6406 147.117 68.1211 147.02 67.6602 146.824C67.2031 146.629 66.8418 146.355 66.5762 146.004C66.3145 145.648 66.1758 145.242 66.1602 144.785H67.4727C67.4883 145.031 67.5723 145.246 67.7246 145.43C67.8809 145.613 68.0879 145.756 68.3457 145.857C68.6035 145.955 68.8906 146.004 69.207 146.004C69.543 146.004 69.8457 145.945 70.1152 145.828C70.3848 145.711 70.5957 145.549 70.748 145.342C70.9004 145.131 70.9766 144.891 70.9766 144.621C70.9766 144.344 70.9004 144.096 70.748 143.877C70.5957 143.658 70.375 143.488 70.0859 143.367C69.8008 143.242 69.4609 143.18 69.0664 143.18H68.3398V142.125H69.0664C69.3828 142.125 69.666 142.068 69.916 141.955C70.166 141.842 70.3594 141.684 70.4961 141.48C70.6367 141.277 70.707 141.043 70.707 140.777C70.707 140.52 70.6465 140.293 70.5254 140.098C70.4043 139.902 70.2324 139.75 70.0098 139.641C69.7871 139.531 69.5273 139.477 69.2305 139.477C68.9414 139.477 68.6738 139.527 68.4277 139.629C68.1816 139.73 67.9824 139.875 67.8301 140.062C67.6816 140.25 67.6016 140.469 67.5898 140.719H66.3477C66.3594 140.27 66.4941 139.869 66.752 139.518C67.0137 139.162 67.3633 138.887 67.8008 138.691C68.2383 138.496 68.7188 138.398 69.2422 138.398C69.7812 138.398 70.2559 138.502 70.666 138.709C71.0801 138.916 71.3984 139.197 71.6211 139.553C71.8438 139.904 71.9531 140.289 71.9492 140.707C71.9531 141.184 71.8184 141.59 71.5449 141.926C71.2754 142.258 70.9102 142.48 70.4492 142.594V142.652C71.0234 142.734 71.4707 142.955 71.791 143.314C72.1152 143.674 72.2773 144.125 72.2773 144.668C72.2773 145.133 72.1445 145.553 71.8789 145.928C71.6133 146.299 71.248 146.59 70.7832 146.801C70.3184 147.012 69.7969 147.117 69.2188 147.117ZM76.3086 137.848C76.832 137.852 77.3008 137.955 77.7148 138.158C78.1328 138.357 78.4609 138.637 78.6992 138.996C78.9375 139.352 79.0586 139.754 79.0625 140.203C79.0586 140.656 78.9375 141.061 78.6992 141.416C78.4609 141.771 78.1328 142.049 77.7148 142.248C77.3008 142.447 76.832 142.547 76.3086 142.547C75.7812 142.547 75.3066 142.447 74.8848 142.248C74.4668 142.049 74.1387 141.771 73.9004 141.416C73.6621 141.061 73.543 140.656 73.543 140.203C73.543 139.754 73.6621 139.352 73.9004 138.996C74.1387 138.637 74.4668 138.357 74.8848 138.158C75.3066 137.955 75.7812 137.852 76.3086 137.848ZM76.3086 138.785C75.9883 138.781 75.6992 138.838 75.4414 138.955C75.1875 139.072 74.9883 139.24 74.8438 139.459C74.6992 139.674 74.6289 139.922 74.6328 140.203C74.6289 140.488 74.6973 140.74 74.8379 140.959C74.9824 141.178 75.1816 141.348 75.4355 141.469C75.6934 141.586 75.9844 141.645 76.3086 141.645C76.6289 141.645 76.916 141.584 77.1699 141.463C77.4238 141.342 77.623 141.174 77.7676 140.959C77.9121 140.74 77.9844 140.488 77.9844 140.203C77.9844 139.922 77.9121 139.674 77.7676 139.459C77.623 139.24 77.4219 139.072 77.1641 138.955C76.9102 138.838 76.625 138.781 76.3086 138.785ZM82.0391 142.84H80.9258V137.496H82.0391V142.84ZM82.0391 145.969H76.25V146.977H82.3906V147.867H75.1719V145.137H80.9375V144.211H75.1367V143.32H82.0391V145.969ZM87.2656 143.766C87.2773 141.656 87.8555 139.785 89 138.152H90.1484C89.875 138.547 89.6172 139.055 89.375 139.676C89.1328 140.293 88.9375 140.963 88.7891 141.686C88.6406 142.404 88.5664 143.098 88.5664 143.766C88.5664 144.438 88.6406 145.135 88.7891 145.857C88.9375 146.576 89.1328 147.244 89.375 147.861C89.6172 148.482 89.875 148.992 90.1484 149.391H89C87.8555 147.758 87.2773 145.883 87.2656 143.766ZM99.1484 141.891H100.73V142.828H99.1484V147.996H98.0352V137.496H99.1484V141.891ZM90.793 145.137C91.9844 145.137 92.9141 145.127 93.582 145.107V144.041C93.1875 143.986 92.8418 143.873 92.5449 143.701C92.252 143.529 92.0254 143.311 91.8652 143.045C91.709 142.775 91.6328 142.473 91.6367 142.137C91.6328 141.746 91.7344 141.402 91.9414 141.105C92.1523 140.809 92.4473 140.578 92.8262 140.414C93.209 140.25 93.6484 140.168 94.1445 140.168C94.6367 140.168 95.0723 140.25 95.4512 140.414C95.834 140.578 96.1328 140.809 96.3477 141.105C96.5625 141.402 96.6719 141.746 96.6758 142.137C96.6719 142.473 96.5879 142.775 96.4238 143.045C96.2598 143.311 96.0293 143.531 95.7324 143.707C95.4355 143.879 95.0898 143.992 94.6953 144.047V145.061C95.7031 145.018 96.6172 144.938 97.4375 144.82L97.5078 145.641C96.5039 145.82 95.4805 145.936 94.4375 145.986C93.3984 146.037 92.2422 146.062 90.9688 146.062L90.793 145.137ZM97.2852 139.629H90.9922V138.738H93.582V137.52H94.6953V138.738H97.2852V139.629ZM94.1445 141.035C93.8555 141.035 93.5996 141.08 93.377 141.17C93.1543 141.26 92.9824 141.389 92.8613 141.557C92.7402 141.725 92.6797 141.918 92.6797 142.137C92.6797 142.469 92.8125 142.732 93.0781 142.928C93.3477 143.119 93.7031 143.215 94.1445 143.215C94.5859 143.215 94.9395 143.119 95.2051 142.928C95.4746 142.732 95.6094 142.469 95.6094 142.137C95.6094 141.918 95.5488 141.725 95.4277 141.557C95.3066 141.389 95.1348 141.26 94.9121 141.17C94.6895 141.08 94.4336 141.035 94.1445 141.035ZM104.176 143.766C104.164 145.883 103.586 147.758 102.441 149.391H101.293C101.566 148.992 101.824 148.482 102.066 147.861C102.309 147.244 102.504 146.576 102.652 145.857C102.801 145.135 102.875 144.438 102.875 143.766C102.875 143.098 102.801 142.404 102.652 141.686C102.504 140.963 102.309 140.293 102.066 139.676C101.824 139.055 101.566 138.547 101.293 138.152H102.441C103.586 139.785 104.164 141.656 104.176 143.766Z" fill="#9AA3B0"/>
<path d="M105.5 131C105.5 124.925 110.425 120 116.5 120H152.5C158.575 120 163.5 124.925 163.5 131C163.5 137.075 158.575 142 152.5 142H116.5C110.425 142 105.5 137.075 105.5 131Z" fill="#DCFCE7"/>
<path d="M122.879 134.012H121.766V131.844H120.078V130.953H121.766V129.652H120.078V128.738H121.766V126.008H122.879V134.012ZM120.043 128.129H114.137V127.227H116.598V125.996H117.699V127.227H120.043V128.129ZM117.137 128.633C117.605 128.633 118.021 128.719 118.385 128.891C118.752 129.059 119.039 129.295 119.246 129.6C119.453 129.904 119.559 130.254 119.562 130.648C119.559 131.047 119.453 131.4 119.246 131.709C119.039 132.014 118.752 132.252 118.385 132.424C118.021 132.592 117.605 132.676 117.137 132.676C116.668 132.676 116.25 132.592 115.883 132.424C115.52 132.252 115.234 132.014 115.027 131.709C114.824 131.4 114.723 131.047 114.723 130.648C114.723 130.254 114.824 129.904 115.027 129.6C115.234 129.295 115.52 129.059 115.883 128.891C116.25 128.719 116.668 128.633 117.137 128.633ZM117.137 129.5C116.863 129.504 116.623 129.555 116.416 129.652C116.209 129.746 116.049 129.879 115.936 130.051C115.822 130.223 115.766 130.422 115.766 130.648C115.766 131.004 115.891 131.287 116.141 131.498C116.391 131.705 116.723 131.809 117.137 131.809C117.406 131.809 117.645 131.762 117.852 131.668C118.059 131.574 118.221 131.439 118.338 131.264C118.455 131.088 118.516 130.883 118.52 130.648C118.516 130.422 118.455 130.223 118.338 130.051C118.221 129.879 118.059 129.746 117.852 129.652C117.645 129.555 117.406 129.504 117.137 129.5ZM123.113 136.273H116.023V133.309H117.148V135.371H123.113V136.273ZM133.566 136.496H132.5V131.105H131.246V135.98H130.191V126.195H131.246V130.168H132.5V125.996H133.566V136.496ZM127.684 128.773C127.684 129.414 127.766 130.02 127.93 130.59C128.094 131.16 128.342 131.668 128.674 132.113C129.01 132.555 129.426 132.902 129.922 133.156L129.266 134.012C128.762 133.738 128.334 133.367 127.982 132.898C127.631 132.43 127.359 131.885 127.168 131.264C126.984 131.967 126.715 132.584 126.359 133.115C126.008 133.646 125.57 134.066 125.047 134.375L124.355 133.531C125.102 133.109 125.662 132.48 126.037 131.645C126.416 130.809 126.605 129.852 126.605 128.773V128.094H124.637V127.191H129.512V128.094H127.684V128.773ZM143.551 136.496H142.438V125.996H143.551V136.496ZM134.926 133.637C136.188 133.629 137.148 133.615 137.809 133.596V132.547C137.398 132.496 137.041 132.385 136.736 132.213C136.432 132.041 136.197 131.82 136.033 131.551C135.869 131.281 135.789 130.977 135.793 130.637C135.789 130.246 135.893 129.902 136.104 129.605C136.314 129.309 136.613 129.078 137 128.914C137.387 128.75 137.832 128.668 138.336 128.668C138.844 128.668 139.293 128.75 139.684 128.914C140.078 129.078 140.383 129.309 140.598 129.605C140.816 129.902 140.926 130.246 140.926 130.637C140.926 130.973 140.842 131.275 140.674 131.545C140.51 131.811 140.275 132.029 139.971 132.201C139.67 132.373 139.316 132.486 138.91 132.541V133.555C139.941 133.512 140.902 133.434 141.793 133.32L141.875 134.152C140.84 134.324 139.773 134.436 138.676 134.486C137.578 134.537 136.379 134.562 135.078 134.562L134.926 133.637ZM141.559 128.141H135.148V127.25H137.809V126.02H138.922V127.25H141.559V128.141ZM138.336 129.535C138.043 129.535 137.783 129.582 137.557 129.676C137.33 129.766 137.154 129.895 137.029 130.062C136.904 130.227 136.844 130.418 136.848 130.637C136.844 130.855 136.904 131.047 137.029 131.211C137.154 131.371 137.33 131.496 137.557 131.586C137.783 131.672 138.043 131.715 138.336 131.715C138.637 131.715 138.902 131.672 139.133 131.586C139.363 131.496 139.541 131.371 139.666 131.211C139.795 131.047 139.859 130.855 139.859 130.637C139.859 130.418 139.795 130.227 139.666 130.062C139.537 129.895 139.357 129.766 139.127 129.676C138.896 129.582 138.633 129.535 138.336 129.535ZM148.836 129.371C148.836 129.91 148.939 130.447 149.146 130.982C149.357 131.514 149.656 131.996 150.043 132.43C150.43 132.863 150.879 133.203 151.391 133.449L150.758 134.293C150.199 134.027 149.707 133.639 149.281 133.127C148.859 132.615 148.535 132.031 148.309 131.375C148.074 132.082 147.732 132.709 147.283 133.256C146.838 133.799 146.32 134.207 145.73 134.48L145.109 133.625C145.629 133.387 146.088 133.045 146.486 132.6C146.889 132.15 147.199 131.645 147.418 131.082C147.637 130.52 147.746 129.949 147.746 129.371V128.68H145.426V127.789H147.734V126.207H148.859V127.789H151.145V128.68H148.836V129.371ZM153.418 130.227H155.105V131.164H153.418V136.496H152.305V125.996H153.418V130.227Z" fill="#008236"/>
<g clip-path="url(#clip0_5014_1435)">
<path d="M107 7H97L102 2L107 7Z" fill="white"/>
</g>
</g>
<defs>
<filter id="filter0_dd_5014_1435" x="0" y="0" width="203" height="185" filterUnits="userSpaceOnUse" color-interpolation-filters="sRGB">
<feFlood flood-opacity="0" result="BackgroundImageFix"/>
<feColorMatrix in="SourceAlpha" type="matrix" values="0 0 0 0 0 0 0 0 0 0 0 0 0 0 0 0 0 0 127 0" result="hardAlpha"/>
<feMorphology radius="4" operator="erode" in="SourceAlpha" result="effect1_dropShadow_5014_1435"/>
<feOffset dy="4"/>
<feGaussianBlur stdDeviation="3"/>
<feComposite in2="hardAlpha" operator="out"/>
<feColorMatrix type="matrix" values="0 0 0 0 0 0 0 0 0 0 0 0 0 0 0 0 0 0 0.1 0"/>
<feBlend mode="normal" in2="BackgroundImageFix" result="effect1_dropShadow_5014_1435"/>
<feColorMatrix in="SourceAlpha" type="matrix" values="0 0 0 0 0 0 0 0 0 0 0 0 0 0 0 0 0 0 127 0" result="hardAlpha"/>
<feMorphology radius="3" operator="erode" in="SourceAlpha" result="effect2_dropShadow_5014_1435"/>
<feOffset dy="10"/>
<feGaussianBlur stdDeviation="7.5"/>
<feComposite in2="hardAlpha" operator="out"/>
<feColorMatrix type="matrix" values="0 0 0 0 0 0 0 0 0 0 0 0 0 0 0 0 0 0 0.1 0"/>
<feBlend mode="normal" in2="effect1_dropShadow_5014_1435" result="effect2_dropShadow_5014_1435"/>
<feBlend mode="normal" in="SourceGraphic" in2="effect2_dropShadow_5014_1435" result="shape"/>
</filter>
<clipPath id="clip0_5014_1435">
<rect width="10" height="5" fill="white" transform="matrix(-1 0 0 -1 107 7)"/>
</clipPath>
</defs>
</svg>
