<svg width="417" height="854" viewBox="0 0 417 854" fill="none" xmlns="http://www.w3.org/2000/svg">
<rect width="393" height="852" transform="translate(12)" fill="white"/>
<rect x="10.6172" width="393" height="119" fill="white"/>
<rect width="393" height="66.3895" transform="translate(10.6172)" fill="white"/>
<path d="M49.5698 38V28.1304H49.4204L46.4404 30.2305V28.2217L49.5698 26.022H51.7031V38H49.5698ZM59.5059 38.2407C58.5872 38.2407 57.7765 38.0941 57.0737 37.8008C56.3709 37.502 55.8203 37.0924 55.4219 36.5723C55.029 36.0465 54.8325 35.4434 54.8325 34.7627V34.7461C54.8325 34.2314 54.946 33.7666 55.1729 33.3516C55.4053 32.931 55.7262 32.5768 56.1357 32.2891C56.5452 32.0013 57.0156 31.8049 57.5469 31.6997V31.6499C56.8607 31.4673 56.3073 31.1408 55.8867 30.6704C55.4717 30.1945 55.2642 29.6356 55.2642 28.9937V28.9771C55.2642 28.3628 55.444 27.8149 55.8037 27.3335C56.1689 26.8521 56.6698 26.473 57.3062 26.1963C57.9481 25.9196 58.6813 25.7812 59.5059 25.7812C60.3304 25.7812 61.0609 25.9196 61.6973 26.1963C62.3392 26.473 62.84 26.8521 63.1997 27.3335C63.5594 27.8149 63.7393 28.3628 63.7393 28.9771V28.9937C63.7393 29.6356 63.5317 30.1945 63.1167 30.6704C62.7017 31.1408 62.151 31.4673 61.4648 31.6499V31.6997C61.9961 31.8049 62.4665 32.0013 62.876 32.2891C63.2855 32.5768 63.6037 32.931 63.8306 33.3516C64.063 33.7666 64.1792 34.2314 64.1792 34.7461V34.7627C64.1792 35.4434 63.98 36.0465 63.5815 36.5723C63.1886 37.0924 62.6408 37.502 61.938 37.8008C61.2352 38.0941 60.4245 38.2407 59.5059 38.2407ZM59.5059 36.6055C59.9873 36.6055 60.4106 36.5225 60.7759 36.3564C61.1466 36.1849 61.4372 35.9497 61.6475 35.6509C61.8577 35.3465 61.9629 35.0034 61.9629 34.6216V34.605C61.9629 34.2176 61.8577 33.8745 61.6475 33.5757C61.4427 33.2713 61.1549 33.0334 60.7842 32.8618C60.4134 32.6903 59.9873 32.6045 59.5059 32.6045C59.0189 32.6045 58.59 32.6903 58.2192 32.8618C57.854 33.0334 57.5662 33.2713 57.356 33.5757C57.1457 33.8745 57.0405 34.2176 57.0405 34.605V34.6216C57.0405 35.0034 57.1457 35.3465 57.356 35.6509C57.5718 35.9497 57.8623 36.1849 58.2275 36.3564C58.5983 36.5225 59.0244 36.6055 59.5059 36.6055ZM59.5059 30.9692C59.9264 30.9692 60.2944 30.8945 60.6099 30.7451C60.9308 30.5902 61.1799 30.3799 61.3569 30.1143C61.5396 29.8486 61.6309 29.5387 61.6309 29.1846V29.168C61.6309 28.8193 61.5396 28.5122 61.3569 28.2466C61.1799 27.981 60.9308 27.7734 60.6099 27.624C60.2889 27.4746 59.9209 27.3999 59.5059 27.3999C59.0853 27.3999 58.7145 27.4746 58.3936 27.624C58.0781 27.7734 57.8291 27.981 57.6465 28.2466C57.4694 28.5122 57.3809 28.8193 57.3809 29.168V29.1846C57.3809 29.5387 57.4694 29.8486 57.6465 30.1143C57.8291 30.3799 58.0781 30.5902 58.3936 30.7451C58.7145 30.8945 59.0853 30.9692 59.5059 30.9692ZM68.0308 36.3896C67.6545 36.3896 67.339 36.2651 67.0845 36.0161C66.8354 35.7616 66.7109 35.4517 66.7109 35.0864C66.7109 34.7157 66.8354 34.4058 67.0845 34.1567C67.339 33.9022 67.6545 33.7749 68.0308 33.7749C68.4126 33.7749 68.728 33.9022 68.9771 34.1567C69.2261 34.4058 69.3506 34.7157 69.3506 35.0864C69.3506 35.4517 69.2261 35.7616 68.9771 36.0161C68.728 36.2651 68.4126 36.3896 68.0308 36.3896ZM68.0308 30.2305C67.6545 30.2305 67.339 30.106 67.0845 29.8569C66.8354 29.6024 66.7109 29.2925 66.7109 28.9272C66.7109 28.5565 66.8354 28.2466 67.0845 27.9976C67.339 27.743 67.6545 27.6157 68.0308 27.6157C68.4126 27.6157 68.728 27.743 68.9771 27.9976C69.2261 28.2466 69.3506 28.5565 69.3506 28.9272C69.3506 29.2925 69.2261 29.6024 68.9771 29.8569C68.728 30.106 68.4126 30.2305 68.0308 30.2305ZM76.3896 38.2988C75.4378 38.2988 74.6216 38.0443 73.9409 37.5352C73.2658 37.026 72.7456 36.3011 72.3804 35.3604C72.0151 34.4196 71.8325 33.3045 71.8325 32.0151V31.9985C71.8325 30.7091 72.0151 29.5968 72.3804 28.6616C72.7456 27.7209 73.2658 26.9959 73.9409 26.4868C74.6216 25.9777 75.4378 25.7231 76.3896 25.7231C77.3415 25.7231 78.1577 25.9777 78.8384 26.4868C79.519 26.9959 80.042 27.7209 80.4072 28.6616C80.7725 29.5968 80.9551 30.7091 80.9551 31.9985V32.0151C80.9551 33.3045 80.7725 34.4196 80.4072 35.3604C80.042 36.3011 79.519 37.026 78.8384 37.5352C78.1577 38.0443 77.3415 38.2988 76.3896 38.2988ZM76.3896 36.564C76.8988 36.564 77.3332 36.3813 77.6929 36.0161C78.0526 35.6509 78.3265 35.1307 78.5146 34.4556C78.7083 33.7749 78.8052 32.9614 78.8052 32.0151V31.9985C78.8052 31.0522 78.7083 30.2415 78.5146 29.5664C78.3265 28.8857 78.0526 28.3656 77.6929 28.0059C77.3332 27.6406 76.8988 27.458 76.3896 27.458C75.8805 27.458 75.4461 27.6406 75.0864 28.0059C74.7323 28.3656 74.4583 28.8857 74.2646 29.5664C74.0765 30.2415 73.9824 31.0522 73.9824 31.9985V32.0151C73.9824 32.9614 74.0765 33.7749 74.2646 34.4556C74.4583 35.1307 74.7323 35.6509 75.0864 36.0161C75.4461 36.3813 75.8805 36.564 76.3896 36.564ZM87.6953 38.2988C86.7435 38.2988 85.9272 38.0443 85.2466 37.5352C84.5715 37.026 84.0513 36.3011 83.686 35.3604C83.3208 34.4196 83.1382 33.3045 83.1382 32.0151V31.9985C83.1382 30.7091 83.3208 29.5968 83.686 28.6616C84.0513 27.7209 84.5715 26.9959 85.2466 26.4868C85.9272 25.9777 86.7435 25.7231 87.6953 25.7231C88.6471 25.7231 89.4634 25.9777 90.144 26.4868C90.8247 26.9959 91.3477 27.7209 91.7129 28.6616C92.0781 29.5968 92.2607 30.7091 92.2607 31.9985V32.0151C92.2607 33.3045 92.0781 34.4196 91.7129 35.3604C91.3477 36.3011 90.8247 37.026 90.144 37.5352C89.4634 38.0443 88.6471 38.2988 87.6953 38.2988ZM87.6953 36.564C88.2044 36.564 88.6388 36.3813 88.9985 36.0161C89.3582 35.6509 89.6322 35.1307 89.8203 34.4556C90.014 33.7749 90.1108 32.9614 90.1108 32.0151V31.9985C90.1108 31.0522 90.014 30.2415 89.8203 29.5664C89.6322 28.8857 89.3582 28.3656 88.9985 28.0059C88.6388 27.6406 88.2044 27.458 87.6953 27.458C87.1862 27.458 86.7518 27.6406 86.3921 28.0059C86.0379 28.3656 85.764 28.8857 85.5703 29.5664C85.3822 30.2415 85.2881 31.0522 85.2881 31.9985V32.0151C85.2881 32.9614 85.3822 33.7749 85.5703 34.4556C85.764 35.1307 86.0379 35.6509 86.3921 36.0161C86.7518 36.3813 87.1862 36.564 87.6953 36.564Z" fill="black"/>
<path fill-rule="evenodd" clip-rule="evenodd" d="M325.231 27.0329C325.231 26.3999 324.754 25.8867 324.165 25.8867H323.098C322.509 25.8867 322.031 26.3999 322.031 27.0329V36.9669C322.031 37.5999 322.509 38.1131 323.098 38.1131H324.165C324.754 38.1131 325.231 37.5999 325.231 36.9669V27.0329ZM317.797 28.332H318.864C319.453 28.332 319.93 28.8575 319.93 29.5057V36.9394C319.93 37.5876 319.453 38.1131 318.864 38.1131H317.797C317.208 38.1131 316.73 37.5876 316.73 36.9394V29.5057C316.73 28.8575 317.208 28.332 317.797 28.332ZM313.465 30.981H312.399C311.81 30.981 311.332 31.5132 311.332 32.1697V36.9244C311.332 37.5809 311.81 38.1131 312.399 38.1131H313.465C314.054 38.1131 314.532 37.5809 314.532 36.9244V32.1697C314.532 31.5132 314.054 30.981 313.465 30.981ZM308.165 33.4263H307.098C306.509 33.4263 306.031 33.9509 306.031 34.598V36.9414C306.031 37.5885 306.509 38.1131 307.098 38.1131H308.165C308.754 38.1131 309.231 37.5885 309.231 36.9414V34.598C309.231 33.9509 308.754 33.4263 308.165 33.4263Z" fill="black"/>
<path fill-rule="evenodd" clip-rule="evenodd" d="M340.802 28.3022C343.289 28.3023 345.681 29.2244 347.483 30.8779C347.619 31.0055 347.836 31.0039 347.97 30.8743L349.267 29.6108C349.335 29.545 349.373 29.456 349.372 29.3633C349.372 29.2706 349.333 29.182 349.264 29.117C344.533 24.7423 337.07 24.7423 332.339 29.117C332.27 29.1819 332.231 29.2705 332.23 29.3632C332.23 29.4559 332.268 29.545 332.335 29.6108L333.633 30.8743C333.767 31.0041 333.984 31.0057 334.119 30.8779C335.922 29.2243 338.314 28.3022 340.802 28.3022ZM340.798 32.5225C342.156 32.5224 343.465 33.0342 344.471 33.9583C344.607 34.0894 344.821 34.0866 344.954 33.9519L346.241 32.6326C346.309 32.5634 346.347 32.4695 346.346 32.3719C346.345 32.2744 346.305 32.1813 346.236 32.1135C343.172 29.2227 338.427 29.2227 335.364 32.1135C335.294 32.1813 335.255 32.2744 335.254 32.372C335.253 32.4696 335.291 32.5635 335.359 32.6326L336.646 33.9519C336.778 34.0866 336.993 34.0894 337.129 33.9583C338.134 33.0348 339.442 32.5231 340.798 32.5225ZM343.323 35.316C343.325 35.4214 343.288 35.523 343.22 35.5968L341.044 38.0515C340.98 38.1236 340.893 38.1642 340.802 38.1642C340.711 38.1642 340.624 38.1236 340.561 38.0515L338.384 35.5968C338.316 35.5229 338.279 35.4213 338.281 35.316C338.283 35.2106 338.324 35.1108 338.394 35.0402C339.784 33.7263 341.82 33.7263 343.21 35.0402C343.28 35.1109 343.321 35.2107 343.323 35.316Z" fill="black"/>
<rect opacity="0.35" x="356.875" y="26" width="24" height="12" rx="3.8" stroke="black"/>
<path opacity="0.4" d="M382.375 30.2812V34.3567C383.18 34.0116 383.703 33.2086 383.703 32.319C383.703 31.4294 383.18 30.6264 382.375 30.2812Z" fill="black"/>
<rect x="358.375" y="27.5" width="21" height="9" rx="2.5" fill="black"/>
<path d="M89.3691 82.832C90.5762 82.832 91.6045 82.9375 92.4541 83.1484C93.3096 83.3594 93.9629 83.6699 94.4141 84.0801C94.8652 84.4844 95.0938 84.9766 95.0996 85.5566C95.0938 86.3594 94.6777 86.9922 93.8516 87.4551C93.0254 87.918 91.8477 88.1904 90.3184 88.2725V89.2832H96.6289V90.8477H82.1445V89.2832H88.3848V88.2725C86.8613 88.1846 85.6895 87.9092 84.8691 87.4463C84.0488 86.9834 83.6387 86.3535 83.6387 85.5566C83.6387 84.9766 83.8643 84.4844 84.3154 84.0801C84.7666 83.6699 85.4199 83.3594 86.2754 83.1484C87.1309 82.9375 88.1621 82.832 89.3691 82.832ZM89.3691 84.291C88.1562 84.291 87.2363 84.3994 86.6094 84.6162C85.9883 84.8271 85.6836 85.1406 85.6953 85.5566C85.6895 85.9902 85.9912 86.3125 86.6006 86.5234C87.2158 86.7344 88.1387 86.8457 89.3691 86.8574C90.6113 86.8457 91.54 86.7344 92.1553 86.5234C92.7705 86.3125 93.0781 85.9902 93.0781 85.5566C93.0781 85.1406 92.7646 84.8271 92.1377 84.6162C91.5166 84.3994 90.5938 84.291 89.3691 84.291ZM94.8184 95.752H85.7832V96.9297H95.2578V98.4238H83.8672V94.3633H92.9023V93.3438H83.8496V91.8672H94.8184V95.752ZM110.146 88.7207H112.59V90.373H110.146V98.5645H108.195V82.6738H110.146V88.7207ZM100.197 87.9473H103.941V83.9746H105.893V94.8379H98.2637V83.9746H100.197V87.9473ZM103.941 93.2383V89.4766H100.197V93.2383H103.941ZM127.76 92.9043H113.24V91.3398H127.76V92.9043ZM126.318 98.248H115.104V93.9062H117.072V96.666H126.318V98.248ZM125.967 87.332H117.02V88.6855H126.283V90.1621H115.086V85.9258H124.016V84.625H115.033V83.0957H125.967V87.332ZM145.619 87.1387H147.852V88.7559H145.619V94.1699H143.668V82.6738H145.619V87.1387ZM140.873 85.5566H135.688V89.8809H136.021C137.451 89.8809 138.62 89.8457 139.528 89.7754C140.442 89.7051 141.342 89.5762 142.227 89.3887L142.438 90.9707C141.424 91.1699 140.381 91.3047 139.309 91.375C138.236 91.4453 136.812 91.4805 135.037 91.4805H133.754V83.9922H140.873V85.5566ZM146.252 98.248H135.441V92.957H137.393V96.666H146.252V98.248ZM152.984 83.834C153.699 83.834 154.344 84.0244 154.918 84.4053C155.492 84.7861 155.961 85.3311 156.324 86.04C156.688 86.7432 156.913 87.5723 157.001 88.5273H160.033V82.6738H161.967V98.582H160.033V90.1094H157.027C156.957 91.1172 156.743 91.9961 156.386 92.7461C156.028 93.4902 155.557 94.0645 154.971 94.4688C154.385 94.8672 153.723 95.0664 152.984 95.0664C152.188 95.0664 151.481 94.8379 150.866 94.3809C150.251 93.9238 149.771 93.2705 149.425 92.4209C149.079 91.5713 148.906 90.5781 148.906 89.4414C148.906 88.3164 149.079 87.332 149.425 86.4883C149.771 85.6387 150.251 84.9854 150.866 84.5283C151.487 84.0654 152.193 83.834 152.984 83.834ZM152.984 85.5918C152.545 85.5918 152.158 85.7471 151.824 86.0576C151.49 86.3623 151.232 86.8047 151.051 87.3848C150.869 87.959 150.781 88.6445 150.787 89.4414C150.781 90.2441 150.869 90.9355 151.051 91.5156C151.232 92.0957 151.49 92.541 151.824 92.8516C152.158 93.1562 152.545 93.3086 152.984 93.3086C153.424 93.3086 153.808 93.1562 154.136 92.8516C154.47 92.541 154.728 92.0957 154.909 91.5156C155.097 90.9355 155.193 90.2441 155.199 89.4414C155.193 88.6445 155.097 87.9561 154.909 87.376C154.728 86.7959 154.47 86.3535 154.136 86.0488C153.808 85.7441 153.424 85.5918 152.984 85.5918ZM173.322 87.5078C173.322 88.3457 173.439 89.1572 173.674 89.9424C173.908 90.7275 174.269 91.4395 174.755 92.0781C175.247 92.7168 175.854 93.2266 176.574 93.6074L175.467 95.0488C174.746 94.6738 174.131 94.1582 173.621 93.502C173.117 92.8457 172.716 92.084 172.417 91.2168C172.13 92.1484 171.729 92.9775 171.213 93.7041C170.703 94.4248 170.088 94.9902 169.367 95.4004L168.242 93.959C168.957 93.543 169.555 92.9922 170.035 92.3066C170.521 91.6211 170.882 90.8652 171.116 90.0391C171.356 89.2129 171.477 88.3691 171.477 87.5078V87.0684H168.699V85.4688H171.477V83.2363H173.322V85.4688H176.064V87.0684H173.322V87.5078ZM182.252 98.5645H180.389V90.5137H178.754V97.791H176.908V82.9551H178.754V88.8965H180.389V82.6738H182.252V98.5645ZM197.439 98.5469H195.453V94.9082H192.078V93.4316H195.453V82.6914H197.439V98.5469ZM183.957 90.8477C186.031 90.8477 187.903 90.8184 189.573 90.7598C191.243 90.7012 192.84 90.5664 194.363 90.3555L194.486 91.7969C193.203 92.0195 191.727 92.1865 190.057 92.2979V98.0723H188.088V92.3945C186.975 92.4297 185.68 92.4473 184.203 92.4473L183.957 90.8477ZM189.178 83.377C189.951 83.377 190.643 83.5146 191.252 83.79C191.867 84.0596 192.348 84.4404 192.693 84.9326C193.045 85.4189 193.221 85.9727 193.221 86.5938C193.221 87.2266 193.048 87.7861 192.702 88.2725C192.356 88.7529 191.876 89.1279 191.261 89.3975C190.646 89.6611 189.951 89.793 189.178 89.793C188.387 89.793 187.681 89.6611 187.06 89.3975C186.444 89.1338 185.964 88.7588 185.618 88.2725C185.272 87.7861 185.1 87.2266 185.1 86.5938C185.1 85.9668 185.272 85.4102 185.618 84.9238C185.964 84.4375 186.444 84.0596 187.06 83.79C187.681 83.5146 188.387 83.377 189.178 83.377ZM189.178 84.8711C188.738 84.8711 188.349 84.9443 188.009 85.0908C187.669 85.2314 187.405 85.4336 187.218 85.6973C187.036 85.9551 186.945 86.2539 186.945 86.5938C186.945 87.1211 187.147 87.5371 187.552 87.8418C187.962 88.1465 188.504 88.2988 189.178 88.2988C189.6 88.2988 189.975 88.2314 190.303 88.0967C190.637 87.9619 190.895 87.7656 191.076 87.5078C191.264 87.25 191.357 86.9453 191.357 86.5938C191.357 86.2539 191.264 85.9551 191.076 85.6973C190.889 85.4336 190.631 85.2314 190.303 85.0908C189.975 84.9443 189.6 84.8711 189.178 84.8711ZM202.449 88.2461C203.58 88.2344 204.661 88.1846 205.692 88.0967C206.729 88.0029 207.775 87.8594 208.83 87.666L209.059 89.248C207.852 89.4824 206.662 89.6465 205.49 89.7402C204.318 89.834 203.082 89.8809 201.781 89.8809H200.463V83.4473H202.449V88.2461ZM212.891 91.0059H210.939V86.3828H206.721V84.8184H210.939V82.6738H212.891V91.0059ZM213.207 93.3086H201.764V91.7969H206.51V90.3906H208.461V91.7969H213.207V93.3086ZM207.477 93.8184C208.414 93.8242 209.223 93.9209 209.902 94.1084C210.582 94.29 211.104 94.5566 211.467 94.9082C211.836 95.2598 212.023 95.6816 212.029 96.1738C212.023 96.6777 211.836 97.1055 211.467 97.457C211.104 97.8145 210.582 98.084 209.902 98.2656C209.223 98.4531 208.414 98.5469 207.477 98.5469C206.551 98.5469 205.745 98.4531 205.06 98.2656C204.38 98.084 203.855 97.8145 203.486 97.457C203.123 97.1055 202.941 96.6777 202.941 96.1738C202.941 95.6816 203.123 95.2598 203.486 94.9082C203.855 94.5566 204.38 94.29 205.06 94.1084C205.745 93.9209 206.551 93.8242 207.477 93.8184ZM207.477 95.2422C206.65 95.2305 206.009 95.3066 205.552 95.4707C205.101 95.6348 204.875 95.8691 204.875 96.1738C204.875 96.4961 205.101 96.7422 205.552 96.9121C206.003 97.0762 206.645 97.1582 207.477 97.1582C208.309 97.1582 208.947 97.0762 209.393 96.9121C209.838 96.7422 210.061 96.4961 210.061 96.1738C210.061 95.8691 209.835 95.6348 209.384 95.4707C208.938 95.3066 208.303 95.2305 207.477 95.2422ZM228.412 98.5645H226.443V82.6738H228.412V98.5645ZM223.666 84.3613C223.666 86.8867 223.095 89.1045 221.952 91.0146C220.81 92.9189 218.914 94.498 216.266 95.752L215.246 94.1875C217.291 93.2148 218.829 92.0518 219.86 90.6982C220.897 89.3389 221.504 87.7422 221.68 85.9082H216.055V84.3613H223.666Z" fill="#1E1E1E"/>
<g filter="url(#filter0_i_4299_1072)">
<rect x="43.6172" y="142" width="326" height="18" rx="9" fill="#E3E7EA"/>
</g>
<rect x="39.6172" y="138" width="334" height="26" rx="13" stroke="#F0F5FA" stroke-width="8"/>
<g filter="url(#filter1_i_4299_1072)">
<rect x="43.6172" y="142" width="128" height="18" rx="9" fill="#3C86FF"/>
</g>
<path d="M192.214 154.286V152.966L196.188 146.809H198.244V152.928H199.45V154.286H198.244V156H196.67V154.286H192.214ZM193.902 152.928H196.695V148.688H196.594L193.902 152.864V152.928ZM204.109 156.127C202.059 156.127 200.612 155.035 200.618 153.537C200.612 152.369 201.481 151.417 202.586 151.239V151.188C201.621 150.985 200.967 150.147 200.961 149.145C200.967 147.723 202.294 146.682 204.109 146.682C205.912 146.682 207.245 147.723 207.245 149.145C207.245 150.154 206.572 150.985 205.62 151.188V151.239C206.718 151.417 207.594 152.369 207.601 153.537C207.594 155.035 206.141 156.127 204.109 156.127ZM202.319 153.385C202.313 154.235 203.018 154.819 204.109 154.819C205.188 154.819 205.893 154.235 205.899 153.385C205.893 152.521 205.144 151.88 204.109 151.887C203.075 151.88 202.313 152.515 202.319 153.385ZM202.573 149.297C202.58 150.103 203.214 150.655 204.109 150.655C204.992 150.655 205.633 150.103 205.633 149.297C205.633 148.516 205.011 147.977 204.109 147.977C203.189 147.977 202.58 148.516 202.573 149.297ZM211.231 151.29C209.924 151.296 209.207 150.325 209.213 148.916C209.207 147.52 209.956 146.555 211.231 146.555C212.558 146.555 213.256 147.52 213.263 148.916C213.256 150.338 212.533 151.296 211.231 151.29ZM210.381 148.916C210.387 149.741 210.673 150.274 211.231 150.274C211.809 150.274 212.082 149.741 212.082 148.916C212.082 148.116 211.828 147.564 211.231 147.57C210.673 147.57 210.387 148.123 210.381 148.916ZM210.394 156L216.716 146.809H217.998L211.676 156H210.394ZM215.218 153.88C215.211 152.477 215.96 151.506 217.236 151.506C218.557 151.506 219.261 152.477 219.268 153.88C219.261 155.289 218.538 156.248 217.236 156.241C215.929 156.248 215.211 155.276 215.218 153.88ZM216.386 153.88C216.392 154.692 216.678 155.232 217.236 155.226C217.814 155.232 218.087 154.692 218.087 153.88C218.087 153.067 217.833 152.515 217.236 152.521C216.678 152.528 216.392 153.074 216.386 153.88Z" fill="#9E9FA7"/>
<path d="M56.1172 81.5L47.6172 90L56.1172 98.5" stroke="#A0AEB9" stroke-width="2"/>
<mask id="path-14-inside-1_4299_1072" fill="white">
<path d="M32 216C32 202.745 42.7452 192 56 192H361C374.255 192 385 202.745 385 216V361C385 374.255 374.255 385 361 385H56C42.7452 385 32 374.255 32 361V216Z"/>
</mask>
<path d="M32 216C32 202.745 42.7452 192 56 192H361C374.255 192 385 202.745 385 216V361C385 374.255 374.255 385 361 385H56C42.7452 385 32 374.255 32 361V216Z" fill="url(#paint0_linear_4299_1072)"/>
<path d="M56 192V193H361V192V191H56V192ZM385 216H384V361H385H386V216H385ZM361 385V384H56V385V386H361V385ZM32 361H33V216H32H31V361H32ZM56 385V384C43.2975 384 33 373.703 33 361H32H31C31 374.807 42.1929 386 56 386V385ZM385 361H384C384 373.703 373.703 384 361 384V385V386C374.807 386 386 374.807 386 361H385ZM361 192V193C373.703 193 384 203.297 384 216H385H386C386 202.193 374.807 191 361 191V192ZM56 192V191C42.1929 191 31 202.193 31 216H32H33C33 203.297 43.2975 193 56 193V192Z" fill="#3C86FF" fill-opacity="0.1" mask="url(#path-14-inside-1_4299_1072)"/>
<path d="M66.5312 233.328V236.875H68.5469V238.094H66.5312V241.594H65.0312V233.328H66.5312ZM62 241.859C64.8594 241.859 66.6406 242.859 66.6406 244.578C66.6406 246.297 64.8594 247.312 62 247.297C59.1094 247.312 57.2969 246.297 57.2969 244.578C57.2969 242.859 59.1094 241.859 62 241.859ZM62 243.062C59.9688 243.047 58.75 243.609 58.7656 244.578C58.75 245.547 59.9688 246.109 62 246.109C63.9844 246.109 65.2031 245.547 65.2188 244.578C65.2031 243.609 63.9844 243.047 62 243.062ZM62.3594 234.359V235.562H57.5781V239.375C60.3359 239.367 61.8906 239.281 63.6562 238.922L63.7969 240.125C61.9219 240.516 60.25 240.578 57.2188 240.578H56.1094V234.359H62.3594ZM80.6531 233.344V243.594H79.1687V233.344H80.6531ZM81.075 245.828V247.031H71.4969V242.625H72.9969V245.828H81.075ZM74.1375 235.5C74.1219 237.547 75.4344 239.422 77.5906 240.172L76.825 241.359C75.2078 240.758 74.0125 239.57 73.3875 238.047C72.7703 239.672 71.5594 240.977 69.9187 241.609L69.1219 240.438C71.325 239.625 72.6219 237.609 72.6219 235.5V234.109H74.1375V235.5ZM95.3375 240.641V241.828H82.5719V240.641H95.3375ZM93.9 245.828V247.031H84.1812V242.969H85.6812V245.828H93.9ZM88.9469 233.797C91.9781 233.781 93.9469 234.844 93.9469 236.594C93.9469 238.359 91.9781 239.422 88.9469 239.438C85.9 239.422 83.9469 238.359 83.9469 236.594C83.9469 234.844 85.9 233.781 88.9469 233.797ZM88.9469 234.984C86.8062 234.984 85.4625 235.594 85.4781 236.594C85.4625 237.625 86.8062 238.219 88.9469 238.219C91.0875 238.219 92.4156 237.625 92.4156 236.594C92.4156 235.594 91.0875 234.984 88.9469 234.984ZM104.8 235.094C104.784 236.938 106.144 238.641 108.284 239.312L107.566 240.469C105.917 239.938 104.691 238.836 104.05 237.422C103.417 238.945 102.167 240.156 100.487 240.719L99.7531 239.547C101.941 238.828 103.284 237.016 103.284 235.094V233.781H104.8V235.094ZM111.316 233.328V240.844H109.831V233.328H111.316ZM103.612 241.516V243.094H109.847V241.516H111.316V247.156H102.159V241.516H103.612ZM103.612 245.938H109.847V244.266H103.612V245.938ZM125.25 233.328V247.328H123.828V240.094H122.016V246.609H120.656V233.609H122.016V238.875H123.828V233.328H125.25ZM118.953 235.016V236.219H115.188V242.703C116.906 242.688 118.203 242.609 119.703 242.328L119.812 243.547C118.125 243.891 116.688 243.953 114.641 243.969H113.703V235.016H118.953ZM139.575 244.406V245.656H126.762V244.406H132.403V241.953H128.325V237.5H136.544V235.531H128.294V234.312H138.012V238.688H129.794V240.734H138.341V241.953H133.872V244.406H139.575ZM145.338 236.891C145.338 239.453 146.775 242 148.916 242.969L148.009 244.156C146.416 243.359 145.22 241.773 144.603 239.859C143.986 241.875 142.759 243.578 141.15 244.422L140.213 243.219C142.384 242.188 143.838 239.484 143.838 236.891V234.5H145.338V236.891ZM151.963 233.328V247.359H150.494V239.188H147.369V237.984H150.494V233.328H151.963ZM167.191 234.688V246H165.613L159.878 237.734H159.784V246H158.066V234.688H159.659L165.394 242.969H165.503V234.688H167.191ZM176.844 238.266C176.422 236.922 175.406 236.109 173.906 236.109C172 236.109 170.531 237.609 170.531 240.344C170.531 243.078 171.984 244.578 173.984 244.578C175.789 244.578 176.984 243.438 177.016 241.625H174.234V240.203H178.688V241.484C178.688 244.344 176.719 246.156 173.969 246.156C170.906 246.156 168.828 243.922 168.828 240.344C168.828 236.734 170.969 234.531 173.891 234.531C176.344 234.531 178.219 236.062 178.609 238.266H176.844ZM190.2 240.344C190.2 243.953 188.028 246.156 185.106 246.156C182.153 246.156 179.997 243.953 179.997 240.344C179.997 236.719 182.153 234.531 185.106 234.531C188.028 234.531 190.2 236.719 190.2 240.344ZM188.497 240.344C188.497 237.594 187.044 236.109 185.106 236.109C183.153 236.109 181.7 237.594 181.7 240.344C181.7 243.094 183.153 244.578 185.106 244.578C187.044 244.578 188.497 243.094 188.497 240.344ZM195.4 234.219C197.556 234.219 199.166 235.578 199.166 237.547C199.166 239.281 197.916 240.539 196.15 240.812V243.031C197.392 242.977 198.634 242.883 199.791 242.734L199.9 243.844C196.947 244.359 193.681 244.375 191.259 244.359L191.025 243.141C192.111 243.133 193.361 243.125 194.666 243.094V240.812C192.853 240.555 191.619 239.289 191.634 237.547C191.619 235.578 193.197 234.219 195.4 234.219ZM195.4 235.469C194.056 235.484 193.072 236.297 193.072 237.547C193.072 238.797 194.056 239.625 195.4 239.609C196.728 239.625 197.697 238.797 197.712 237.547C197.697 236.297 196.728 235.484 195.4 235.469ZM202.119 233.328V239.016H204.275V240.266H202.119V247.328H200.634V233.328H202.119ZM219.331 233.328V236.953H221.363V238.219H219.331V241.766H217.847V233.328H219.331ZM219.331 242.5V247.156H210.394V242.5H219.331ZM211.847 243.672V245.953H217.863V243.672H211.847ZM216.691 234.75V235.938H208.347V234.75H211.784V233.219H213.269V234.75H216.691ZM212.519 236.547C214.534 236.547 215.909 237.547 215.909 239.047C215.909 240.562 214.534 241.547 212.519 241.562C210.472 241.547 209.113 240.562 209.113 239.047C209.113 237.547 210.472 236.547 212.519 236.547ZM212.519 237.688C211.331 237.672 210.534 238.203 210.55 239.047C210.534 239.922 211.331 240.438 212.519 240.438C213.706 240.438 214.503 239.922 214.519 239.047C214.503 238.203 213.706 237.672 212.519 237.688ZM225.328 234.984C225.312 238.125 224.922 241.359 222.969 244.109L221.812 243.453C223.445 241.266 223.938 238.844 224.047 236.203H222.141V234.984H225.328ZM228.438 234.984C228.438 236.164 228.414 237.453 228.266 238.75H229.906V233.688H231.312V246.641H229.906V239.953H228.094C227.773 241.695 227.188 243.422 226.109 244.953L224.953 244.281C226.766 241.852 227.094 238.906 227.156 236.203H225.75V234.984H228.438ZM233.969 233.328V247.328H232.547V233.328H233.969ZM242.962 233.797C245.072 233.812 246.619 235.109 246.634 236.938C246.619 238.781 245.072 240.062 242.962 240.062C240.837 240.062 239.275 238.781 239.275 236.938C239.275 235.109 240.837 233.812 242.962 233.797ZM242.962 235.047C241.666 235.031 240.712 235.797 240.728 236.938C240.712 238.094 241.666 238.859 242.962 238.859C244.244 238.859 245.197 238.094 245.197 236.938C245.197 235.797 244.244 235.031 242.962 235.047ZM250.603 233.328V240.453H249.119V233.328H250.603ZM250.603 241.094V244.625H242.884V245.969H251.072V247.156H241.447V243.516H249.134V242.281H241.4V241.094H250.603ZM263.522 233.281V236.562H265.569V237.781H263.522V240.984H262.038V233.281H263.522ZM263.522 241.641V244.891H255.959V246.062H264.006V247.188H254.506V243.844H262.053V242.75H254.475V241.641H263.522ZM260.881 234.516V235.688H252.538V234.516H255.975V233.203H257.459V234.516H260.881ZM256.709 236.219C258.756 236.219 260.1 237.094 260.1 238.516C260.1 239.938 258.756 240.797 256.709 240.797C254.647 240.797 253.303 239.938 253.303 238.516C253.303 237.094 254.647 236.219 256.709 236.219ZM256.709 237.281C255.506 237.281 254.725 237.766 254.741 238.516C254.725 239.266 255.506 239.719 256.709 239.719C257.913 239.719 258.694 239.266 258.709 238.516C258.694 237.766 257.913 237.281 256.709 237.281ZM276.828 234.562C276.812 236.422 279.094 238.172 281.844 238.531L281.266 239.75C278.977 239.383 276.961 238.195 276.062 236.547C275.141 238.203 273.133 239.383 270.859 239.75L270.266 238.531C273.016 238.172 275.266 236.438 275.281 234.562V233.797H276.828V234.562ZM282.422 241.125V242.344H276.734V247.328H275.281V242.344H269.656V241.125H282.422ZM291.65 242.578C291.65 243.781 292.244 245.055 293.509 245.812C294.798 244.992 295.431 243.648 295.431 242.578V241.906H296.884V242.578C296.884 244.031 297.837 245.438 299.666 246.031L298.931 247.125C297.548 246.648 296.611 245.719 296.119 244.562C295.673 245.695 294.837 246.719 293.556 247.25C292.212 246.742 291.361 245.75 290.931 244.609C290.423 245.711 289.502 246.641 288.181 247.125L287.431 246.031C289.228 245.391 290.197 243.938 290.212 242.578V241.906H291.65V242.578ZM298.4 233.344V241.312H296.916V233.344H298.4ZM290.806 234.109C292.947 234.109 294.525 235.469 294.525 237.422C294.525 239.359 292.947 240.703 290.806 240.703C288.666 240.703 287.072 239.359 287.072 237.422C287.072 235.469 288.666 234.109 290.806 234.109ZM290.806 235.375C289.478 235.359 288.525 236.188 288.525 237.422C288.525 238.641 289.478 239.469 290.806 239.469C292.119 239.469 293.072 238.641 293.072 237.422C293.072 236.188 292.119 235.359 290.806 235.375ZM303.366 241.719V243.203H309.944V241.719H311.428V247.156H301.897V241.719H303.366ZM303.366 245.969H309.944V244.359H303.366V245.969ZM313.084 239.609V240.844H300.319V239.609H313.084ZM307.459 234.078C307.459 235.688 309.694 237.25 312.381 237.578L311.85 238.75C309.577 238.43 307.6 237.359 306.709 235.875C305.795 237.367 303.811 238.43 301.569 238.75L301.006 237.578C303.725 237.234 305.944 235.734 305.944 234.078V233.484H307.459V234.078ZM325.472 233.328V247.328H323.987V233.328H325.472ZM316.175 234.688V242.484C318.214 242.469 320.362 242.305 322.612 241.844L322.816 243.094C320.331 243.594 318.081 243.766 315.878 243.766H314.706V234.688H316.175ZM338.281 233.328V238.75H340.531V239.969H338.281V247.359H336.797V233.328H338.281ZM334.516 234.672V235.875H329.453V242.641C331.805 242.633 333.57 242.531 335.562 242.172L335.75 243.422C333.562 243.812 331.703 243.891 329.094 243.875H327.969V234.672H334.516ZM342.497 246.109C341.888 246.109 341.372 245.609 341.388 245C341.372 244.391 341.888 243.891 342.497 243.891C343.091 243.891 343.606 244.391 343.606 245C343.606 245.609 343.091 246.109 342.497 246.109Z" fill="#6B7280"/>
<path d="M58.2031 281.859L61.6797 288.109H61.8164L65.293 281.859H68.1641L63.0273 290.707V296H60.4883V290.707L55.332 281.859H58.2031ZM72.0633 296.215C71.0477 296.215 70.1557 295.987 69.3875 295.531C68.6193 295.076 68.0268 294.438 67.6102 293.617C67.1935 292.79 66.9852 291.833 66.9852 290.746C66.9852 289.652 67.1935 288.692 67.6102 287.865C68.0268 287.038 68.6193 286.397 69.3875 285.941C70.1557 285.486 71.0477 285.258 72.0633 285.258C73.0854 285.258 73.9806 285.486 74.7488 285.941C75.5171 286.397 76.1062 287.038 76.5164 287.865C76.9331 288.692 77.1414 289.652 77.1414 290.746C77.1414 291.833 76.9331 292.79 76.5164 293.617C76.0997 294.444 75.5073 295.085 74.7391 295.541C73.9773 295.99 73.0854 296.215 72.0633 296.215ZM72.0828 294.223C72.6297 294.223 73.0919 294.07 73.4695 293.764C73.8536 293.458 74.1401 293.041 74.3289 292.514C74.5242 291.986 74.6219 291.391 74.6219 290.727C74.6219 290.069 74.5242 289.477 74.3289 288.949C74.1401 288.415 73.8536 287.995 73.4695 287.689C73.0919 287.383 72.6297 287.23 72.0828 287.23C71.5229 287.23 71.0477 287.383 70.657 287.689C70.2729 287.995 69.9832 288.412 69.7879 288.939C69.5991 289.467 69.5047 290.062 69.5047 290.727C69.5047 291.391 69.5991 291.986 69.7879 292.514C69.9832 293.041 70.2729 293.458 70.657 293.764C71.0477 294.07 71.5229 294.223 72.0828 294.223ZM85.5523 285.395H88.0328V296H85.6305V294.125H85.5133C85.2594 294.737 84.8557 295.225 84.3023 295.59C83.7555 295.954 83.0979 296.137 82.3297 296.137C81.6331 296.137 81.0178 295.98 80.484 295.668C79.9501 295.355 79.5335 294.9 79.234 294.301C78.9345 293.702 78.7815 292.986 78.775 292.152V285.395H81.275V291.762C81.275 292.204 81.3564 292.595 81.5191 292.934C81.6884 293.266 81.9228 293.523 82.2223 293.705C82.5283 293.881 82.8831 293.969 83.2867 293.969C83.6643 293.969 84.0257 293.878 84.3707 293.695C84.7223 293.507 85.0055 293.23 85.2203 292.865C85.4417 292.501 85.5523 292.061 85.5523 291.547V285.395ZM99.1906 296.215C98.1555 296.215 97.2538 295.984 96.4855 295.521C95.7238 295.059 95.1379 294.415 94.7277 293.588C94.3176 292.761 94.1125 291.814 94.1125 290.746C94.1125 289.672 94.3208 288.721 94.7375 287.895C95.1542 287.061 95.7434 286.413 96.5051 285.951C97.2733 285.489 98.1685 285.258 99.1906 285.258C100.043 285.258 100.802 285.414 101.466 285.727C102.137 286.039 102.667 286.482 103.058 287.055C103.455 287.628 103.683 288.292 103.741 289.047H101.359C101.254 288.513 101.017 288.08 100.646 287.748C100.275 287.416 99.7961 287.25 99.2102 287.25C98.6958 287.25 98.2434 287.39 97.8527 287.67C97.4686 287.943 97.1691 288.34 96.9543 288.861C96.7395 289.376 96.632 289.984 96.632 290.688C96.632 291.41 96.7362 292.035 96.9445 292.562C97.1594 293.083 97.4589 293.484 97.843 293.764C98.2336 294.044 98.6893 294.184 99.2102 294.184C99.7701 294.184 100.242 294.027 100.626 293.715C101.01 293.402 101.254 292.96 101.359 292.387H103.741C103.676 293.135 103.448 293.799 103.058 294.379C102.674 294.958 102.15 295.411 101.486 295.736C100.821 296.055 100.057 296.215 99.1906 296.215ZM104.828 293.012C104.828 291.918 105.196 291.13 105.932 290.648C106.674 290.16 107.621 289.88 108.773 289.809C109.9 289.73 110.805 289.678 111.488 289.652V288.812C111.488 288.285 111.322 287.878 110.99 287.592C110.658 287.299 110.186 287.152 109.574 287.152C109.034 287.152 108.591 287.266 108.246 287.494C107.901 287.722 107.68 288.031 107.582 288.422H105.18C105.238 287.816 105.453 287.276 105.824 286.801C106.195 286.319 106.706 285.941 107.357 285.668C108.008 285.395 108.767 285.258 109.633 285.258C110.375 285.258 111.072 285.375 111.723 285.609C112.38 285.837 112.917 286.225 113.334 286.771C113.757 287.312 113.969 288.025 113.969 288.91V296H111.586V294.535H111.508C111.247 295.03 110.857 295.434 110.336 295.746C109.815 296.059 109.164 296.215 108.383 296.215C107.699 296.215 107.087 296.091 106.547 295.844C106.013 295.596 105.593 295.232 105.287 294.75C104.981 294.268 104.828 293.689 104.828 293.012ZM107.23 292.992C107.23 293.441 107.393 293.786 107.719 294.027C108.044 294.262 108.48 294.379 109.027 294.379C109.516 294.379 109.949 294.281 110.326 294.086C110.704 293.891 110.993 293.627 111.195 293.295C111.404 292.956 111.508 292.589 111.508 292.191L111.498 291.322L109.164 291.469C108.552 291.521 108.077 291.674 107.738 291.928C107.4 292.182 107.23 292.536 107.23 292.992ZM118.513 296H116.013V285.395H118.395V287.191H118.532C118.779 286.579 119.17 286.104 119.704 285.766C120.244 285.427 120.902 285.258 121.677 285.258C122.412 285.258 123.054 285.414 123.6 285.727C124.154 286.039 124.577 286.495 124.87 287.094C125.169 287.693 125.316 288.409 125.309 289.242V296H122.829V289.633C122.829 288.917 122.647 288.36 122.282 287.963C121.917 287.566 121.41 287.367 120.759 287.367C120.316 287.367 119.925 287.465 119.587 287.66C119.248 287.849 118.985 288.126 118.796 288.49C118.607 288.848 118.513 289.281 118.513 289.789V296ZM131.037 285.395H133.577L135.452 292.855H135.549L137.444 285.395H139.963L141.877 292.816H141.975L143.83 285.395H146.37L143.362 296H140.764L138.772 288.812H138.635L136.643 296H134.045L131.037 285.395ZM151.988 296.215C150.972 296.215 150.08 295.987 149.312 295.531C148.543 295.076 147.951 294.438 147.534 293.617C147.118 292.79 146.909 291.833 146.909 290.746C146.909 289.652 147.118 288.692 147.534 287.865C147.951 287.038 148.543 286.397 149.312 285.941C150.08 285.486 150.972 285.258 151.988 285.258C153.01 285.258 153.905 285.486 154.673 285.941C155.441 286.397 156.03 287.038 156.441 287.865C156.857 288.692 157.066 289.652 157.066 290.746C157.066 291.833 156.857 292.79 156.441 293.617C156.024 294.444 155.432 295.085 154.663 295.541C153.902 295.99 153.01 296.215 151.988 296.215ZM152.007 294.223C152.554 294.223 153.016 294.07 153.394 293.764C153.778 293.458 154.064 293.041 154.253 292.514C154.448 291.986 154.546 291.391 154.546 290.727C154.546 290.069 154.448 289.477 154.253 288.949C154.064 288.415 153.778 287.995 153.394 287.689C153.016 287.383 152.554 287.23 152.007 287.23C151.447 287.23 150.972 287.383 150.581 287.689C150.197 287.995 149.907 288.412 149.712 288.939C149.523 289.467 149.429 290.062 149.429 290.727C149.429 291.391 149.523 291.986 149.712 292.514C149.907 293.041 150.197 293.458 150.581 293.764C150.972 294.07 151.447 294.223 152.007 294.223ZM158.699 285.395H161.121V287.152H161.238C161.421 286.553 161.749 286.085 162.225 285.746C162.7 285.408 163.243 285.238 163.855 285.238C164.22 285.238 164.52 285.258 164.754 285.297V287.602C164.643 287.562 164.474 287.527 164.246 287.494C164.018 287.462 163.803 287.445 163.602 287.445C163.146 287.445 162.736 287.543 162.371 287.738C162.007 287.934 161.72 288.207 161.512 288.559C161.303 288.91 161.199 289.307 161.199 289.75V296H158.699V285.395ZM165.938 281.859H168.438V289.652H168.614L172.423 285.395H175.333L171.221 289.965L175.587 296H172.618L169.356 291.449L168.438 292.426V296H165.938V281.859ZM180.162 285.395H182.702L184.577 292.855H184.674L186.569 285.395H189.088L191.002 292.816H191.1L192.955 285.395H195.495L192.487 296H189.889L187.897 288.812H187.76L185.768 296H183.17L180.162 285.395ZM196.777 285.395H199.277V296H196.777V285.395ZM198.046 283.891C197.792 283.891 197.551 283.832 197.323 283.715C197.102 283.591 196.926 283.425 196.796 283.217C196.666 283.002 196.601 282.771 196.601 282.523C196.601 282.283 196.666 282.058 196.796 281.85C196.926 281.641 197.102 281.479 197.323 281.361C197.551 281.238 197.792 281.176 198.046 281.176C198.307 281.176 198.547 281.238 198.769 281.361C198.99 281.479 199.166 281.641 199.296 281.85C199.426 282.058 199.491 282.283 199.491 282.523C199.491 282.771 199.426 283.002 199.296 283.217C199.166 283.425 198.99 283.591 198.769 283.715C198.547 283.832 198.307 283.891 198.046 283.891ZM206.652 287.309H204.562V292.816C204.562 293.285 204.66 293.607 204.855 293.783C205.057 293.959 205.337 294.047 205.695 294.047C206.008 294.047 206.372 294.034 206.789 294.008V296.039C206.464 296.104 205.995 296.137 205.383 296.137C204.738 296.137 204.165 296.033 203.664 295.824C203.169 295.609 202.779 295.284 202.492 294.848C202.212 294.411 202.076 293.871 202.082 293.227V287.309H200.559V285.395H202.082V282.855H204.562V285.395H206.652V287.309ZM211.001 296H208.501V281.859H210.942V287.191H211.079C211.333 286.573 211.72 286.098 212.241 285.766C212.768 285.427 213.429 285.258 214.223 285.258C214.959 285.258 215.6 285.414 216.147 285.727C216.701 286.033 217.127 286.485 217.427 287.084C217.726 287.683 217.876 288.402 217.876 289.242V296H215.395V289.633C215.395 288.91 215.21 288.354 214.839 287.963C214.474 287.566 213.963 287.367 213.305 287.367C212.856 287.367 212.456 287.465 212.104 287.66C211.759 287.849 211.489 288.126 211.294 288.49C211.098 288.855 211.001 289.288 211.001 289.789V296ZM236.123 296H233.858L227.159 286.332H227.041V296H224.502V281.859H226.807L233.467 291.527H233.604V281.859H236.123V296ZM247.913 286.371C247.685 285.609 247.282 285.017 246.702 284.594C246.129 284.164 245.42 283.949 244.573 283.949C243.805 283.949 243.125 284.145 242.532 284.535C241.94 284.919 241.478 285.486 241.146 286.234C240.814 286.983 240.648 287.875 240.648 288.91C240.648 289.965 240.814 290.87 241.146 291.625C241.478 292.374 241.943 292.943 242.542 293.334C243.141 293.718 243.838 293.91 244.632 293.91C245.335 293.91 245.95 293.777 246.478 293.51C247.005 293.236 247.415 292.852 247.708 292.357C248.001 291.856 248.154 291.273 248.167 290.609H244.886V288.598H250.628V290.297C250.628 291.488 250.371 292.53 249.857 293.422C249.349 294.307 248.642 294.991 247.738 295.473C246.833 295.954 245.797 296.195 244.632 296.195C243.336 296.195 242.194 295.902 241.204 295.316C240.215 294.724 239.446 293.881 238.9 292.787C238.359 291.693 238.089 290.408 238.089 288.93C238.089 287.452 238.366 286.166 238.919 285.072C239.479 283.972 240.247 283.129 241.224 282.543C242.207 281.957 243.317 281.664 244.554 281.664C245.583 281.664 246.523 281.863 247.376 282.26C248.229 282.657 248.929 283.214 249.476 283.93C250.023 284.639 250.368 285.453 250.511 286.371H247.913ZM265.25 288.93C265.25 290.421 264.97 291.713 264.41 292.807C263.85 293.9 263.079 294.74 262.096 295.326C261.119 295.906 260.009 296.195 258.766 296.195C257.522 296.195 256.409 295.906 255.426 295.326C254.449 294.74 253.681 293.9 253.121 292.807C252.561 291.706 252.281 290.414 252.281 288.93C252.281 287.439 252.561 286.146 253.121 285.053C253.681 283.959 254.449 283.122 255.426 282.543C256.409 281.957 257.522 281.664 258.766 281.664C260.009 281.664 261.119 281.957 262.096 282.543C263.079 283.122 263.85 283.959 264.41 285.053C264.97 286.146 265.25 287.439 265.25 288.93ZM262.691 288.93C262.691 287.875 262.525 286.977 262.193 286.234C261.868 285.486 261.409 284.919 260.816 284.535C260.224 284.145 259.54 283.949 258.766 283.949C257.991 283.949 257.307 284.145 256.715 284.535C256.122 284.919 255.66 285.486 255.328 286.234C255.003 286.977 254.84 287.875 254.84 288.93C254.84 289.984 255.003 290.886 255.328 291.635C255.66 292.377 256.122 292.943 256.715 293.334C257.307 293.718 257.991 293.91 258.766 293.91C259.54 293.91 260.224 293.718 260.816 293.334C261.409 292.943 261.868 292.377 262.193 291.635C262.525 290.886 262.691 289.984 262.691 288.93ZM273.114 288.422C273.036 288.018 272.834 287.699 272.509 287.465C272.183 287.23 271.76 287.113 271.239 287.113C270.887 287.113 270.568 287.169 270.282 287.279C270.002 287.383 269.784 287.533 269.628 287.729C269.471 287.917 269.397 288.129 269.403 288.363C269.384 288.93 269.885 289.333 270.907 289.574L272.704 289.945C273.713 290.173 274.462 290.521 274.95 290.99C275.438 291.459 275.686 292.074 275.692 292.836C275.686 293.5 275.497 294.089 275.126 294.604C274.755 295.111 274.227 295.508 273.544 295.795C272.867 296.075 272.072 296.215 271.161 296.215C269.826 296.215 268.765 295.932 267.977 295.365C267.196 294.792 266.74 293.995 266.61 292.973H269.149C269.227 293.422 269.436 293.76 269.774 293.988C270.119 294.21 270.582 294.32 271.161 294.32C271.76 294.32 272.242 294.206 272.606 293.979C272.971 293.751 273.153 293.441 273.153 293.051C273.153 292.745 273.026 292.494 272.772 292.299C272.525 292.097 272.137 291.938 271.61 291.82L269.911 291.449C268.928 291.254 268.182 290.906 267.675 290.404C267.173 289.903 266.923 289.268 266.923 288.5C266.923 287.855 267.098 287.289 267.45 286.801C267.802 286.306 268.3 285.925 268.944 285.658C269.589 285.391 270.341 285.258 271.2 285.258C272.033 285.258 272.759 285.388 273.378 285.648C274.003 285.902 274.494 286.267 274.852 286.742C275.21 287.217 275.419 287.777 275.477 288.422H273.114ZM281.245 293.012C281.245 291.918 281.612 291.13 282.348 290.648C283.09 290.16 284.038 289.88 285.19 289.809C286.316 289.73 287.221 289.678 287.905 289.652V288.812C287.905 288.285 287.739 287.878 287.407 287.592C287.075 287.299 286.603 287.152 285.991 287.152C285.45 287.152 285.008 287.266 284.663 287.494C284.317 287.722 284.096 288.031 283.998 288.422H281.596C281.655 287.816 281.87 287.276 282.241 286.801C282.612 286.319 283.123 285.941 283.774 285.668C284.425 285.395 285.183 285.258 286.049 285.258C286.791 285.258 287.488 285.375 288.139 285.609C288.797 285.837 289.334 286.225 289.75 286.771C290.174 287.312 290.385 288.025 290.385 288.91V296H288.002V294.535H287.924C287.664 295.03 287.273 295.434 286.752 295.746C286.232 296.059 285.58 296.215 284.799 296.215C284.116 296.215 283.504 296.091 282.963 295.844C282.429 295.596 282.01 295.232 281.704 294.75C281.398 294.268 281.245 293.689 281.245 293.012ZM283.647 292.992C283.647 293.441 283.81 293.786 284.135 294.027C284.461 294.262 284.897 294.379 285.444 294.379C285.932 294.379 286.365 294.281 286.743 294.086C287.12 293.891 287.41 293.627 287.612 293.295C287.82 292.956 287.924 292.589 287.924 292.191L287.914 291.322L285.58 291.469C284.968 291.521 284.493 291.674 284.155 291.928C283.816 292.182 283.647 292.536 283.647 292.992ZM298.445 288.422C298.366 288.018 298.165 287.699 297.839 287.465C297.514 287.23 297.09 287.113 296.57 287.113C296.218 287.113 295.899 287.169 295.613 287.279C295.333 287.383 295.114 287.533 294.958 287.729C294.802 287.917 294.727 288.129 294.734 288.363C294.714 288.93 295.215 289.333 296.238 289.574L298.034 289.945C299.043 290.173 299.792 290.521 300.28 290.99C300.769 291.459 301.016 292.074 301.023 292.836C301.016 293.5 300.827 294.089 300.456 294.604C300.085 295.111 299.558 295.508 298.874 295.795C298.197 296.075 297.403 296.215 296.491 296.215C295.157 296.215 294.096 295.932 293.308 295.365C292.527 294.792 292.071 293.995 291.941 292.973H294.48C294.558 293.422 294.766 293.76 295.105 293.988C295.45 294.21 295.912 294.32 296.491 294.32C297.09 294.32 297.572 294.206 297.937 293.979C298.301 293.751 298.484 293.441 298.484 293.051C298.484 292.745 298.357 292.494 298.103 292.299C297.855 292.097 297.468 291.938 296.941 291.82L295.241 291.449C294.258 291.254 293.513 290.906 293.005 290.404C292.504 289.903 292.253 289.268 292.253 288.5C292.253 287.855 292.429 287.289 292.78 286.801C293.132 286.306 293.63 285.925 294.275 285.658C294.919 285.391 295.671 285.258 296.53 285.258C297.364 285.258 298.09 285.388 298.708 285.648C299.333 285.902 299.825 286.267 300.183 286.742C300.541 287.217 300.749 287.777 300.808 288.422H298.445ZM306.575 293.012C306.575 291.918 306.943 291.13 307.679 290.648C308.421 290.16 309.368 289.88 310.52 289.809C311.647 289.73 312.552 289.678 313.235 289.652V288.812C313.235 288.285 313.069 287.878 312.737 287.592C312.405 287.299 311.933 287.152 311.321 287.152C310.781 287.152 310.338 287.266 309.993 287.494C309.648 287.722 309.427 288.031 309.329 288.422H306.927C306.985 287.816 307.2 287.276 307.571 286.801C307.942 286.319 308.453 285.941 309.104 285.668C309.755 285.395 310.514 285.258 311.38 285.258C312.122 285.258 312.818 285.375 313.47 285.609C314.127 285.837 314.664 286.225 315.081 286.771C315.504 287.312 315.716 288.025 315.716 288.91V296H313.333V294.535H313.255C312.994 295.03 312.604 295.434 312.083 295.746C311.562 296.059 310.911 296.215 310.13 296.215C309.446 296.215 308.834 296.091 308.294 295.844C307.76 295.596 307.34 295.232 307.034 294.75C306.728 294.268 306.575 293.689 306.575 293.012ZM308.977 292.992C308.977 293.441 309.14 293.786 309.466 294.027C309.791 294.262 310.227 294.379 310.774 294.379C311.262 294.379 311.695 294.281 312.073 294.086C312.451 293.891 312.74 293.627 312.942 293.295C313.151 292.956 313.255 292.589 313.255 292.191L313.245 291.322L310.911 291.469C310.299 291.521 309.824 291.674 309.485 291.928C309.147 292.182 308.977 292.536 308.977 292.992Z" fill="#1E1E1E"/>
<path d="M77.9805 317.309H75.8906V322.816C75.8906 323.285 75.9883 323.607 76.1836 323.783C76.3854 323.959 76.6654 324.047 77.0234 324.047C77.3359 324.047 77.7005 324.034 78.1172 324.008V326.039C77.7917 326.104 77.3229 326.137 76.7109 326.137C76.0664 326.137 75.4935 326.033 74.9922 325.824C74.4974 325.609 74.1068 325.284 73.8203 324.848C73.5404 324.411 73.4036 323.871 73.4102 323.227V317.309H71.8867V315.395H73.4102V312.855H75.8906V315.395H77.9805V317.309ZM84.2039 326.215C83.1492 326.215 82.2312 325.993 81.45 325.551C80.6753 325.102 80.0796 324.467 79.6629 323.646C79.2527 322.826 79.0477 321.866 79.0477 320.766C79.0477 319.678 79.256 318.721 79.6727 317.895C80.0893 317.061 80.6753 316.413 81.4305 315.951C82.1922 315.489 83.0711 315.258 84.0672 315.258C84.9656 315.258 85.7794 315.45 86.5086 315.834C87.2443 316.218 87.827 316.814 88.2566 317.621C88.6928 318.422 88.9109 319.418 88.9109 320.609V321.391H81.5086C81.5151 321.983 81.6323 322.497 81.8602 322.934C82.088 323.363 82.4038 323.692 82.8074 323.92C83.2111 324.148 83.6831 324.262 84.2234 324.262C84.7508 324.262 85.2 324.161 85.5711 323.959C85.9422 323.757 86.2091 323.493 86.3719 323.168H88.8133C88.6635 323.78 88.3803 324.317 87.9637 324.779C87.547 325.235 87.0164 325.59 86.3719 325.844C85.7339 326.091 85.0112 326.215 84.2039 326.215ZM86.5281 319.691C86.5216 319.21 86.4174 318.78 86.2156 318.402C86.0138 318.025 85.7306 317.729 85.366 317.514C85.0014 317.299 84.5815 317.191 84.1062 317.191C83.618 317.191 83.1818 317.305 82.7977 317.533C82.4201 317.755 82.1206 318.057 81.8992 318.441C81.6779 318.819 81.5509 319.236 81.5184 319.691H86.5281ZM95.2516 326.215C94.1969 326.215 93.2789 325.993 92.4977 325.551C91.7229 325.102 91.1272 324.467 90.7105 323.646C90.3004 322.826 90.0953 321.866 90.0953 320.766C90.0953 319.678 90.3036 318.721 90.7203 317.895C91.137 317.061 91.7229 316.413 92.4781 315.951C93.2398 315.489 94.1187 315.258 95.1148 315.258C96.0133 315.258 96.8271 315.45 97.5562 315.834C98.2919 316.218 98.8746 316.814 99.3043 317.621C99.7405 318.422 99.9586 319.418 99.9586 320.609V321.391H92.5562C92.5628 321.983 92.6799 322.497 92.9078 322.934C93.1357 323.363 93.4514 323.692 93.8551 323.92C94.2587 324.148 94.7307 324.262 95.2711 324.262C95.7984 324.262 96.2477 324.161 96.6187 323.959C96.9898 323.757 97.2568 323.493 97.4195 323.168H99.8609C99.7112 323.78 99.428 324.317 99.0113 324.779C98.5947 325.235 98.0641 325.59 97.4195 325.844C96.7815 326.091 96.0589 326.215 95.2516 326.215ZM97.5758 319.691C97.5693 319.21 97.4651 318.78 97.2633 318.402C97.0615 318.025 96.7783 317.729 96.4137 317.514C96.0491 317.299 95.6292 317.191 95.1539 317.191C94.6656 317.191 94.2294 317.305 93.8453 317.533C93.4677 317.755 93.1682 318.057 92.9469 318.441C92.7255 318.819 92.5986 319.236 92.566 319.691H97.5758ZM104.092 326H101.592V315.395H103.975V317.191H104.112C104.359 316.579 104.75 316.104 105.284 315.766C105.824 315.427 106.482 315.258 107.256 315.258C107.992 315.258 108.633 315.414 109.18 315.727C109.733 316.039 110.157 316.495 110.45 317.094C110.749 317.693 110.896 318.409 110.889 319.242V326H108.409V319.633C108.409 318.917 108.226 318.36 107.862 317.963C107.497 317.566 106.989 317.367 106.338 317.367C105.896 317.367 105.505 317.465 105.166 317.66C104.828 317.849 104.564 318.126 104.375 318.49C104.187 318.848 104.092 319.281 104.092 319.789V326ZM112.484 323.012C112.484 321.918 112.851 321.13 113.587 320.648C114.329 320.16 115.277 319.88 116.429 319.809C117.555 319.73 118.46 319.678 119.144 319.652V318.812C119.144 318.285 118.978 317.878 118.646 317.592C118.314 317.299 117.842 317.152 117.23 317.152C116.689 317.152 116.247 317.266 115.902 317.494C115.557 317.722 115.335 318.031 115.237 318.422H112.835C112.894 317.816 113.109 317.276 113.48 316.801C113.851 316.319 114.362 315.941 115.013 315.668C115.664 315.395 116.422 315.258 117.288 315.258C118.03 315.258 118.727 315.375 119.378 315.609C120.036 315.837 120.573 316.225 120.989 316.771C121.413 317.312 121.624 318.025 121.624 318.91V326H119.241V324.535H119.163C118.903 325.03 118.512 325.434 117.991 325.746C117.471 326.059 116.82 326.215 116.038 326.215C115.355 326.215 114.743 326.091 114.202 325.844C113.668 325.596 113.249 325.232 112.943 324.75C112.637 324.268 112.484 323.689 112.484 323.012ZM114.886 322.992C114.886 323.441 115.049 323.786 115.374 324.027C115.7 324.262 116.136 324.379 116.683 324.379C117.171 324.379 117.604 324.281 117.982 324.086C118.359 323.891 118.649 323.627 118.851 323.295C119.059 322.956 119.163 322.589 119.163 322.191L119.154 321.322L116.82 321.469C116.208 321.521 115.732 321.674 115.394 321.928C115.055 322.182 114.886 322.536 114.886 322.992ZM128.297 330.199C127.366 330.199 126.552 330.066 125.855 329.799C125.165 329.538 124.618 329.164 124.215 328.676C123.818 328.194 123.59 327.621 123.531 326.957H126.012C126.096 327.406 126.34 327.745 126.744 327.973C127.154 328.207 127.685 328.324 128.336 328.324C129.111 328.324 129.713 328.145 130.143 327.787C130.579 327.429 130.797 326.872 130.797 326.117V324.086H130.68C130.432 324.574 130.064 324.991 129.576 325.336C129.094 325.674 128.44 325.844 127.613 325.844C126.786 325.844 126.041 325.645 125.377 325.248C124.713 324.844 124.189 324.252 123.805 323.471C123.427 322.683 123.238 321.729 123.238 320.609C123.238 319.477 123.43 318.51 123.814 317.709C124.199 316.902 124.723 316.293 125.387 315.883C126.051 315.466 126.799 315.258 127.633 315.258C128.46 315.258 129.107 315.44 129.576 315.805C130.045 316.169 130.413 316.612 130.68 317.133H130.797V315.395H133.258V326.176C133.258 327.055 133.046 327.794 132.623 328.393C132.206 328.998 131.624 329.451 130.875 329.75C130.133 330.049 129.273 330.199 128.297 330.199ZM128.297 323.891C129.098 323.891 129.716 323.607 130.152 323.041C130.595 322.468 130.816 321.671 130.816 320.648C130.816 319.978 130.719 319.389 130.523 318.881C130.328 318.373 130.042 317.982 129.664 317.709C129.286 317.429 128.831 317.289 128.297 317.289C127.757 317.289 127.298 317.432 126.92 317.719C126.542 318.005 126.256 318.402 126.061 318.91C125.872 319.418 125.777 319.997 125.777 320.648C125.777 321.645 125.995 322.436 126.432 323.021C126.868 323.601 127.49 323.891 128.297 323.891ZM140.048 326.215C138.993 326.215 138.075 325.993 137.294 325.551C136.519 325.102 135.923 324.467 135.507 323.646C135.096 322.826 134.891 321.866 134.891 320.766C134.891 319.678 135.1 318.721 135.516 317.895C135.933 317.061 136.519 316.413 137.274 315.951C138.036 315.489 138.915 315.258 139.911 315.258C140.809 315.258 141.623 315.45 142.352 315.834C143.088 316.218 143.671 316.814 144.1 317.621C144.537 318.422 144.755 319.418 144.755 320.609V321.391H137.352C137.359 321.983 137.476 322.497 137.704 322.934C137.932 323.363 138.248 323.692 138.651 323.92C139.055 324.148 139.527 324.262 140.067 324.262C140.595 324.262 141.044 324.161 141.415 323.959C141.786 323.757 142.053 323.493 142.216 323.168H144.657C144.507 323.78 144.224 324.317 143.807 324.779C143.391 325.235 142.86 325.59 142.216 325.844C141.578 326.091 140.855 326.215 140.048 326.215ZM142.372 319.691C142.365 319.21 142.261 318.78 142.059 318.402C141.858 318.025 141.574 317.729 141.21 317.514C140.845 317.299 140.425 317.191 139.95 317.191C139.462 317.191 139.026 317.305 138.641 317.533C138.264 317.755 137.964 318.057 137.743 318.441C137.522 318.819 137.395 319.236 137.362 319.691H142.372ZM146.388 315.395H148.81V317.152H148.927C149.11 316.553 149.438 316.085 149.914 315.746C150.389 315.408 150.933 315.238 151.545 315.238C151.909 315.238 152.209 315.258 152.443 315.297V317.602C152.332 317.562 152.163 317.527 151.935 317.494C151.707 317.462 151.492 317.445 151.291 317.445C150.835 317.445 150.425 317.543 150.06 317.738C149.696 317.934 149.409 318.207 149.201 318.559C148.992 318.91 148.888 319.307 148.888 319.75V326H146.388V315.395Z" fill="#22C55E"/>
<path d="M182.18 329.156C181.907 329.156 181.653 329.088 181.419 328.951C181.184 328.814 180.999 328.629 180.862 328.395C180.725 328.16 180.657 327.906 180.657 327.633C180.657 327.366 180.725 327.118 180.862 326.891C180.999 326.656 181.184 326.471 181.419 326.334C181.653 326.197 181.907 326.129 182.18 326.129C182.441 326.129 182.685 326.197 182.913 326.334C183.147 326.471 183.333 326.656 183.47 326.891C183.613 327.118 183.684 327.366 183.684 327.633C183.684 327.906 183.613 328.16 183.47 328.395C183.333 328.629 183.147 328.814 182.913 328.951C182.685 329.088 182.441 329.156 182.18 329.156Z" fill="#1E1E1E"/>
<rect width="393" height="174" transform="translate(8 550)" fill="url(#paint1_linear_4299_1072)"/>
<path d="M191.309 772.621V788.617H189.182V772.621H191.309ZM188.039 772.885V787.879H185.93V779.916H183.82V778.105H185.93V772.885H188.039ZM182.537 776.91C182.537 779.564 183.363 782.254 185.701 783.59L184.383 785.242C182.959 784.398 182.019 782.966 181.482 781.252C180.929 783.115 179.962 784.697 178.494 785.594L177.141 783.941C179.496 782.5 180.375 779.617 180.375 776.91V776.049H177.756V774.256H184.963V776.049H182.537V776.91ZM207.586 779.441V781.076H201.434V782.078H205.846V785.98H196.934V786.859H206.268V788.512H194.736V784.469H203.631V783.678H194.719V782.078H199.201V781.076H193.066V779.441H207.586ZM201.416 772.604V773.869H206.215V775.521H201.697C202.137 776.453 203.771 777.218 207.006 777.35L206.355 779.002C203.385 778.861 201.328 778.105 200.309 776.893C199.298 778.105 197.232 778.861 194.244 779.002L193.629 777.35C196.837 777.218 198.463 776.453 198.92 775.521H194.438V773.869H199.201V772.604H201.416ZM221.209 772.621V778.879H223.564V780.725H221.209V788.617H218.994V772.621H221.209ZM217.904 775.012V776.805H208.5V775.012H212.121V772.867H214.371V775.012H217.904ZM213.246 777.701C215.584 777.701 217.324 779.283 217.324 781.516C217.324 783.748 215.584 785.33 213.246 785.33C210.891 785.33 209.15 783.748 209.15 781.516C209.15 779.283 210.891 777.701 213.246 777.701ZM213.246 779.512C212.121 779.529 211.295 780.285 211.295 781.516C211.295 782.764 212.121 783.502 213.246 783.484C214.371 783.502 215.18 782.764 215.18 781.516C215.18 780.285 214.371 779.529 213.246 779.512ZM237.592 772.621V788.617H235.324V772.621H237.592ZM232.793 774.291C232.793 779.143 231.088 783.168 225.375 785.875L224.197 784.082C228.328 782.131 230.147 779.6 230.508 776.049H225.059V774.291H232.793Z" fill="white"/>
<mask id="path-22-inside-2_4299_1072" fill="white">
<path d="M35.4805 443C35.4805 436.373 40.8531 431 47.4805 431H60.6105C67.2379 431 72.6105 436.373 72.6105 443V467C72.6105 473.627 67.2379 479 60.6105 479H47.4805C40.8531 479 35.4805 473.627 35.4805 467V443Z"/>
</mask>
<path d="M35.4805 443C35.4805 436.373 40.8531 431 47.4805 431H60.6105C67.2379 431 72.6105 436.373 72.6105 443V467C72.6105 473.627 67.2379 479 60.6105 479H47.4805C40.8531 479 35.4805 473.627 35.4805 467V443Z" fill="#F0FDF4"/>
<path d="M47.4805 431V433H60.6105V431V429H47.4805V431ZM72.6105 443H70.6105V467H72.6105H74.6105V443H72.6105ZM60.6105 479V477H47.4805V479V481H60.6105V479ZM35.4805 467H37.4805V443H35.4805H33.4805V467H35.4805ZM47.4805 479V477C41.9576 477 37.4805 472.523 37.4805 467H35.4805H33.4805C33.4805 474.732 39.7485 481 47.4805 481V479ZM72.6105 467H70.6105C70.6105 472.523 66.1333 477 60.6105 477V479V481C68.3425 481 74.6105 474.732 74.6105 467H72.6105ZM60.6105 431V433C66.1333 433 70.6105 437.477 70.6105 443H72.6105H74.6105C74.6105 435.268 68.3425 429 60.6105 429V431ZM47.4805 431V429C39.7485 429 33.4805 435.268 33.4805 443H35.4805H37.4805C37.4805 437.477 41.9576 433 47.4805 433V431Z" fill="#22C55E" mask="url(#path-22-inside-2_4299_1072)"/>
<path d="M56.8613 450.629V452.816H54.9863V456.996C54.9863 457.842 55.0026 458.337 55.0352 458.48C55.0742 458.617 55.1556 458.731 55.2793 458.822C55.4095 458.913 55.5658 458.959 55.748 458.959C56.002 458.959 56.3698 458.871 56.8516 458.695L57.0859 460.824C56.4479 461.098 55.7253 461.234 54.918 461.234C54.4232 461.234 53.9772 461.153 53.5801 460.99C53.1829 460.821 52.89 460.606 52.7012 460.346C52.5189 460.079 52.3919 459.721 52.3203 459.271C52.2617 458.952 52.2324 458.308 52.2324 457.338V452.816H50.9727V450.629H52.2324V448.568L54.9863 446.967V450.629H56.8613Z" fill="#1E1E1E"/>
<mask id="path-25-inside-3_4299_1072" fill="white">
<path d="M79.6094 443C79.6094 436.373 84.982 431 91.6094 431H104.739C111.367 431 116.739 436.373 116.739 443V467C116.739 473.627 111.367 479 104.739 479H91.6094C84.982 479 79.6094 473.627 79.6094 467V443Z"/>
</mask>
<path d="M79.6094 443C79.6094 436.373 84.982 431 91.6094 431H104.739C111.367 431 116.739 436.373 116.739 443V467C116.739 473.627 111.367 479 104.739 479H91.6094C84.982 479 79.6094 473.627 79.6094 467V443Z" fill="#F0FDF4"/>
<path d="M91.6094 431V433H104.739V431V429H91.6094V431ZM116.739 443H114.739V467H116.739H118.739V443H116.739ZM104.739 479V477H91.6094V479V481H104.739V479ZM79.6094 467H81.6094V443H79.6094H77.6094V467H79.6094ZM91.6094 479V477C86.0865 477 81.6094 472.523 81.6094 467H79.6094H77.6094C77.6094 474.732 83.8774 481 91.6094 481V479ZM116.739 467H114.739C114.739 472.523 110.262 477 104.739 477V479V481C112.471 481 118.739 474.732 118.739 467H116.739ZM104.739 431V433C110.262 433 114.739 437.477 114.739 443H116.739H118.739C118.739 435.268 112.471 429 104.739 429V431ZM91.6094 431V429C83.8774 429 77.6094 435.268 77.6094 443H79.6094H81.6094C81.6094 437.477 86.0865 433 91.6094 433V431Z" fill="#22C55E" mask="url(#path-25-inside-3_4299_1072)"/>
<path d="M100.375 457.699L103.109 458.158C102.758 459.161 102.201 459.926 101.439 460.453C100.684 460.974 99.737 461.234 98.5977 461.234C96.7943 461.234 95.4596 460.645 94.5938 459.467C93.9102 458.523 93.5684 457.331 93.5684 455.893C93.5684 454.174 94.0176 452.829 94.916 451.859C95.8145 450.883 96.9505 450.395 98.3242 450.395C99.8672 450.395 101.085 450.906 101.977 451.928C102.868 452.943 103.295 454.503 103.256 456.605H96.3809C96.4004 457.419 96.6217 458.054 97.0449 458.51C97.4681 458.959 97.9954 459.184 98.627 459.184C99.0566 459.184 99.418 459.066 99.7109 458.832C100.004 458.598 100.225 458.22 100.375 457.699ZM100.531 454.926C100.512 454.132 100.307 453.529 99.916 453.119C99.5254 452.702 99.0501 452.494 98.4902 452.494C97.8913 452.494 97.3965 452.712 97.0059 453.148C96.6152 453.585 96.4232 454.177 96.4297 454.926H100.531Z" fill="#1E1E1E"/>
<mask id="path-28-inside-4_4299_1072" fill="white">
<path d="M123.738 443C123.738 436.373 129.111 431 135.738 431H148.868C155.496 431 160.868 436.373 160.868 443V467C160.868 473.627 155.496 479 148.868 479H135.738C129.111 479 123.738 473.627 123.738 467V443Z"/>
</mask>
<path d="M123.738 443C123.738 436.373 129.111 431 135.738 431H148.868C155.496 431 160.868 436.373 160.868 443V467C160.868 473.627 155.496 479 148.868 479H135.738C129.111 479 123.738 473.627 123.738 467V443Z" fill="#F0FDF4"/>
<path d="M135.738 431V433H148.868V431V429H135.738V431ZM160.868 443H158.868V467H160.868H162.868V443H160.868ZM148.868 479V477H135.738V479V481H148.868V479ZM123.738 467H125.738V443H123.738H121.738V467H123.738ZM135.738 479V477C130.215 477 125.738 472.523 125.738 467H123.738H121.738C121.738 474.732 128.006 481 135.738 481V479ZM160.868 467H158.868C158.868 472.523 154.391 477 148.868 477V479V481C156.6 481 162.868 474.732 162.868 467H160.868ZM148.868 431V433C154.391 433 158.868 437.477 158.868 443H160.868H162.868C162.868 435.268 156.6 429 148.868 429V431ZM135.738 431V429C128.006 429 121.738 435.268 121.738 443H123.738H125.738C125.738 437.477 130.215 433 135.738 433V431Z" fill="#22C55E" mask="url(#path-28-inside-4_4299_1072)"/>
<path d="M144.375 457.699L147.109 458.158C146.758 459.161 146.201 459.926 145.439 460.453C144.684 460.974 143.737 461.234 142.598 461.234C140.794 461.234 139.46 460.645 138.594 459.467C137.91 458.523 137.568 457.331 137.568 455.893C137.568 454.174 138.018 452.829 138.916 451.859C139.814 450.883 140.951 450.395 142.324 450.395C143.867 450.395 145.085 450.906 145.977 451.928C146.868 452.943 147.295 454.503 147.256 456.605H140.381C140.4 457.419 140.622 458.054 141.045 458.51C141.468 458.959 141.995 459.184 142.627 459.184C143.057 459.184 143.418 459.066 143.711 458.832C144.004 458.598 144.225 458.22 144.375 457.699ZM144.531 454.926C144.512 454.132 144.307 453.529 143.916 453.119C143.525 452.702 143.05 452.494 142.49 452.494C141.891 452.494 141.396 452.712 141.006 453.148C140.615 453.585 140.423 454.177 140.43 454.926H144.531Z" fill="#1E1E1E"/>
<mask id="path-31-inside-5_4299_1072" fill="white">
<path d="M167.871 443C167.871 436.373 173.244 431 179.871 431H193.001C199.629 431 205.001 436.373 205.001 443V467C205.001 473.627 199.629 479 193.001 479H179.871C173.244 479 167.871 473.627 167.871 467V443Z"/>
</mask>
<path d="M167.871 443C167.871 436.373 173.244 431 179.871 431H193.001C199.629 431 205.001 436.373 205.001 443V467C205.001 473.627 199.629 479 193.001 479H179.871C173.244 479 167.871 473.627 167.871 467V443Z" fill="#F0FDF4"/>
<path d="M179.871 431V433H193.001V431V429H179.871V431ZM205.001 443H203.001V467H205.001H207.001V443H205.001ZM193.001 479V477H179.871V479V481H193.001V479ZM167.871 467H169.871V443H167.871H165.871V467H167.871ZM179.871 479V477C174.348 477 169.871 472.523 169.871 467H167.871H165.871C165.871 474.732 172.139 481 179.871 481V479ZM205.001 467H203.001C203.001 472.523 198.524 477 193.001 477V479V481C200.733 481 207.001 474.732 207.001 467H205.001ZM193.001 431V433C198.524 433 203.001 437.477 203.001 443H205.001H207.001C207.001 435.268 200.733 429 193.001 429V431ZM179.871 431V429C172.139 429 165.871 435.268 165.871 443H167.871H169.871C169.871 437.477 174.348 433 179.871 433V431Z" fill="#22C55E" mask="url(#path-31-inside-5_4299_1072)"/>
<path d="M190.756 461H188.012V455.707C188.012 454.587 187.953 453.865 187.836 453.539C187.719 453.207 187.527 452.95 187.26 452.768C186.999 452.585 186.684 452.494 186.312 452.494C185.837 452.494 185.411 452.624 185.033 452.885C184.656 453.145 184.395 453.49 184.252 453.92C184.115 454.35 184.047 455.144 184.047 456.303V461H181.303V450.629H183.852V452.152C184.757 450.98 185.896 450.395 187.27 450.395C187.875 450.395 188.428 450.505 188.93 450.727C189.431 450.941 189.809 451.218 190.062 451.557C190.323 451.895 190.502 452.279 190.6 452.709C190.704 453.139 190.756 453.754 190.756 454.555V461Z" fill="#1E1E1E"/>
<mask id="path-34-inside-6_4299_1072" fill="white">
<path d="M212 443C212 436.373 217.373 431 224 431H237.13C243.757 431 249.13 436.373 249.13 443V467C249.13 473.627 243.757 479 237.13 479H224C217.373 479 212 473.627 212 467V443Z"/>
</mask>
<path d="M212 443C212 436.373 217.373 431 224 431H237.13C243.757 431 249.13 436.373 249.13 443V467C249.13 473.627 243.757 479 237.13 479H224C217.373 479 212 473.627 212 467V443Z" fill="#F0FDF4"/>
<path d="M224 431V433H237.13V431V429H224V431ZM249.13 443H247.13V467H249.13H251.13V443H249.13ZM237.13 479V477H224V479V481H237.13V479ZM212 467H214V443H212H210V467H212ZM224 479V477C218.477 477 214 472.523 214 467H212H210C210 474.732 216.268 481 224 481V479ZM249.13 467H247.13C247.13 472.523 242.653 477 237.13 477V479V481C244.862 481 251.13 474.732 251.13 467H249.13ZM237.13 431V433C242.653 433 247.13 437.477 247.13 443H249.13H251.13C251.13 435.268 244.862 429 237.13 429V431ZM224 431V429C216.268 429 210 435.268 210 443H212H214C214 437.477 218.477 433 224 433V431Z" fill="#22C55E" mask="url(#path-34-inside-6_4299_1072)"/>
<path d="M228.42 453.793L225.93 453.344C226.21 452.341 226.691 451.599 227.375 451.117C228.059 450.635 229.074 450.395 230.422 450.395C231.646 450.395 232.557 450.541 233.156 450.834C233.755 451.12 234.175 451.488 234.416 451.938C234.663 452.38 234.787 453.197 234.787 454.389L234.758 457.592C234.758 458.503 234.8 459.177 234.885 459.613C234.976 460.043 235.142 460.505 235.383 461H232.668C232.596 460.818 232.508 460.548 232.404 460.189C232.359 460.027 232.326 459.919 232.307 459.867C231.838 460.323 231.337 460.665 230.803 460.893C230.269 461.12 229.699 461.234 229.094 461.234C228.026 461.234 227.183 460.945 226.564 460.365C225.952 459.786 225.646 459.053 225.646 458.168C225.646 457.582 225.786 457.061 226.066 456.605C226.346 456.143 226.737 455.792 227.238 455.551C227.746 455.303 228.475 455.089 229.426 454.906C230.708 454.665 231.597 454.441 232.092 454.232V453.959C232.092 453.432 231.962 453.057 231.701 452.836C231.441 452.608 230.949 452.494 230.227 452.494C229.738 452.494 229.357 452.592 229.084 452.787C228.811 452.976 228.589 453.311 228.42 453.793ZM232.092 456.02C231.74 456.137 231.184 456.277 230.422 456.439C229.66 456.602 229.162 456.762 228.928 456.918C228.57 457.172 228.391 457.494 228.391 457.885C228.391 458.269 228.534 458.601 228.82 458.881C229.107 459.161 229.471 459.301 229.914 459.301C230.409 459.301 230.881 459.138 231.33 458.812C231.662 458.565 231.88 458.262 231.984 457.904C232.056 457.67 232.092 457.224 232.092 456.566V456.02Z" fill="#1E1E1E"/>
<mask id="path-37-inside-7_4299_1072" fill="white">
<path d="M256.129 443C256.129 436.373 261.501 431 268.129 431H281.259C287.886 431 293.259 436.373 293.259 443V467C293.259 473.627 287.886 479 281.259 479H268.129C261.501 479 256.129 473.627 256.129 467V443Z"/>
</mask>
<path d="M256.129 443C256.129 436.373 261.501 431 268.129 431H281.259C287.886 431 293.259 436.373 293.259 443V467C293.259 473.627 287.886 479 281.259 479H268.129C261.501 479 256.129 473.627 256.129 467V443Z" fill="#F0FDF4"/>
<path d="M268.129 431V433H281.259V431V429H268.129V431ZM293.259 443H291.259V467H293.259H295.259V443H293.259ZM281.259 479V477H268.129V479V481H281.259V479ZM256.129 467H258.129V443H256.129H254.129V467H256.129ZM268.129 479V477C262.606 477 258.129 472.523 258.129 467H256.129H254.129C254.129 474.732 260.397 481 268.129 481V479ZM293.259 467H291.259C291.259 472.523 286.782 477 281.259 477V479V481C288.991 481 295.259 474.732 295.259 467H293.259ZM281.259 431V433C286.782 433 291.259 437.477 291.259 443H293.259H295.259C295.259 435.268 288.991 429 281.259 429V431ZM268.129 431V429C260.397 429 254.129 435.268 254.129 443H256.129H258.129C258.129 437.477 262.606 433 268.129 433V431Z" fill="#22C55E" mask="url(#path-37-inside-7_4299_1072)"/>
<path d="M269.068 461.684L272.203 462.064C272.255 462.429 272.376 462.68 272.564 462.816C272.825 463.012 273.235 463.109 273.795 463.109C274.511 463.109 275.048 463.002 275.406 462.787C275.647 462.644 275.829 462.413 275.953 462.094C276.038 461.866 276.08 461.446 276.08 460.834V459.32C275.26 460.44 274.225 461 272.975 461C271.581 461 270.478 460.411 269.664 459.232C269.026 458.301 268.707 457.143 268.707 455.756C268.707 454.018 269.124 452.689 269.957 451.771C270.797 450.854 271.839 450.395 273.082 450.395C274.365 450.395 275.423 450.958 276.256 452.084V450.629H278.824V459.936C278.824 461.16 278.723 462.074 278.521 462.68C278.32 463.285 278.036 463.76 277.672 464.105C277.307 464.451 276.819 464.721 276.207 464.916C275.602 465.111 274.833 465.209 273.902 465.209C272.145 465.209 270.898 464.906 270.162 464.301C269.426 463.702 269.059 462.94 269.059 462.016C269.059 461.924 269.062 461.814 269.068 461.684ZM271.52 455.6C271.52 456.7 271.731 457.507 272.154 458.021C272.584 458.529 273.111 458.783 273.736 458.783C274.407 458.783 274.973 458.523 275.436 458.002C275.898 457.475 276.129 456.697 276.129 455.668C276.129 454.594 275.908 453.796 275.465 453.275C275.022 452.755 274.462 452.494 273.785 452.494C273.128 452.494 272.584 452.751 272.154 453.266C271.731 453.773 271.52 454.551 271.52 455.6Z" fill="#1E1E1E"/>
<mask id="path-40-inside-8_4299_1072" fill="white">
<path d="M300.262 443C300.262 436.373 305.634 431 312.262 431H325.392C332.019 431 337.392 436.373 337.392 443V467C337.392 473.627 332.019 479 325.392 479H312.262C305.634 479 300.262 473.627 300.262 467V443Z"/>
</mask>
<path d="M300.262 443C300.262 436.373 305.634 431 312.262 431H325.392C332.019 431 337.392 436.373 337.392 443V467C337.392 473.627 332.019 479 325.392 479H312.262C305.634 479 300.262 473.627 300.262 467V443Z" fill="#F0FDF4"/>
<path d="M312.262 431V433H325.392V431V429H312.262V431ZM337.392 443H335.392V467H337.392H339.392V443H337.392ZM325.392 479V477H312.262V479V481H325.392V479ZM300.262 467H302.262V443H300.262H298.262V467H300.262ZM312.262 479V477C306.739 477 302.262 472.523 302.262 467H300.262H298.262C298.262 474.732 304.53 481 312.262 481V479ZM337.392 467H335.392C335.392 472.523 330.915 477 325.392 477V479V481C333.124 481 339.392 474.732 339.392 467H337.392ZM325.392 431V433C330.915 433 335.392 437.477 335.392 443H337.392H339.392C339.392 435.268 333.124 429 325.392 429V431ZM312.262 431V429C304.53 429 298.262 435.268 298.262 443H300.262H302.262C302.262 437.477 306.739 433 312.262 433V431Z" fill="#22C55E" mask="url(#path-40-inside-8_4299_1072)"/>
<path d="M320.375 457.699L323.109 458.158C322.758 459.161 322.201 459.926 321.439 460.453C320.684 460.974 319.737 461.234 318.598 461.234C316.794 461.234 315.46 460.645 314.594 459.467C313.91 458.523 313.568 457.331 313.568 455.893C313.568 454.174 314.018 452.829 314.916 451.859C315.814 450.883 316.951 450.395 318.324 450.395C319.867 450.395 321.085 450.906 321.977 451.928C322.868 452.943 323.295 454.503 323.256 456.605H316.381C316.4 457.419 316.622 458.054 317.045 458.51C317.468 458.959 317.995 459.184 318.627 459.184C319.057 459.184 319.418 459.066 319.711 458.832C320.004 458.598 320.225 458.22 320.375 457.699ZM320.531 454.926C320.512 454.132 320.307 453.529 319.916 453.119C319.525 452.702 319.05 452.494 318.49 452.494C317.891 452.494 317.396 452.712 317.006 453.148C316.615 453.585 316.423 454.177 316.43 454.926H320.531Z" fill="#1E1E1E"/>
<mask id="path-43-inside-9_4299_1072" fill="white">
<path d="M344.391 443C344.391 436.373 349.763 431 356.391 431H369.521C376.148 431 381.521 436.373 381.521 443V467C381.521 473.627 376.148 479 369.521 479H356.391C349.763 479 344.391 473.627 344.391 467V443Z"/>
</mask>
<path d="M344.391 443C344.391 436.373 349.763 431 356.391 431H369.521C376.148 431 381.521 436.373 381.521 443V467C381.521 473.627 376.148 479 369.521 479H356.391C349.763 479 344.391 473.627 344.391 467V443Z" fill="#F0FDF4"/>
<path d="M356.391 431V433H369.521V431V429H356.391V431ZM381.521 443H379.521V467H381.521H383.521V443H381.521ZM369.521 479V477H356.391V479V481H369.521V479ZM344.391 467H346.391V443H344.391H342.391V467H344.391ZM356.391 479V477C350.868 477 346.391 472.523 346.391 467H344.391H342.391C342.391 474.732 348.659 481 356.391 481V479ZM381.521 467H379.521C379.521 472.523 375.043 477 369.521 477V479V481C377.253 481 383.521 474.732 383.521 467H381.521ZM369.521 431V433C375.043 433 379.521 437.477 379.521 443H381.521H383.521C383.521 435.268 377.253 429 369.521 429V431ZM356.391 431V429C348.659 429 342.391 435.268 342.391 443H344.391H346.391C346.391 437.477 350.868 433 356.391 433V431Z" fill="#22C55E" mask="url(#path-43-inside-9_4299_1072)"/>
<path d="M362.666 461H359.922V450.629H362.471V452.104C362.907 451.407 363.298 450.948 363.643 450.727C363.994 450.505 364.391 450.395 364.834 450.395C365.459 450.395 366.061 450.567 366.641 450.912L365.791 453.305C365.329 453.005 364.899 452.855 364.502 452.855C364.118 452.855 363.792 452.963 363.525 453.178C363.258 453.386 363.047 453.767 362.891 454.32C362.741 454.874 362.666 456.033 362.666 457.797V461Z" fill="#1E1E1E"/>
<g filter="url(#filter2_d_4299_1072)">
<mask id="path-46-inside-10_4299_1072" fill="white">
<path d="M12 672C12 658.745 22.7452 648 36 648H381C394.255 648 405 658.745 405 672V852H12V672Z"/>
</mask>
<path d="M12 672C12 658.745 22.7452 648 36 648H381C394.255 648 405 658.745 405 672V852H12V672Z" fill="white"/>
<path d="M12 672C12 658.193 23.1929 647 37 647H380C393.807 647 405 658.193 405 672C405 659.297 394.255 649 381 649H36C22.7452 649 12 659.297 12 672ZM12 672M405 852H12H405M405 852M12 852V648V852M12 852M405 648V852V648" fill="#E4E7EA" mask="url(#path-46-inside-10_4299_1072)"/>
<path d="M177.648 680.693V689.266H168.26V680.693H177.648ZM170.967 682.863V687.096H174.941V682.863H170.967ZM183.191 679.426V683.68H185.834V685.914H183.191V690.383H180.441V679.426H183.191ZM183.428 691.307V693.477H178.422C178.884 694.938 180.817 696.388 184.287 696.85L183.32 698.934C180.184 698.515 177.971 697.258 176.854 695.582C175.726 697.258 173.523 698.493 170.408 698.891L169.42 696.807C172.943 696.377 174.834 694.98 175.285 693.477H170.258V691.307H183.428ZM192.193 680.457C195.223 680.457 197.521 682.391 197.521 685.184C197.521 687.955 195.223 689.91 192.193 689.91C189.143 689.91 186.822 687.955 186.822 685.184C186.822 682.391 189.143 680.457 192.193 680.457ZM192.193 682.756C190.646 682.734 189.508 683.701 189.529 685.184C189.508 686.73 190.668 687.611 192.193 687.611C193.697 687.611 194.836 686.73 194.857 685.184C194.836 683.701 193.697 682.734 192.193 682.756ZM202.205 679.426V683.658H204.848V685.871H202.205V690.34H199.455V679.426H202.205ZM193.568 691.908C193.547 693.509 194.213 695.142 195.803 696.248C197.403 695.077 198.08 693.369 198.102 691.908V691.178H200.787V691.908C200.787 693.992 201.861 695.883 204.461 696.742L203.129 698.74C201.271 698.085 200.057 696.882 199.391 695.346C198.746 696.882 197.618 698.225 195.846 698.934C194.03 698.246 192.881 696.957 192.258 695.41C191.56 696.903 190.367 698.106 188.605 698.74L187.252 696.742C189.787 695.84 190.926 693.863 190.926 691.908V691.178H193.568V691.908ZM211.1 680.801C213.742 680.801 215.708 682.981 216.105 686.494H219.5V679.426H222.207V699.02H219.5V688.686H216.127C215.837 692.445 213.828 694.744 211.1 694.744C208.135 694.744 206.008 692.059 206.029 687.762C206.008 683.508 208.135 680.801 211.1 680.801ZM211.1 683.271C209.639 683.271 208.629 684.861 208.65 687.762C208.629 690.684 209.639 692.252 211.1 692.252C212.582 692.252 213.549 690.684 213.549 687.762C213.549 684.861 212.582 683.271 211.1 683.271ZM242.617 694.443V696.699H224.721V694.443H228.717V689.652C227.202 688.75 226.289 687.364 226.289 685.635C226.289 682.477 229.383 680.371 233.637 680.371C237.869 680.371 240.984 682.477 241.006 685.635C240.995 687.321 240.104 688.696 238.643 689.609V694.443H242.617ZM233.637 682.541C230.844 682.541 228.996 683.658 228.996 685.635C228.996 687.547 230.844 688.729 233.637 688.729C236.408 688.729 238.277 687.547 238.299 685.635C238.277 683.658 236.408 682.541 233.637 682.541ZM231.424 694.443H235.871V690.641C235.173 690.78 234.421 690.855 233.637 690.855C232.853 690.855 232.111 690.791 231.424 690.641V694.443ZM248.182 681.445L247.902 692.338H245.152L244.873 681.445H248.182ZM246.549 697.193C245.539 697.193 244.723 696.377 244.744 695.389C244.723 694.4 245.539 693.605 246.549 693.605C247.494 693.605 248.332 694.4 248.332 695.389C248.332 696.377 247.494 697.193 246.549 697.193Z" fill="#22C55E"/>
<path d="M157.203 716.516V718.25H155.609V722.391C155.609 723.062 155.938 723.234 156.406 723.25C156.641 723.25 157.047 723.234 157.328 723.203V725.031C157.078 725.078 156.672 725.109 156.094 725.109C154.422 725.109 153.281 724.359 153.297 722.719V718.25H152.125V716.516H153.297V714.484H155.609V716.516H157.203ZM162.422 725.172C159.828 725.172 158.234 723.484 158.234 720.797C158.234 718.172 159.844 716.406 162.328 716.406C164.562 716.406 166.312 717.812 166.312 720.703V721.359H160.516C160.516 722.641 161.281 723.438 162.469 723.438C163.25 723.438 163.812 723.094 164.047 722.578H166.25C165.922 724.141 164.516 725.172 162.422 725.172ZM160.516 719.906H164.125C164.125 718.875 163.406 718.141 162.375 718.141C161.312 718.141 160.555 718.93 160.516 719.906ZM171.609 725.172C169.016 725.172 167.422 723.484 167.422 720.797C167.422 718.172 169.031 716.406 171.516 716.406C173.75 716.406 175.5 717.812 175.5 720.703V721.359H169.703C169.703 722.641 170.469 723.438 171.656 723.438C172.438 723.438 173 723.094 173.234 722.578H175.438C175.109 724.141 173.703 725.172 171.609 725.172ZM169.703 719.906H173.312C173.312 718.875 172.594 718.141 171.562 718.141C170.5 718.141 169.742 718.93 169.703 719.906ZM179.266 720.094V725H176.953V716.516H179.156V718H179.25C179.641 717.016 180.547 716.406 181.797 716.406C183.562 716.406 184.734 717.609 184.719 719.594V725H182.422V720C182.422 718.953 181.844 718.328 180.891 718.328C179.922 718.328 179.266 718.969 179.266 720.094ZM186.109 722.625C186.109 720.734 187.641 720.109 189.266 720.016C189.875 719.977 191.016 719.922 191.375 719.906V719.219C191.359 718.516 190.875 718.094 190.016 718.094C189.234 718.094 188.734 718.453 188.609 719.031H186.406C186.547 717.562 187.828 716.406 190.078 716.406C191.922 716.406 193.672 717.234 193.672 719.281V725H191.484V723.828H191.422C191 724.609 190.203 725.156 188.938 725.156C187.312 725.156 186.109 724.312 186.109 722.625ZM188.328 722.562C188.328 723.219 188.859 723.562 189.594 723.562C190.641 723.562 191.391 722.859 191.375 721.969V721.344C191.023 721.359 190.039 721.414 189.641 721.453C188.844 721.531 188.328 721.906 188.328 722.562ZM199.25 728.359C196.906 728.359 195.469 727.312 195.328 725.703H197.609C197.734 726.375 198.375 726.688 199.297 726.688C200.375 726.688 201.094 726.234 201.094 725.047V723.5H200.984C200.672 724.188 199.922 724.875 198.562 724.875C196.641 724.875 195.109 723.531 195.109 720.703C195.109 717.828 196.688 716.406 198.562 716.406C199.984 716.406 200.672 717.25 200.984 717.938H201.078V716.516H203.375V725.094C203.375 727.25 201.656 728.359 199.25 728.359ZM199.281 723.141C200.438 723.141 201.094 722.234 201.094 720.734C201.094 719.219 200.438 718.25 199.281 718.25C198.109 718.25 197.484 719.266 197.484 720.734C197.484 722.203 198.109 723.141 199.281 723.141ZM209.016 725.172C206.422 725.172 204.828 723.484 204.828 720.797C204.828 718.172 206.438 716.406 208.922 716.406C211.156 716.406 212.906 717.812 212.906 720.703V721.359H207.109C207.109 722.641 207.875 723.438 209.062 723.438C209.844 723.438 210.406 723.094 210.641 722.578H212.844C212.516 724.141 211.109 725.172 209.016 725.172ZM207.109 719.906H210.719C210.719 718.875 210 718.141 208.969 718.141C207.906 718.141 207.148 718.93 207.109 719.906ZM214.359 725V716.516H216.594V717.984H216.688C217 716.938 217.781 716.391 218.734 716.391C218.969 716.391 219.266 716.422 219.469 716.469V718.531C219.25 718.469 218.812 718.406 218.484 718.406C217.438 718.406 216.672 719.141 216.672 720.172V725H214.359ZM224.812 719.609V717.688H232.406V719.609H224.812ZM224.812 723.266V721.344H232.406V723.266H224.812ZM243.391 713.969C243.375 715.641 244.406 717.312 246.734 717.984L245.781 719.531C244.141 719.047 243.008 718.062 242.359 716.797C241.719 718.172 240.547 719.258 238.844 719.766L237.891 718.203C240.266 717.5 241.312 715.703 241.312 713.969V712.641H243.391V713.969ZM249.844 712.219V719.859H247.844V712.219H249.844ZM242.297 720.484V721.812H247.859V720.484H249.844V726.281H240.328V720.484H242.297ZM242.297 724.672H247.859V723.359H242.297V724.672ZM264.062 712.219V726.438H262.172V719.297H260.797V725.75H258.969V712.453H260.797V717.703H262.172V712.219H264.062ZM257.469 713.859V715.469H254.172V721.531C255.547 721.523 256.766 721.453 258.141 721.203L258.281 722.828C256.547 723.156 255.031 723.203 253.156 723.219H252.172V713.859H257.469Z" fill="#111827"/>
<g filter="url(#filter3_di_4299_1072)">
<path d="M42 767C42 758.163 49.1634 751 58 751H359C367.837 751 375 758.163 375 767V795C375 803.837 367.837 811 359 811H58C49.1634 811 42 803.837 42 795V767Z" fill="#22C55E" shape-rendering="crispEdges"/>
<path d="M58 751.5H359C367.56 751.5 374.5 758.44 374.5 767V795C374.5 803.56 367.56 810.5 359 810.5H58C49.4396 810.5 42.5 803.56 42.5 795V767C42.5 758.44 49.4396 751.5 58 751.5Z" stroke="white" shape-rendering="crispEdges"/>
<path d="M189.344 770.621V786.617H187.234V770.621H189.344ZM186.004 770.973V785.914H183.877V780.641H181.609V778.83H183.877V776.65H181.908C181.161 779.287 179.544 781.52 176.547 783.295L175.229 781.713C178.472 779.797 179.896 777.468 180.203 774.33H176.16V772.52H182.436C182.436 773.319 182.383 774.093 182.295 774.84H183.877V770.973H186.004ZM205.621 778.408V780.201H191.031V778.408H197.201V776.281H199.416V778.408H205.621ZM199.451 771.412C199.451 773.275 201.244 775.051 204.848 775.49L203.986 777.23C201.288 776.826 199.302 775.692 198.291 774.084C197.263 775.692 195.276 776.835 192.578 777.23L191.787 775.49C195.32 775.051 197.166 773.223 197.166 771.412V770.885H199.451V771.412ZM203.846 781.326V786.617H201.613V783.066H192.648V781.326H203.846ZM219.209 770.621V776.879H221.564V778.725H219.209V786.617H216.994V770.621H219.209ZM215.904 773.012V774.805H206.5V773.012H210.121V770.867H212.371V773.012H215.904ZM211.246 775.701C213.584 775.701 215.324 777.283 215.324 779.516C215.324 781.748 213.584 783.33 211.246 783.33C208.891 783.33 207.15 781.748 207.15 779.516C207.15 777.283 208.891 775.701 211.246 775.701ZM211.246 777.512C210.121 777.529 209.295 778.285 209.295 779.516C209.295 780.764 210.121 781.502 211.246 781.484C212.371 781.502 213.18 780.764 213.18 779.516C213.18 778.285 212.371 777.529 211.246 777.512ZM235.592 770.621V786.617H233.324V770.621H235.592ZM230.793 772.291C230.793 777.143 229.088 781.168 223.375 783.875L222.197 782.082C226.328 780.131 228.147 777.6 228.508 774.049H223.059V772.291H230.793Z" fill="white"/>
</g>
</g>
<defs>
<filter id="filter0_i_4299_1072" x="35.6172" y="134" width="342" height="38" filterUnits="userSpaceOnUse" color-interpolation-filters="sRGB">
<feFlood flood-opacity="0" result="BackgroundImageFix"/>
<feBlend mode="normal" in="SourceGraphic" in2="BackgroundImageFix" result="shape"/>
<feColorMatrix in="SourceAlpha" type="matrix" values="0 0 0 0 0 0 0 0 0 0 0 0 0 0 0 0 0 0 127 0" result="hardAlpha"/>
<feOffset dy="4"/>
<feGaussianBlur stdDeviation="2"/>
<feComposite in2="hardAlpha" operator="arithmetic" k2="-1" k3="1"/>
<feColorMatrix type="matrix" values="0 0 0 0 0.651984 0 0 0 0 0.660851 0 0 0 0 0.705182 0 0 0 0.25 0"/>
<feBlend mode="normal" in2="shape" result="effect1_innerShadow_4299_1072"/>
</filter>
<filter id="filter1_i_4299_1072" x="43.6172" y="142" width="128" height="22" filterUnits="userSpaceOnUse" color-interpolation-filters="sRGB">
<feFlood flood-opacity="0" result="BackgroundImageFix"/>
<feBlend mode="normal" in="SourceGraphic" in2="BackgroundImageFix" result="shape"/>
<feColorMatrix in="SourceAlpha" type="matrix" values="0 0 0 0 0 0 0 0 0 0 0 0 0 0 0 0 0 0 127 0" result="hardAlpha"/>
<feOffset dy="4"/>
<feGaussianBlur stdDeviation="2"/>
<feComposite in2="hardAlpha" operator="arithmetic" k2="-1" k3="1"/>
<feColorMatrix type="matrix" values="0 0 0 0 1 0 0 0 0 1 0 0 0 0 1 0 0 0 0.25 0"/>
<feBlend mode="normal" in2="shape" result="effect1_innerShadow_4299_1072"/>
</filter>
<filter id="filter2_d_4299_1072" x="0" y="626" width="417" height="228" filterUnits="userSpaceOnUse" color-interpolation-filters="sRGB">
<feFlood flood-opacity="0" result="BackgroundImageFix"/>
<feColorMatrix in="SourceAlpha" type="matrix" values="0 0 0 0 0 0 0 0 0 0 0 0 0 0 0 0 0 0 127 0" result="hardAlpha"/>
<feMorphology radius="18" operator="erode" in="SourceAlpha" result="effect1_dropShadow_4299_1072"/>
<feOffset dy="-10"/>
<feGaussianBlur stdDeviation="15"/>
<feComposite in2="hardAlpha" operator="out"/>
<feColorMatrix type="matrix" values="0 0 0 0 0 0 0 0 0 0 0 0 0 0 0 0 0 0 0.25 0"/>
<feBlend mode="normal" in2="BackgroundImageFix" result="effect1_dropShadow_4299_1072"/>
<feBlend mode="normal" in="SourceGraphic" in2="effect1_dropShadow_4299_1072" result="shape"/>
</filter>
<filter id="filter3_di_4299_1072" x="38" y="747" width="341" height="68" filterUnits="userSpaceOnUse" color-interpolation-filters="sRGB">
<feFlood flood-opacity="0" result="BackgroundImageFix"/>
<feColorMatrix in="SourceAlpha" type="matrix" values="0 0 0 0 0 0 0 0 0 0 0 0 0 0 0 0 0 0 127 0" result="hardAlpha"/>
<feOffset/>
<feGaussianBlur stdDeviation="2"/>
<feComposite in2="hardAlpha" operator="out"/>
<feColorMatrix type="matrix" values="0 0 0 0 0.715912 0 0 0 0 0.69906 0 0 0 0 0.614798 0 0 0 0.25 0"/>
<feBlend mode="normal" in2="BackgroundImageFix" result="effect1_dropShadow_4299_1072"/>
<feBlend mode="normal" in="SourceGraphic" in2="effect1_dropShadow_4299_1072" result="shape"/>
<feColorMatrix in="SourceAlpha" type="matrix" values="0 0 0 0 0 0 0 0 0 0 0 0 0 0 0 0 0 0 127 0" result="hardAlpha"/>
<feOffset dy="4"/>
<feGaussianBlur stdDeviation="2"/>
<feComposite in2="hardAlpha" operator="arithmetic" k2="-1" k3="1"/>
<feColorMatrix type="matrix" values="0 0 0 0 1 0 0 0 0 1 0 0 0 0 1 0 0 0 0.25 0"/>
<feBlend mode="normal" in2="shape" result="effect2_innerShadow_4299_1072"/>
</filter>
<linearGradient id="paint0_linear_4299_1072" x1="172.666" y1="154.13" x2="244.97" y2="422.699" gradientUnits="userSpaceOnUse">
<stop stop-color="#F7FAFF"/>
<stop offset="1" stop-color="#EEF4FD"/>
</linearGradient>
<linearGradient id="paint1_linear_4299_1072" x1="196.5" y1="0" x2="196.5" y2="174" gradientUnits="userSpaceOnUse">
<stop stop-color="white" stop-opacity="0"/>
<stop offset="0.22" stop-color="white"/>
</linearGradient>
</defs>
</svg>
