<svg width="393" height="852" viewBox="0 0 393 852" fill="none" xmlns="http://www.w3.org/2000/svg">
<g clip-path="url(#clip0_2917_8571)">
<rect width="393" height="852" fill="white"/>
<rect x="25.6172" y="186" width="352" height="136" rx="20" fill="white"/>
<path d="M164.039 248.031L158.07 265H152.883L146.945 248.031H151.82L155.383 260.219H155.57L159.133 248.031H164.039ZM165.008 260.25C165.008 256.469 168.07 255.219 171.32 255.031C172.539 254.953 174.82 254.844 175.539 254.812V253.438C175.508 252.031 174.539 251.188 172.82 251.188C171.258 251.188 170.258 251.906 170.008 253.062H165.602C165.883 250.125 168.445 247.812 172.945 247.812C176.633 247.812 180.133 249.469 180.133 253.562V265H175.758V262.656H175.633C174.789 264.219 173.195 265.312 170.664 265.312C167.414 265.312 165.008 263.625 165.008 260.25ZM169.445 260.125C169.445 261.438 170.508 262.125 171.977 262.125C174.07 262.125 175.57 260.719 175.539 258.938V257.688C174.836 257.719 172.867 257.828 172.07 257.906C170.477 258.062 169.445 258.812 169.445 260.125ZM183.664 265V248.031H188.133V250.969H188.32C188.945 248.875 190.508 247.781 192.414 247.781C192.883 247.781 193.477 247.844 193.883 247.938V252.062C193.445 251.938 192.57 251.812 191.914 251.812C189.82 251.812 188.289 253.281 188.289 255.344V265H183.664ZM196.133 265V248.031H200.758V265H196.133ZM198.445 245.812C197.039 245.812 195.914 244.75 195.914 243.469C195.914 242.156 197.039 241.094 198.445 241.094C199.82 241.094 200.945 242.156 200.945 243.469C200.945 244.75 199.82 245.812 198.445 245.812ZM211.977 265.344C206.852 265.344 203.664 261.812 203.664 256.562C203.664 251.312 206.852 247.812 211.977 247.812C217.102 247.812 220.32 251.312 220.32 256.562C220.32 261.812 217.102 265.344 211.977 265.344ZM212.008 261.75C214.383 261.75 215.602 259.531 215.602 256.562C215.602 253.562 214.383 251.344 212.008 251.344C209.602 251.344 208.352 253.562 208.352 256.562C208.352 259.531 209.602 261.75 212.008 261.75ZM234.102 257.781V248.031H238.727V265H234.289V261.938H234.102C233.32 263.906 231.508 265.219 228.945 265.219C225.539 265.219 223.227 262.812 223.227 258.844V248.031H227.852V258.031C227.852 260.031 229.008 261.312 230.82 261.312C232.508 261.312 234.102 260.094 234.102 257.781ZM252.008 253.062C251.82 251.875 250.758 251.094 249.227 251.094C247.727 251.094 246.57 251.812 246.602 252.844C246.57 253.594 247.195 254.188 248.789 254.531L251.82 255.156C255.102 255.844 256.695 257.312 256.727 259.75C256.695 263.094 253.695 265.344 249.195 265.344C244.602 265.344 241.914 263.281 241.539 259.969H246.195C246.414 261.312 247.508 262 249.195 262C250.883 262 252.008 261.312 252.008 260.219C252.008 259.344 251.289 258.812 249.695 258.469L246.883 257.906C243.664 257.281 241.977 255.594 242.008 253.094C241.977 249.844 244.789 247.812 249.164 247.812C253.445 247.812 256.102 249.844 256.352 253.062H252.008Z" fill="#1E1E1E"/>
<rect x="87" y="232" width="46.5" height="45.875" rx="22.9375" fill="#E3F2FD"/>
<path d="M112.75 265.875V263.312C114.625 262.771 116.135 261.729 117.281 260.188C118.427 258.646 119 256.896 119 254.938C119 252.979 118.427 251.229 117.281 249.688C116.135 248.146 114.625 247.104 112.75 246.562V244C115.333 244.583 117.438 245.891 119.062 247.922C120.688 249.953 121.5 252.292 121.5 254.938C121.5 257.583 120.688 259.922 119.062 261.953C117.438 263.984 115.333 265.292 112.75 265.875ZM99 258.719V251.219H104L110.25 244.969V264.969L104 258.719H99ZM112.75 259.969V249.906C113.729 250.365 114.495 251.052 115.047 251.969C115.599 252.885 115.875 253.885 115.875 254.969C115.875 256.031 115.599 257.016 115.047 257.922C114.495 258.828 113.729 259.51 112.75 259.969ZM107.75 251.031L105.062 253.719H101.5V256.219H105.062L107.75 258.906V251.031Z" fill="#4A90E2"/>
<rect x="-1.38281" width="393" height="119" fill="white"/>
<rect width="393" height="66.3895" transform="translate(-1.38281)" fill="white"/>
<path d="M37.5698 38V28.1304H37.4204L34.4404 30.2305V28.2217L37.5698 26.022H39.7031V38H37.5698ZM47.5059 38.2407C46.5872 38.2407 45.7765 38.0941 45.0737 37.8008C44.3709 37.502 43.8203 37.0924 43.4219 36.5723C43.029 36.0465 42.8325 35.4434 42.8325 34.7627V34.7461C42.8325 34.2314 42.946 33.7666 43.1729 33.3516C43.4053 32.931 43.7262 32.5768 44.1357 32.2891C44.5452 32.0013 45.0156 31.8049 45.5469 31.6997V31.6499C44.8607 31.4673 44.3073 31.1408 43.8867 30.6704C43.4717 30.1945 43.2642 29.6356 43.2642 28.9937V28.9771C43.2642 28.3628 43.444 27.8149 43.8037 27.3335C44.1689 26.8521 44.6698 26.473 45.3062 26.1963C45.9481 25.9196 46.6813 25.7812 47.5059 25.7812C48.3304 25.7812 49.0609 25.9196 49.6973 26.1963C50.3392 26.473 50.84 26.8521 51.1997 27.3335C51.5594 27.8149 51.7393 28.3628 51.7393 28.9771V28.9937C51.7393 29.6356 51.5317 30.1945 51.1167 30.6704C50.7017 31.1408 50.151 31.4673 49.4648 31.6499V31.6997C49.9961 31.8049 50.4665 32.0013 50.876 32.2891C51.2855 32.5768 51.6037 32.931 51.8306 33.3516C52.063 33.7666 52.1792 34.2314 52.1792 34.7461V34.7627C52.1792 35.4434 51.98 36.0465 51.5815 36.5723C51.1886 37.0924 50.6408 37.502 49.938 37.8008C49.2352 38.0941 48.4245 38.2407 47.5059 38.2407ZM47.5059 36.6055C47.9873 36.6055 48.4106 36.5225 48.7759 36.3564C49.1466 36.1849 49.4372 35.9497 49.6475 35.6509C49.8577 35.3465 49.9629 35.0034 49.9629 34.6216V34.605C49.9629 34.2176 49.8577 33.8745 49.6475 33.5757C49.4427 33.2713 49.1549 33.0334 48.7842 32.8618C48.4134 32.6903 47.9873 32.6045 47.5059 32.6045C47.0189 32.6045 46.59 32.6903 46.2192 32.8618C45.854 33.0334 45.5662 33.2713 45.356 33.5757C45.1457 33.8745 45.0405 34.2176 45.0405 34.605V34.6216C45.0405 35.0034 45.1457 35.3465 45.356 35.6509C45.5718 35.9497 45.8623 36.1849 46.2275 36.3564C46.5983 36.5225 47.0244 36.6055 47.5059 36.6055ZM47.5059 30.9692C47.9264 30.9692 48.2944 30.8945 48.6099 30.7451C48.9308 30.5902 49.1799 30.3799 49.3569 30.1143C49.5396 29.8486 49.6309 29.5387 49.6309 29.1846V29.168C49.6309 28.8193 49.5396 28.5122 49.3569 28.2466C49.1799 27.981 48.9308 27.7734 48.6099 27.624C48.2889 27.4746 47.9209 27.3999 47.5059 27.3999C47.0853 27.3999 46.7145 27.4746 46.3936 27.624C46.0781 27.7734 45.8291 27.981 45.6465 28.2466C45.4694 28.5122 45.3809 28.8193 45.3809 29.168V29.1846C45.3809 29.5387 45.4694 29.8486 45.6465 30.1143C45.8291 30.3799 46.0781 30.5902 46.3936 30.7451C46.7145 30.8945 47.0853 30.9692 47.5059 30.9692ZM56.0308 36.3896C55.6545 36.3896 55.339 36.2651 55.0845 36.0161C54.8354 35.7616 54.7109 35.4517 54.7109 35.0864C54.7109 34.7157 54.8354 34.4058 55.0845 34.1567C55.339 33.9022 55.6545 33.7749 56.0308 33.7749C56.4126 33.7749 56.728 33.9022 56.9771 34.1567C57.2261 34.4058 57.3506 34.7157 57.3506 35.0864C57.3506 35.4517 57.2261 35.7616 56.9771 36.0161C56.728 36.2651 56.4126 36.3896 56.0308 36.3896ZM56.0308 30.2305C55.6545 30.2305 55.339 30.106 55.0845 29.8569C54.8354 29.6024 54.7109 29.2925 54.7109 28.9272C54.7109 28.5565 54.8354 28.2466 55.0845 27.9976C55.339 27.743 55.6545 27.6157 56.0308 27.6157C56.4126 27.6157 56.728 27.743 56.9771 27.9976C57.2261 28.2466 57.3506 28.5565 57.3506 28.9272C57.3506 29.2925 57.2261 29.6024 56.9771 29.8569C56.728 30.106 56.4126 30.2305 56.0308 30.2305ZM64.3896 38.2988C63.4378 38.2988 62.6216 38.0443 61.9409 37.5352C61.2658 37.026 60.7456 36.3011 60.3804 35.3604C60.0151 34.4196 59.8325 33.3045 59.8325 32.0151V31.9985C59.8325 30.7091 60.0151 29.5968 60.3804 28.6616C60.7456 27.7209 61.2658 26.9959 61.9409 26.4868C62.6216 25.9777 63.4378 25.7231 64.3896 25.7231C65.3415 25.7231 66.1577 25.9777 66.8384 26.4868C67.519 26.9959 68.042 27.7209 68.4072 28.6616C68.7725 29.5968 68.9551 30.7091 68.9551 31.9985V32.0151C68.9551 33.3045 68.7725 34.4196 68.4072 35.3604C68.042 36.3011 67.519 37.026 66.8384 37.5352C66.1577 38.0443 65.3415 38.2988 64.3896 38.2988ZM64.3896 36.564C64.8988 36.564 65.3332 36.3813 65.6929 36.0161C66.0526 35.6509 66.3265 35.1307 66.5146 34.4556C66.7083 33.7749 66.8052 32.9614 66.8052 32.0151V31.9985C66.8052 31.0522 66.7083 30.2415 66.5146 29.5664C66.3265 28.8857 66.0526 28.3656 65.6929 28.0059C65.3332 27.6406 64.8988 27.458 64.3896 27.458C63.8805 27.458 63.4461 27.6406 63.0864 28.0059C62.7323 28.3656 62.4583 28.8857 62.2646 29.5664C62.0765 30.2415 61.9824 31.0522 61.9824 31.9985V32.0151C61.9824 32.9614 62.0765 33.7749 62.2646 34.4556C62.4583 35.1307 62.7323 35.6509 63.0864 36.0161C63.4461 36.3813 63.8805 36.564 64.3896 36.564ZM75.6953 38.2988C74.7435 38.2988 73.9272 38.0443 73.2466 37.5352C72.5715 37.026 72.0513 36.3011 71.686 35.3604C71.3208 34.4196 71.1382 33.3045 71.1382 32.0151V31.9985C71.1382 30.7091 71.3208 29.5968 71.686 28.6616C72.0513 27.7209 72.5715 26.9959 73.2466 26.4868C73.9272 25.9777 74.7435 25.7231 75.6953 25.7231C76.6471 25.7231 77.4634 25.9777 78.144 26.4868C78.8247 26.9959 79.3477 27.7209 79.7129 28.6616C80.0781 29.5968 80.2607 30.7091 80.2607 31.9985V32.0151C80.2607 33.3045 80.0781 34.4196 79.7129 35.3604C79.3477 36.3011 78.8247 37.026 78.144 37.5352C77.4634 38.0443 76.6471 38.2988 75.6953 38.2988ZM75.6953 36.564C76.2044 36.564 76.6388 36.3813 76.9985 36.0161C77.3582 35.6509 77.6322 35.1307 77.8203 34.4556C78.014 33.7749 78.1108 32.9614 78.1108 32.0151V31.9985C78.1108 31.0522 78.014 30.2415 77.8203 29.5664C77.6322 28.8857 77.3582 28.3656 76.9985 28.0059C76.6388 27.6406 76.2044 27.458 75.6953 27.458C75.1862 27.458 74.7518 27.6406 74.3921 28.0059C74.0379 28.3656 73.764 28.8857 73.5703 29.5664C73.3822 30.2415 73.2881 31.0522 73.2881 31.9985V32.0151C73.2881 32.9614 73.3822 33.7749 73.5703 34.4556C73.764 35.1307 74.0379 35.6509 74.3921 36.0161C74.7518 36.3813 75.1862 36.564 75.6953 36.564Z" fill="black"/>
<path fill-rule="evenodd" clip-rule="evenodd" d="M313.231 27.0329C313.231 26.3999 312.754 25.8867 312.165 25.8867H311.098C310.509 25.8867 310.031 26.3999 310.031 27.0329V36.9669C310.031 37.5999 310.509 38.1131 311.098 38.1131H312.165C312.754 38.1131 313.231 37.5999 313.231 36.9669V27.0329ZM305.797 28.332H306.864C307.453 28.332 307.93 28.8575 307.93 29.5057V36.9394C307.93 37.5876 307.453 38.1131 306.864 38.1131H305.797C305.208 38.1131 304.73 37.5876 304.73 36.9394V29.5057C304.73 28.8575 305.208 28.332 305.797 28.332ZM301.465 30.981H300.399C299.81 30.981 299.332 31.5132 299.332 32.1697V36.9244C299.332 37.5809 299.81 38.1131 300.399 38.1131H301.465C302.054 38.1131 302.532 37.5809 302.532 36.9244V32.1697C302.532 31.5132 302.054 30.981 301.465 30.981ZM296.165 33.4263H295.098C294.509 33.4263 294.031 33.9509 294.031 34.598V36.9414C294.031 37.5885 294.509 38.1131 295.098 38.1131H296.165C296.754 38.1131 297.231 37.5885 297.231 36.9414V34.598C297.231 33.9509 296.754 33.4263 296.165 33.4263Z" fill="black"/>
<path fill-rule="evenodd" clip-rule="evenodd" d="M328.802 28.3022C331.289 28.3023 333.681 29.2244 335.483 30.8779C335.619 31.0055 335.836 31.0039 335.97 30.8743L337.267 29.6108C337.335 29.545 337.373 29.456 337.372 29.3633C337.372 29.2706 337.333 29.182 337.264 29.117C332.533 24.7423 325.07 24.7423 320.339 29.117C320.27 29.1819 320.231 29.2705 320.23 29.3632C320.23 29.4559 320.268 29.545 320.335 29.6108L321.633 30.8743C321.767 31.0041 321.984 31.0057 322.119 30.8779C323.922 29.2243 326.314 28.3022 328.802 28.3022ZM328.798 32.5225C330.156 32.5224 331.465 33.0342 332.471 33.9583C332.607 34.0894 332.821 34.0866 332.954 33.9519L334.241 32.6326C334.309 32.5634 334.347 32.4695 334.346 32.3719C334.345 32.2744 334.305 32.1813 334.236 32.1135C331.172 29.2227 326.427 29.2227 323.364 32.1135C323.294 32.1813 323.255 32.2744 323.254 32.372C323.253 32.4696 323.291 32.5635 323.359 32.6326L324.646 33.9519C324.778 34.0866 324.993 34.0894 325.129 33.9583C326.134 33.0348 327.442 32.5231 328.798 32.5225ZM331.323 35.316C331.325 35.4214 331.288 35.523 331.22 35.5968L329.044 38.0515C328.98 38.1236 328.893 38.1642 328.802 38.1642C328.711 38.1642 328.624 38.1236 328.561 38.0515L326.384 35.5968C326.316 35.5229 326.279 35.4213 326.281 35.316C326.283 35.2106 326.324 35.1108 326.394 35.0402C327.784 33.7263 329.82 33.7263 331.21 35.0402C331.28 35.1109 331.321 35.2107 331.323 35.316Z" fill="black"/>
<rect opacity="0.35" x="344.875" y="26" width="24" height="12" rx="3.8" stroke="black"/>
<path opacity="0.4" d="M370.375 30.2812V34.3567C371.18 34.0116 371.703 33.2086 371.703 32.319C371.703 31.4294 371.18 30.6264 370.375 30.2812Z" fill="black"/>
<rect x="346.375" y="27.5" width="21" height="9" rx="2.5" fill="black"/>
<path d="M77.3691 82.832C78.5762 82.832 79.6045 82.9375 80.4541 83.1484C81.3096 83.3594 81.9629 83.6699 82.4141 84.0801C82.8652 84.4844 83.0938 84.9766 83.0996 85.5566C83.0938 86.3594 82.6777 86.9922 81.8516 87.4551C81.0254 87.918 79.8477 88.1904 78.3184 88.2725V89.2832H84.6289V90.8477H70.1445V89.2832H76.3848V88.2725C74.8613 88.1846 73.6895 87.9092 72.8691 87.4463C72.0488 86.9834 71.6387 86.3535 71.6387 85.5566C71.6387 84.9766 71.8643 84.4844 72.3154 84.0801C72.7666 83.6699 73.4199 83.3594 74.2754 83.1484C75.1309 82.9375 76.1621 82.832 77.3691 82.832ZM77.3691 84.291C76.1562 84.291 75.2363 84.3994 74.6094 84.6162C73.9883 84.8271 73.6836 85.1406 73.6953 85.5566C73.6895 85.9902 73.9912 86.3125 74.6006 86.5234C75.2158 86.7344 76.1387 86.8457 77.3691 86.8574C78.6113 86.8457 79.54 86.7344 80.1553 86.5234C80.7705 86.3125 81.0781 85.9902 81.0781 85.5566C81.0781 85.1406 80.7646 84.8271 80.1377 84.6162C79.5166 84.3994 78.5938 84.291 77.3691 84.291ZM82.8184 95.752H73.7832V96.9297H83.2578V98.4238H71.8672V94.3633H80.9023V93.3438H71.8496V91.8672H82.8184V95.752ZM98.1465 88.7207H100.59V90.373H98.1465V98.5645H96.1953V82.6738H98.1465V88.7207ZM88.1973 87.9473H91.9414V83.9746H93.8926V94.8379H86.2637V83.9746H88.1973V87.9473ZM91.9414 93.2383V89.4766H88.1973V93.2383H91.9414ZM115.76 92.9043H101.24V91.3398H115.76V92.9043ZM114.318 98.248H103.104V93.9062H105.072V96.666H114.318V98.248ZM113.967 87.332H105.02V88.6855H114.283V90.1621H103.086V85.9258H112.016V84.625H103.033V83.0957H113.967V87.332ZM135.57 91.709H121.086V90.127H135.57V91.709ZM134.305 88.9492H128.785V83.4473H134.199V84.9941H130.754V87.3848H134.305V88.9492ZM127.959 84.9941H124.391V87.3848C125.076 87.373 125.709 87.3379 126.289 87.2793C126.875 87.2148 127.473 87.1152 128.082 86.9805L128.258 88.5625C127.49 88.7207 126.746 88.8262 126.025 88.8789C125.305 88.9258 124.426 88.9492 123.389 88.9492H122.439V83.4473H127.959V84.9941ZM129.33 93.0977C129.33 93.7188 129.538 94.2988 129.954 94.8379C130.376 95.377 130.979 95.834 131.765 96.209C132.556 96.5781 133.49 96.8242 134.568 96.9473L133.848 98.4766C132.564 98.2949 131.448 97.9463 130.499 97.4307C129.55 96.9209 128.832 96.2793 128.346 95.5059C127.859 96.2793 127.142 96.9209 126.192 97.4307C125.243 97.9463 124.127 98.2949 122.844 98.4766L122.141 96.9473C123.213 96.8242 124.142 96.5781 124.927 96.209C125.712 95.834 126.31 95.377 126.72 94.8379C127.136 94.2988 127.344 93.7188 127.344 93.0977V92.7285H129.33V93.0977ZM146.697 85.4863C146.697 86.2012 146.838 86.8896 147.119 87.5518C147.406 88.2139 147.828 88.8027 148.385 89.3184C148.947 89.8281 149.627 90.2207 150.424 90.4961L149.352 92.0254C148.508 91.7031 147.778 91.2461 147.163 90.6543C146.554 90.0625 146.079 89.3711 145.739 88.5801C145.388 89.4707 144.887 90.2441 144.236 90.9004C143.592 91.5566 142.812 92.0547 141.898 92.3945L140.861 90.8477C141.688 90.5664 142.388 90.1533 142.962 89.6084C143.542 89.0635 143.979 88.4336 144.271 87.7188C144.57 87.0039 144.723 86.2539 144.729 85.4688V83.6582H146.697V85.4863ZM154.221 94.4863H152.27V87.7891H149.105V86.1895H152.27V82.6914H154.221V94.4863ZM154.572 98.248H143.744V93.2031H145.73V96.666H154.572V98.248ZM163.309 85.3457H158.949V86.8926H163.15V88.3867H158.949V90.0566C159.975 90.0449 160.851 90.0127 161.577 89.96C162.31 89.9072 163.045 89.8105 163.783 89.6699L163.994 91.252C163.121 91.416 162.26 91.5244 161.41 91.5771C160.566 91.6299 159.471 91.6562 158.123 91.6562H157.068V83.7812H163.309V85.3457ZM170.059 92.3594H168.195V88.2285H166.543V92.2363H164.715V82.9902H166.543V86.6641H168.195V82.6914H170.059V92.3594ZM170.059 98.5645H168.107V94.6445H159.178V93.0625H170.059V98.5645ZM184.473 89.002H186.916V90.6191H184.473V98.5645H182.539V82.6738H184.473V89.002ZM181.309 86.6816H171.939V85.1172H175.701V82.9023H177.652V85.1172H181.309V86.6816ZM176.686 87.7188C177.441 87.7188 178.121 87.8799 178.725 88.2021C179.334 88.5186 179.812 88.9609 180.157 89.5293C180.503 90.0977 180.676 90.7422 180.676 91.4629C180.676 92.1836 180.503 92.8281 180.157 93.3965C179.812 93.959 179.334 94.3984 178.725 94.7148C178.121 95.0312 177.441 95.1895 176.686 95.1895C175.918 95.1895 175.229 95.0312 174.62 94.7148C174.011 94.3984 173.533 93.959 173.188 93.3965C172.842 92.8281 172.672 92.1836 172.678 91.4629C172.672 90.7422 172.842 90.0977 173.188 89.5293C173.533 88.9609 174.011 88.5186 174.62 88.2021C175.229 87.8799 175.918 87.7188 176.686 87.7188ZM176.686 89.3184C176.27 89.3184 175.897 89.4062 175.569 89.582C175.247 89.7578 174.995 90.0098 174.813 90.3379C174.632 90.6602 174.541 91.0352 174.541 91.4629C174.541 91.8906 174.632 92.2656 174.813 92.5879C174.995 92.9043 175.247 93.1504 175.569 93.3262C175.897 93.4961 176.27 93.5781 176.686 93.5723C177.09 93.5781 177.45 93.4961 177.767 93.3262C178.089 93.1504 178.341 92.9043 178.522 92.5879C178.71 92.2656 178.807 91.8906 178.812 91.4629C178.807 91.0352 178.71 90.6602 178.522 90.3379C178.341 90.0156 178.089 89.7666 177.767 89.5908C177.45 89.4092 177.09 89.3184 176.686 89.3184ZM200.855 98.5645H198.887V82.6738H200.855V98.5645ZM196.109 84.3613C196.109 86.8867 195.538 89.1045 194.396 91.0146C193.253 92.9189 191.357 94.498 188.709 95.752L187.689 94.1875C189.734 93.2148 191.272 92.0518 192.304 90.6982C193.341 89.3389 193.947 87.7422 194.123 85.9082H188.498V84.3613H196.109Z" fill="#1E1E1E"/>
<g filter="url(#filter0_i_2917_8571)">
<rect x="31.6172" y="142" width="326" height="18" rx="9" fill="#E3E7EA"/>
</g>
<rect x="27.6172" y="138" width="334" height="26" rx="13" stroke="#F0F5FA" stroke-width="8"/>
<g filter="url(#filter1_i_2917_8571)">
<rect x="31.6172" y="142" width="128" height="18" rx="9" fill="#3C86FF"/>
</g>
<path d="M180.214 154.286V152.966L184.188 146.809H186.244V152.928H187.45V154.286H186.244V156H184.67V154.286H180.214ZM181.902 152.928H184.695V148.688H184.594L181.902 152.864V152.928ZM192.109 156.127C190.059 156.127 188.612 155.035 188.618 153.537C188.612 152.369 189.481 151.417 190.586 151.239V151.188C189.621 150.985 188.967 150.147 188.961 149.145C188.967 147.723 190.294 146.682 192.109 146.682C193.912 146.682 195.245 147.723 195.245 149.145C195.245 150.154 194.572 150.985 193.62 151.188V151.239C194.718 151.417 195.594 152.369 195.601 153.537C195.594 155.035 194.141 156.127 192.109 156.127ZM190.319 153.385C190.313 154.235 191.018 154.819 192.109 154.819C193.188 154.819 193.893 154.235 193.899 153.385C193.893 152.521 193.144 151.88 192.109 151.887C191.075 151.88 190.313 152.515 190.319 153.385ZM190.573 149.297C190.58 150.103 191.214 150.655 192.109 150.655C192.992 150.655 193.633 150.103 193.633 149.297C193.633 148.516 193.011 147.977 192.109 147.977C191.189 147.977 190.58 148.516 190.573 149.297ZM199.231 151.29C197.924 151.296 197.207 150.325 197.213 148.916C197.207 147.52 197.956 146.555 199.231 146.555C200.558 146.555 201.256 147.52 201.263 148.916C201.256 150.338 200.533 151.296 199.231 151.29ZM198.381 148.916C198.387 149.741 198.673 150.274 199.231 150.274C199.809 150.274 200.082 149.741 200.082 148.916C200.082 148.116 199.828 147.564 199.231 147.57C198.673 147.57 198.387 148.123 198.381 148.916ZM198.394 156L204.716 146.809H205.998L199.676 156H198.394ZM203.218 153.88C203.211 152.477 203.96 151.506 205.236 151.506C206.557 151.506 207.261 152.477 207.268 153.88C207.261 155.289 206.538 156.248 205.236 156.241C203.929 156.248 203.211 155.276 203.218 153.88ZM204.386 153.88C204.392 154.692 204.678 155.232 205.236 155.226C205.814 155.232 206.087 154.692 206.087 153.88C206.087 153.067 205.833 152.515 205.236 152.521C204.678 152.528 204.392 153.074 204.386 153.88Z" fill="#9E9FA7"/>
<path d="M44.1172 81.5L35.6172 90L44.1172 98.5" stroke="#A0AEB9" stroke-width="2"/>
<g filter="url(#filter2_d_2917_8571)">
<path d="M20 341C20 332.163 27.1634 325 36 325H358C366.837 325 374 332.163 374 341V385C374 393.837 366.837 401 358 401H36C27.1634 401 20 393.837 20 385V341Z" fill="#FEFEFE" shape-rendering="crispEdges"/>
<path d="M186.761 355.121V361.062H189.116V362.891H186.761V371.152H184.511V355.121H186.761ZM182.278 356.598V358.408H177.005V365.422C179.325 365.396 181.241 365.29 183.368 364.912L183.614 366.793C181.136 367.215 178.956 367.285 176.126 367.268H174.772V356.598H182.278ZM204.462 357.107V358.936H202.388V360.588H204.462V362.434H202.388V364.473H200.138V355.121H202.388V357.107H204.462ZM194.196 356C196.675 355.982 198.556 357.6 198.556 359.867C198.556 362.135 196.675 363.734 194.196 363.734C191.7 363.734 189.802 362.135 189.802 359.867C189.802 357.6 191.7 355.982 194.196 356ZM194.196 357.881C192.931 357.863 191.999 358.637 192.017 359.867C191.999 361.115 192.931 361.854 194.196 361.854C195.427 361.854 196.358 361.115 196.376 359.867C196.358 358.637 195.427 357.863 194.196 357.881ZM197.149 364.789C200.437 364.789 202.546 365.984 202.546 367.971C202.546 369.939 200.437 371.117 197.149 371.117C193.792 371.117 191.665 369.939 191.665 367.971C191.665 365.984 193.792 364.789 197.149 364.789ZM197.149 366.564C195.04 366.564 193.897 367.039 193.915 367.971C193.897 368.902 195.04 369.342 197.149 369.342C199.224 369.342 200.331 368.902 200.331 367.971C200.331 367.039 199.224 366.564 197.149 366.564ZM217.944 355.139V360.043H220.106V361.871H217.944V367.074H215.694V355.139H217.944ZM214.745 356.809V358.584H205.253V356.809H208.892V355.104H211.124V356.809H214.745ZM209.999 359.146C212.319 359.146 213.937 360.395 213.937 362.24C213.937 364.086 212.319 365.299 209.999 365.299C207.661 365.299 206.026 364.086 206.026 362.24C206.026 360.395 207.661 359.146 209.999 359.146ZM209.999 360.852C208.927 360.869 208.206 361.361 208.224 362.24C208.206 363.119 208.927 363.594 209.999 363.594C211.071 363.594 211.81 363.119 211.81 362.24C211.81 361.361 211.071 360.869 209.999 360.852ZM218.524 369.043V370.836H207.573V366.16H209.806V369.043H218.524Z" fill="#1E1E1E"/>
</g>
<g filter="url(#filter3_d_2917_8571)">
<path d="M20 433C20 424.163 27.1634 417 36 417H358C366.837 417 374 424.163 374 433V477C374 485.837 366.837 493 358 493H36C27.1634 493 20 485.837 20 477V433Z" fill="#FEFEFE" shape-rendering="crispEdges"/>
<path d="M180.556 455.77V458.178C181.865 458.099 183.192 457.976 184.44 457.791L184.616 459.426C181.065 460.111 177.269 460.146 174.474 460.146L174.21 458.336C175.414 458.327 176.829 458.318 178.323 458.266V455.77H180.556ZM183.86 449.002V450.812H180.591C180.74 452.359 181.944 453.81 184.353 454.398L183.333 456.139C181.461 455.664 180.169 454.627 179.448 453.291C178.736 454.688 177.462 455.778 175.581 456.262L174.526 454.574C176.943 453.933 178.112 452.43 178.271 450.812H175.036V449.002H178.323V447.262H180.556V449.002H183.86ZM187.587 447.121V463.152H185.354V447.121H187.587ZM203.091 447.139V458.811H200.841V447.139H203.091ZM203.513 461.043V462.836H192.368V457.686H194.636V461.043H203.513ZM195.831 449.564C195.813 451.674 196.938 453.748 199.575 454.592L198.433 456.35C196.631 455.752 195.383 454.557 194.671 453.027C193.959 454.671 192.676 455.989 190.804 456.631L189.644 454.855C192.333 453.959 193.493 451.727 193.493 449.564V448.018H195.831V449.564ZM210.438 448.193C212.97 448.176 214.868 449.828 214.868 452.113C214.868 454.416 212.97 456.051 210.438 456.051C207.907 456.051 205.991 454.416 205.991 452.113C205.991 449.828 207.907 448.176 210.438 448.193ZM210.438 450.127C209.173 450.127 208.206 450.865 208.224 452.113C208.206 453.379 209.173 454.1 210.438 454.1C211.704 454.1 212.671 453.379 212.688 452.113C212.671 450.865 211.722 450.127 210.438 450.127ZM218.7 447.121V463.152H216.468V447.121H218.7ZM205.323 458.055C208.171 458.072 212.126 458.02 215.554 457.545L215.729 459.162C212.179 459.848 208.382 459.883 205.587 459.883L205.323 458.055Z" fill="#1E1E1E"/>
</g>
<g filter="url(#filter4_d_2917_8571)">
<path d="M20 525C20 516.163 27.1634 509 36 509H358C366.837 509 374 516.163 374 525V569C374 577.837 366.837 585 358 585H36C27.1634 585 20 577.837 20 569V525Z" fill="#FEFEFE" shape-rendering="crispEdges"/>
<path d="M171.978 539.139V548.156H169.728V539.139H171.978ZM171.978 548.895V554.941H161.255V548.895H171.978ZM163.47 550.67V553.148H169.78V550.67H163.47ZM164.718 541.266C164.7 543.217 165.878 545.062 168.462 545.871L167.372 547.576C165.544 547.04 164.278 545.933 163.558 544.5C162.828 546.056 161.527 547.286 159.62 547.875L158.53 546.117C161.202 545.309 162.38 543.27 162.38 541.266V539.719H164.718V541.266ZM188.765 548.35V550.107H182.507V555.117H180.292V550.107H174.122V548.35H188.765ZM178.06 539.736V541.582H184.774V539.736H187.024V546.803H175.845V539.736H178.06ZM178.06 545.01H184.774V543.34H178.06V545.01ZM204.321 547.189V548.965H189.679V547.189H204.321ZM202.546 539.42V543.691H193.739V544.623H202.845V546.328H191.507V542.074H200.296V541.143H191.472V539.42H202.546ZM202.616 549.949V554.941H191.56V549.949H202.616ZM193.757 551.725V553.148H200.384V551.725H193.757ZM217.874 539.121V545.379H220.229V547.225H217.874V555.117H215.659V539.121H217.874ZM214.569 541.512V543.305H205.165V541.512H208.786V539.367H211.036V541.512H214.569ZM209.911 544.201C212.249 544.201 213.989 545.783 213.989 548.016C213.989 550.248 212.249 551.83 209.911 551.83C207.556 551.83 205.815 550.248 205.815 548.016C205.815 545.783 207.556 544.201 209.911 544.201ZM209.911 546.012C208.786 546.029 207.96 546.785 207.96 548.016C207.96 549.264 208.786 550.002 209.911 549.984C211.036 550.002 211.845 549.264 211.845 548.016C211.845 546.785 211.036 546.029 209.911 546.012ZM233.431 539.121V545.062H235.786V546.891H233.431V555.152H231.181V539.121H233.431ZM228.948 540.598V542.408H223.675V549.422C225.995 549.396 227.911 549.29 230.038 548.912L230.284 550.793C227.806 551.215 225.626 551.285 222.796 551.268H221.442V540.598H228.948Z" fill="#1E1E1E"/>
</g>
</g>
<defs>
<filter id="filter0_i_2917_8571" x="23.6172" y="134" width="342" height="38" filterUnits="userSpaceOnUse" color-interpolation-filters="sRGB">
<feFlood flood-opacity="0" result="BackgroundImageFix"/>
<feBlend mode="normal" in="SourceGraphic" in2="BackgroundImageFix" result="shape"/>
<feColorMatrix in="SourceAlpha" type="matrix" values="0 0 0 0 0 0 0 0 0 0 0 0 0 0 0 0 0 0 127 0" result="hardAlpha"/>
<feOffset dy="4"/>
<feGaussianBlur stdDeviation="2"/>
<feComposite in2="hardAlpha" operator="arithmetic" k2="-1" k3="1"/>
<feColorMatrix type="matrix" values="0 0 0 0 0.651984 0 0 0 0 0.660851 0 0 0 0 0.705182 0 0 0 0.25 0"/>
<feBlend mode="normal" in2="shape" result="effect1_innerShadow_2917_8571"/>
</filter>
<filter id="filter1_i_2917_8571" x="31.6172" y="142" width="128" height="22" filterUnits="userSpaceOnUse" color-interpolation-filters="sRGB">
<feFlood flood-opacity="0" result="BackgroundImageFix"/>
<feBlend mode="normal" in="SourceGraphic" in2="BackgroundImageFix" result="shape"/>
<feColorMatrix in="SourceAlpha" type="matrix" values="0 0 0 0 0 0 0 0 0 0 0 0 0 0 0 0 0 0 127 0" result="hardAlpha"/>
<feOffset dy="4"/>
<feGaussianBlur stdDeviation="2"/>
<feComposite in2="hardAlpha" operator="arithmetic" k2="-1" k3="1"/>
<feColorMatrix type="matrix" values="0 0 0 0 1 0 0 0 0 1 0 0 0 0 1 0 0 0 0.25 0"/>
<feBlend mode="normal" in2="shape" result="effect1_innerShadow_2917_8571"/>
</filter>
<filter id="filter2_d_2917_8571" x="8" y="313" width="378" height="100" filterUnits="userSpaceOnUse" color-interpolation-filters="sRGB">
<feFlood flood-opacity="0" result="BackgroundImageFix"/>
<feColorMatrix in="SourceAlpha" type="matrix" values="0 0 0 0 0 0 0 0 0 0 0 0 0 0 0 0 0 0 127 0" result="hardAlpha"/>
<feOffset/>
<feGaussianBlur stdDeviation="6"/>
<feComposite in2="hardAlpha" operator="out"/>
<feColorMatrix type="matrix" values="0 0 0 0 0.813976 0 0 0 0 0.865692 0 0 0 0 0.917408 0 0 0 1 0"/>
<feBlend mode="normal" in2="BackgroundImageFix" result="effect1_dropShadow_2917_8571"/>
<feBlend mode="normal" in="SourceGraphic" in2="effect1_dropShadow_2917_8571" result="shape"/>
</filter>
<filter id="filter3_d_2917_8571" x="8" y="405" width="378" height="100" filterUnits="userSpaceOnUse" color-interpolation-filters="sRGB">
<feFlood flood-opacity="0" result="BackgroundImageFix"/>
<feColorMatrix in="SourceAlpha" type="matrix" values="0 0 0 0 0 0 0 0 0 0 0 0 0 0 0 0 0 0 127 0" result="hardAlpha"/>
<feOffset/>
<feGaussianBlur stdDeviation="6"/>
<feComposite in2="hardAlpha" operator="out"/>
<feColorMatrix type="matrix" values="0 0 0 0 0.813976 0 0 0 0 0.865692 0 0 0 0 0.917408 0 0 0 1 0"/>
<feBlend mode="normal" in2="BackgroundImageFix" result="effect1_dropShadow_2917_8571"/>
<feBlend mode="normal" in="SourceGraphic" in2="effect1_dropShadow_2917_8571" result="shape"/>
</filter>
<filter id="filter4_d_2917_8571" x="8" y="497" width="378" height="100" filterUnits="userSpaceOnUse" color-interpolation-filters="sRGB">
<feFlood flood-opacity="0" result="BackgroundImageFix"/>
<feColorMatrix in="SourceAlpha" type="matrix" values="0 0 0 0 0 0 0 0 0 0 0 0 0 0 0 0 0 0 127 0" result="hardAlpha"/>
<feOffset/>
<feGaussianBlur stdDeviation="6"/>
<feComposite in2="hardAlpha" operator="out"/>
<feColorMatrix type="matrix" values="0 0 0 0 0.813976 0 0 0 0 0.865692 0 0 0 0 0.917408 0 0 0 1 0"/>
<feBlend mode="normal" in2="BackgroundImageFix" result="effect1_dropShadow_2917_8571"/>
<feBlend mode="normal" in="SourceGraphic" in2="effect1_dropShadow_2917_8571" result="shape"/>
</filter>
<clipPath id="clip0_2917_8571">
<rect width="393" height="852" fill="white"/>
</clipPath>
</defs>
</svg>
