<svg width="393" height="852" viewBox="0 0 393 852" fill="none" xmlns="http://www.w3.org/2000/svg">
<g clip-path="url(#clip0_2917_8245)">
<rect width="393" height="852" fill="white"/>
<rect y="-1" width="393" height="119" fill="white"/>
<rect width="393" height="66.3895" transform="translate(0 -1)" fill="white"/>
<path d="M38.9526 37V27.1304H38.8032L35.8232 29.2305V27.2217L38.9526 25.022H41.0859V37H38.9526ZM48.8887 37.2407C47.9701 37.2407 47.1593 37.0941 46.4565 36.8008C45.7537 36.502 45.2031 36.0924 44.8047 35.5723C44.4118 35.0465 44.2153 34.4434 44.2153 33.7627V33.7461C44.2153 33.2314 44.3288 32.7666 44.5557 32.3516C44.7881 31.931 45.109 31.5768 45.5186 31.2891C45.9281 31.0013 46.3984 30.8049 46.9297 30.6997V30.6499C46.2435 30.4673 45.6901 30.1408 45.2695 29.6704C44.8545 29.1945 44.647 28.6356 44.647 27.9937V27.9771C44.647 27.3628 44.8268 26.8149 45.1865 26.3335C45.5518 25.8521 46.0526 25.473 46.689 25.1963C47.3309 24.9196 48.0641 24.7812 48.8887 24.7812C49.7132 24.7812 50.4437 24.9196 51.0801 25.1963C51.722 25.473 52.2228 25.8521 52.5825 26.3335C52.9422 26.8149 53.1221 27.3628 53.1221 27.9771V27.9937C53.1221 28.6356 52.9146 29.1945 52.4995 29.6704C52.0845 30.1408 51.5339 30.4673 50.8477 30.6499V30.6997C51.3789 30.8049 51.8493 31.0013 52.2588 31.2891C52.6683 31.5768 52.9865 31.931 53.2134 32.3516C53.4458 32.7666 53.562 33.2314 53.562 33.7461V33.7627C53.562 34.4434 53.3628 35.0465 52.9644 35.5723C52.5715 36.0924 52.0236 36.502 51.3208 36.8008C50.618 37.0941 49.8073 37.2407 48.8887 37.2407ZM48.8887 35.6055C49.3701 35.6055 49.7935 35.5225 50.1587 35.3564C50.5295 35.1849 50.82 34.9497 51.0303 34.6509C51.2406 34.3465 51.3457 34.0034 51.3457 33.6216V33.605C51.3457 33.2176 51.2406 32.8745 51.0303 32.5757C50.8255 32.2713 50.5378 32.0334 50.167 31.8618C49.7962 31.6903 49.3701 31.6045 48.8887 31.6045C48.4017 31.6045 47.9728 31.6903 47.6021 31.8618C47.2368 32.0334 46.9491 32.2713 46.7388 32.5757C46.5285 32.8745 46.4233 33.2176 46.4233 33.605V33.6216C46.4233 34.0034 46.5285 34.3465 46.7388 34.6509C46.9546 34.9497 47.2451 35.1849 47.6104 35.3564C47.9811 35.5225 48.4072 35.6055 48.8887 35.6055ZM48.8887 29.9692C49.3092 29.9692 49.6772 29.8945 49.9927 29.7451C50.3136 29.5902 50.5627 29.3799 50.7397 29.1143C50.9224 28.8486 51.0137 28.5387 51.0137 28.1846V28.168C51.0137 27.8193 50.9224 27.5122 50.7397 27.2466C50.5627 26.981 50.3136 26.7734 49.9927 26.624C49.6717 26.4746 49.3037 26.3999 48.8887 26.3999C48.4681 26.3999 48.0973 26.4746 47.7764 26.624C47.4609 26.7734 47.2119 26.981 47.0293 27.2466C46.8522 27.5122 46.7637 27.8193 46.7637 28.168V28.1846C46.7637 28.5387 46.8522 28.8486 47.0293 29.1143C47.2119 29.3799 47.4609 29.5902 47.7764 29.7451C48.0973 29.8945 48.4681 29.9692 48.8887 29.9692ZM57.4136 35.3896C57.0373 35.3896 56.7218 35.2651 56.4673 35.0161C56.2183 34.7616 56.0938 34.4517 56.0938 34.0864C56.0938 33.7157 56.2183 33.4058 56.4673 33.1567C56.7218 32.9022 57.0373 32.7749 57.4136 32.7749C57.7954 32.7749 58.1108 32.9022 58.3599 33.1567C58.6089 33.4058 58.7334 33.7157 58.7334 34.0864C58.7334 34.4517 58.6089 34.7616 58.3599 35.0161C58.1108 35.2651 57.7954 35.3896 57.4136 35.3896ZM57.4136 29.2305C57.0373 29.2305 56.7218 29.106 56.4673 28.8569C56.2183 28.6024 56.0938 28.2925 56.0938 27.9272C56.0938 27.5565 56.2183 27.2466 56.4673 26.9976C56.7218 26.743 57.0373 26.6157 57.4136 26.6157C57.7954 26.6157 58.1108 26.743 58.3599 26.9976C58.6089 27.2466 58.7334 27.5565 58.7334 27.9272C58.7334 28.2925 58.6089 28.6024 58.3599 28.8569C58.1108 29.106 57.7954 29.2305 57.4136 29.2305ZM65.7725 37.2988C64.8206 37.2988 64.0044 37.0443 63.3237 36.5352C62.6486 36.026 62.1284 35.3011 61.7632 34.3604C61.3979 33.4196 61.2153 32.3045 61.2153 31.0151V30.9985C61.2153 29.7091 61.3979 28.5968 61.7632 27.6616C62.1284 26.7209 62.6486 25.9959 63.3237 25.4868C64.0044 24.9777 64.8206 24.7231 65.7725 24.7231C66.7243 24.7231 67.5405 24.9777 68.2212 25.4868C68.9019 25.9959 69.4248 26.7209 69.79 27.6616C70.1553 28.5968 70.3379 29.7091 70.3379 30.9985V31.0151C70.3379 32.3045 70.1553 33.4196 69.79 34.3604C69.4248 35.3011 68.9019 36.026 68.2212 36.5352C67.5405 37.0443 66.7243 37.2988 65.7725 37.2988ZM65.7725 35.564C66.2816 35.564 66.716 35.3813 67.0757 35.0161C67.4354 34.6509 67.7093 34.1307 67.8975 33.4556C68.0911 32.7749 68.188 31.9614 68.188 31.0151V30.9985C68.188 30.0522 68.0911 29.2415 67.8975 28.5664C67.7093 27.8857 67.4354 27.3656 67.0757 27.0059C66.716 26.6406 66.2816 26.458 65.7725 26.458C65.2633 26.458 64.8289 26.6406 64.4692 27.0059C64.1151 27.3656 63.8411 27.8857 63.6475 28.5664C63.4593 29.2415 63.3652 30.0522 63.3652 30.9985V31.0151C63.3652 31.9614 63.4593 32.7749 63.6475 33.4556C63.8411 34.1307 64.1151 34.6509 64.4692 35.0161C64.8289 35.3813 65.2633 35.564 65.7725 35.564ZM77.0781 37.2988C76.1263 37.2988 75.3101 37.0443 74.6294 36.5352C73.9543 36.026 73.4341 35.3011 73.0688 34.3604C72.7036 33.4196 72.521 32.3045 72.521 31.0151V30.9985C72.521 29.7091 72.7036 28.5968 73.0688 27.6616C73.4341 26.7209 73.9543 25.9959 74.6294 25.4868C75.3101 24.9777 76.1263 24.7231 77.0781 24.7231C78.0299 24.7231 78.8462 24.9777 79.5269 25.4868C80.2075 25.9959 80.7305 26.7209 81.0957 27.6616C81.4609 28.5968 81.6436 29.7091 81.6436 30.9985V31.0151C81.6436 32.3045 81.4609 33.4196 81.0957 34.3604C80.7305 35.3011 80.2075 36.026 79.5269 36.5352C78.8462 37.0443 78.0299 37.2988 77.0781 37.2988ZM77.0781 35.564C77.5872 35.564 78.0216 35.3813 78.3813 35.0161C78.741 34.6509 79.015 34.1307 79.2031 33.4556C79.3968 32.7749 79.4937 31.9614 79.4937 31.0151V30.9985C79.4937 30.0522 79.3968 29.2415 79.2031 28.5664C79.015 27.8857 78.741 27.3656 78.3813 27.0059C78.0216 26.6406 77.5872 26.458 77.0781 26.458C76.569 26.458 76.1346 26.6406 75.7749 27.0059C75.4207 27.3656 75.1468 27.8857 74.9531 28.5664C74.765 29.2415 74.6709 30.0522 74.6709 30.9985V31.0151C74.6709 31.9614 74.765 32.7749 74.9531 33.4556C75.1468 34.1307 75.4207 34.6509 75.7749 35.0161C76.1346 35.3813 76.569 35.564 77.0781 35.564Z" fill="black"/>
<path fill-rule="evenodd" clip-rule="evenodd" d="M314.614 26.0329C314.614 25.3999 314.136 24.8867 313.547 24.8867H312.481C311.892 24.8867 311.414 25.3999 311.414 26.0329V35.9669C311.414 36.5999 311.892 37.1131 312.481 37.1131H313.547C314.136 37.1131 314.614 36.5999 314.614 35.9669V26.0329ZM307.18 27.332H308.247C308.836 27.332 309.313 27.8575 309.313 28.5057V35.9394C309.313 36.5876 308.836 37.1131 308.247 37.1131H307.18C306.591 37.1131 306.113 36.5876 306.113 35.9394V28.5057C306.113 27.8575 306.591 27.332 307.18 27.332ZM302.848 29.981H301.782C301.192 29.981 300.715 30.5132 300.715 31.1697V35.9244C300.715 36.5809 301.192 37.1131 301.782 37.1131H302.848C303.437 37.1131 303.915 36.5809 303.915 35.9244V31.1697C303.915 30.5132 303.437 29.981 302.848 29.981ZM297.547 32.4263H296.481C295.892 32.4263 295.414 32.9509 295.414 33.598V35.9414C295.414 36.5885 295.892 37.1131 296.481 37.1131H297.547C298.136 37.1131 298.614 36.5885 298.614 35.9414V33.598C298.614 32.9509 298.136 32.4263 297.547 32.4263Z" fill="black"/>
<path fill-rule="evenodd" clip-rule="evenodd" d="M330.185 27.3022C332.672 27.3023 335.064 28.2244 336.866 29.8779C337.002 30.0055 337.219 30.0039 337.353 29.8743L338.65 28.6108C338.718 28.545 338.756 28.456 338.755 28.3633C338.754 28.2706 338.716 28.182 338.647 28.117C333.916 23.7423 326.452 23.7423 321.721 28.117C321.653 28.1819 321.614 28.2705 321.613 28.3632C321.613 28.4559 321.65 28.545 321.718 28.6108L323.016 29.8743C323.149 30.0041 323.367 30.0057 323.502 29.8779C325.305 28.2243 327.697 27.3022 330.185 27.3022ZM330.181 31.5225C331.539 31.5224 332.847 32.0342 333.854 32.9583C333.99 33.0894 334.204 33.0866 334.337 32.9519L335.624 31.6326C335.692 31.5634 335.729 31.4695 335.728 31.3719C335.727 31.2744 335.688 31.1813 335.619 31.1135C332.555 28.2227 327.81 28.2227 324.746 31.1135C324.677 31.1813 324.638 31.2744 324.637 31.372C324.636 31.4696 324.674 31.5635 324.741 31.6326L326.028 32.9519C326.161 33.0866 326.375 33.0894 326.512 32.9583C327.517 32.0348 328.825 31.5231 330.181 31.5225ZM332.706 34.316C332.708 34.4214 332.671 34.523 332.603 34.5968L330.427 37.0515C330.363 37.1236 330.276 37.1642 330.185 37.1642C330.094 37.1642 330.007 37.1236 329.943 37.0515L327.766 34.5968C327.699 34.5229 327.662 34.4213 327.664 34.316C327.666 34.2106 327.707 34.1108 327.777 34.0402C329.167 32.7263 331.203 32.7263 332.593 34.0402C332.663 34.1109 332.704 34.2107 332.706 34.316Z" fill="black"/>
<rect opacity="0.35" x="346.258" y="25" width="24" height="12" rx="3.8" stroke="black"/>
<path opacity="0.4" d="M371.758 29.2812V33.3567C372.563 33.0116 373.086 32.2086 373.086 31.319C373.086 30.4294 372.563 29.6264 371.758 29.2812Z" fill="black"/>
<rect x="347.758" y="26.5" width="21" height="9" rx="2.5" fill="black"/>
<rect y="-1" width="393" height="119" fill="white"/>
<rect width="393" height="66.3895" transform="translate(0 -1)" fill="white"/>
<path d="M38.9526 37V27.1304H38.8032L35.8232 29.2305V27.2217L38.9526 25.022H41.0859V37H38.9526ZM48.8887 37.2407C47.9701 37.2407 47.1593 37.0941 46.4565 36.8008C45.7537 36.502 45.2031 36.0924 44.8047 35.5723C44.4118 35.0465 44.2153 34.4434 44.2153 33.7627V33.7461C44.2153 33.2314 44.3288 32.7666 44.5557 32.3516C44.7881 31.931 45.109 31.5768 45.5186 31.2891C45.9281 31.0013 46.3984 30.8049 46.9297 30.6997V30.6499C46.2435 30.4673 45.6901 30.1408 45.2695 29.6704C44.8545 29.1945 44.647 28.6356 44.647 27.9937V27.9771C44.647 27.3628 44.8268 26.8149 45.1865 26.3335C45.5518 25.8521 46.0526 25.473 46.689 25.1963C47.3309 24.9196 48.0641 24.7812 48.8887 24.7812C49.7132 24.7812 50.4437 24.9196 51.0801 25.1963C51.722 25.473 52.2228 25.8521 52.5825 26.3335C52.9422 26.8149 53.1221 27.3628 53.1221 27.9771V27.9937C53.1221 28.6356 52.9146 29.1945 52.4995 29.6704C52.0845 30.1408 51.5339 30.4673 50.8477 30.6499V30.6997C51.3789 30.8049 51.8493 31.0013 52.2588 31.2891C52.6683 31.5768 52.9865 31.931 53.2134 32.3516C53.4458 32.7666 53.562 33.2314 53.562 33.7461V33.7627C53.562 34.4434 53.3628 35.0465 52.9644 35.5723C52.5715 36.0924 52.0236 36.502 51.3208 36.8008C50.618 37.0941 49.8073 37.2407 48.8887 37.2407ZM48.8887 35.6055C49.3701 35.6055 49.7935 35.5225 50.1587 35.3564C50.5295 35.1849 50.82 34.9497 51.0303 34.6509C51.2406 34.3465 51.3457 34.0034 51.3457 33.6216V33.605C51.3457 33.2176 51.2406 32.8745 51.0303 32.5757C50.8255 32.2713 50.5378 32.0334 50.167 31.8618C49.7962 31.6903 49.3701 31.6045 48.8887 31.6045C48.4017 31.6045 47.9728 31.6903 47.6021 31.8618C47.2368 32.0334 46.9491 32.2713 46.7388 32.5757C46.5285 32.8745 46.4233 33.2176 46.4233 33.605V33.6216C46.4233 34.0034 46.5285 34.3465 46.7388 34.6509C46.9546 34.9497 47.2451 35.1849 47.6104 35.3564C47.9811 35.5225 48.4072 35.6055 48.8887 35.6055ZM48.8887 29.9692C49.3092 29.9692 49.6772 29.8945 49.9927 29.7451C50.3136 29.5902 50.5627 29.3799 50.7397 29.1143C50.9224 28.8486 51.0137 28.5387 51.0137 28.1846V28.168C51.0137 27.8193 50.9224 27.5122 50.7397 27.2466C50.5627 26.981 50.3136 26.7734 49.9927 26.624C49.6717 26.4746 49.3037 26.3999 48.8887 26.3999C48.4681 26.3999 48.0973 26.4746 47.7764 26.624C47.4609 26.7734 47.2119 26.981 47.0293 27.2466C46.8522 27.5122 46.7637 27.8193 46.7637 28.168V28.1846C46.7637 28.5387 46.8522 28.8486 47.0293 29.1143C47.2119 29.3799 47.4609 29.5902 47.7764 29.7451C48.0973 29.8945 48.4681 29.9692 48.8887 29.9692ZM57.4136 35.3896C57.0373 35.3896 56.7218 35.2651 56.4673 35.0161C56.2183 34.7616 56.0938 34.4517 56.0938 34.0864C56.0938 33.7157 56.2183 33.4058 56.4673 33.1567C56.7218 32.9022 57.0373 32.7749 57.4136 32.7749C57.7954 32.7749 58.1108 32.9022 58.3599 33.1567C58.6089 33.4058 58.7334 33.7157 58.7334 34.0864C58.7334 34.4517 58.6089 34.7616 58.3599 35.0161C58.1108 35.2651 57.7954 35.3896 57.4136 35.3896ZM57.4136 29.2305C57.0373 29.2305 56.7218 29.106 56.4673 28.8569C56.2183 28.6024 56.0938 28.2925 56.0938 27.9272C56.0938 27.5565 56.2183 27.2466 56.4673 26.9976C56.7218 26.743 57.0373 26.6157 57.4136 26.6157C57.7954 26.6157 58.1108 26.743 58.3599 26.9976C58.6089 27.2466 58.7334 27.5565 58.7334 27.9272C58.7334 28.2925 58.6089 28.6024 58.3599 28.8569C58.1108 29.106 57.7954 29.2305 57.4136 29.2305ZM65.7725 37.2988C64.8206 37.2988 64.0044 37.0443 63.3237 36.5352C62.6486 36.026 62.1284 35.3011 61.7632 34.3604C61.3979 33.4196 61.2153 32.3045 61.2153 31.0151V30.9985C61.2153 29.7091 61.3979 28.5968 61.7632 27.6616C62.1284 26.7209 62.6486 25.9959 63.3237 25.4868C64.0044 24.9777 64.8206 24.7231 65.7725 24.7231C66.7243 24.7231 67.5405 24.9777 68.2212 25.4868C68.9019 25.9959 69.4248 26.7209 69.79 27.6616C70.1553 28.5968 70.3379 29.7091 70.3379 30.9985V31.0151C70.3379 32.3045 70.1553 33.4196 69.79 34.3604C69.4248 35.3011 68.9019 36.026 68.2212 36.5352C67.5405 37.0443 66.7243 37.2988 65.7725 37.2988ZM65.7725 35.564C66.2816 35.564 66.716 35.3813 67.0757 35.0161C67.4354 34.6509 67.7093 34.1307 67.8975 33.4556C68.0911 32.7749 68.188 31.9614 68.188 31.0151V30.9985C68.188 30.0522 68.0911 29.2415 67.8975 28.5664C67.7093 27.8857 67.4354 27.3656 67.0757 27.0059C66.716 26.6406 66.2816 26.458 65.7725 26.458C65.2633 26.458 64.8289 26.6406 64.4692 27.0059C64.1151 27.3656 63.8411 27.8857 63.6475 28.5664C63.4593 29.2415 63.3652 30.0522 63.3652 30.9985V31.0151C63.3652 31.9614 63.4593 32.7749 63.6475 33.4556C63.8411 34.1307 64.1151 34.6509 64.4692 35.0161C64.8289 35.3813 65.2633 35.564 65.7725 35.564ZM77.0781 37.2988C76.1263 37.2988 75.3101 37.0443 74.6294 36.5352C73.9543 36.026 73.4341 35.3011 73.0688 34.3604C72.7036 33.4196 72.521 32.3045 72.521 31.0151V30.9985C72.521 29.7091 72.7036 28.5968 73.0688 27.6616C73.4341 26.7209 73.9543 25.9959 74.6294 25.4868C75.3101 24.9777 76.1263 24.7231 77.0781 24.7231C78.0299 24.7231 78.8462 24.9777 79.5269 25.4868C80.2075 25.9959 80.7305 26.7209 81.0957 27.6616C81.4609 28.5968 81.6436 29.7091 81.6436 30.9985V31.0151C81.6436 32.3045 81.4609 33.4196 81.0957 34.3604C80.7305 35.3011 80.2075 36.026 79.5269 36.5352C78.8462 37.0443 78.0299 37.2988 77.0781 37.2988ZM77.0781 35.564C77.5872 35.564 78.0216 35.3813 78.3813 35.0161C78.741 34.6509 79.015 34.1307 79.2031 33.4556C79.3968 32.7749 79.4937 31.9614 79.4937 31.0151V30.9985C79.4937 30.0522 79.3968 29.2415 79.2031 28.5664C79.015 27.8857 78.741 27.3656 78.3813 27.0059C78.0216 26.6406 77.5872 26.458 77.0781 26.458C76.569 26.458 76.1346 26.6406 75.7749 27.0059C75.4207 27.3656 75.1468 27.8857 74.9531 28.5664C74.765 29.2415 74.6709 30.0522 74.6709 30.9985V31.0151C74.6709 31.9614 74.765 32.7749 74.9531 33.4556C75.1468 34.1307 75.4207 34.6509 75.7749 35.0161C76.1346 35.3813 76.569 35.564 77.0781 35.564Z" fill="black"/>
<path fill-rule="evenodd" clip-rule="evenodd" d="M314.614 26.0329C314.614 25.3999 314.136 24.8867 313.547 24.8867H312.481C311.892 24.8867 311.414 25.3999 311.414 26.0329V35.9669C311.414 36.5999 311.892 37.1131 312.481 37.1131H313.547C314.136 37.1131 314.614 36.5999 314.614 35.9669V26.0329ZM307.18 27.332H308.247C308.836 27.332 309.313 27.8575 309.313 28.5057V35.9394C309.313 36.5876 308.836 37.1131 308.247 37.1131H307.18C306.591 37.1131 306.113 36.5876 306.113 35.9394V28.5057C306.113 27.8575 306.591 27.332 307.18 27.332ZM302.848 29.981H301.782C301.192 29.981 300.715 30.5132 300.715 31.1697V35.9244C300.715 36.5809 301.192 37.1131 301.782 37.1131H302.848C303.437 37.1131 303.915 36.5809 303.915 35.9244V31.1697C303.915 30.5132 303.437 29.981 302.848 29.981ZM297.547 32.4263H296.481C295.892 32.4263 295.414 32.9509 295.414 33.598V35.9414C295.414 36.5885 295.892 37.1131 296.481 37.1131H297.547C298.136 37.1131 298.614 36.5885 298.614 35.9414V33.598C298.614 32.9509 298.136 32.4263 297.547 32.4263Z" fill="black"/>
<path fill-rule="evenodd" clip-rule="evenodd" d="M330.185 27.3022C332.672 27.3023 335.064 28.2244 336.866 29.8779C337.002 30.0055 337.219 30.0039 337.353 29.8743L338.65 28.6108C338.718 28.545 338.756 28.456 338.755 28.3633C338.754 28.2706 338.716 28.182 338.647 28.117C333.916 23.7423 326.452 23.7423 321.721 28.117C321.653 28.1819 321.614 28.2705 321.613 28.3632C321.613 28.4559 321.65 28.545 321.718 28.6108L323.016 29.8743C323.149 30.0041 323.367 30.0057 323.502 29.8779C325.305 28.2243 327.697 27.3022 330.185 27.3022ZM330.181 31.5225C331.539 31.5224 332.847 32.0342 333.854 32.9583C333.99 33.0894 334.204 33.0866 334.337 32.9519L335.624 31.6326C335.692 31.5634 335.729 31.4695 335.728 31.3719C335.727 31.2744 335.688 31.1813 335.619 31.1135C332.555 28.2227 327.81 28.2227 324.746 31.1135C324.677 31.1813 324.638 31.2744 324.637 31.372C324.636 31.4696 324.674 31.5635 324.741 31.6326L326.028 32.9519C326.161 33.0866 326.375 33.0894 326.512 32.9583C327.517 32.0348 328.825 31.5231 330.181 31.5225ZM332.706 34.316C332.708 34.4214 332.671 34.523 332.603 34.5968L330.427 37.0515C330.363 37.1236 330.276 37.1642 330.185 37.1642C330.094 37.1642 330.007 37.1236 329.943 37.0515L327.766 34.5968C327.699 34.5229 327.662 34.4213 327.664 34.316C327.666 34.2106 327.707 34.1108 327.777 34.0402C329.167 32.7263 331.203 32.7263 332.593 34.0402C332.663 34.1109 332.704 34.2107 332.706 34.316Z" fill="black"/>
<rect opacity="0.35" x="346.258" y="25" width="24" height="12" rx="3.8" stroke="black"/>
<path opacity="0.4" d="M371.758 29.2812V33.3567C372.563 33.0116 373.086 32.2086 373.086 31.319C373.086 30.4294 372.563 29.6264 371.758 29.2812Z" fill="black"/>
<rect x="347.758" y="26.5" width="21" height="9" rx="2.5" fill="black"/>
<path d="M76.6777 82.7812C79.2002 82.7725 81.0371 84.3633 81.0547 86.6133C81.0371 88.8721 79.2002 90.4541 76.6777 90.4629C74.1816 90.4541 72.3096 88.8721 72.3184 86.6133C72.3096 84.3633 74.1816 82.7725 76.6777 82.7812ZM71.5977 92.6602C74.4629 92.6602 78.4268 92.625 81.8633 92.1328L82.0215 93.5566C78.4619 94.2334 74.6475 94.2598 71.8438 94.2598L71.5977 92.6602ZM74.252 86.6133C74.2432 87.9404 75.2891 88.7578 76.6777 88.7578C78.084 88.7578 79.1299 87.9404 79.1387 86.6133C79.1299 85.2949 78.0928 84.4688 76.6777 84.4688C75.2891 84.4688 74.2432 85.2949 74.252 86.6133ZM82.8125 97.582V81.6738H84.7637V97.582H82.8125ZM95.4863 83.168V93.6973H87.9277V83.168H95.4863ZM89.8613 92.1328H93.5879V84.6973H89.8613V92.1328ZM98.334 97.582V81.6738H100.303V97.582H98.334ZM115.086 81.6738V87.8789H117.441V89.5137H115.086V97.5293H113.135V81.6738H115.086ZM102.553 93.1875C106.42 91.2539 108.512 88.5645 108.898 84.9434H103.414V83.3262H110.885C110.876 87.9932 108.942 92.0977 103.66 94.6992L102.553 93.1875ZM126.969 82.1836C129.377 82.1924 131.17 83.6777 131.188 85.7695C131.17 87.8701 129.377 89.3467 126.969 89.3555C124.543 89.3467 122.75 87.8701 122.75 85.7695C122.75 83.6777 124.543 82.1924 126.969 82.1836ZM124.648 85.7695C124.648 87 125.633 87.7734 126.969 87.7734C128.305 87.7734 129.28 87 129.289 85.7695C129.28 84.5654 128.305 83.792 126.969 83.8008C125.633 83.792 124.648 84.5654 124.648 85.7695ZM125.158 91.9219V90.3926H135.705V94.541H127.109V95.8242H136.18V97.3711H125.193V93.0996H133.754V91.9219H125.158ZM133.736 89.707V81.6738H135.705V89.707H133.736ZM151.227 81.6738V97.5645H149.275V81.6738H151.227ZM138.184 93.0469C140.715 91.9307 142.174 89.2588 142.174 86.7188V85.8926H138.676V84.3281H142.174V82.0078H144.107V84.3281H147.535V85.8926H144.125V86.7188C144.116 89.1357 145.602 91.7285 148.168 92.8008L147.096 94.2949C145.276 93.5215 143.905 91.9395 143.176 90.0234C142.464 92.0537 141.093 93.75 139.238 94.5586L138.184 93.0469ZM166.027 81.6738V88.002H168.471V89.6191H166.027V97.5645H164.094V81.6738H166.027ZM153.494 85.6816V84.1172H157.256V81.9023H159.207V84.1172H162.863V85.6816H153.494ZM154.232 90.4629C154.215 88.2656 155.92 86.71 158.24 86.7188C160.525 86.71 162.222 88.2656 162.23 90.4629C162.222 92.6514 160.525 94.1895 158.24 94.1895C155.92 94.1895 154.215 92.6514 154.232 90.4629ZM156.096 90.4629C156.087 91.7549 156.992 92.5811 158.24 92.5723C159.462 92.5811 160.35 91.7549 160.367 90.4629C160.35 89.1709 159.462 88.3184 158.24 88.3184C156.992 88.3184 156.087 89.1709 156.096 90.4629ZM182.006 86.1738V87.7207H171.002V82.2539H172.936V86.1738H182.006ZM169.121 91.1133V89.5664H183.641V91.1133H169.121ZM170.861 97.1953V92.5195H172.812V95.6133H182.111V97.1953H170.861ZM201.5 81.6738V86.1387H203.732V87.7559H201.5V93.1699H199.549V81.6738H201.5ZM189.635 90.4805V82.9922H196.754V84.5566H191.568V88.8809C194.557 88.8809 196.218 88.7842 198.107 88.3887L198.318 89.9707C196.235 90.3838 194.39 90.4805 190.918 90.4805H189.635ZM191.322 97.248V91.957H193.273V95.666H202.133V97.248H191.322ZM208.865 82.834C211.01 82.834 212.601 84.627 212.882 87.5273H215.914V81.6738H217.848V97.582H215.914V89.1094H212.899C212.688 92.1768 211.071 94.0664 208.865 94.0664C206.475 94.0664 204.778 91.8955 204.787 88.4414C204.778 85.0137 206.475 82.834 208.865 82.834ZM206.668 88.4414C206.659 90.8848 207.556 92.2998 208.865 92.3086C210.184 92.2998 211.071 90.8848 211.08 88.4414C211.071 86.0156 210.184 84.5918 208.865 84.5918C207.556 84.5918 206.659 86.0156 206.668 88.4414ZM233.316 81.6738V97.5645H231.348V81.6738H233.316ZM220.01 92.8887C222.172 90.5684 223.016 88.0986 223.191 84.9434H220.713V83.3438H225.055C225.046 87.4395 224.334 90.9902 221.521 94.0137L220.01 92.8887ZM224.615 94.0137C226.786 91.3242 227.498 88.3799 227.647 84.9434H225.617V83.3438H229.502C229.502 87.5625 228.975 91.6582 226.25 95.0332L224.615 94.0137ZM248.873 81.6738V97.582H246.939V81.6738H248.873ZM236.498 84.6445V83.0625H243.986V89.0215H238.52V92.2207C241.024 92.2031 243.178 92.0713 245.656 91.6582L245.832 93.2578C243.134 93.7236 240.761 93.8291 237.904 93.8203H236.516V87.4746H242V84.6445H236.498ZM259.455 84.6445C259.455 85.8574 259.701 87.4307 260.677 88.6084C261.626 87.4658 261.872 85.9102 261.881 84.6445V84.3633H260.967V82.7812H265.467V84.3633H263.727V84.6445C263.727 86.3584 264.342 88.3359 266.17 89.2852L265.115 90.6738C263.955 90.0498 263.234 89.0215 262.812 87.8262C262.452 89.0479 261.793 90.1553 260.65 90.832C259.543 90.1553 258.893 89.0566 258.532 87.8701C258.11 89.0479 257.39 90.0674 256.238 90.6738L255.184 89.2852C256.985 88.3096 257.636 86.3408 257.627 84.6445V84.3633H255.799V82.7812H260.387V84.3633H259.455V84.6445ZM257.434 93.416V91.8516H268.42V97.5645H266.469V93.416H257.434ZM266.469 91.1836V81.6738H268.42V85.5938H270.178V87.2285H268.42V91.1836H266.469ZM283.361 82.7285V89.6367H275.838V82.7285H283.361ZM276.77 96C279.582 95.6221 281.34 94.3828 281.656 92.9941H277.42V91.4473H288.055V92.9941H283.836C284.152 94.3477 285.945 95.6309 288.723 96.0176L288.02 97.5117C285.532 97.1602 283.651 96.0967 282.737 94.6641C281.823 96.0967 279.96 97.1426 277.49 97.4766L276.77 96ZM277.754 88.0723H281.445V84.293H277.754V88.0723ZM285.875 90.6387V81.6738H287.826V85.2422H290.041V86.8594H287.826V90.6387H285.875ZM305.334 91.2188V92.8184H299.041V97.582H297.107V92.8184H290.85V91.2188H305.334ZM291.641 88.7051C294.813 88.3184 296.896 86.6924 297.09 85.1016H292.186V83.5547H297.107V81.6914H299.041V83.5547H303.98V85.1016H299.076C299.261 86.6748 301.335 88.3184 304.508 88.7051L303.787 90.252C301.159 89.918 299.12 88.7666 298.092 87.2373C297.055 88.7842 294.989 89.918 292.344 90.252L291.641 88.7051ZM319.678 81.6738V97.5645H317.709V81.6738H319.678ZM306.512 93.1875C310.678 91.21 312.594 88.5205 312.945 84.9082H307.32V83.3613H314.932C314.932 88.0898 313.095 92.1064 307.531 94.752L306.512 93.1875Z" fill="#1E1E1E"/>
<path d="M45.5 80.5L37 89L45.5 97.5" stroke="#A0AEB9" stroke-width="2"/>
<g filter="url(#filter0_d_2917_8245)">
<path d="M21 230C21 221.163 28.1634 214 37 214H173C181.837 214 189 221.163 189 230V296C189 304.837 181.837 312 173 312H37C28.1634 312 21 304.837 21 296V230Z" fill="#EBEBEB" shape-rendering="crispEdges"/>
<path d="M37 215.5H173C181.008 215.5 187.5 221.992 187.5 230V296C187.5 304.008 181.008 310.5 173 310.5H37C28.9919 310.5 22.5 304.008 22.5 296V230C22.5 221.992 28.9919 215.5 37 215.5Z" stroke="#DCE1E8" stroke-width="3" shape-rendering="crispEdges"/>
<path d="M80.2239 269.5H77.306L73.9661 259.955H76.7083L78.7122 266.811H78.8177L80.8216 259.955H83.5814L80.2239 269.5ZM84.1263 266.828C84.1263 265.844 84.4573 265.123 85.1195 264.666C85.7816 264.209 86.6341 263.951 87.6771 263.893C88.3216 263.852 89.1126 263.811 90.0501 263.77V262.996C90.0384 262.598 89.9007 262.287 89.637 262.064C89.3734 261.842 89.0013 261.73 88.5208 261.73C88.0872 261.73 87.7327 261.824 87.4573 262.012C87.182 262.199 87.0091 262.457 86.9388 262.785H84.4603C84.513 262.223 84.7078 261.719 85.0447 261.273C85.3817 260.828 85.8519 260.477 86.4554 260.219C87.0589 259.961 87.7708 259.832 88.5911 259.832C89.3177 259.832 89.9871 259.946 90.5994 260.175C91.2117 260.403 91.7039 260.759 92.076 261.243C92.4481 261.726 92.6341 262.334 92.6341 263.066V269.5H90.1732V268.182H90.1029C89.8509 268.645 89.492 269.009 89.0262 269.276C88.5604 269.542 87.9876 269.676 87.3079 269.676C86.6868 269.676 86.1375 269.569 85.66 269.355C85.1824 269.141 84.8074 268.82 84.535 268.393C84.2625 267.965 84.1263 267.443 84.1263 266.828ZM86.6224 266.758C86.6224 267.115 86.7528 267.392 87.0135 267.588C87.2742 267.785 87.6185 267.883 88.0462 267.883C88.4329 267.883 88.7801 267.804 89.0877 267.646C89.3953 267.487 89.6341 267.271 89.804 266.995C89.9739 266.72 90.056 266.418 90.0501 266.09V265.396C89.7747 265.401 89.4349 265.416 89.0306 265.439C88.6263 265.463 88.3157 265.486 88.0989 265.51C87.6419 265.557 87.2816 265.686 87.0179 265.896C86.7542 266.107 86.6224 266.395 86.6224 266.758ZM94.6204 259.955H97.1341V261.607H97.2396C97.4095 261.027 97.6995 260.583 98.1097 260.276C98.5198 259.968 98.9974 259.814 99.5423 259.814C99.8411 259.814 100.117 259.844 100.368 259.902V262.223C100.24 262.188 100.067 262.155 99.8499 262.126C99.6331 262.097 99.4368 262.082 99.2611 262.082C98.8743 262.082 98.5257 262.167 98.2152 262.337C97.9046 262.507 97.6614 262.743 97.4857 263.044C97.3099 263.346 97.222 263.688 97.222 264.068V269.5H94.6204V259.955ZM101.634 259.955H104.236V269.5H101.634V259.955ZM102.935 258.707C102.677 258.707 102.438 258.647 102.219 258.527C101.999 258.407 101.826 258.246 101.7 258.043C101.574 257.841 101.511 257.623 101.511 257.389C101.511 257.148 101.574 256.926 101.7 256.721C101.826 256.516 101.999 256.353 102.219 256.233C102.438 256.113 102.677 256.053 102.935 256.053C103.187 256.053 103.421 256.113 103.638 256.233C103.855 256.353 104.026 256.516 104.152 256.721C104.278 256.926 104.341 257.148 104.341 257.389C104.341 257.623 104.278 257.841 104.152 258.043C104.026 258.246 103.855 258.407 103.638 258.527C103.421 258.647 103.187 258.707 102.935 258.707ZM110.546 269.693C109.597 269.693 108.771 269.488 108.068 269.078C107.365 268.668 106.823 268.089 106.442 267.342C106.061 266.595 105.87 265.732 105.87 264.754C105.87 263.775 106.059 262.914 106.437 262.17C106.815 261.426 107.357 260.85 108.063 260.443C108.769 260.036 109.597 259.832 110.546 259.832C111.495 259.832 112.325 260.036 113.034 260.443C113.743 260.85 114.287 261.426 114.668 262.17C115.049 262.914 115.24 263.775 115.24 264.754C115.24 265.732 115.049 266.595 114.668 267.342C114.287 268.089 113.743 268.668 113.034 269.078C112.325 269.488 111.495 269.693 110.546 269.693ZM110.564 267.672C110.997 267.672 111.367 267.547 111.671 267.298C111.976 267.049 112.204 266.705 112.357 266.266C112.509 265.826 112.585 265.322 112.585 264.754C112.585 264.186 112.509 263.68 112.357 263.238C112.204 262.795 111.976 262.448 111.671 262.196C111.367 261.944 110.997 261.818 110.564 261.818C110.124 261.818 109.751 261.944 109.443 262.196C109.136 262.448 108.903 262.795 108.744 263.238C108.586 263.68 108.507 264.186 108.507 264.754C108.507 265.316 108.586 265.819 108.744 266.261C108.903 266.704 109.136 267.049 109.443 267.298C109.751 267.547 110.124 267.672 110.564 267.672ZM122.992 259.955H125.593V269.5H123.097V267.777H122.992C122.763 268.346 122.398 268.795 121.897 269.126C121.396 269.458 120.794 269.623 120.091 269.623C119.452 269.623 118.891 269.479 118.408 269.192C117.925 268.905 117.548 268.491 117.279 267.949C117.009 267.407 116.874 266.77 116.874 266.037V259.955H119.476V265.58C119.476 266.143 119.627 266.591 119.929 266.925C120.23 267.259 120.636 267.426 121.146 267.426C121.474 267.426 121.779 267.348 122.06 267.193C122.341 267.038 122.567 266.811 122.737 266.512C122.907 266.213 122.992 265.855 122.992 265.439V259.955ZM133.064 262.785C133.011 262.451 132.844 262.183 132.563 261.981C132.282 261.779 131.927 261.678 131.499 261.678C131.218 261.678 130.965 261.72 130.739 261.805C130.513 261.89 130.336 262.007 130.207 262.157C130.078 262.306 130.017 262.475 130.023 262.662C130.005 263.113 130.415 263.43 131.253 263.611L132.958 263.963C133.884 264.156 134.574 264.464 135.028 264.886C135.482 265.308 135.712 265.861 135.718 266.547C135.712 267.168 135.532 267.716 135.178 268.19C134.823 268.665 134.326 269.034 133.688 269.298C133.049 269.562 132.314 269.693 131.482 269.693C130.632 269.693 129.897 269.572 129.276 269.329C128.655 269.085 128.167 268.737 127.812 268.283C127.458 267.829 127.245 267.291 127.175 266.67H129.794C129.853 267.045 130.029 267.329 130.322 267.522C130.615 267.716 131.001 267.812 131.482 267.812C131.956 267.812 132.339 267.722 132.629 267.54C132.919 267.358 133.064 267.115 133.064 266.811C133.064 266.564 132.96 266.364 132.752 266.208C132.544 266.053 132.214 265.926 131.763 265.826L130.181 265.51C129.279 265.334 128.593 265.015 128.124 264.552C127.656 264.089 127.427 263.506 127.439 262.803C127.433 262.199 127.594 261.673 127.922 261.225C128.25 260.777 128.719 260.433 129.328 260.192C129.938 259.952 130.65 259.832 131.464 259.832C132.255 259.832 132.947 259.952 133.538 260.192C134.13 260.433 134.595 260.774 134.931 261.216C135.268 261.659 135.46 262.182 135.507 262.785H133.064Z" fill="#AFAFAF"/>
</g>
<g filter="url(#filter1_d_2917_8245)">
<path d="M21 344C21 335.163 28.1634 328 37 328H173C181.837 328 189 335.163 189 344V410C189 418.837 181.837 426 173 426H37C28.1634 426 21 418.837 21 410V344Z" fill="#EBEBEB" shape-rendering="crispEdges"/>
<path d="M37 329.5H173C181.008 329.5 187.5 335.992 187.5 344V410C187.5 418.008 181.008 424.5 173 424.5H37C28.9919 424.5 22.5 418.008 22.5 410V344C22.5 335.992 28.9919 329.5 37 329.5Z" stroke="#DCE1E8" stroke-width="3" shape-rendering="crispEdges"/>
<path d="M83.0107 373.955H85.6474L87.1416 380.406H87.2295L88.7939 373.955H91.3779L92.9599 380.371H93.0478L94.5244 373.955H97.1611L94.542 383.5H91.7998L90.1474 377.436H90.0244L88.372 383.5H85.6123L83.0107 373.955ZM98.0224 380.828C98.0224 379.844 98.3535 379.123 99.0156 378.666C99.6777 378.209 100.53 377.951 101.573 377.893C102.218 377.852 103.009 377.811 103.946 377.77V376.996C103.935 376.598 103.797 376.287 103.533 376.064C103.269 375.842 102.897 375.73 102.417 375.73C101.983 375.73 101.629 375.824 101.353 376.012C101.078 376.199 100.905 376.457 100.835 376.785H98.3564C98.4091 376.223 98.604 375.719 98.9409 375.273C99.2778 374.828 99.748 374.477 100.352 374.219C100.955 373.961 101.667 373.832 102.487 373.832C103.214 373.832 103.883 373.946 104.496 374.175C105.108 374.403 105.6 374.759 105.972 375.243C106.344 375.726 106.53 376.334 106.53 377.066V383.5H104.069V382.182H103.999C103.747 382.645 103.388 383.009 102.922 383.276C102.457 383.542 101.884 383.676 101.204 383.676C100.583 383.676 100.034 383.569 99.5561 383.355C99.0786 383.141 98.7036 382.82 98.4311 382.393C98.1587 381.965 98.0224 381.443 98.0224 380.828ZM100.519 380.758C100.519 381.115 100.649 381.392 100.91 381.588C101.17 381.785 101.515 381.883 101.942 381.883C102.329 381.883 102.676 381.804 102.984 381.646C103.291 381.487 103.53 381.271 103.7 380.995C103.87 380.72 103.952 380.418 103.946 380.09V379.396C103.671 379.401 103.331 379.416 102.927 379.439C102.522 379.463 102.212 379.486 101.995 379.51C101.538 379.557 101.178 379.686 100.914 379.896C100.65 380.107 100.519 380.395 100.519 380.758ZM113.667 383.5H110.749L107.409 373.955H110.151L112.155 380.811H112.261L114.265 373.955H117.024L113.667 383.5ZM122.298 383.693C121.331 383.693 120.495 383.494 119.789 383.096C119.082 382.697 118.539 382.127 118.158 381.386C117.777 380.645 117.587 379.773 117.587 378.771C117.587 377.793 117.776 376.93 118.154 376.183C118.532 375.436 119.069 374.857 119.767 374.447C120.464 374.037 121.272 373.832 122.192 373.832C123.048 373.832 123.814 374.012 124.491 374.373C125.167 374.733 125.701 375.276 126.09 376.003C126.48 376.729 126.675 377.617 126.675 378.666V379.404H120.153C120.153 379.879 120.243 380.292 120.421 380.644C120.6 380.995 120.855 381.266 121.186 381.457C121.517 381.647 121.905 381.742 122.351 381.742C122.778 381.742 123.147 381.656 123.458 381.483C123.769 381.31 123.991 381.074 124.126 380.775H126.604C126.481 381.361 126.229 381.874 125.849 382.313C125.468 382.753 124.974 383.093 124.368 383.333C123.761 383.573 123.071 383.693 122.298 383.693ZM124.214 377.77C124.214 377.389 124.13 377.047 123.963 376.746C123.796 376.444 123.563 376.208 123.265 376.038C122.966 375.868 122.626 375.783 122.245 375.783C121.858 375.783 121.508 375.871 121.195 376.047C120.881 376.223 120.632 376.463 120.448 376.768C120.263 377.072 120.165 377.406 120.153 377.77H124.214Z" fill="#AFAFAF"/>
</g>
<g filter="url(#filter2_d_2917_8245)">
<rect x="21" y="442" width="168" height="98" rx="16" fill="#EBEBEB" shape-rendering="crispEdges"/>
<rect x="22.5" y="443.5" width="165" height="95" rx="14.5" stroke="#DCE1E8" stroke-width="3" shape-rendering="crispEdges"/>
<path d="M56.8887 497.5V487.955H59.4023V489.607H59.5078C59.8594 488.43 60.7383 487.814 61.8105 487.814C62.0742 487.814 62.4082 487.85 62.6367 487.902V490.223C62.3906 490.152 61.8984 490.082 61.5293 490.082C60.3516 490.082 59.4902 490.908 59.4902 492.068V497.5H56.8887ZM70.0195 493.439V487.955H72.6211V497.5H70.125V495.777H70.0195C69.5801 496.885 68.5605 497.623 67.1191 497.623C65.2031 497.623 63.9023 496.27 63.9023 494.037V487.955H66.5039V493.58C66.5039 494.705 67.1543 495.426 68.1738 495.426C69.123 495.426 70.0195 494.74 70.0195 493.439ZM77.2441 491.98V497.5H74.6426V487.955H77.1211V489.625H77.2266C77.666 488.518 78.6855 487.832 80.0918 487.832C82.0781 487.832 83.3965 489.186 83.3789 491.418V497.5H80.7949V491.875C80.7949 490.697 80.1445 489.994 79.0723 489.994C77.9824 489.994 77.2441 490.715 77.2441 491.98ZM93.873 497.693C90.9551 497.693 89.1621 495.795 89.1621 492.771C89.1621 489.818 90.9727 487.832 93.7676 487.832C96.2812 487.832 98.25 489.414 98.25 492.666V493.404H91.7285C91.7285 494.846 92.5898 495.742 93.9258 495.742C94.8047 495.742 95.4375 495.355 95.7012 494.775H98.1797C97.8105 496.533 96.2285 497.693 93.873 497.693ZM91.7285 491.77H95.7891C95.7891 490.609 94.9805 489.783 93.8203 489.783C92.625 489.783 91.7725 490.671 91.7285 491.77ZM99.8848 497.5V487.955H102.398V489.607H102.504C102.855 488.43 103.734 487.814 104.807 487.814C105.07 487.814 105.404 487.85 105.633 487.902V490.223C105.387 490.152 104.895 490.082 104.525 490.082C103.348 490.082 102.486 490.908 102.486 492.068V497.5H99.8848ZM106.898 497.5V487.955H109.412V489.607H109.518C109.869 488.43 110.748 487.814 111.82 487.814C112.084 487.814 112.418 487.85 112.646 487.902V490.223C112.4 490.152 111.908 490.082 111.539 490.082C110.361 490.082 109.5 490.908 109.5 492.068V497.5H106.898ZM113.191 494.828C113.191 492.701 114.914 491.998 116.742 491.893C117.428 491.849 118.711 491.787 119.115 491.77V490.996C119.098 490.205 118.553 489.73 117.586 489.73C116.707 489.73 116.145 490.135 116.004 490.785H113.525C113.684 489.133 115.125 487.832 117.656 487.832C119.73 487.832 121.699 488.764 121.699 491.066V497.5H119.238V496.182H119.168C118.693 497.061 117.797 497.676 116.373 497.676C114.545 497.676 113.191 496.727 113.191 494.828ZM115.688 494.758C115.688 495.496 116.285 495.883 117.111 495.883C118.289 495.883 119.133 495.092 119.115 494.09V493.387C118.72 493.404 117.612 493.466 117.164 493.51C116.268 493.598 115.688 494.02 115.688 494.758ZM126.287 491.98V497.5H123.686V487.955H126.164V489.625H126.27C126.709 488.518 127.729 487.832 129.135 487.832C131.121 487.832 132.439 489.186 132.422 491.418V497.5H129.838V491.875C129.838 490.697 129.188 489.994 128.115 489.994C127.025 489.994 126.287 490.715 126.287 491.98ZM137.959 497.658C135.779 497.658 134.074 495.918 134.074 492.736C134.074 489.467 135.85 487.832 137.959 487.832C139.559 487.832 140.314 488.781 140.666 489.555H140.754V484.773H143.355V497.5H140.789V495.971H140.666C140.297 496.762 139.506 497.658 137.959 497.658ZM138.768 495.584C140.068 495.584 140.807 494.441 140.807 492.719C140.807 490.996 140.068 489.906 138.768 489.906C137.449 489.906 136.746 491.049 136.746 492.719C136.746 494.406 137.449 495.584 138.768 495.584ZM150.896 490.785C150.791 490.117 150.193 489.678 149.332 489.678C148.488 489.678 147.838 490.082 147.855 490.662C147.838 491.084 148.189 491.418 149.086 491.611L150.791 491.963C152.637 492.35 153.533 493.176 153.551 494.547C153.533 496.428 151.846 497.693 149.314 497.693C146.73 497.693 145.219 496.533 145.008 494.67H147.627C147.75 495.426 148.365 495.812 149.314 495.812C150.264 495.812 150.896 495.426 150.896 494.811C150.896 494.318 150.492 494.02 149.596 493.826L148.014 493.51C146.203 493.158 145.254 492.209 145.271 490.803C145.254 488.975 146.836 487.832 149.297 487.832C151.705 487.832 153.199 488.975 153.34 490.785H150.896Z" fill="#AFAFAF"/>
</g>
<g filter="url(#filter3_d_2917_8245)">
<path d="M21 572C21 563.163 28.1634 556 37 556H173C181.837 556 189 563.163 189 572V638C189 646.837 181.837 654 173 654H37C28.1634 654 21 646.837 21 638V572Z" fill="#EBEBEB" shape-rendering="crispEdges"/>
<path d="M37 557.5H173C181.008 557.5 187.5 563.992 187.5 572V638C187.5 646.008 181.008 652.5 173 652.5H37C28.9919 652.5 22.5 646.008 22.5 638V572C22.5 563.992 28.9919 557.5 37 557.5Z" stroke="#DCE1E8" stroke-width="3" shape-rendering="crispEdges"/>
<path d="M84.659 611.5H82.0574V598.773H84.659V611.5ZM86.2234 608.828C86.2234 607.844 86.5545 607.123 87.2166 606.666C87.8787 606.209 88.7312 605.951 89.7742 605.893C90.4187 605.852 91.2097 605.811 92.1472 605.77V604.996C92.1355 604.598 91.9978 604.287 91.7342 604.064C91.4705 603.842 91.0984 603.73 90.6179 603.73C90.1844 603.73 89.8299 603.824 89.5545 604.012C89.2791 604.199 89.1062 604.457 89.0359 604.785H86.5574C86.6101 604.223 86.805 603.719 87.1419 603.273C87.4788 602.828 87.949 602.477 88.5525 602.219C89.156 601.961 89.8679 601.832 90.6883 601.832C91.4148 601.832 92.0843 601.946 92.6966 602.175C93.3089 602.403 93.8011 602.759 94.1731 603.243C94.5452 603.726 94.7312 604.334 94.7312 605.066V611.5H92.2703V610.182H92.2C91.948 610.645 91.5891 611.009 91.1233 611.276C90.6575 611.542 90.0847 611.676 89.4051 611.676C88.784 611.676 88.2346 611.569 87.7571 611.355C87.2796 611.141 86.9046 610.82 86.6321 610.393C86.3596 609.965 86.2234 609.443 86.2234 608.828ZM88.7195 608.758C88.7195 609.115 88.8499 609.392 89.1106 609.588C89.3714 609.785 89.7156 609.883 90.1433 609.883C90.5301 609.883 90.8772 609.804 91.1848 609.646C91.4925 609.487 91.7312 609.271 91.9012 608.995C92.0711 608.72 92.1531 608.418 92.1472 608.09V607.396C91.8719 607.401 91.532 607.416 91.1277 607.439C90.7234 607.463 90.4129 607.486 90.1961 607.51C89.739 607.557 89.3787 607.686 89.115 607.896C88.8513 608.107 88.7195 608.395 88.7195 608.758ZM101.745 603.906H99.9519V608.564C99.9519 608.916 100.028 609.162 100.18 609.303C100.333 609.443 100.555 609.52 100.848 609.531C101.223 609.531 101.569 609.514 101.886 609.479V611.535C101.575 611.594 101.112 611.623 100.497 611.623C99.5183 611.623 98.7478 611.397 98.1853 610.946C97.6228 610.495 97.3445 609.824 97.3504 608.934V603.906H96.032V601.955H97.3504V599.67H99.9519V601.955H101.745V603.906ZM107.607 611.693C106.64 611.693 105.804 611.494 105.098 611.096C104.392 610.697 103.848 610.127 103.468 609.386C103.087 608.645 102.896 607.773 102.896 606.771C102.896 605.793 103.085 604.93 103.463 604.183C103.841 603.436 104.379 602.857 105.076 602.447C105.773 602.037 106.582 601.832 107.502 601.832C108.357 601.832 109.123 602.012 109.8 602.373C110.477 602.733 111.01 603.276 111.4 604.003C111.789 604.729 111.984 605.617 111.984 606.666V607.404H105.463C105.463 607.879 105.552 608.292 105.731 608.644C105.909 608.995 106.164 609.266 106.495 609.457C106.826 609.647 107.215 609.742 107.66 609.742C108.088 609.742 108.457 609.656 108.767 609.483C109.078 609.31 109.301 609.074 109.435 608.775H111.914C111.791 609.361 111.539 609.874 111.158 610.313C110.777 610.753 110.283 611.093 109.677 611.333C109.071 611.573 108.381 611.693 107.607 611.693ZM109.523 605.77C109.523 605.389 109.44 605.047 109.273 604.746C109.106 604.444 108.873 604.208 108.574 604.038C108.275 603.868 107.935 603.783 107.554 603.783C107.168 603.783 106.818 603.871 106.504 604.047C106.191 604.223 105.942 604.463 105.757 604.768C105.573 605.072 105.474 605.406 105.463 605.77H109.523ZM119.068 604.785C119.015 604.451 118.848 604.183 118.567 603.981C118.286 603.779 117.931 603.678 117.504 603.678C117.222 603.678 116.969 603.72 116.743 603.805C116.518 603.89 116.341 604.007 116.212 604.157C116.083 604.306 116.021 604.475 116.027 604.662C116.01 605.113 116.42 605.43 117.258 605.611L118.963 605.963C119.888 606.156 120.578 606.464 121.032 606.886C121.487 607.308 121.717 607.861 121.722 608.547C121.717 609.168 121.536 609.716 121.182 610.19C120.827 610.665 120.331 611.034 119.692 611.298C119.053 611.562 118.318 611.693 117.486 611.693C116.637 611.693 115.901 611.572 115.28 611.329C114.659 611.085 114.171 610.737 113.817 610.283C113.462 609.829 113.25 609.291 113.179 608.67H115.799C115.857 609.045 116.033 609.329 116.326 609.522C116.619 609.716 117.006 609.812 117.486 609.812C117.961 609.812 118.343 609.722 118.633 609.54C118.923 609.358 119.068 609.115 119.068 608.811C119.068 608.564 118.964 608.364 118.756 608.208C118.548 608.053 118.219 607.926 117.767 607.826L116.185 607.51C115.283 607.334 114.597 607.015 114.129 606.552C113.66 606.089 113.431 605.506 113.443 604.803C113.437 604.199 113.598 603.673 113.927 603.225C114.255 602.777 114.723 602.433 115.333 602.192C115.942 601.952 116.654 601.832 117.469 601.832C118.26 601.832 118.951 601.952 119.543 602.192C120.135 602.433 120.599 602.774 120.936 603.216C121.273 603.659 121.465 604.182 121.512 604.785H119.068ZM128.349 603.906H126.556V608.564C126.556 608.916 126.633 609.162 126.785 609.303C126.937 609.443 127.16 609.52 127.453 609.531C127.828 609.531 128.174 609.514 128.49 609.479V611.535C128.179 611.594 127.717 611.623 127.101 611.623C126.123 611.623 125.352 611.397 124.79 610.946C124.227 610.495 123.949 609.824 123.955 608.934V603.906H122.637V601.955H123.955V599.67H126.556V601.955H128.349V603.906Z" fill="#AFAFAF"/>
</g>
<g filter="url(#filter4_d_2917_8245)">
<path d="M205 230C205 221.163 212.163 214 221 214H357C365.837 214 373 221.163 373 230V296C373 304.837 365.837 312 357 312H221C212.163 312 205 304.837 205 296V230Z" fill="#EBEBEB" shape-rendering="crispEdges"/>
<path d="M221 215.5H357C365.008 215.5 371.5 221.992 371.5 230V296C371.5 304.008 365.008 310.5 357 310.5H221C212.992 310.5 206.5 304.008 206.5 296V230C206.5 221.992 212.992 215.5 221 215.5Z" stroke="#DCE1E8" stroke-width="3" shape-rendering="crispEdges"/>
<path d="M272.555 266.178C273.984 266.09 275.279 265.961 276.439 265.791L276.615 267.426C275.045 267.73 273.442 267.927 271.808 268.015C270.173 268.103 268.395 268.146 266.473 268.146L266.209 266.336C268.002 266.324 269.373 266.304 270.322 266.274V263.77H272.555V266.178ZM275.859 258.812H272.59C272.643 259.346 272.815 259.848 273.108 260.32C273.401 260.792 273.82 261.209 274.365 261.572C274.91 261.936 275.572 262.211 276.352 262.398L275.332 264.139C274.418 263.91 273.634 263.55 272.981 263.058C272.328 262.565 271.814 261.977 271.439 261.291C271.075 262.012 270.57 262.628 269.922 263.141C269.275 263.654 268.494 264.027 267.58 264.262L266.525 262.574C267.68 262.27 268.572 261.78 269.202 261.106C269.832 260.433 270.188 259.668 270.27 258.812H267.035V257.002H270.322V255.262H272.555V257.002H275.859V258.812ZM279.586 271.152H277.354V255.121H279.586V271.152ZM295.09 266.811H292.84V255.139H295.09V266.811ZM295.512 270.836H284.367V265.686H286.635V269.043H295.512V270.836ZM287.83 257.564C287.824 258.291 287.955 258.985 288.221 259.647C288.488 260.31 288.901 260.898 289.46 261.414C290.02 261.93 290.725 262.322 291.574 262.592L290.432 264.35C289.553 264.057 288.797 263.626 288.164 263.058C287.531 262.489 287.033 261.815 286.67 261.036C286.301 261.88 285.791 262.612 285.141 263.233C284.49 263.854 283.711 264.32 282.803 264.631L281.643 262.855C282.504 262.568 283.223 262.149 283.8 261.599C284.377 261.048 284.804 260.425 285.079 259.731C285.355 259.037 285.492 258.314 285.492 257.564V256.018H287.83V257.564ZM302.438 256.193C303.27 256.188 304.024 256.353 304.701 256.69C305.377 257.027 305.908 257.494 306.292 258.092C306.675 258.689 306.867 259.363 306.867 260.113C306.867 260.869 306.675 261.546 306.292 262.144C305.908 262.741 305.379 263.208 304.705 263.545C304.031 263.882 303.275 264.051 302.438 264.051C301.6 264.051 300.842 263.882 300.166 263.545C299.489 263.208 298.957 262.741 298.57 262.144C298.184 261.546 297.99 260.869 297.99 260.113C297.99 259.363 298.184 258.689 298.57 258.092C298.957 257.494 299.49 257.027 300.17 256.69C300.85 256.353 301.606 256.188 302.438 256.193ZM302.438 258.127C302.016 258.127 301.635 258.206 301.295 258.364C300.955 258.522 300.69 258.752 300.5 259.054C300.309 259.356 300.217 259.709 300.223 260.113C300.217 260.523 300.309 260.878 300.5 261.177C300.69 261.476 300.954 261.704 301.291 261.862C301.627 262.021 302.01 262.1 302.438 262.1C302.865 262.1 303.248 262.021 303.585 261.862C303.921 261.704 304.188 261.476 304.384 261.177C304.581 260.878 304.682 260.523 304.688 260.113C304.682 259.703 304.582 259.349 304.389 259.05C304.195 258.751 303.929 258.522 303.589 258.364C303.249 258.206 302.865 258.127 302.438 258.127ZM310.699 271.152H308.467V255.121H310.699V271.152ZM298.201 266.055C301.957 266.055 305.074 265.885 307.553 265.545L307.729 267.162C306.158 267.467 304.556 267.663 302.921 267.751C301.286 267.839 299.508 267.883 297.586 267.883L297.322 266.055H298.201Z" fill="#AFAFAF"/>
</g>
<g filter="url(#filter5_d_2917_8245)">
<rect x="205" y="328" width="168" height="98" rx="16" fill="#EBEBEB" shape-rendering="crispEdges"/>
<rect x="206.5" y="329.5" width="165" height="95" rx="14.5" stroke="#DCE1E8" stroke-width="3" shape-rendering="crispEdges"/>
<path d="M263.978 369.139V378.156H261.728V369.139H263.978ZM263.978 378.895V384.941H253.255V378.895H263.978ZM255.47 380.67V383.148H261.78V380.67H255.47ZM256.718 371.266C256.7 373.217 257.878 375.062 260.462 375.871L259.372 377.576C257.544 377.04 256.278 375.933 255.558 374.5C254.828 376.056 253.527 377.286 251.62 377.875L250.53 376.117C253.202 375.309 254.38 373.27 254.38 371.266V369.719H256.718V371.266ZM280.765 378.35V380.107H274.507V385.117H272.292V380.107H266.122V378.35H280.765ZM270.06 369.736V371.582H276.774V369.736H279.024V376.803H267.845V369.736H270.06ZM270.06 375.01H276.774V373.34H270.06V375.01ZM296.321 377.189V378.965H281.679V377.189H296.321ZM294.546 369.42V373.691H285.739V374.623H294.845V376.328H283.507V372.074H292.296V371.143H283.472V369.42H294.546ZM294.616 379.949V384.941H283.56V379.949H294.616ZM285.757 381.725V383.148H292.384V381.725H285.757ZM309.874 369.121V375.379H312.229V377.225H309.874V385.117H307.659V369.121H309.874ZM306.569 371.512V373.305H297.165V371.512H300.786V369.367H303.036V371.512H306.569ZM301.911 374.201C304.249 374.201 305.989 375.783 305.989 378.016C305.989 380.248 304.249 381.83 301.911 381.83C299.556 381.83 297.815 380.248 297.815 378.016C297.815 375.783 299.556 374.201 301.911 374.201ZM301.911 376.012C300.786 376.029 299.96 376.785 299.96 378.016C299.96 379.264 300.786 380.002 301.911 379.984C303.036 380.002 303.845 379.264 303.845 378.016C303.845 376.785 303.036 376.029 301.911 376.012ZM325.431 369.121V375.062H327.786V376.891H325.431V385.152H323.181V369.121H325.431ZM320.948 370.598V372.408H315.675V379.422C317.995 379.396 319.911 379.29 322.038 378.912L322.284 380.793C319.806 381.215 317.626 381.285 314.796 381.268H313.442V370.598H320.948Z" fill="#AFAFAF"/>
</g>
<g filter="url(#filter6_d_2917_8245)">
<path d="M205 458C205 449.163 212.163 442 221 442H357C365.837 442 373 449.163 373 458V524C373 532.837 365.837 540 357 540H221C212.163 540 205 532.837 205 524V458Z" fill="#EBEBEB" shape-rendering="crispEdges"/>
<path d="M221 443.5H357C365.008 443.5 371.5 449.992 371.5 458V524C371.5 532.008 365.008 538.5 357 538.5H221C212.992 538.5 206.5 532.008 206.5 524V458C206.5 449.992 212.992 443.5 221 443.5Z" stroke="#DCE1E8" stroke-width="3" shape-rendering="crispEdges"/>
<path d="M261.446 497.043V498.836H250.267V494.195H252.517V497.043H261.446ZM263.099 491.418V493.211H248.509V491.418H254.679V489.15H256.894V491.418H263.099ZM256.929 484.07C256.929 486.057 258.687 487.92 262.29 488.377L261.429 490.135C258.73 489.704 256.771 488.535 255.769 486.883C254.758 488.526 252.824 489.73 250.161 490.135L249.282 488.377C252.815 487.885 254.644 485.951 254.644 484.07V483.578H256.929V484.07ZM271.36 483.35C275.034 483.35 277.161 484.316 277.179 486.074C277.161 487.85 275.034 488.816 271.36 488.816C267.669 488.816 265.524 487.85 265.524 486.074C265.524 484.316 267.669 483.35 271.36 483.35ZM271.36 484.984C269.005 484.984 267.862 485.371 267.88 486.074C267.862 486.865 269.005 487.164 271.36 487.164C273.733 487.164 274.858 486.865 274.858 486.074C274.858 485.371 273.733 484.984 271.36 484.984ZM278.655 489.572V491.348H264.065V489.572H278.655ZM276.88 492.279V496.357H267.968V497.324H277.302V499.012H265.771V494.793H274.665V493.914H265.753V492.279H276.88ZM298.36 492.244V493.984H283.771V492.244H298.36ZM296.708 497.078V498.836H285.528V494.846H287.778V497.078H296.708ZM297.604 484.457V486.145H284.474V484.457H289.94V483.033H292.19V484.457H297.604ZM291.065 486.619C294.476 486.619 296.444 487.463 296.444 489.098C296.444 490.68 294.476 491.559 291.065 491.559C287.638 491.559 285.669 490.68 285.687 489.098C285.669 487.463 287.638 486.619 291.065 486.619ZM291.065 488.184C288.938 488.201 287.954 488.5 287.972 489.098C287.954 489.695 288.938 489.959 291.065 489.959C293.175 489.959 294.142 489.695 294.142 489.098C294.142 488.5 293.175 488.201 291.065 488.184ZM313.952 489.361V491.119H299.327V489.361H313.952ZM312.212 486.725V488.482H301.155V483.438H312.089V485.23H303.388V486.725H312.212ZM312.142 492.068V496.252H303.229V497.236H312.563V498.977H301.032V494.652H309.927V493.756H301.015V492.068H312.142ZM327.505 483.121V489.062H329.86V490.891H327.505V499.152H325.255V483.121H327.505ZM323.022 484.598V486.408H317.749V493.422C320.069 493.396 321.985 493.29 324.112 492.912L324.358 494.793C321.88 495.215 319.7 495.285 316.87 495.268H315.517V484.598H323.022Z" fill="#AFAFAF"/>
</g>
<g filter="url(#filter7_d_2917_8245)">
<path d="M205 572C205 563.163 212.163 556 221 556H357C365.837 556 373 563.163 373 572V638C373 646.837 365.837 654 357 654H221C212.163 654 205 646.837 205 638V572Z" fill="#EBEBEB" shape-rendering="crispEdges"/>
<path d="M221 557.5H357C365.008 557.5 371.5 563.992 371.5 572V638C371.5 646.008 365.008 652.5 357 652.5H221C212.992 652.5 206.5 646.008 206.5 638V572C206.5 563.992 212.992 557.5 221 557.5Z" stroke="#DCE1E8" stroke-width="3" shape-rendering="crispEdges"/>
<path d="M278.76 603.062H281.115V604.891H278.76V613.152H276.51V597.121H278.76V603.062ZM274.277 600.408H269.004V607.422C270.264 607.41 271.389 607.366 272.379 607.29C273.369 607.214 274.365 607.088 275.367 606.912L275.613 608.793C274.541 608.975 273.485 609.099 272.445 609.167C271.405 609.234 270.211 609.268 268.863 609.268H268.125H266.772V598.598H274.277V600.408ZM296.461 600.936H294.387V602.588H296.461V604.434H294.387V606.473H292.137V597.121H294.387V599.107H296.461V600.936ZM286.195 598C287.016 597.994 287.757 598.157 288.419 598.488C289.081 598.819 289.603 599.279 289.983 599.868C290.364 600.457 290.555 601.123 290.555 601.867C290.555 602.611 290.364 603.276 289.983 603.862C289.603 604.448 289.081 604.907 288.419 605.238C287.757 605.569 287.016 605.734 286.195 605.734C285.369 605.734 284.622 605.569 283.954 605.238C283.286 604.907 282.76 604.448 282.377 603.862C281.993 603.276 281.801 602.611 281.801 601.867C281.801 601.123 281.993 600.457 282.377 599.868C282.76 599.279 283.286 598.819 283.954 598.488C284.622 598.157 285.369 597.994 286.195 598ZM286.195 599.881C285.773 599.875 285.397 599.953 285.066 600.114C284.735 600.275 284.476 600.506 284.288 600.808C284.101 601.11 284.01 601.463 284.016 601.867C284.01 602.271 284.099 602.625 284.284 602.926C284.468 603.228 284.728 603.458 285.062 603.616C285.396 603.774 285.773 603.854 286.195 603.854C286.606 603.854 286.975 603.774 287.303 603.616C287.631 603.458 287.89 603.228 288.081 602.926C288.271 602.625 288.369 602.271 288.375 601.867C288.369 601.463 288.271 601.11 288.081 600.808C287.89 600.506 287.631 600.275 287.303 600.114C286.975 599.953 286.606 599.875 286.195 599.881ZM289.148 606.789C290.238 606.789 291.19 606.917 292.005 607.171C292.819 607.426 293.446 607.792 293.886 608.27C294.325 608.748 294.545 609.314 294.545 609.971C294.545 610.621 294.325 611.182 293.886 611.654C293.446 612.125 292.819 612.487 292.005 612.739C291.19 612.991 290.238 613.117 289.148 613.117C288.035 613.117 287.065 612.991 286.239 612.739C285.413 612.487 284.777 612.125 284.332 611.654C283.887 611.182 283.664 610.621 283.664 609.971C283.664 609.314 283.887 608.748 284.332 608.27C284.777 607.792 285.413 607.426 286.239 607.171C287.065 606.917 288.035 606.789 289.148 606.789ZM289.148 608.564C288.088 608.564 287.282 608.683 286.731 608.92C286.181 609.158 285.908 609.508 285.914 609.971C285.908 610.434 286.179 610.778 286.727 611.003C287.275 611.229 288.082 611.342 289.148 611.342C291.27 611.342 292.33 610.885 292.33 609.971C292.33 609.508 292.061 609.158 291.522 608.92C290.982 608.683 290.191 608.564 289.148 608.564ZM309.943 602.043H312.106V603.871H309.943V609.074H307.693V597.139H309.943V602.043ZM306.744 600.584H297.252V598.809H300.891V597.104H303.123V598.809H306.744V600.584ZM301.998 601.146C302.766 601.146 303.447 601.275 304.042 601.533C304.636 601.791 305.101 602.154 305.435 602.623C305.769 603.092 305.936 603.631 305.936 604.24C305.936 604.85 305.77 605.384 305.439 605.844C305.108 606.304 304.644 606.662 304.046 606.917C303.448 607.171 302.766 607.299 301.998 607.299C301.225 607.299 300.538 607.171 299.937 606.917C299.336 606.662 298.868 606.304 298.531 605.844C298.194 605.384 298.025 604.85 298.025 604.24C298.025 603.631 298.194 603.092 298.531 602.623C298.868 602.154 299.336 601.791 299.937 601.533C300.538 601.275 301.225 601.146 301.998 601.146ZM301.998 602.852C301.453 602.863 301.02 602.989 300.697 603.229C300.375 603.47 300.217 603.807 300.223 604.24C300.217 604.674 300.374 605.008 300.693 605.242C301.012 605.477 301.447 605.594 301.998 605.594C302.549 605.594 302.988 605.475 303.316 605.238C303.645 605 303.809 604.668 303.809 604.24C303.809 603.807 303.645 603.47 303.316 603.229C302.988 602.989 302.549 602.863 301.998 602.852ZM310.523 612.836H299.572V608.16H301.805V611.043H310.523V612.836Z" fill="#AFAFAF"/>
</g>
<g filter="url(#filter8_i_2917_8245)">
<rect x="33" y="141" width="326" height="18" rx="9" fill="#E3E7EA"/>
</g>
<rect x="29" y="137" width="334" height="26" rx="13" stroke="#F0F5FA" stroke-width="8"/>
<g filter="url(#filter9_i_2917_8245)">
<rect x="33" y="141" width="23" height="18" rx="9" fill="#3C86FF"/>
</g>
<path d="M185.101 155.127C183.133 155.127 181.736 154.061 181.698 152.512H183.361C183.412 153.248 184.148 153.73 185.101 153.73C186.116 153.73 186.84 153.172 186.84 152.359C186.84 151.534 186.129 150.938 184.936 150.938H184.11V149.668H184.936C185.913 149.668 186.599 149.122 186.586 148.322C186.599 147.548 186.015 147.027 185.113 147.027C184.25 147.027 183.501 147.51 183.476 148.284H181.889C181.927 146.735 183.323 145.682 185.126 145.682C186.992 145.682 188.198 146.824 188.186 148.233C188.198 149.262 187.513 150.011 186.51 150.214V150.29C187.805 150.468 188.541 151.293 188.528 152.448C188.541 153.997 187.094 155.127 185.101 155.127ZM192.235 150.29C190.928 150.29 190.217 149.325 190.217 147.916C190.217 146.52 190.953 145.555 192.235 145.555C193.568 145.555 194.267 146.52 194.267 147.916C194.267 149.338 193.543 150.29 192.235 150.29ZM192.235 149.274C192.807 149.274 193.086 148.741 193.086 147.916C193.086 147.116 192.832 146.558 192.235 146.57C191.677 146.57 191.385 147.116 191.385 147.916C191.385 148.741 191.677 149.274 192.235 149.274ZM198.24 155.241C196.933 155.254 196.222 154.276 196.222 152.88C196.222 151.471 196.958 150.506 198.24 150.506C199.561 150.506 200.271 151.471 200.271 152.88C200.271 154.289 199.548 155.254 198.24 155.241ZM198.24 154.226C198.824 154.226 199.091 153.692 199.091 152.88C199.091 152.067 198.837 151.509 198.24 151.521C197.682 151.521 197.39 152.08 197.39 152.88C197.39 153.692 197.682 154.226 198.24 154.226ZM191.397 155L197.72 145.809H199.002L192.68 155H191.397Z" fill="#9E9FA7"/>
<g filter="url(#filter10_d_2917_8245)">
<mask id="path-45-inside-1_2917_8245" fill="white">
<path d="M0 708C0 694.745 10.7452 684 24 684H369C382.255 684 393 694.745 393 708V852H0V708Z"/>
</mask>
<path d="M0 708C0 694.745 10.7452 684 24 684H369C382.255 684 393 694.745 393 708V852H0V708Z" fill="white"/>
<path d="M0 708C0 694.193 11.1929 683 25 683H368C381.807 683 393 694.193 393 708C393 695.297 382.255 685 369 685H24C10.7452 685 0 695.297 0 708ZM0 708M393 852H0H393M393 852M0 852V684V852M0 852M393 684V852V684" fill="#E4E7EA" mask="url(#path-45-inside-1_2917_8245)"/>
</g>
<g filter="url(#filter11_di_2917_8245)">
<path d="M30 767C30 758.163 37.1634 751 46 751H347C355.837 751 363 758.163 363 767V795C363 803.837 355.837 811 347 811H46C37.1634 811 30 803.837 30 795V767Z" fill="#22C55E"/>
<path d="M46 751.5H347C355.56 751.5 362.5 758.44 362.5 767V795C362.5 803.56 355.56 810.5 347 810.5H46C37.4396 810.5 30.5 803.56 30.5 795V767C30.5 758.44 37.4396 751.5 46 751.5Z" stroke="white"/>
</g>
<path d="M177.344 788.617H175.234V772.621H177.344V788.617ZM174.004 787.914H171.877V782.641H169.609V780.83H171.877V778.65H169.908C169.521 780.016 168.895 781.249 168.027 782.351C167.16 783.452 166 784.434 164.547 785.295L163.229 783.713C164.822 782.775 166.009 781.712 166.788 780.522C167.573 779.327 168.045 777.93 168.203 776.33H164.16V774.52H170.436C170.436 775.299 170.386 776.072 170.286 776.84H171.877V772.973H174.004V787.914ZM193.621 782.201H179.031V780.408H185.201V778.281H187.416V780.408H193.621V782.201ZM187.451 773.412C187.451 774.051 187.653 774.654 188.058 775.223C188.468 775.785 189.077 776.269 189.886 776.673C190.7 777.077 191.688 777.35 192.848 777.49L191.986 779.23C190.65 779.031 189.493 778.662 188.515 778.123C187.542 777.578 186.798 776.901 186.282 776.093C185.767 776.901 185.02 777.578 184.041 778.123C183.068 778.668 181.914 779.037 180.578 779.23L179.787 777.49C180.924 777.35 181.896 777.074 182.705 776.664C183.514 776.254 184.126 775.765 184.542 775.196C184.958 774.628 185.166 774.033 185.166 773.412V772.885H187.451V773.412ZM191.846 788.617H189.613V785.066H180.648V783.326H191.846V788.617ZM207.209 778.879H209.564V780.725H207.209V788.617H204.994V772.621H207.209V778.879ZM203.904 776.805H194.5V775.012H198.121V772.867H200.371V775.012H203.904V776.805ZM199.246 777.701C200.02 777.701 200.714 777.865 201.329 778.193C201.95 778.516 202.437 778.967 202.788 779.547C203.146 780.127 203.324 780.783 203.324 781.516C203.324 782.248 203.146 782.904 202.788 783.484C202.437 784.064 201.95 784.519 201.329 784.847C200.714 785.169 200.02 785.33 199.246 785.33C198.467 785.33 197.767 785.169 197.146 784.847C196.524 784.519 196.035 784.064 195.678 783.484C195.326 782.904 195.15 782.248 195.15 781.516C195.15 780.783 195.326 780.127 195.678 779.547C196.035 778.967 196.524 778.516 197.146 778.193C197.767 777.865 198.467 777.701 199.246 777.701ZM199.246 779.512C198.871 779.518 198.534 779.603 198.235 779.767C197.942 779.931 197.711 780.162 197.541 780.461C197.377 780.76 197.295 781.111 197.295 781.516C197.295 781.926 197.377 782.28 197.541 782.579C197.711 782.878 197.942 783.106 198.235 783.265C198.534 783.417 198.871 783.49 199.246 783.484C199.621 783.49 199.955 783.417 200.248 783.265C200.541 783.106 200.77 782.878 200.934 782.579C201.098 782.28 201.18 781.926 201.18 781.516C201.18 781.111 201.098 780.76 200.934 780.461C200.77 780.162 200.541 779.931 200.248 779.767C199.955 779.603 199.621 779.518 199.246 779.512ZM223.592 788.617H221.324V772.621H223.592V788.617ZM218.793 774.291C218.793 776.002 218.562 777.558 218.099 778.958C217.642 780.358 216.868 781.645 215.778 782.816C214.688 783.982 213.221 785.002 211.375 785.875L210.197 784.082C211.562 783.438 212.688 782.72 213.572 781.929C214.463 781.138 215.143 780.262 215.611 779.301C216.086 778.334 216.385 777.25 216.508 776.049H211.059V774.291H218.793Z" fill="white"/>
<path d="M165.549 723.266H156.16V714.693H165.549V723.266ZM158.867 721.096H162.842V716.863H158.867V721.096ZM171.092 717.68H173.734V719.914H171.092V724.383H168.342V713.426H171.092V717.68ZM171.328 727.477H166.322C166.48 727.985 166.806 728.468 167.3 728.927C167.794 729.378 168.453 729.775 169.276 730.119C170.107 730.456 171.077 730.699 172.188 730.85L171.221 732.934C169.688 732.726 168.37 732.328 167.268 731.741C166.165 731.161 165.323 730.445 164.743 729.593C164.17 730.445 163.336 731.158 162.24 731.73C161.145 732.311 159.834 732.697 158.309 732.891L157.32 730.807C158.452 730.671 159.429 730.438 160.253 730.108C161.084 729.779 161.739 729.389 162.219 728.938C162.706 728.479 163.028 727.992 163.186 727.477H158.158V725.307H171.328V727.477ZM180.094 714.457C181.096 714.457 182.002 714.658 182.812 715.059C183.621 715.46 184.258 716.018 184.724 716.734C185.189 717.451 185.422 718.267 185.422 719.184C185.422 720.093 185.189 720.906 184.724 721.622C184.258 722.338 183.621 722.9 182.812 723.309C182.002 723.71 181.096 723.91 180.094 723.91C179.084 723.91 178.171 723.71 177.354 723.309C176.538 722.9 175.894 722.338 175.421 721.622C174.955 720.906 174.723 720.093 174.723 719.184C174.723 718.267 174.955 717.451 175.421 716.734C175.894 716.018 176.538 715.46 177.354 715.059C178.171 714.658 179.084 714.457 180.094 714.457ZM180.094 716.756C179.578 716.749 179.116 716.845 178.708 717.046C178.307 717.246 177.992 717.533 177.763 717.905C177.534 718.271 177.423 718.697 177.43 719.184C177.423 719.685 177.534 720.118 177.763 720.483C177.992 720.849 178.307 721.128 178.708 721.321C179.116 721.515 179.578 721.611 180.094 721.611C180.602 721.611 181.053 721.515 181.447 721.321C181.848 721.128 182.163 720.849 182.393 720.483C182.629 720.118 182.751 719.685 182.758 719.184C182.751 718.697 182.629 718.271 182.393 717.905C182.163 717.533 181.848 717.246 181.447 717.046C181.046 716.845 180.595 716.749 180.094 716.756ZM190.105 717.658H192.748V719.871H190.105V724.34H187.355V713.426H190.105V717.658ZM181.469 725.908C181.454 726.753 181.63 727.555 181.995 728.314C182.368 729.074 182.937 729.722 183.703 730.259C184.462 729.7 185.032 729.034 185.411 728.261C185.791 727.48 185.988 726.696 186.002 725.908V725.178H188.688V725.908C188.688 727.011 188.988 727.992 189.59 728.852C190.191 729.704 191.115 730.334 192.361 730.742L191.029 732.74C190.12 732.418 189.354 731.97 188.73 731.397C188.115 730.825 187.635 730.144 187.291 729.356C186.947 730.166 186.482 730.878 185.895 731.494C185.307 732.117 184.591 732.597 183.746 732.934C182.872 732.604 182.135 732.135 181.533 731.526C180.939 730.925 180.477 730.223 180.147 729.421C179.789 730.187 179.306 730.853 178.697 731.419C178.089 731.992 177.358 732.432 176.506 732.74L175.152 730.742C175.969 730.449 176.653 730.051 177.204 729.55C177.756 729.049 178.164 728.486 178.429 727.863C178.694 727.233 178.826 726.581 178.826 725.908V725.178H181.469V725.908ZM199 714.801C199.874 714.801 200.665 715.034 201.374 715.499C202.083 715.957 202.663 716.616 203.114 717.476C203.573 718.328 203.866 719.334 203.995 720.494H207.4V713.426H210.107V733.02H207.4V722.686H204.027C203.934 723.924 203.662 725.002 203.211 725.919C202.76 726.828 202.173 727.527 201.449 728.014C200.726 728.501 199.91 728.744 199 728.744C198.012 728.744 197.131 728.461 196.357 727.896C195.591 727.323 194.993 726.51 194.563 725.457C194.134 724.397 193.923 723.165 193.93 721.762C193.923 720.365 194.134 719.144 194.563 718.099C194.993 717.046 195.591 716.233 196.357 715.66C197.131 715.087 198.012 714.801 199 714.801ZM199 717.271C198.513 717.271 198.083 717.447 197.711 717.798C197.339 718.142 197.049 718.654 196.841 719.334C196.64 720.007 196.544 720.816 196.551 721.762C196.544 722.714 196.64 723.527 196.841 724.2C197.049 724.873 197.335 725.385 197.7 725.736C198.073 726.08 198.506 726.252 199 726.252C199.494 726.252 199.924 726.08 200.289 725.736C200.661 725.393 200.948 724.884 201.148 724.211C201.349 723.538 201.449 722.721 201.449 721.762C201.449 720.809 201.349 719.996 201.148 719.323C200.948 718.65 200.661 718.142 200.289 717.798C199.924 717.447 199.494 717.271 199 717.271ZM230.518 730.699H212.621V728.443H216.617V723.663C215.844 723.198 215.246 722.625 214.823 721.944C214.401 721.257 214.189 720.487 214.189 719.635C214.189 718.596 214.505 717.68 215.135 716.885C215.765 716.09 216.635 715.474 217.745 715.037C218.862 714.593 220.126 714.371 221.537 714.371C222.941 714.371 224.198 714.593 225.308 715.037C226.425 715.474 227.302 716.09 227.939 716.885C228.577 717.68 228.899 718.596 228.906 719.635C228.899 720.465 228.688 721.221 228.272 721.901C227.864 722.575 227.288 723.144 226.543 723.609V728.443H230.518V730.699ZM221.537 716.541C220.606 716.541 219.79 716.663 219.088 716.906C218.393 717.15 217.853 717.504 217.466 717.97C217.086 718.428 216.896 718.983 216.896 719.635C216.896 720.265 217.086 720.813 217.466 721.278C217.853 721.744 218.397 722.102 219.099 722.353C219.8 722.603 220.613 722.729 221.537 722.729C222.454 722.729 223.263 722.603 223.965 722.353C224.667 722.102 225.211 721.744 225.598 721.278C225.992 720.813 226.192 720.265 226.199 719.635C226.192 718.99 225.995 718.435 225.608 717.97C225.222 717.504 224.677 717.15 223.976 716.906C223.274 716.663 222.461 716.541 221.537 716.541ZM223.771 728.443V724.651C223.034 724.787 222.289 724.855 221.537 724.855C220.735 724.855 219.997 724.787 219.324 724.651V728.443H223.771ZM235.803 726.338H233.053L232.773 715.445H236.082L235.803 726.338ZM234.449 731.193C234.12 731.193 233.815 731.111 233.536 730.946C233.257 730.782 233.035 730.563 232.87 730.291C232.713 730.012 232.637 729.711 232.645 729.389C232.637 729.066 232.713 728.769 232.87 728.497C233.035 728.225 233.257 728.01 233.536 727.853C233.815 727.688 234.12 727.605 234.449 727.605C234.757 727.605 235.047 727.688 235.319 727.853C235.599 728.01 235.821 728.225 235.985 728.497C236.15 728.769 236.232 729.066 236.232 729.389C236.232 729.711 236.15 730.012 235.985 730.291C235.821 730.563 235.599 730.782 235.319 730.946C235.047 731.111 234.757 731.193 234.449 731.193Z" fill="#22C55E"/>
</g>
<defs>
<filter id="filter0_d_2917_8245" x="9" y="202" width="192" height="122" filterUnits="userSpaceOnUse" color-interpolation-filters="sRGB">
<feFlood flood-opacity="0" result="BackgroundImageFix"/>
<feColorMatrix in="SourceAlpha" type="matrix" values="0 0 0 0 0 0 0 0 0 0 0 0 0 0 0 0 0 0 127 0" result="hardAlpha"/>
<feOffset/>
<feGaussianBlur stdDeviation="6"/>
<feComposite in2="hardAlpha" operator="out"/>
<feColorMatrix type="matrix" values="0 0 0 0 0.813976 0 0 0 0 0.865692 0 0 0 0 0.917408 0 0 0 1 0"/>
<feBlend mode="normal" in2="BackgroundImageFix" result="effect1_dropShadow_2917_8245"/>
<feBlend mode="normal" in="SourceGraphic" in2="effect1_dropShadow_2917_8245" result="shape"/>
</filter>
<filter id="filter1_d_2917_8245" x="9" y="316" width="192" height="122" filterUnits="userSpaceOnUse" color-interpolation-filters="sRGB">
<feFlood flood-opacity="0" result="BackgroundImageFix"/>
<feColorMatrix in="SourceAlpha" type="matrix" values="0 0 0 0 0 0 0 0 0 0 0 0 0 0 0 0 0 0 127 0" result="hardAlpha"/>
<feOffset/>
<feGaussianBlur stdDeviation="6"/>
<feComposite in2="hardAlpha" operator="out"/>
<feColorMatrix type="matrix" values="0 0 0 0 0.813976 0 0 0 0 0.865692 0 0 0 0 0.917408 0 0 0 1 0"/>
<feBlend mode="normal" in2="BackgroundImageFix" result="effect1_dropShadow_2917_8245"/>
<feBlend mode="normal" in="SourceGraphic" in2="effect1_dropShadow_2917_8245" result="shape"/>
</filter>
<filter id="filter2_d_2917_8245" x="19" y="441" width="172" height="102" filterUnits="userSpaceOnUse" color-interpolation-filters="sRGB">
<feFlood flood-opacity="0" result="BackgroundImageFix"/>
<feColorMatrix in="SourceAlpha" type="matrix" values="0 0 0 0 0 0 0 0 0 0 0 0 0 0 0 0 0 0 127 0" result="hardAlpha"/>
<feOffset dy="1"/>
<feGaussianBlur stdDeviation="1"/>
<feComposite in2="hardAlpha" operator="out"/>
<feColorMatrix type="matrix" values="0 0 0 0 0 0 0 0 0 0 0 0 0 0 0 0 0 0 0.05 0"/>
<feBlend mode="normal" in2="BackgroundImageFix" result="effect1_dropShadow_2917_8245"/>
<feBlend mode="normal" in="SourceGraphic" in2="effect1_dropShadow_2917_8245" result="shape"/>
</filter>
<filter id="filter3_d_2917_8245" x="9" y="544" width="192" height="122" filterUnits="userSpaceOnUse" color-interpolation-filters="sRGB">
<feFlood flood-opacity="0" result="BackgroundImageFix"/>
<feColorMatrix in="SourceAlpha" type="matrix" values="0 0 0 0 0 0 0 0 0 0 0 0 0 0 0 0 0 0 127 0" result="hardAlpha"/>
<feOffset/>
<feGaussianBlur stdDeviation="6"/>
<feComposite in2="hardAlpha" operator="out"/>
<feColorMatrix type="matrix" values="0 0 0 0 0.813976 0 0 0 0 0.865692 0 0 0 0 0.917408 0 0 0 1 0"/>
<feBlend mode="normal" in2="BackgroundImageFix" result="effect1_dropShadow_2917_8245"/>
<feBlend mode="normal" in="SourceGraphic" in2="effect1_dropShadow_2917_8245" result="shape"/>
</filter>
<filter id="filter4_d_2917_8245" x="193" y="202" width="192" height="122" filterUnits="userSpaceOnUse" color-interpolation-filters="sRGB">
<feFlood flood-opacity="0" result="BackgroundImageFix"/>
<feColorMatrix in="SourceAlpha" type="matrix" values="0 0 0 0 0 0 0 0 0 0 0 0 0 0 0 0 0 0 127 0" result="hardAlpha"/>
<feOffset/>
<feGaussianBlur stdDeviation="6"/>
<feComposite in2="hardAlpha" operator="out"/>
<feColorMatrix type="matrix" values="0 0 0 0 0.813976 0 0 0 0 0.865692 0 0 0 0 0.917408 0 0 0 1 0"/>
<feBlend mode="normal" in2="BackgroundImageFix" result="effect1_dropShadow_2917_8245"/>
<feBlend mode="normal" in="SourceGraphic" in2="effect1_dropShadow_2917_8245" result="shape"/>
</filter>
<filter id="filter5_d_2917_8245" x="203" y="327" width="172" height="102" filterUnits="userSpaceOnUse" color-interpolation-filters="sRGB">
<feFlood flood-opacity="0" result="BackgroundImageFix"/>
<feColorMatrix in="SourceAlpha" type="matrix" values="0 0 0 0 0 0 0 0 0 0 0 0 0 0 0 0 0 0 127 0" result="hardAlpha"/>
<feOffset dy="1"/>
<feGaussianBlur stdDeviation="1"/>
<feComposite in2="hardAlpha" operator="out"/>
<feColorMatrix type="matrix" values="0 0 0 0 0 0 0 0 0 0 0 0 0 0 0 0 0 0 0.05 0"/>
<feBlend mode="normal" in2="BackgroundImageFix" result="effect1_dropShadow_2917_8245"/>
<feBlend mode="normal" in="SourceGraphic" in2="effect1_dropShadow_2917_8245" result="shape"/>
</filter>
<filter id="filter6_d_2917_8245" x="193" y="430" width="192" height="122" filterUnits="userSpaceOnUse" color-interpolation-filters="sRGB">
<feFlood flood-opacity="0" result="BackgroundImageFix"/>
<feColorMatrix in="SourceAlpha" type="matrix" values="0 0 0 0 0 0 0 0 0 0 0 0 0 0 0 0 0 0 127 0" result="hardAlpha"/>
<feOffset/>
<feGaussianBlur stdDeviation="6"/>
<feComposite in2="hardAlpha" operator="out"/>
<feColorMatrix type="matrix" values="0 0 0 0 0.813976 0 0 0 0 0.865692 0 0 0 0 0.917408 0 0 0 1 0"/>
<feBlend mode="normal" in2="BackgroundImageFix" result="effect1_dropShadow_2917_8245"/>
<feBlend mode="normal" in="SourceGraphic" in2="effect1_dropShadow_2917_8245" result="shape"/>
</filter>
<filter id="filter7_d_2917_8245" x="193" y="544" width="192" height="122" filterUnits="userSpaceOnUse" color-interpolation-filters="sRGB">
<feFlood flood-opacity="0" result="BackgroundImageFix"/>
<feColorMatrix in="SourceAlpha" type="matrix" values="0 0 0 0 0 0 0 0 0 0 0 0 0 0 0 0 0 0 127 0" result="hardAlpha"/>
<feOffset/>
<feGaussianBlur stdDeviation="6"/>
<feComposite in2="hardAlpha" operator="out"/>
<feColorMatrix type="matrix" values="0 0 0 0 0.813976 0 0 0 0 0.865692 0 0 0 0 0.917408 0 0 0 1 0"/>
<feBlend mode="normal" in2="BackgroundImageFix" result="effect1_dropShadow_2917_8245"/>
<feBlend mode="normal" in="SourceGraphic" in2="effect1_dropShadow_2917_8245" result="shape"/>
</filter>
<filter id="filter8_i_2917_8245" x="25" y="133" width="342" height="38" filterUnits="userSpaceOnUse" color-interpolation-filters="sRGB">
<feFlood flood-opacity="0" result="BackgroundImageFix"/>
<feBlend mode="normal" in="SourceGraphic" in2="BackgroundImageFix" result="shape"/>
<feColorMatrix in="SourceAlpha" type="matrix" values="0 0 0 0 0 0 0 0 0 0 0 0 0 0 0 0 0 0 127 0" result="hardAlpha"/>
<feOffset dy="4"/>
<feGaussianBlur stdDeviation="2"/>
<feComposite in2="hardAlpha" operator="arithmetic" k2="-1" k3="1"/>
<feColorMatrix type="matrix" values="0 0 0 0 0.651984 0 0 0 0 0.660851 0 0 0 0 0.705182 0 0 0 0.25 0"/>
<feBlend mode="normal" in2="shape" result="effect1_innerShadow_2917_8245"/>
</filter>
<filter id="filter9_i_2917_8245" x="33" y="141" width="23" height="22" filterUnits="userSpaceOnUse" color-interpolation-filters="sRGB">
<feFlood flood-opacity="0" result="BackgroundImageFix"/>
<feBlend mode="normal" in="SourceGraphic" in2="BackgroundImageFix" result="shape"/>
<feColorMatrix in="SourceAlpha" type="matrix" values="0 0 0 0 0 0 0 0 0 0 0 0 0 0 0 0 0 0 127 0" result="hardAlpha"/>
<feOffset dy="4"/>
<feGaussianBlur stdDeviation="2"/>
<feComposite in2="hardAlpha" operator="arithmetic" k2="-1" k3="1"/>
<feColorMatrix type="matrix" values="0 0 0 0 1 0 0 0 0 1 0 0 0 0 1 0 0 0 0.25 0"/>
<feBlend mode="normal" in2="shape" result="effect1_innerShadow_2917_8245"/>
</filter>
<filter id="filter10_d_2917_8245" x="-12" y="662" width="417" height="192" filterUnits="userSpaceOnUse" color-interpolation-filters="sRGB">
<feFlood flood-opacity="0" result="BackgroundImageFix"/>
<feColorMatrix in="SourceAlpha" type="matrix" values="0 0 0 0 0 0 0 0 0 0 0 0 0 0 0 0 0 0 127 0" result="hardAlpha"/>
<feMorphology radius="18" operator="erode" in="SourceAlpha" result="effect1_dropShadow_2917_8245"/>
<feOffset dy="-10"/>
<feGaussianBlur stdDeviation="15"/>
<feComposite in2="hardAlpha" operator="out"/>
<feColorMatrix type="matrix" values="0 0 0 0 0 0 0 0 0 0 0 0 0 0 0 0 0 0 0.25 0"/>
<feBlend mode="normal" in2="BackgroundImageFix" result="effect1_dropShadow_2917_8245"/>
<feBlend mode="normal" in="SourceGraphic" in2="effect1_dropShadow_2917_8245" result="shape"/>
</filter>
<filter id="filter11_di_2917_8245" x="26" y="747" width="341" height="68" filterUnits="userSpaceOnUse" color-interpolation-filters="sRGB">
<feFlood flood-opacity="0" result="BackgroundImageFix"/>
<feColorMatrix in="SourceAlpha" type="matrix" values="0 0 0 0 0 0 0 0 0 0 0 0 0 0 0 0 0 0 127 0" result="hardAlpha"/>
<feOffset/>
<feGaussianBlur stdDeviation="2"/>
<feComposite in2="hardAlpha" operator="out"/>
<feColorMatrix type="matrix" values="0 0 0 0 0.715912 0 0 0 0 0.69906 0 0 0 0 0.614798 0 0 0 0.25 0"/>
<feBlend mode="normal" in2="BackgroundImageFix" result="effect1_dropShadow_2917_8245"/>
<feBlend mode="normal" in="SourceGraphic" in2="effect1_dropShadow_2917_8245" result="shape"/>
<feColorMatrix in="SourceAlpha" type="matrix" values="0 0 0 0 0 0 0 0 0 0 0 0 0 0 0 0 0 0 127 0" result="hardAlpha"/>
<feOffset dy="4"/>
<feGaussianBlur stdDeviation="2"/>
<feComposite in2="hardAlpha" operator="arithmetic" k2="-1" k3="1"/>
<feColorMatrix type="matrix" values="0 0 0 0 1 0 0 0 0 1 0 0 0 0 1 0 0 0 0.25 0"/>
<feBlend mode="normal" in2="shape" result="effect2_innerShadow_2917_8245"/>
</filter>
<clipPath id="clip0_2917_8245">
<rect width="393" height="852" fill="white"/>
</clipPath>
</defs>
</svg>
