<svg width="393" height="852" viewBox="0 0 393 852" fill="none" xmlns="http://www.w3.org/2000/svg">
<g clip-path="url(#clip0_5202_583)">
<rect width="393" height="852" fill="white"/>
<rect x="-1.38281" width="393" height="119" fill="white"/>
<rect width="393" height="66.3895" transform="translate(-1.38281)" fill="white"/>
<path d="M37.5698 38V28.1304H37.4204L34.4404 30.2305V28.2217L37.5698 26.022H39.7031V38H37.5698ZM47.5059 38.2407C46.5872 38.2407 45.7765 38.0941 45.0737 37.8008C44.3709 37.502 43.8203 37.0924 43.4219 36.5723C43.029 36.0465 42.8325 35.4434 42.8325 34.7627V34.7461C42.8325 34.2314 42.946 33.7666 43.1729 33.3516C43.4053 32.931 43.7262 32.5768 44.1357 32.2891C44.5452 32.0013 45.0156 31.8049 45.5469 31.6997V31.6499C44.8607 31.4673 44.3073 31.1408 43.8867 30.6704C43.4717 30.1945 43.2642 29.6356 43.2642 28.9937V28.9771C43.2642 28.3628 43.444 27.8149 43.8037 27.3335C44.1689 26.8521 44.6698 26.473 45.3062 26.1963C45.9481 25.9196 46.6813 25.7812 47.5059 25.7812C48.3304 25.7812 49.0609 25.9196 49.6973 26.1963C50.3392 26.473 50.84 26.8521 51.1997 27.3335C51.5594 27.8149 51.7393 28.3628 51.7393 28.9771V28.9937C51.7393 29.6356 51.5317 30.1945 51.1167 30.6704C50.7017 31.1408 50.151 31.4673 49.4648 31.6499V31.6997C49.9961 31.8049 50.4665 32.0013 50.876 32.2891C51.2855 32.5768 51.6037 32.931 51.8306 33.3516C52.063 33.7666 52.1792 34.2314 52.1792 34.7461V34.7627C52.1792 35.4434 51.98 36.0465 51.5815 36.5723C51.1886 37.0924 50.6408 37.502 49.938 37.8008C49.2352 38.0941 48.4245 38.2407 47.5059 38.2407ZM47.5059 36.6055C47.9873 36.6055 48.4106 36.5225 48.7759 36.3564C49.1466 36.1849 49.4372 35.9497 49.6475 35.6509C49.8577 35.3465 49.9629 35.0034 49.9629 34.6216V34.605C49.9629 34.2176 49.8577 33.8745 49.6475 33.5757C49.4427 33.2713 49.1549 33.0334 48.7842 32.8618C48.4134 32.6903 47.9873 32.6045 47.5059 32.6045C47.0189 32.6045 46.59 32.6903 46.2192 32.8618C45.854 33.0334 45.5662 33.2713 45.356 33.5757C45.1457 33.8745 45.0405 34.2176 45.0405 34.605V34.6216C45.0405 35.0034 45.1457 35.3465 45.356 35.6509C45.5718 35.9497 45.8623 36.1849 46.2275 36.3564C46.5983 36.5225 47.0244 36.6055 47.5059 36.6055ZM47.5059 30.9692C47.9264 30.9692 48.2944 30.8945 48.6099 30.7451C48.9308 30.5902 49.1799 30.3799 49.3569 30.1143C49.5396 29.8486 49.6309 29.5387 49.6309 29.1846V29.168C49.6309 28.8193 49.5396 28.5122 49.3569 28.2466C49.1799 27.981 48.9308 27.7734 48.6099 27.624C48.2889 27.4746 47.9209 27.3999 47.5059 27.3999C47.0853 27.3999 46.7145 27.4746 46.3936 27.624C46.0781 27.7734 45.8291 27.981 45.6465 28.2466C45.4694 28.5122 45.3809 28.8193 45.3809 29.168V29.1846C45.3809 29.5387 45.4694 29.8486 45.6465 30.1143C45.8291 30.3799 46.0781 30.5902 46.3936 30.7451C46.7145 30.8945 47.0853 30.9692 47.5059 30.9692ZM56.0308 36.3896C55.6545 36.3896 55.339 36.2651 55.0845 36.0161C54.8354 35.7616 54.7109 35.4517 54.7109 35.0864C54.7109 34.7157 54.8354 34.4058 55.0845 34.1567C55.339 33.9022 55.6545 33.7749 56.0308 33.7749C56.4126 33.7749 56.728 33.9022 56.9771 34.1567C57.2261 34.4058 57.3506 34.7157 57.3506 35.0864C57.3506 35.4517 57.2261 35.7616 56.9771 36.0161C56.728 36.2651 56.4126 36.3896 56.0308 36.3896ZM56.0308 30.2305C55.6545 30.2305 55.339 30.106 55.0845 29.8569C54.8354 29.6024 54.7109 29.2925 54.7109 28.9272C54.7109 28.5565 54.8354 28.2466 55.0845 27.9976C55.339 27.743 55.6545 27.6157 56.0308 27.6157C56.4126 27.6157 56.728 27.743 56.9771 27.9976C57.2261 28.2466 57.3506 28.5565 57.3506 28.9272C57.3506 29.2925 57.2261 29.6024 56.9771 29.8569C56.728 30.106 56.4126 30.2305 56.0308 30.2305ZM64.3896 38.2988C63.4378 38.2988 62.6216 38.0443 61.9409 37.5352C61.2658 37.026 60.7456 36.3011 60.3804 35.3604C60.0151 34.4196 59.8325 33.3045 59.8325 32.0151V31.9985C59.8325 30.7091 60.0151 29.5968 60.3804 28.6616C60.7456 27.7209 61.2658 26.9959 61.9409 26.4868C62.6216 25.9777 63.4378 25.7231 64.3896 25.7231C65.3415 25.7231 66.1577 25.9777 66.8384 26.4868C67.519 26.9959 68.042 27.7209 68.4072 28.6616C68.7725 29.5968 68.9551 30.7091 68.9551 31.9985V32.0151C68.9551 33.3045 68.7725 34.4196 68.4072 35.3604C68.042 36.3011 67.519 37.026 66.8384 37.5352C66.1577 38.0443 65.3415 38.2988 64.3896 38.2988ZM64.3896 36.564C64.8988 36.564 65.3332 36.3813 65.6929 36.0161C66.0526 35.6509 66.3265 35.1307 66.5146 34.4556C66.7083 33.7749 66.8052 32.9614 66.8052 32.0151V31.9985C66.8052 31.0522 66.7083 30.2415 66.5146 29.5664C66.3265 28.8857 66.0526 28.3656 65.6929 28.0059C65.3332 27.6406 64.8988 27.458 64.3896 27.458C63.8805 27.458 63.4461 27.6406 63.0864 28.0059C62.7323 28.3656 62.4583 28.8857 62.2646 29.5664C62.0765 30.2415 61.9824 31.0522 61.9824 31.9985V32.0151C61.9824 32.9614 62.0765 33.7749 62.2646 34.4556C62.4583 35.1307 62.7323 35.6509 63.0864 36.0161C63.4461 36.3813 63.8805 36.564 64.3896 36.564ZM75.6953 38.2988C74.7435 38.2988 73.9272 38.0443 73.2466 37.5352C72.5715 37.026 72.0513 36.3011 71.686 35.3604C71.3208 34.4196 71.1382 33.3045 71.1382 32.0151V31.9985C71.1382 30.7091 71.3208 29.5968 71.686 28.6616C72.0513 27.7209 72.5715 26.9959 73.2466 26.4868C73.9272 25.9777 74.7435 25.7231 75.6953 25.7231C76.6471 25.7231 77.4634 25.9777 78.144 26.4868C78.8247 26.9959 79.3477 27.7209 79.7129 28.6616C80.0781 29.5968 80.2607 30.7091 80.2607 31.9985V32.0151C80.2607 33.3045 80.0781 34.4196 79.7129 35.3604C79.3477 36.3011 78.8247 37.026 78.144 37.5352C77.4634 38.0443 76.6471 38.2988 75.6953 38.2988ZM75.6953 36.564C76.2044 36.564 76.6388 36.3813 76.9985 36.0161C77.3582 35.6509 77.6322 35.1307 77.8203 34.4556C78.014 33.7749 78.1108 32.9614 78.1108 32.0151V31.9985C78.1108 31.0522 78.014 30.2415 77.8203 29.5664C77.6322 28.8857 77.3582 28.3656 76.9985 28.0059C76.6388 27.6406 76.2044 27.458 75.6953 27.458C75.1862 27.458 74.7518 27.6406 74.3921 28.0059C74.0379 28.3656 73.764 28.8857 73.5703 29.5664C73.3822 30.2415 73.2881 31.0522 73.2881 31.9985V32.0151C73.2881 32.9614 73.3822 33.7749 73.5703 34.4556C73.764 35.1307 74.0379 35.6509 74.3921 36.0161C74.7518 36.3813 75.1862 36.564 75.6953 36.564Z" fill="black"/>
<path fill-rule="evenodd" clip-rule="evenodd" d="M313.231 27.0329C313.231 26.3999 312.754 25.8867 312.165 25.8867H311.098C310.509 25.8867 310.031 26.3999 310.031 27.0329V36.9669C310.031 37.5999 310.509 38.1131 311.098 38.1131H312.165C312.754 38.1131 313.231 37.5999 313.231 36.9669V27.0329ZM305.797 28.332H306.864C307.453 28.332 307.93 28.8575 307.93 29.5057V36.9394C307.93 37.5876 307.453 38.1131 306.864 38.1131H305.797C305.208 38.1131 304.73 37.5876 304.73 36.9394V29.5057C304.73 28.8575 305.208 28.332 305.797 28.332ZM301.465 30.981H300.399C299.81 30.981 299.332 31.5132 299.332 32.1697V36.9244C299.332 37.5809 299.81 38.1131 300.399 38.1131H301.465C302.054 38.1131 302.532 37.5809 302.532 36.9244V32.1697C302.532 31.5132 302.054 30.981 301.465 30.981ZM296.165 33.4263H295.098C294.509 33.4263 294.031 33.9509 294.031 34.598V36.9414C294.031 37.5885 294.509 38.1131 295.098 38.1131H296.165C296.754 38.1131 297.231 37.5885 297.231 36.9414V34.598C297.231 33.9509 296.754 33.4263 296.165 33.4263Z" fill="black"/>
<path fill-rule="evenodd" clip-rule="evenodd" d="M328.802 28.3022C331.289 28.3023 333.681 29.2244 335.483 30.8779C335.619 31.0055 335.836 31.0039 335.97 30.8743L337.267 29.6108C337.335 29.545 337.373 29.456 337.372 29.3633C337.372 29.2706 337.333 29.182 337.264 29.117C332.533 24.7423 325.07 24.7423 320.339 29.117C320.27 29.1819 320.231 29.2705 320.23 29.3632C320.23 29.4559 320.268 29.545 320.335 29.6108L321.633 30.8743C321.767 31.0041 321.984 31.0057 322.119 30.8779C323.922 29.2243 326.314 28.3022 328.802 28.3022ZM328.798 32.5225C330.156 32.5224 331.465 33.0342 332.471 33.9583C332.607 34.0894 332.821 34.0866 332.954 33.9519L334.241 32.6326C334.309 32.5634 334.347 32.4695 334.346 32.3719C334.345 32.2744 334.305 32.1813 334.236 32.1135C331.172 29.2227 326.427 29.2227 323.364 32.1135C323.294 32.1813 323.255 32.2744 323.254 32.372C323.253 32.4696 323.291 32.5635 323.359 32.6326L324.646 33.9519C324.778 34.0866 324.993 34.0894 325.129 33.9583C326.134 33.0348 327.442 32.5231 328.798 32.5225ZM331.323 35.316C331.325 35.4214 331.288 35.523 331.22 35.5968L329.044 38.0515C328.98 38.1236 328.893 38.1642 328.802 38.1642C328.711 38.1642 328.624 38.1236 328.561 38.0515L326.384 35.5968C326.316 35.5229 326.279 35.4213 326.281 35.316C326.283 35.2106 326.324 35.1108 326.394 35.0402C327.784 33.7263 329.82 33.7263 331.21 35.0402C331.28 35.1109 331.321 35.2107 331.323 35.316Z" fill="black"/>
<rect opacity="0.35" x="344.875" y="26" width="24" height="12" rx="3.8" stroke="black"/>
<path opacity="0.4" d="M370.375 30.2812V34.3567C371.18 34.0116 371.703 33.2086 371.703 32.319C371.703 31.4294 371.18 30.6264 370.375 30.2812Z" fill="black"/>
<rect x="346.375" y="27.5" width="21" height="9" rx="2.5" fill="black"/>
<path d="M77.3691 82.832C78.5762 82.832 79.6045 82.9375 80.4541 83.1484C81.3096 83.3594 81.9629 83.6699 82.4141 84.0801C82.8652 84.4844 83.0938 84.9766 83.0996 85.5566C83.0938 86.3594 82.6777 86.9922 81.8516 87.4551C81.0254 87.918 79.8477 88.1904 78.3184 88.2725V89.2832H84.6289V90.8477H70.1445V89.2832H76.3848V88.2725C74.8613 88.1846 73.6895 87.9092 72.8691 87.4463C72.0488 86.9834 71.6387 86.3535 71.6387 85.5566C71.6387 84.9766 71.8643 84.4844 72.3154 84.0801C72.7666 83.6699 73.4199 83.3594 74.2754 83.1484C75.1309 82.9375 76.1621 82.832 77.3691 82.832ZM77.3691 84.291C76.1562 84.291 75.2363 84.3994 74.6094 84.6162C73.9883 84.8271 73.6836 85.1406 73.6953 85.5566C73.6895 85.9902 73.9912 86.3125 74.6006 86.5234C75.2158 86.7344 76.1387 86.8457 77.3691 86.8574C78.6113 86.8457 79.54 86.7344 80.1553 86.5234C80.7705 86.3125 81.0781 85.9902 81.0781 85.5566C81.0781 85.1406 80.7646 84.8271 80.1377 84.6162C79.5166 84.3994 78.5938 84.291 77.3691 84.291ZM82.8184 95.752H73.7832V96.9297H83.2578V98.4238H71.8672V94.3633H80.9023V93.3438H71.8496V91.8672H82.8184V95.752ZM98.1465 88.7207H100.59V90.373H98.1465V98.5645H96.1953V82.6738H98.1465V88.7207ZM88.1973 87.9473H91.9414V83.9746H93.8926V94.8379H86.2637V83.9746H88.1973V87.9473ZM91.9414 93.2383V89.4766H88.1973V93.2383H91.9414ZM115.76 92.9043H101.24V91.3398H115.76V92.9043ZM114.318 98.248H103.104V93.9062H105.072V96.666H114.318V98.248ZM113.967 87.332H105.02V88.6855H114.283V90.1621H103.086V85.9258H112.016V84.625H103.033V83.0957H113.967V87.332ZM133.619 87.1387H135.852V88.7559H133.619V94.1699H131.668V82.6738H133.619V87.1387ZM128.873 85.5566H123.688V89.8809H124.021C125.451 89.8809 126.62 89.8457 127.528 89.7754C128.442 89.7051 129.342 89.5762 130.227 89.3887L130.438 90.9707C129.424 91.1699 128.381 91.3047 127.309 91.375C126.236 91.4453 124.812 91.4805 123.037 91.4805H121.754V83.9922H128.873V85.5566ZM134.252 98.248H123.441V92.957H125.393V96.666H134.252V98.248ZM140.984 83.834C141.699 83.834 142.344 84.0244 142.918 84.4053C143.492 84.7861 143.961 85.3311 144.324 86.04C144.688 86.7432 144.913 87.5723 145.001 88.5273H148.033V82.6738H149.967V98.582H148.033V90.1094H145.027C144.957 91.1172 144.743 91.9961 144.386 92.7461C144.028 93.4902 143.557 94.0645 142.971 94.4688C142.385 94.8672 141.723 95.0664 140.984 95.0664C140.188 95.0664 139.481 94.8379 138.866 94.3809C138.251 93.9238 137.771 93.2705 137.425 92.4209C137.079 91.5713 136.906 90.5781 136.906 89.4414C136.906 88.3164 137.079 87.332 137.425 86.4883C137.771 85.6387 138.251 84.9854 138.866 84.5283C139.487 84.0654 140.193 83.834 140.984 83.834ZM140.984 85.5918C140.545 85.5918 140.158 85.7471 139.824 86.0576C139.49 86.3623 139.232 86.8047 139.051 87.3848C138.869 87.959 138.781 88.6445 138.787 89.4414C138.781 90.2441 138.869 90.9355 139.051 91.5156C139.232 92.0957 139.49 92.541 139.824 92.8516C140.158 93.1562 140.545 93.3086 140.984 93.3086C141.424 93.3086 141.808 93.1562 142.136 92.8516C142.47 92.541 142.728 92.0957 142.909 91.5156C143.097 90.9355 143.193 90.2441 143.199 89.4414C143.193 88.6445 143.097 87.9561 142.909 87.376C142.728 86.7959 142.47 86.3535 142.136 86.0488C141.808 85.7441 141.424 85.5918 140.984 85.5918ZM161.322 87.5078C161.322 88.3457 161.439 89.1572 161.674 89.9424C161.908 90.7275 162.269 91.4395 162.755 92.0781C163.247 92.7168 163.854 93.2266 164.574 93.6074L163.467 95.0488C162.746 94.6738 162.131 94.1582 161.621 93.502C161.117 92.8457 160.716 92.084 160.417 91.2168C160.13 92.1484 159.729 92.9775 159.213 93.7041C158.703 94.4248 158.088 94.9902 157.367 95.4004L156.242 93.959C156.957 93.543 157.555 92.9922 158.035 92.3066C158.521 91.6211 158.882 90.8652 159.116 90.0391C159.356 89.2129 159.477 88.3691 159.477 87.5078V87.0684H156.699V85.4688H159.477V83.2363H161.322V85.4688H164.064V87.0684H161.322V87.5078ZM170.252 98.5645H168.389V90.5137H166.754V97.791H164.908V82.9551H166.754V88.8965H168.389V82.6738H170.252V98.5645ZM185.439 98.5469H183.453V94.9082H180.078V93.4316H183.453V82.6914H185.439V98.5469ZM171.957 90.8477C174.031 90.8477 175.903 90.8184 177.573 90.7598C179.243 90.7012 180.84 90.5664 182.363 90.3555L182.486 91.7969C181.203 92.0195 179.727 92.1865 178.057 92.2979V98.0723H176.088V92.3945C174.975 92.4297 173.68 92.4473 172.203 92.4473L171.957 90.8477ZM177.178 83.377C177.951 83.377 178.643 83.5146 179.252 83.79C179.867 84.0596 180.348 84.4404 180.693 84.9326C181.045 85.4189 181.221 85.9727 181.221 86.5938C181.221 87.2266 181.048 87.7861 180.702 88.2725C180.356 88.7529 179.876 89.1279 179.261 89.3975C178.646 89.6611 177.951 89.793 177.178 89.793C176.387 89.793 175.681 89.6611 175.06 89.3975C174.444 89.1338 173.964 88.7588 173.618 88.2725C173.272 87.7861 173.1 87.2266 173.1 86.5938C173.1 85.9668 173.272 85.4102 173.618 84.9238C173.964 84.4375 174.444 84.0596 175.06 83.79C175.681 83.5146 176.387 83.377 177.178 83.377ZM177.178 84.8711C176.738 84.8711 176.349 84.9443 176.009 85.0908C175.669 85.2314 175.405 85.4336 175.218 85.6973C175.036 85.9551 174.945 86.2539 174.945 86.5938C174.945 87.1211 175.147 87.5371 175.552 87.8418C175.962 88.1465 176.504 88.2988 177.178 88.2988C177.6 88.2988 177.975 88.2314 178.303 88.0967C178.637 87.9619 178.895 87.7656 179.076 87.5078C179.264 87.25 179.357 86.9453 179.357 86.5938C179.357 86.2539 179.264 85.9551 179.076 85.6973C178.889 85.4336 178.631 85.2314 178.303 85.0908C177.975 84.9443 177.6 84.8711 177.178 84.8711ZM190.449 88.2461C191.58 88.2344 192.661 88.1846 193.692 88.0967C194.729 88.0029 195.775 87.8594 196.83 87.666L197.059 89.248C195.852 89.4824 194.662 89.6465 193.49 89.7402C192.318 89.834 191.082 89.8809 189.781 89.8809H188.463V83.4473H190.449V88.2461ZM200.891 91.0059H198.939V86.3828H194.721V84.8184H198.939V82.6738H200.891V91.0059ZM201.207 93.3086H189.764V91.7969H194.51V90.3906H196.461V91.7969H201.207V93.3086ZM195.477 93.8184C196.414 93.8242 197.223 93.9209 197.902 94.1084C198.582 94.29 199.104 94.5566 199.467 94.9082C199.836 95.2598 200.023 95.6816 200.029 96.1738C200.023 96.6777 199.836 97.1055 199.467 97.457C199.104 97.8145 198.582 98.084 197.902 98.2656C197.223 98.4531 196.414 98.5469 195.477 98.5469C194.551 98.5469 193.745 98.4531 193.06 98.2656C192.38 98.084 191.855 97.8145 191.486 97.457C191.123 97.1055 190.941 96.6777 190.941 96.1738C190.941 95.6816 191.123 95.2598 191.486 94.9082C191.855 94.5566 192.38 94.29 193.06 94.1084C193.745 93.9209 194.551 93.8242 195.477 93.8184ZM195.477 95.2422C194.65 95.2305 194.009 95.3066 193.552 95.4707C193.101 95.6348 192.875 95.8691 192.875 96.1738C192.875 96.4961 193.101 96.7422 193.552 96.9121C194.003 97.0762 194.645 97.1582 195.477 97.1582C196.309 97.1582 196.947 97.0762 197.393 96.9121C197.838 96.7422 198.061 96.4961 198.061 96.1738C198.061 95.8691 197.835 95.6348 197.384 95.4707C196.938 95.3066 196.303 95.2305 195.477 95.2422ZM216.412 98.5645H214.443V82.6738H216.412V98.5645ZM211.666 84.3613C211.666 86.8867 211.095 89.1045 209.952 91.0146C208.81 92.9189 206.914 94.498 204.266 95.752L203.246 94.1875C205.291 93.2148 206.829 92.0518 207.86 90.6982C208.897 89.3389 209.504 87.7422 209.68 85.9082H204.055V84.3613H211.666Z" fill="#1E1E1E"/>
<g filter="url(#filter0_i_5202_583)">
<rect x="31.6172" y="142" width="326" height="18" rx="9" fill="#E3E7EA"/>
</g>
<rect x="27.6172" y="138" width="334" height="26" rx="13" stroke="#F0F5FA" stroke-width="8"/>
<g filter="url(#filter1_i_5202_583)">
<rect x="31.6172" y="142" width="128" height="18" rx="9" fill="#3C86FF"/>
</g>
<path d="M180.214 154.286V152.966L184.188 146.809H186.244V152.928H187.45V154.286H186.244V156H184.67V154.286H180.214ZM181.902 152.928H184.695V148.688H184.594L181.902 152.864V152.928ZM192.109 156.127C190.059 156.127 188.612 155.035 188.618 153.537C188.612 152.369 189.481 151.417 190.586 151.239V151.188C189.621 150.985 188.967 150.147 188.961 149.145C188.967 147.723 190.294 146.682 192.109 146.682C193.912 146.682 195.245 147.723 195.245 149.145C195.245 150.154 194.572 150.985 193.62 151.188V151.239C194.718 151.417 195.594 152.369 195.601 153.537C195.594 155.035 194.141 156.127 192.109 156.127ZM190.319 153.385C190.313 154.235 191.018 154.819 192.109 154.819C193.188 154.819 193.893 154.235 193.899 153.385C193.893 152.521 193.144 151.88 192.109 151.887C191.075 151.88 190.313 152.515 190.319 153.385ZM190.573 149.297C190.58 150.103 191.214 150.655 192.109 150.655C192.992 150.655 193.633 150.103 193.633 149.297C193.633 148.516 193.011 147.977 192.109 147.977C191.189 147.977 190.58 148.516 190.573 149.297ZM199.231 151.29C197.924 151.296 197.207 150.325 197.213 148.916C197.207 147.52 197.956 146.555 199.231 146.555C200.558 146.555 201.256 147.52 201.263 148.916C201.256 150.338 200.533 151.296 199.231 151.29ZM198.381 148.916C198.387 149.741 198.673 150.274 199.231 150.274C199.809 150.274 200.082 149.741 200.082 148.916C200.082 148.116 199.828 147.564 199.231 147.57C198.673 147.57 198.387 148.123 198.381 148.916ZM198.394 156L204.716 146.809H205.998L199.676 156H198.394ZM203.218 153.88C203.211 152.477 203.96 151.506 205.236 151.506C206.557 151.506 207.261 152.477 207.268 153.88C207.261 155.289 206.538 156.248 205.236 156.241C203.929 156.248 203.211 155.276 203.218 153.88ZM204.386 153.88C204.392 154.692 204.678 155.232 205.236 155.226C205.814 155.232 206.087 154.692 206.087 153.88C206.087 153.067 205.833 152.515 205.236 152.521C204.678 152.528 204.392 153.074 204.386 153.88Z" fill="#9E9FA7"/>
<path d="M44.1172 81.5L35.6172 90L44.1172 98.5" stroke="#A0AEB9" stroke-width="2"/>
<mask id="path-14-inside-1_5202_583" fill="white">
<path d="M20 216C20 202.745 30.7452 192 44 192H349C362.255 192 373 202.745 373 216V361C373 374.255 362.255 385 349 385H44C30.7452 385 20 374.255 20 361V216Z"/>
</mask>
<path d="M20 216C20 202.745 30.7452 192 44 192H349C362.255 192 373 202.745 373 216V361C373 374.255 362.255 385 349 385H44C30.7452 385 20 374.255 20 361V216Z" fill="url(#paint0_linear_5202_583)"/>
<path d="M44 192V193H349V192V191H44V192ZM373 216H372V361H373H374V216H373ZM349 385V384H44V385V386H349V385ZM20 361H21V216H20H19V361H20ZM44 385V384C31.2975 384 21 373.703 21 361H20H19C19 374.807 30.1929 386 44 386V385ZM373 361H372C372 373.703 361.703 384 349 384V385V386C362.807 386 374 374.807 374 361H373ZM349 192V193C361.703 193 372 203.297 372 216H373H374C374 202.193 362.807 191 349 191V192ZM44 192V191C30.1929 191 19 202.193 19 216H20H21C21 203.297 31.2975 193 44 193V192Z" fill="#3C86FF" fill-opacity="0.1" mask="url(#path-14-inside-1_5202_583)"/>
<path d="M54.5312 233.328V236.875H56.5469V238.094H54.5312V241.594H53.0312V233.328H54.5312ZM50 241.859C52.8594 241.859 54.6406 242.859 54.6406 244.578C54.6406 246.297 52.8594 247.312 50 247.297C47.1094 247.312 45.2969 246.297 45.2969 244.578C45.2969 242.859 47.1094 241.859 50 241.859ZM50 243.062C47.9688 243.047 46.75 243.609 46.7656 244.578C46.75 245.547 47.9688 246.109 50 246.109C51.9844 246.109 53.2031 245.547 53.2188 244.578C53.2031 243.609 51.9844 243.047 50 243.062ZM50.3594 234.359V235.562H45.5781V239.375C48.3359 239.367 49.8906 239.281 51.6562 238.922L51.7969 240.125C49.9219 240.516 48.25 240.578 45.2188 240.578H44.1094V234.359H50.3594ZM68.6531 233.344V243.594H67.1687V233.344H68.6531ZM69.075 245.828V247.031H59.4969V242.625H60.9969V245.828H69.075ZM62.1375 235.5C62.1219 237.547 63.4344 239.422 65.5906 240.172L64.825 241.359C63.2078 240.758 62.0125 239.57 61.3875 238.047C60.7703 239.672 59.5594 240.977 57.9187 241.609L57.1219 240.438C59.325 239.625 60.6219 237.609 60.6219 235.5V234.109H62.1375V235.5ZM83.3375 240.641V241.828H70.5719V240.641H83.3375ZM81.9 245.828V247.031H72.1812V242.969H73.6812V245.828H81.9ZM76.9469 233.797C79.9781 233.781 81.9469 234.844 81.9469 236.594C81.9469 238.359 79.9781 239.422 76.9469 239.438C73.9 239.422 71.9469 238.359 71.9469 236.594C71.9469 234.844 73.9 233.781 76.9469 233.797ZM76.9469 234.984C74.8062 234.984 73.4625 235.594 73.4781 236.594C73.4625 237.625 74.8062 238.219 76.9469 238.219C79.0875 238.219 80.4156 237.625 80.4156 236.594C80.4156 235.594 79.0875 234.984 76.9469 234.984ZM92.8 235.094C92.7844 236.938 94.1437 238.641 96.2844 239.312L95.5656 240.469C93.9172 239.938 92.6906 238.836 92.05 237.422C91.4172 238.945 90.1672 240.156 88.4875 240.719L87.7531 239.547C89.9406 238.828 91.2844 237.016 91.2844 235.094V233.781H92.8V235.094ZM99.3156 233.328V240.844H97.8312V233.328H99.3156ZM91.6125 241.516V243.094H97.8469V241.516H99.3156V247.156H90.1594V241.516H91.6125ZM91.6125 245.938H97.8469V244.266H91.6125V245.938ZM113.25 233.328V247.328H111.828V240.094H110.016V246.609H108.656V233.609H110.016V238.875H111.828V233.328H113.25ZM106.953 235.016V236.219H103.188V242.703C104.906 242.688 106.203 242.609 107.703 242.328L107.812 243.547C106.125 243.891 104.688 243.953 102.641 243.969H101.703V235.016H106.953ZM127.575 244.406V245.656H114.762V244.406H120.403V241.953H116.325V237.5H124.544V235.531H116.294V234.312H126.012V238.688H117.794V240.734H126.341V241.953H121.872V244.406H127.575ZM133.338 236.891C133.338 239.453 134.775 242 136.916 242.969L136.009 244.156C134.416 243.359 133.22 241.773 132.603 239.859C131.986 241.875 130.759 243.578 129.15 244.422L128.213 243.219C130.384 242.188 131.838 239.484 131.838 236.891V234.5H133.338V236.891ZM139.963 233.328V247.359H138.494V239.188H135.369V237.984H138.494V233.328H139.963ZM155.191 234.688V246H153.613L147.878 237.734H147.784V246H146.066V234.688H147.659L153.394 242.969H153.503V234.688H155.191ZM164.844 238.266C164.422 236.922 163.406 236.109 161.906 236.109C160 236.109 158.531 237.609 158.531 240.344C158.531 243.078 159.984 244.578 161.984 244.578C163.789 244.578 164.984 243.438 165.016 241.625H162.234V240.203H166.688V241.484C166.688 244.344 164.719 246.156 161.969 246.156C158.906 246.156 156.828 243.922 156.828 240.344C156.828 236.734 158.969 234.531 161.891 234.531C164.344 234.531 166.219 236.062 166.609 238.266H164.844ZM178.2 240.344C178.2 243.953 176.028 246.156 173.106 246.156C170.153 246.156 167.997 243.953 167.997 240.344C167.997 236.719 170.153 234.531 173.106 234.531C176.028 234.531 178.2 236.719 178.2 240.344ZM176.497 240.344C176.497 237.594 175.044 236.109 173.106 236.109C171.153 236.109 169.7 237.594 169.7 240.344C169.7 243.094 171.153 244.578 173.106 244.578C175.044 244.578 176.497 243.094 176.497 240.344ZM183.4 234.219C185.556 234.219 187.166 235.578 187.166 237.547C187.166 239.281 185.916 240.539 184.15 240.812V243.031C185.392 242.977 186.634 242.883 187.791 242.734L187.9 243.844C184.947 244.359 181.681 244.375 179.259 244.359L179.025 243.141C180.111 243.133 181.361 243.125 182.666 243.094V240.812C180.853 240.555 179.619 239.289 179.634 237.547C179.619 235.578 181.197 234.219 183.4 234.219ZM183.4 235.469C182.056 235.484 181.072 236.297 181.072 237.547C181.072 238.797 182.056 239.625 183.4 239.609C184.728 239.625 185.697 238.797 185.712 237.547C185.697 236.297 184.728 235.484 183.4 235.469ZM190.119 233.328V239.016H192.275V240.266H190.119V247.328H188.634V233.328H190.119ZM207.331 233.328V236.953H209.363V238.219H207.331V241.766H205.847V233.328H207.331ZM207.331 242.5V247.156H198.394V242.5H207.331ZM199.847 243.672V245.953H205.863V243.672H199.847ZM204.691 234.75V235.938H196.347V234.75H199.784V233.219H201.269V234.75H204.691ZM200.519 236.547C202.534 236.547 203.909 237.547 203.909 239.047C203.909 240.562 202.534 241.547 200.519 241.562C198.472 241.547 197.113 240.562 197.113 239.047C197.113 237.547 198.472 236.547 200.519 236.547ZM200.519 237.688C199.331 237.672 198.534 238.203 198.55 239.047C198.534 239.922 199.331 240.438 200.519 240.438C201.706 240.438 202.503 239.922 202.519 239.047C202.503 238.203 201.706 237.672 200.519 237.688ZM213.328 234.984C213.312 238.125 212.922 241.359 210.969 244.109L209.812 243.453C211.445 241.266 211.938 238.844 212.047 236.203H210.141V234.984H213.328ZM216.438 234.984C216.438 236.164 216.414 237.453 216.266 238.75H217.906V233.688H219.312V246.641H217.906V239.953H216.094C215.773 241.695 215.188 243.422 214.109 244.953L212.953 244.281C214.766 241.852 215.094 238.906 215.156 236.203H213.75V234.984H216.438ZM221.969 233.328V247.328H220.547V233.328H221.969ZM230.962 233.797C233.072 233.812 234.619 235.109 234.634 236.938C234.619 238.781 233.072 240.062 230.962 240.062C228.837 240.062 227.275 238.781 227.275 236.938C227.275 235.109 228.837 233.812 230.962 233.797ZM230.962 235.047C229.666 235.031 228.712 235.797 228.728 236.938C228.712 238.094 229.666 238.859 230.962 238.859C232.244 238.859 233.197 238.094 233.197 236.938C233.197 235.797 232.244 235.031 230.962 235.047ZM238.603 233.328V240.453H237.119V233.328H238.603ZM238.603 241.094V244.625H230.884V245.969H239.072V247.156H229.447V243.516H237.134V242.281H229.4V241.094H238.603ZM251.522 233.281V236.562H253.569V237.781H251.522V240.984H250.038V233.281H251.522ZM251.522 241.641V244.891H243.959V246.062H252.006V247.188H242.506V243.844H250.053V242.75H242.475V241.641H251.522ZM248.881 234.516V235.688H240.538V234.516H243.975V233.203H245.459V234.516H248.881ZM244.709 236.219C246.756 236.219 248.1 237.094 248.1 238.516C248.1 239.938 246.756 240.797 244.709 240.797C242.647 240.797 241.303 239.938 241.303 238.516C241.303 237.094 242.647 236.219 244.709 236.219ZM244.709 237.281C243.506 237.281 242.725 237.766 242.741 238.516C242.725 239.266 243.506 239.719 244.709 239.719C245.913 239.719 246.694 239.266 246.709 238.516C246.694 237.766 245.913 237.281 244.709 237.281ZM264.828 234.562C264.812 236.422 267.094 238.172 269.844 238.531L269.266 239.75C266.977 239.383 264.961 238.195 264.062 236.547C263.141 238.203 261.133 239.383 258.859 239.75L258.266 238.531C261.016 238.172 263.266 236.438 263.281 234.562V233.797H264.828V234.562ZM270.422 241.125V242.344H264.734V247.328H263.281V242.344H257.656V241.125H270.422ZM279.65 242.578C279.65 243.781 280.244 245.055 281.509 245.812C282.798 244.992 283.431 243.648 283.431 242.578V241.906H284.884V242.578C284.884 244.031 285.837 245.438 287.666 246.031L286.931 247.125C285.548 246.648 284.611 245.719 284.119 244.562C283.673 245.695 282.837 246.719 281.556 247.25C280.212 246.742 279.361 245.75 278.931 244.609C278.423 245.711 277.502 246.641 276.181 247.125L275.431 246.031C277.228 245.391 278.197 243.938 278.212 242.578V241.906H279.65V242.578ZM286.4 233.344V241.312H284.916V233.344H286.4ZM278.806 234.109C280.947 234.109 282.525 235.469 282.525 237.422C282.525 239.359 280.947 240.703 278.806 240.703C276.666 240.703 275.072 239.359 275.072 237.422C275.072 235.469 276.666 234.109 278.806 234.109ZM278.806 235.375C277.478 235.359 276.525 236.188 276.525 237.422C276.525 238.641 277.478 239.469 278.806 239.469C280.119 239.469 281.072 238.641 281.072 237.422C281.072 236.188 280.119 235.359 278.806 235.375ZM291.366 241.719V243.203H297.944V241.719H299.428V247.156H289.897V241.719H291.366ZM291.366 245.969H297.944V244.359H291.366V245.969ZM301.084 239.609V240.844H288.319V239.609H301.084ZM295.459 234.078C295.459 235.688 297.694 237.25 300.381 237.578L299.85 238.75C297.577 238.43 295.6 237.359 294.709 235.875C293.795 237.367 291.811 238.43 289.569 238.75L289.006 237.578C291.725 237.234 293.944 235.734 293.944 234.078V233.484H295.459V234.078ZM313.472 233.328V247.328H311.987V233.328H313.472ZM304.175 234.688V242.484C306.214 242.469 308.362 242.305 310.612 241.844L310.816 243.094C308.331 243.594 306.081 243.766 303.878 243.766H302.706V234.688H304.175ZM326.281 233.328V238.75H328.531V239.969H326.281V247.359H324.797V233.328H326.281ZM322.516 234.672V235.875H317.453V242.641C319.805 242.633 321.57 242.531 323.562 242.172L323.75 243.422C321.562 243.812 319.703 243.891 317.094 243.875H315.969V234.672H322.516ZM330.497 246.109C329.888 246.109 329.372 245.609 329.388 245C329.372 244.391 329.888 243.891 330.497 243.891C331.091 243.891 331.606 244.391 331.606 245C331.606 245.609 331.091 246.109 330.497 246.109Z" fill="#6B7280"/>
<path d="M46.2031 281.859L49.6797 288.109H49.8164L53.293 281.859H56.1641L51.0273 290.707V296H48.4883V290.707L43.332 281.859H46.2031ZM60.0633 296.215C59.0477 296.215 58.1557 295.987 57.3875 295.531C56.6193 295.076 56.0268 294.438 55.6102 293.617C55.1935 292.79 54.9852 291.833 54.9852 290.746C54.9852 289.652 55.1935 288.692 55.6102 287.865C56.0268 287.038 56.6193 286.397 57.3875 285.941C58.1557 285.486 59.0477 285.258 60.0633 285.258C61.0854 285.258 61.9806 285.486 62.7488 285.941C63.5171 286.397 64.1062 287.038 64.5164 287.865C64.9331 288.692 65.1414 289.652 65.1414 290.746C65.1414 291.833 64.9331 292.79 64.5164 293.617C64.0997 294.444 63.5073 295.085 62.7391 295.541C61.9773 295.99 61.0854 296.215 60.0633 296.215ZM60.0828 294.223C60.6297 294.223 61.0919 294.07 61.4695 293.764C61.8536 293.458 62.1401 293.041 62.3289 292.514C62.5242 291.986 62.6219 291.391 62.6219 290.727C62.6219 290.069 62.5242 289.477 62.3289 288.949C62.1401 288.415 61.8536 287.995 61.4695 287.689C61.0919 287.383 60.6297 287.23 60.0828 287.23C59.5229 287.23 59.0477 287.383 58.657 287.689C58.2729 287.995 57.9832 288.412 57.7879 288.939C57.5991 289.467 57.5047 290.062 57.5047 290.727C57.5047 291.391 57.5991 291.986 57.7879 292.514C57.9832 293.041 58.2729 293.458 58.657 293.764C59.0477 294.07 59.5229 294.223 60.0828 294.223ZM73.5523 285.395H76.0328V296H73.6305V294.125H73.5133C73.2594 294.737 72.8557 295.225 72.3023 295.59C71.7555 295.954 71.0979 296.137 70.3297 296.137C69.6331 296.137 69.0178 295.98 68.484 295.668C67.9501 295.355 67.5335 294.9 67.234 294.301C66.9345 293.702 66.7815 292.986 66.775 292.152V285.395H69.275V291.762C69.275 292.204 69.3564 292.595 69.5191 292.934C69.6884 293.266 69.9228 293.523 70.2223 293.705C70.5283 293.881 70.8831 293.969 71.2867 293.969C71.6643 293.969 72.0257 293.878 72.3707 293.695C72.7223 293.507 73.0055 293.23 73.2203 292.865C73.4417 292.501 73.5523 292.061 73.5523 291.547V285.395ZM87.1906 296.215C86.1555 296.215 85.2538 295.984 84.4855 295.521C83.7238 295.059 83.1379 294.415 82.7277 293.588C82.3176 292.761 82.1125 291.814 82.1125 290.746C82.1125 289.672 82.3208 288.721 82.7375 287.895C83.1542 287.061 83.7434 286.413 84.5051 285.951C85.2733 285.489 86.1685 285.258 87.1906 285.258C88.0435 285.258 88.802 285.414 89.466 285.727C90.1366 286.039 90.6672 286.482 91.0578 287.055C91.4549 287.628 91.6828 288.292 91.7414 289.047H89.3586C89.2544 288.513 89.0168 288.08 88.6457 287.748C88.2746 287.416 87.7961 287.25 87.2102 287.25C86.6958 287.25 86.2434 287.39 85.8527 287.67C85.4686 287.943 85.1691 288.34 84.9543 288.861C84.7395 289.376 84.632 289.984 84.632 290.688C84.632 291.41 84.7362 292.035 84.9445 292.562C85.1594 293.083 85.4589 293.484 85.843 293.764C86.2336 294.044 86.6893 294.184 87.2102 294.184C87.7701 294.184 88.2421 294.027 88.6262 293.715C89.0103 293.402 89.2544 292.96 89.3586 292.387H91.7414C91.6763 293.135 91.4484 293.799 91.0578 294.379C90.6737 294.958 90.1496 295.411 89.4855 295.736C88.8215 296.055 88.0565 296.215 87.1906 296.215ZM92.8281 293.012C92.8281 291.918 93.196 291.13 93.9316 290.648C94.6738 290.16 95.6211 289.88 96.7734 289.809C97.8997 289.73 98.8047 289.678 99.4883 289.652V288.812C99.4883 288.285 99.3223 287.878 98.9902 287.592C98.6582 287.299 98.1862 287.152 97.5742 287.152C97.0339 287.152 96.5911 287.266 96.2461 287.494C95.901 287.722 95.6797 288.031 95.582 288.422H93.1797C93.2383 287.816 93.4531 287.276 93.8242 286.801C94.1953 286.319 94.7064 285.941 95.3574 285.668C96.0085 285.395 96.7669 285.258 97.6328 285.258C98.375 285.258 99.0716 285.375 99.7227 285.609C100.38 285.837 100.917 286.225 101.334 286.771C101.757 287.312 101.969 288.025 101.969 288.91V296H99.5859V294.535H99.5078C99.2474 295.03 98.8568 295.434 98.3359 295.746C97.8151 296.059 97.1641 296.215 96.3828 296.215C95.6992 296.215 95.0872 296.091 94.5469 295.844C94.013 295.596 93.5931 295.232 93.2871 294.75C92.9811 294.268 92.8281 293.689 92.8281 293.012ZM95.2305 292.992C95.2305 293.441 95.3932 293.786 95.7188 294.027C96.0443 294.262 96.4805 294.379 97.0273 294.379C97.5156 294.379 97.9486 294.281 98.3262 294.086C98.7038 293.891 98.9935 293.627 99.1953 293.295C99.4036 292.956 99.5078 292.589 99.5078 292.191L99.498 291.322L97.1641 291.469C96.5521 291.521 96.0768 291.674 95.7383 291.928C95.3997 292.182 95.2305 292.536 95.2305 292.992ZM106.513 296H104.013V285.395H106.395V287.191H106.532C106.779 286.579 107.17 286.104 107.704 285.766C108.244 285.427 108.902 285.258 109.677 285.258C110.412 285.258 111.054 285.414 111.6 285.727C112.154 286.039 112.577 286.495 112.87 287.094C113.169 287.693 113.316 288.409 113.309 289.242V296H110.829V289.633C110.829 288.917 110.647 288.36 110.282 287.963C109.917 287.566 109.41 287.367 108.759 287.367C108.316 287.367 107.925 287.465 107.587 287.66C107.248 287.849 106.985 288.126 106.796 288.49C106.607 288.848 106.513 289.281 106.513 289.789V296ZM119.037 285.395H121.577L123.452 292.855H123.549L125.444 285.395H127.963L129.877 292.816H129.975L131.83 285.395H134.37L131.362 296H128.764L126.772 288.812H126.635L124.643 296H122.045L119.037 285.395ZM139.988 296.215C138.972 296.215 138.08 295.987 137.312 295.531C136.543 295.076 135.951 294.438 135.534 293.617C135.118 292.79 134.909 291.833 134.909 290.746C134.909 289.652 135.118 288.692 135.534 287.865C135.951 287.038 136.543 286.397 137.312 285.941C138.08 285.486 138.972 285.258 139.988 285.258C141.01 285.258 141.905 285.486 142.673 285.941C143.441 286.397 144.03 287.038 144.441 287.865C144.857 288.692 145.066 289.652 145.066 290.746C145.066 291.833 144.857 292.79 144.441 293.617C144.024 294.444 143.432 295.085 142.663 295.541C141.902 295.99 141.01 296.215 139.988 296.215ZM140.007 294.223C140.554 294.223 141.016 294.07 141.394 293.764C141.778 293.458 142.064 293.041 142.253 292.514C142.448 291.986 142.546 291.391 142.546 290.727C142.546 290.069 142.448 289.477 142.253 288.949C142.064 288.415 141.778 287.995 141.394 287.689C141.016 287.383 140.554 287.23 140.007 287.23C139.447 287.23 138.972 287.383 138.581 287.689C138.197 287.995 137.907 288.412 137.712 288.939C137.523 289.467 137.429 290.062 137.429 290.727C137.429 291.391 137.523 291.986 137.712 292.514C137.907 293.041 138.197 293.458 138.581 293.764C138.972 294.07 139.447 294.223 140.007 294.223ZM146.699 285.395H149.121V287.152H149.238C149.421 286.553 149.749 286.085 150.225 285.746C150.7 285.408 151.243 285.238 151.855 285.238C152.22 285.238 152.52 285.258 152.754 285.297V287.602C152.643 287.562 152.474 287.527 152.246 287.494C152.018 287.462 151.803 287.445 151.602 287.445C151.146 287.445 150.736 287.543 150.371 287.738C150.007 287.934 149.72 288.207 149.512 288.559C149.303 288.91 149.199 289.307 149.199 289.75V296H146.699V285.395ZM153.938 281.859H156.438V289.652H156.614L160.423 285.395H163.333L159.221 289.965L163.587 296H160.618L157.356 291.449L156.438 292.426V296H153.938V281.859ZM168.162 285.395H170.702L172.577 292.855H172.674L174.569 285.395H177.088L179.002 292.816H179.1L180.955 285.395H183.495L180.487 296H177.889L175.897 288.812H175.76L173.768 296H171.17L168.162 285.395ZM184.777 285.395H187.277V296H184.777V285.395ZM186.046 283.891C185.792 283.891 185.551 283.832 185.323 283.715C185.102 283.591 184.926 283.425 184.796 283.217C184.666 283.002 184.601 282.771 184.601 282.523C184.601 282.283 184.666 282.058 184.796 281.85C184.926 281.641 185.102 281.479 185.323 281.361C185.551 281.238 185.792 281.176 186.046 281.176C186.307 281.176 186.547 281.238 186.769 281.361C186.99 281.479 187.166 281.641 187.296 281.85C187.426 282.058 187.491 282.283 187.491 282.523C187.491 282.771 187.426 283.002 187.296 283.217C187.166 283.425 186.99 283.591 186.769 283.715C186.547 283.832 186.307 283.891 186.046 283.891ZM194.652 287.309H192.562V292.816C192.562 293.285 192.66 293.607 192.855 293.783C193.057 293.959 193.337 294.047 193.695 294.047C194.008 294.047 194.372 294.034 194.789 294.008V296.039C194.464 296.104 193.995 296.137 193.383 296.137C192.738 296.137 192.165 296.033 191.664 295.824C191.169 295.609 190.779 295.284 190.492 294.848C190.212 294.411 190.076 293.871 190.082 293.227V287.309H188.559V285.395H190.082V282.855H192.562V285.395H194.652V287.309ZM199.001 296H196.501V281.859H198.942V287.191H199.079C199.333 286.573 199.72 286.098 200.241 285.766C200.768 285.427 201.429 285.258 202.223 285.258C202.959 285.258 203.6 285.414 204.147 285.727C204.701 286.033 205.127 286.485 205.427 287.084C205.726 287.683 205.876 288.402 205.876 289.242V296H203.395V289.633C203.395 288.91 203.21 288.354 202.839 287.963C202.474 287.566 201.963 287.367 201.305 287.367C200.856 287.367 200.456 287.465 200.104 287.66C199.759 287.849 199.489 288.126 199.294 288.49C199.098 288.855 199.001 289.288 199.001 289.789V296ZM224.123 296H221.858L215.159 286.332H215.041V296H212.502V281.859H214.807L221.467 291.527H221.604V281.859H224.123V296ZM235.913 286.371C235.685 285.609 235.282 285.017 234.702 284.594C234.129 284.164 233.42 283.949 232.573 283.949C231.805 283.949 231.125 284.145 230.532 284.535C229.94 284.919 229.478 285.486 229.146 286.234C228.814 286.983 228.648 287.875 228.648 288.91C228.648 289.965 228.814 290.87 229.146 291.625C229.478 292.374 229.943 292.943 230.542 293.334C231.141 293.718 231.838 293.91 232.632 293.91C233.335 293.91 233.95 293.777 234.478 293.51C235.005 293.236 235.415 292.852 235.708 292.357C236.001 291.856 236.154 291.273 236.167 290.609H232.886V288.598H238.628V290.297C238.628 291.488 238.371 292.53 237.857 293.422C237.349 294.307 236.642 294.991 235.738 295.473C234.833 295.954 233.797 296.195 232.632 296.195C231.336 296.195 230.194 295.902 229.204 295.316C228.215 294.724 227.446 293.881 226.9 292.787C226.359 291.693 226.089 290.408 226.089 288.93C226.089 287.452 226.366 286.166 226.919 285.072C227.479 283.972 228.247 283.129 229.224 282.543C230.207 281.957 231.317 281.664 232.554 281.664C233.583 281.664 234.523 281.863 235.376 282.26C236.229 282.657 236.929 283.214 237.476 283.93C238.023 284.639 238.368 285.453 238.511 286.371H235.913ZM253.25 288.93C253.25 290.421 252.97 291.713 252.41 292.807C251.85 293.9 251.079 294.74 250.096 295.326C249.119 295.906 248.009 296.195 246.766 296.195C245.522 296.195 244.409 295.906 243.426 295.326C242.449 294.74 241.681 293.9 241.121 292.807C240.561 291.706 240.281 290.414 240.281 288.93C240.281 287.439 240.561 286.146 241.121 285.053C241.681 283.959 242.449 283.122 243.426 282.543C244.409 281.957 245.522 281.664 246.766 281.664C248.009 281.664 249.119 281.957 250.096 282.543C251.079 283.122 251.85 283.959 252.41 285.053C252.97 286.146 253.25 287.439 253.25 288.93ZM250.691 288.93C250.691 287.875 250.525 286.977 250.193 286.234C249.868 285.486 249.409 284.919 248.816 284.535C248.224 284.145 247.54 283.949 246.766 283.949C245.991 283.949 245.307 284.145 244.715 284.535C244.122 284.919 243.66 285.486 243.328 286.234C243.003 286.977 242.84 287.875 242.84 288.93C242.84 289.984 243.003 290.886 243.328 291.635C243.66 292.377 244.122 292.943 244.715 293.334C245.307 293.718 245.991 293.91 246.766 293.91C247.54 293.91 248.224 293.718 248.816 293.334C249.409 292.943 249.868 292.377 250.193 291.635C250.525 290.886 250.691 289.984 250.691 288.93ZM261.114 288.422C261.036 288.018 260.834 287.699 260.509 287.465C260.183 287.23 259.76 287.113 259.239 287.113C258.887 287.113 258.568 287.169 258.282 287.279C258.002 287.383 257.784 287.533 257.628 287.729C257.471 287.917 257.397 288.129 257.403 288.363C257.384 288.93 257.885 289.333 258.907 289.574L260.704 289.945C261.713 290.173 262.462 290.521 262.95 290.99C263.438 291.459 263.686 292.074 263.692 292.836C263.686 293.5 263.497 294.089 263.126 294.604C262.755 295.111 262.227 295.508 261.544 295.795C260.867 296.075 260.072 296.215 259.161 296.215C257.826 296.215 256.765 295.932 255.977 295.365C255.196 294.792 254.74 293.995 254.61 292.973H257.149C257.227 293.422 257.436 293.76 257.774 293.988C258.119 294.21 258.582 294.32 259.161 294.32C259.76 294.32 260.242 294.206 260.606 293.979C260.971 293.751 261.153 293.441 261.153 293.051C261.153 292.745 261.026 292.494 260.772 292.299C260.525 292.097 260.137 291.938 259.61 291.82L257.911 291.449C256.928 291.254 256.182 290.906 255.675 290.404C255.173 289.903 254.923 289.268 254.923 288.5C254.923 287.855 255.098 287.289 255.45 286.801C255.802 286.306 256.3 285.925 256.944 285.658C257.589 285.391 258.341 285.258 259.2 285.258C260.033 285.258 260.759 285.388 261.378 285.648C262.003 285.902 262.494 286.267 262.852 286.742C263.21 287.217 263.419 287.777 263.477 288.422H261.114ZM269.245 293.012C269.245 291.918 269.612 291.13 270.348 290.648C271.09 290.16 272.038 289.88 273.19 289.809C274.316 289.73 275.221 289.678 275.905 289.652V288.812C275.905 288.285 275.739 287.878 275.407 287.592C275.075 287.299 274.603 287.152 273.991 287.152C273.45 287.152 273.008 287.266 272.663 287.494C272.317 287.722 272.096 288.031 271.998 288.422H269.596C269.655 287.816 269.87 287.276 270.241 286.801C270.612 286.319 271.123 285.941 271.774 285.668C272.425 285.395 273.183 285.258 274.049 285.258C274.791 285.258 275.488 285.375 276.139 285.609C276.797 285.837 277.334 286.225 277.75 286.771C278.174 287.312 278.385 288.025 278.385 288.91V296H276.002V294.535H275.924C275.664 295.03 275.273 295.434 274.752 295.746C274.232 296.059 273.58 296.215 272.799 296.215C272.116 296.215 271.504 296.091 270.963 295.844C270.429 295.596 270.01 295.232 269.704 294.75C269.398 294.268 269.245 293.689 269.245 293.012ZM271.647 292.992C271.647 293.441 271.81 293.786 272.135 294.027C272.461 294.262 272.897 294.379 273.444 294.379C273.932 294.379 274.365 294.281 274.743 294.086C275.12 293.891 275.41 293.627 275.612 293.295C275.82 292.956 275.924 292.589 275.924 292.191L275.914 291.322L273.58 291.469C272.968 291.521 272.493 291.674 272.155 291.928C271.816 292.182 271.647 292.536 271.647 292.992ZM286.445 288.422C286.366 288.018 286.165 287.699 285.839 287.465C285.514 287.23 285.09 287.113 284.57 287.113C284.218 287.113 283.899 287.169 283.613 287.279C283.333 287.383 283.114 287.533 282.958 287.729C282.802 287.917 282.727 288.129 282.734 288.363C282.714 288.93 283.215 289.333 284.238 289.574L286.034 289.945C287.043 290.173 287.792 290.521 288.28 290.99C288.769 291.459 289.016 292.074 289.023 292.836C289.016 293.5 288.827 294.089 288.456 294.604C288.085 295.111 287.558 295.508 286.874 295.795C286.197 296.075 285.403 296.215 284.491 296.215C283.157 296.215 282.096 295.932 281.308 295.365C280.527 294.792 280.071 293.995 279.941 292.973H282.48C282.558 293.422 282.766 293.76 283.105 293.988C283.45 294.21 283.912 294.32 284.491 294.32C285.09 294.32 285.572 294.206 285.937 293.979C286.301 293.751 286.484 293.441 286.484 293.051C286.484 292.745 286.357 292.494 286.103 292.299C285.855 292.097 285.468 291.938 284.941 291.82L283.241 291.449C282.258 291.254 281.513 290.906 281.005 290.404C280.504 289.903 280.253 289.268 280.253 288.5C280.253 287.855 280.429 287.289 280.78 286.801C281.132 286.306 281.63 285.925 282.275 285.658C282.919 285.391 283.671 285.258 284.53 285.258C285.364 285.258 286.09 285.388 286.708 285.648C287.333 285.902 287.825 286.267 288.183 286.742C288.541 287.217 288.749 287.777 288.808 288.422H286.445ZM294.575 293.012C294.575 291.918 294.943 291.13 295.679 290.648C296.421 290.16 297.368 289.88 298.52 289.809C299.647 289.73 300.552 289.678 301.235 289.652V288.812C301.235 288.285 301.069 287.878 300.737 287.592C300.405 287.299 299.933 287.152 299.321 287.152C298.781 287.152 298.338 287.266 297.993 287.494C297.648 287.722 297.427 288.031 297.329 288.422H294.927C294.985 287.816 295.2 287.276 295.571 286.801C295.942 286.319 296.453 285.941 297.104 285.668C297.755 285.395 298.514 285.258 299.38 285.258C300.122 285.258 300.818 285.375 301.47 285.609C302.127 285.837 302.664 286.225 303.081 286.771C303.504 287.312 303.716 288.025 303.716 288.91V296H301.333V294.535H301.255C300.994 295.03 300.604 295.434 300.083 295.746C299.562 296.059 298.911 296.215 298.13 296.215C297.446 296.215 296.834 296.091 296.294 295.844C295.76 295.596 295.34 295.232 295.034 294.75C294.728 294.268 294.575 293.689 294.575 293.012ZM296.977 292.992C296.977 293.441 297.14 293.786 297.466 294.027C297.791 294.262 298.227 294.379 298.774 294.379C299.262 294.379 299.695 294.281 300.073 294.086C300.451 293.891 300.74 293.627 300.942 293.295C301.151 292.956 301.255 292.589 301.255 292.191L301.245 291.322L298.911 291.469C298.299 291.521 297.824 291.674 297.485 291.928C297.147 292.182 296.977 292.536 296.977 292.992Z" fill="#1E1E1E"/>
<path d="M170.18 326.156C169.907 326.156 169.653 326.088 169.419 325.951C169.184 325.814 168.999 325.629 168.862 325.395C168.725 325.16 168.657 324.906 168.657 324.633C168.657 324.366 168.725 324.118 168.862 323.891C168.999 323.656 169.184 323.471 169.419 323.334C169.653 323.197 169.907 323.129 170.18 323.129C170.441 323.129 170.685 323.197 170.913 323.334C171.147 323.471 171.333 323.656 171.47 323.891C171.613 324.118 171.684 324.366 171.684 324.633C171.684 324.906 171.613 325.16 171.47 325.395C171.333 325.629 171.147 325.814 170.913 325.951C170.685 326.088 170.441 326.156 170.18 326.156Z" fill="#1E1E1E"/>
<path d="M65.9805 317.309H63.8906V322.816C63.8906 323.285 63.9883 323.607 64.1836 323.783C64.3854 323.959 64.6654 324.047 65.0234 324.047C65.3359 324.047 65.7005 324.034 66.1172 324.008V326.039C65.7917 326.104 65.3229 326.137 64.7109 326.137C64.0664 326.137 63.4935 326.033 62.9922 325.824C62.4974 325.609 62.1068 325.284 61.8203 324.848C61.5404 324.411 61.4036 323.871 61.4102 323.227V317.309H59.8867V315.395H61.4102V312.855H63.8906V315.395H65.9805V317.309ZM72.2039 326.215C71.1492 326.215 70.2312 325.993 69.45 325.551C68.6753 325.102 68.0796 324.467 67.6629 323.646C67.2527 322.826 67.0477 321.866 67.0477 320.766C67.0477 319.678 67.256 318.721 67.6727 317.895C68.0893 317.061 68.6753 316.413 69.4305 315.951C70.1922 315.489 71.0711 315.258 72.0672 315.258C72.9656 315.258 73.7794 315.45 74.5086 315.834C75.2443 316.218 75.827 316.814 76.2566 317.621C76.6928 318.422 76.9109 319.418 76.9109 320.609V321.391H69.5086C69.5151 321.983 69.6323 322.497 69.8602 322.934C70.088 323.363 70.4038 323.692 70.8074 323.92C71.2111 324.148 71.6831 324.262 72.2234 324.262C72.7508 324.262 73.2 324.161 73.5711 323.959C73.9422 323.757 74.2091 323.493 74.3719 323.168H76.8133C76.6635 323.78 76.3803 324.317 75.9637 324.779C75.547 325.235 75.0164 325.59 74.3719 325.844C73.7339 326.091 73.0112 326.215 72.2039 326.215ZM74.5281 319.691C74.5216 319.21 74.4174 318.78 74.2156 318.402C74.0138 318.025 73.7306 317.729 73.366 317.514C73.0014 317.299 72.5815 317.191 72.1062 317.191C71.618 317.191 71.1818 317.305 70.7977 317.533C70.4201 317.755 70.1206 318.057 69.8992 318.441C69.6779 318.819 69.5509 319.236 69.5184 319.691H74.5281ZM83.2516 326.215C82.1969 326.215 81.2789 325.993 80.4977 325.551C79.7229 325.102 79.1272 324.467 78.7105 323.646C78.3004 322.826 78.0953 321.866 78.0953 320.766C78.0953 319.678 78.3036 318.721 78.7203 317.895C79.137 317.061 79.7229 316.413 80.4781 315.951C81.2398 315.489 82.1187 315.258 83.1148 315.258C84.0133 315.258 84.8271 315.45 85.5562 315.834C86.2919 316.218 86.8746 316.814 87.3043 317.621C87.7405 318.422 87.9586 319.418 87.9586 320.609V321.391H80.5562C80.5628 321.983 80.6799 322.497 80.9078 322.934C81.1357 323.363 81.4514 323.692 81.8551 323.92C82.2587 324.148 82.7307 324.262 83.2711 324.262C83.7984 324.262 84.2477 324.161 84.6187 323.959C84.9898 323.757 85.2568 323.493 85.4195 323.168H87.8609C87.7112 323.78 87.428 324.317 87.0113 324.779C86.5947 325.235 86.0641 325.59 85.4195 325.844C84.7815 326.091 84.0589 326.215 83.2516 326.215ZM85.5758 319.691C85.5693 319.21 85.4651 318.78 85.2633 318.402C85.0615 318.025 84.7783 317.729 84.4137 317.514C84.0491 317.299 83.6292 317.191 83.1539 317.191C82.6656 317.191 82.2294 317.305 81.8453 317.533C81.4677 317.755 81.1682 318.057 80.9469 318.441C80.7255 318.819 80.5986 319.236 80.566 319.691H85.5758ZM92.0922 326H89.5922V315.395H91.975V317.191H92.1117C92.3591 316.579 92.7497 316.104 93.2836 315.766C93.824 315.427 94.4815 315.258 95.2563 315.258C95.9919 315.258 96.6332 315.414 97.1801 315.727C97.7335 316.039 98.1566 316.495 98.4496 317.094C98.7491 317.693 98.8956 318.409 98.8891 319.242V326H96.4086V319.633C96.4086 318.917 96.2263 318.36 95.8617 317.963C95.4971 317.566 94.9893 317.367 94.3383 317.367C93.8956 317.367 93.5049 317.465 93.1664 317.66C92.8279 317.849 92.5642 318.126 92.3754 318.49C92.1866 318.848 92.0922 319.281 92.0922 319.789V326ZM100.484 323.012C100.484 321.918 100.851 321.13 101.587 320.648C102.329 320.16 103.277 319.88 104.429 319.809C105.555 319.73 106.46 319.678 107.144 319.652V318.812C107.144 318.285 106.978 317.878 106.646 317.592C106.314 317.299 105.842 317.152 105.23 317.152C104.689 317.152 104.247 317.266 103.902 317.494C103.557 317.722 103.335 318.031 103.237 318.422H100.835C100.894 317.816 101.109 317.276 101.48 316.801C101.851 316.319 102.362 315.941 103.013 315.668C103.664 315.395 104.422 315.258 105.288 315.258C106.03 315.258 106.727 315.375 107.378 315.609C108.036 315.837 108.573 316.225 108.989 316.771C109.413 317.312 109.624 318.025 109.624 318.91V326H107.241V324.535H107.163C106.903 325.03 106.512 325.434 105.991 325.746C105.471 326.059 104.82 326.215 104.038 326.215C103.355 326.215 102.743 326.091 102.202 325.844C101.668 325.596 101.249 325.232 100.943 324.75C100.637 324.268 100.484 323.689 100.484 323.012ZM102.886 322.992C102.886 323.441 103.049 323.786 103.374 324.027C103.7 324.262 104.136 324.379 104.683 324.379C105.171 324.379 105.604 324.281 105.982 324.086C106.359 323.891 106.649 323.627 106.851 323.295C107.059 322.956 107.163 322.589 107.163 322.191L107.154 321.322L104.82 321.469C104.208 321.521 103.732 321.674 103.394 321.928C103.055 322.182 102.886 322.536 102.886 322.992Z" fill="#3C86FF"/>
<rect width="393" height="174" transform="translate(-4 550)" fill="url(#paint1_linear_5202_583)"/>
<rect x="143.5" y="576" width="44" height="52" rx="14" fill="white"/>
<g filter="url(#filter2_dd_5202_583)">
<rect x="143.5" y="576" width="44" height="52" rx="14" fill="white" fill-opacity="0.01" shape-rendering="crispEdges"/>
</g>
<path d="M165.666 608H162.922V597.629H165.471V599.104C165.907 598.407 166.298 597.948 166.643 597.727C166.994 597.505 167.391 597.395 167.834 597.395C168.459 597.395 169.061 597.567 169.641 597.912L168.791 600.305C168.329 600.005 167.899 599.855 167.502 599.855C167.118 599.855 166.792 599.963 166.525 600.178C166.258 600.386 166.047 600.767 165.891 601.32C165.741 601.874 165.666 603.033 165.666 604.797V608Z" fill="#1E1E1E"/>
<rect x="305.5" y="576" width="44" height="52" rx="14" fill="white"/>
<g filter="url(#filter3_dd_5202_583)">
<rect x="305.5" y="576" width="44" height="52" rx="14" fill="white" fill-opacity="0.01" shape-rendering="crispEdges"/>
</g>
<path d="M329.375 604.699L332.109 605.158C331.758 606.161 331.201 606.926 330.439 607.453C329.684 607.974 328.737 608.234 327.598 608.234C325.794 608.234 324.46 607.645 323.594 606.467C322.91 605.523 322.568 604.331 322.568 602.893C322.568 601.174 323.018 599.829 323.916 598.859C324.814 597.883 325.951 597.395 327.324 597.395C328.867 597.395 330.085 597.906 330.977 598.928C331.868 599.943 332.295 601.503 332.256 603.605H325.381C325.4 604.419 325.622 605.054 326.045 605.51C326.468 605.959 326.995 606.184 327.627 606.184C328.057 606.184 328.418 606.066 328.711 605.832C329.004 605.598 329.225 605.22 329.375 604.699ZM329.531 601.926C329.512 601.132 329.307 600.529 328.916 600.119C328.525 599.702 328.05 599.494 327.49 599.494C326.891 599.494 326.396 599.712 326.006 600.148C325.615 600.585 325.423 601.177 325.43 601.926H329.531Z" fill="#1E1E1E"/>
<rect x="197.5" y="638" width="44" height="52" rx="14" fill="white"/>
<g filter="url(#filter4_dd_5202_583)">
<rect x="197.5" y="638" width="44" height="52" rx="14" fill="white" fill-opacity="0.01" shape-rendering="crispEdges"/>
</g>
<path d="M214.568 670.684L217.703 671.064C217.755 671.429 217.876 671.68 218.064 671.816C218.325 672.012 218.735 672.109 219.295 672.109C220.011 672.109 220.548 672.002 220.906 671.787C221.147 671.644 221.329 671.413 221.453 671.094C221.538 670.866 221.58 670.446 221.58 669.834V668.32C220.76 669.44 219.725 670 218.475 670C217.081 670 215.978 669.411 215.164 668.232C214.526 667.301 214.207 666.143 214.207 664.756C214.207 663.018 214.624 661.689 215.457 660.771C216.297 659.854 217.339 659.395 218.582 659.395C219.865 659.395 220.923 659.958 221.756 661.084V659.629H224.324V668.936C224.324 670.16 224.223 671.074 224.021 671.68C223.82 672.285 223.536 672.76 223.172 673.105C222.807 673.451 222.319 673.721 221.707 673.916C221.102 674.111 220.333 674.209 219.402 674.209C217.645 674.209 216.398 673.906 215.662 673.301C214.926 672.702 214.559 671.94 214.559 671.016C214.559 670.924 214.562 670.814 214.568 670.684ZM217.02 664.6C217.02 665.7 217.231 666.507 217.654 667.021C218.084 667.529 218.611 667.783 219.236 667.783C219.907 667.783 220.473 667.523 220.936 667.002C221.398 666.475 221.629 665.697 221.629 664.668C221.629 663.594 221.408 662.796 220.965 662.275C220.522 661.755 219.962 661.494 219.285 661.494C218.628 661.494 218.084 661.751 217.654 662.266C217.231 662.773 217.02 663.551 217.02 664.6Z" fill="#1E1E1E"/>
<g filter="url(#filter5_di_5202_583)">
<path d="M30 767C30 758.163 37.1634 751 46 751H347C355.837 751 363 758.163 363 767V795C363 803.837 355.837 811 347 811H46C37.1634 811 30 803.837 30 795V767Z" fill="#BEC3CD"/>
<path d="M46 751.5H347C355.56 751.5 362.5 758.44 362.5 767V795C362.5 803.56 355.56 810.5 347 810.5H46C37.4396 810.5 30.5 803.56 30.5 795V767C30.5 758.44 37.4396 751.5 46 751.5Z" stroke="white"/>
</g>
<path d="M179.309 772.621V788.617H177.182V772.621H179.309ZM176.039 772.885V787.879H173.93V779.916H171.82V778.105H173.93V772.885H176.039ZM170.537 776.91C170.537 779.564 171.363 782.254 173.701 783.59L172.383 785.242C170.959 784.398 170.019 782.966 169.482 781.252C168.929 783.115 167.962 784.697 166.494 785.594L165.141 783.941C167.496 782.5 168.375 779.617 168.375 776.91V776.049H165.756V774.256H172.963V776.049H170.537V776.91ZM195.586 779.441V781.076H189.434V782.078H193.846V785.98H184.934V786.859H194.268V788.512H182.736V784.469H191.631V783.678H182.719V782.078H187.201V781.076H181.066V779.441H195.586ZM189.416 772.604V773.869H194.215V775.521H189.697C190.137 776.453 191.771 777.218 195.006 777.35L194.355 779.002C191.385 778.861 189.328 778.105 188.309 776.893C187.298 778.105 185.232 778.861 182.244 779.002L181.629 777.35C184.837 777.218 186.463 776.453 186.92 775.521H182.438V773.869H187.201V772.604H189.416ZM209.209 772.621V778.879H211.564V780.725H209.209V788.617H206.994V772.621H209.209ZM205.904 775.012V776.805H196.5V775.012H200.121V772.867H202.371V775.012H205.904ZM201.246 777.701C203.584 777.701 205.324 779.283 205.324 781.516C205.324 783.748 203.584 785.33 201.246 785.33C198.891 785.33 197.15 783.748 197.15 781.516C197.15 779.283 198.891 777.701 201.246 777.701ZM201.246 779.512C200.121 779.529 199.295 780.285 199.295 781.516C199.295 782.764 200.121 783.502 201.246 783.484C202.371 783.502 203.18 782.764 203.18 781.516C203.18 780.285 202.371 779.529 201.246 779.512ZM225.592 772.621V788.617H223.324V772.621H225.592ZM220.793 774.291C220.793 779.143 219.088 783.168 213.375 785.875L212.197 784.082C216.328 782.131 218.147 779.6 218.508 776.049H213.059V774.291H220.793Z" fill="white"/>
<g filter="url(#filter6_d_5202_583)">
<mask id="path-33-inside-2_5202_583" fill="white">
<path d="M23.4805 443C23.4805 436.373 28.8531 431 35.4805 431H48.6105C55.2379 431 60.6105 436.373 60.6105 443V467C60.6105 473.627 55.2379 479 48.6105 479H35.4805C28.8531 479 23.4805 473.627 23.4805 467V443Z"/>
</mask>
<path d="M23.4805 443C23.4805 436.373 28.8531 431 35.4805 431H48.6105C55.2379 431 60.6105 436.373 60.6105 443V467C60.6105 473.627 55.2379 479 48.6105 479H35.4805C28.8531 479 23.4805 473.627 23.4805 467V443Z" fill="white" shape-rendering="crispEdges"/>
<path d="M35.4805 431V433H48.6105V431V429H35.4805V431ZM60.6105 443H58.6105V467H60.6105H62.6105V443H60.6105ZM48.6105 479V477H35.4805V479V481H48.6105V479ZM23.4805 467H25.4805V443H23.4805H21.4805V467H23.4805ZM35.4805 479V477C29.9576 477 25.4805 472.523 25.4805 467H23.4805H21.4805C21.4805 474.732 27.7485 481 35.4805 481V479ZM60.6105 467H58.6105C58.6105 472.523 54.1333 477 48.6105 477V479V481C56.3425 481 62.6105 474.732 62.6105 467H60.6105ZM48.6105 431V433C54.1333 433 58.6105 437.477 58.6105 443H60.6105H62.6105C62.6105 435.268 56.3425 429 48.6105 429V431ZM35.4805 431V429C27.7485 429 21.4805 435.268 21.4805 443H23.4805H25.4805C25.4805 437.477 29.9576 433 35.4805 433V431Z" fill="#3C86FF" mask="url(#path-33-inside-2_5202_583)"/>
<path d="M44.8613 450.629V452.816H42.9863V456.996C42.9863 457.842 43.0026 458.337 43.0352 458.48C43.0742 458.617 43.1556 458.731 43.2793 458.822C43.4095 458.913 43.5658 458.959 43.748 458.959C44.002 458.959 44.3698 458.871 44.8516 458.695L45.0859 460.824C44.4479 461.098 43.7253 461.234 42.918 461.234C42.4232 461.234 41.9772 461.153 41.5801 460.99C41.1829 460.821 40.89 460.606 40.7012 460.346C40.5189 460.079 40.3919 459.721 40.3203 459.271C40.2617 458.952 40.2324 458.308 40.2324 457.338V452.816H38.9727V450.629H40.2324V448.568L42.9863 446.967V450.629H44.8613Z" fill="#1E1E1E"/>
</g>
<mask id="path-36-inside-3_5202_583" fill="white">
<path d="M67.6094 443C67.6094 436.373 72.982 431 79.6094 431H92.7394C99.3668 431 104.739 436.373 104.739 443V467C104.739 473.627 99.3668 479 92.7394 479H79.6094C72.982 479 67.6094 473.627 67.6094 467V443Z"/>
</mask>
<path d="M67.6094 443C67.6094 436.373 72.982 431 79.6094 431H92.7394C99.3668 431 104.739 436.373 104.739 443V467C104.739 473.627 99.3668 479 92.7394 479H79.6094C72.982 479 67.6094 473.627 67.6094 467V443Z" fill="white"/>
<path d="M79.6094 431V433H92.7394V431V429H79.6094V431ZM104.739 443H102.739V467H104.739H106.739V443H104.739ZM92.7394 479V477H79.6094V479V481H92.7394V479ZM67.6094 467H69.6094V443H67.6094H65.6094V467H67.6094ZM79.6094 479V477C74.0865 477 69.6094 472.523 69.6094 467H67.6094H65.6094C65.6094 474.732 71.8774 481 79.6094 481V479ZM104.739 467H102.739C102.739 472.523 98.2622 477 92.7394 477V479V481C100.471 481 106.739 474.732 106.739 467H104.739ZM92.7394 431V433C98.2622 433 102.739 437.477 102.739 443H104.739H106.739C106.739 435.268 100.471 429 92.7394 429V431ZM79.6094 431V429C71.8774 429 65.6094 435.268 65.6094 443H67.6094H69.6094C69.6094 437.477 74.0865 433 79.6094 433V431Z" fill="#3C86FF" mask="url(#path-36-inside-3_5202_583)"/>
<path d="M88.375 457.699L91.1094 458.158C90.7578 459.161 90.2012 459.926 89.4395 460.453C88.6842 460.974 87.737 461.234 86.5977 461.234C84.7943 461.234 83.4596 460.645 82.5938 459.467C81.9102 458.523 81.5684 457.331 81.5684 455.893C81.5684 454.174 82.0176 452.829 82.916 451.859C83.8145 450.883 84.9505 450.395 86.3242 450.395C87.8672 450.395 89.0846 450.906 89.9766 451.928C90.8685 452.943 91.2949 454.503 91.2559 456.605H84.3809C84.4004 457.419 84.6217 458.054 85.0449 458.51C85.4681 458.959 85.9954 459.184 86.627 459.184C87.0566 459.184 87.418 459.066 87.7109 458.832C88.0039 458.598 88.2253 458.22 88.375 457.699ZM88.5312 454.926C88.5117 454.132 88.3066 453.529 87.916 453.119C87.5254 452.702 87.0501 452.494 86.4902 452.494C85.8913 452.494 85.3965 452.712 85.0059 453.148C84.6152 453.585 84.4232 454.177 84.4297 454.926H88.5312Z" fill="#1E1E1E"/>
<mask id="path-39-inside-4_5202_583" fill="white">
<path d="M111.738 443C111.738 436.373 117.111 431 123.738 431H136.868C143.496 431 148.868 436.373 148.868 443V467C148.868 473.627 143.496 479 136.868 479H123.738C117.111 479 111.738 473.627 111.738 467V443Z"/>
</mask>
<path d="M111.738 443C111.738 436.373 117.111 431 123.738 431H136.868C143.496 431 148.868 436.373 148.868 443V467C148.868 473.627 143.496 479 136.868 479H123.738C117.111 479 111.738 473.627 111.738 467V443Z" fill="white"/>
<path d="M123.738 431V433H136.868V431V429H123.738V431ZM148.868 443H146.868V467H148.868H150.868V443H148.868ZM136.868 479V477H123.738V479V481H136.868V479ZM111.738 467H113.738V443H111.738H109.738V467H111.738ZM123.738 479V477C118.215 477 113.738 472.523 113.738 467H111.738H109.738C109.738 474.732 116.006 481 123.738 481V479ZM148.868 467H146.868C146.868 472.523 142.391 477 136.868 477V479V481C144.6 481 150.868 474.732 150.868 467H148.868ZM136.868 431V433C142.391 433 146.868 437.477 146.868 443H148.868H150.868C150.868 435.268 144.6 429 136.868 429V431ZM123.738 431V429C116.006 429 109.738 435.268 109.738 443H111.738H113.738C113.738 437.477 118.215 433 123.738 433V431Z" fill="#3C86FF" mask="url(#path-39-inside-4_5202_583)"/>
<path d="M132.375 457.699L135.109 458.158C134.758 459.161 134.201 459.926 133.439 460.453C132.684 460.974 131.737 461.234 130.598 461.234C128.794 461.234 127.46 460.645 126.594 459.467C125.91 458.523 125.568 457.331 125.568 455.893C125.568 454.174 126.018 452.829 126.916 451.859C127.814 450.883 128.951 450.395 130.324 450.395C131.867 450.395 133.085 450.906 133.977 451.928C134.868 452.943 135.295 454.503 135.256 456.605H128.381C128.4 457.419 128.622 458.054 129.045 458.51C129.468 458.959 129.995 459.184 130.627 459.184C131.057 459.184 131.418 459.066 131.711 458.832C132.004 458.598 132.225 458.22 132.375 457.699ZM132.531 454.926C132.512 454.132 132.307 453.529 131.916 453.119C131.525 452.702 131.05 452.494 130.49 452.494C129.891 452.494 129.396 452.712 129.006 453.148C128.615 453.585 128.423 454.177 128.43 454.926H132.531Z" fill="#1E1E1E"/>
<mask id="path-42-inside-5_5202_583" fill="white">
<path d="M155.871 443C155.871 436.373 161.244 431 167.871 431H181.001C187.629 431 193.001 436.373 193.001 443V467C193.001 473.627 187.629 479 181.001 479H167.871C161.244 479 155.871 473.627 155.871 467V443Z"/>
</mask>
<path d="M155.871 443C155.871 436.373 161.244 431 167.871 431H181.001C187.629 431 193.001 436.373 193.001 443V467C193.001 473.627 187.629 479 181.001 479H167.871C161.244 479 155.871 473.627 155.871 467V443Z" fill="white"/>
<path d="M167.871 431V433H181.001V431V429H167.871V431ZM193.001 443H191.001V467H193.001H195.001V443H193.001ZM181.001 479V477H167.871V479V481H181.001V479ZM155.871 467H157.871V443H155.871H153.871V467H155.871ZM167.871 479V477C162.348 477 157.871 472.523 157.871 467H155.871H153.871C153.871 474.732 160.139 481 167.871 481V479ZM193.001 467H191.001C191.001 472.523 186.524 477 181.001 477V479V481C188.733 481 195.001 474.732 195.001 467H193.001ZM181.001 431V433C186.524 433 191.001 437.477 191.001 443H193.001H195.001C195.001 435.268 188.733 429 181.001 429V431ZM167.871 431V429C160.139 429 153.871 435.268 153.871 443H155.871H157.871C157.871 437.477 162.348 433 167.871 433V431Z" fill="#3C86FF" mask="url(#path-42-inside-5_5202_583)"/>
<path d="M178.756 461H176.012V455.707C176.012 454.587 175.953 453.865 175.836 453.539C175.719 453.207 175.527 452.95 175.26 452.768C174.999 452.585 174.684 452.494 174.312 452.494C173.837 452.494 173.411 452.624 173.033 452.885C172.656 453.145 172.395 453.49 172.252 453.92C172.115 454.35 172.047 455.144 172.047 456.303V461H169.303V450.629H171.852V452.152C172.757 450.98 173.896 450.395 175.27 450.395C175.875 450.395 176.428 450.505 176.93 450.727C177.431 450.941 177.809 451.218 178.062 451.557C178.323 451.895 178.502 452.279 178.6 452.709C178.704 453.139 178.756 453.754 178.756 454.555V461Z" fill="#1E1E1E"/>
<mask id="path-45-inside-6_5202_583" fill="white">
<path d="M200 443C200 436.373 205.373 431 212 431H225.13C231.757 431 237.13 436.373 237.13 443V467C237.13 473.627 231.757 479 225.13 479H212C205.373 479 200 473.627 200 467V443Z"/>
</mask>
<path d="M200 443C200 436.373 205.373 431 212 431H225.13C231.757 431 237.13 436.373 237.13 443V467C237.13 473.627 231.757 479 225.13 479H212C205.373 479 200 473.627 200 467V443Z" fill="white"/>
<path d="M212 431V433H225.13V431V429H212V431ZM237.13 443H235.13V467H237.13H239.13V443H237.13ZM225.13 479V477H212V479V481H225.13V479ZM200 467H202V443H200H198V467H200ZM212 479V477C206.477 477 202 472.523 202 467H200H198C198 474.732 204.268 481 212 481V479ZM237.13 467H235.13C235.13 472.523 230.653 477 225.13 477V479V481C232.862 481 239.13 474.732 239.13 467H237.13ZM225.13 431V433C230.653 433 235.13 437.477 235.13 443H237.13H239.13C239.13 435.268 232.862 429 225.13 429V431ZM212 431V429C204.268 429 198 435.268 198 443H200H202C202 437.477 206.477 433 212 433V431Z" fill="#3C86FF" mask="url(#path-45-inside-6_5202_583)"/>
<path d="M216.42 453.793L213.93 453.344C214.21 452.341 214.691 451.599 215.375 451.117C216.059 450.635 217.074 450.395 218.422 450.395C219.646 450.395 220.557 450.541 221.156 450.834C221.755 451.12 222.175 451.488 222.416 451.938C222.663 452.38 222.787 453.197 222.787 454.389L222.758 457.592C222.758 458.503 222.8 459.177 222.885 459.613C222.976 460.043 223.142 460.505 223.383 461H220.668C220.596 460.818 220.508 460.548 220.404 460.189C220.359 460.027 220.326 459.919 220.307 459.867C219.838 460.323 219.337 460.665 218.803 460.893C218.269 461.12 217.699 461.234 217.094 461.234C216.026 461.234 215.183 460.945 214.564 460.365C213.952 459.786 213.646 459.053 213.646 458.168C213.646 457.582 213.786 457.061 214.066 456.605C214.346 456.143 214.737 455.792 215.238 455.551C215.746 455.303 216.475 455.089 217.426 454.906C218.708 454.665 219.597 454.441 220.092 454.232V453.959C220.092 453.432 219.962 453.057 219.701 452.836C219.441 452.608 218.949 452.494 218.227 452.494C217.738 452.494 217.357 452.592 217.084 452.787C216.811 452.976 216.589 453.311 216.42 453.793ZM220.092 456.02C219.74 456.137 219.184 456.277 218.422 456.439C217.66 456.602 217.162 456.762 216.928 456.918C216.57 457.172 216.391 457.494 216.391 457.885C216.391 458.269 216.534 458.601 216.82 458.881C217.107 459.161 217.471 459.301 217.914 459.301C218.409 459.301 218.881 459.138 219.33 458.812C219.662 458.565 219.88 458.262 219.984 457.904C220.056 457.67 220.092 457.224 220.092 456.566V456.02Z" fill="#1E1E1E"/>
<mask id="path-48-inside-7_5202_583" fill="white">
<path d="M244.129 443C244.129 436.373 249.501 431 256.129 431H269.259C275.886 431 281.259 436.373 281.259 443V467C281.259 473.627 275.886 479 269.259 479H256.129C249.501 479 244.129 473.627 244.129 467V443Z"/>
</mask>
<path d="M244.129 443C244.129 436.373 249.501 431 256.129 431H269.259C275.886 431 281.259 436.373 281.259 443V467C281.259 473.627 275.886 479 269.259 479H256.129C249.501 479 244.129 473.627 244.129 467V443Z" fill="#F4F7FB"/>
<path d="M256.129 431V433H269.259V431V429H256.129V431ZM281.259 443H279.259V467H281.259H283.259V443H281.259ZM269.259 479V477H256.129V479V481H269.259V479ZM244.129 467H246.129V443H244.129H242.129V467H244.129ZM256.129 479V477C250.606 477 246.129 472.523 246.129 467H244.129H242.129C242.129 474.732 248.397 481 256.129 481V479ZM281.259 467H279.259C279.259 472.523 274.782 477 269.259 477V479V481C276.991 481 283.259 474.732 283.259 467H281.259ZM269.259 431V433C274.782 433 279.259 437.477 279.259 443H281.259H283.259C283.259 435.268 276.991 429 269.259 429V431ZM256.129 431V429C248.397 429 242.129 435.268 242.129 443H244.129H246.129C246.129 437.477 250.606 433 256.129 433V431Z" fill="#E2E8F2" mask="url(#path-48-inside-7_5202_583)"/>
<mask id="path-50-inside-8_5202_583" fill="white">
<path d="M288.262 443C288.262 436.373 293.634 431 300.262 431H313.392C320.019 431 325.392 436.373 325.392 443V467C325.392 473.627 320.019 479 313.392 479H300.262C293.634 479 288.262 473.627 288.262 467V443Z"/>
</mask>
<path d="M288.262 443C288.262 436.373 293.634 431 300.262 431H313.392C320.019 431 325.392 436.373 325.392 443V467C325.392 473.627 320.019 479 313.392 479H300.262C293.634 479 288.262 473.627 288.262 467V443Z" fill="#F4F7FB"/>
<path d="M300.262 431V433H313.392V431V429H300.262V431ZM325.392 443H323.392V467H325.392H327.392V443H325.392ZM313.392 479V477H300.262V479V481H313.392V479ZM288.262 467H290.262V443H288.262H286.262V467H288.262ZM300.262 479V477C294.739 477 290.262 472.523 290.262 467H288.262H286.262C286.262 474.732 292.53 481 300.262 481V479ZM325.392 467H323.392C323.392 472.523 318.915 477 313.392 477V479V481C321.124 481 327.392 474.732 327.392 467H325.392ZM313.392 431V433C318.915 433 323.392 437.477 323.392 443H325.392H327.392C327.392 435.268 321.124 429 313.392 429V431ZM300.262 431V429C292.53 429 286.262 435.268 286.262 443H288.262H290.262C290.262 437.477 294.739 433 300.262 433V431Z" fill="#E2E8F2" mask="url(#path-50-inside-8_5202_583)"/>
<mask id="path-52-inside-9_5202_583" fill="white">
<path d="M332.391 443C332.391 436.373 337.763 431 344.391 431H357.521C364.148 431 369.521 436.373 369.521 443V467C369.521 473.627 364.148 479 357.521 479H344.391C337.763 479 332.391 473.627 332.391 467V443Z"/>
</mask>
<path d="M332.391 443C332.391 436.373 337.763 431 344.391 431H357.521C364.148 431 369.521 436.373 369.521 443V467C369.521 473.627 364.148 479 357.521 479H344.391C337.763 479 332.391 473.627 332.391 467V443Z" fill="#F4F7FB"/>
<path d="M344.391 431V433H357.521V431V429H344.391V431ZM369.521 443H367.521V467H369.521H371.521V443H369.521ZM357.521 479V477H344.391V479V481H357.521V479ZM332.391 467H334.391V443H332.391H330.391V467H332.391ZM344.391 479V477C338.868 477 334.391 472.523 334.391 467H332.391H330.391C330.391 474.732 336.659 481 344.391 481V479ZM369.521 467H367.521C367.521 472.523 363.043 477 357.521 477V479V481C365.253 481 371.521 474.732 371.521 467H369.521ZM357.521 431V433C363.043 433 367.521 437.477 367.521 443H369.521H371.521C371.521 435.268 365.253 429 357.521 429V431ZM344.391 431V429C336.659 429 330.391 435.268 330.391 443H332.391H334.391C334.391 437.477 338.868 433 344.391 433V431Z" fill="#E2E8F2" mask="url(#path-52-inside-9_5202_583)"/>
</g>
<defs>
<filter id="filter0_i_5202_583" x="23.6172" y="134" width="342" height="38" filterUnits="userSpaceOnUse" color-interpolation-filters="sRGB">
<feFlood flood-opacity="0" result="BackgroundImageFix"/>
<feBlend mode="normal" in="SourceGraphic" in2="BackgroundImageFix" result="shape"/>
<feColorMatrix in="SourceAlpha" type="matrix" values="0 0 0 0 0 0 0 0 0 0 0 0 0 0 0 0 0 0 127 0" result="hardAlpha"/>
<feOffset dy="4"/>
<feGaussianBlur stdDeviation="2"/>
<feComposite in2="hardAlpha" operator="arithmetic" k2="-1" k3="1"/>
<feColorMatrix type="matrix" values="0 0 0 0 0.651984 0 0 0 0 0.660851 0 0 0 0 0.705182 0 0 0 0.25 0"/>
<feBlend mode="normal" in2="shape" result="effect1_innerShadow_5202_583"/>
</filter>
<filter id="filter1_i_5202_583" x="31.6172" y="142" width="128" height="22" filterUnits="userSpaceOnUse" color-interpolation-filters="sRGB">
<feFlood flood-opacity="0" result="BackgroundImageFix"/>
<feBlend mode="normal" in="SourceGraphic" in2="BackgroundImageFix" result="shape"/>
<feColorMatrix in="SourceAlpha" type="matrix" values="0 0 0 0 0 0 0 0 0 0 0 0 0 0 0 0 0 0 127 0" result="hardAlpha"/>
<feOffset dy="4"/>
<feGaussianBlur stdDeviation="2"/>
<feComposite in2="hardAlpha" operator="arithmetic" k2="-1" k3="1"/>
<feColorMatrix type="matrix" values="0 0 0 0 1 0 0 0 0 1 0 0 0 0 1 0 0 0 0.25 0"/>
<feBlend mode="normal" in2="shape" result="effect1_innerShadow_5202_583"/>
</filter>
<filter id="filter2_dd_5202_583" x="133.5" y="569" width="64" height="72" filterUnits="userSpaceOnUse" color-interpolation-filters="sRGB">
<feFlood flood-opacity="0" result="BackgroundImageFix"/>
<feColorMatrix in="SourceAlpha" type="matrix" values="0 0 0 0 0 0 0 0 0 0 0 0 0 0 0 0 0 0 127 0" result="hardAlpha"/>
<feMorphology radius="1" operator="dilate" in="SourceAlpha" result="effect1_dropShadow_5202_583"/>
<feOffset/>
<feComposite in2="hardAlpha" operator="out"/>
<feColorMatrix type="matrix" values="0 0 0 0 0 0 0 0 0 0 0 0 0 0 0 0 0 0 0.03 0"/>
<feBlend mode="normal" in2="BackgroundImageFix" result="effect1_dropShadow_5202_583"/>
<feColorMatrix in="SourceAlpha" type="matrix" values="0 0 0 0 0 0 0 0 0 0 0 0 0 0 0 0 0 0 127 0" result="hardAlpha"/>
<feOffset dy="3"/>
<feGaussianBlur stdDeviation="5"/>
<feComposite in2="hardAlpha" operator="out"/>
<feColorMatrix type="matrix" values="0 0 0 0 0.14902 0 0 0 0 0.247059 0 0 0 0 0.431373 0 0 0 0.1 0"/>
<feBlend mode="normal" in2="effect1_dropShadow_5202_583" result="effect2_dropShadow_5202_583"/>
<feBlend mode="normal" in="SourceGraphic" in2="effect2_dropShadow_5202_583" result="shape"/>
</filter>
<filter id="filter3_dd_5202_583" x="295.5" y="569" width="64" height="72" filterUnits="userSpaceOnUse" color-interpolation-filters="sRGB">
<feFlood flood-opacity="0" result="BackgroundImageFix"/>
<feColorMatrix in="SourceAlpha" type="matrix" values="0 0 0 0 0 0 0 0 0 0 0 0 0 0 0 0 0 0 127 0" result="hardAlpha"/>
<feMorphology radius="1" operator="dilate" in="SourceAlpha" result="effect1_dropShadow_5202_583"/>
<feOffset/>
<feComposite in2="hardAlpha" operator="out"/>
<feColorMatrix type="matrix" values="0 0 0 0 0 0 0 0 0 0 0 0 0 0 0 0 0 0 0.03 0"/>
<feBlend mode="normal" in2="BackgroundImageFix" result="effect1_dropShadow_5202_583"/>
<feColorMatrix in="SourceAlpha" type="matrix" values="0 0 0 0 0 0 0 0 0 0 0 0 0 0 0 0 0 0 127 0" result="hardAlpha"/>
<feOffset dy="3"/>
<feGaussianBlur stdDeviation="5"/>
<feComposite in2="hardAlpha" operator="out"/>
<feColorMatrix type="matrix" values="0 0 0 0 0.14902 0 0 0 0 0.247059 0 0 0 0 0.431373 0 0 0 0.1 0"/>
<feBlend mode="normal" in2="effect1_dropShadow_5202_583" result="effect2_dropShadow_5202_583"/>
<feBlend mode="normal" in="SourceGraphic" in2="effect2_dropShadow_5202_583" result="shape"/>
</filter>
<filter id="filter4_dd_5202_583" x="187.5" y="631" width="64" height="72" filterUnits="userSpaceOnUse" color-interpolation-filters="sRGB">
<feFlood flood-opacity="0" result="BackgroundImageFix"/>
<feColorMatrix in="SourceAlpha" type="matrix" values="0 0 0 0 0 0 0 0 0 0 0 0 0 0 0 0 0 0 127 0" result="hardAlpha"/>
<feMorphology radius="1" operator="dilate" in="SourceAlpha" result="effect1_dropShadow_5202_583"/>
<feOffset/>
<feComposite in2="hardAlpha" operator="out"/>
<feColorMatrix type="matrix" values="0 0 0 0 0 0 0 0 0 0 0 0 0 0 0 0 0 0 0.03 0"/>
<feBlend mode="normal" in2="BackgroundImageFix" result="effect1_dropShadow_5202_583"/>
<feColorMatrix in="SourceAlpha" type="matrix" values="0 0 0 0 0 0 0 0 0 0 0 0 0 0 0 0 0 0 127 0" result="hardAlpha"/>
<feOffset dy="3"/>
<feGaussianBlur stdDeviation="5"/>
<feComposite in2="hardAlpha" operator="out"/>
<feColorMatrix type="matrix" values="0 0 0 0 0.14902 0 0 0 0 0.247059 0 0 0 0 0.431373 0 0 0 0.1 0"/>
<feBlend mode="normal" in2="effect1_dropShadow_5202_583" result="effect2_dropShadow_5202_583"/>
<feBlend mode="normal" in="SourceGraphic" in2="effect2_dropShadow_5202_583" result="shape"/>
</filter>
<filter id="filter5_di_5202_583" x="26" y="747" width="341" height="68" filterUnits="userSpaceOnUse" color-interpolation-filters="sRGB">
<feFlood flood-opacity="0" result="BackgroundImageFix"/>
<feColorMatrix in="SourceAlpha" type="matrix" values="0 0 0 0 0 0 0 0 0 0 0 0 0 0 0 0 0 0 127 0" result="hardAlpha"/>
<feOffset/>
<feGaussianBlur stdDeviation="2"/>
<feComposite in2="hardAlpha" operator="out"/>
<feColorMatrix type="matrix" values="0 0 0 0 0.715912 0 0 0 0 0.69906 0 0 0 0 0.614798 0 0 0 0.25 0"/>
<feBlend mode="normal" in2="BackgroundImageFix" result="effect1_dropShadow_5202_583"/>
<feBlend mode="normal" in="SourceGraphic" in2="effect1_dropShadow_5202_583" result="shape"/>
<feColorMatrix in="SourceAlpha" type="matrix" values="0 0 0 0 0 0 0 0 0 0 0 0 0 0 0 0 0 0 127 0" result="hardAlpha"/>
<feOffset dy="4"/>
<feGaussianBlur stdDeviation="2"/>
<feComposite in2="hardAlpha" operator="arithmetic" k2="-1" k3="1"/>
<feColorMatrix type="matrix" values="0 0 0 0 1 0 0 0 0 1 0 0 0 0 1 0 0 0 0.25 0"/>
<feBlend mode="normal" in2="shape" result="effect2_innerShadow_5202_583"/>
</filter>
<filter id="filter6_d_5202_583" x="19.4805" y="431" width="45.1289" height="56" filterUnits="userSpaceOnUse" color-interpolation-filters="sRGB">
<feFlood flood-opacity="0" result="BackgroundImageFix"/>
<feColorMatrix in="SourceAlpha" type="matrix" values="0 0 0 0 0 0 0 0 0 0 0 0 0 0 0 0 0 0 127 0" result="hardAlpha"/>
<feOffset dy="4"/>
<feGaussianBlur stdDeviation="2"/>
<feComposite in2="hardAlpha" operator="out"/>
<feColorMatrix type="matrix" values="0 0 0 0 0 0 0 0 0 0 0 0 0 0 0 0 0 0 0.25 0"/>
<feBlend mode="normal" in2="BackgroundImageFix" result="effect1_dropShadow_5202_583"/>
<feBlend mode="normal" in="SourceGraphic" in2="effect1_dropShadow_5202_583" result="shape"/>
</filter>
<linearGradient id="paint0_linear_5202_583" x1="160.666" y1="154.13" x2="232.97" y2="422.699" gradientUnits="userSpaceOnUse">
<stop stop-color="#F7FAFF"/>
<stop offset="1" stop-color="#EEF4FD"/>
</linearGradient>
<linearGradient id="paint1_linear_5202_583" x1="196.5" y1="0" x2="196.5" y2="174" gradientUnits="userSpaceOnUse">
<stop stop-color="white" stop-opacity="0"/>
<stop offset="0.22" stop-color="white"/>
</linearGradient>
<clipPath id="clip0_5202_583">
<rect width="393" height="852" fill="white"/>
</clipPath>
</defs>
</svg>
