<svg width="393" height="852" viewBox="0 0 393 852" fill="none" xmlns="http://www.w3.org/2000/svg">
<g clip-path="url(#clip0_2917_8077)">
<rect width="393" height="852" fill="white"/>
<g filter="url(#filter0_d_2917_8077)">
<path d="M21 230C21 221.163 28.1634 214 37 214H173C181.837 214 189 221.163 189 230V296C189 304.837 181.837 312 173 312H37C28.1634 312 21 304.837 21 296V230Z" fill="#FEFEFE" shape-rendering="crispEdges"/>
<path d="M80.2239 269.5H77.306L73.9661 259.955H76.7083L78.7122 266.811H78.8177L80.8216 259.955H83.5814L80.2239 269.5ZM84.1263 266.828C84.1263 265.844 84.4573 265.123 85.1195 264.666C85.7816 264.209 86.6341 263.951 87.6771 263.893C88.3216 263.852 89.1126 263.811 90.0501 263.77V262.996C90.0384 262.598 89.9007 262.287 89.637 262.064C89.3734 261.842 89.0013 261.73 88.5208 261.73C88.0872 261.73 87.7327 261.824 87.4573 262.012C87.182 262.199 87.0091 262.457 86.9388 262.785H84.4603C84.513 262.223 84.7078 261.719 85.0447 261.273C85.3817 260.828 85.8519 260.477 86.4554 260.219C87.0589 259.961 87.7708 259.832 88.5911 259.832C89.3177 259.832 89.9871 259.946 90.5994 260.175C91.2117 260.403 91.7039 260.759 92.076 261.243C92.4481 261.726 92.6341 262.334 92.6341 263.066V269.5H90.1732V268.182H90.1029C89.8509 268.645 89.492 269.009 89.0262 269.276C88.5604 269.542 87.9876 269.676 87.3079 269.676C86.6868 269.676 86.1375 269.569 85.66 269.355C85.1824 269.141 84.8074 268.82 84.535 268.393C84.2625 267.965 84.1263 267.443 84.1263 266.828ZM86.6224 266.758C86.6224 267.115 86.7528 267.392 87.0135 267.588C87.2742 267.785 87.6185 267.883 88.0462 267.883C88.4329 267.883 88.7801 267.804 89.0877 267.646C89.3953 267.487 89.6341 267.271 89.804 266.995C89.9739 266.72 90.056 266.418 90.0501 266.09V265.396C89.7747 265.401 89.4349 265.416 89.0306 265.439C88.6263 265.463 88.3157 265.486 88.0989 265.51C87.6419 265.557 87.2816 265.686 87.0179 265.896C86.7542 266.107 86.6224 266.395 86.6224 266.758ZM94.6204 259.955H97.1341V261.607H97.2396C97.4095 261.027 97.6995 260.583 98.1097 260.276C98.5198 259.968 98.9974 259.814 99.5423 259.814C99.8411 259.814 100.117 259.844 100.368 259.902V262.223C100.24 262.188 100.067 262.155 99.8499 262.126C99.6331 262.097 99.4368 262.082 99.2611 262.082C98.8743 262.082 98.5257 262.167 98.2152 262.337C97.9046 262.507 97.6614 262.743 97.4857 263.044C97.3099 263.346 97.222 263.688 97.222 264.068V269.5H94.6204V259.955ZM101.634 259.955H104.236V269.5H101.634V259.955ZM102.935 258.707C102.677 258.707 102.438 258.647 102.219 258.527C101.999 258.407 101.826 258.246 101.7 258.043C101.574 257.841 101.511 257.623 101.511 257.389C101.511 257.148 101.574 256.926 101.7 256.721C101.826 256.516 101.999 256.353 102.219 256.233C102.438 256.113 102.677 256.053 102.935 256.053C103.187 256.053 103.421 256.113 103.638 256.233C103.855 256.353 104.026 256.516 104.152 256.721C104.278 256.926 104.341 257.148 104.341 257.389C104.341 257.623 104.278 257.841 104.152 258.043C104.026 258.246 103.855 258.407 103.638 258.527C103.421 258.647 103.187 258.707 102.935 258.707ZM110.546 269.693C109.597 269.693 108.771 269.488 108.068 269.078C107.365 268.668 106.823 268.089 106.442 267.342C106.061 266.595 105.87 265.732 105.87 264.754C105.87 263.775 106.059 262.914 106.437 262.17C106.815 261.426 107.357 260.85 108.063 260.443C108.769 260.036 109.597 259.832 110.546 259.832C111.495 259.832 112.325 260.036 113.034 260.443C113.743 260.85 114.287 261.426 114.668 262.17C115.049 262.914 115.24 263.775 115.24 264.754C115.24 265.732 115.049 266.595 114.668 267.342C114.287 268.089 113.743 268.668 113.034 269.078C112.325 269.488 111.495 269.693 110.546 269.693ZM110.564 267.672C110.997 267.672 111.367 267.547 111.671 267.298C111.976 267.049 112.204 266.705 112.357 266.266C112.509 265.826 112.585 265.322 112.585 264.754C112.585 264.186 112.509 263.68 112.357 263.238C112.204 262.795 111.976 262.448 111.671 262.196C111.367 261.944 110.997 261.818 110.564 261.818C110.124 261.818 109.751 261.944 109.443 262.196C109.136 262.448 108.903 262.795 108.744 263.238C108.586 263.68 108.507 264.186 108.507 264.754C108.507 265.316 108.586 265.819 108.744 266.261C108.903 266.704 109.136 267.049 109.443 267.298C109.751 267.547 110.124 267.672 110.564 267.672ZM122.992 259.955H125.593V269.5H123.097V267.777H122.992C122.763 268.346 122.398 268.795 121.897 269.126C121.396 269.458 120.794 269.623 120.091 269.623C119.452 269.623 118.891 269.479 118.408 269.192C117.925 268.905 117.548 268.491 117.279 267.949C117.009 267.407 116.874 266.77 116.874 266.037V259.955H119.476V265.58C119.476 266.143 119.627 266.591 119.929 266.925C120.23 267.259 120.636 267.426 121.146 267.426C121.474 267.426 121.779 267.348 122.06 267.193C122.341 267.038 122.567 266.811 122.737 266.512C122.907 266.213 122.992 265.855 122.992 265.439V259.955ZM133.064 262.785C133.011 262.451 132.844 262.183 132.563 261.981C132.282 261.779 131.927 261.678 131.499 261.678C131.218 261.678 130.965 261.72 130.739 261.805C130.513 261.89 130.336 262.007 130.207 262.157C130.078 262.306 130.017 262.475 130.023 262.662C130.005 263.113 130.415 263.43 131.253 263.611L132.958 263.963C133.884 264.156 134.574 264.464 135.028 264.886C135.482 265.308 135.712 265.861 135.718 266.547C135.712 267.168 135.532 267.716 135.178 268.19C134.823 268.665 134.326 269.034 133.688 269.298C133.049 269.562 132.314 269.693 131.482 269.693C130.632 269.693 129.897 269.572 129.276 269.329C128.655 269.085 128.167 268.737 127.812 268.283C127.458 267.829 127.245 267.291 127.175 266.67H129.794C129.853 267.045 130.029 267.329 130.322 267.522C130.615 267.716 131.001 267.812 131.482 267.812C131.956 267.812 132.339 267.722 132.629 267.54C132.919 267.358 133.064 267.115 133.064 266.811C133.064 266.564 132.96 266.364 132.752 266.208C132.544 266.053 132.214 265.926 131.763 265.826L130.181 265.51C129.279 265.334 128.593 265.015 128.124 264.552C127.656 264.089 127.427 263.506 127.439 262.803C127.433 262.199 127.594 261.673 127.922 261.225C128.25 260.777 128.719 260.433 129.328 260.192C129.938 259.952 130.65 259.832 131.464 259.832C132.255 259.832 132.947 259.952 133.538 260.192C134.13 260.433 134.595 260.774 134.931 261.216C135.268 261.659 135.46 262.182 135.507 262.785H133.064Z" fill="#1E1E1E"/>
</g>
<g filter="url(#filter1_d_2917_8077)">
<path d="M21 344C21 335.163 28.1634 328 37 328H173C181.837 328 189 335.163 189 344V410C189 418.837 181.837 426 173 426H37C28.1634 426 21 418.837 21 410V344Z" fill="#FEFEFE" shape-rendering="crispEdges"/>
<path d="M83.0107 373.955H85.6474L87.1416 380.406H87.2295L88.7939 373.955H91.3779L92.9599 380.371H93.0478L94.5244 373.955H97.1611L94.542 383.5H91.7998L90.1474 377.436H90.0244L88.372 383.5H85.6123L83.0107 373.955ZM98.0224 380.828C98.0224 379.844 98.3535 379.123 99.0156 378.666C99.6777 378.209 100.53 377.951 101.573 377.893C102.218 377.852 103.009 377.811 103.946 377.77V376.996C103.935 376.598 103.797 376.287 103.533 376.064C103.269 375.842 102.897 375.73 102.417 375.73C101.983 375.73 101.629 375.824 101.353 376.012C101.078 376.199 100.905 376.457 100.835 376.785H98.3564C98.4091 376.223 98.604 375.719 98.9409 375.273C99.2778 374.828 99.748 374.477 100.352 374.219C100.955 373.961 101.667 373.832 102.487 373.832C103.214 373.832 103.883 373.946 104.496 374.175C105.108 374.403 105.6 374.759 105.972 375.243C106.344 375.726 106.53 376.334 106.53 377.066V383.5H104.069V382.182H103.999C103.747 382.645 103.388 383.009 102.922 383.276C102.457 383.542 101.884 383.676 101.204 383.676C100.583 383.676 100.034 383.569 99.5561 383.355C99.0786 383.141 98.7036 382.82 98.4311 382.393C98.1587 381.965 98.0224 381.443 98.0224 380.828ZM100.519 380.758C100.519 381.115 100.649 381.392 100.91 381.588C101.17 381.785 101.515 381.883 101.942 381.883C102.329 381.883 102.676 381.804 102.984 381.646C103.291 381.487 103.53 381.271 103.7 380.995C103.87 380.72 103.952 380.418 103.946 380.09V379.396C103.671 379.401 103.331 379.416 102.927 379.439C102.522 379.463 102.212 379.486 101.995 379.51C101.538 379.557 101.178 379.686 100.914 379.896C100.65 380.107 100.519 380.395 100.519 380.758ZM113.667 383.5H110.749L107.409 373.955H110.151L112.155 380.811H112.261L114.265 373.955H117.024L113.667 383.5ZM122.298 383.693C121.331 383.693 120.495 383.494 119.789 383.096C119.082 382.697 118.539 382.127 118.158 381.386C117.777 380.645 117.587 379.773 117.587 378.771C117.587 377.793 117.776 376.93 118.154 376.183C118.532 375.436 119.069 374.857 119.767 374.447C120.464 374.037 121.272 373.832 122.192 373.832C123.048 373.832 123.814 374.012 124.491 374.373C125.167 374.733 125.701 375.276 126.09 376.003C126.48 376.729 126.675 377.617 126.675 378.666V379.404H120.153C120.153 379.879 120.243 380.292 120.421 380.644C120.6 380.995 120.855 381.266 121.186 381.457C121.517 381.647 121.905 381.742 122.351 381.742C122.778 381.742 123.147 381.656 123.458 381.483C123.769 381.31 123.991 381.074 124.126 380.775H126.604C126.481 381.361 126.229 381.874 125.849 382.313C125.468 382.753 124.974 383.093 124.368 383.333C123.761 383.573 123.071 383.693 122.298 383.693ZM124.214 377.77C124.214 377.389 124.13 377.047 123.963 376.746C123.796 376.444 123.563 376.208 123.265 376.038C122.966 375.868 122.626 375.783 122.245 375.783C121.858 375.783 121.508 375.871 121.195 376.047C120.881 376.223 120.632 376.463 120.448 376.768C120.263 377.072 120.165 377.406 120.153 377.77H124.214Z" fill="#1E1E1E"/>
</g>
<g filter="url(#filter2_d_2917_8077)">
<rect x="21" y="442" width="168" height="98" rx="16" fill="#FEF2F2" shape-rendering="crispEdges"/>
<rect x="22.5" y="443.5" width="165" height="95" rx="14.5" stroke="#EF4444" stroke-width="3" shape-rendering="crispEdges"/>
<path d="M56.8887 497.5V487.955H59.4023V489.607H59.5078C59.8594 488.43 60.7383 487.814 61.8105 487.814C62.0742 487.814 62.4082 487.85 62.6367 487.902V490.223C62.3906 490.152 61.8984 490.082 61.5293 490.082C60.3516 490.082 59.4902 490.908 59.4902 492.068V497.5H56.8887ZM70.0195 493.439V487.955H72.6211V497.5H70.125V495.777H70.0195C69.5801 496.885 68.5605 497.623 67.1191 497.623C65.2031 497.623 63.9023 496.27 63.9023 494.037V487.955H66.5039V493.58C66.5039 494.705 67.1543 495.426 68.1738 495.426C69.123 495.426 70.0195 494.74 70.0195 493.439ZM77.2441 491.98V497.5H74.6426V487.955H77.1211V489.625H77.2266C77.666 488.518 78.6855 487.832 80.0918 487.832C82.0781 487.832 83.3965 489.186 83.3789 491.418V497.5H80.7949V491.875C80.7949 490.697 80.1445 489.994 79.0723 489.994C77.9824 489.994 77.2441 490.715 77.2441 491.98ZM93.873 497.693C90.9551 497.693 89.1621 495.795 89.1621 492.771C89.1621 489.818 90.9727 487.832 93.7676 487.832C96.2812 487.832 98.25 489.414 98.25 492.666V493.404H91.7285C91.7285 494.846 92.5898 495.742 93.9258 495.742C94.8047 495.742 95.4375 495.355 95.7012 494.775H98.1797C97.8105 496.533 96.2285 497.693 93.873 497.693ZM91.7285 491.77H95.7891C95.7891 490.609 94.9805 489.783 93.8203 489.783C92.625 489.783 91.7725 490.671 91.7285 491.77ZM99.8848 497.5V487.955H102.398V489.607H102.504C102.855 488.43 103.734 487.814 104.807 487.814C105.07 487.814 105.404 487.85 105.633 487.902V490.223C105.387 490.152 104.895 490.082 104.525 490.082C103.348 490.082 102.486 490.908 102.486 492.068V497.5H99.8848ZM106.898 497.5V487.955H109.412V489.607H109.518C109.869 488.43 110.748 487.814 111.82 487.814C112.084 487.814 112.418 487.85 112.646 487.902V490.223C112.4 490.152 111.908 490.082 111.539 490.082C110.361 490.082 109.5 490.908 109.5 492.068V497.5H106.898ZM113.191 494.828C113.191 492.701 114.914 491.998 116.742 491.893C117.428 491.849 118.711 491.787 119.115 491.77V490.996C119.098 490.205 118.553 489.73 117.586 489.73C116.707 489.73 116.145 490.135 116.004 490.785H113.525C113.684 489.133 115.125 487.832 117.656 487.832C119.73 487.832 121.699 488.764 121.699 491.066V497.5H119.238V496.182H119.168C118.693 497.061 117.797 497.676 116.373 497.676C114.545 497.676 113.191 496.727 113.191 494.828ZM115.688 494.758C115.688 495.496 116.285 495.883 117.111 495.883C118.289 495.883 119.133 495.092 119.115 494.09V493.387C118.72 493.404 117.612 493.466 117.164 493.51C116.268 493.598 115.688 494.02 115.688 494.758ZM126.287 491.98V497.5H123.686V487.955H126.164V489.625H126.27C126.709 488.518 127.729 487.832 129.135 487.832C131.121 487.832 132.439 489.186 132.422 491.418V497.5H129.838V491.875C129.838 490.697 129.188 489.994 128.115 489.994C127.025 489.994 126.287 490.715 126.287 491.98ZM137.959 497.658C135.779 497.658 134.074 495.918 134.074 492.736C134.074 489.467 135.85 487.832 137.959 487.832C139.559 487.832 140.314 488.781 140.666 489.555H140.754V484.773H143.355V497.5H140.789V495.971H140.666C140.297 496.762 139.506 497.658 137.959 497.658ZM138.768 495.584C140.068 495.584 140.807 494.441 140.807 492.719C140.807 490.996 140.068 489.906 138.768 489.906C137.449 489.906 136.746 491.049 136.746 492.719C136.746 494.406 137.449 495.584 138.768 495.584ZM150.896 490.785C150.791 490.117 150.193 489.678 149.332 489.678C148.488 489.678 147.838 490.082 147.855 490.662C147.838 491.084 148.189 491.418 149.086 491.611L150.791 491.963C152.637 492.35 153.533 493.176 153.551 494.547C153.533 496.428 151.846 497.693 149.314 497.693C146.73 497.693 145.219 496.533 145.008 494.67H147.627C147.75 495.426 148.365 495.812 149.314 495.812C150.264 495.812 150.896 495.426 150.896 494.811C150.896 494.318 150.492 494.02 149.596 493.826L148.014 493.51C146.203 493.158 145.254 492.209 145.271 490.803C145.254 488.975 146.836 487.832 149.297 487.832C151.705 487.832 153.199 488.975 153.34 490.785H150.896Z" fill="#EF4444"/>
</g>
<g filter="url(#filter3_d_2917_8077)">
<path d="M21 572C21 563.163 28.1634 556 37 556H173C181.837 556 189 563.163 189 572V638C189 646.837 181.837 654 173 654H37C28.1634 654 21 646.837 21 638V572Z" fill="#FEFEFE" shape-rendering="crispEdges"/>
<path d="M84.659 611.5H82.0574V598.773H84.659V611.5ZM86.2234 608.828C86.2234 607.844 86.5545 607.123 87.2166 606.666C87.8787 606.209 88.7312 605.951 89.7742 605.893C90.4187 605.852 91.2097 605.811 92.1472 605.77V604.996C92.1355 604.598 91.9978 604.287 91.7342 604.064C91.4705 603.842 91.0984 603.73 90.6179 603.73C90.1844 603.73 89.8299 603.824 89.5545 604.012C89.2791 604.199 89.1062 604.457 89.0359 604.785H86.5574C86.6101 604.223 86.805 603.719 87.1419 603.273C87.4788 602.828 87.949 602.477 88.5525 602.219C89.156 601.961 89.8679 601.832 90.6883 601.832C91.4148 601.832 92.0843 601.946 92.6966 602.175C93.3089 602.403 93.8011 602.759 94.1731 603.243C94.5452 603.726 94.7312 604.334 94.7312 605.066V611.5H92.2703V610.182H92.2C91.948 610.645 91.5891 611.009 91.1233 611.276C90.6575 611.542 90.0847 611.676 89.4051 611.676C88.784 611.676 88.2346 611.569 87.7571 611.355C87.2796 611.141 86.9046 610.82 86.6321 610.393C86.3596 609.965 86.2234 609.443 86.2234 608.828ZM88.7195 608.758C88.7195 609.115 88.8499 609.392 89.1106 609.588C89.3714 609.785 89.7156 609.883 90.1433 609.883C90.5301 609.883 90.8772 609.804 91.1848 609.646C91.4925 609.487 91.7312 609.271 91.9012 608.995C92.0711 608.72 92.1531 608.418 92.1472 608.09V607.396C91.8719 607.401 91.532 607.416 91.1277 607.439C90.7234 607.463 90.4129 607.486 90.1961 607.51C89.739 607.557 89.3787 607.686 89.115 607.896C88.8513 608.107 88.7195 608.395 88.7195 608.758ZM101.745 603.906H99.9519V608.564C99.9519 608.916 100.028 609.162 100.18 609.303C100.333 609.443 100.555 609.52 100.848 609.531C101.223 609.531 101.569 609.514 101.886 609.479V611.535C101.575 611.594 101.112 611.623 100.497 611.623C99.5183 611.623 98.7478 611.397 98.1853 610.946C97.6228 610.495 97.3445 609.824 97.3504 608.934V603.906H96.032V601.955H97.3504V599.67H99.9519V601.955H101.745V603.906ZM107.607 611.693C106.64 611.693 105.804 611.494 105.098 611.096C104.392 610.697 103.848 610.127 103.468 609.386C103.087 608.645 102.896 607.773 102.896 606.771C102.896 605.793 103.085 604.93 103.463 604.183C103.841 603.436 104.379 602.857 105.076 602.447C105.773 602.037 106.582 601.832 107.502 601.832C108.357 601.832 109.123 602.012 109.8 602.373C110.477 602.733 111.01 603.276 111.4 604.003C111.789 604.729 111.984 605.617 111.984 606.666V607.404H105.463C105.463 607.879 105.552 608.292 105.731 608.644C105.909 608.995 106.164 609.266 106.495 609.457C106.826 609.647 107.215 609.742 107.66 609.742C108.088 609.742 108.457 609.656 108.767 609.483C109.078 609.31 109.301 609.074 109.435 608.775H111.914C111.791 609.361 111.539 609.874 111.158 610.313C110.777 610.753 110.283 611.093 109.677 611.333C109.071 611.573 108.381 611.693 107.607 611.693ZM109.523 605.77C109.523 605.389 109.44 605.047 109.273 604.746C109.106 604.444 108.873 604.208 108.574 604.038C108.275 603.868 107.935 603.783 107.554 603.783C107.168 603.783 106.818 603.871 106.504 604.047C106.191 604.223 105.942 604.463 105.757 604.768C105.573 605.072 105.474 605.406 105.463 605.77H109.523ZM119.068 604.785C119.015 604.451 118.848 604.183 118.567 603.981C118.286 603.779 117.931 603.678 117.504 603.678C117.222 603.678 116.969 603.72 116.743 603.805C116.518 603.89 116.341 604.007 116.212 604.157C116.083 604.306 116.021 604.475 116.027 604.662C116.01 605.113 116.42 605.43 117.258 605.611L118.963 605.963C119.888 606.156 120.578 606.464 121.032 606.886C121.487 607.308 121.717 607.861 121.722 608.547C121.717 609.168 121.536 609.716 121.182 610.19C120.827 610.665 120.331 611.034 119.692 611.298C119.053 611.562 118.318 611.693 117.486 611.693C116.637 611.693 115.901 611.572 115.28 611.329C114.659 611.085 114.171 610.737 113.817 610.283C113.462 609.829 113.25 609.291 113.179 608.67H115.799C115.857 609.045 116.033 609.329 116.326 609.522C116.619 609.716 117.006 609.812 117.486 609.812C117.961 609.812 118.343 609.722 118.633 609.54C118.923 609.358 119.068 609.115 119.068 608.811C119.068 608.564 118.964 608.364 118.756 608.208C118.548 608.053 118.219 607.926 117.767 607.826L116.185 607.51C115.283 607.334 114.597 607.015 114.129 606.552C113.66 606.089 113.431 605.506 113.443 604.803C113.437 604.199 113.598 603.673 113.927 603.225C114.255 602.777 114.723 602.433 115.333 602.192C115.942 601.952 116.654 601.832 117.469 601.832C118.26 601.832 118.951 601.952 119.543 602.192C120.135 602.433 120.599 602.774 120.936 603.216C121.273 603.659 121.465 604.182 121.512 604.785H119.068ZM128.349 603.906H126.556V608.564C126.556 608.916 126.633 609.162 126.785 609.303C126.937 609.443 127.16 609.52 127.453 609.531C127.828 609.531 128.174 609.514 128.49 609.479V611.535C128.179 611.594 127.717 611.623 127.101 611.623C126.123 611.623 125.352 611.397 124.79 610.946C124.227 610.495 123.949 609.824 123.955 608.934V603.906H122.637V601.955H123.955V599.67H126.556V601.955H128.349V603.906Z" fill="#1E1E1E"/>
</g>
<g filter="url(#filter4_d_2917_8077)">
<path d="M205 230C205 221.163 212.163 214 221 214H357C365.837 214 373 221.163 373 230V296C373 304.837 365.837 312 357 312H221C212.163 312 205 304.837 205 296V230Z" fill="#FEFEFE" shape-rendering="crispEdges"/>
<path d="M272.555 266.178C273.984 266.09 275.279 265.961 276.439 265.791L276.615 267.426C275.045 267.73 273.442 267.927 271.808 268.015C270.173 268.103 268.395 268.146 266.473 268.146L266.209 266.336C268.002 266.324 269.373 266.304 270.322 266.274V263.77H272.555V266.178ZM275.859 258.812H272.59C272.643 259.346 272.815 259.848 273.108 260.32C273.401 260.792 273.82 261.209 274.365 261.572C274.91 261.936 275.572 262.211 276.352 262.398L275.332 264.139C274.418 263.91 273.634 263.55 272.981 263.058C272.328 262.565 271.814 261.977 271.439 261.291C271.075 262.012 270.57 262.628 269.922 263.141C269.275 263.654 268.494 264.027 267.58 264.262L266.525 262.574C267.68 262.27 268.572 261.78 269.202 261.106C269.832 260.433 270.188 259.668 270.27 258.812H267.035V257.002H270.322V255.262H272.555V257.002H275.859V258.812ZM279.586 271.152H277.354V255.121H279.586V271.152ZM295.09 266.811H292.84V255.139H295.09V266.811ZM295.512 270.836H284.367V265.686H286.635V269.043H295.512V270.836ZM287.83 257.564C287.824 258.291 287.955 258.985 288.221 259.647C288.488 260.31 288.901 260.898 289.46 261.414C290.02 261.93 290.725 262.322 291.574 262.592L290.432 264.35C289.553 264.057 288.797 263.626 288.164 263.058C287.531 262.489 287.033 261.815 286.67 261.036C286.301 261.88 285.791 262.612 285.141 263.233C284.49 263.854 283.711 264.32 282.803 264.631L281.643 262.855C282.504 262.568 283.223 262.149 283.8 261.599C284.377 261.048 284.804 260.425 285.079 259.731C285.355 259.037 285.492 258.314 285.492 257.564V256.018H287.83V257.564ZM302.438 256.193C303.27 256.188 304.024 256.353 304.701 256.69C305.377 257.027 305.908 257.494 306.292 258.092C306.675 258.689 306.867 259.363 306.867 260.113C306.867 260.869 306.675 261.546 306.292 262.144C305.908 262.741 305.379 263.208 304.705 263.545C304.031 263.882 303.275 264.051 302.438 264.051C301.6 264.051 300.842 263.882 300.166 263.545C299.489 263.208 298.957 262.741 298.57 262.144C298.184 261.546 297.99 260.869 297.99 260.113C297.99 259.363 298.184 258.689 298.57 258.092C298.957 257.494 299.49 257.027 300.17 256.69C300.85 256.353 301.606 256.188 302.438 256.193ZM302.438 258.127C302.016 258.127 301.635 258.206 301.295 258.364C300.955 258.522 300.69 258.752 300.5 259.054C300.309 259.356 300.217 259.709 300.223 260.113C300.217 260.523 300.309 260.878 300.5 261.177C300.69 261.476 300.954 261.704 301.291 261.862C301.627 262.021 302.01 262.1 302.438 262.1C302.865 262.1 303.248 262.021 303.585 261.862C303.921 261.704 304.188 261.476 304.384 261.177C304.581 260.878 304.682 260.523 304.688 260.113C304.682 259.703 304.582 259.349 304.389 259.05C304.195 258.751 303.929 258.522 303.589 258.364C303.249 258.206 302.865 258.127 302.438 258.127ZM310.699 271.152H308.467V255.121H310.699V271.152ZM298.201 266.055C301.957 266.055 305.074 265.885 307.553 265.545L307.729 267.162C306.158 267.467 304.556 267.663 302.921 267.751C301.286 267.839 299.508 267.883 297.586 267.883L297.322 266.055H298.201Z" fill="#1E1E1E"/>
</g>
<g filter="url(#filter5_d_2917_8077)">
<path d="M205 344C205 335.163 212.163 328 221 328H357C365.837 328 373 335.163 373 344V410C373 418.837 365.837 426 357 426H221C212.163 426 205 418.837 205 410V344Z" fill="#FEFEFE" shape-rendering="crispEdges"/>
<path d="M263.979 369.139V378.156H261.729V369.139H263.979ZM263.979 378.895V384.941H253.256V378.895H263.979ZM255.471 380.67V383.148H261.782V380.67H255.471ZM256.719 371.266C256.702 373.217 257.879 375.062 260.463 375.871L259.374 377.576C257.546 377.04 256.28 375.933 255.559 374.5C254.83 376.056 253.529 377.286 251.622 377.875L250.532 376.117C253.204 375.309 254.381 373.27 254.381 371.266V369.719H256.719V371.266ZM280.766 378.35V380.107H274.508V385.117H272.294V380.107H266.124V378.35H280.766ZM270.061 369.736V371.582H276.776V369.736H279.026V376.803H267.846V369.736H270.061ZM270.061 375.01H276.776V373.34H270.061V375.01ZM296.323 377.189V378.965H281.68V377.189H296.323ZM294.547 369.42V373.691H285.741V374.623H294.846V376.328H283.508V372.074H292.297V371.143H283.473V369.42H294.547ZM294.618 379.949V384.941H283.561V379.949H294.618ZM285.758 381.725V383.148H292.385V381.725H285.758ZM309.876 369.121V375.379H312.231V377.225H309.876V385.117H307.661V369.121H309.876ZM306.571 371.512V373.305H297.167V371.512H300.788V369.367H303.038V371.512H306.571ZM301.913 374.201C304.251 374.201 305.991 375.783 305.991 378.016C305.991 380.248 304.251 381.83 301.913 381.83C299.557 381.83 297.817 380.248 297.817 378.016C297.817 375.783 299.557 374.201 301.913 374.201ZM301.913 376.012C300.788 376.029 299.962 376.785 299.962 378.016C299.962 379.264 300.788 380.002 301.913 379.984C303.038 380.002 303.846 379.264 303.846 378.016C303.846 376.785 303.038 376.029 301.913 376.012ZM325.432 369.121V375.062H327.788V376.891H325.432V385.152H323.182V369.121H325.432ZM320.95 370.598V372.408H315.676V379.422C317.997 379.396 319.913 379.29 322.04 378.912L322.286 380.793C319.807 381.215 317.628 381.285 314.797 381.268H313.444V370.598H320.95Z" fill="#1E1E1E"/>
</g>
<g opacity="0.8" filter="url(#filter6_d_2917_8077)">
<rect x="205" y="442" width="168" height="98" rx="16" fill="#FEF2F2" shape-rendering="crispEdges"/>
<rect x="206.5" y="443.5" width="165" height="95" rx="14.5" stroke="#EF4444" stroke-width="3" shape-rendering="crispEdges"/>
<path d="M261.448 498.836H250.268V494.195H252.518V497.043H261.448V498.836ZM263.1 493.211H248.51V491.418H254.68V489.15H256.895V491.418H263.1V493.211ZM256.93 484.07C256.93 484.75 257.131 485.389 257.532 485.986C257.933 486.584 258.537 487.095 259.343 487.52C260.148 487.945 261.131 488.23 262.291 488.377L261.43 490.135C260.094 489.924 258.943 489.537 257.976 488.975C257.009 488.412 256.274 487.715 255.77 486.883C255.254 487.721 254.517 488.422 253.559 488.988C252.601 489.553 251.469 489.936 250.162 490.135L249.283 488.377C250.414 488.219 251.384 487.921 252.193 487.485C253.001 487.048 253.612 486.531 254.025 485.934C254.438 485.336 254.645 484.715 254.645 484.07V483.578H256.93V484.07ZM271.362 483.35C272.586 483.35 273.632 483.455 274.499 483.666C275.366 483.877 276.029 484.186 276.486 484.593C276.943 485 277.174 485.494 277.18 486.074C277.174 486.66 276.943 487.158 276.486 487.568C276.029 487.979 275.366 488.289 274.499 488.5C273.632 488.711 272.586 488.816 271.362 488.816C270.131 488.816 269.079 488.711 268.206 488.5C267.333 488.289 266.668 487.979 266.211 487.568C265.754 487.158 265.526 486.66 265.526 486.074C265.526 485.494 265.754 485 266.211 484.593C266.668 484.186 267.333 483.877 268.206 483.666C269.079 483.455 270.131 483.35 271.362 483.35ZM271.362 484.984C270.196 484.984 269.321 485.077 268.738 485.261C268.155 485.446 267.869 485.717 267.881 486.074C267.875 486.461 268.154 486.739 268.716 486.909C269.279 487.079 270.16 487.164 271.362 487.164C272.569 487.164 273.453 487.079 274.016 486.909C274.578 486.739 274.86 486.461 274.86 486.074C274.86 485.717 274.57 485.446 273.99 485.261C273.409 485.077 272.533 484.984 271.362 484.984ZM278.657 491.348H264.067V489.572H278.657V491.348ZM276.881 496.357H267.969V497.324H277.303V499.012H265.772V494.793H274.666V493.914H265.754V492.279H276.881V496.357ZM298.362 493.984H283.772V492.244H298.362V493.984ZM296.709 498.836H285.53V494.846H287.78V497.078H296.709V498.836ZM297.606 486.145H284.475V484.457H289.942V483.033H292.192V484.457H297.606V486.145ZM291.067 486.619C292.789 486.619 294.116 486.83 295.048 487.252C295.98 487.674 296.446 488.289 296.446 489.098C296.446 489.619 296.235 490.064 295.813 490.434C295.391 490.803 294.779 491.083 293.976 491.273C293.173 491.463 292.203 491.559 291.067 491.559C289.924 491.559 288.95 491.463 288.144 491.273C287.339 491.083 286.726 490.803 286.307 490.434C285.888 490.064 285.682 489.619 285.688 489.098C285.682 488.289 286.145 487.674 287.076 487.252C288.008 486.83 289.338 486.619 291.067 486.619ZM291.067 488.184C290.006 488.189 289.222 488.269 288.716 488.421C288.209 488.573 287.961 488.799 287.973 489.098C287.967 489.396 288.215 489.615 288.716 489.752C289.217 489.89 290 489.959 291.067 489.959C292.127 489.959 292.905 489.89 293.4 489.752C293.895 489.615 294.143 489.396 294.143 489.098C294.143 488.799 293.892 488.573 293.391 488.421C292.89 488.269 292.116 488.189 291.067 488.184ZM313.953 491.119H299.328V489.361H313.953V491.119ZM312.213 488.482H301.157V483.438H312.09V485.23H303.389V486.725H312.213V488.482ZM312.143 496.252H303.231V497.236H312.565V498.977H301.033V494.652H309.928V493.756H301.016V492.068H312.143V496.252ZM327.506 489.062H329.862V490.891H327.506V499.152H325.256V483.121H327.506V489.062ZM323.024 486.408H317.75V493.422C319.01 493.41 320.135 493.366 321.125 493.29C322.116 493.214 323.112 493.088 324.114 492.912L324.36 494.793C323.287 494.975 322.231 495.099 321.191 495.167C320.151 495.234 318.957 495.268 317.61 495.268H316.871H315.518V484.598H323.024V486.408Z" fill="#EF4444"/>
</g>
<g filter="url(#filter7_d_2917_8077)">
<path d="M205 572C205 563.163 212.163 556 221 556H357C365.837 556 373 563.163 373 572V638C373 646.837 365.837 654 357 654H221C212.163 654 205 646.837 205 638V572Z" fill="#FEFEFE" shape-rendering="crispEdges"/>
<path d="M278.76 603.062H281.115V604.891H278.76V613.152H276.51V597.121H278.76V603.062ZM274.277 600.408H269.004V607.422C270.264 607.41 271.389 607.366 272.379 607.29C273.369 607.214 274.365 607.088 275.367 606.912L275.613 608.793C274.541 608.975 273.485 609.099 272.445 609.167C271.405 609.234 270.211 609.268 268.863 609.268H268.125H266.772V598.598H274.277V600.408ZM296.461 600.936H294.387V602.588H296.461V604.434H294.387V606.473H292.137V597.121H294.387V599.107H296.461V600.936ZM286.195 598C287.016 597.994 287.757 598.157 288.419 598.488C289.081 598.819 289.603 599.279 289.983 599.868C290.364 600.457 290.555 601.123 290.555 601.867C290.555 602.611 290.364 603.276 289.983 603.862C289.603 604.448 289.081 604.907 288.419 605.238C287.757 605.569 287.016 605.734 286.195 605.734C285.369 605.734 284.622 605.569 283.954 605.238C283.286 604.907 282.76 604.448 282.377 603.862C281.993 603.276 281.801 602.611 281.801 601.867C281.801 601.123 281.993 600.457 282.377 599.868C282.76 599.279 283.286 598.819 283.954 598.488C284.622 598.157 285.369 597.994 286.195 598ZM286.195 599.881C285.773 599.875 285.397 599.953 285.066 600.114C284.735 600.275 284.476 600.506 284.288 600.808C284.101 601.11 284.01 601.463 284.016 601.867C284.01 602.271 284.099 602.625 284.284 602.926C284.468 603.228 284.728 603.458 285.062 603.616C285.396 603.774 285.773 603.854 286.195 603.854C286.606 603.854 286.975 603.774 287.303 603.616C287.631 603.458 287.89 603.228 288.081 602.926C288.271 602.625 288.369 602.271 288.375 601.867C288.369 601.463 288.271 601.11 288.081 600.808C287.89 600.506 287.631 600.275 287.303 600.114C286.975 599.953 286.606 599.875 286.195 599.881ZM289.148 606.789C290.238 606.789 291.19 606.917 292.005 607.171C292.819 607.426 293.446 607.792 293.886 608.27C294.325 608.748 294.545 609.314 294.545 609.971C294.545 610.621 294.325 611.182 293.886 611.654C293.446 612.125 292.819 612.487 292.005 612.739C291.19 612.991 290.238 613.117 289.148 613.117C288.035 613.117 287.065 612.991 286.239 612.739C285.413 612.487 284.777 612.125 284.332 611.654C283.887 611.182 283.664 610.621 283.664 609.971C283.664 609.314 283.887 608.748 284.332 608.27C284.777 607.792 285.413 607.426 286.239 607.171C287.065 606.917 288.035 606.789 289.148 606.789ZM289.148 608.564C288.088 608.564 287.282 608.683 286.731 608.92C286.181 609.158 285.908 609.508 285.914 609.971C285.908 610.434 286.179 610.778 286.727 611.003C287.275 611.229 288.082 611.342 289.148 611.342C291.27 611.342 292.33 610.885 292.33 609.971C292.33 609.508 292.061 609.158 291.522 608.92C290.982 608.683 290.191 608.564 289.148 608.564ZM309.943 602.043H312.106V603.871H309.943V609.074H307.693V597.139H309.943V602.043ZM306.744 600.584H297.252V598.809H300.891V597.104H303.123V598.809H306.744V600.584ZM301.998 601.146C302.766 601.146 303.447 601.275 304.042 601.533C304.636 601.791 305.101 602.154 305.435 602.623C305.769 603.092 305.936 603.631 305.936 604.24C305.936 604.85 305.77 605.384 305.439 605.844C305.108 606.304 304.644 606.662 304.046 606.917C303.448 607.171 302.766 607.299 301.998 607.299C301.225 607.299 300.538 607.171 299.937 606.917C299.336 606.662 298.868 606.304 298.531 605.844C298.194 605.384 298.025 604.85 298.025 604.24C298.025 603.631 298.194 603.092 298.531 602.623C298.868 602.154 299.336 601.791 299.937 601.533C300.538 601.275 301.225 601.146 301.998 601.146ZM301.998 602.852C301.453 602.863 301.02 602.989 300.697 603.229C300.375 603.47 300.217 603.807 300.223 604.24C300.217 604.674 300.374 605.008 300.693 605.242C301.012 605.477 301.447 605.594 301.998 605.594C302.549 605.594 302.988 605.475 303.316 605.238C303.645 605 303.809 604.668 303.809 604.24C303.809 603.807 303.645 603.47 303.316 603.229C302.988 602.989 302.549 602.863 301.998 602.852ZM310.523 612.836H299.572V608.16H301.805V611.043H310.523V612.836Z" fill="#1E1E1E"/>
</g>
<rect x="1" width="393" height="119" fill="white"/>
<rect width="393" height="66.3895" transform="translate(1)" fill="white"/>
<path d="M39.9526 38V28.1304H39.8032L36.8232 30.2305V28.2217L39.9526 26.022H42.0859V38H39.9526ZM49.8887 38.2407C48.9701 38.2407 48.1593 38.0941 47.4565 37.8008C46.7537 37.502 46.2031 37.0924 45.8047 36.5723C45.4118 36.0465 45.2153 35.4434 45.2153 34.7627V34.7461C45.2153 34.2314 45.3288 33.7666 45.5557 33.3516C45.7881 32.931 46.109 32.5768 46.5186 32.2891C46.9281 32.0013 47.3984 31.8049 47.9297 31.6997V31.6499C47.2435 31.4673 46.6901 31.1408 46.2695 30.6704C45.8545 30.1945 45.647 29.6356 45.647 28.9937V28.9771C45.647 28.3628 45.8268 27.8149 46.1865 27.3335C46.5518 26.8521 47.0526 26.473 47.689 26.1963C48.3309 25.9196 49.0641 25.7812 49.8887 25.7812C50.7132 25.7812 51.4437 25.9196 52.0801 26.1963C52.722 26.473 53.2228 26.8521 53.5825 27.3335C53.9422 27.8149 54.1221 28.3628 54.1221 28.9771V28.9937C54.1221 29.6356 53.9146 30.1945 53.4995 30.6704C53.0845 31.1408 52.5339 31.4673 51.8477 31.6499V31.6997C52.3789 31.8049 52.8493 32.0013 53.2588 32.2891C53.6683 32.5768 53.9865 32.931 54.2134 33.3516C54.4458 33.7666 54.562 34.2314 54.562 34.7461V34.7627C54.562 35.4434 54.3628 36.0465 53.9644 36.5723C53.5715 37.0924 53.0236 37.502 52.3208 37.8008C51.618 38.0941 50.8073 38.2407 49.8887 38.2407ZM49.8887 36.6055C50.3701 36.6055 50.7935 36.5225 51.1587 36.3564C51.5295 36.1849 51.82 35.9497 52.0303 35.6509C52.2406 35.3465 52.3457 35.0034 52.3457 34.6216V34.605C52.3457 34.2176 52.2406 33.8745 52.0303 33.5757C51.8255 33.2713 51.5378 33.0334 51.167 32.8618C50.7962 32.6903 50.3701 32.6045 49.8887 32.6045C49.4017 32.6045 48.9728 32.6903 48.6021 32.8618C48.2368 33.0334 47.9491 33.2713 47.7388 33.5757C47.5285 33.8745 47.4233 34.2176 47.4233 34.605V34.6216C47.4233 35.0034 47.5285 35.3465 47.7388 35.6509C47.9546 35.9497 48.2451 36.1849 48.6104 36.3564C48.9811 36.5225 49.4072 36.6055 49.8887 36.6055ZM49.8887 30.9692C50.3092 30.9692 50.6772 30.8945 50.9927 30.7451C51.3136 30.5902 51.5627 30.3799 51.7397 30.1143C51.9224 29.8486 52.0137 29.5387 52.0137 29.1846V29.168C52.0137 28.8193 51.9224 28.5122 51.7397 28.2466C51.5627 27.981 51.3136 27.7734 50.9927 27.624C50.6717 27.4746 50.3037 27.3999 49.8887 27.3999C49.4681 27.3999 49.0973 27.4746 48.7764 27.624C48.4609 27.7734 48.2119 27.981 48.0293 28.2466C47.8522 28.5122 47.7637 28.8193 47.7637 29.168V29.1846C47.7637 29.5387 47.8522 29.8486 48.0293 30.1143C48.2119 30.3799 48.4609 30.5902 48.7764 30.7451C49.0973 30.8945 49.4681 30.9692 49.8887 30.9692ZM58.4136 36.3896C58.0373 36.3896 57.7218 36.2651 57.4673 36.0161C57.2183 35.7616 57.0938 35.4517 57.0938 35.0864C57.0938 34.7157 57.2183 34.4058 57.4673 34.1567C57.7218 33.9022 58.0373 33.7749 58.4136 33.7749C58.7954 33.7749 59.1108 33.9022 59.3599 34.1567C59.6089 34.4058 59.7334 34.7157 59.7334 35.0864C59.7334 35.4517 59.6089 35.7616 59.3599 36.0161C59.1108 36.2651 58.7954 36.3896 58.4136 36.3896ZM58.4136 30.2305C58.0373 30.2305 57.7218 30.106 57.4673 29.8569C57.2183 29.6024 57.0938 29.2925 57.0938 28.9272C57.0938 28.5565 57.2183 28.2466 57.4673 27.9976C57.7218 27.743 58.0373 27.6157 58.4136 27.6157C58.7954 27.6157 59.1108 27.743 59.3599 27.9976C59.6089 28.2466 59.7334 28.5565 59.7334 28.9272C59.7334 29.2925 59.6089 29.6024 59.3599 29.8569C59.1108 30.106 58.7954 30.2305 58.4136 30.2305ZM66.7725 38.2988C65.8206 38.2988 65.0044 38.0443 64.3237 37.5352C63.6486 37.026 63.1284 36.3011 62.7632 35.3604C62.3979 34.4196 62.2153 33.3045 62.2153 32.0151V31.9985C62.2153 30.7091 62.3979 29.5968 62.7632 28.6616C63.1284 27.7209 63.6486 26.9959 64.3237 26.4868C65.0044 25.9777 65.8206 25.7231 66.7725 25.7231C67.7243 25.7231 68.5405 25.9777 69.2212 26.4868C69.9019 26.9959 70.4248 27.7209 70.79 28.6616C71.1553 29.5968 71.3379 30.7091 71.3379 31.9985V32.0151C71.3379 33.3045 71.1553 34.4196 70.79 35.3604C70.4248 36.3011 69.9019 37.026 69.2212 37.5352C68.5405 38.0443 67.7243 38.2988 66.7725 38.2988ZM66.7725 36.564C67.2816 36.564 67.716 36.3813 68.0757 36.0161C68.4354 35.6509 68.7093 35.1307 68.8975 34.4556C69.0911 33.7749 69.188 32.9614 69.188 32.0151V31.9985C69.188 31.0522 69.0911 30.2415 68.8975 29.5664C68.7093 28.8857 68.4354 28.3656 68.0757 28.0059C67.716 27.6406 67.2816 27.458 66.7725 27.458C66.2633 27.458 65.8289 27.6406 65.4692 28.0059C65.1151 28.3656 64.8411 28.8857 64.6475 29.5664C64.4593 30.2415 64.3652 31.0522 64.3652 31.9985V32.0151C64.3652 32.9614 64.4593 33.7749 64.6475 34.4556C64.8411 35.1307 65.1151 35.6509 65.4692 36.0161C65.8289 36.3813 66.2633 36.564 66.7725 36.564ZM78.0781 38.2988C77.1263 38.2988 76.3101 38.0443 75.6294 37.5352C74.9543 37.026 74.4341 36.3011 74.0688 35.3604C73.7036 34.4196 73.521 33.3045 73.521 32.0151V31.9985C73.521 30.7091 73.7036 29.5968 74.0688 28.6616C74.4341 27.7209 74.9543 26.9959 75.6294 26.4868C76.3101 25.9777 77.1263 25.7231 78.0781 25.7231C79.0299 25.7231 79.8462 25.9777 80.5269 26.4868C81.2075 26.9959 81.7305 27.7209 82.0957 28.6616C82.4609 29.5968 82.6436 30.7091 82.6436 31.9985V32.0151C82.6436 33.3045 82.4609 34.4196 82.0957 35.3604C81.7305 36.3011 81.2075 37.026 80.5269 37.5352C79.8462 38.0443 79.0299 38.2988 78.0781 38.2988ZM78.0781 36.564C78.5872 36.564 79.0216 36.3813 79.3813 36.0161C79.741 35.6509 80.015 35.1307 80.2031 34.4556C80.3968 33.7749 80.4937 32.9614 80.4937 32.0151V31.9985C80.4937 31.0522 80.3968 30.2415 80.2031 29.5664C80.015 28.8857 79.741 28.3656 79.3813 28.0059C79.0216 27.6406 78.5872 27.458 78.0781 27.458C77.569 27.458 77.1346 27.6406 76.7749 28.0059C76.4207 28.3656 76.1468 28.8857 75.9531 29.5664C75.765 30.2415 75.6709 31.0522 75.6709 31.9985V32.0151C75.6709 32.9614 75.765 33.7749 75.9531 34.4556C76.1468 35.1307 76.4207 35.6509 76.7749 36.0161C77.1346 36.3813 77.569 36.564 78.0781 36.564Z" fill="black"/>
<path fill-rule="evenodd" clip-rule="evenodd" d="M315.614 27.0329C315.614 26.3999 315.136 25.8867 314.547 25.8867H313.481C312.892 25.8867 312.414 26.3999 312.414 27.0329V36.9669C312.414 37.5999 312.892 38.1131 313.481 38.1131H314.547C315.136 38.1131 315.614 37.5999 315.614 36.9669V27.0329ZM308.18 28.332H309.247C309.836 28.332 310.313 28.8575 310.313 29.5057V36.9394C310.313 37.5876 309.836 38.1131 309.247 38.1131H308.18C307.591 38.1131 307.113 37.5876 307.113 36.9394V29.5057C307.113 28.8575 307.591 28.332 308.18 28.332ZM303.848 30.981H302.782C302.192 30.981 301.715 31.5132 301.715 32.1697V36.9244C301.715 37.5809 302.192 38.1131 302.782 38.1131H303.848C304.437 38.1131 304.915 37.5809 304.915 36.9244V32.1697C304.915 31.5132 304.437 30.981 303.848 30.981ZM298.547 33.4263H297.481C296.892 33.4263 296.414 33.9509 296.414 34.598V36.9414C296.414 37.5885 296.892 38.1131 297.481 38.1131H298.547C299.136 38.1131 299.614 37.5885 299.614 36.9414V34.598C299.614 33.9509 299.136 33.4263 298.547 33.4263Z" fill="black"/>
<path fill-rule="evenodd" clip-rule="evenodd" d="M331.185 28.3022C333.672 28.3023 336.064 29.2244 337.866 30.8779C338.002 31.0055 338.219 31.0039 338.353 30.8743L339.65 29.6108C339.718 29.545 339.756 29.456 339.755 29.3633C339.754 29.2706 339.716 29.182 339.647 29.117C334.916 24.7423 327.452 24.7423 322.721 29.117C322.653 29.1819 322.614 29.2705 322.613 29.3632C322.613 29.4559 322.65 29.545 322.718 29.6108L324.016 30.8743C324.149 31.0041 324.367 31.0057 324.502 30.8779C326.305 29.2243 328.697 28.3022 331.185 28.3022ZM331.181 32.5225C332.539 32.5224 333.847 33.0342 334.854 33.9583C334.99 34.0894 335.204 34.0866 335.337 33.9519L336.624 32.6326C336.692 32.5634 336.729 32.4695 336.728 32.3719C336.727 32.2744 336.688 32.1813 336.619 32.1135C333.555 29.2227 328.81 29.2227 325.746 32.1135C325.677 32.1813 325.638 32.2744 325.637 32.372C325.636 32.4696 325.674 32.5635 325.741 32.6326L327.028 33.9519C327.161 34.0866 327.375 34.0894 327.512 33.9583C328.517 33.0348 329.825 32.5231 331.181 32.5225ZM333.706 35.316C333.708 35.4214 333.671 35.523 333.603 35.5968L331.427 38.0515C331.363 38.1236 331.276 38.1642 331.185 38.1642C331.094 38.1642 331.007 38.1236 330.943 38.0515L328.766 35.5968C328.699 35.5229 328.662 35.4213 328.664 35.316C328.666 35.2106 328.707 35.1108 328.777 35.0402C330.167 33.7263 332.203 33.7263 333.593 35.0402C333.663 35.1109 333.704 35.2107 333.706 35.316Z" fill="black"/>
<rect opacity="0.35" x="347.258" y="26" width="24" height="12" rx="3.8" stroke="black"/>
<path opacity="0.4" d="M372.758 30.2812V34.3567C373.563 34.0116 374.086 33.2086 374.086 32.319C374.086 31.4294 373.563 30.6264 372.758 30.2812Z" fill="black"/>
<rect x="348.758" y="27.5" width="21" height="9" rx="2.5" fill="black"/>
<path d="M77.6777 83.7812C80.2002 83.7725 82.0371 85.3633 82.0547 87.6133C82.0371 89.8721 80.2002 91.4541 77.6777 91.4629C75.1816 91.4541 73.3096 89.8721 73.3184 87.6133C73.3096 85.3633 75.1816 83.7725 77.6777 83.7812ZM72.5977 93.6602C75.4629 93.6602 79.4268 93.625 82.8633 93.1328L83.0215 94.5566C79.4619 95.2334 75.6475 95.2598 72.8438 95.2598L72.5977 93.6602ZM75.252 87.6133C75.2432 88.9404 76.2891 89.7578 77.6777 89.7578C79.084 89.7578 80.1299 88.9404 80.1387 87.6133C80.1299 86.2949 79.0928 85.4688 77.6777 85.4688C76.2891 85.4688 75.2432 86.2949 75.252 87.6133ZM83.8125 98.582V82.6738H85.7637V98.582H83.8125ZM96.4863 84.168V94.6973H88.9277V84.168H96.4863ZM90.8613 93.1328H94.5879V85.6973H90.8613V93.1328ZM99.334 98.582V82.6738H101.303V98.582H99.334ZM116.086 82.6738V88.8789H118.441V90.5137H116.086V98.5293H114.135V82.6738H116.086ZM103.553 94.1875C107.42 92.2539 109.512 89.5645 109.898 85.9434H104.414V84.3262H111.885C111.876 88.9932 109.942 93.0977 104.66 95.6992L103.553 94.1875ZM127.969 83.1836C130.377 83.1924 132.17 84.6777 132.188 86.7695C132.17 88.8701 130.377 90.3467 127.969 90.3555C125.543 90.3467 123.75 88.8701 123.75 86.7695C123.75 84.6777 125.543 83.1924 127.969 83.1836ZM125.648 86.7695C125.648 88 126.633 88.7734 127.969 88.7734C129.305 88.7734 130.28 88 130.289 86.7695C130.28 85.5654 129.305 84.792 127.969 84.8008C126.633 84.792 125.648 85.5654 125.648 86.7695ZM126.158 92.9219V91.3926H136.705V95.541H128.109V96.8242H137.18V98.3711H126.193V94.0996H134.754V92.9219H126.158ZM134.736 90.707V82.6738H136.705V90.707H134.736ZM152.227 82.6738V98.5645H150.275V82.6738H152.227ZM139.184 94.0469C141.715 92.9307 143.174 90.2588 143.174 87.7188V86.8926H139.676V85.3281H143.174V83.0078H145.107V85.3281H148.535V86.8926H145.125V87.7188C145.116 90.1357 146.602 92.7285 149.168 93.8008L148.096 95.2949C146.276 94.5215 144.905 92.9395 144.176 91.0234C143.464 93.0537 142.093 94.75 140.238 95.5586L139.184 94.0469ZM167.027 82.6738V89.002H169.471V90.6191H167.027V98.5645H165.094V82.6738H167.027ZM154.494 86.6816V85.1172H158.256V82.9023H160.207V85.1172H163.863V86.6816H154.494ZM155.232 91.4629C155.215 89.2656 156.92 87.71 159.24 87.7188C161.525 87.71 163.222 89.2656 163.23 91.4629C163.222 93.6514 161.525 95.1895 159.24 95.1895C156.92 95.1895 155.215 93.6514 155.232 91.4629ZM157.096 91.4629C157.087 92.7549 157.992 93.5811 159.24 93.5723C160.462 93.5811 161.35 92.7549 161.367 91.4629C161.35 90.1709 160.462 89.3184 159.24 89.3184C157.992 89.3184 157.087 90.1709 157.096 91.4629ZM183.006 87.1738V88.7207H172.002V83.2539H173.936V87.1738H183.006ZM170.121 92.1133V90.5664H184.641V92.1133H170.121ZM171.861 98.1953V93.5195H173.812V96.6133H183.111V98.1953H171.861ZM202.5 82.6738V87.1387H204.732V88.7559H202.5V94.1699H200.549V82.6738H202.5ZM190.635 91.4805V83.9922H197.754V85.5566H192.568V89.8809C195.557 89.8809 197.218 89.7842 199.107 89.3887L199.318 90.9707C197.235 91.3838 195.39 91.4805 191.918 91.4805H190.635ZM192.322 98.248V92.957H194.273V96.666H203.133V98.248H192.322ZM209.865 83.834C212.01 83.834 213.601 85.627 213.882 88.5273H216.914V82.6738H218.848V98.582H216.914V90.1094H213.899C213.688 93.1768 212.071 95.0664 209.865 95.0664C207.475 95.0664 205.778 92.8955 205.787 89.4414C205.778 86.0137 207.475 83.834 209.865 83.834ZM207.668 89.4414C207.659 91.8848 208.556 93.2998 209.865 93.3086C211.184 93.2998 212.071 91.8848 212.08 89.4414C212.071 87.0156 211.184 85.5918 209.865 85.5918C208.556 85.5918 207.659 87.0156 207.668 89.4414ZM234.316 82.6738V98.5645H232.348V82.6738H234.316ZM221.01 93.8887C223.172 91.5684 224.016 89.0986 224.191 85.9434H221.713V84.3438H226.055C226.046 88.4395 225.334 91.9902 222.521 95.0137L221.01 93.8887ZM225.615 95.0137C227.786 92.3242 228.498 89.3799 228.647 85.9434H226.617V84.3438H230.502C230.502 88.5625 229.975 92.6582 227.25 96.0332L225.615 95.0137ZM249.873 82.6738V98.582H247.939V82.6738H249.873ZM237.498 85.6445V84.0625H244.986V90.0215H239.52V93.2207C242.024 93.2031 244.178 93.0713 246.656 92.6582L246.832 94.2578C244.134 94.7236 241.761 94.8291 238.904 94.8203H237.516V88.4746H243V85.6445H237.498ZM260.455 85.6445C260.455 86.8574 260.701 88.4307 261.677 89.6084C262.626 88.4658 262.872 86.9102 262.881 85.6445V85.3633H261.967V83.7812H266.467V85.3633H264.727V85.6445C264.727 87.3584 265.342 89.3359 267.17 90.2852L266.115 91.6738C264.955 91.0498 264.234 90.0215 263.812 88.8262C263.452 90.0479 262.793 91.1553 261.65 91.832C260.543 91.1553 259.893 90.0566 259.532 88.8701C259.11 90.0479 258.39 91.0674 257.238 91.6738L256.184 90.2852C257.985 89.3096 258.636 87.3408 258.627 85.6445V85.3633H256.799V83.7812H261.387V85.3633H260.455V85.6445ZM258.434 94.416V92.8516H269.42V98.5645H267.469V94.416H258.434ZM267.469 92.1836V82.6738H269.42V86.5938H271.178V88.2285H269.42V92.1836H267.469ZM284.361 83.7285V90.6367H276.838V83.7285H284.361ZM277.77 97C280.582 96.6221 282.34 95.3828 282.656 93.9941H278.42V92.4473H289.055V93.9941H284.836C285.152 95.3477 286.945 96.6309 289.723 97.0176L289.02 98.5117C286.532 98.1602 284.651 97.0967 283.737 95.6641C282.823 97.0967 280.96 98.1426 278.49 98.4766L277.77 97ZM278.754 89.0723H282.445V85.293H278.754V89.0723ZM286.875 91.6387V82.6738H288.826V86.2422H291.041V87.8594H288.826V91.6387H286.875ZM306.334 92.2188V93.8184H300.041V98.582H298.107V93.8184H291.85V92.2188H306.334ZM292.641 89.7051C295.813 89.3184 297.896 87.6924 298.09 86.1016H293.186V84.5547H298.107V82.6914H300.041V84.5547H304.98V86.1016H300.076C300.261 87.6748 302.335 89.3184 305.508 89.7051L304.787 91.252C302.159 90.918 300.12 89.7666 299.092 88.2373C298.055 89.7842 295.989 90.918 293.344 91.252L292.641 89.7051ZM320.678 82.6738V98.5645H318.709V82.6738H320.678ZM307.512 94.1875C311.678 92.21 313.594 89.5205 313.945 85.9082H308.32V84.3613H315.932C315.932 89.0898 314.095 93.1064 308.531 95.752L307.512 94.1875Z" fill="#1E1E1E"/>
<path d="M46.5 81.5L38 90L46.5 98.5" stroke="#A0AEB9" stroke-width="2"/>
<g filter="url(#filter8_i_2917_8077)">
<rect x="33" y="141" width="326" height="18" rx="9" fill="#E3E7EA"/>
</g>
<rect x="29" y="137" width="334" height="26" rx="13" stroke="#F0F5FA" stroke-width="8"/>
<g filter="url(#filter9_i_2917_8077)">
<rect x="33" y="141" width="23" height="18" rx="9" fill="#3C86FF"/>
</g>
<path d="M185.101 155.127C183.133 155.127 181.736 154.061 181.698 152.512H183.361C183.412 153.248 184.148 153.73 185.101 153.73C186.116 153.73 186.84 153.172 186.84 152.359C186.84 151.534 186.129 150.938 184.936 150.938H184.11V149.668H184.936C185.913 149.668 186.599 149.122 186.586 148.322C186.599 147.548 186.015 147.027 185.113 147.027C184.25 147.027 183.501 147.51 183.476 148.284H181.889C181.927 146.735 183.323 145.682 185.126 145.682C186.992 145.682 188.198 146.824 188.186 148.233C188.198 149.262 187.513 150.011 186.51 150.214V150.29C187.805 150.468 188.541 151.293 188.528 152.448C188.541 153.997 187.094 155.127 185.101 155.127ZM192.235 150.29C190.928 150.29 190.217 149.325 190.217 147.916C190.217 146.52 190.953 145.555 192.235 145.555C193.568 145.555 194.267 146.52 194.267 147.916C194.267 149.338 193.543 150.29 192.235 150.29ZM192.235 149.274C192.807 149.274 193.086 148.741 193.086 147.916C193.086 147.116 192.832 146.558 192.235 146.57C191.677 146.57 191.385 147.116 191.385 147.916C191.385 148.741 191.677 149.274 192.235 149.274ZM198.24 155.241C196.933 155.254 196.222 154.276 196.222 152.88C196.222 151.471 196.958 150.506 198.24 150.506C199.561 150.506 200.271 151.471 200.271 152.88C200.271 154.289 199.548 155.254 198.24 155.241ZM198.24 154.226C198.824 154.226 199.091 153.692 199.091 152.88C199.091 152.067 198.837 151.509 198.24 151.521C197.682 151.521 197.39 152.08 197.39 152.88C197.39 153.692 197.682 154.226 198.24 154.226ZM191.397 155L197.72 145.809H199.002L192.68 155H191.397Z" fill="#9E9FA7"/>
</g>
<defs>
<filter id="filter0_d_2917_8077" x="9" y="202" width="192" height="122" filterUnits="userSpaceOnUse" color-interpolation-filters="sRGB">
<feFlood flood-opacity="0" result="BackgroundImageFix"/>
<feColorMatrix in="SourceAlpha" type="matrix" values="0 0 0 0 0 0 0 0 0 0 0 0 0 0 0 0 0 0 127 0" result="hardAlpha"/>
<feOffset/>
<feGaussianBlur stdDeviation="6"/>
<feComposite in2="hardAlpha" operator="out"/>
<feColorMatrix type="matrix" values="0 0 0 0 0.813976 0 0 0 0 0.865692 0 0 0 0 0.917408 0 0 0 1 0"/>
<feBlend mode="normal" in2="BackgroundImageFix" result="effect1_dropShadow_2917_8077"/>
<feBlend mode="normal" in="SourceGraphic" in2="effect1_dropShadow_2917_8077" result="shape"/>
</filter>
<filter id="filter1_d_2917_8077" x="9" y="316" width="192" height="122" filterUnits="userSpaceOnUse" color-interpolation-filters="sRGB">
<feFlood flood-opacity="0" result="BackgroundImageFix"/>
<feColorMatrix in="SourceAlpha" type="matrix" values="0 0 0 0 0 0 0 0 0 0 0 0 0 0 0 0 0 0 127 0" result="hardAlpha"/>
<feOffset/>
<feGaussianBlur stdDeviation="6"/>
<feComposite in2="hardAlpha" operator="out"/>
<feColorMatrix type="matrix" values="0 0 0 0 0.813976 0 0 0 0 0.865692 0 0 0 0 0.917408 0 0 0 1 0"/>
<feBlend mode="normal" in2="BackgroundImageFix" result="effect1_dropShadow_2917_8077"/>
<feBlend mode="normal" in="SourceGraphic" in2="effect1_dropShadow_2917_8077" result="shape"/>
</filter>
<filter id="filter2_d_2917_8077" x="19" y="441" width="172" height="102" filterUnits="userSpaceOnUse" color-interpolation-filters="sRGB">
<feFlood flood-opacity="0" result="BackgroundImageFix"/>
<feColorMatrix in="SourceAlpha" type="matrix" values="0 0 0 0 0 0 0 0 0 0 0 0 0 0 0 0 0 0 127 0" result="hardAlpha"/>
<feOffset dy="1"/>
<feGaussianBlur stdDeviation="1"/>
<feComposite in2="hardAlpha" operator="out"/>
<feColorMatrix type="matrix" values="0 0 0 0 0 0 0 0 0 0 0 0 0 0 0 0 0 0 0.05 0"/>
<feBlend mode="normal" in2="BackgroundImageFix" result="effect1_dropShadow_2917_8077"/>
<feBlend mode="normal" in="SourceGraphic" in2="effect1_dropShadow_2917_8077" result="shape"/>
</filter>
<filter id="filter3_d_2917_8077" x="9" y="544" width="192" height="122" filterUnits="userSpaceOnUse" color-interpolation-filters="sRGB">
<feFlood flood-opacity="0" result="BackgroundImageFix"/>
<feColorMatrix in="SourceAlpha" type="matrix" values="0 0 0 0 0 0 0 0 0 0 0 0 0 0 0 0 0 0 127 0" result="hardAlpha"/>
<feOffset/>
<feGaussianBlur stdDeviation="6"/>
<feComposite in2="hardAlpha" operator="out"/>
<feColorMatrix type="matrix" values="0 0 0 0 0.813976 0 0 0 0 0.865692 0 0 0 0 0.917408 0 0 0 1 0"/>
<feBlend mode="normal" in2="BackgroundImageFix" result="effect1_dropShadow_2917_8077"/>
<feBlend mode="normal" in="SourceGraphic" in2="effect1_dropShadow_2917_8077" result="shape"/>
</filter>
<filter id="filter4_d_2917_8077" x="193" y="202" width="192" height="122" filterUnits="userSpaceOnUse" color-interpolation-filters="sRGB">
<feFlood flood-opacity="0" result="BackgroundImageFix"/>
<feColorMatrix in="SourceAlpha" type="matrix" values="0 0 0 0 0 0 0 0 0 0 0 0 0 0 0 0 0 0 127 0" result="hardAlpha"/>
<feOffset/>
<feGaussianBlur stdDeviation="6"/>
<feComposite in2="hardAlpha" operator="out"/>
<feColorMatrix type="matrix" values="0 0 0 0 0.813976 0 0 0 0 0.865692 0 0 0 0 0.917408 0 0 0 1 0"/>
<feBlend mode="normal" in2="BackgroundImageFix" result="effect1_dropShadow_2917_8077"/>
<feBlend mode="normal" in="SourceGraphic" in2="effect1_dropShadow_2917_8077" result="shape"/>
</filter>
<filter id="filter5_d_2917_8077" x="193" y="316" width="192" height="122" filterUnits="userSpaceOnUse" color-interpolation-filters="sRGB">
<feFlood flood-opacity="0" result="BackgroundImageFix"/>
<feColorMatrix in="SourceAlpha" type="matrix" values="0 0 0 0 0 0 0 0 0 0 0 0 0 0 0 0 0 0 127 0" result="hardAlpha"/>
<feOffset/>
<feGaussianBlur stdDeviation="6"/>
<feComposite in2="hardAlpha" operator="out"/>
<feColorMatrix type="matrix" values="0 0 0 0 0.813976 0 0 0 0 0.865692 0 0 0 0 0.917408 0 0 0 1 0"/>
<feBlend mode="normal" in2="BackgroundImageFix" result="effect1_dropShadow_2917_8077"/>
<feBlend mode="normal" in="SourceGraphic" in2="effect1_dropShadow_2917_8077" result="shape"/>
</filter>
<filter id="filter6_d_2917_8077" x="203" y="441" width="172" height="102" filterUnits="userSpaceOnUse" color-interpolation-filters="sRGB">
<feFlood flood-opacity="0" result="BackgroundImageFix"/>
<feColorMatrix in="SourceAlpha" type="matrix" values="0 0 0 0 0 0 0 0 0 0 0 0 0 0 0 0 0 0 127 0" result="hardAlpha"/>
<feOffset dy="1"/>
<feGaussianBlur stdDeviation="1"/>
<feComposite in2="hardAlpha" operator="out"/>
<feColorMatrix type="matrix" values="0 0 0 0 0 0 0 0 0 0 0 0 0 0 0 0 0 0 0.05 0"/>
<feBlend mode="normal" in2="BackgroundImageFix" result="effect1_dropShadow_2917_8077"/>
<feBlend mode="normal" in="SourceGraphic" in2="effect1_dropShadow_2917_8077" result="shape"/>
</filter>
<filter id="filter7_d_2917_8077" x="193" y="544" width="192" height="122" filterUnits="userSpaceOnUse" color-interpolation-filters="sRGB">
<feFlood flood-opacity="0" result="BackgroundImageFix"/>
<feColorMatrix in="SourceAlpha" type="matrix" values="0 0 0 0 0 0 0 0 0 0 0 0 0 0 0 0 0 0 127 0" result="hardAlpha"/>
<feOffset/>
<feGaussianBlur stdDeviation="6"/>
<feComposite in2="hardAlpha" operator="out"/>
<feColorMatrix type="matrix" values="0 0 0 0 0.813976 0 0 0 0 0.865692 0 0 0 0 0.917408 0 0 0 1 0"/>
<feBlend mode="normal" in2="BackgroundImageFix" result="effect1_dropShadow_2917_8077"/>
<feBlend mode="normal" in="SourceGraphic" in2="effect1_dropShadow_2917_8077" result="shape"/>
</filter>
<filter id="filter8_i_2917_8077" x="25" y="133" width="342" height="38" filterUnits="userSpaceOnUse" color-interpolation-filters="sRGB">
<feFlood flood-opacity="0" result="BackgroundImageFix"/>
<feBlend mode="normal" in="SourceGraphic" in2="BackgroundImageFix" result="shape"/>
<feColorMatrix in="SourceAlpha" type="matrix" values="0 0 0 0 0 0 0 0 0 0 0 0 0 0 0 0 0 0 127 0" result="hardAlpha"/>
<feOffset dy="4"/>
<feGaussianBlur stdDeviation="2"/>
<feComposite in2="hardAlpha" operator="arithmetic" k2="-1" k3="1"/>
<feColorMatrix type="matrix" values="0 0 0 0 0.651984 0 0 0 0 0.660851 0 0 0 0 0.705182 0 0 0 0.25 0"/>
<feBlend mode="normal" in2="shape" result="effect1_innerShadow_2917_8077"/>
</filter>
<filter id="filter9_i_2917_8077" x="33" y="141" width="23" height="22" filterUnits="userSpaceOnUse" color-interpolation-filters="sRGB">
<feFlood flood-opacity="0" result="BackgroundImageFix"/>
<feBlend mode="normal" in="SourceGraphic" in2="BackgroundImageFix" result="shape"/>
<feColorMatrix in="SourceAlpha" type="matrix" values="0 0 0 0 0 0 0 0 0 0 0 0 0 0 0 0 0 0 127 0" result="hardAlpha"/>
<feOffset dy="4"/>
<feGaussianBlur stdDeviation="2"/>
<feComposite in2="hardAlpha" operator="arithmetic" k2="-1" k3="1"/>
<feColorMatrix type="matrix" values="0 0 0 0 1 0 0 0 0 1 0 0 0 0 1 0 0 0 0.25 0"/>
<feBlend mode="normal" in2="shape" result="effect1_innerShadow_2917_8077"/>
</filter>
<clipPath id="clip0_2917_8077">
<rect width="393" height="852" fill="white"/>
</clipPath>
</defs>
</svg>
