<svg width="166" height="92" viewBox="0 0 166 92" fill="none" xmlns="http://www.w3.org/2000/svg">
<rect x="1" y="1" width="164" height="90" rx="9" fill="#F0FDF4"/>
<rect x="1" y="1" width="164" height="90" rx="9" stroke="#22C55E" stroke-width="2"/>
<path d="M52.7598 45.8008C52.6074 44.8359 51.7441 44.2012 50.5 44.2012C49.2812 44.2012 48.3418 44.7852 48.3672 45.623C48.3418 46.2324 48.8496 46.7148 50.1445 46.9941L52.6074 47.502C55.2734 48.0605 56.5684 49.2539 56.5938 51.2344C56.5684 53.9512 54.1309 55.7793 50.4746 55.7793C46.7422 55.7793 44.5586 54.1035 44.2539 51.4121H48.0371C48.2148 52.5039 49.1035 53.0625 50.4746 53.0625C51.8457 53.0625 52.7598 52.5039 52.7598 51.6152C52.7598 50.9043 52.1758 50.4727 50.8809 50.1934L48.5957 49.7363C45.9805 49.2285 44.6094 47.8574 44.6348 45.8262C44.6094 43.1855 46.8945 41.5352 50.4492 41.5352C53.9277 41.5352 56.0859 43.1855 56.2891 45.8008H52.7598ZM58.9043 55.5V41.7129H62.4844V44.125H62.6367C63.2207 42.5254 64.6172 41.5352 66.4707 41.5352C68.375 41.5352 69.7715 42.5254 70.2285 44.125H70.3555C70.9395 42.5508 72.4883 41.5352 74.5195 41.5352C77.084 41.5352 78.8613 43.2363 78.8613 46.2324V55.5H75.1035V46.9688C75.1035 45.3945 74.1895 44.6328 72.9453 44.6328C71.5234 44.6328 70.7109 45.623 70.7109 47.0703V55.5H67.0547V46.8672C67.0547 45.4961 66.1914 44.6328 64.9219 44.6328C63.6523 44.6328 62.6621 45.6484 62.6621 47.2227V55.5H58.9043ZM81.7559 55.5V41.7129H85.5137V55.5H81.7559ZM83.6348 39.9102C82.4922 39.9102 81.5781 39.0469 81.5781 38.0059C81.5781 36.9395 82.4922 36.0762 83.6348 36.0762C84.752 36.0762 85.666 36.9395 85.666 38.0059C85.666 39.0469 84.752 39.9102 83.6348 39.9102ZM92.1914 37.1172V55.5H88.4336V37.1172H92.1914ZM101.357 55.7793C97.1426 55.7793 94.5527 53.0371 94.5527 48.6699C94.5527 44.4043 97.168 41.5352 101.205 41.5352C104.836 41.5352 107.68 43.8203 107.68 48.5176V49.584H98.2598C98.2598 51.666 99.5039 52.9609 101.434 52.9609C102.703 52.9609 103.617 52.4023 103.998 51.5645H107.578C107.045 54.1035 104.76 55.7793 101.357 55.7793ZM98.2598 47.2227H104.125C104.125 45.5469 102.957 44.3535 101.281 44.3535C99.5547 44.3535 98.3232 45.6357 98.2598 47.2227ZM117.912 45.8008C117.76 44.8359 116.896 44.2012 115.652 44.2012C114.434 44.2012 113.494 44.7852 113.52 45.623C113.494 46.2324 114.002 46.7148 115.297 46.9941L117.76 47.502C120.426 48.0605 121.721 49.2539 121.746 51.2344C121.721 53.9512 119.283 55.7793 115.627 55.7793C111.895 55.7793 109.711 54.1035 109.406 51.4121H113.189C113.367 52.5039 114.256 53.0625 115.627 53.0625C116.998 53.0625 117.912 52.5039 117.912 51.6152C117.912 50.9043 117.328 50.4727 116.033 50.1934L113.748 49.7363C111.133 49.2285 109.762 47.8574 109.787 45.8262C109.762 43.1855 112.047 41.5352 115.602 41.5352C119.08 41.5352 121.238 43.1855 121.441 45.8008H117.912Z" fill="#22C55E"/>
</svg>
