<svg width="393" height="852" viewBox="0 0 393 852" fill="none" xmlns="http://www.w3.org/2000/svg">
<rect width="393" height="852" fill="white"/>
<path d="M42.8838 316.062V319.782H44.7441V321.13H42.8838V325.642H41.2578V316.062H42.8838ZM38.9287 317.16V318.464H34.6074V322.067C37.0977 322.075 38.4819 321.987 40.0566 321.657L40.2324 322.976C38.5039 323.312 36.9512 323.4 34.0654 323.4H32.9961V317.16H38.9287ZM43.4111 327.722V329.04H34.4023V324.631H36.0283V327.722H43.4111ZM49.0215 317.028C50.8159 317.028 52.1416 318.522 52.376 320.939H54.8955V316.062H56.5068V329.318H54.8955V322.258H52.3906C52.2148 324.814 50.8672 326.389 49.0215 326.389C47.0293 326.389 45.623 324.587 45.623 321.701C45.623 318.845 47.0293 317.028 49.0215 317.028ZM49.0215 318.493C47.9229 318.493 47.1758 319.68 47.1904 321.701C47.1758 323.737 47.9229 324.924 49.0215 324.924C50.1201 324.924 50.8525 323.737 50.8672 321.701C50.8525 319.68 50.1201 318.493 49.0215 318.493ZM70.4521 322.067V323.298H58.3525V322.067H70.4521ZM68.9873 324.089V327.106H61.3994V328.029H69.3828V329.157H59.7734V326.052H67.376V325.231H59.7588V324.089H68.9873ZM68.958 316.354V319.343H61.502V320.207H69.1924V321.32H59.8906V318.288H67.332V317.482H59.8467V316.354H68.958ZM76.8389 317.277V320.339H78.9922V317.277H80.501V326.096H75.3008V317.277H76.8389ZM76.8389 324.777H78.9922V321.628H76.8389V324.777ZM86.3164 316.062V329.304H84.749V322.521H83.3428V328.659H81.8047V316.296H83.3428V321.174H84.749V316.062H86.3164ZM98.8555 316.062V329.304H97.2295V316.062H98.8555ZM92.9375 320.266C92.9375 322.287 94.168 324.44 96.3066 325.334L95.4131 326.579C93.8896 325.942 92.7544 324.616 92.1465 323.02C91.5532 324.711 90.4106 326.125 88.8652 326.799L87.9863 325.539C90.0957 324.602 91.3115 322.375 91.3115 320.266V319.577H88.3965V318.273H91.3115V316.34H92.9229V318.273H95.7793V319.577H92.9375V320.266ZM107.278 318.171V319.475H100.789V318.171H103.25V316.442H104.861V318.171H107.278ZM104.056 320.178C105.74 320.178 106.941 321.452 106.941 323.254C106.941 325.085 105.74 326.374 104.056 326.374C102.386 326.374 101.155 325.085 101.17 323.254C101.155 321.452 102.386 320.178 104.056 320.178ZM104.056 321.525C103.191 321.525 102.591 322.214 102.605 323.254C102.591 324.323 103.191 324.997 104.056 324.982C104.905 324.997 105.506 324.323 105.506 323.254C105.506 322.214 104.905 321.525 104.056 321.525ZM112.2 316.062V329.304H110.647V322.829H109.358V328.703H107.835V316.34H109.358V321.511H110.647V316.062H112.2ZM129.427 322.683V323.986H124.314V326.418H122.703V323.986H117.327V322.683H129.427ZM127.874 316.662V321.452H118.865V316.662H127.874ZM120.447 317.937V320.178H126.263V317.937H120.447ZM128.094 327.722V329.04H118.792V325.202H120.418V327.722H128.094ZM135.052 318.449C135.052 320.075 136.106 321.599 138.172 322.229L137.396 323.503C135.909 323.042 134.854 322.097 134.275 320.896C133.689 322.287 132.569 323.393 130.979 323.928L130.159 322.639C132.298 321.936 133.411 320.222 133.411 318.464V318.303H130.613V316.984H137.806V318.303H135.052V318.449ZM140.75 316.062V319.24H142.596V320.573H140.75V323.957H139.124V316.062H140.75ZM136.443 324.25C139.183 324.25 140.867 325.173 140.882 326.755C140.867 328.352 139.183 329.289 136.443 329.289C133.675 329.289 131.961 328.352 131.961 326.755C131.961 325.173 133.675 324.25 136.443 324.25ZM136.443 325.524C134.627 325.524 133.587 325.949 133.587 326.755C133.587 327.575 134.627 328.015 136.443 328.015C138.26 328.015 139.271 327.575 139.271 326.755C139.271 325.949 138.26 325.524 136.443 325.524ZM149.29 316.267C152.308 316.267 154.051 317.072 154.065 318.537C154.051 320.017 152.308 320.808 149.29 320.822C146.272 320.808 144.515 320.017 144.515 318.537C144.515 317.072 146.272 316.267 149.29 316.267ZM149.29 317.468C147.269 317.468 146.214 317.849 146.229 318.537C146.214 319.27 147.269 319.606 149.29 319.606C151.341 319.606 152.381 319.27 152.381 318.537C152.381 317.849 151.341 317.468 149.29 317.468ZM155.34 321.525V322.829H143.27V321.525H155.34ZM153.831 323.723V326.96H146.302V327.941H154.197V329.187H144.705V325.803H152.234V324.924H144.69V323.723H153.831ZM163.792 316.633C165.726 316.633 167.103 317.702 167.117 319.299C167.103 320.61 166.114 321.599 164.642 321.877V322.946C165.74 322.888 166.846 322.785 167.879 322.639L168.011 323.825C165.257 324.323 162.181 324.367 159.939 324.367L159.764 323.063C160.716 323.071 161.829 323.063 163.001 323.02V321.877C161.485 321.628 160.467 320.632 160.481 319.299C160.467 317.702 161.844 316.633 163.792 316.633ZM163.792 317.878C162.737 317.878 161.99 318.405 162.005 319.299C161.99 320.163 162.737 320.705 163.792 320.72C164.847 320.705 165.564 320.163 165.579 319.299C165.564 318.405 164.847 317.878 163.792 317.878ZM170.281 316.076V320.354H172.068V321.701H170.281V326.184H168.655V316.076H170.281ZM170.75 327.707V329.025H161.58V325.29H163.206V327.707H170.75ZM177.605 317.966C177.591 319.768 178.646 321.408 180.726 322.067L179.847 323.342C178.404 322.836 177.393 321.877 176.829 320.617C176.243 322.06 175.137 323.195 173.533 323.752L172.669 322.434C174.866 321.716 175.965 319.943 175.965 318.039V316.779H177.605V317.966ZM183.846 316.062V323.854H182.22V319.958H179.583V318.625H182.22V316.062H183.846ZM179.363 324.206C182.176 324.206 183.89 325.144 183.89 326.755C183.89 328.366 182.176 329.289 179.363 329.289C176.565 329.289 174.852 328.366 174.866 326.755C174.852 325.144 176.565 324.206 179.363 324.206ZM179.363 325.466C177.518 325.466 176.478 325.92 176.478 326.755C176.478 327.561 177.518 328.015 179.363 328.015C181.209 328.015 182.264 327.561 182.264 326.755C182.264 325.92 181.209 325.466 179.363 325.466ZM196.092 316.062V321.335H198.128V322.683H196.092V329.304H194.48V316.062H196.092ZM193.455 318.098V319.401H185.647V318.098H188.782V316.252H190.408V318.098H193.455ZM189.603 320.266C191.507 320.266 192.928 321.555 192.928 323.386C192.928 325.217 191.507 326.491 189.603 326.491C187.669 326.491 186.248 325.217 186.263 323.386C186.248 321.555 187.669 320.266 189.603 320.266ZM189.603 321.599C188.562 321.599 187.815 322.302 187.815 323.386C187.815 324.47 188.562 325.158 189.603 325.144C190.613 325.158 191.36 324.47 191.375 323.386C191.36 322.302 190.613 321.599 189.603 321.599ZM202.815 319.533C202.815 321.672 203.562 323.898 205.35 325.026L204.456 326.271C203.262 325.554 202.486 324.316 202.054 322.858C201.57 324.462 200.721 325.817 199.476 326.579L198.465 325.363C200.384 324.191 201.248 321.862 201.248 319.606V317.233H202.815V319.533ZM210.11 316.062V329.304H208.543V316.062H210.11ZM207.356 316.296V328.659H205.818V321.965H203.929V320.617H205.818V316.296H207.356ZM223.748 326.359V327.692H211.648V326.359H214.446V323.005C213.392 322.404 212.754 321.459 212.762 320.28C212.747 318.171 214.827 316.779 217.669 316.779C220.525 316.779 222.605 318.171 222.605 320.28C222.605 321.438 221.99 322.368 220.965 322.976V326.359H223.748ZM217.669 318.068C215.691 318.068 214.344 318.903 214.358 320.28C214.344 321.643 215.691 322.492 217.669 322.492C219.646 322.492 221.009 321.643 221.009 320.28C221.009 318.903 219.646 318.068 217.669 318.068ZM216.058 326.359H219.31V323.591C218.804 323.708 218.255 323.767 217.669 323.767C217.098 323.767 216.556 323.708 216.058 323.605V326.359Z" fill="#9AA4B4"/>
<rect x="19" y="212" width="46.5" height="45.875" rx="22.9375" fill="#E3F2FD"/>
<path d="M44.75 245.875V243.312C46.625 242.771 48.1354 241.729 49.2812 240.188C50.4271 238.646 51 236.896 51 234.938C51 232.979 50.4271 231.229 49.2812 229.688C48.1354 228.146 46.625 227.104 44.75 226.562V224C47.3333 224.583 49.4375 225.891 51.0625 227.922C52.6875 229.953 53.5 232.292 53.5 234.938C53.5 237.583 52.6875 239.922 51.0625 241.953C49.4375 243.984 47.3333 245.292 44.75 245.875ZM31 238.719V231.219H36L42.25 224.969V244.969L36 238.719H31ZM44.75 239.969V229.906C45.7292 230.365 46.4948 231.052 47.0469 231.969C47.599 232.885 47.875 233.885 47.875 234.969C47.875 236.031 47.599 237.016 47.0469 237.922C46.4948 238.828 45.7292 239.51 44.75 239.969ZM39.75 231.031L37.0625 233.719H33.5V236.219H37.0625L39.75 238.906V231.031Z" fill="#4A90E2"/>
<rect x="69" y="211" width="306" height="56" rx="24" fill="white"/>
<path d="M96.1055 232H93.3906L98.3711 217.859H101.496L106.496 232H103.781L102.609 228.504H97.2773L96.1055 232ZM97.9609 226.453H101.926L99.9922 220.75H99.875L97.9609 226.453ZM113.918 224.422C113.762 223.621 113.098 223.113 112.043 223.113C110.969 223.113 110.188 223.641 110.207 224.363C110.188 224.91 110.637 225.32 111.711 225.574L113.508 225.945C115.52 226.395 116.477 227.312 116.496 228.836C116.477 230.828 114.738 232.215 111.965 232.215C109.27 232.215 107.668 231.004 107.414 228.973H109.953C110.109 229.871 110.812 230.32 111.965 230.32C113.156 230.32 113.957 229.832 113.957 229.051C113.957 228.445 113.469 228.055 112.414 227.82L110.715 227.449C108.742 227.059 107.727 226.023 107.727 224.5C107.727 222.547 109.406 221.258 112.004 221.258C114.543 221.258 116.105 222.488 116.281 224.422H113.918ZM122.648 229.012C122.648 226.629 124.621 225.926 126.594 225.809C127.326 225.76 128.85 225.672 129.309 225.652V224.812C129.309 223.758 128.625 223.152 127.395 223.152C126.281 223.152 125.598 223.66 125.402 224.422H123C123.176 222.625 124.797 221.258 127.453 221.258C129.465 221.258 131.789 222.078 131.789 224.91V232H129.406V230.535H129.328C128.859 231.434 127.863 232.215 126.203 232.215C124.172 232.215 122.648 231.102 122.648 229.012ZM125.051 228.992C125.051 229.91 125.793 230.379 126.848 230.379C128.352 230.379 129.328 229.383 129.328 228.191V227.312L126.984 227.469C125.793 227.566 125.051 228.055 125.051 228.992ZM144.172 221.395V223.309H142.082V228.816C142.082 229.832 142.59 230.047 143.215 230.047C143.508 230.047 143.996 230.027 144.309 230.008V232.039C144.016 232.098 143.527 232.137 142.902 232.137C141.027 232.137 139.582 231.219 139.602 229.227V223.309H138.078V221.395H139.602V218.855H142.082V221.395H144.172ZM150.676 232.215C147.473 232.215 145.52 230.086 145.52 226.766C145.52 223.484 147.512 221.258 150.539 221.258C153.137 221.258 155.383 222.879 155.383 226.609V227.391H147.98C148.01 229.197 149.074 230.262 150.695 230.262C151.789 230.262 152.531 229.793 152.844 229.168H155.285C154.836 231.004 153.137 232.215 150.676 232.215ZM148 225.691H153C152.98 224.246 152.023 223.191 150.578 223.191C149.074 223.191 148.078 224.334 148 225.691ZM162.023 232.215C158.82 232.215 156.867 230.086 156.867 226.766C156.867 223.484 158.859 221.258 161.887 221.258C164.484 221.258 166.73 222.879 166.73 226.609V227.391H159.328C159.357 229.197 160.422 230.262 162.043 230.262C163.137 230.262 163.879 229.793 164.191 229.168H166.633C166.184 231.004 164.484 232.215 162.023 232.215ZM159.348 225.691H164.348C164.328 224.246 163.371 223.191 161.926 223.191C160.422 223.191 159.426 224.334 159.348 225.691ZM171.164 225.789V232H168.664V221.395H171.047V223.191H171.184C171.672 222 172.746 221.258 174.328 221.258C176.535 221.258 177.98 222.703 177.961 225.242V232H175.48V225.633C175.48 224.207 174.719 223.367 173.41 223.367C172.082 223.367 171.164 224.246 171.164 225.789ZM179.855 229.012C179.855 226.629 181.828 225.926 183.801 225.809C184.533 225.76 186.057 225.672 186.516 225.652V224.812C186.516 223.758 185.832 223.152 184.602 223.152C183.488 223.152 182.805 223.66 182.609 224.422H180.207C180.383 222.625 182.004 221.258 184.66 221.258C186.672 221.258 188.996 222.078 188.996 224.91V232H186.613V230.535H186.535C186.066 231.434 185.07 232.215 183.41 232.215C181.379 232.215 179.855 231.102 179.855 229.012ZM182.258 228.992C182.258 229.91 183 230.379 184.055 230.379C185.559 230.379 186.535 229.383 186.535 228.191V227.312L184.191 227.469C183 227.566 182.258 228.055 182.258 228.992ZM195.969 236.199C193.156 236.199 191.379 234.949 191.203 232.957H193.684C193.859 233.875 194.738 234.324 196.008 234.324C197.492 234.324 198.469 233.68 198.469 232.117V230.086H198.352C197.961 230.867 197.121 231.844 195.285 231.844C192.844 231.844 190.91 230.066 190.91 226.609C190.91 223.113 192.844 221.258 195.305 221.258C197.18 221.258 197.961 222.371 198.352 223.133H198.469V221.395H200.93V232.176C200.93 234.891 198.84 236.199 195.969 236.199ZM195.969 229.891C197.57 229.891 198.488 228.68 198.488 226.648C198.488 224.637 197.59 223.289 195.969 223.289C194.309 223.289 193.449 224.715 193.449 226.648C193.449 228.602 194.328 229.891 195.969 229.891ZM208.02 232.215C204.816 232.215 202.863 230.086 202.863 226.766C202.863 223.484 204.855 221.258 207.883 221.258C210.48 221.258 212.727 222.879 212.727 226.609V227.391H205.324C205.354 229.197 206.418 230.262 208.039 230.262C209.133 230.262 209.875 229.793 210.188 229.168H212.629C212.18 231.004 210.48 232.215 208.02 232.215ZM205.344 225.691H210.344C210.324 224.246 209.367 223.191 207.922 223.191C206.418 223.191 205.422 224.334 205.344 225.691ZM214.66 232V221.395H217.082V223.152H217.199C217.57 221.941 218.605 221.238 219.816 221.238C220.09 221.238 220.48 221.258 220.715 221.297V223.602C220.5 223.523 219.973 223.445 219.562 223.445C218.176 223.445 217.16 224.402 217.16 225.75V232H214.66ZM223.82 230.613L222.18 236.082H220.324L221.34 230.613H223.82ZM232.336 235.984C231.848 235.984 231.359 235.965 231.047 235.926V233.934C231.359 233.953 231.77 233.973 232.102 233.973C232.707 233.973 233.215 233.914 233.645 232.781L233.859 232.215L229.992 221.395H232.629L235.09 229.402H235.207L237.668 221.395H240.305L236.047 233.289C235.441 234.988 234.328 235.984 232.336 235.984ZM246.125 232.215C243.039 232.215 241.047 230.027 241.047 226.746C241.047 223.445 243.039 221.258 246.125 221.258C249.23 221.258 251.203 223.445 251.203 226.746C251.203 230.027 249.23 232.215 246.125 232.215ZM246.145 230.223C247.844 230.223 248.684 228.68 248.684 226.727C248.684 224.793 247.844 223.23 246.145 223.23C244.406 223.23 243.566 224.793 243.566 226.727C243.566 228.68 244.406 230.223 246.145 230.223ZM259.914 227.547V221.395H262.395V232H259.992V230.125H259.875C259.387 231.297 258.273 232.137 256.691 232.137C254.602 232.137 253.156 230.691 253.137 228.152V221.395H255.637V227.762C255.637 229.109 256.438 229.969 257.648 229.969C258.742 229.969 259.914 229.168 259.914 227.547ZM274.152 232.215C270.988 232.215 269.074 229.949 269.074 226.746C269.074 223.504 271.047 221.258 274.152 221.258C276.73 221.258 278.527 222.762 278.703 225.047H276.32C276.125 224.031 275.383 223.25 274.172 223.25C272.629 223.25 271.594 224.559 271.594 226.688C271.594 228.875 272.609 230.184 274.172 230.184C275.285 230.184 276.105 229.539 276.32 228.387H278.703C278.508 230.633 276.809 232.215 274.152 232.215ZM280.09 229.012C280.09 226.629 282.062 225.926 284.035 225.809C284.768 225.76 286.291 225.672 286.75 225.652V224.812C286.75 223.758 286.066 223.152 284.836 223.152C283.723 223.152 283.039 223.66 282.844 224.422H280.441C280.617 222.625 282.238 221.258 284.895 221.258C286.906 221.258 289.23 222.078 289.23 224.91V232H286.848V230.535H286.77C286.301 231.434 285.305 232.215 283.645 232.215C281.613 232.215 280.09 231.102 280.09 229.012ZM282.492 228.992C282.492 229.91 283.234 230.379 284.289 230.379C285.793 230.379 286.77 229.383 286.77 228.191V227.312L284.426 227.469C283.234 227.566 282.492 228.055 282.492 228.992ZM294.074 225.789V232H291.574V221.395H293.957V223.191H294.094C294.582 222 295.656 221.258 297.238 221.258C299.445 221.258 300.891 222.703 300.871 225.242V232H298.391V225.633C298.391 224.207 297.629 223.367 296.32 223.367C294.992 223.367 294.074 224.246 294.074 225.789ZM96.3984 260L93.3906 249.395H95.9297L97.8047 256.855H97.9023L99.7969 249.395H102.316L104.23 256.816H104.328L106.184 249.395H108.723L105.715 260H103.117L101.125 252.812H100.988L98.9961 260H96.3984ZM114.641 260.215C111.555 260.215 109.562 258.027 109.562 254.746C109.562 251.445 111.555 249.258 114.641 249.258C117.746 249.258 119.719 251.445 119.719 254.746C119.719 258.027 117.746 260.215 114.641 260.215ZM114.66 258.223C116.359 258.223 117.199 256.68 117.199 254.727C117.199 252.793 116.359 251.23 114.66 251.23C112.922 251.23 112.082 252.793 112.082 254.727C112.082 256.68 112.922 258.223 114.66 258.223ZM121.652 260V249.395H124.074V251.152H124.191C124.562 249.941 125.598 249.238 126.809 249.238C127.082 249.238 127.473 249.258 127.707 249.297V251.602C127.492 251.523 126.965 251.445 126.555 251.445C125.168 251.445 124.152 252.402 124.152 253.75V260H121.652ZM129.191 260V245.859H131.691V253.652H131.867L135.676 249.395H138.586L134.484 253.965L138.84 260H135.871L132.609 255.449L131.691 256.426V260H129.191ZM147.023 260L144.016 249.395H146.555L148.43 256.855H148.527L150.422 249.395H152.941L154.855 256.816H154.953L156.809 249.395H159.348L156.34 260H153.742L151.75 252.812H151.613L149.621 260H147.023ZM160.93 260V249.395H163.43V260H160.93ZM162.199 247.891C161.418 247.891 160.754 247.285 160.754 246.523C160.754 245.781 161.418 245.176 162.199 245.176C163 245.176 163.645 245.781 163.645 246.523C163.645 247.285 163 247.891 162.199 247.891ZM171.105 249.395V251.309H169.016V256.816C169.016 257.832 169.523 258.047 170.148 258.047C170.441 258.047 170.93 258.027 171.242 258.008V260.039C170.949 260.098 170.461 260.137 169.836 260.137C167.961 260.137 166.516 259.219 166.535 257.227V251.309H165.012V249.395H166.535V246.855H169.016V249.395H171.105ZM175.754 253.789V260H173.254V245.859H175.695V251.191H175.832C176.32 250 177.336 249.258 178.977 249.258C181.184 249.258 182.629 250.684 182.629 253.242V260H180.148V253.633C180.148 252.188 179.367 251.367 178.059 251.367C176.711 251.367 175.754 252.246 175.754 253.789ZM189.25 257.012C189.25 254.629 191.223 253.926 193.195 253.809C193.928 253.76 195.451 253.672 195.91 253.652V252.812C195.91 251.758 195.227 251.152 193.996 251.152C192.883 251.152 192.199 251.66 192.004 252.422H189.602C189.777 250.625 191.398 249.258 194.055 249.258C196.066 249.258 198.391 250.078 198.391 252.91V260H196.008V258.535H195.93C195.461 259.434 194.465 260.215 192.805 260.215C190.773 260.215 189.25 259.102 189.25 257.012ZM191.652 256.992C191.652 257.91 192.395 258.379 193.449 258.379C194.953 258.379 195.93 257.383 195.93 256.191V255.312L193.586 255.469C192.395 255.566 191.652 256.055 191.652 256.992ZM203.234 253.789V260H200.734V249.395H203.117V251.191H203.254C203.742 250 204.816 249.258 206.398 249.258C208.605 249.258 210.051 250.703 210.031 253.242V260H207.551V253.633C207.551 252.207 206.789 251.367 205.48 251.367C204.152 251.367 203.234 252.246 203.234 253.789ZM228.898 245.859V260H226.633L219.934 250.332H219.816V260H217.277V245.859H219.582L226.242 255.527H226.379V245.859H228.898ZM240.988 250.371C240.539 248.867 239.367 247.949 237.648 247.949C235.363 247.949 233.723 249.727 233.723 252.91C233.723 256.133 235.344 257.91 237.707 257.91C239.836 257.91 241.203 256.621 241.242 254.609H237.961V252.598H243.703V254.297C243.703 257.93 241.203 260.195 237.707 260.195C233.801 260.195 231.164 257.422 231.164 252.93C231.164 248.398 233.918 245.664 237.629 245.664C240.754 245.664 243.156 247.598 243.586 250.371H240.988ZM258.625 252.93C258.625 257.5 255.852 260.195 252.141 260.195C248.43 260.195 245.656 257.48 245.656 252.93C245.656 248.359 248.43 245.664 252.141 245.664C255.852 245.664 258.625 248.359 258.625 252.93ZM256.066 252.93C256.066 249.707 254.445 247.949 252.141 247.949C249.836 247.949 248.215 249.707 248.215 252.93C248.215 256.152 249.836 257.91 252.141 257.91C254.445 257.91 256.066 256.152 256.066 252.93ZM261.418 260.156C260.578 260.156 259.895 259.473 259.895 258.633C259.895 257.812 260.578 257.129 261.418 257.129C262.219 257.129 262.922 257.812 262.922 258.633C262.922 259.473 262.219 260.156 261.418 260.156Z" fill="#1E293B"/>
<path d="M349.02 344V344.75H351C351.571 344.75 352.136 344.778 352.692 344.832L352.764 344.086C353.956 344.202 355.113 344.435 356.226 344.771L356.01 345.488C357.1 345.819 358.145 346.254 359.133 346.783L359.485 346.122C360.529 346.681 361.51 347.339 362.418 348.085L361.943 348.665C362.816 349.382 363.618 350.184 364.335 351.057L364.914 350.581C365.66 351.489 366.318 352.47 366.877 353.514L366.217 353.867C366.746 354.855 367.181 355.9 367.512 356.99L368.228 356.773C368.565 357.886 368.797 359.043 368.913 360.235L368.168 360.308C368.222 360.864 368.25 361.429 368.25 362V363.942H369V367.827H368.25V371.712H369V375.596H368.25V379.48H369V383.365H368.25V387.25H369V391.135H368.25V395.02H369V398.904H368.25V402.788H369V406.673H368.25V410.558H369V414.442H368.25V418.327H369V422.212H368.25V426.096H369V429.98H368.25V433.865H369V437.75H368.25V441.635H369V445.52H368.25V449.404H369V453.288H368.25V457.173H369V461.058H368.25V463C368.25 463.571 368.222 464.136 368.168 464.692L368.913 464.764C368.797 465.956 368.565 467.113 368.228 468.226L367.512 468.01C367.181 469.1 366.746 470.145 366.217 471.133L366.877 471.485C366.318 472.529 365.66 473.51 364.914 474.418L364.335 473.943C363.618 474.816 362.816 475.618 361.943 476.335L362.418 476.914C361.51 477.66 360.529 478.318 359.485 478.877L359.133 478.217C358.145 478.746 357.1 479.181 356.01 479.512L356.226 480.228C355.113 480.565 353.956 480.797 352.764 480.913L352.692 480.168C352.136 480.222 351.571 480.25 351 480.25H349.02V481H345.058V480.25H341.096V481H337.135V480.25H333.173V481H329.212V480.25H325.25V481H321.288V480.25H317.327V481H313.365V480.25H309.403V481H305.442V480.25H301.48V481H297.52V480.25H293.558V481H289.596V480.25H285.635V481H281.673V480.25H277.711V481H273.75V480.25H269.788V481H265.827V480.25H261.865V481H257.903V480.25H253.942V481H249.98V480.25H246.02V481H242.058V480.25H238.096V481H234.135V480.25H230.173V481H226.212V480.25H222.25V481H218.288V480.25H214.327V481H210.365V480.25H206.404V481H202.442V480.25H198.48V481H194.52V480.25H190.558V481H186.596V480.25H182.635V481H178.673V480.25H174.712V481H170.75V480.25H166.788V481H162.827V480.25H158.865V481H154.904V480.25H150.942V481H146.98V480.25H143.02V481H139.058V480.25H135.096V481H131.135V480.25H127.173V481H123.212V480.25H119.25V481H115.288V480.25H111.327V481H107.365V480.25H103.404V481H99.4424V480.25H95.4805V481H91.5195V480.25H87.5576V481H83.5957V480.25H79.6348V481H75.6729V480.25H71.7119V481H67.75V480.25H63.7881V481H59.8271V480.25H55.8652V481H51.9043V480.25H47.9424V481H43.9805V480.25H42C41.4288 480.25 40.8642 480.222 40.3076 480.168L40.2354 480.913C39.0434 480.797 37.8858 480.565 36.7734 480.228L36.9902 479.512C35.8998 479.181 34.8547 478.746 33.8672 478.217L33.5137 478.877C32.4704 478.318 31.4886 477.66 30.5811 476.914L31.0566 476.335C30.1837 475.618 29.3823 474.816 28.665 473.943L28.085 474.418C27.3394 473.51 26.6808 472.529 26.1221 471.485L26.7832 471.133C26.2543 470.145 25.8187 469.1 25.4883 468.01L24.7715 468.226C24.4345 467.113 24.2019 465.956 24.0859 464.764L24.832 464.692C24.7779 464.136 24.75 463.571 24.75 463V461.058H24V457.173H24.75V453.288H24V449.404H24.75V445.52H24V441.635H24.75V437.75H24V433.865H24.75V429.98H24V426.096H24.75V422.212H24V418.327H24.75V414.442H24V410.558H24.75V406.673H24V402.788H24.75V398.904H24V395.02H24.75V391.135H24V387.25H24.75V383.365H24V379.48H24.75V375.596H24V371.712H24.75V367.827H24V363.942H24.75V362C24.75 361.429 24.7779 360.864 24.832 360.308L24.0859 360.235C24.2019 359.043 24.4345 357.886 24.7715 356.773L25.4883 356.99C25.8187 355.9 26.2543 354.855 26.7832 353.867L26.1221 353.514C26.6808 352.47 27.3393 351.489 28.085 350.581L28.665 351.057C29.3823 350.184 30.1837 349.382 31.0566 348.665L30.5811 348.085C31.4886 347.339 32.4704 346.681 33.5137 346.122L33.8672 346.783C34.8547 346.254 35.8998 345.819 36.9902 345.488L36.7734 344.771C37.8858 344.434 39.0434 344.202 40.2354 344.086L40.3076 344.832C40.8642 344.778 41.4288 344.75 42 344.75H43.9805V344H47.9424V344.75H51.9043V344H55.8652V344.75H59.8271V344H63.7881V344.75H67.75V344H71.7119V344.75H75.6729V344H79.6348V344.75H83.5967V344H87.5576V344.75H91.5195V344H95.4805V344.75H99.4424V344H103.404V344.75H107.365V344H111.327V344.75H115.289V344H119.25V344.75H123.212V344H127.173V344.75H131.135V344H135.097V344.75H139.058V344H143.02V344.75H146.98V344H150.942V344.75H154.904V344H158.865V344.75H162.827V344H166.788V344.75H170.75V344H174.712V344.75H178.673V344H182.635V344.75H186.596V344H190.558V344.75H194.52V344H198.48V344.75H202.442V344H206.404V344.75H210.365V344H214.327V344.75H218.288V344H222.25V344.75H226.212V344H230.173V344.75H234.135V344H238.096V344.75H242.058V344H246.02V344.75H249.98V344H253.942V344.75H257.904V344H261.865V344.75H265.827V344H269.788V344.75H273.75V344H277.712V344.75H281.673V344H285.635V344.75H289.596V344H293.558V344.75H297.52V344H301.48V344.75H305.442V344H309.404V344.75H313.365V344H317.327V344.75H321.288V344H325.25V344.75H329.212V344H333.173V344.75H337.135V344H341.096V344.75H345.058V344H349.02Z" fill="#F6F9FD"/>
<path d="M349.02 344V344.75H351C351.571 344.75 352.136 344.778 352.692 344.832L352.764 344.086C353.956 344.202 355.113 344.435 356.226 344.771L356.01 345.488C357.1 345.819 358.145 346.254 359.133 346.783L359.485 346.122C360.529 346.681 361.51 347.339 362.418 348.085L361.943 348.665C362.816 349.382 363.618 350.184 364.335 351.057L364.914 350.581C365.66 351.489 366.318 352.47 366.877 353.514L366.217 353.867C366.746 354.855 367.181 355.9 367.512 356.99L368.228 356.773C368.565 357.886 368.797 359.043 368.913 360.235L368.168 360.308C368.222 360.864 368.25 361.429 368.25 362V363.942H369V367.827H368.25V371.712H369V375.596H368.25V379.48H369V383.365H368.25V387.25H369V391.135H368.25V395.02H369V398.904H368.25V402.788H369V406.673H368.25V410.558H369V414.442H368.25V418.327H369V422.212H368.25V426.096H369V429.98H368.25V433.865H369V437.75H368.25V441.635H369V445.52H368.25V449.404H369V453.288H368.25V457.173H369V461.058H368.25V463C368.25 463.571 368.222 464.136 368.168 464.692L368.913 464.764C368.797 465.956 368.565 467.113 368.228 468.226L367.512 468.01C367.181 469.1 366.746 470.145 366.217 471.133L366.877 471.485C366.318 472.529 365.66 473.51 364.914 474.418L364.335 473.943C363.618 474.816 362.816 475.618 361.943 476.335L362.418 476.914C361.51 477.66 360.529 478.318 359.485 478.877L359.133 478.217C358.145 478.746 357.1 479.181 356.01 479.512L356.226 480.228C355.113 480.565 353.956 480.797 352.764 480.913L352.692 480.168C352.136 480.222 351.571 480.25 351 480.25H349.02V481H345.058V480.25H341.096V481H337.135V480.25H333.173V481H329.212V480.25H325.25V481H321.288V480.25H317.327V481H313.365V480.25H309.403V481H305.442V480.25H301.48V481H297.52V480.25H293.558V481H289.596V480.25H285.635V481H281.673V480.25H277.711V481H273.75V480.25H269.788V481H265.827V480.25H261.865V481H257.903V480.25H253.942V481H249.98V480.25H246.02V481H242.058V480.25H238.096V481H234.135V480.25H230.173V481H226.212V480.25H222.25V481H218.288V480.25H214.327V481H210.365V480.25H206.404V481H202.442V480.25H198.48V481H194.52V480.25H190.558V481H186.596V480.25H182.635V481H178.673V480.25H174.712V481H170.75V480.25H166.788V481H162.827V480.25H158.865V481H154.904V480.25H150.942V481H146.98V480.25H143.02V481H139.058V480.25H135.096V481H131.135V480.25H127.173V481H123.212V480.25H119.25V481H115.288V480.25H111.327V481H107.365V480.25H103.404V481H99.4424V480.25H95.4805V481H91.5195V480.25H87.5576V481H83.5957V480.25H79.6348V481H75.6729V480.25H71.7119V481H67.75V480.25H63.7881V481H59.8271V480.25H55.8652V481H51.9043V480.25H47.9424V481H43.9805V480.25H42C41.4288 480.25 40.8642 480.222 40.3076 480.168L40.2354 480.913C39.0434 480.797 37.8858 480.565 36.7734 480.228L36.9902 479.512C35.8998 479.181 34.8547 478.746 33.8672 478.217L33.5137 478.877C32.4704 478.318 31.4886 477.66 30.5811 476.914L31.0566 476.335C30.1837 475.618 29.3823 474.816 28.665 473.943L28.085 474.418C27.3394 473.51 26.6808 472.529 26.1221 471.485L26.7832 471.133C26.2543 470.145 25.8187 469.1 25.4883 468.01L24.7715 468.226C24.4345 467.113 24.2019 465.956 24.0859 464.764L24.832 464.692C24.7779 464.136 24.75 463.571 24.75 463V461.058H24V457.173H24.75V453.288H24V449.404H24.75V445.52H24V441.635H24.75V437.75H24V433.865H24.75V429.98H24V426.096H24.75V422.212H24V418.327H24.75V414.442H24V410.558H24.75V406.673H24V402.788H24.75V398.904H24V395.02H24.75V391.135H24V387.25H24.75V383.365H24V379.48H24.75V375.596H24V371.712H24.75V367.827H24V363.942H24.75V362C24.75 361.429 24.7779 360.864 24.832 360.308L24.0859 360.235C24.2019 359.043 24.4345 357.886 24.7715 356.773L25.4883 356.99C25.8187 355.9 26.2543 354.855 26.7832 353.867L26.1221 353.514C26.6808 352.47 27.3393 351.489 28.085 350.581L28.665 351.057C29.3823 350.184 30.1837 349.382 31.0566 348.665L30.5811 348.085C31.4886 347.339 32.4704 346.681 33.5137 346.122L33.8672 346.783C34.8547 346.254 35.8998 345.819 36.9902 345.488L36.7734 344.771C37.8858 344.434 39.0434 344.202 40.2354 344.086L40.3076 344.832C40.8642 344.778 41.4288 344.75 42 344.75H43.9805V344H47.9424V344.75H51.9043V344H55.8652V344.75H59.8271V344H63.7881V344.75H67.75V344H71.7119V344.75H75.6729V344H79.6348V344.75H83.5967V344H87.5576V344.75H91.5195V344H95.4805V344.75H99.4424V344H103.404V344.75H107.365V344H111.327V344.75H115.289V344H119.25V344.75H123.212V344H127.173V344.75H131.135V344H135.097V344.75H139.058V344H143.02V344.75H146.98V344H150.942V344.75H154.904V344H158.865V344.75H162.827V344H166.788V344.75H170.75V344H174.712V344.75H178.673V344H182.635V344.75H186.596V344H190.558V344.75H194.52V344H198.48V344.75H202.442V344H206.404V344.75H210.365V344H214.327V344.75H218.288V344H222.25V344.75H226.212V344H230.173V344.75H234.135V344H238.096V344.75H242.058V344H246.02V344.75H249.98V344H253.942V344.75H257.904V344H261.865V344.75H265.827V344H269.788V344.75H273.75V344H277.712V344.75H281.673V344H285.635V344.75H289.596V344H293.558V344.75H297.52V344H301.48V344.75H305.442V344H309.404V344.75H313.365V344H317.327V344.75H321.288V344H325.25V344.75H329.212V344H333.173V344.75H337.135V344H341.096V344.75H345.058V344H349.02Z" stroke="#D6E0EE" stroke-width="1.5" stroke-dasharray="4 4"/>
<g filter="url(#filter0_d_4722_875)">
<path d="M232.625 545C232.625 537.268 238.893 531 246.625 531H312.938C320.669 531 326.938 537.268 326.938 545V561C326.938 568.732 320.669 575 312.938 575H246.625C238.893 575 232.625 568.732 232.625 561V545Z" fill="white" shape-rendering="crispEdges"/>
<path d="M246.625 531.75H312.938C320.255 531.75 326.188 537.682 326.188 545V561C326.188 568.318 320.255 574.25 312.938 574.25H246.625C239.307 574.25 233.375 568.318 233.375 561V545C233.375 537.682 239.307 531.75 246.625 531.75Z" stroke="#E0E6F0" stroke-width="1.5" shape-rendering="crispEdges"/>
<path d="M257.609 554.953C257.609 556.125 258.148 557.359 259.359 558.125C260.586 557.305 261.156 556.023 261.172 554.953V554.375H262.875V554.953C262.859 556.438 263.734 557.812 265.594 558.406L264.75 559.672C263.375 559.211 262.461 558.312 261.969 557.188C261.516 558.297 260.68 559.289 259.406 559.797C258.062 559.312 257.219 558.359 256.781 557.234C256.273 558.32 255.375 559.203 254.062 559.672L253.203 558.406C255.031 557.766 255.906 556.328 255.922 554.953V554.375H257.609V554.953ZM264.359 545.781V553.781H262.609V545.781H264.359ZM256.656 546.531C258.828 546.531 260.453 547.906 260.453 549.891C260.453 551.859 258.828 553.234 256.656 553.234C254.469 553.234 252.844 551.859 252.844 549.891C252.844 547.906 254.469 546.531 256.656 546.531ZM256.656 548C255.422 548 254.531 548.734 254.547 549.891C254.531 551.047 255.422 551.797 256.656 551.797C257.875 551.797 258.75 551.047 258.75 549.891C258.75 548.734 257.875 548 256.656 548ZM269.688 554.234V555.578H275.906V554.234H277.641V559.719H267.969V554.234H269.688ZM269.688 558.344H275.906V556.906H269.688V558.344ZM279.297 552.016V553.438H266.422V552.016H279.297ZM273.75 546.453C273.75 547.969 275.688 549.562 278.609 549.906L278 551.281C275.633 550.961 273.766 549.914 272.859 548.484C271.945 549.922 270.07 550.961 267.719 551.281L267.078 549.906C270.031 549.547 271.953 548.016 271.969 546.453V545.922H273.75V546.453ZM292.031 545.766V559.891H290.312V545.766H292.031ZM282.781 547.141V554.859C284.766 554.828 286.875 554.648 289.047 554.219L289.266 555.672C286.781 556.188 284.469 556.344 282.281 556.344H281.062V547.141H282.781ZM305.141 545.766V551.125H307.312V552.547H305.141V559.906H303.406V545.766H305.141ZM301.266 547.109V548.516H296.391V555C298.586 555 300.32 554.891 302.266 554.547L302.469 556.016C300.281 556.391 298.375 556.453 295.828 556.453H294.656V547.109H301.266Z" fill="#2C3A50"/>
</g>
<g filter="url(#filter1_d_4722_875)">
<path d="M24 599C24 591.268 30.268 585 38 585H97.7188C105.451 585 111.719 591.268 111.719 599V615C111.719 622.732 105.451 629 97.7188 629H38C30.268 629 24 622.732 24 615V599Z" fill="white" shape-rendering="crispEdges"/>
<path d="M38 585.75H97.7188C105.037 585.75 110.969 591.682 110.969 599V615C110.969 622.318 105.037 628.25 97.7188 628.25H38C30.6822 628.25 24.75 622.318 24.75 615V599C24.75 591.682 30.6822 585.75 38 585.75Z" stroke="#E0E6F0" stroke-width="1.5" shape-rendering="crispEdges"/>
<path d="M53.8438 601.188V612.5H52.0312L46.6719 604.766H46.5781V612.5H44.5469V601.188H46.3906L51.7188 608.922H51.8281V601.188H53.8438ZM63.5156 604.797C63.1562 603.594 62.2188 602.859 60.8438 602.859C59.0156 602.859 57.7031 604.281 57.7031 606.828C57.7031 609.406 59 610.828 60.8906 610.828C62.5938 610.828 63.6875 609.797 63.7188 608.188H61.0938V606.578H65.6875V607.938C65.6875 610.844 63.6875 612.656 60.8906 612.656C57.7656 612.656 55.6562 610.438 55.6562 606.844C55.6562 603.219 57.8594 601.031 60.8281 601.031C63.3281 601.031 65.25 602.578 65.5938 604.797H63.5156ZM77.625 606.844C77.625 610.5 75.4062 612.656 72.4375 612.656C69.4688 612.656 67.25 610.484 67.25 606.844C67.25 603.188 69.4688 601.031 72.4375 601.031C75.4062 601.031 77.625 603.188 77.625 606.844ZM75.5781 606.844C75.5781 604.266 74.2812 602.859 72.4375 602.859C70.5938 602.859 69.2969 604.266 69.2969 606.844C69.2969 609.422 70.5938 610.828 72.4375 610.828C74.2812 610.828 75.5781 609.422 75.5781 606.844ZM83.0781 600.641C85.25 600.641 86.9062 602.047 86.9219 604.047C86.9062 605.773 85.6875 607.047 83.9688 607.375V609.453C85.1406 609.398 86.3203 609.305 87.4219 609.156L87.5469 610.453C84.5938 610.984 81.3594 611 78.9375 610.969L78.6875 609.547C79.75 609.547 80.9688 609.547 82.2344 609.516V607.375C80.4609 607.078 79.2344 605.797 79.25 604.047C79.2344 602.047 80.8594 600.641 83.0781 600.641ZM83.0781 602.109C81.8438 602.125 80.9375 602.859 80.9375 604.047C80.9375 605.234 81.8438 605.984 83.0781 605.969C84.2969 605.984 85.2031 605.234 85.2031 604.047C85.2031 602.859 84.2969 602.125 83.0781 602.109ZM89.9688 599.766V605.406H92.0156V606.875H89.9688V613.891H88.2344V599.766H89.9688Z" fill="#2C3A50"/>
</g>
<g filter="url(#filter2_d_4722_875)">
<path d="M121.719 599C121.719 591.268 127.987 585 135.719 585H192C199.732 585 206 591.268 206 599V615C206 622.732 199.732 629 192 629H135.719C127.987 629 121.719 622.732 121.719 615V599Z" fill="white" shape-rendering="crispEdges"/>
<path d="M135.719 585.75H192C199.318 585.75 205.25 591.682 205.25 599V615C205.25 622.318 199.318 628.25 192 628.25H135.719C128.401 628.25 122.469 622.318 122.469 615V599C122.469 591.682 128.401 585.75 135.719 585.75Z" stroke="#E0E6F0" stroke-width="1.5" shape-rendering="crispEdges"/>
<path d="M145.688 600.219C147.828 600.219 149.422 601.547 149.438 603.406C149.422 605.281 147.828 606.594 145.688 606.594C143.531 606.594 141.938 605.281 141.938 603.406C141.938 601.547 143.531 600.219 145.688 600.219ZM145.688 601.656C144.5 601.656 143.625 602.328 143.625 603.406C143.625 604.5 144.5 605.188 145.688 605.188C146.875 605.188 147.75 604.5 147.75 603.406C147.75 602.328 146.875 601.656 145.688 601.656ZM153.453 599.766V606.906H151.703V599.766H153.453ZM153.453 607.516V611.203H145.812V612.344H153.875V613.719H144.109V609.922H151.719V608.875H144.078V607.516H153.453ZM166.656 599.734V602.922H168.641V604.328H166.656V607.438H164.922V599.734H166.656ZM166.656 608.062V611.469H159.156V612.469H167.094V613.766H157.438V610.266H164.922V609.328H157.422V608.062H166.656ZM163.906 600.906V602.234H155.531V600.906H158.859V599.656H160.594V600.906H163.906ZM159.719 602.672C161.812 602.688 163.156 603.578 163.172 604.984C163.156 606.438 161.812 607.297 159.719 607.297C157.625 607.297 156.25 606.438 156.25 604.984C156.25 603.578 157.625 602.688 159.719 602.672ZM159.719 603.922C158.625 603.922 157.938 604.312 157.938 604.984C157.938 605.672 158.625 606.047 159.719 606.047C160.812 606.047 161.516 605.672 161.516 604.984C161.516 604.312 160.812 603.922 159.719 603.922ZM180.5 600.938C180.5 602.719 182.484 604.516 185.5 604.906L184.812 606.312C182.414 605.953 180.508 604.773 179.594 603.172C178.664 604.773 176.766 605.953 174.391 606.312L173.703 604.906C176.688 604.516 178.672 602.719 178.672 600.938V600.219H180.5V600.938ZM186.016 607.531V608.969H180.406V613.891H178.688V608.969H173.141V607.531H186.016Z" fill="#2C3A50"/>
</g>
<g filter="url(#filter3_d_4722_875)">
<path d="M24 544C24 536.82 29.8203 531 37 531H101.313C108.492 531 114.312 536.82 114.312 544V558C114.312 565.18 108.492 571 101.313 571H37C29.8203 571 24 565.18 24 558V544Z" fill="white" shape-rendering="crispEdges"/>
<path d="M37 531.75H101.312C108.078 531.75 113.562 537.235 113.562 544V558C113.562 564.765 108.078 570.25 101.312 570.25H37C30.2345 570.25 24.75 564.765 24.75 558V544C24.75 537.235 30.2345 531.75 37 531.75Z" stroke="#C9D9EE" stroke-width="1.5" shape-rendering="crispEdges"/>
<path d="M45.8281 544.797C46.4635 544.797 47.0365 544.966 47.5469 545.305C48.0625 545.643 48.4792 546.125 48.7969 546.75H52.0938V543.766H53.8125V557.906H52.0938V552.562H48.9219C48.6146 553.266 48.1927 553.812 47.6562 554.203C47.1198 554.589 46.5104 554.781 45.8281 554.781C45.1198 554.781 44.4922 554.578 43.9453 554.172C43.3984 553.766 42.9714 553.185 42.6641 552.43C42.3568 551.674 42.2031 550.792 42.2031 549.781C42.2031 548.781 42.3568 547.906 42.6641 547.156C42.9714 546.401 43.3984 545.82 43.9453 545.414C44.4974 545.003 45.125 544.797 45.8281 544.797ZM45.8281 546.359C45.4375 546.359 45.0938 546.497 44.7969 546.773C44.5 547.044 44.2708 547.438 44.1094 547.953C43.9479 548.464 43.8698 549.073 43.875 549.781C43.8698 550.495 43.9479 551.109 44.1094 551.625C44.2708 552.141 44.5 552.536 44.7969 552.812C45.0938 553.083 45.4375 553.219 45.8281 553.219C46.2188 553.219 46.5599 553.083 46.8516 552.812C47.1484 552.536 47.3776 552.141 47.5391 551.625C47.7057 551.109 47.7917 550.495 47.7969 549.781C47.7917 549.073 47.7057 548.461 47.5391 547.945C47.3776 547.43 47.1484 547.036 46.8516 546.766C46.5599 546.495 46.2188 546.359 45.8281 546.359ZM49.2812 548.172C49.3854 548.677 49.4375 549.214 49.4375 549.781C49.4375 550.25 49.401 550.708 49.3281 551.156H52.0938V548.172H49.2812ZM67.625 557.906H65.8906V550.391H63.4688V548.969H65.8906V543.766H67.625V557.906ZM62.6562 550.172H58.0312V553.141C59.1927 553.135 60.2083 553.104 61.0781 553.047C61.9531 552.99 62.8333 552.88 63.7188 552.719L63.8594 554.141C62.8646 554.318 61.8776 554.438 60.8984 554.5C59.9193 554.562 58.7656 554.594 57.4375 554.594H56.3125V548.766H60.9531V546.406H56.2656V545H62.6562V550.172ZM82.5156 552.469H77.0625V554.906H75.3438V552.469H69.6094V551.078H82.5156V552.469ZM81.0938 557.609H71.1719V553.719H72.8906V556.203H81.0938V557.609ZM73.0156 545.812H79.1094V544.219H80.8281V549.969H71.2969V544.219H73.0156V545.812ZM79.1094 548.594V547.109H73.0156V548.594H79.1094ZM96.3281 552.453H83.4531V551.062H96.3281V552.453ZM94.875 557.609H85.0469V553.5H86.7812V556.203H94.875V557.609ZM89.875 544.219C90.8958 544.219 91.7891 544.333 92.5547 544.562C93.3203 544.792 93.9115 545.122 94.3281 545.555C94.75 545.982 94.9635 546.49 94.9688 547.078C94.9635 547.672 94.75 548.188 94.3281 548.625C93.9115 549.057 93.3203 549.391 92.5547 549.625C91.7891 549.854 90.8958 549.969 89.875 549.969C88.8542 549.969 87.9583 549.854 87.1875 549.625C86.4219 549.391 85.8281 549.057 85.4062 548.625C84.9896 548.188 84.7812 547.672 84.7812 547.078C84.7812 546.49 84.9896 545.982 85.4062 545.555C85.8281 545.122 86.4219 544.792 87.1875 544.562C87.9583 544.333 88.8542 544.219 89.875 544.219ZM89.875 545.609C88.8438 545.609 88.0365 545.74 87.4531 546C86.875 546.255 86.5885 546.615 86.5938 547.078C86.5885 547.391 86.7161 547.659 86.9766 547.883C87.2422 548.107 87.6198 548.276 88.1094 548.391C88.6042 548.5 89.1927 548.552 89.875 548.547C90.9115 548.557 91.7188 548.435 92.2969 548.18C92.8802 547.919 93.1719 547.552 93.1719 547.078C93.1719 546.609 92.8802 546.247 92.2969 545.992C91.7188 545.737 90.9115 545.609 89.875 545.609Z" fill="#2C3A50"/>
</g>
<g filter="url(#filter4_d_4722_875)">
<path d="M128 544C128 536.82 133.82 531 141 531H205.313C212.492 531 218.312 536.82 218.312 544V558C218.312 565.18 212.492 571 205.313 571H141C133.82 571 128 565.18 128 558V544Z" fill="white" shape-rendering="crispEdges"/>
<path d="M141 531.75H205.312C212.078 531.75 217.562 537.235 217.562 544V558C217.562 564.765 212.078 570.25 205.312 570.25H141C134.235 570.25 128.75 564.765 128.75 558V544C128.75 537.235 134.235 531.75 141 531.75Z" stroke="#C9D9EE" stroke-width="1.5" shape-rendering="crispEdges"/>
<path d="M151.234 545.531C151.234 546.125 151.365 546.695 151.625 547.242C151.891 547.789 152.281 548.273 152.797 548.695C153.312 549.112 153.932 549.427 154.656 549.641L153.828 551C153.016 550.745 152.312 550.37 151.719 549.875C151.13 549.375 150.674 548.786 150.352 548.109C150.023 548.854 149.56 549.497 148.961 550.039C148.362 550.581 147.646 550.979 146.812 551.234L145.969 549.875C146.708 549.641 147.339 549.302 147.859 548.859C148.38 548.411 148.773 547.901 149.039 547.328C149.305 546.75 149.438 546.151 149.438 545.531V544.203H151.234V545.531ZM157.734 551.344H155.984V543.766H157.734V551.344ZM150.109 553.453H156V552H157.734V557.719H148.391V552H150.109V553.453ZM156 556.312V554.812H150.109V556.312H156ZM171.953 557.891H170.297V550.688H168.703V557.172H167.109V544.031H168.703V549.297H170.297V543.766H171.953V557.891ZM165.516 546.844H161.984V553.125C162.807 553.115 163.549 553.083 164.211 553.031C164.872 552.979 165.542 552.891 166.219 552.766L166.344 554.188C165.562 554.344 164.792 554.448 164.031 554.5C163.271 554.552 162.323 554.583 161.188 554.594H160.234V545.438H165.516V546.844ZM186.531 556.25H173.625V554.812H179.188V552.516H175.156V547.891H183.281V546.141H175.125V544.734H185V549.266H176.891V551.094H185.328V552.516H180.906V554.812H186.531V556.25ZM192.672 547.156C192.672 548.042 192.807 548.898 193.078 549.727C193.354 550.549 193.755 551.279 194.281 551.914C194.812 552.549 195.443 553.026 196.172 553.344L195.125 554.734C194.344 554.354 193.669 553.807 193.102 553.094C192.539 552.38 192.104 551.552 191.797 550.609C191.479 551.609 191.031 552.49 190.453 553.25C189.88 554.01 189.198 554.594 188.406 555L187.312 553.594C188.057 553.245 188.698 552.734 189.234 552.062C189.776 551.391 190.188 550.628 190.469 549.773C190.755 548.919 190.901 548.047 190.906 547.156V544.906H192.672V547.156ZM199.297 557.906H197.578V549.734H194.609V548.328H197.578V543.766H199.297V557.906Z" fill="#2C3A50"/>
</g>
<rect width="393" height="119" fill="white"/>
<rect width="393" height="66.3895" fill="white"/>
<path d="M38.9526 38V28.1304H38.8032L35.8232 30.2305V28.2217L38.9526 26.022H41.0859V38H38.9526ZM48.8887 38.2407C47.9701 38.2407 47.1593 38.0941 46.4565 37.8008C45.7537 37.502 45.2031 37.0924 44.8047 36.5723C44.4118 36.0465 44.2153 35.4434 44.2153 34.7627V34.7461C44.2153 34.2314 44.3288 33.7666 44.5557 33.3516C44.7881 32.931 45.109 32.5768 45.5186 32.2891C45.9281 32.0013 46.3984 31.8049 46.9297 31.6997V31.6499C46.2435 31.4673 45.6901 31.1408 45.2695 30.6704C44.8545 30.1945 44.647 29.6356 44.647 28.9937V28.9771C44.647 28.3628 44.8268 27.8149 45.1865 27.3335C45.5518 26.8521 46.0526 26.473 46.689 26.1963C47.3309 25.9196 48.0641 25.7812 48.8887 25.7812C49.7132 25.7812 50.4437 25.9196 51.0801 26.1963C51.722 26.473 52.2228 26.8521 52.5825 27.3335C52.9422 27.8149 53.1221 28.3628 53.1221 28.9771V28.9937C53.1221 29.6356 52.9146 30.1945 52.4995 30.6704C52.0845 31.1408 51.5339 31.4673 50.8477 31.6499V31.6997C51.3789 31.8049 51.8493 32.0013 52.2588 32.2891C52.6683 32.5768 52.9865 32.931 53.2134 33.3516C53.4458 33.7666 53.562 34.2314 53.562 34.7461V34.7627C53.562 35.4434 53.3628 36.0465 52.9644 36.5723C52.5715 37.0924 52.0236 37.502 51.3208 37.8008C50.618 38.0941 49.8073 38.2407 48.8887 38.2407ZM48.8887 36.6055C49.3701 36.6055 49.7935 36.5225 50.1587 36.3564C50.5295 36.1849 50.82 35.9497 51.0303 35.6509C51.2406 35.3465 51.3457 35.0034 51.3457 34.6216V34.605C51.3457 34.2176 51.2406 33.8745 51.0303 33.5757C50.8255 33.2713 50.5378 33.0334 50.167 32.8618C49.7962 32.6903 49.3701 32.6045 48.8887 32.6045C48.4017 32.6045 47.9728 32.6903 47.6021 32.8618C47.2368 33.0334 46.9491 33.2713 46.7388 33.5757C46.5285 33.8745 46.4233 34.2176 46.4233 34.605V34.6216C46.4233 35.0034 46.5285 35.3465 46.7388 35.6509C46.9546 35.9497 47.2451 36.1849 47.6104 36.3564C47.9811 36.5225 48.4072 36.6055 48.8887 36.6055ZM48.8887 30.9692C49.3092 30.9692 49.6772 30.8945 49.9927 30.7451C50.3136 30.5902 50.5627 30.3799 50.7397 30.1143C50.9224 29.8486 51.0137 29.5387 51.0137 29.1846V29.168C51.0137 28.8193 50.9224 28.5122 50.7397 28.2466C50.5627 27.981 50.3136 27.7734 49.9927 27.624C49.6717 27.4746 49.3037 27.3999 48.8887 27.3999C48.4681 27.3999 48.0973 27.4746 47.7764 27.624C47.4609 27.7734 47.2119 27.981 47.0293 28.2466C46.8522 28.5122 46.7637 28.8193 46.7637 29.168V29.1846C46.7637 29.5387 46.8522 29.8486 47.0293 30.1143C47.2119 30.3799 47.4609 30.5902 47.7764 30.7451C48.0973 30.8945 48.4681 30.9692 48.8887 30.9692ZM57.4136 36.3896C57.0373 36.3896 56.7218 36.2651 56.4673 36.0161C56.2183 35.7616 56.0938 35.4517 56.0938 35.0864C56.0938 34.7157 56.2183 34.4058 56.4673 34.1567C56.7218 33.9022 57.0373 33.7749 57.4136 33.7749C57.7954 33.7749 58.1108 33.9022 58.3599 34.1567C58.6089 34.4058 58.7334 34.7157 58.7334 35.0864C58.7334 35.4517 58.6089 35.7616 58.3599 36.0161C58.1108 36.2651 57.7954 36.3896 57.4136 36.3896ZM57.4136 30.2305C57.0373 30.2305 56.7218 30.106 56.4673 29.8569C56.2183 29.6024 56.0938 29.2925 56.0938 28.9272C56.0938 28.5565 56.2183 28.2466 56.4673 27.9976C56.7218 27.743 57.0373 27.6157 57.4136 27.6157C57.7954 27.6157 58.1108 27.743 58.3599 27.9976C58.6089 28.2466 58.7334 28.5565 58.7334 28.9272C58.7334 29.2925 58.6089 29.6024 58.3599 29.8569C58.1108 30.106 57.7954 30.2305 57.4136 30.2305ZM65.7725 38.2988C64.8206 38.2988 64.0044 38.0443 63.3237 37.5352C62.6486 37.026 62.1284 36.3011 61.7632 35.3604C61.3979 34.4196 61.2153 33.3045 61.2153 32.0151V31.9985C61.2153 30.7091 61.3979 29.5968 61.7632 28.6616C62.1284 27.7209 62.6486 26.9959 63.3237 26.4868C64.0044 25.9777 64.8206 25.7231 65.7725 25.7231C66.7243 25.7231 67.5405 25.9777 68.2212 26.4868C68.9019 26.9959 69.4248 27.7209 69.79 28.6616C70.1553 29.5968 70.3379 30.7091 70.3379 31.9985V32.0151C70.3379 33.3045 70.1553 34.4196 69.79 35.3604C69.4248 36.3011 68.9019 37.026 68.2212 37.5352C67.5405 38.0443 66.7243 38.2988 65.7725 38.2988ZM65.7725 36.564C66.2816 36.564 66.716 36.3813 67.0757 36.0161C67.4354 35.6509 67.7093 35.1307 67.8975 34.4556C68.0911 33.7749 68.188 32.9614 68.188 32.0151V31.9985C68.188 31.0522 68.0911 30.2415 67.8975 29.5664C67.7093 28.8857 67.4354 28.3656 67.0757 28.0059C66.716 27.6406 66.2816 27.458 65.7725 27.458C65.2633 27.458 64.8289 27.6406 64.4692 28.0059C64.1151 28.3656 63.8411 28.8857 63.6475 29.5664C63.4593 30.2415 63.3652 31.0522 63.3652 31.9985V32.0151C63.3652 32.9614 63.4593 33.7749 63.6475 34.4556C63.8411 35.1307 64.1151 35.6509 64.4692 36.0161C64.8289 36.3813 65.2633 36.564 65.7725 36.564ZM77.0781 38.2988C76.1263 38.2988 75.3101 38.0443 74.6294 37.5352C73.9543 37.026 73.4341 36.3011 73.0688 35.3604C72.7036 34.4196 72.521 33.3045 72.521 32.0151V31.9985C72.521 30.7091 72.7036 29.5968 73.0688 28.6616C73.4341 27.7209 73.9543 26.9959 74.6294 26.4868C75.3101 25.9777 76.1263 25.7231 77.0781 25.7231C78.0299 25.7231 78.8462 25.9777 79.5269 26.4868C80.2075 26.9959 80.7305 27.7209 81.0957 28.6616C81.4609 29.5968 81.6436 30.7091 81.6436 31.9985V32.0151C81.6436 33.3045 81.4609 34.4196 81.0957 35.3604C80.7305 36.3011 80.2075 37.026 79.5269 37.5352C78.8462 38.0443 78.0299 38.2988 77.0781 38.2988ZM77.0781 36.564C77.5872 36.564 78.0216 36.3813 78.3813 36.0161C78.741 35.6509 79.015 35.1307 79.2031 34.4556C79.3968 33.7749 79.4937 32.9614 79.4937 32.0151V31.9985C79.4937 31.0522 79.3968 30.2415 79.2031 29.5664C79.015 28.8857 78.741 28.3656 78.3813 28.0059C78.0216 27.6406 77.5872 27.458 77.0781 27.458C76.569 27.458 76.1346 27.6406 75.7749 28.0059C75.4207 28.3656 75.1468 28.8857 74.9531 29.5664C74.765 30.2415 74.6709 31.0522 74.6709 31.9985V32.0151C74.6709 32.9614 74.765 33.7749 74.9531 34.4556C75.1468 35.1307 75.4207 35.6509 75.7749 36.0161C76.1346 36.3813 76.569 36.564 77.0781 36.564Z" fill="black"/>
<path fill-rule="evenodd" clip-rule="evenodd" d="M314.616 27.0329C314.616 26.3999 314.138 25.8867 313.549 25.8867H312.483C311.894 25.8867 311.416 26.3999 311.416 27.0329V36.9669C311.416 37.5999 311.894 38.1131 312.483 38.1131H313.549C314.138 38.1131 314.616 37.5999 314.616 36.9669V27.0329ZM307.182 28.332H308.249C308.838 28.332 309.315 28.8575 309.315 29.5057V36.9394C309.315 37.5876 308.838 38.1131 308.249 38.1131H307.182C306.593 38.1131 306.115 37.5876 306.115 36.9394V29.5057C306.115 28.8575 306.593 28.332 307.182 28.332ZM302.85 30.981H301.783C301.194 30.981 300.717 31.5132 300.717 32.1697V36.9244C300.717 37.5809 301.194 38.1131 301.783 38.1131H302.85C303.439 38.1131 303.917 37.5809 303.917 36.9244V32.1697C303.917 31.5132 303.439 30.981 302.85 30.981ZM297.549 33.4263H296.483C295.894 33.4263 295.416 33.9509 295.416 34.598V36.9414C295.416 37.5885 295.894 38.1131 296.483 38.1131H297.549C298.138 38.1131 298.616 37.5885 298.616 36.9414V34.598C298.616 33.9509 298.138 33.4263 297.549 33.4263Z" fill="black"/>
<path fill-rule="evenodd" clip-rule="evenodd" d="M330.187 28.3022C332.674 28.3023 335.066 29.2244 336.868 30.8779C337.004 31.0055 337.221 31.0039 337.355 30.8743L338.652 29.6108C338.72 29.545 338.757 29.456 338.757 29.3633C338.756 29.2706 338.718 29.182 338.649 29.117C333.918 24.7423 326.454 24.7423 321.723 29.117C321.655 29.1819 321.616 29.2705 321.615 29.3632C321.615 29.4559 321.652 29.545 321.72 29.6108L323.018 30.8743C323.151 31.0041 323.369 31.0057 323.504 30.8779C325.307 29.2243 327.699 28.3022 330.187 28.3022ZM330.183 32.5225C331.541 32.5224 332.849 33.0342 333.856 33.9583C333.992 34.0894 334.206 34.0866 334.339 33.9519L335.626 32.6326C335.694 32.5634 335.731 32.4695 335.73 32.3719C335.729 32.2744 335.69 32.1813 335.621 32.1135C332.557 29.2227 327.812 29.2227 324.748 32.1135C324.679 32.1813 324.64 32.2744 324.639 32.372C324.638 32.4696 324.676 32.5635 324.743 32.6326L326.03 33.9519C326.163 34.0866 326.377 34.0894 326.513 33.9583C327.519 33.0348 328.827 32.5231 330.183 32.5225ZM332.708 35.316C332.71 35.4214 332.672 35.523 332.605 35.5968L330.429 38.0515C330.365 38.1236 330.278 38.1642 330.187 38.1642C330.096 38.1642 330.009 38.1236 329.945 38.0515L327.768 35.5968C327.701 35.5229 327.664 35.4213 327.666 35.316C327.668 35.2106 327.709 35.1108 327.779 35.0402C329.169 33.7263 331.205 33.7263 332.595 35.0402C332.665 35.1109 332.706 35.2107 332.708 35.316Z" fill="black"/>
<rect opacity="0.35" x="346.256" y="26" width="24" height="12" rx="3.8" stroke="black"/>
<path opacity="0.4" d="M371.756 30.2812V34.3567C372.561 34.0116 373.084 33.2086 373.084 32.319C373.084 31.4294 372.561 30.6264 371.756 30.2812Z" fill="black"/>
<rect x="347.756" y="27.5" width="21" height="9" rx="2.5" fill="black"/>
<path d="M86.0293 90.6191V92.1836H79.8945V95.1016H77.9609V92.1836H71.5098V90.6191H86.0293ZM84.166 83.3945V89.1426H73.3555V83.3945H84.166ZM75.2539 84.9238V87.6133H82.2324V84.9238H75.2539ZM84.4297 96.666V98.248H73.2676V93.6426H75.2188V96.666H84.4297ZM92.7793 85.5391C92.7793 87.4902 94.0449 89.3184 96.5234 90.0742L95.5918 91.6035C93.8076 91.0498 92.542 89.916 91.8477 88.4746C91.1445 90.1445 89.7998 91.4717 87.8926 92.1133L86.9082 90.5664C89.4746 89.7227 90.8105 87.666 90.8105 85.5566V85.3633H87.4531V83.7812H96.084V85.3633H92.7793V85.5391ZM99.6172 82.6738V86.4883H101.832V88.0879H99.6172V92.1484H97.666V82.6738H99.6172ZM94.4492 92.5C97.7363 92.5 99.7578 93.6074 99.7754 95.5059C99.7578 97.4219 97.7363 98.5469 94.4492 98.5469C91.127 98.5469 89.0703 97.4219 89.0703 95.5059C89.0703 93.6074 91.127 92.5 94.4492 92.5ZM94.4492 94.0293C92.2695 94.0293 91.0215 94.5391 91.0215 95.5059C91.0215 96.4902 92.2695 97.0176 94.4492 97.0176C96.6289 97.0176 97.8418 96.4902 97.8418 95.5059C97.8418 94.5391 96.6289 94.0293 94.4492 94.0293ZM120.219 82.6914V94.416H118.268V88.5625H115.068V91.832H107.633V83.7285H109.584V86.2949H113.135V83.7285H115.068V86.9805H118.268V82.6914H120.219ZM120.57 96.666V98.248H109.742V93.2559H111.729V96.666H120.57ZM109.584 90.2852H113.135V87.8066H109.584V90.2852ZM135.775 92.8164V98.5645H133.824V94.3633H124.947V92.8164H135.775ZM135.775 82.6738V92.0605H133.824V89.9512H130.098C129.342 90.7949 128.199 91.3047 126.881 91.3047C124.49 91.3047 122.68 89.6875 122.68 87.4023C122.68 85.1523 124.49 83.5352 126.881 83.5527C128.19 83.5439 129.333 84.0361 130.08 84.8711H133.824V82.6738H135.775ZM126.881 85.2051C125.51 85.2051 124.543 86.084 124.543 87.4023C124.543 88.7734 125.51 89.6348 126.881 89.6523C128.182 89.6348 129.166 88.7734 129.184 87.4023C129.166 86.084 128.182 85.2051 126.881 85.2051ZM130.924 88.3691H133.824V86.4707H130.941C131.003 86.7695 131.047 87.0771 131.047 87.4023C131.047 87.7363 131.003 88.0615 130.924 88.3691ZM150.471 82.6738V89.002H152.914V90.6191H150.471V98.5645H148.537V82.6738H150.471ZM147.307 85.1172V86.6816H137.938V85.1172H141.699V82.9023H143.65V85.1172H147.307ZM142.684 87.7188C144.969 87.7188 146.674 89.2656 146.674 91.4629C146.674 93.6602 144.969 95.1895 142.684 95.1895C140.363 95.1895 138.658 93.6602 138.676 91.4629C138.658 89.2656 140.363 87.7188 142.684 87.7188ZM142.684 89.3184C141.436 89.3184 140.539 90.1621 140.539 91.4629C140.539 92.7637 141.436 93.5898 142.684 93.5723C143.896 93.5898 144.793 92.7637 144.811 91.4629C144.793 90.1621 143.896 89.3184 142.684 89.3184ZM166.854 82.6738V98.5645H164.885V82.6738H166.854ZM162.107 84.3613C162.107 89.0898 160.279 93.1152 154.707 95.752L153.688 94.1875C157.845 92.21 159.778 89.5205 160.121 85.9082H154.496V84.3613H162.107Z" fill="#1E1E1E"/>
<g filter="url(#filter5_i_4722_875)">
<rect x="33" y="142" width="326" height="18" rx="9" fill="#E3E7EA"/>
</g>
<rect x="29" y="138" width="334" height="26" rx="13" stroke="#F0F5FA" stroke-width="8"/>
<g filter="url(#filter6_i_4722_875)">
<rect x="33" y="142" width="128" height="18" rx="9" fill="#3C86FF"/>
</g>
<path d="M181.597 154.286V152.966L185.57 146.809H187.627V152.928H188.833V154.286H187.627V156H186.053V154.286H181.597ZM183.285 152.928H186.078V148.688H185.977L183.285 152.864V152.928ZM193.492 156.127C191.448 156.127 190.001 155.035 190.001 153.537C190.001 152.369 190.864 151.417 191.969 151.239V151.188C191.004 150.985 190.344 150.147 190.344 149.145C190.344 147.723 191.677 146.682 193.492 146.682C195.295 146.682 196.628 147.723 196.628 149.145C196.628 150.147 195.955 150.985 195.003 151.188V151.239C196.107 151.417 196.983 152.369 196.983 153.537C196.983 155.035 195.523 156.127 193.492 156.127ZM193.492 154.819C194.571 154.819 195.282 154.235 195.282 153.385C195.282 152.521 194.521 151.887 193.492 151.887C192.451 151.887 191.689 152.521 191.702 153.385C191.689 154.235 192.4 154.819 193.492 154.819ZM193.492 150.655C194.381 150.655 195.016 150.097 195.016 149.297C195.016 148.522 194.394 147.977 193.492 147.977C192.578 147.977 191.956 148.51 191.956 149.297C191.956 150.097 192.591 150.655 193.492 150.655ZM200.614 151.29C199.307 151.29 198.596 150.325 198.596 148.916C198.596 147.52 199.332 146.555 200.614 146.555C201.947 146.555 202.646 147.52 202.646 148.916C202.646 150.338 201.922 151.29 200.614 151.29ZM200.614 150.274C201.186 150.274 201.465 149.741 201.465 148.916C201.465 148.116 201.211 147.558 200.614 147.57C200.056 147.57 199.764 148.116 199.764 148.916C199.764 149.741 200.056 150.274 200.614 150.274ZM206.619 156.241C205.312 156.254 204.601 155.276 204.601 153.88C204.601 152.471 205.337 151.506 206.619 151.506C207.939 151.506 208.65 152.471 208.65 153.88C208.65 155.289 207.927 156.254 206.619 156.241ZM206.619 155.226C207.203 155.226 207.47 154.692 207.47 153.88C207.47 153.067 207.216 152.509 206.619 152.521C206.061 152.521 205.769 153.08 205.769 153.88C205.769 154.692 206.061 155.226 206.619 155.226ZM199.776 156L206.099 146.809H207.381L201.059 156H199.776Z" fill="#9E9FA7"/>
<path d="M45.5 81.5L37 90L45.5 98.5" stroke="#A0AEB9" stroke-width="2"/>
<g filter="url(#filter7_di_4722_875)">
<path d="M30 767C30 758.163 37.1634 751 46 751H347C355.837 751 363 758.163 363 767V795C363 803.837 355.837 811 347 811H46C37.1634 811 30 803.837 30 795V767Z" fill="#BEC3CD"/>
<path d="M46 751.5H347C355.56 751.5 362.5 758.44 362.5 767V795C362.5 803.56 355.56 810.5 347 810.5H46C37.4396 810.5 30.5 803.56 30.5 795V767C30.5 758.44 37.4396 751.5 46 751.5Z" stroke="white"/>
</g>
<path d="M179.309 772.621V788.617H177.182V772.621H179.309ZM176.039 772.885V787.879H173.93V779.916H171.82V778.105H173.93V772.885H176.039ZM170.537 776.91C170.537 779.564 171.363 782.254 173.701 783.59L172.383 785.242C170.959 784.398 170.019 782.966 169.482 781.252C168.929 783.115 167.962 784.697 166.494 785.594L165.141 783.941C167.496 782.5 168.375 779.617 168.375 776.91V776.049H165.756V774.256H172.963V776.049H170.537V776.91ZM195.586 779.441V781.076H189.434V782.078H193.846V785.98H184.934V786.859H194.268V788.512H182.736V784.469H191.631V783.678H182.719V782.078H187.201V781.076H181.066V779.441H195.586ZM189.416 772.604V773.869H194.215V775.521H189.697C190.137 776.453 191.771 777.218 195.006 777.35L194.355 779.002C191.385 778.861 189.328 778.105 188.309 776.893C187.298 778.105 185.232 778.861 182.244 779.002L181.629 777.35C184.837 777.218 186.463 776.453 186.92 775.521H182.438V773.869H187.201V772.604H189.416ZM209.209 772.621V778.879H211.564V780.725H209.209V788.617H206.994V772.621H209.209ZM205.904 775.012V776.805H196.5V775.012H200.121V772.867H202.371V775.012H205.904ZM201.246 777.701C203.584 777.701 205.324 779.283 205.324 781.516C205.324 783.748 203.584 785.33 201.246 785.33C198.891 785.33 197.15 783.748 197.15 781.516C197.15 779.283 198.891 777.701 201.246 777.701ZM201.246 779.512C200.121 779.529 199.295 780.285 199.295 781.516C199.295 782.764 200.121 783.502 201.246 783.484C202.371 783.502 203.18 782.764 203.18 781.516C203.18 780.285 202.371 779.529 201.246 779.512ZM225.592 772.621V788.617H223.324V772.621H225.592ZM220.793 774.291C220.793 779.143 219.088 783.168 213.375 785.875L212.197 784.082C216.328 782.131 218.147 779.6 218.508 776.049H213.059V774.291H220.793Z" fill="white"/>
<defs>
<filter id="filter0_d_4722_875" x="226.625" y="527" width="106.312" height="56" filterUnits="userSpaceOnUse" color-interpolation-filters="sRGB">
<feFlood flood-opacity="0" result="BackgroundImageFix"/>
<feColorMatrix in="SourceAlpha" type="matrix" values="0 0 0 0 0 0 0 0 0 0 0 0 0 0 0 0 0 0 127 0" result="hardAlpha"/>
<feOffset dy="2"/>
<feGaussianBlur stdDeviation="3"/>
<feComposite in2="hardAlpha" operator="out"/>
<feColorMatrix type="matrix" values="0 0 0 0 0.313726 0 0 0 0 0.470588 0 0 0 0 0.705882 0 0 0 0.08 0"/>
<feBlend mode="normal" in2="BackgroundImageFix" result="effect1_dropShadow_4722_875"/>
<feBlend mode="normal" in="SourceGraphic" in2="effect1_dropShadow_4722_875" result="shape"/>
</filter>
<filter id="filter1_d_4722_875" x="18" y="581" width="99.7188" height="56" filterUnits="userSpaceOnUse" color-interpolation-filters="sRGB">
<feFlood flood-opacity="0" result="BackgroundImageFix"/>
<feColorMatrix in="SourceAlpha" type="matrix" values="0 0 0 0 0 0 0 0 0 0 0 0 0 0 0 0 0 0 127 0" result="hardAlpha"/>
<feOffset dy="2"/>
<feGaussianBlur stdDeviation="3"/>
<feComposite in2="hardAlpha" operator="out"/>
<feColorMatrix type="matrix" values="0 0 0 0 0.313726 0 0 0 0 0.470588 0 0 0 0 0.705882 0 0 0 0.08 0"/>
<feBlend mode="normal" in2="BackgroundImageFix" result="effect1_dropShadow_4722_875"/>
<feBlend mode="normal" in="SourceGraphic" in2="effect1_dropShadow_4722_875" result="shape"/>
</filter>
<filter id="filter2_d_4722_875" x="115.719" y="581" width="96.2812" height="56" filterUnits="userSpaceOnUse" color-interpolation-filters="sRGB">
<feFlood flood-opacity="0" result="BackgroundImageFix"/>
<feColorMatrix in="SourceAlpha" type="matrix" values="0 0 0 0 0 0 0 0 0 0 0 0 0 0 0 0 0 0 127 0" result="hardAlpha"/>
<feOffset dy="2"/>
<feGaussianBlur stdDeviation="3"/>
<feComposite in2="hardAlpha" operator="out"/>
<feColorMatrix type="matrix" values="0 0 0 0 0.313726 0 0 0 0 0.470588 0 0 0 0 0.705882 0 0 0 0.08 0"/>
<feBlend mode="normal" in2="BackgroundImageFix" result="effect1_dropShadow_4722_875"/>
<feBlend mode="normal" in="SourceGraphic" in2="effect1_dropShadow_4722_875" result="shape"/>
</filter>
<filter id="filter3_d_4722_875" x="18" y="527" width="102.312" height="52" filterUnits="userSpaceOnUse" color-interpolation-filters="sRGB">
<feFlood flood-opacity="0" result="BackgroundImageFix"/>
<feColorMatrix in="SourceAlpha" type="matrix" values="0 0 0 0 0 0 0 0 0 0 0 0 0 0 0 0 0 0 127 0" result="hardAlpha"/>
<feOffset dy="2"/>
<feGaussianBlur stdDeviation="3"/>
<feComposite in2="hardAlpha" operator="out"/>
<feColorMatrix type="matrix" values="0 0 0 0 0.313726 0 0 0 0 0.470588 0 0 0 0 0.705882 0 0 0 0.12 0"/>
<feBlend mode="normal" in2="BackgroundImageFix" result="effect1_dropShadow_4722_875"/>
<feBlend mode="normal" in="SourceGraphic" in2="effect1_dropShadow_4722_875" result="shape"/>
</filter>
<filter id="filter4_d_4722_875" x="122" y="527" width="102.312" height="52" filterUnits="userSpaceOnUse" color-interpolation-filters="sRGB">
<feFlood flood-opacity="0" result="BackgroundImageFix"/>
<feColorMatrix in="SourceAlpha" type="matrix" values="0 0 0 0 0 0 0 0 0 0 0 0 0 0 0 0 0 0 127 0" result="hardAlpha"/>
<feOffset dy="2"/>
<feGaussianBlur stdDeviation="3"/>
<feComposite in2="hardAlpha" operator="out"/>
<feColorMatrix type="matrix" values="0 0 0 0 0.313726 0 0 0 0 0.470588 0 0 0 0 0.705882 0 0 0 0.12 0"/>
<feBlend mode="normal" in2="BackgroundImageFix" result="effect1_dropShadow_4722_875"/>
<feBlend mode="normal" in="SourceGraphic" in2="effect1_dropShadow_4722_875" result="shape"/>
</filter>
<filter id="filter5_i_4722_875" x="25" y="134" width="342" height="38" filterUnits="userSpaceOnUse" color-interpolation-filters="sRGB">
<feFlood flood-opacity="0" result="BackgroundImageFix"/>
<feBlend mode="normal" in="SourceGraphic" in2="BackgroundImageFix" result="shape"/>
<feColorMatrix in="SourceAlpha" type="matrix" values="0 0 0 0 0 0 0 0 0 0 0 0 0 0 0 0 0 0 127 0" result="hardAlpha"/>
<feOffset dy="4"/>
<feGaussianBlur stdDeviation="2"/>
<feComposite in2="hardAlpha" operator="arithmetic" k2="-1" k3="1"/>
<feColorMatrix type="matrix" values="0 0 0 0 0.651984 0 0 0 0 0.660851 0 0 0 0 0.705182 0 0 0 0.25 0"/>
<feBlend mode="normal" in2="shape" result="effect1_innerShadow_4722_875"/>
</filter>
<filter id="filter6_i_4722_875" x="33" y="142" width="128" height="22" filterUnits="userSpaceOnUse" color-interpolation-filters="sRGB">
<feFlood flood-opacity="0" result="BackgroundImageFix"/>
<feBlend mode="normal" in="SourceGraphic" in2="BackgroundImageFix" result="shape"/>
<feColorMatrix in="SourceAlpha" type="matrix" values="0 0 0 0 0 0 0 0 0 0 0 0 0 0 0 0 0 0 127 0" result="hardAlpha"/>
<feOffset dy="4"/>
<feGaussianBlur stdDeviation="2"/>
<feComposite in2="hardAlpha" operator="arithmetic" k2="-1" k3="1"/>
<feColorMatrix type="matrix" values="0 0 0 0 1 0 0 0 0 1 0 0 0 0 1 0 0 0 0.25 0"/>
<feBlend mode="normal" in2="shape" result="effect1_innerShadow_4722_875"/>
</filter>
<filter id="filter7_di_4722_875" x="26" y="747" width="341" height="68" filterUnits="userSpaceOnUse" color-interpolation-filters="sRGB">
<feFlood flood-opacity="0" result="BackgroundImageFix"/>
<feColorMatrix in="SourceAlpha" type="matrix" values="0 0 0 0 0 0 0 0 0 0 0 0 0 0 0 0 0 0 127 0" result="hardAlpha"/>
<feOffset/>
<feGaussianBlur stdDeviation="2"/>
<feComposite in2="hardAlpha" operator="out"/>
<feColorMatrix type="matrix" values="0 0 0 0 0.715912 0 0 0 0 0.69906 0 0 0 0 0.614798 0 0 0 0.25 0"/>
<feBlend mode="normal" in2="BackgroundImageFix" result="effect1_dropShadow_4722_875"/>
<feBlend mode="normal" in="SourceGraphic" in2="effect1_dropShadow_4722_875" result="shape"/>
<feColorMatrix in="SourceAlpha" type="matrix" values="0 0 0 0 0 0 0 0 0 0 0 0 0 0 0 0 0 0 127 0" result="hardAlpha"/>
<feOffset dy="4"/>
<feGaussianBlur stdDeviation="2"/>
<feComposite in2="hardAlpha" operator="arithmetic" k2="-1" k3="1"/>
<feColorMatrix type="matrix" values="0 0 0 0 1 0 0 0 0 1 0 0 0 0 1 0 0 0 0.25 0"/>
<feBlend mode="normal" in2="shape" result="effect2_innerShadow_4722_875"/>
</filter>
</defs>
</svg>
