<svg width="393" height="852" viewBox="0 0 393 852" fill="none" xmlns="http://www.w3.org/2000/svg">
<rect width="393" height="852" fill="white"/>
<mask id="path-1-inside-1_3464_1546" fill="white">
<path d="M20 400H373V404H20V400Z"/>
</mask>
<path d="M373 404V402H20V404V406H373V404Z" fill="#D9D9D9" mask="url(#path-1-inside-1_3464_1546)"/>
<mask id="path-3-inside-2_3464_1546" fill="white">
<path d="M20 456H373V460H20V456Z"/>
</mask>
<path d="M373 460V458H20V460V462H373V460Z" fill="#D9D9D9" mask="url(#path-3-inside-2_3464_1546)"/>
<rect x="17" y="252" width="306" height="84" rx="24" fill="white"/>
<path d="M55.5312 261.418H57.9727V263.195H55.5312V267.395H53.3438V257.082H55.5312V261.418ZM49.7695 267.727C50.9674 267.727 52.0091 267.867 52.8945 268.146C53.7865 268.42 54.4733 268.817 54.9551 269.338C55.4368 269.859 55.681 270.48 55.6875 271.203C55.681 271.939 55.4368 272.57 54.9551 273.098C54.4733 273.625 53.7897 274.025 52.9043 274.299C52.0189 274.579 50.974 274.719 49.7695 274.719C48.5521 274.719 47.4941 274.579 46.5957 274.299C45.6973 274.025 45.0039 273.625 44.5156 273.098C44.0339 272.57 43.793 271.939 43.793 271.203C43.793 270.48 44.0339 269.859 44.5156 269.338C45.0039 268.817 45.6973 268.42 46.5957 268.146C47.5007 267.867 48.5586 267.727 49.7695 267.727ZM49.7695 269.465C48.5456 269.465 47.5983 269.615 46.9277 269.914C46.2637 270.214 45.9349 270.643 45.9414 271.203C45.9349 271.776 46.2637 272.215 46.9277 272.521C47.5983 272.827 48.5456 272.98 49.7695 272.98C50.974 272.98 51.9082 272.827 52.5723 272.521C53.2428 272.215 53.5781 271.776 53.5781 271.203C53.5781 270.643 53.2428 270.214 52.5723 269.914C51.9082 269.615 50.974 269.465 49.7695 269.465ZM50.1797 260.09H44.418V264.523C46.1888 264.517 47.6048 264.478 48.666 264.406C49.7272 264.328 50.7591 264.185 51.7617 263.977L51.9766 265.715C50.8893 265.949 49.7598 266.102 48.5879 266.174C47.416 266.245 45.7852 266.281 43.6953 266.281H42.2695V258.332H50.1797V260.09ZM73.5781 269.992H71.3906V257.102H73.5781V269.992ZM74.0664 274.387H61.8984V268.762H64.0859V272.629H74.0664V274.387ZM65.4531 259.797C65.4531 260.63 65.6126 261.424 65.9316 262.18C66.2572 262.935 66.7389 263.605 67.377 264.191C68.015 264.771 68.7865 265.214 69.6914 265.52L68.5781 267.238C67.5885 266.893 66.7357 266.385 66.0195 265.715C65.3034 265.044 64.7467 264.25 64.3496 263.332C63.946 264.322 63.3763 265.181 62.6406 265.91C61.9115 266.639 61.0391 267.186 60.0234 267.551L58.8906 265.832C59.8216 265.507 60.6094 265.035 61.2539 264.416C61.9049 263.791 62.3932 263.081 62.7188 262.287C63.0443 261.493 63.207 260.663 63.207 259.797V258.078H65.4531V259.797ZM92.25 267.941H76.1562V266.203H92.25V267.941ZM90.4336 274.387H78.1484V269.25H80.3164V272.629H90.4336V274.387ZM84.1836 257.648C85.4596 257.648 86.5762 257.792 87.5332 258.078C88.4902 258.365 89.2292 258.778 89.75 259.318C90.2773 259.852 90.5443 260.487 90.5508 261.223C90.5443 261.965 90.2773 262.609 89.75 263.156C89.2292 263.697 88.4902 264.113 87.5332 264.406C86.5762 264.693 85.4596 264.836 84.1836 264.836C82.9076 264.836 81.7878 264.693 80.8242 264.406C79.8672 264.113 79.125 263.697 78.5977 263.156C78.0768 262.609 77.8164 261.965 77.8164 261.223C77.8164 260.487 78.0768 259.852 78.5977 259.318C79.125 258.778 79.8672 258.365 80.8242 258.078C81.7878 257.792 82.9076 257.648 84.1836 257.648ZM84.1836 259.387C82.8945 259.387 81.8854 259.549 81.1562 259.875C80.4336 260.194 80.0755 260.643 80.082 261.223C80.0755 261.613 80.235 261.949 80.5605 262.229C80.8926 262.508 81.3646 262.72 81.9766 262.863C82.5951 263 83.3307 263.065 84.1836 263.059C85.4792 263.072 86.4883 262.919 87.2109 262.6C87.9401 262.274 88.3047 261.815 88.3047 261.223C88.3047 260.637 87.9401 260.184 87.2109 259.865C86.4883 259.546 85.4792 259.387 84.1836 259.387ZM104.77 259.289C104.77 260.031 104.932 260.744 105.258 261.428C105.59 262.111 106.078 262.717 106.723 263.244C107.367 263.765 108.142 264.159 109.047 264.426L108.012 266.125C106.996 265.806 106.117 265.337 105.375 264.719C104.639 264.094 104.07 263.358 103.666 262.512C103.256 263.443 102.676 264.247 101.928 264.924C101.179 265.601 100.284 266.099 99.2422 266.418L98.1875 264.719C99.112 264.426 99.8997 264.003 100.551 263.449C101.202 262.889 101.693 262.251 102.025 261.535C102.357 260.812 102.523 260.064 102.523 259.289V257.629H104.77V259.289ZM112.895 266.555H110.707V257.082H112.895V266.555ZM103.363 269.191H110.727V267.375H112.895V274.523H101.215V267.375H103.363V269.191ZM110.727 272.766V270.891H103.363V272.766H110.727ZM130.668 274.738H128.598V265.734H126.605V273.84H124.613V257.414H126.605V263.996H128.598V257.082H130.668V274.738ZM122.621 260.93H118.207V268.781C119.236 268.768 120.163 268.729 120.99 268.664C121.817 268.599 122.654 268.488 123.5 268.332L123.656 270.109C122.68 270.305 121.716 270.435 120.766 270.5C119.815 270.565 118.63 270.604 117.211 270.617H116.02V259.172H122.621V260.93ZM148.891 272.688H132.758V270.891H139.711V268.02H134.672V262.238H144.828V260.051H134.633V258.293H146.977V263.957H136.84V266.242H147.387V268.02H141.859V270.891H148.891V272.688ZM156.566 261.32C156.566 262.427 156.736 263.498 157.074 264.533C157.419 265.562 157.921 266.473 158.578 267.268C159.242 268.062 160.03 268.658 160.941 269.055L159.633 270.793C158.656 270.318 157.813 269.634 157.104 268.742C156.4 267.85 155.857 266.815 155.473 265.637C155.076 266.887 154.516 267.987 153.793 268.938C153.077 269.888 152.224 270.617 151.234 271.125L149.867 269.367C150.798 268.931 151.599 268.293 152.27 267.453C152.947 266.613 153.461 265.66 153.812 264.592C154.171 263.524 154.353 262.434 154.359 261.32V258.508H156.566V261.32ZM164.848 274.758H162.699V264.543H158.988V262.785H162.699V257.082H164.848V274.758ZM184.418 273H182.152L175.453 263.332H175.336V273H172.797V258.859H175.102L181.762 268.527H181.898V258.859H184.418V273ZM196.508 263.371C196.28 262.609 195.876 262.017 195.297 261.594C194.724 261.164 194.014 260.949 193.168 260.949C192.4 260.949 191.719 261.145 191.127 261.535C190.535 261.919 190.072 262.486 189.74 263.234C189.408 263.983 189.242 264.875 189.242 265.91C189.242 266.965 189.408 267.87 189.74 268.625C190.072 269.374 190.538 269.943 191.137 270.334C191.736 270.718 192.432 270.91 193.227 270.91C193.93 270.91 194.545 270.777 195.072 270.51C195.6 270.236 196.01 269.852 196.303 269.357C196.596 268.856 196.749 268.273 196.762 267.609H193.48V265.598H199.223V267.297C199.223 268.488 198.965 269.53 198.451 270.422C197.943 271.307 197.237 271.991 196.332 272.473C195.427 272.954 194.392 273.195 193.227 273.195C191.931 273.195 190.788 272.902 189.799 272.316C188.809 271.724 188.041 270.881 187.494 269.787C186.954 268.693 186.684 267.408 186.684 265.93C186.684 264.452 186.96 263.166 187.514 262.072C188.074 260.972 188.842 260.129 189.818 259.543C190.801 258.957 191.911 258.664 193.148 258.664C194.177 258.664 195.118 258.863 195.971 259.26C196.824 259.657 197.523 260.214 198.07 260.93C198.617 261.639 198.962 262.453 199.105 263.371H196.508ZM214.145 265.93C214.145 267.421 213.865 268.713 213.305 269.807C212.745 270.9 211.973 271.74 210.99 272.326C210.014 272.906 208.904 273.195 207.66 273.195C206.417 273.195 205.303 272.906 204.32 272.326C203.344 271.74 202.576 270.9 202.016 269.807C201.456 268.706 201.176 267.414 201.176 265.93C201.176 264.439 201.456 263.146 202.016 262.053C202.576 260.959 203.344 260.122 204.32 259.543C205.303 258.957 206.417 258.664 207.66 258.664C208.904 258.664 210.014 258.957 210.99 259.543C211.973 260.122 212.745 260.959 213.305 262.053C213.865 263.146 214.145 264.439 214.145 265.93ZM211.586 265.93C211.586 264.875 211.42 263.977 211.088 263.234C210.762 262.486 210.303 261.919 209.711 261.535C209.118 261.145 208.435 260.949 207.66 260.949C206.885 260.949 206.202 261.145 205.609 261.535C205.017 261.919 204.555 262.486 204.223 263.234C203.897 263.977 203.734 264.875 203.734 265.93C203.734 266.984 203.897 267.886 204.223 268.635C204.555 269.377 205.017 269.943 205.609 270.334C206.202 270.718 206.885 270.91 207.66 270.91C208.435 270.91 209.118 270.718 209.711 270.334C210.303 269.943 210.762 269.377 211.088 268.635C211.42 267.886 211.586 266.984 211.586 265.93ZM231.801 265.871H215.688V264.152H231.801V265.871ZM229.887 263.02H217.738V257.531H229.73V259.27H219.906V261.301H229.887V263.02ZM229.77 271.516H219.73V272.863H230.258V274.562H217.602V269.953H227.641V268.723H217.582V267.082H229.77V271.516ZM242.836 260.168C242.836 261.327 242.807 262.424 242.748 263.459C242.696 264.488 242.562 265.669 242.348 267.004L240.199 266.828C240.388 265.63 240.512 264.549 240.57 263.586C240.635 262.622 240.671 261.646 240.678 260.656H233.754V258.918H242.836V260.168ZM238.383 269.172C240.388 269.094 242.165 268.957 243.715 268.762L243.832 270.383C241.111 270.812 237.777 271.027 233.832 271.027H233.031L232.816 269.289C234.34 269.276 235.479 269.26 236.234 269.24V263.957H238.383V269.172ZM246.82 264.27H249.379V266.105H246.82V274.738H244.633V257.082H246.82V264.27ZM260.004 257.648C260.889 257.648 261.687 257.821 262.396 258.166C263.106 258.505 263.663 258.977 264.066 259.582C264.477 260.188 264.685 260.871 264.691 261.633C264.685 262.401 264.477 263.088 264.066 263.693C263.663 264.299 263.106 264.771 262.396 265.109C261.687 265.448 260.889 265.617 260.004 265.617C259.112 265.617 258.308 265.448 257.592 265.109C256.882 264.771 256.326 264.299 255.922 263.693C255.518 263.088 255.316 262.401 255.316 261.633C255.316 260.871 255.518 260.188 255.922 259.582C256.326 258.977 256.885 258.505 257.602 258.166C258.318 257.821 259.118 257.648 260.004 257.648ZM260.004 259.445C259.509 259.445 259.066 259.536 258.676 259.719C258.285 259.895 257.979 260.148 257.758 260.48C257.536 260.806 257.426 261.19 257.426 261.633C257.426 262.082 257.536 262.476 257.758 262.814C257.979 263.146 258.285 263.404 258.676 263.586C259.066 263.768 259.509 263.859 260.004 263.859C260.499 263.859 260.941 263.768 261.332 263.586C261.723 263.404 262.029 263.146 262.25 262.814C262.471 262.476 262.582 262.082 262.582 261.633C262.582 261.19 262.471 260.806 262.25 260.48C262.029 260.148 261.723 259.895 261.332 259.719C260.941 259.536 260.499 259.445 260.004 259.445ZM269.711 266.008H267.523V257.082H269.711V266.008ZM269.711 271.379H260.16V272.805H270.238V274.523H258.031V269.777H267.543V268.469H257.992V266.77H269.711V271.379ZM286.215 261.027H288.695V262.785H286.215V266.672H284.047V257.043H286.215V261.027ZM286.215 271.711H276.84V272.961H286.762V274.582H274.691V270.207H284.047V269.035H274.672V267.453H286.215V271.711ZM282.777 260.168H272.309V258.508H276.469V256.945H278.637V258.508H282.777V260.168ZM277.543 260.715C278.409 260.721 279.164 260.845 279.809 261.086C280.46 261.32 280.961 261.656 281.312 262.092C281.671 262.521 281.853 263.026 281.859 263.605C281.853 264.204 281.671 264.722 281.312 265.158C280.961 265.588 280.463 265.92 279.818 266.154C279.174 266.382 278.415 266.496 277.543 266.496C276.671 266.496 275.909 266.382 275.258 266.154C274.607 265.92 274.102 265.588 273.744 265.158C273.386 264.722 273.207 264.204 273.207 263.605C273.207 263.026 273.386 262.521 273.744 262.092C274.102 261.656 274.607 261.32 275.258 261.086C275.915 260.845 276.677 260.721 277.543 260.715ZM277.543 262.277C276.853 262.277 276.309 262.395 275.912 262.629C275.515 262.863 275.316 263.189 275.316 263.605C275.316 264.029 275.515 264.357 275.912 264.592C276.309 264.82 276.853 264.934 277.543 264.934C278.24 264.934 278.786 264.82 279.184 264.592C279.587 264.357 279.789 264.029 279.789 263.605C279.789 263.189 279.587 262.863 279.184 262.629C278.78 262.395 278.233 262.277 277.543 262.277ZM50.7852 286.547C50.7852 287.289 51.0456 288.012 51.5664 288.715C52.0938 289.418 52.8294 290.02 53.7734 290.521C54.724 291.023 55.8112 291.352 57.0352 291.508L56.1758 293.266C54.6914 293.044 53.3763 292.589 52.2305 291.898C51.0846 291.202 50.222 290.352 49.6426 289.35C49.0632 290.352 48.2038 291.202 47.0645 291.898C45.9251 292.589 44.6198 293.044 43.1484 293.266L42.2891 291.508C43.5 291.352 44.5775 291.023 45.5215 290.521C46.4655 290.02 47.1979 289.418 47.7188 288.715C48.2396 288.012 48.5 287.289 48.5 286.547V285.648H50.7852V286.547ZM57.6797 296.586H50.668V302.738H48.5195V296.586H41.5859V294.789H57.6797V296.586ZM69.8867 296.566C69.8867 297.341 70.069 298.083 70.4336 298.793C70.8047 299.496 71.3516 300.079 72.0742 300.541C72.8034 300.046 73.36 299.441 73.7441 298.725C74.1283 298.002 74.3268 297.283 74.3398 296.566V295.844H76.4688V296.566C76.4622 297.198 76.5827 297.797 76.8301 298.363C77.0775 298.93 77.4551 299.431 77.9629 299.867C78.4772 300.303 79.112 300.642 79.8672 300.883L78.8125 302.465C77.9727 302.185 77.263 301.778 76.6836 301.244C76.1042 300.71 75.6549 300.082 75.3359 299.359C75.0365 300.089 74.6165 300.736 74.0762 301.303C73.5423 301.876 72.8945 302.315 72.1328 302.621C71.3255 302.328 70.6484 301.905 70.1016 301.352C69.5547 300.798 69.1348 300.154 68.8418 299.418C68.5228 300.115 68.0768 300.723 67.5039 301.244C66.9375 301.771 66.2539 302.178 65.4531 302.465L64.3789 300.883C65.1146 300.622 65.7363 300.268 66.2441 299.818C66.752 299.363 67.1328 298.855 67.3867 298.295C67.6406 297.735 67.7708 297.159 67.7773 296.566V295.844H69.8867V296.566ZM78.3242 295.102H76.1367V285.102H78.3242V295.102ZM68.6953 286.039C69.5938 286.039 70.4043 286.218 71.127 286.576C71.8496 286.928 72.416 287.423 72.8262 288.061C73.2363 288.699 73.4414 289.424 73.4414 290.238C73.4414 291.046 73.2363 291.768 72.8262 292.406C72.416 293.038 71.8496 293.533 71.127 293.891C70.4043 294.242 69.5938 294.418 68.6953 294.418C67.7904 294.418 66.9766 294.242 66.2539 293.891C65.5312 293.533 64.9616 293.038 64.5449 292.406C64.1348 291.768 63.9297 291.046 63.9297 290.238C63.9297 289.424 64.1348 288.699 64.5449 288.061C64.9616 287.423 65.5312 286.928 66.2539 286.576C66.9766 286.218 67.7904 286.039 68.6953 286.039ZM68.6953 287.875C68.181 287.875 67.722 287.973 67.3184 288.168C66.9212 288.363 66.6087 288.64 66.3809 288.998C66.1595 289.35 66.0521 289.763 66.0586 290.238C66.0521 290.714 66.1595 291.13 66.3809 291.488C66.6087 291.846 66.9212 292.126 67.3184 292.328C67.722 292.523 68.181 292.621 68.6953 292.621C69.2031 292.621 69.6523 292.523 70.043 292.328C70.4401 292.133 70.7493 291.856 70.9707 291.498C71.1986 291.133 71.3125 290.714 71.3125 290.238C71.3125 289.763 71.2018 289.35 70.9805 288.998C70.7591 288.64 70.4499 288.363 70.0527 288.168C69.6556 287.973 69.2031 287.875 68.6953 287.875ZM84.9844 297.348H92.7578V295.668H94.9258V302.523H82.8359V295.668H84.9844V297.348ZM92.7578 300.805V299.008H84.9844V300.805H92.7578ZM96.9961 294.672H80.9023V292.895H96.9961V294.672ZM90.0625 285.941C90.0625 286.573 90.3164 287.195 90.8242 287.807C91.3385 288.419 92.0579 288.946 92.9824 289.389C93.9069 289.831 94.9583 290.121 96.1367 290.258L95.375 291.977C93.9102 291.775 92.6146 291.368 91.4883 290.756C90.3685 290.137 89.5221 289.379 88.9492 288.48C88.3763 289.385 87.5267 290.144 86.4004 290.756C85.2806 291.368 83.9883 291.775 82.5234 291.977L81.7227 290.258C82.9206 290.115 83.9818 289.828 84.9062 289.398C85.8307 288.962 86.5469 288.441 87.0547 287.836C87.569 287.224 87.8294 286.592 87.8359 285.941V285.277H90.0625V285.941ZM112.914 302.738H110.766V285.082H112.914V302.738ZM101.352 296.449C104.092 296.404 106.703 296.137 109.184 295.648L109.457 297.465C107.992 297.771 106.54 297.989 105.102 298.119C103.669 298.243 102.211 298.305 100.727 298.305H99.2031V286.801H101.352V296.449ZM129.301 291.781H132.016V293.559H129.301V302.758H127.133V285.082H129.301V291.781ZM124.457 288.52H118.363V296.625C119.789 296.625 121.075 296.583 122.221 296.498C123.367 296.413 124.529 296.267 125.707 296.059L125.961 297.895C124.685 298.116 123.422 298.262 122.172 298.334C120.928 298.406 119.424 298.441 117.66 298.441H116.195V286.762H124.457V288.52ZM134.906 301.156C134.633 301.156 134.379 301.088 134.145 300.951C133.91 300.814 133.725 300.629 133.588 300.395C133.451 300.16 133.383 299.906 133.383 299.633C133.383 299.366 133.451 299.118 133.588 298.891C133.725 298.656 133.91 298.471 134.145 298.334C134.379 298.197 134.633 298.129 134.906 298.129C135.167 298.129 135.411 298.197 135.639 298.334C135.873 298.471 136.059 298.656 136.195 298.891C136.339 299.118 136.41 299.366 136.41 299.633C136.41 299.906 136.339 300.16 136.195 300.395C136.059 300.629 135.873 300.814 135.639 300.951C135.411 301.088 135.167 301.156 134.906 301.156ZM143.578 295.609C143.578 292.159 144.555 289.04 146.508 286.254H148.852C148.389 286.911 147.95 287.758 147.533 288.793C147.123 289.822 146.791 290.935 146.537 292.133C146.283 293.331 146.156 294.49 146.156 295.609C146.156 296.729 146.283 297.888 146.537 299.086C146.791 300.284 147.123 301.397 147.533 302.426C147.95 303.461 148.389 304.314 148.852 304.984H146.508C145.557 303.617 144.831 302.162 144.33 300.619C143.829 299.07 143.578 297.4 143.578 295.609ZM149.809 290.395H152.348L154.223 297.855H154.32L156.215 290.395H158.734L160.648 297.816H160.746L162.602 290.395H165.141L162.133 301H159.535L157.543 293.812H157.406L155.414 301H152.816L149.809 290.395ZM171.059 301.215C170.043 301.215 169.151 300.987 168.383 300.531C167.615 300.076 167.022 299.438 166.605 298.617C166.189 297.79 165.98 296.833 165.98 295.746C165.98 294.652 166.189 293.692 166.605 292.865C167.022 292.038 167.615 291.397 168.383 290.941C169.151 290.486 170.043 290.258 171.059 290.258C172.081 290.258 172.976 290.486 173.744 290.941C174.512 291.397 175.102 292.038 175.512 292.865C175.928 293.692 176.137 294.652 176.137 295.746C176.137 296.833 175.928 297.79 175.512 298.617C175.095 299.444 174.503 300.085 173.734 300.541C172.973 300.99 172.081 301.215 171.059 301.215ZM171.078 299.223C171.625 299.223 172.087 299.07 172.465 298.764C172.849 298.458 173.135 298.041 173.324 297.514C173.52 296.986 173.617 296.391 173.617 295.727C173.617 295.069 173.52 294.477 173.324 293.949C173.135 293.415 172.849 292.995 172.465 292.689C172.087 292.383 171.625 292.23 171.078 292.23C170.518 292.23 170.043 292.383 169.652 292.689C169.268 292.995 168.979 293.412 168.783 293.939C168.594 294.467 168.5 295.062 168.5 295.727C168.5 296.391 168.594 296.986 168.783 297.514C168.979 298.041 169.268 298.458 169.652 298.764C170.043 299.07 170.518 299.223 171.078 299.223ZM178.07 290.395H180.492V292.152H180.609C180.792 291.553 181.12 291.085 181.596 290.746C182.071 290.408 182.615 290.238 183.227 290.238C183.591 290.238 183.891 290.258 184.125 290.297V292.602C184.014 292.562 183.845 292.527 183.617 292.494C183.389 292.462 183.174 292.445 182.973 292.445C182.517 292.445 182.107 292.543 181.742 292.738C181.378 292.934 181.091 293.207 180.883 293.559C180.674 293.91 180.57 294.307 180.57 294.75V301H178.07V290.395ZM185.609 286.859H188.109V294.652H188.285L192.094 290.395H195.004L190.893 294.965L195.258 301H192.289L189.027 296.449L188.109 297.426V301H185.609V286.859ZM197.68 305.082H195.824L196.84 299.613H199.32L197.68 305.082ZM211.645 292.309H209.555V297.816C209.555 298.285 209.652 298.607 209.848 298.783C210.049 298.959 210.329 299.047 210.688 299.047C211 299.047 211.365 299.034 211.781 299.008V301.039C211.456 301.104 210.987 301.137 210.375 301.137C209.73 301.137 209.158 301.033 208.656 300.824C208.161 300.609 207.771 300.284 207.484 299.848C207.204 299.411 207.068 298.871 207.074 298.227V292.309H205.551V290.395H207.074V287.855H209.555V290.395H211.645V292.309ZM218.168 301.215C217.113 301.215 216.195 300.993 215.414 300.551C214.639 300.102 214.044 299.467 213.627 298.646C213.217 297.826 213.012 296.866 213.012 295.766C213.012 294.678 213.22 293.721 213.637 292.895C214.053 292.061 214.639 291.413 215.395 290.951C216.156 290.489 217.035 290.258 218.031 290.258C218.93 290.258 219.743 290.45 220.473 290.834C221.208 291.218 221.791 291.814 222.221 292.621C222.657 293.422 222.875 294.418 222.875 295.609V296.391H215.473C215.479 296.983 215.596 297.497 215.824 297.934C216.052 298.363 216.368 298.692 216.771 298.92C217.175 299.148 217.647 299.262 218.188 299.262C218.715 299.262 219.164 299.161 219.535 298.959C219.906 298.757 220.173 298.493 220.336 298.168H222.777C222.628 298.78 222.344 299.317 221.928 299.779C221.511 300.235 220.98 300.59 220.336 300.844C219.698 301.091 218.975 301.215 218.168 301.215ZM220.492 294.691C220.486 294.21 220.382 293.78 220.18 293.402C219.978 293.025 219.695 292.729 219.33 292.514C218.965 292.299 218.546 292.191 218.07 292.191C217.582 292.191 217.146 292.305 216.762 292.533C216.384 292.755 216.085 293.057 215.863 293.441C215.642 293.819 215.515 294.236 215.482 294.691H220.492ZM229.516 301.215C228.461 301.215 227.543 300.993 226.762 300.551C225.987 300.102 225.391 299.467 224.975 298.646C224.564 297.826 224.359 296.866 224.359 295.766C224.359 294.678 224.568 293.721 224.984 292.895C225.401 292.061 225.987 291.413 226.742 290.951C227.504 290.489 228.383 290.258 229.379 290.258C230.277 290.258 231.091 290.45 231.82 290.834C232.556 291.218 233.139 291.814 233.568 292.621C234.005 293.422 234.223 294.418 234.223 295.609V296.391H226.82C226.827 296.983 226.944 297.497 227.172 297.934C227.4 298.363 227.715 298.692 228.119 298.92C228.523 299.148 228.995 299.262 229.535 299.262C230.062 299.262 230.512 299.161 230.883 298.959C231.254 298.757 231.521 298.493 231.684 298.168H234.125C233.975 298.78 233.692 299.317 233.275 299.779C232.859 300.235 232.328 300.59 231.684 300.844C231.046 301.091 230.323 301.215 229.516 301.215ZM231.84 294.691C231.833 294.21 231.729 293.78 231.527 293.402C231.326 293.025 231.042 292.729 230.678 292.514C230.313 292.299 229.893 292.191 229.418 292.191C228.93 292.191 228.493 292.305 228.109 292.533C227.732 292.755 227.432 293.057 227.211 293.441C226.99 293.819 226.863 294.236 226.83 294.691H231.84ZM238.656 301H236.156V290.395H238.539V292.191H238.676C238.923 291.579 239.314 291.104 239.848 290.766C240.388 290.427 241.046 290.258 241.82 290.258C242.556 290.258 243.197 290.414 243.744 290.727C244.298 291.039 244.721 291.495 245.014 292.094C245.313 292.693 245.46 293.409 245.453 294.242V301H242.973V294.633C242.973 293.917 242.79 293.36 242.426 292.963C242.061 292.566 241.553 292.367 240.902 292.367C240.46 292.367 240.069 292.465 239.73 292.66C239.392 292.849 239.128 293.126 238.939 293.49C238.751 293.848 238.656 294.281 238.656 294.789V301ZM247.348 298.012C247.348 296.918 247.715 296.13 248.451 295.648C249.193 295.16 250.141 294.88 251.293 294.809C252.419 294.73 253.324 294.678 254.008 294.652V293.812C254.008 293.285 253.842 292.878 253.51 292.592C253.178 292.299 252.706 292.152 252.094 292.152C251.553 292.152 251.111 292.266 250.766 292.494C250.421 292.722 250.199 293.031 250.102 293.422H247.699C247.758 292.816 247.973 292.276 248.344 291.801C248.715 291.319 249.226 290.941 249.877 290.668C250.528 290.395 251.286 290.258 252.152 290.258C252.895 290.258 253.591 290.375 254.242 290.609C254.9 290.837 255.437 291.225 255.854 291.771C256.277 292.312 256.488 293.025 256.488 293.91V301H254.105V299.535H254.027C253.767 300.03 253.376 300.434 252.855 300.746C252.335 301.059 251.684 301.215 250.902 301.215C250.219 301.215 249.607 301.091 249.066 300.844C248.533 300.596 248.113 300.232 247.807 299.75C247.501 299.268 247.348 298.689 247.348 298.012ZM249.75 297.992C249.75 298.441 249.913 298.786 250.238 299.027C250.564 299.262 251 299.379 251.547 299.379C252.035 299.379 252.468 299.281 252.846 299.086C253.223 298.891 253.513 298.627 253.715 298.295C253.923 297.956 254.027 297.589 254.027 297.191L254.018 296.322L251.684 296.469C251.072 296.521 250.596 296.674 250.258 296.928C249.919 297.182 249.75 297.536 249.75 297.992ZM263.461 305.199C262.53 305.199 261.716 305.066 261.02 304.799C260.329 304.538 259.783 304.164 259.379 303.676C258.982 303.194 258.754 302.621 258.695 301.957H261.176C261.26 302.406 261.505 302.745 261.908 302.973C262.318 303.207 262.849 303.324 263.5 303.324C264.275 303.324 264.877 303.145 265.307 302.787C265.743 302.429 265.961 301.872 265.961 301.117V299.086H265.844C265.596 299.574 265.229 299.991 264.74 300.336C264.258 300.674 263.604 300.844 262.777 300.844C261.951 300.844 261.205 300.645 260.541 300.248C259.877 299.844 259.353 299.252 258.969 298.471C258.591 297.683 258.402 296.729 258.402 295.609C258.402 294.477 258.594 293.51 258.979 292.709C259.363 291.902 259.887 291.293 260.551 290.883C261.215 290.466 261.964 290.258 262.797 290.258C263.624 290.258 264.271 290.44 264.74 290.805C265.209 291.169 265.577 291.612 265.844 292.133H265.961V290.395H268.422V301.176C268.422 302.055 268.21 302.794 267.787 303.393C267.37 303.998 266.788 304.451 266.039 304.75C265.297 305.049 264.438 305.199 263.461 305.199ZM263.461 298.891C264.262 298.891 264.88 298.607 265.316 298.041C265.759 297.468 265.98 296.671 265.98 295.648C265.98 294.978 265.883 294.389 265.688 293.881C265.492 293.373 265.206 292.982 264.828 292.709C264.451 292.429 263.995 292.289 263.461 292.289C262.921 292.289 262.462 292.432 262.084 292.719C261.706 293.005 261.42 293.402 261.225 293.91C261.036 294.418 260.941 294.997 260.941 295.648C260.941 296.645 261.16 297.436 261.596 298.021C262.032 298.601 262.654 298.891 263.461 298.891ZM275.512 301.215C274.457 301.215 273.539 300.993 272.758 300.551C271.983 300.102 271.387 299.467 270.971 298.646C270.561 297.826 270.355 296.866 270.355 295.766C270.355 294.678 270.564 293.721 270.98 292.895C271.397 292.061 271.983 291.413 272.738 290.951C273.5 290.489 274.379 290.258 275.375 290.258C276.273 290.258 277.087 290.45 277.816 290.834C278.552 291.218 279.135 291.814 279.564 292.621C280.001 293.422 280.219 294.418 280.219 295.609V296.391H272.816C272.823 296.983 272.94 297.497 273.168 297.934C273.396 298.363 273.712 298.692 274.115 298.92C274.519 299.148 274.991 299.262 275.531 299.262C276.059 299.262 276.508 299.161 276.879 298.959C277.25 298.757 277.517 298.493 277.68 298.168H280.121C279.971 298.78 279.688 299.317 279.271 299.779C278.855 300.235 278.324 300.59 277.68 300.844C277.042 301.091 276.319 301.215 275.512 301.215ZM277.836 294.691C277.829 294.21 277.725 293.78 277.523 293.402C277.322 293.025 277.038 292.729 276.674 292.514C276.309 292.299 275.889 292.191 275.414 292.191C274.926 292.191 274.49 292.305 274.105 292.533C273.728 292.755 273.428 293.057 273.207 293.441C272.986 293.819 272.859 294.236 272.826 294.691H277.836ZM282.152 290.395H284.574V292.152H284.691C284.874 291.553 285.202 291.085 285.678 290.746C286.153 290.408 286.697 290.238 287.309 290.238C287.673 290.238 287.973 290.258 288.207 290.297V292.602C288.096 292.562 287.927 292.527 287.699 292.494C287.471 292.462 287.257 292.445 287.055 292.445C286.599 292.445 286.189 292.543 285.824 292.738C285.46 292.934 285.173 293.207 284.965 293.559C284.757 293.91 284.652 294.307 284.652 294.75V301H282.152V290.395ZM289.672 305.082H287.816L288.832 299.613H291.312L289.672 305.082ZM53.9297 329H51.6641L44.9648 319.332H44.8477V329H42.3086V314.859H44.6133L51.2734 324.527H51.4102V314.859H53.9297V329ZM66.0195 319.371C65.7917 318.609 65.388 318.017 64.8086 317.594C64.2357 317.164 63.526 316.949 62.6797 316.949C61.9115 316.949 61.2311 317.145 60.6387 317.535C60.0462 317.919 59.584 318.486 59.252 319.234C58.9199 319.983 58.7539 320.875 58.7539 321.91C58.7539 322.965 58.9199 323.87 59.252 324.625C59.584 325.374 60.0495 325.943 60.6484 326.334C61.2474 326.718 61.944 326.91 62.7383 326.91C63.4414 326.91 64.0566 326.777 64.584 326.51C65.1113 326.236 65.5215 325.852 65.8145 325.357C66.1074 324.856 66.2604 324.273 66.2734 323.609H62.9922V321.598H68.7344V323.297C68.7344 324.488 68.4772 325.53 67.9629 326.422C67.4551 327.307 66.7487 327.991 65.8438 328.473C64.9388 328.954 63.9036 329.195 62.7383 329.195C61.4427 329.195 60.3001 328.902 59.3105 328.316C58.321 327.724 57.5527 326.881 57.0059 325.787C56.4655 324.693 56.1953 323.408 56.1953 321.93C56.1953 320.452 56.472 319.166 57.0254 318.072C57.5853 316.972 58.3535 316.129 59.3301 315.543C60.3132 314.957 61.4232 314.664 62.6602 314.664C63.6888 314.664 64.6296 314.863 65.4824 315.26C66.3353 315.657 67.0352 316.214 67.582 316.93C68.1289 317.639 68.474 318.453 68.6172 319.371H66.0195ZM83.6562 321.93C83.6562 323.421 83.3763 324.713 82.8164 325.807C82.2565 326.9 81.485 327.74 80.502 328.326C79.5254 328.906 78.4154 329.195 77.1719 329.195C75.9284 329.195 74.8151 328.906 73.832 328.326C72.8555 327.74 72.0872 326.9 71.5273 325.807C70.9674 324.706 70.6875 323.414 70.6875 321.93C70.6875 320.439 70.9674 319.146 71.5273 318.053C72.0872 316.959 72.8555 316.122 73.832 315.543C74.8151 314.957 75.9284 314.664 77.1719 314.664C78.4154 314.664 79.5254 314.957 80.502 315.543C81.485 316.122 82.2565 316.959 82.8164 318.053C83.3763 319.146 83.6562 320.439 83.6562 321.93ZM81.0977 321.93C81.0977 320.875 80.9316 319.977 80.5996 319.234C80.2741 318.486 79.8151 317.919 79.2227 317.535C78.6302 317.145 77.9466 316.949 77.1719 316.949C76.3971 316.949 75.7135 317.145 75.1211 317.535C74.5286 317.919 74.0664 318.486 73.7344 319.234C73.4089 319.977 73.2461 320.875 73.2461 321.93C73.2461 322.984 73.4089 323.886 73.7344 324.635C74.0664 325.377 74.5286 325.943 75.1211 326.334C75.7135 326.718 76.3971 326.91 77.1719 326.91C77.9466 326.91 78.6302 326.718 79.2227 326.334C79.8151 325.943 80.2741 325.377 80.5996 324.635C80.9316 323.886 81.0977 322.984 81.0977 321.93ZM91.8203 321.422C91.7422 321.018 91.5404 320.699 91.2148 320.465C90.8893 320.23 90.4661 320.113 89.9453 320.113C89.5938 320.113 89.2747 320.169 88.9883 320.279C88.7083 320.383 88.4902 320.533 88.334 320.729C88.1777 320.917 88.1029 321.129 88.1094 321.363C88.0898 321.93 88.5911 322.333 89.6133 322.574L91.4102 322.945C92.4193 323.173 93.168 323.521 93.6562 323.99C94.1445 324.459 94.3919 325.074 94.3984 325.836C94.3919 326.5 94.2031 327.089 93.832 327.604C93.4609 328.111 92.9336 328.508 92.25 328.795C91.5729 329.075 90.7786 329.215 89.8672 329.215C88.5326 329.215 87.4714 328.932 86.6836 328.365C85.9023 327.792 85.4466 326.995 85.3164 325.973H87.8555C87.9336 326.422 88.1419 326.76 88.4805 326.988C88.8255 327.21 89.2878 327.32 89.8672 327.32C90.4661 327.32 90.9479 327.206 91.3125 326.979C91.6771 326.751 91.8594 326.441 91.8594 326.051C91.8594 325.745 91.7324 325.494 91.4785 325.299C91.2311 325.097 90.8438 324.938 90.3164 324.82L88.6172 324.449C87.6341 324.254 86.8887 323.906 86.3809 323.404C85.8796 322.903 85.6289 322.268 85.6289 321.5C85.6289 320.855 85.8047 320.289 86.1562 319.801C86.5078 319.306 87.0059 318.925 87.6504 318.658C88.2949 318.391 89.0469 318.258 89.9062 318.258C90.7396 318.258 91.4655 318.388 92.084 318.648C92.709 318.902 93.2005 319.267 93.5586 319.742C93.9167 320.217 94.125 320.777 94.1836 321.422H91.8203ZM100.941 323.609C100.941 325.4 100.691 327.07 100.189 328.619C99.6882 330.162 98.9622 331.617 98.0117 332.984H95.668C96.1302 332.314 96.5664 331.461 96.9766 330.426C97.3932 329.397 97.7285 328.284 97.9824 327.086C98.2363 325.888 98.3633 324.729 98.3633 323.609C98.3633 322.49 98.2363 321.331 97.9824 320.133C97.7285 318.935 97.3932 317.822 96.9766 316.793C96.5664 315.758 96.1302 314.911 95.668 314.254H98.0117C99.9648 317.04 100.941 320.159 100.941 323.609Z" fill="#1E293B"/>
<rect width="393" height="119" fill="white"/>
<rect width="393" height="66.3895" fill="white"/>
<path d="M38.9526 38V28.1304H38.8032L35.8232 30.2305V28.2217L38.9526 26.022H41.0859V38H38.9526ZM48.8887 38.2407C47.9701 38.2407 47.1593 38.0941 46.4565 37.8008C45.7537 37.502 45.2031 37.0924 44.8047 36.5723C44.4118 36.0465 44.2153 35.4434 44.2153 34.7627V34.7461C44.2153 34.2314 44.3288 33.7666 44.5557 33.3516C44.7881 32.931 45.109 32.5768 45.5186 32.2891C45.9281 32.0013 46.3984 31.8049 46.9297 31.6997V31.6499C46.2435 31.4673 45.6901 31.1408 45.2695 30.6704C44.8545 30.1945 44.647 29.6356 44.647 28.9937V28.9771C44.647 28.3628 44.8268 27.8149 45.1865 27.3335C45.5518 26.8521 46.0526 26.473 46.689 26.1963C47.3309 25.9196 48.0641 25.7812 48.8887 25.7812C49.7132 25.7812 50.4437 25.9196 51.0801 26.1963C51.722 26.473 52.2228 26.8521 52.5825 27.3335C52.9422 27.8149 53.1221 28.3628 53.1221 28.9771V28.9937C53.1221 29.6356 52.9146 30.1945 52.4995 30.6704C52.0845 31.1408 51.5339 31.4673 50.8477 31.6499V31.6997C51.3789 31.8049 51.8493 32.0013 52.2588 32.2891C52.6683 32.5768 52.9865 32.931 53.2134 33.3516C53.4458 33.7666 53.562 34.2314 53.562 34.7461V34.7627C53.562 35.4434 53.3628 36.0465 52.9644 36.5723C52.5715 37.0924 52.0236 37.502 51.3208 37.8008C50.618 38.0941 49.8073 38.2407 48.8887 38.2407ZM48.8887 36.6055C49.3701 36.6055 49.7935 36.5225 50.1587 36.3564C50.5295 36.1849 50.82 35.9497 51.0303 35.6509C51.2406 35.3465 51.3457 35.0034 51.3457 34.6216V34.605C51.3457 34.2176 51.2406 33.8745 51.0303 33.5757C50.8255 33.2713 50.5378 33.0334 50.167 32.8618C49.7962 32.6903 49.3701 32.6045 48.8887 32.6045C48.4017 32.6045 47.9728 32.6903 47.6021 32.8618C47.2368 33.0334 46.9491 33.2713 46.7388 33.5757C46.5285 33.8745 46.4233 34.2176 46.4233 34.605V34.6216C46.4233 35.0034 46.5285 35.3465 46.7388 35.6509C46.9546 35.9497 47.2451 36.1849 47.6104 36.3564C47.9811 36.5225 48.4072 36.6055 48.8887 36.6055ZM48.8887 30.9692C49.3092 30.9692 49.6772 30.8945 49.9927 30.7451C50.3136 30.5902 50.5627 30.3799 50.7397 30.1143C50.9224 29.8486 51.0137 29.5387 51.0137 29.1846V29.168C51.0137 28.8193 50.9224 28.5122 50.7397 28.2466C50.5627 27.981 50.3136 27.7734 49.9927 27.624C49.6717 27.4746 49.3037 27.3999 48.8887 27.3999C48.4681 27.3999 48.0973 27.4746 47.7764 27.624C47.4609 27.7734 47.2119 27.981 47.0293 28.2466C46.8522 28.5122 46.7637 28.8193 46.7637 29.168V29.1846C46.7637 29.5387 46.8522 29.8486 47.0293 30.1143C47.2119 30.3799 47.4609 30.5902 47.7764 30.7451C48.0973 30.8945 48.4681 30.9692 48.8887 30.9692ZM57.4136 36.3896C57.0373 36.3896 56.7218 36.2651 56.4673 36.0161C56.2183 35.7616 56.0938 35.4517 56.0938 35.0864C56.0938 34.7157 56.2183 34.4058 56.4673 34.1567C56.7218 33.9022 57.0373 33.7749 57.4136 33.7749C57.7954 33.7749 58.1108 33.9022 58.3599 34.1567C58.6089 34.4058 58.7334 34.7157 58.7334 35.0864C58.7334 35.4517 58.6089 35.7616 58.3599 36.0161C58.1108 36.2651 57.7954 36.3896 57.4136 36.3896ZM57.4136 30.2305C57.0373 30.2305 56.7218 30.106 56.4673 29.8569C56.2183 29.6024 56.0938 29.2925 56.0938 28.9272C56.0938 28.5565 56.2183 28.2466 56.4673 27.9976C56.7218 27.743 57.0373 27.6157 57.4136 27.6157C57.7954 27.6157 58.1108 27.743 58.3599 27.9976C58.6089 28.2466 58.7334 28.5565 58.7334 28.9272C58.7334 29.2925 58.6089 29.6024 58.3599 29.8569C58.1108 30.106 57.7954 30.2305 57.4136 30.2305ZM65.7725 38.2988C64.8206 38.2988 64.0044 38.0443 63.3237 37.5352C62.6486 37.026 62.1284 36.3011 61.7632 35.3604C61.3979 34.4196 61.2153 33.3045 61.2153 32.0151V31.9985C61.2153 30.7091 61.3979 29.5968 61.7632 28.6616C62.1284 27.7209 62.6486 26.9959 63.3237 26.4868C64.0044 25.9777 64.8206 25.7231 65.7725 25.7231C66.7243 25.7231 67.5405 25.9777 68.2212 26.4868C68.9019 26.9959 69.4248 27.7209 69.79 28.6616C70.1553 29.5968 70.3379 30.7091 70.3379 31.9985V32.0151C70.3379 33.3045 70.1553 34.4196 69.79 35.3604C69.4248 36.3011 68.9019 37.026 68.2212 37.5352C67.5405 38.0443 66.7243 38.2988 65.7725 38.2988ZM65.7725 36.564C66.2816 36.564 66.716 36.3813 67.0757 36.0161C67.4354 35.6509 67.7093 35.1307 67.8975 34.4556C68.0911 33.7749 68.188 32.9614 68.188 32.0151V31.9985C68.188 31.0522 68.0911 30.2415 67.8975 29.5664C67.7093 28.8857 67.4354 28.3656 67.0757 28.0059C66.716 27.6406 66.2816 27.458 65.7725 27.458C65.2633 27.458 64.8289 27.6406 64.4692 28.0059C64.1151 28.3656 63.8411 28.8857 63.6475 29.5664C63.4593 30.2415 63.3652 31.0522 63.3652 31.9985V32.0151C63.3652 32.9614 63.4593 33.7749 63.6475 34.4556C63.8411 35.1307 64.1151 35.6509 64.4692 36.0161C64.8289 36.3813 65.2633 36.564 65.7725 36.564ZM77.0781 38.2988C76.1263 38.2988 75.3101 38.0443 74.6294 37.5352C73.9543 37.026 73.4341 36.3011 73.0688 35.3604C72.7036 34.4196 72.521 33.3045 72.521 32.0151V31.9985C72.521 30.7091 72.7036 29.5968 73.0688 28.6616C73.4341 27.7209 73.9543 26.9959 74.6294 26.4868C75.3101 25.9777 76.1263 25.7231 77.0781 25.7231C78.0299 25.7231 78.8462 25.9777 79.5269 26.4868C80.2075 26.9959 80.7305 27.7209 81.0957 28.6616C81.4609 29.5968 81.6436 30.7091 81.6436 31.9985V32.0151C81.6436 33.3045 81.4609 34.4196 81.0957 35.3604C80.7305 36.3011 80.2075 37.026 79.5269 37.5352C78.8462 38.0443 78.0299 38.2988 77.0781 38.2988ZM77.0781 36.564C77.5872 36.564 78.0216 36.3813 78.3813 36.0161C78.741 35.6509 79.015 35.1307 79.2031 34.4556C79.3968 33.7749 79.4937 32.9614 79.4937 32.0151V31.9985C79.4937 31.0522 79.3968 30.2415 79.2031 29.5664C79.015 28.8857 78.741 28.3656 78.3813 28.0059C78.0216 27.6406 77.5872 27.458 77.0781 27.458C76.569 27.458 76.1346 27.6406 75.7749 28.0059C75.4207 28.3656 75.1468 28.8857 74.9531 29.5664C74.765 30.2415 74.6709 31.0522 74.6709 31.9985V32.0151C74.6709 32.9614 74.765 33.7749 74.9531 34.4556C75.1468 35.1307 75.4207 35.6509 75.7749 36.0161C76.1346 36.3813 76.569 36.564 77.0781 36.564Z" fill="black"/>
<path fill-rule="evenodd" clip-rule="evenodd" d="M314.614 27.0329C314.614 26.3999 314.136 25.8867 313.547 25.8867H312.481C311.892 25.8867 311.414 26.3999 311.414 27.0329V36.9669C311.414 37.5999 311.892 38.1131 312.481 38.1131H313.547C314.136 38.1131 314.614 37.5999 314.614 36.9669V27.0329ZM307.18 28.332H308.247C308.836 28.332 309.313 28.8575 309.313 29.5057V36.9394C309.313 37.5876 308.836 38.1131 308.247 38.1131H307.18C306.591 38.1131 306.113 37.5876 306.113 36.9394V29.5057C306.113 28.8575 306.591 28.332 307.18 28.332ZM302.848 30.981H301.782C301.192 30.981 300.715 31.5132 300.715 32.1697V36.9244C300.715 37.5809 301.192 38.1131 301.782 38.1131H302.848C303.437 38.1131 303.915 37.5809 303.915 36.9244V32.1697C303.915 31.5132 303.437 30.981 302.848 30.981ZM297.547 33.4263H296.481C295.892 33.4263 295.414 33.9509 295.414 34.598V36.9414C295.414 37.5885 295.892 38.1131 296.481 38.1131H297.547C298.136 38.1131 298.614 37.5885 298.614 36.9414V34.598C298.614 33.9509 298.136 33.4263 297.547 33.4263Z" fill="black"/>
<path fill-rule="evenodd" clip-rule="evenodd" d="M330.185 28.3022C332.672 28.3023 335.064 29.2244 336.866 30.8779C337.002 31.0055 337.219 31.0039 337.353 30.8743L338.65 29.6108C338.718 29.545 338.756 29.456 338.755 29.3633C338.754 29.2706 338.716 29.182 338.647 29.117C333.916 24.7423 326.452 24.7423 321.721 29.117C321.653 29.1819 321.614 29.2705 321.613 29.3632C321.613 29.4559 321.65 29.545 321.718 29.6108L323.016 30.8743C323.149 31.0041 323.367 31.0057 323.502 30.8779C325.305 29.2243 327.697 28.3022 330.185 28.3022ZM330.181 32.5225C331.539 32.5224 332.847 33.0342 333.854 33.9583C333.99 34.0894 334.204 34.0866 334.337 33.9519L335.624 32.6326C335.692 32.5634 335.729 32.4695 335.728 32.3719C335.727 32.2744 335.688 32.1813 335.619 32.1135C332.555 29.2227 327.81 29.2227 324.746 32.1135C324.677 32.1813 324.638 32.2744 324.637 32.372C324.636 32.4696 324.674 32.5635 324.741 32.6326L326.028 33.9519C326.161 34.0866 326.375 34.0894 326.512 33.9583C327.517 33.0348 328.825 32.5231 330.181 32.5225ZM332.706 35.316C332.708 35.4214 332.671 35.523 332.603 35.5968L330.427 38.0515C330.363 38.1236 330.276 38.1642 330.185 38.1642C330.094 38.1642 330.007 38.1236 329.943 38.0515L327.766 35.5968C327.699 35.5229 327.662 35.4213 327.664 35.316C327.666 35.2106 327.707 35.1108 327.777 35.0402C329.167 33.7263 331.203 33.7263 332.593 35.0402C332.663 35.1109 332.704 35.2107 332.706 35.316Z" fill="black"/>
<rect opacity="0.35" x="346.258" y="26" width="24" height="12" rx="3.8" stroke="black"/>
<path opacity="0.4" d="M371.758 30.2812V34.3567C372.563 34.0116 373.086 33.2086 373.086 32.319C373.086 31.4294 372.563 30.6264 371.758 30.2812Z" fill="black"/>
<rect x="347.758" y="27.5" width="21" height="9" rx="2.5" fill="black"/>
<path d="M75.9395 83.5703C76.5723 83.5703 77.1582 83.6816 77.6973 83.9043C78.2422 84.1211 78.7051 84.4316 79.0859 84.8359H82.8828V82.6738H84.834V92.0254H82.8828V90.0039H79.0771C78.7021 90.4023 78.2422 90.7129 77.6973 90.9355C77.1582 91.1523 76.5723 91.2578 75.9395 91.252C75.1543 91.2578 74.4395 91.0967 73.7949 90.7686C73.1562 90.4404 72.6523 89.9834 72.2832 89.3975C71.9199 88.8115 71.7383 88.1523 71.7383 87.4199C71.7383 86.6816 71.9199 86.0195 72.2832 85.4336C72.6523 84.8477 73.1562 84.3906 73.7949 84.0625C74.4336 83.7344 75.1484 83.5703 75.9395 83.5703ZM75.9395 85.2402C75.4824 85.2402 75.0781 85.3311 74.7266 85.5127C74.375 85.6885 74.0996 85.9404 73.9004 86.2686C73.7012 86.5967 73.6016 86.9805 73.6016 87.4199C73.6016 87.8477 73.7012 88.2285 73.9004 88.5625C74.0996 88.8906 74.375 89.1455 74.7266 89.3271C75.084 89.5088 75.4883 89.5996 75.9395 89.5996C76.373 89.5996 76.7627 89.5088 77.1084 89.3271C77.46 89.1455 77.7354 88.8906 77.9346 88.5625C78.1338 88.2285 78.2363 87.8477 78.2422 87.4199C78.2363 86.9805 78.1338 86.5967 77.9346 86.2686C77.7354 85.9404 77.4629 85.6885 77.1172 85.5127C76.7715 85.3311 76.3789 85.2402 75.9395 85.2402ZM79.4551 92.3594C80.5625 92.3594 81.5234 92.4824 82.3379 92.7285C83.1582 92.9746 83.7881 93.3291 84.2275 93.792C84.667 94.2549 84.8867 94.8086 84.8867 95.4531C84.8867 96.0977 84.667 96.6514 84.2275 97.1143C83.7881 97.5771 83.1582 97.9316 82.3379 98.1777C81.5234 98.4238 80.5625 98.5469 79.4551 98.5469C78.3477 98.5469 77.3867 98.4238 76.5723 98.1777C75.7637 97.9316 75.1396 97.5771 74.7002 97.1143C74.2666 96.6514 74.0527 96.0977 74.0586 95.4531C74.0527 94.8086 74.2666 94.2549 74.7002 93.792C75.1396 93.3291 75.7637 92.9746 76.5723 92.7285C77.3867 92.4824 78.3477 92.3594 79.4551 92.3594ZM79.4551 93.8535C78.3418 93.8535 77.4805 93.9912 76.8711 94.2666C76.2676 94.542 75.9688 94.9375 75.9746 95.4531C75.9688 95.9512 76.2676 96.3379 76.8711 96.6133C77.4805 96.8828 78.3418 97.0176 79.4551 97.0176C80.5801 97.0176 81.4473 96.8828 82.0566 96.6133C82.666 96.3379 82.9707 95.9512 82.9707 95.4531C82.9707 94.9375 82.666 94.542 82.0566 94.2666C81.4531 93.9912 80.5859 93.8535 79.4551 93.8535ZM79.9648 86.4004C80.0586 86.7461 80.1055 87.0859 80.1055 87.4199C80.1055 87.7363 80.0615 88.0703 79.9736 88.4219H82.8828V86.4004H79.9648ZM92.7793 85.4336C92.7793 86.0957 92.9199 86.7373 93.2012 87.3584C93.4883 87.9736 93.9131 88.5244 94.4756 89.0107C95.0439 89.4971 95.7324 89.875 96.541 90.1445L95.5566 91.6562C94.6895 91.3691 93.9395 90.9443 93.3066 90.3818C92.6738 89.8135 92.1787 89.1484 91.8213 88.3867C91.4639 89.2188 90.9541 89.9424 90.292 90.5576C89.6357 91.167 88.8535 91.627 87.9453 91.9375L86.9082 90.4258C87.7402 90.1504 88.4492 89.7578 89.0352 89.248C89.6211 88.7324 90.0635 88.1465 90.3623 87.4902C90.6611 86.8281 90.8105 86.1426 90.8105 85.4336V85.2402H87.4531V83.6758H96.084V85.2402H92.7793V85.4336ZM99.6172 86.6465H101.832V88.2812H99.6172V92.2539H97.666V82.6738H99.6172V86.6465ZM99.6172 98.5645H97.666V94.5566H89.0352V92.9922H99.6172V98.5645ZM115.086 89.002H117.529V90.6191H115.086V98.5645H113.152V82.6738H115.086V89.002ZM111.922 86.6816H102.553V85.1172H106.314V82.9023H108.266V85.1172H111.922V86.6816ZM107.299 87.7188C108.055 87.7188 108.734 87.8799 109.338 88.2021C109.947 88.5186 110.425 88.9609 110.771 89.5293C111.116 90.0977 111.289 90.7422 111.289 91.4629C111.289 92.1836 111.116 92.8281 110.771 93.3965C110.425 93.959 109.947 94.3984 109.338 94.7148C108.734 95.0312 108.055 95.1895 107.299 95.1895C106.531 95.1895 105.843 95.0312 105.233 94.7148C104.624 94.3984 104.146 93.959 103.801 93.3965C103.455 92.8281 103.285 92.1836 103.291 91.4629C103.285 90.7422 103.455 90.0977 103.801 89.5293C104.146 88.9609 104.624 88.5186 105.233 88.2021C105.843 87.8799 106.531 87.7188 107.299 87.7188ZM107.299 89.3184C106.883 89.3184 106.511 89.4062 106.183 89.582C105.86 89.7578 105.608 90.0098 105.427 90.3379C105.245 90.6602 105.154 91.0352 105.154 91.4629C105.154 91.8906 105.245 92.2656 105.427 92.5879C105.608 92.9043 105.86 93.1504 106.183 93.3262C106.511 93.4961 106.883 93.5781 107.299 93.5723C107.703 93.5781 108.063 93.4961 108.38 93.3262C108.702 93.1504 108.954 92.9043 109.136 92.5879C109.323 92.2656 109.42 91.8906 109.426 91.4629C109.42 91.0352 109.323 90.6602 109.136 90.3379C108.954 90.0156 108.702 89.7666 108.38 89.5908C108.063 89.4092 107.703 89.3184 107.299 89.3184ZM131.469 98.5645H129.5V82.6738H131.469V98.5645ZM126.723 84.3613C126.723 86.8867 126.151 89.1045 125.009 91.0146C123.866 92.9189 121.971 94.498 119.322 95.752L118.303 94.1875C120.348 93.2148 121.886 92.0518 122.917 90.6982C123.954 89.3389 124.561 87.7422 124.736 85.9082H119.111V84.3613H126.723Z" fill="#1E1E1E"/>
<g filter="url(#filter0_i_3464_1546)">
<rect x="33" y="142" width="326" height="18" rx="9" fill="#E3E7EA"/>
</g>
<rect x="29" y="138" width="334" height="26" rx="13" stroke="#F0F5FA" stroke-width="8"/>
<g filter="url(#filter1_i_3464_1546)">
<rect x="33" y="142" width="128" height="18" rx="9" fill="#3C86FF"/>
</g>
<path d="M181.597 154.286V152.966L185.57 146.809H187.627V152.928H188.833V154.286H187.627V156H186.053V154.286H181.597ZM183.285 152.928H186.078V148.688H185.977L183.285 152.864V152.928ZM193.492 156.127C191.442 156.127 189.995 155.035 190.001 153.537C189.995 152.369 190.864 151.417 191.969 151.239V151.188C191.004 150.985 190.35 150.147 190.344 149.145C190.35 147.723 191.677 146.682 193.492 146.682C195.295 146.682 196.628 147.723 196.628 149.145C196.628 150.154 195.955 150.985 195.003 151.188V151.239C196.101 151.417 196.977 152.369 196.983 153.537C196.977 155.035 195.523 156.127 193.492 156.127ZM191.702 153.385C191.696 154.235 192.4 154.819 193.492 154.819C194.571 154.819 195.276 154.235 195.282 153.385C195.276 152.521 194.527 151.88 193.492 151.887C192.458 151.88 191.696 152.515 191.702 153.385ZM191.956 149.297C191.962 150.103 192.597 150.655 193.492 150.655C194.375 150.655 195.016 150.103 195.016 149.297C195.016 148.516 194.394 147.977 193.492 147.977C192.572 147.977 191.962 148.516 191.956 149.297ZM200.614 151.29C199.307 151.296 198.589 150.325 198.596 148.916C198.589 147.52 199.338 146.555 200.614 146.555C201.941 146.555 202.639 147.52 202.646 148.916C202.639 150.338 201.916 151.296 200.614 151.29ZM199.764 148.916C199.77 149.741 200.056 150.274 200.614 150.274C201.192 150.274 201.465 149.741 201.465 148.916C201.465 148.116 201.211 147.564 200.614 147.57C200.056 147.57 199.77 148.123 199.764 148.916ZM199.776 156L206.099 146.809H207.381L201.059 156H199.776ZM204.601 153.88C204.594 152.477 205.343 151.506 206.619 151.506C207.939 151.506 208.644 152.477 208.65 153.88C208.644 155.289 207.92 156.248 206.619 156.241C205.312 156.248 204.594 155.276 204.601 153.88ZM205.769 153.88C205.775 154.692 206.061 155.232 206.619 155.226C207.197 155.232 207.47 154.692 207.47 153.88C207.47 153.067 207.216 152.515 206.619 152.521C206.061 152.528 205.775 153.074 205.769 153.88Z" fill="#9E9FA7"/>
<path d="M45.5 81.5L37 90L45.5 98.5" stroke="#A0AEB9" stroke-width="2"/>
<g filter="url(#filter2_di_3464_1546)">
<path d="M30 767C30 758.163 37.1634 751 46 751H347C355.837 751 363 758.163 363 767V795C363 803.837 355.837 811 347 811H46C37.1634 811 30 803.837 30 795V767Z" fill="#BEC3CD"/>
<path d="M46 751.5H347C355.56 751.5 362.5 758.44 362.5 767V795C362.5 803.56 355.56 810.5 347 810.5H46C37.4396 810.5 30.5 803.56 30.5 795V767C30.5 758.44 37.4396 751.5 46 751.5Z" stroke="white"/>
</g>
<path d="M179.309 772.621V788.617H177.182V772.621H179.309ZM176.039 772.885V787.879H173.93V779.916H171.82V778.105H173.93V772.885H176.039ZM170.537 776.91C170.537 779.564 171.363 782.254 173.701 783.59L172.383 785.242C170.959 784.398 170.019 782.966 169.482 781.252C168.929 783.115 167.962 784.697 166.494 785.594L165.141 783.941C167.496 782.5 168.375 779.617 168.375 776.91V776.049H165.756V774.256H172.963V776.049H170.537V776.91ZM195.586 779.441V781.076H189.434V782.078H193.846V785.98H184.934V786.859H194.268V788.512H182.736V784.469H191.631V783.678H182.719V782.078H187.201V781.076H181.066V779.441H195.586ZM189.416 772.604V773.869H194.215V775.521H189.697C190.137 776.453 191.771 777.218 195.006 777.35L194.355 779.002C191.385 778.861 189.328 778.105 188.309 776.893C187.298 778.105 185.232 778.861 182.244 779.002L181.629 777.35C184.837 777.218 186.463 776.453 186.92 775.521H182.438V773.869H187.201V772.604H189.416ZM209.209 772.621V778.879H211.564V780.725H209.209V788.617H206.994V772.621H209.209ZM205.904 775.012V776.805H196.5V775.012H200.121V772.867H202.371V775.012H205.904ZM201.246 777.701C203.584 777.701 205.324 779.283 205.324 781.516C205.324 783.748 203.584 785.33 201.246 785.33C198.891 785.33 197.15 783.748 197.15 781.516C197.15 779.283 198.891 777.701 201.246 777.701ZM201.246 779.512C200.121 779.529 199.295 780.285 199.295 781.516C199.295 782.764 200.121 783.502 201.246 783.484C202.371 783.502 203.18 782.764 203.18 781.516C203.18 780.285 202.371 779.529 201.246 779.512ZM225.592 772.621V788.617H223.324V772.621H225.592ZM220.793 774.291C220.793 779.143 219.088 783.168 213.375 785.875L212.197 784.082C216.328 782.131 218.147 779.6 218.508 776.049H213.059V774.291H220.793Z" fill="white"/>
<defs>
<filter id="filter0_i_3464_1546" x="25" y="134" width="342" height="38" filterUnits="userSpaceOnUse" color-interpolation-filters="sRGB">
<feFlood flood-opacity="0" result="BackgroundImageFix"/>
<feBlend mode="normal" in="SourceGraphic" in2="BackgroundImageFix" result="shape"/>
<feColorMatrix in="SourceAlpha" type="matrix" values="0 0 0 0 0 0 0 0 0 0 0 0 0 0 0 0 0 0 127 0" result="hardAlpha"/>
<feOffset dy="4"/>
<feGaussianBlur stdDeviation="2"/>
<feComposite in2="hardAlpha" operator="arithmetic" k2="-1" k3="1"/>
<feColorMatrix type="matrix" values="0 0 0 0 0.651984 0 0 0 0 0.660851 0 0 0 0 0.705182 0 0 0 0.25 0"/>
<feBlend mode="normal" in2="shape" result="effect1_innerShadow_3464_1546"/>
</filter>
<filter id="filter1_i_3464_1546" x="33" y="142" width="128" height="22" filterUnits="userSpaceOnUse" color-interpolation-filters="sRGB">
<feFlood flood-opacity="0" result="BackgroundImageFix"/>
<feBlend mode="normal" in="SourceGraphic" in2="BackgroundImageFix" result="shape"/>
<feColorMatrix in="SourceAlpha" type="matrix" values="0 0 0 0 0 0 0 0 0 0 0 0 0 0 0 0 0 0 127 0" result="hardAlpha"/>
<feOffset dy="4"/>
<feGaussianBlur stdDeviation="2"/>
<feComposite in2="hardAlpha" operator="arithmetic" k2="-1" k3="1"/>
<feColorMatrix type="matrix" values="0 0 0 0 1 0 0 0 0 1 0 0 0 0 1 0 0 0 0.25 0"/>
<feBlend mode="normal" in2="shape" result="effect1_innerShadow_3464_1546"/>
</filter>
<filter id="filter2_di_3464_1546" x="26" y="747" width="341" height="68" filterUnits="userSpaceOnUse" color-interpolation-filters="sRGB">
<feFlood flood-opacity="0" result="BackgroundImageFix"/>
<feColorMatrix in="SourceAlpha" type="matrix" values="0 0 0 0 0 0 0 0 0 0 0 0 0 0 0 0 0 0 127 0" result="hardAlpha"/>
<feOffset/>
<feGaussianBlur stdDeviation="2"/>
<feComposite in2="hardAlpha" operator="out"/>
<feColorMatrix type="matrix" values="0 0 0 0 0.715912 0 0 0 0 0.69906 0 0 0 0 0.614798 0 0 0 0.25 0"/>
<feBlend mode="normal" in2="BackgroundImageFix" result="effect1_dropShadow_3464_1546"/>
<feBlend mode="normal" in="SourceGraphic" in2="effect1_dropShadow_3464_1546" result="shape"/>
<feColorMatrix in="SourceAlpha" type="matrix" values="0 0 0 0 0 0 0 0 0 0 0 0 0 0 0 0 0 0 127 0" result="hardAlpha"/>
<feOffset dy="4"/>
<feGaussianBlur stdDeviation="2"/>
<feComposite in2="hardAlpha" operator="arithmetic" k2="-1" k3="1"/>
<feColorMatrix type="matrix" values="0 0 0 0 1 0 0 0 0 1 0 0 0 0 1 0 0 0 0.25 0"/>
<feBlend mode="normal" in2="shape" result="effect2_innerShadow_3464_1546"/>
</filter>
</defs>
</svg>
