<svg width="393" height="852" viewBox="0 0 393 852" fill="none" xmlns="http://www.w3.org/2000/svg">
<rect width="393" height="852" fill="url(#paint0_linear_5075_3930)"/>
<path d="M252.094 205.369C253.337 203.346 255.177 201.67 257.432 200.802C259.685 199.933 262.14 199.932 264.312 200.821C266.485 201.71 268.235 203.432 269.232 205.631C270.231 207.831 270.368 210.316 269.836 212.631C269.836 212.631 269.836 212.631 269.836 212.631C269.634 213.477 269.406 214.345 269.169 215.198C267.043 222.814 264.045 230.028 259.86 236.954C255.287 243.738 251.101 250.701 238.854 255.157C237.405 255.554 235.684 255.857 233.844 255.802C231.968 255.447 230.126 254.688 228.692 253.389C227.259 252.092 226.355 250.385 226.169 248.552C225.982 246.72 226.525 244.866 227.668 243.307C228.811 241.747 230.463 240.632 232.23 239.908C232.23 239.908 232.23 239.908 232.23 239.908C231.999 239.691 231.899 239.508 231.928 239.259C232.978 236.81 236.812 230.416 240.064 224.923C243.508 219.235 247.134 213.222 250.862 207.322C251.276 206.664 251.692 206 252.094 205.369Z" fill="url(#paint1_linear_5075_3930)"/>
<path d="M141.91 201.369C140.666 199.346 138.826 197.67 136.572 196.802C134.319 195.933 131.864 195.932 129.691 196.821C127.519 197.71 125.769 199.432 124.772 201.631C123.773 203.831 123.636 206.316 124.168 208.631C124.168 208.631 124.168 208.631 124.168 208.631C124.37 209.477 124.598 210.345 124.835 211.198C126.961 218.814 129.959 226.028 134.144 232.954C138.717 239.738 142.902 246.701 155.15 251.157C156.599 251.554 158.32 251.857 160.16 251.802C162.036 251.447 163.878 250.688 165.312 249.389C166.745 248.092 167.649 246.385 167.835 244.552C168.021 242.72 167.479 240.866 166.336 239.307C165.193 237.747 163.541 236.632 161.774 235.908C161.774 235.908 161.774 235.908 161.774 235.908C162.005 235.691 162.105 235.508 162.076 235.259C161.025 232.81 157.192 226.416 153.94 220.923C150.496 215.235 146.87 209.222 143.142 203.322C142.728 202.664 142.312 202 141.91 201.369Z" fill="url(#paint2_linear_5075_3930)"/>
<path d="M228.542 166.04C222.711 159.844 213.053 169.229 208.953 174.695L237.197 187.909C236.741 183.201 234.373 172.235 228.542 166.04Z" fill="url(#paint3_linear_5075_3930)"/>
<path d="M169.318 167.04C175.149 160.844 184.806 170.229 188.906 175.695L160.662 188.909C161.118 184.201 163.487 173.235 169.318 167.04Z" fill="url(#paint4_linear_5075_3930)"/>
<path d="M160.203 188.823C191.18 158.302 235.104 170.707 245.126 198.04C255.148 225.373 245.126 296.889 231.915 326.5H231.681C229.568 331.318 224.757 334.684 219.159 334.684C213.561 334.684 208.75 331.318 206.638 326.5H193.414C191.302 331.318 186.491 334.684 180.892 334.684C174.201 334.684 168.634 329.876 167.456 323.526L154.481 289.6C144.91 259.99 135.421 213.24 160.203 188.823Z" fill="url(#paint5_linear_5075_3930)"/>
<path d="M206.46 215C208.191 215 209.639 216.434 209.124 218.086C208.643 219.624 207.806 221.038 206.665 222.201C204.789 224.11 202.246 225.183 199.594 225.183C196.942 225.183 194.398 224.11 192.523 222.201C191.381 221.038 190.544 219.624 190.064 218.086C189.548 216.434 190.997 215 192.727 215L199.594 215H206.46Z" fill="black"/>
<path d="M205.595 222.047C205.595 222.67 204.998 223.268 203.935 223.709C202.873 224.149 201.431 224.397 199.928 224.397C198.425 224.397 196.984 224.149 195.921 223.709C194.859 223.268 194.262 222.67 194.262 222.047L199.928 222.047H205.595Z" fill="#FF7A99"/>
<path d="M205.595 222.047C205.595 221.424 204.998 220.826 203.935 220.385C202.873 219.944 201.431 219.697 199.928 219.697C198.425 219.697 196.984 219.944 195.921 220.385C194.859 220.826 194.262 221.424 194.262 222.047L199.928 222.047H205.595Z" fill="#FF7A99"/>
<ellipse cx="187.594" cy="206.5" rx="3" ry="3.5" fill="black"/>
<ellipse cx="208.594" cy="206.5" rx="3" ry="3.5" fill="black"/>
<path d="M145.727 401.004C161.938 401.004 176 410.672 176.098 436.16C176.098 459.402 163.988 473.66 145.531 473.66C130.004 473.66 119.652 463.797 118.383 451.492H136.742C137.719 455.887 141.234 457.84 145.531 457.84C153.734 457.84 157.543 450.125 157.641 438.016H157.152C154.418 444.559 147.191 448.367 139.086 448.367C126.293 448.367 117.699 438.992 117.602 426.102C117.504 411.062 129.027 401.004 145.727 401.004ZM145.824 415.164C139.867 415.164 135.57 419.559 135.668 425.418C135.766 431.277 139.867 435.672 145.824 435.672C151.586 435.672 156.078 431.18 155.98 425.418C155.883 419.559 151.586 415.164 145.824 415.164ZM210.965 473.66C191.922 473.66 180.105 460.477 180.105 437.332C180.105 414.09 191.922 401.004 210.965 401.004C230.008 401.004 241.824 414.188 241.824 437.332C241.824 460.574 230.008 473.66 210.965 473.66ZM210.965 458.719C217.801 458.621 222.586 452.371 222.586 437.332C222.586 422.684 217.801 415.945 210.965 415.945C204.129 415.945 199.441 422.684 199.344 437.332C199.344 452.371 204.129 458.621 210.965 458.719Z" fill="url(#paint6_linear_5075_3930)"/>
<path d="M276.66 440.785V459.383H271.633V452.141H266.957V448.027H271.633V440.785H276.66ZM276.66 460.613V472.707H254.793V460.613H276.66ZM259.891 464.586V468.664H271.738V464.586H259.891ZM267.977 442.297V446.34H261.859C262.07 449.75 264.127 453.371 269.066 455.023L266.605 458.996C263.055 457.854 260.682 455.621 259.293 452.844C257.869 455.92 255.391 458.346 251.664 459.523L249.062 455.551C254.266 453.934 256.393 450.102 256.656 446.34H250.469V442.297H267.977Z" fill="#B5D7F8"/>
<path d="M155.281 520.707V531.254H152.801V527.055H150.027V525.043H152.801V520.707H155.281ZM149.207 531.645C152.996 531.664 155.32 532.914 155.34 535.082C155.32 537.23 152.996 538.5 149.207 538.5C145.418 538.5 143.094 537.23 143.094 535.082C143.094 532.914 145.418 531.664 149.207 531.645ZM149.207 533.559C146.844 533.559 145.574 534.047 145.574 535.082C145.574 536.098 146.844 536.605 149.207 536.605C151.57 536.605 152.859 536.098 152.859 535.082C152.859 534.047 151.57 533.559 149.207 533.559ZM150.555 521.781V523.773H147.02C147.078 525.844 148.328 527.934 151.102 528.852L149.871 530.805C147.908 530.17 146.561 528.881 145.789 527.27C144.998 529.086 143.582 530.551 141.473 531.273L140.184 529.301C143.104 528.324 144.412 526 144.48 523.773H140.906V521.781H150.555ZM171.688 520.707V524.145H174.09V526.195H171.688V529.594H169.188V520.707H171.688ZM166.648 521.547V528.93H158.113V521.547H166.648ZM160.574 523.5V526.957H164.188V523.5H160.574ZM171.688 530.297V535.141H162.371V536.332H172.195V538.285H159.93V533.344H169.207V532.211H159.891V530.297H171.688ZM189.539 521.547V523.5H186.023C186.18 525.258 187.488 526.986 190.184 527.738L189.012 529.652C187 529.105 185.594 527.943 184.793 526.469C184.002 528.139 182.537 529.447 180.379 530.043L179.168 528.109C181.961 527.299 183.309 525.414 183.465 523.5H179.852V521.547H189.539ZM193.582 520.707V524.223H195.984V526.215H193.582V529.828H191.082V520.707H193.582ZM193.582 530.512V535.199H184.266V536.41H194.09V538.305H181.824V533.441H191.102V532.387H181.785V530.512H193.582ZM212.039 520.727V531.664H209.676V527.289H208.289V531.469H205.965V520.961H208.289V525.277H209.676V520.727H212.039ZM205.398 522.406V524.379H196.668V522.406H199.812V520.805H202.293V522.406H205.398ZM201.062 524.945C203.328 524.945 204.93 526.195 204.949 528.051C204.93 529.867 203.328 531.156 201.062 531.156C198.836 531.156 197.215 529.867 197.215 528.051C197.215 526.195 198.836 524.945 201.062 524.945ZM201.062 526.723C200.086 526.723 199.441 527.172 199.441 528.051C199.441 528.891 200.086 529.359 201.062 529.359C202.039 529.359 202.684 528.891 202.703 528.051C202.684 527.172 202.039 526.723 201.062 526.723ZM203.582 532.582C203.562 533.881 204.139 535.219 205.555 536.098C206.961 535.17 207.586 533.764 207.605 532.582V532.211H210.086V532.582C210.066 534.242 211.062 535.805 213.426 536.41L212.273 538.266C210.555 537.748 209.422 536.713 208.816 535.395C208.23 536.703 207.205 537.855 205.594 538.441C203.934 537.865 202.889 536.781 202.332 535.473C201.678 536.723 200.564 537.738 198.934 538.266L197.762 536.41C200.066 535.746 201.102 534.145 201.102 532.582V532.211H203.582V532.582ZM218.953 521.957C221.355 521.957 223.143 523.939 223.504 527.133H226.59V520.707H229.051V538.52H226.59V529.125H223.523C223.26 532.543 221.434 534.633 218.953 534.633C216.258 534.633 214.324 532.191 214.344 528.285C214.324 524.418 216.258 521.957 218.953 521.957ZM218.953 524.203C217.625 524.203 216.707 525.648 216.727 528.285C216.707 530.941 217.625 532.367 218.953 532.367C220.301 532.367 221.18 530.941 221.18 528.285C221.18 525.648 220.301 524.203 218.953 524.203ZM247.605 534.359V536.41H231.336V534.359H234.969V530.004C233.592 529.184 232.762 527.924 232.762 526.352C232.762 523.48 235.574 521.566 239.441 521.566C243.289 521.566 246.121 523.48 246.141 526.352C246.131 527.885 245.32 529.135 243.992 529.965V534.359H247.605ZM239.441 523.539C236.902 523.539 235.223 524.555 235.223 526.352C235.223 528.09 236.902 529.164 239.441 529.164C241.961 529.164 243.66 528.09 243.68 526.352C243.66 524.555 241.961 523.539 239.441 523.539ZM237.43 534.359H241.473V530.902C240.838 531.029 240.154 531.098 239.441 531.098C238.729 531.098 238.055 531.039 237.43 530.902V534.359ZM252.664 522.543L252.41 532.445H249.91L249.656 522.543H252.664ZM251.18 536.859C250.262 536.859 249.52 536.117 249.539 535.219C249.52 534.32 250.262 533.598 251.18 533.598C252.039 533.598 252.801 534.32 252.801 535.219C252.801 536.117 252.039 536.859 251.18 536.859Z" fill="black"/>
<path d="M131.223 554.957V567.684H128.92V557.189H128.85L125.879 559.088V556.996L129.025 554.957H131.223ZM139.01 567.859C135.951 567.859 134.123 565.486 134.123 561.32C134.123 557.172 135.951 554.781 139.01 554.781C142.051 554.781 143.896 557.172 143.896 561.32C143.896 565.486 142.068 567.859 139.01 567.859ZM139.01 565.943C140.609 565.943 141.594 564.379 141.594 561.32C141.594 558.279 140.592 556.68 139.01 556.68C137.428 556.68 136.426 558.279 136.426 561.32C136.426 564.379 137.41 565.943 139.01 565.943ZM159.787 561.303V562.867H153.652V565.785H151.719V562.867H145.268V561.303H159.787ZM157.924 554.078V559.826H147.113V554.078H157.924ZM149.012 555.607V558.297H155.99V555.607H149.012ZM158.188 567.35V568.932H147.025V564.326H148.977V567.35H158.188ZM174.518 553.357V569.248H172.654V553.357H174.518ZM171.283 553.656V568.475H169.438V560.477H167.152V558.895H169.438V553.656H171.283ZM165.746 557.699C165.746 560.389 166.713 563.078 168.98 564.379L167.82 565.82C166.353 564.941 165.377 563.43 164.832 561.619C164.27 563.579 163.259 565.249 161.756 566.189L160.561 564.73C162.863 563.342 163.865 560.459 163.865 557.699V556.645H161.105V555.062H168.312V556.645H165.746V557.699ZM195.154 560.652V562.234H188.861V563.553C191.709 563.746 193.379 564.73 193.396 566.383C193.379 568.211 191.322 569.23 187.895 569.23C184.432 569.23 182.357 568.211 182.357 566.383C182.357 564.73 184.045 563.737 186.928 563.553V562.234H180.67V560.652H195.154ZM187.895 565.029C185.574 565.047 184.326 565.504 184.344 566.383C184.326 567.262 185.574 567.736 187.895 567.736C190.162 567.736 191.428 567.262 191.445 566.383C191.428 565.504 190.162 565.047 187.895 565.029ZM193.854 554.061V555.625H189.283C189.591 556.935 191.489 558.112 194.469 558.385L193.783 559.932C190.9 559.642 188.756 558.49 187.895 556.873C187.033 558.481 184.924 559.642 182.041 559.932L181.373 558.385C184.291 558.112 186.189 556.917 186.523 555.625H181.988V554.061H193.854ZM205.543 554.781C208.039 554.799 210.5 556.275 210.518 560.934C210.518 565.328 208.531 567.859 205.402 567.859C202.941 567.859 201.254 566.33 200.973 564.221H203.24C203.469 565.223 204.242 565.873 205.402 565.873C207.248 565.873 208.285 564.238 208.303 561.514H208.162C207.512 562.621 206.299 563.271 204.893 563.271C202.625 563.271 200.867 561.549 200.85 559.141C200.85 556.645 202.713 554.764 205.543 554.781ZM205.561 556.627C204.137 556.627 203.064 557.734 203.082 559.088C203.082 560.459 204.102 561.531 205.525 561.531C206.932 561.531 208.039 560.389 208.021 559.07C208.021 557.77 206.984 556.627 205.561 556.627ZM225.529 553.357V569.248H223.648V561.092H221.943V568.51H220.115V553.779H221.943V559.51H223.648V553.357H225.529ZM218.762 555.361C218.762 559.65 217.408 563.342 212.891 565.926L211.766 564.572C215.149 562.612 216.582 560.099 216.863 556.926H212.504V555.361H218.762ZM245.023 553.357V562.797H243.072V558.912H240.365V557.312H243.072V553.357H245.023ZM239.645 563.201C243.02 563.201 245.076 564.309 245.076 566.225C245.076 568.141 243.02 569.248 239.645 569.248C236.287 569.248 234.23 568.141 234.248 566.225C234.23 564.309 236.287 563.201 239.645 563.201ZM239.645 564.695C237.43 564.695 236.182 565.223 236.182 566.225C236.182 567.209 237.43 567.736 239.645 567.736C241.859 567.736 243.125 567.209 243.125 566.225C243.125 565.223 241.859 564.695 239.645 564.695ZM237.553 556.082C237.553 558.016 238.836 559.967 241.297 560.793L240.312 562.34C238.546 561.742 237.289 560.529 236.604 559.035C235.9 560.731 234.573 562.085 232.684 562.762L231.664 561.215C234.213 560.336 235.566 558.191 235.566 556.1V555.977H232.262V554.395H240.84V555.977H237.553V556.082ZM259.807 553.357V556.891H262.021V558.508H259.807V561.848H257.855V553.357H259.807ZM255.008 554.342V555.924H249.875V559.826C252.863 559.817 254.524 559.729 256.414 559.316L256.625 560.898C254.551 561.338 252.688 561.426 249.225 561.426H247.941V554.342H255.008ZM251.457 562.639V564.273H257.855V562.639H259.807V569.02H249.506V562.639H251.457ZM251.457 567.438H257.855V565.82H251.457V567.438Z" fill="#6B7281"/>
<g filter="url(#filter0_di_5075_3930)">
<path d="M33 670C33 661.163 40.1634 654 49 654H249C257.837 654 265 661.163 265 670V698C265 706.837 257.837 714 249 714H49C40.1634 714 33 706.837 33 698V670Z" fill="url(#paint7_linear_5075_3930)"/>
<path d="M49 654.5H249C257.56 654.5 264.5 661.44 264.5 670V698C264.5 706.56 257.56 713.5 249 713.5H49C40.4396 713.5 33.5 706.56 33.5 698V670C33.5 661.44 40.4396 654.5 49 654.5Z" stroke="white"/>
<path d="M49 654.5H249C257.56 654.5 264.5 661.44 264.5 670V698C264.5 706.56 257.56 713.5 249 713.5H49C40.4396 713.5 33.5 706.56 33.5 698V670C33.5 661.44 40.4396 654.5 49 654.5Z" stroke="#A7D9FF"/>
</g>
<path d="M112.096 673.621V679.562H114.451V681.391H112.096V689.652H109.846V673.621H112.096ZM107.613 675.098V676.908H102.34V683.922C104.66 683.896 106.576 683.79 108.703 683.412L108.949 685.293C106.471 685.715 104.291 685.785 101.461 685.768H100.107V675.098H107.613ZM122.326 673.92C125.877 673.92 128.127 675.098 128.145 677.049C128.127 678.982 125.877 680.16 122.326 680.143C118.793 680.16 116.49 678.982 116.49 677.049C116.49 675.098 118.793 673.92 122.326 673.92ZM122.326 675.66C120.094 675.66 118.811 676.135 118.828 677.049C118.811 677.945 120.094 678.402 122.326 678.402C124.541 678.402 125.824 677.945 125.824 677.049C125.824 676.135 124.541 675.66 122.326 675.66ZM127.881 683.992V689.441H116.719V683.992H127.881ZM118.934 685.768V687.648H125.684V685.768H118.934ZM129.621 681.074V682.867H115.031V681.074H129.621ZM139.869 677.646C139.869 680.23 140.59 682.902 142.77 684.309L141.557 686.049C140.177 685.214 139.298 683.843 138.797 682.199C138.217 684.01 137.259 685.521 135.809 686.4L134.438 684.748C136.811 683.271 137.689 680.459 137.689 677.752V674.992H139.869V677.646ZM148.605 673.621V689.617H146.461V673.621H148.605ZM145.248 673.85V688.879H143.156V680.846H141.082V679.018H143.156V673.85H145.248ZM156.287 676.381C156.287 678.596 157.377 680.793 159.908 681.725L158.66 683.465C156.981 682.806 155.83 681.549 155.18 679.967C154.477 681.654 153.237 682.973 151.418 683.658L150.223 681.9C152.842 680.969 154.02 678.719 154.02 676.381V674.535H156.287V676.381ZM163.775 673.639V685.504H161.543V680.617H158.801V678.807H161.543V677.523H158.801V675.713H161.543V673.639H163.775ZM164.109 687.543V689.336H153.123V684.361H155.391V687.543H164.109ZM173.145 674.43C176.52 674.447 179.156 676.258 179.174 679.035C179.156 681.83 176.52 683.658 173.145 683.641C169.752 683.658 167.133 681.83 167.133 679.035C167.133 676.258 169.752 674.447 173.145 674.43ZM173.145 676.258C170.93 676.24 169.312 677.312 169.312 679.035C169.312 680.775 170.93 681.812 173.145 681.812C175.359 681.812 176.941 680.775 176.959 679.035C176.941 677.312 175.359 676.24 173.145 676.258ZM180.492 685.855V687.666H165.85V685.855H180.492ZM196.049 685.996V687.842H181.406V685.996H187.576V683.588H183.094V678.209H192.146V676.451H183.076V674.658H194.361V679.967H185.344V681.76H194.73V683.588H189.809V685.996H196.049Z" fill="white"/>
<g filter="url(#filter1_di_5075_3930)">
<path d="M277 670C277 661.163 284.163 654 293 654H351C359.837 654 367 661.163 367 670V698C367 706.837 359.837 714 351 714H293C284.163 714 277 706.837 277 698V670Z" fill="url(#paint8_linear_5075_3930)" shape-rendering="crispEdges"/>
<path d="M293 654.5H351C359.56 654.5 366.5 661.44 366.5 670V698C366.5 706.56 359.56 713.5 351 713.5H293C284.44 713.5 277.5 706.56 277.5 698V670C277.5 661.44 284.44 654.5 293 654.5Z" stroke="white" shape-rendering="crispEdges"/>
<path d="M293 654.5H351C359.56 654.5 366.5 661.44 366.5 670V698C366.5 706.56 359.56 713.5 351 713.5H293C284.44 713.5 277.5 706.56 277.5 698V670C277.5 661.44 284.44 654.5 293 654.5Z" stroke="#A7D9FF" shape-rendering="crispEdges"/>
<path d="M326.824 686.748V691.441H315.662V686.748H326.824ZM317.877 688.418V689.771H324.627V688.418H317.877ZM327.809 676.764V678.451H314.678V676.764H320.145V675.48H322.395V676.764H327.809ZM321.27 678.855C324.732 678.873 326.648 679.629 326.648 681.141C326.648 682.477 325.146 683.241 322.395 683.391V684.182H328.564V685.939H313.975V684.182H320.145V683.391C317.402 683.241 315.873 682.477 315.891 681.141C315.873 679.629 317.824 678.873 321.27 678.855ZM321.27 680.367C319.248 680.367 318.281 680.578 318.281 681.141C318.281 681.686 319.248 681.914 321.27 681.914C323.309 681.914 324.24 681.686 324.24 681.141C324.24 680.578 323.309 680.367 321.27 680.367Z" fill="#4F91EA"/>
</g>
<defs>
<filter id="filter0_di_5075_3930" x="29" y="650" width="240" height="68" filterUnits="userSpaceOnUse" color-interpolation-filters="sRGB">
<feFlood flood-opacity="0" result="BackgroundImageFix"/>
<feColorMatrix in="SourceAlpha" type="matrix" values="0 0 0 0 0 0 0 0 0 0 0 0 0 0 0 0 0 0 127 0" result="hardAlpha"/>
<feOffset/>
<feGaussianBlur stdDeviation="2"/>
<feComposite in2="hardAlpha" operator="out"/>
<feColorMatrix type="matrix" values="0 0 0 0 0.715912 0 0 0 0 0.69906 0 0 0 0 0.614798 0 0 0 0.25 0"/>
<feBlend mode="normal" in2="BackgroundImageFix" result="effect1_dropShadow_5075_3930"/>
<feBlend mode="normal" in="SourceGraphic" in2="effect1_dropShadow_5075_3930" result="shape"/>
<feColorMatrix in="SourceAlpha" type="matrix" values="0 0 0 0 0 0 0 0 0 0 0 0 0 0 0 0 0 0 127 0" result="hardAlpha"/>
<feOffset dy="4"/>
<feGaussianBlur stdDeviation="2"/>
<feComposite in2="hardAlpha" operator="arithmetic" k2="-1" k3="1"/>
<feColorMatrix type="matrix" values="0 0 0 0 1 0 0 0 0 1 0 0 0 0 1 0 0 0 0.25 0"/>
<feBlend mode="normal" in2="shape" result="effect2_innerShadow_5075_3930"/>
</filter>
<filter id="filter1_di_5075_3930" x="273" y="650" width="98" height="68" filterUnits="userSpaceOnUse" color-interpolation-filters="sRGB">
<feFlood flood-opacity="0" result="BackgroundImageFix"/>
<feColorMatrix in="SourceAlpha" type="matrix" values="0 0 0 0 0 0 0 0 0 0 0 0 0 0 0 0 0 0 127 0" result="hardAlpha"/>
<feOffset/>
<feGaussianBlur stdDeviation="2"/>
<feComposite in2="hardAlpha" operator="out"/>
<feColorMatrix type="matrix" values="0 0 0 0 0.715912 0 0 0 0 0.69906 0 0 0 0 0.614798 0 0 0 0.25 0"/>
<feBlend mode="normal" in2="BackgroundImageFix" result="effect1_dropShadow_5075_3930"/>
<feBlend mode="normal" in="SourceGraphic" in2="effect1_dropShadow_5075_3930" result="shape"/>
<feColorMatrix in="SourceAlpha" type="matrix" values="0 0 0 0 0 0 0 0 0 0 0 0 0 0 0 0 0 0 127 0" result="hardAlpha"/>
<feOffset dy="4"/>
<feGaussianBlur stdDeviation="2"/>
<feComposite in2="hardAlpha" operator="arithmetic" k2="-1" k3="1"/>
<feColorMatrix type="matrix" values="0 0 0 0 1 0 0 0 0 1 0 0 0 0 1 0 0 0 0.25 0"/>
<feBlend mode="normal" in2="shape" result="effect2_innerShadow_5075_3930"/>
</filter>
<linearGradient id="paint0_linear_5075_3930" x1="196.5" y1="0" x2="196.5" y2="852" gradientUnits="userSpaceOnUse">
<stop stop-color="#D3EFFE"/>
<stop offset="1" stop-color="#F0FAFF"/>
</linearGradient>
<linearGradient id="paint1_linear_5075_3930" x1="243.673" y1="208.366" x2="231.351" y2="245.025" gradientUnits="userSpaceOnUse">
<stop stop-color="#71B5FF"/>
<stop offset="1" stop-color="#3980D6"/>
</linearGradient>
<linearGradient id="paint2_linear_5075_3930" x1="150.331" y1="204.366" x2="162.653" y2="241.025" gradientUnits="userSpaceOnUse">
<stop stop-color="#71B5FF"/>
<stop offset="1" stop-color="#3980D6"/>
</linearGradient>
<linearGradient id="paint3_linear_5075_3930" x1="222.619" y1="174.933" x2="228.542" y2="151.7" gradientUnits="userSpaceOnUse">
<stop stop-color="#56A7FF"/>
<stop offset="1" stop-color="#007AFF"/>
</linearGradient>
<linearGradient id="paint4_linear_5075_3930" x1="175.24" y1="175.933" x2="169.318" y2="152.7" gradientUnits="userSpaceOnUse">
<stop stop-color="#56A7FF"/>
<stop offset="1" stop-color="#007AFF"/>
</linearGradient>
<linearGradient id="paint5_linear_5075_3930" x1="196.811" y1="334.684" x2="196.811" y2="171" gradientUnits="userSpaceOnUse">
<stop stop-color="#56A7FF"/>
<stop offset="1" stop-color="#7FBDFF"/>
</linearGradient>
<linearGradient id="paint6_linear_5075_3930" x1="183" y1="395.684" x2="183" y2="478.684" gradientUnits="userSpaceOnUse">
<stop stop-color="#0E9CF7"/>
<stop offset="1" stop-color="#0085E9"/>
</linearGradient>
<linearGradient id="paint7_linear_5075_3930" x1="33" y1="684" x2="265" y2="684" gradientUnits="userSpaceOnUse">
<stop stop-color="#46AFFF"/>
<stop offset="1" stop-color="#1E9EFF"/>
</linearGradient>
<linearGradient id="paint8_linear_5075_3930" x1="277" y1="684" x2="367" y2="684" gradientUnits="userSpaceOnUse">
<stop stop-color="white"/>
<stop offset="1" stop-color="#E9F5FF"/>
</linearGradient>
</defs>
</svg>
