<svg width="393" height="852" viewBox="0 0 393 852" fill="none" xmlns="http://www.w3.org/2000/svg">
<rect width="393" height="852" fill="white"/>
<rect width="393" height="119" fill="white"/>
<rect width="393" height="66.3895" fill="white"/>
<path d="M38.9526 38V28.1304H38.8032L35.8232 30.2305V28.2217L38.9526 26.022H41.0859V38H38.9526ZM48.8887 38.2407C47.9701 38.2407 47.1593 38.0941 46.4565 37.8008C45.7537 37.502 45.2031 37.0924 44.8047 36.5723C44.4118 36.0465 44.2153 35.4434 44.2153 34.7627V34.7461C44.2153 34.2314 44.3288 33.7666 44.5557 33.3516C44.7881 32.931 45.109 32.5768 45.5186 32.2891C45.9281 32.0013 46.3984 31.8049 46.9297 31.6997V31.6499C46.2435 31.4673 45.6901 31.1408 45.2695 30.6704C44.8545 30.1945 44.647 29.6356 44.647 28.9937V28.9771C44.647 28.3628 44.8268 27.8149 45.1865 27.3335C45.5518 26.8521 46.0526 26.473 46.689 26.1963C47.3309 25.9196 48.0641 25.7812 48.8887 25.7812C49.7132 25.7812 50.4437 25.9196 51.0801 26.1963C51.722 26.473 52.2228 26.8521 52.5825 27.3335C52.9422 27.8149 53.1221 28.3628 53.1221 28.9771V28.9937C53.1221 29.6356 52.9146 30.1945 52.4995 30.6704C52.0845 31.1408 51.5339 31.4673 50.8477 31.6499V31.6997C51.3789 31.8049 51.8493 32.0013 52.2588 32.2891C52.6683 32.5768 52.9865 32.931 53.2134 33.3516C53.4458 33.7666 53.562 34.2314 53.562 34.7461V34.7627C53.562 35.4434 53.3628 36.0465 52.9644 36.5723C52.5715 37.0924 52.0236 37.502 51.3208 37.8008C50.618 38.0941 49.8073 38.2407 48.8887 38.2407ZM48.8887 36.6055C49.3701 36.6055 49.7935 36.5225 50.1587 36.3564C50.5295 36.1849 50.82 35.9497 51.0303 35.6509C51.2406 35.3465 51.3457 35.0034 51.3457 34.6216V34.605C51.3457 34.2176 51.2406 33.8745 51.0303 33.5757C50.8255 33.2713 50.5378 33.0334 50.167 32.8618C49.7962 32.6903 49.3701 32.6045 48.8887 32.6045C48.4017 32.6045 47.9728 32.6903 47.6021 32.8618C47.2368 33.0334 46.9491 33.2713 46.7388 33.5757C46.5285 33.8745 46.4233 34.2176 46.4233 34.605V34.6216C46.4233 35.0034 46.5285 35.3465 46.7388 35.6509C46.9546 35.9497 47.2451 36.1849 47.6104 36.3564C47.9811 36.5225 48.4072 36.6055 48.8887 36.6055ZM48.8887 30.9692C49.3092 30.9692 49.6772 30.8945 49.9927 30.7451C50.3136 30.5902 50.5627 30.3799 50.7397 30.1143C50.9224 29.8486 51.0137 29.5387 51.0137 29.1846V29.168C51.0137 28.8193 50.9224 28.5122 50.7397 28.2466C50.5627 27.981 50.3136 27.7734 49.9927 27.624C49.6717 27.4746 49.3037 27.3999 48.8887 27.3999C48.4681 27.3999 48.0973 27.4746 47.7764 27.624C47.4609 27.7734 47.2119 27.981 47.0293 28.2466C46.8522 28.5122 46.7637 28.8193 46.7637 29.168V29.1846C46.7637 29.5387 46.8522 29.8486 47.0293 30.1143C47.2119 30.3799 47.4609 30.5902 47.7764 30.7451C48.0973 30.8945 48.4681 30.9692 48.8887 30.9692ZM57.4136 36.3896C57.0373 36.3896 56.7218 36.2651 56.4673 36.0161C56.2183 35.7616 56.0938 35.4517 56.0938 35.0864C56.0938 34.7157 56.2183 34.4058 56.4673 34.1567C56.7218 33.9022 57.0373 33.7749 57.4136 33.7749C57.7954 33.7749 58.1108 33.9022 58.3599 34.1567C58.6089 34.4058 58.7334 34.7157 58.7334 35.0864C58.7334 35.4517 58.6089 35.7616 58.3599 36.0161C58.1108 36.2651 57.7954 36.3896 57.4136 36.3896ZM57.4136 30.2305C57.0373 30.2305 56.7218 30.106 56.4673 29.8569C56.2183 29.6024 56.0938 29.2925 56.0938 28.9272C56.0938 28.5565 56.2183 28.2466 56.4673 27.9976C56.7218 27.743 57.0373 27.6157 57.4136 27.6157C57.7954 27.6157 58.1108 27.743 58.3599 27.9976C58.6089 28.2466 58.7334 28.5565 58.7334 28.9272C58.7334 29.2925 58.6089 29.6024 58.3599 29.8569C58.1108 30.106 57.7954 30.2305 57.4136 30.2305ZM65.7725 38.2988C64.8206 38.2988 64.0044 38.0443 63.3237 37.5352C62.6486 37.026 62.1284 36.3011 61.7632 35.3604C61.3979 34.4196 61.2153 33.3045 61.2153 32.0151V31.9985C61.2153 30.7091 61.3979 29.5968 61.7632 28.6616C62.1284 27.7209 62.6486 26.9959 63.3237 26.4868C64.0044 25.9777 64.8206 25.7231 65.7725 25.7231C66.7243 25.7231 67.5405 25.9777 68.2212 26.4868C68.9019 26.9959 69.4248 27.7209 69.79 28.6616C70.1553 29.5968 70.3379 30.7091 70.3379 31.9985V32.0151C70.3379 33.3045 70.1553 34.4196 69.79 35.3604C69.4248 36.3011 68.9019 37.026 68.2212 37.5352C67.5405 38.0443 66.7243 38.2988 65.7725 38.2988ZM65.7725 36.564C66.2816 36.564 66.716 36.3813 67.0757 36.0161C67.4354 35.6509 67.7093 35.1307 67.8975 34.4556C68.0911 33.7749 68.188 32.9614 68.188 32.0151V31.9985C68.188 31.0522 68.0911 30.2415 67.8975 29.5664C67.7093 28.8857 67.4354 28.3656 67.0757 28.0059C66.716 27.6406 66.2816 27.458 65.7725 27.458C65.2633 27.458 64.8289 27.6406 64.4692 28.0059C64.1151 28.3656 63.8411 28.8857 63.6475 29.5664C63.4593 30.2415 63.3652 31.0522 63.3652 31.9985V32.0151C63.3652 32.9614 63.4593 33.7749 63.6475 34.4556C63.8411 35.1307 64.1151 35.6509 64.4692 36.0161C64.8289 36.3813 65.2633 36.564 65.7725 36.564ZM77.0781 38.2988C76.1263 38.2988 75.3101 38.0443 74.6294 37.5352C73.9543 37.026 73.4341 36.3011 73.0688 35.3604C72.7036 34.4196 72.521 33.3045 72.521 32.0151V31.9985C72.521 30.7091 72.7036 29.5968 73.0688 28.6616C73.4341 27.7209 73.9543 26.9959 74.6294 26.4868C75.3101 25.9777 76.1263 25.7231 77.0781 25.7231C78.0299 25.7231 78.8462 25.9777 79.5269 26.4868C80.2075 26.9959 80.7305 27.7209 81.0957 28.6616C81.4609 29.5968 81.6436 30.7091 81.6436 31.9985V32.0151C81.6436 33.3045 81.4609 34.4196 81.0957 35.3604C80.7305 36.3011 80.2075 37.026 79.5269 37.5352C78.8462 38.0443 78.0299 38.2988 77.0781 38.2988ZM77.0781 36.564C77.5872 36.564 78.0216 36.3813 78.3813 36.0161C78.741 35.6509 79.015 35.1307 79.2031 34.4556C79.3968 33.7749 79.4937 32.9614 79.4937 32.0151V31.9985C79.4937 31.0522 79.3968 30.2415 79.2031 29.5664C79.015 28.8857 78.741 28.3656 78.3813 28.0059C78.0216 27.6406 77.5872 27.458 77.0781 27.458C76.569 27.458 76.1346 27.6406 75.7749 28.0059C75.4207 28.3656 75.1468 28.8857 74.9531 29.5664C74.765 30.2415 74.6709 31.0522 74.6709 31.9985V32.0151C74.6709 32.9614 74.765 33.7749 74.9531 34.4556C75.1468 35.1307 75.4207 35.6509 75.7749 36.0161C76.1346 36.3813 76.569 36.564 77.0781 36.564Z" fill="black"/>
<path fill-rule="evenodd" clip-rule="evenodd" d="M314.614 27.0329C314.614 26.3999 314.136 25.8867 313.547 25.8867H312.481C311.892 25.8867 311.414 26.3999 311.414 27.0329V36.9669C311.414 37.5999 311.892 38.1131 312.481 38.1131H313.547C314.136 38.1131 314.614 37.5999 314.614 36.9669V27.0329ZM307.18 28.332H308.247C308.836 28.332 309.313 28.8575 309.313 29.5057V36.9394C309.313 37.5876 308.836 38.1131 308.247 38.1131H307.18C306.591 38.1131 306.113 37.5876 306.113 36.9394V29.5057C306.113 28.8575 306.591 28.332 307.18 28.332ZM302.848 30.981H301.782C301.192 30.981 300.715 31.5132 300.715 32.1697V36.9244C300.715 37.5809 301.192 38.1131 301.782 38.1131H302.848C303.437 38.1131 303.915 37.5809 303.915 36.9244V32.1697C303.915 31.5132 303.437 30.981 302.848 30.981ZM297.547 33.4263H296.481C295.892 33.4263 295.414 33.9509 295.414 34.598V36.9414C295.414 37.5885 295.892 38.1131 296.481 38.1131H297.547C298.136 38.1131 298.614 37.5885 298.614 36.9414V34.598C298.614 33.9509 298.136 33.4263 297.547 33.4263Z" fill="black"/>
<path fill-rule="evenodd" clip-rule="evenodd" d="M330.185 28.3022C332.672 28.3023 335.064 29.2244 336.866 30.8779C337.002 31.0055 337.219 31.0039 337.353 30.8743L338.65 29.6108C338.718 29.545 338.756 29.456 338.755 29.3633C338.754 29.2706 338.716 29.182 338.647 29.117C333.916 24.7423 326.452 24.7423 321.721 29.117C321.653 29.1819 321.614 29.2705 321.613 29.3632C321.613 29.4559 321.65 29.545 321.718 29.6108L323.016 30.8743C323.149 31.0041 323.367 31.0057 323.502 30.8779C325.305 29.2243 327.697 28.3022 330.185 28.3022ZM330.181 32.5225C331.539 32.5224 332.847 33.0342 333.854 33.9583C333.99 34.0894 334.204 34.0866 334.337 33.9519L335.624 32.6326C335.692 32.5634 335.729 32.4695 335.728 32.3719C335.727 32.2744 335.688 32.1813 335.619 32.1135C332.555 29.2227 327.81 29.2227 324.746 32.1135C324.677 32.1813 324.638 32.2744 324.637 32.372C324.636 32.4696 324.674 32.5635 324.741 32.6326L326.028 33.9519C326.161 34.0866 326.375 34.0894 326.512 33.9583C327.517 33.0348 328.825 32.5231 330.181 32.5225ZM332.706 35.316C332.708 35.4214 332.671 35.523 332.603 35.5968L330.427 38.0515C330.363 38.1236 330.276 38.1642 330.185 38.1642C330.094 38.1642 330.007 38.1236 329.943 38.0515L327.766 35.5968C327.699 35.5229 327.662 35.4213 327.664 35.316C327.666 35.2106 327.707 35.1108 327.777 35.0402C329.167 33.7263 331.203 33.7263 332.593 35.0402C332.663 35.1109 332.704 35.2107 332.706 35.316Z" fill="black"/>
<rect opacity="0.35" x="346.258" y="26" width="24" height="12" rx="3.8" stroke="black"/>
<path opacity="0.4" d="M371.758 30.2812V34.3567C372.563 34.0116 373.086 33.2086 373.086 32.319C373.086 31.4294 372.563 30.6264 371.758 30.2812Z" fill="black"/>
<rect x="347.758" y="27.5" width="21" height="9" rx="2.5" fill="black"/>
<path d="M83.5332 90.6367C83.5332 91.9785 83.2812 93.1416 82.7773 94.126C82.2734 95.1104 81.5791 95.8662 80.6943 96.3936C79.8154 96.915 78.8164 97.1758 77.6973 97.1758C76.5781 97.1758 75.5762 96.915 74.6914 96.3936C73.8125 95.8662 73.1211 95.1104 72.6172 94.126C72.1133 93.1357 71.8613 91.9727 71.8613 90.6367C71.8613 89.2949 72.1133 88.1318 72.6172 87.1475C73.1211 86.1631 73.8125 85.4102 74.6914 84.8887C75.5762 84.3613 76.5781 84.0977 77.6973 84.0977C78.8164 84.0977 79.8154 84.3613 80.6943 84.8887C81.5791 85.4102 82.2734 86.1631 82.7773 87.1475C83.2812 88.1318 83.5332 89.2949 83.5332 90.6367ZM81.2305 90.6367C81.2305 89.6875 81.0811 88.8789 80.7822 88.2109C80.4893 87.5371 80.0762 87.0273 79.543 86.6816C79.0098 86.3301 78.3945 86.1543 77.6973 86.1543C77 86.1543 76.3848 86.3301 75.8516 86.6816C75.3184 87.0273 74.9023 87.5371 74.6035 88.2109C74.3105 88.8789 74.1641 89.6875 74.1641 90.6367C74.1641 91.5859 74.3105 92.3975 74.6035 93.0713C74.9023 93.7393 75.3184 94.249 75.8516 94.6006C76.3848 94.9463 77 95.1191 77.6973 95.1191C78.3945 95.1191 79.0098 94.9463 79.543 94.6006C80.0762 94.249 80.4893 93.7393 80.7822 93.0713C81.0811 92.3975 81.2305 91.5859 81.2305 90.6367ZM89.8262 88.9492H89.9316L92.7617 84.2734H95.3633L91.4434 90.6367L95.4336 97H92.7793L89.9316 92.3594H89.8262L86.9785 97H84.3418L88.3672 90.6367L84.3945 84.2734H87.0312L89.8262 88.9492ZM109.83 84.6426C109.83 85.5684 109.801 86.4619 109.742 87.3232C109.689 88.1846 109.555 89.1953 109.338 90.3555C109.965 90.3086 110.568 90.2559 111.148 90.1973L111.289 91.6387C109.93 91.8262 108.395 91.9697 106.684 92.0693V97.668H104.715V92.1572C103.525 92.1865 102.494 92.2012 101.621 92.2012H100.777L100.531 90.6191C103.268 90.6074 105.55 90.5576 107.378 90.4697C107.53 89.7549 107.65 89.0371 107.738 88.3164L101.797 88.8438L101.516 87.209L107.87 86.9102C107.899 86.5293 107.92 86.0078 107.932 85.3457H101.885V83.7637H109.83V84.6426ZM114.119 98.5645H112.15V82.6738H114.119V98.5645ZM130.713 96.5781H116.193V94.9609H130.713V96.5781ZM124.455 85.9258C124.455 86.6992 124.698 87.4346 125.185 88.1318C125.671 88.8232 126.345 89.4121 127.206 89.8984C128.073 90.3848 129.049 90.7129 130.133 90.8828L129.359 92.4297C128.012 92.1895 126.816 91.7295 125.773 91.0498C124.736 90.3643 123.96 89.5264 123.444 88.5361C122.935 89.5381 122.164 90.3906 121.133 91.0938C120.102 91.7969 118.924 92.2715 117.6 92.5176L116.826 90.9355C117.881 90.7715 118.833 90.4434 119.683 89.9512C120.532 89.4531 121.197 88.8525 121.678 88.1494C122.158 87.4404 122.398 86.6992 122.398 85.9258V85.6797H117.406V84.1152H129.465V85.6797H124.455V85.9258ZM149.17 84.5371H146.99V86.8926H149.082V88.3867H137.41V86.8926H139.502V84.5371H137.322V83.0781H149.17V84.5371ZM150.506 90.918H144.213V92.1133H148.695V95.8926H139.66V96.9648H149.135V98.4238H137.744V94.5391H146.779V93.5371H137.727V92.1133H142.262V90.918H136.021V89.3711H150.506V90.918ZM145.021 86.8926V84.5371H141.453V86.8926H145.021ZM164.85 98.5645H162.881V82.6738H164.85V98.5645ZM160.104 84.3613C160.104 86.8867 159.532 89.1045 158.39 91.0146C157.247 92.9189 155.352 94.498 152.703 95.752L151.684 94.1875C153.729 93.2148 155.267 92.0518 156.298 90.6982C157.335 89.3389 157.941 87.7422 158.117 85.9082H152.492V84.3613H160.104Z" fill="#1E1E1E"/>
<g filter="url(#filter0_i_4722_1081)">
<rect x="33" y="142" width="326" height="18" rx="9" fill="#E3E7EA"/>
</g>
<rect x="29" y="138" width="334" height="26" rx="13" stroke="#F0F5FA" stroke-width="8"/>
<g filter="url(#filter1_i_4722_1081)">
<rect x="33" y="142" width="128" height="18" rx="9" fill="#3C86FF"/>
</g>
<path d="M181.597 154.286V152.966L185.57 146.809H187.627V152.928H188.833V154.286H187.627V156H186.053V154.286H181.597ZM183.285 152.928H186.078V148.688H185.977L183.285 152.864V152.928ZM193.492 156.127C191.442 156.127 189.995 155.035 190.001 153.537C189.995 152.369 190.864 151.417 191.969 151.239V151.188C191.004 150.985 190.35 150.147 190.344 149.145C190.35 147.723 191.677 146.682 193.492 146.682C195.295 146.682 196.628 147.723 196.628 149.145C196.628 150.154 195.955 150.985 195.003 151.188V151.239C196.101 151.417 196.977 152.369 196.983 153.537C196.977 155.035 195.523 156.127 193.492 156.127ZM191.702 153.385C191.696 154.235 192.4 154.819 193.492 154.819C194.571 154.819 195.276 154.235 195.282 153.385C195.276 152.521 194.527 151.88 193.492 151.887C192.458 151.88 191.696 152.515 191.702 153.385ZM191.956 149.297C191.962 150.103 192.597 150.655 193.492 150.655C194.375 150.655 195.016 150.103 195.016 149.297C195.016 148.516 194.394 147.977 193.492 147.977C192.572 147.977 191.962 148.516 191.956 149.297ZM200.614 151.29C199.307 151.296 198.589 150.325 198.596 148.916C198.589 147.52 199.338 146.555 200.614 146.555C201.941 146.555 202.639 147.52 202.646 148.916C202.639 150.338 201.916 151.296 200.614 151.29ZM199.764 148.916C199.77 149.741 200.056 150.274 200.614 150.274C201.192 150.274 201.465 149.741 201.465 148.916C201.465 148.116 201.211 147.564 200.614 147.57C200.056 147.57 199.77 148.123 199.764 148.916ZM199.776 156L206.099 146.809H207.381L201.059 156H199.776ZM204.601 153.88C204.594 152.477 205.343 151.506 206.619 151.506C207.939 151.506 208.644 152.477 208.65 153.88C208.644 155.289 207.92 156.248 206.619 156.241C205.312 156.248 204.594 155.276 204.601 153.88ZM205.769 153.88C205.775 154.692 206.061 155.232 206.619 155.226C207.197 155.232 207.47 154.692 207.47 153.88C207.47 153.067 207.216 152.515 206.619 152.521C206.061 152.528 205.775 153.074 205.769 153.88Z" fill="#9E9FA7"/>
<path d="M45.5 81.5L37 90L45.5 98.5" stroke="#A0AEB9" stroke-width="2"/>
<path d="M179.309 772.621V788.617H177.182V772.621H179.309ZM176.039 772.885V787.879H173.93V779.916H171.82V778.105H173.93V772.885H176.039ZM170.537 776.91C170.537 779.564 171.363 782.254 173.701 783.59L172.383 785.242C170.959 784.398 170.019 782.966 169.482 781.252C168.929 783.115 167.962 784.697 166.494 785.594L165.141 783.941C167.496 782.5 168.375 779.617 168.375 776.91V776.049H165.756V774.256H172.963V776.049H170.537V776.91ZM195.586 779.441V781.076H189.434V782.078H193.846V785.98H184.934V786.859H194.268V788.512H182.736V784.469H191.631V783.678H182.719V782.078H187.201V781.076H181.066V779.441H195.586ZM189.416 772.604V773.869H194.215V775.521H189.697C190.137 776.453 191.771 777.218 195.006 777.35L194.355 779.002C191.385 778.861 189.328 778.105 188.309 776.893C187.298 778.105 185.232 778.861 182.244 779.002L181.629 777.35C184.837 777.218 186.463 776.453 186.92 775.521H182.438V773.869H187.201V772.604H189.416ZM209.209 772.621V778.879H211.564V780.725H209.209V788.617H206.994V772.621H209.209ZM205.904 775.012V776.805H196.5V775.012H200.121V772.867H202.371V775.012H205.904ZM201.246 777.701C203.584 777.701 205.324 779.283 205.324 781.516C205.324 783.748 203.584 785.33 201.246 785.33C198.891 785.33 197.15 783.748 197.15 781.516C197.15 779.283 198.891 777.701 201.246 777.701ZM201.246 779.512C200.121 779.529 199.295 780.285 199.295 781.516C199.295 782.764 200.121 783.502 201.246 783.484C202.371 783.502 203.18 782.764 203.18 781.516C203.18 780.285 202.371 779.529 201.246 779.512ZM225.592 772.621V788.617H223.324V772.621H225.592ZM220.793 774.291C220.793 779.143 219.088 783.168 213.375 785.875L212.197 784.082C216.328 782.131 218.147 779.6 218.508 776.049H213.059V774.291H220.793Z" fill="white"/>
<rect x="21" y="253" width="350" height="160" rx="19" fill="white"/>
<rect x="21" y="253" width="350" height="160" rx="19" stroke="#D9D9D9" stroke-width="2"/>
<rect x="248.5" y="272.5" width="103" height="29" rx="14.5" fill="#F1F5FA"/>
<rect x="248.5" y="272.5" width="103" height="29" rx="14.5" stroke="#D9D9D9"/>
<path d="M275.109 284.219H277.078V285.656H275.109V290.328H273.375V279.781H275.109V284.219ZM272.359 282.734H263.984V281.344H267.312V279.766H269.047V281.344H272.359V282.734ZM268.172 283.312C268.844 283.312 269.44 283.424 269.961 283.648C270.482 283.872 270.888 284.19 271.18 284.602C271.471 285.008 271.62 285.479 271.625 286.016C271.62 286.547 271.471 287.016 271.18 287.422C270.888 287.823 270.482 288.135 269.961 288.359C269.44 288.578 268.844 288.688 268.172 288.688C267.495 288.688 266.893 288.578 266.367 288.359C265.841 288.135 265.432 287.823 265.141 287.422C264.849 287.016 264.703 286.547 264.703 286.016C264.703 285.479 264.849 285.008 265.141 284.602C265.432 284.19 265.841 283.872 266.367 283.648C266.893 283.424 267.495 283.312 268.172 283.312ZM268.172 284.656C267.625 284.656 267.19 284.776 266.867 285.016C266.549 285.255 266.391 285.589 266.391 286.016C266.391 286.432 266.552 286.76 266.875 287C267.198 287.24 267.63 287.354 268.172 287.344C268.714 287.354 269.148 287.24 269.477 287C269.805 286.76 269.969 286.432 269.969 286.016C269.969 285.589 269.805 285.255 269.477 285.016C269.154 284.776 268.719 284.656 268.172 284.656ZM275.672 293.609H266.062V289.5H267.797V292.203H275.672V293.609ZM289.125 281.484C289.125 282.214 289.107 282.862 289.07 283.43C289.039 283.997 288.956 284.63 288.82 285.328H290.703V286.734H285.094V288.938H289.156V293.891H287.422V290.328H279.109V288.938H283.359V286.734H277.797V285.328H287.078C287.203 284.677 287.286 284.078 287.328 283.531C287.37 282.979 287.391 282.401 287.391 281.797H279.391V280.406H289.125V281.484ZM295.484 280.797C296.12 280.797 296.693 280.966 297.203 281.305C297.714 281.643 298.13 282.128 298.453 282.758C298.776 283.383 298.977 284.12 299.055 284.969H301.75V279.766H303.469V293.906H301.75V286.375H299.078C299.016 287.271 298.826 288.052 298.508 288.719C298.19 289.38 297.771 289.891 297.25 290.25C296.729 290.604 296.141 290.781 295.484 290.781C294.776 290.781 294.148 290.578 293.602 290.172C293.055 289.766 292.628 289.185 292.32 288.43C292.013 287.674 291.859 286.792 291.859 285.781C291.859 284.781 292.013 283.906 292.32 283.156C292.628 282.401 293.055 281.82 293.602 281.414C294.154 281.003 294.781 280.797 295.484 280.797ZM295.484 282.359C295.094 282.359 294.75 282.497 294.453 282.773C294.156 283.044 293.927 283.438 293.766 283.953C293.604 284.464 293.526 285.073 293.531 285.781C293.526 286.495 293.604 287.109 293.766 287.625C293.927 288.141 294.156 288.536 294.453 288.812C294.75 289.083 295.094 289.219 295.484 289.219C295.875 289.219 296.216 289.083 296.508 288.812C296.805 288.536 297.034 288.141 297.195 287.625C297.362 287.109 297.448 286.495 297.453 285.781C297.448 285.073 297.362 284.461 297.195 283.945C297.034 283.43 296.805 283.036 296.508 282.766C296.216 282.495 295.875 282.359 295.484 282.359ZM316.141 283.406H309.219V282.016H311.844V280.172H313.562V282.016H316.141V283.406ZM312.703 284.156C313.297 284.156 313.826 284.297 314.289 284.578C314.758 284.854 315.122 285.242 315.383 285.742C315.648 286.242 315.781 286.807 315.781 287.438C315.781 288.078 315.648 288.651 315.383 289.156C315.122 289.661 314.758 290.057 314.289 290.344C313.826 290.625 313.297 290.766 312.703 290.766C312.115 290.766 311.586 290.625 311.117 290.344C310.648 290.057 310.281 289.661 310.016 289.156C309.75 288.651 309.62 288.078 309.625 287.438C309.62 286.807 309.75 286.242 310.016 285.742C310.281 285.242 310.648 284.854 311.117 284.578C311.586 284.297 312.115 284.156 312.703 284.156ZM312.703 285.594C312.396 285.594 312.125 285.672 311.891 285.828C311.656 285.979 311.474 286.195 311.344 286.477C311.214 286.753 311.151 287.073 311.156 287.438C311.151 287.812 311.214 288.141 311.344 288.422C311.474 288.703 311.656 288.919 311.891 289.07C312.125 289.216 312.396 289.286 312.703 289.281C313.005 289.286 313.273 289.216 313.508 289.07C313.742 288.919 313.924 288.703 314.055 288.422C314.185 288.141 314.25 287.812 314.25 287.438C314.25 287.073 314.185 286.753 314.055 286.477C313.924 286.195 313.742 285.979 313.508 285.828C313.273 285.672 313.005 285.594 312.703 285.594ZM321.391 293.891H319.734V286.984H318.359V293.25H316.734V280.062H318.359V285.578H319.734V279.766H321.391V293.891ZM328.203 282C328.203 282.615 328.331 283.203 328.586 283.766C328.841 284.323 329.216 284.82 329.711 285.258C330.211 285.69 330.812 286.021 331.516 286.25L330.578 287.641C329.828 287.375 329.18 286.987 328.633 286.477C328.086 285.966 327.659 285.365 327.352 284.672C327.034 285.427 326.586 286.083 326.008 286.641C325.435 287.198 324.75 287.62 323.953 287.906L323.016 286.516C323.76 286.266 324.391 285.909 324.906 285.445C325.422 284.977 325.807 284.438 326.062 283.828C326.323 283.219 326.453 282.573 326.453 281.891V280.5H328.203V282ZM334.906 293.891H333.172V290.219H325.281V288.844H334.906V293.891ZM334.906 288.156H333.172V283.938H330.359V282.516H333.172V279.766H334.906V288.156Z" fill="#6D6D6D"/>
<path d="M66.0127 339.873C65.8604 338.426 64.6924 337.562 62.8389 337.562C60.9092 337.562 59.8428 338.451 59.8174 339.67C59.792 340.99 61.1885 341.6 62.7627 341.955L64.4131 342.361C67.5615 343.072 69.9229 344.672 69.9229 347.744C69.9229 351.121 67.2822 353.254 62.8135 353.254C58.3701 353.254 55.5264 351.197 55.4248 347.262H59.1318C59.2588 349.115 60.7314 350.055 62.7627 350.055C64.7686 350.055 66.0635 349.115 66.0635 347.744C66.0635 346.5 64.9209 345.916 62.915 345.408L60.9092 344.926C57.8115 344.164 55.9072 342.615 55.9072 339.924C55.9072 336.572 58.8525 334.363 62.8643 334.363C66.9268 334.363 69.6182 336.623 69.6689 339.873H66.0127ZM76.0928 345.027V353H72.335V334.617H75.9912V341.625H76.1436C76.7783 340.025 78.1748 339.035 80.2568 339.035C83.126 339.035 85.0303 340.965 85.0303 344.215V353H81.2725V344.875C81.2725 343.174 80.3584 342.158 78.7842 342.158C77.21 342.158 76.0928 343.199 76.0928 345.027ZM94.1709 353.279C89.9561 353.279 87.3662 350.537 87.3662 346.17C87.3662 341.904 89.9814 339.035 94.0186 339.035C97.6494 339.035 100.493 341.32 100.493 346.018V347.084H91.0732C91.0732 349.166 92.3174 350.461 94.2471 350.461C95.5166 350.461 96.4307 349.902 96.8115 349.064H100.392C99.8584 351.604 97.5732 353.279 94.1709 353.279ZM91.0732 344.723H96.9385C96.9385 343.047 95.7705 341.854 94.0947 341.854C92.3682 341.854 91.1367 343.136 91.0732 344.723ZM108.187 349.141C108.187 346.068 110.675 345.053 113.315 344.9C114.306 344.837 116.159 344.748 116.743 344.723V343.605C116.718 342.463 115.931 341.777 114.534 341.777C113.265 341.777 112.452 342.361 112.249 343.301H108.669C108.897 340.914 110.979 339.035 114.636 339.035C117.632 339.035 120.476 340.381 120.476 343.707V353H116.921V351.096H116.819C116.134 352.365 114.839 353.254 112.782 353.254C110.142 353.254 108.187 351.883 108.187 349.141ZM111.792 349.039C111.792 350.105 112.655 350.664 113.849 350.664C115.55 350.664 116.769 349.521 116.743 348.074V347.059C116.172 347.084 114.572 347.173 113.925 347.236C112.63 347.363 111.792 347.973 111.792 349.039ZM127.103 334.617V353H123.345V334.617H127.103ZM132.739 353L128.981 339.213H132.79L134.948 348.531H135.075L137.335 339.213H141.067L143.353 348.48H143.479L145.612 339.213H149.421L145.638 353H141.677L139.29 344.24H139.112L136.726 353H132.739ZM150.665 349.141C150.665 346.068 153.153 345.053 155.794 344.9C156.784 344.837 158.638 344.748 159.222 344.723V343.605C159.196 342.463 158.409 341.777 157.013 341.777C155.743 341.777 154.931 342.361 154.728 343.301H151.147C151.376 340.914 153.458 339.035 157.114 339.035C160.11 339.035 162.954 340.381 162.954 343.707V353H159.399V351.096H159.298C158.612 352.365 157.317 353.254 155.261 353.254C152.62 353.254 150.665 351.883 150.665 349.141ZM154.271 349.039C154.271 350.105 155.134 350.664 156.327 350.664C158.028 350.664 159.247 349.521 159.222 348.074V347.059C158.65 347.084 157.051 347.173 156.403 347.236C155.108 347.363 154.271 347.973 154.271 349.039ZM167.524 358.18C166.788 358.18 166.103 358.154 165.62 358.104V355.184C166.103 355.209 166.661 355.234 167.144 355.234C167.88 355.234 168.489 355.158 168.946 353.965L169.175 353.381L164.224 339.213H168.159L171.054 349.369H171.206L174.126 339.213H178.112L172.729 354.523C171.942 356.732 170.444 358.18 167.524 358.18ZM187.812 343.301C187.659 342.336 186.796 341.701 185.552 341.701C184.333 341.701 183.394 342.285 183.419 343.123C183.394 343.732 183.901 344.215 185.196 344.494L187.659 345.002C190.325 345.561 191.62 346.754 191.646 348.734C191.62 351.451 189.183 353.279 185.526 353.279C181.794 353.279 179.61 351.604 179.306 348.912H183.089C183.267 350.004 184.155 350.562 185.526 350.562C186.897 350.562 187.812 350.004 187.812 349.115C187.812 348.404 187.228 347.973 185.933 347.693L183.647 347.236C181.032 346.729 179.661 345.357 179.687 343.326C179.661 340.686 181.946 339.035 185.501 339.035C188.979 339.035 191.138 340.686 191.341 343.301H187.812ZM207.819 343.301C207.667 342.336 206.804 341.701 205.56 341.701C204.341 341.701 203.401 342.285 203.427 343.123C203.401 343.732 203.909 344.215 205.204 344.494L207.667 345.002C210.333 345.561 211.628 346.754 211.653 348.734C211.628 351.451 209.19 353.279 205.534 353.279C201.802 353.279 199.618 351.604 199.313 348.912H203.097C203.274 350.004 204.163 350.562 205.534 350.562C206.905 350.562 207.819 350.004 207.819 349.115C207.819 348.404 207.235 347.973 205.94 347.693L203.655 347.236C201.04 346.729 199.669 345.357 199.694 343.326C199.669 340.686 201.954 339.035 205.509 339.035C208.987 339.035 211.146 340.686 211.349 343.301H207.819ZM213.964 353V339.213H217.544V341.625H217.696C218.28 340.025 219.677 339.035 221.53 339.035C223.435 339.035 224.831 340.025 225.288 341.625H225.415C225.999 340.051 227.548 339.035 229.579 339.035C232.144 339.035 233.921 340.736 233.921 343.732V353H230.163V344.469C230.163 342.895 229.249 342.133 228.005 342.133C226.583 342.133 225.771 343.123 225.771 344.57V353H222.114V344.367C222.114 342.996 221.251 342.133 219.981 342.133C218.712 342.133 217.722 343.148 217.722 344.723V353H213.964ZM236.815 353V339.213H240.573V353H236.815ZM238.694 337.41C237.552 337.41 236.638 336.547 236.638 335.506C236.638 334.439 237.552 333.576 238.694 333.576C239.812 333.576 240.726 334.439 240.726 335.506C240.726 336.547 239.812 337.41 238.694 337.41ZM247.251 334.617V353H243.493V334.617H247.251ZM256.417 353.279C252.202 353.279 249.612 350.537 249.612 346.17C249.612 341.904 252.228 339.035 256.265 339.035C259.896 339.035 262.739 341.32 262.739 346.018V347.084H253.319C253.319 349.166 254.563 350.461 256.493 350.461C257.763 350.461 258.677 349.902 259.058 349.064H262.638C262.104 351.604 259.819 353.279 256.417 353.279ZM253.319 344.723H259.185C259.185 343.047 258.017 341.854 256.341 341.854C254.614 341.854 253.383 343.136 253.319 344.723ZM270.433 349.141C270.433 346.068 272.921 345.053 275.562 344.9C276.552 344.837 278.405 344.748 278.989 344.723V343.605C278.964 342.463 278.177 341.777 276.78 341.777C275.511 341.777 274.698 342.361 274.495 343.301H270.915C271.144 340.914 273.226 339.035 276.882 339.035C279.878 339.035 282.722 340.381 282.722 343.707V353H279.167V351.096H279.065C278.38 352.365 277.085 353.254 275.028 353.254C272.388 353.254 270.433 351.883 270.433 349.141ZM274.038 349.039C274.038 350.105 274.901 350.664 276.095 350.664C277.796 350.664 279.015 349.521 278.989 348.074V347.059C278.418 347.084 276.818 347.173 276.171 347.236C274.876 347.363 274.038 347.973 274.038 349.039ZM292.853 339.213V342.031H290.263V348.76C290.263 349.852 290.796 350.131 291.558 350.156C291.938 350.156 292.599 350.131 293.056 350.08V353.051C292.649 353.127 291.989 353.178 291.05 353.178C288.333 353.178 286.479 351.959 286.505 349.293V342.031H284.601V339.213H286.505V335.912H290.263V339.213H292.853ZM301.206 353V339.213H304.786V341.625H304.938C305.522 340.025 306.919 339.035 308.772 339.035C310.677 339.035 312.073 340.025 312.53 341.625H312.657C313.241 340.051 314.79 339.035 316.821 339.035C319.386 339.035 321.163 340.736 321.163 343.732V353H317.405V344.469C317.405 342.895 316.491 342.133 315.247 342.133C313.825 342.133 313.013 343.123 313.013 344.57V353H309.356V344.367C309.356 342.996 308.493 342.133 307.224 342.133C305.954 342.133 304.964 343.148 304.964 344.723V353H301.206ZM330.304 353.279C326.089 353.279 323.499 350.537 323.499 346.17C323.499 341.904 326.114 339.035 330.151 339.035C333.782 339.035 336.626 341.32 336.626 346.018V347.084H327.206C327.206 349.166 328.45 350.461 330.38 350.461C331.649 350.461 332.563 349.902 332.944 349.064H336.524C335.991 351.604 333.706 353.279 330.304 353.279ZM327.206 344.723H333.071C333.071 343.047 331.903 341.854 330.228 341.854C328.501 341.854 327.27 343.136 327.206 344.723Z" fill="#1E1E1E"/>
<rect x="21" y="435" width="164" height="126" rx="9" fill="#F9FBFB"/>
<rect x="21" y="435" width="164" height="126" rx="9" stroke="#D9DEDE" stroke-width="2"/>
<path d="M116.223 497.859C116.223 507.078 110.48 512.391 103.02 512.391C95.4805 512.391 89.7773 507.039 89.7773 497.859C89.7773 488.641 95.4805 483.328 103.02 483.328C110.48 483.328 116.223 488.641 116.223 497.859ZM110.246 497.859C110.246 491.805 107.395 488.523 103.02 488.523C98.6445 488.523 95.7539 491.805 95.7539 497.859C95.7539 503.914 98.6445 507.195 103.02 507.195C107.395 507.195 110.246 503.914 110.246 497.859Z" fill="#11C882"/>
<rect x="207" y="435" width="164" height="126" rx="9" fill="#F9FBFB"/>
<rect x="207" y="435" width="164" height="126" rx="9" stroke="#D9DEDE" stroke-width="2"/>
<path d="M283.102 483.719L288.883 493.445H289.078L294.898 483.719H301.539L292.906 497.859L301.734 512H294.938L289.078 502.273H288.883L283.023 512H276.266L285.133 497.859L276.422 483.719H283.102Z" fill="#FF414E"/>
<defs>
<filter id="filter0_i_4722_1081" x="25" y="134" width="342" height="38" filterUnits="userSpaceOnUse" color-interpolation-filters="sRGB">
<feFlood flood-opacity="0" result="BackgroundImageFix"/>
<feBlend mode="normal" in="SourceGraphic" in2="BackgroundImageFix" result="shape"/>
<feColorMatrix in="SourceAlpha" type="matrix" values="0 0 0 0 0 0 0 0 0 0 0 0 0 0 0 0 0 0 127 0" result="hardAlpha"/>
<feOffset dy="4"/>
<feGaussianBlur stdDeviation="2"/>
<feComposite in2="hardAlpha" operator="arithmetic" k2="-1" k3="1"/>
<feColorMatrix type="matrix" values="0 0 0 0 0.651984 0 0 0 0 0.660851 0 0 0 0 0.705182 0 0 0 0.25 0"/>
<feBlend mode="normal" in2="shape" result="effect1_innerShadow_4722_1081"/>
</filter>
<filter id="filter1_i_4722_1081" x="33" y="142" width="128" height="22" filterUnits="userSpaceOnUse" color-interpolation-filters="sRGB">
<feFlood flood-opacity="0" result="BackgroundImageFix"/>
<feBlend mode="normal" in="SourceGraphic" in2="BackgroundImageFix" result="shape"/>
<feColorMatrix in="SourceAlpha" type="matrix" values="0 0 0 0 0 0 0 0 0 0 0 0 0 0 0 0 0 0 127 0" result="hardAlpha"/>
<feOffset dy="4"/>
<feGaussianBlur stdDeviation="2"/>
<feComposite in2="hardAlpha" operator="arithmetic" k2="-1" k3="1"/>
<feColorMatrix type="matrix" values="0 0 0 0 1 0 0 0 0 1 0 0 0 0 1 0 0 0 0.25 0"/>
<feBlend mode="normal" in2="shape" result="effect1_innerShadow_4722_1081"/>
</filter>
</defs>
</svg>
