<svg width="393" height="852" viewBox="0 0 393 852" fill="none" xmlns="http://www.w3.org/2000/svg">
<rect width="393" height="852" fill="white"/>
<rect width="393" height="119" fill="white"/>
<rect width="393" height="66.3895" fill="white"/>
<path d="M38.9526 38V28.1304H38.8032L35.8232 30.2305V28.2217L38.9526 26.022H41.0859V38H38.9526ZM48.8887 38.2407C47.9701 38.2407 47.1593 38.0941 46.4565 37.8008C45.7537 37.502 45.2031 37.0924 44.8047 36.5723C44.4118 36.0465 44.2153 35.4434 44.2153 34.7627V34.7461C44.2153 34.2314 44.3288 33.7666 44.5557 33.3516C44.7881 32.931 45.109 32.5768 45.5186 32.2891C45.9281 32.0013 46.3984 31.8049 46.9297 31.6997V31.6499C46.2435 31.4673 45.6901 31.1408 45.2695 30.6704C44.8545 30.1945 44.647 29.6356 44.647 28.9937V28.9771C44.647 28.3628 44.8268 27.8149 45.1865 27.3335C45.5518 26.8521 46.0526 26.473 46.689 26.1963C47.3309 25.9196 48.0641 25.7812 48.8887 25.7812C49.7132 25.7812 50.4437 25.9196 51.0801 26.1963C51.722 26.473 52.2228 26.8521 52.5825 27.3335C52.9422 27.8149 53.1221 28.3628 53.1221 28.9771V28.9937C53.1221 29.6356 52.9146 30.1945 52.4995 30.6704C52.0845 31.1408 51.5339 31.4673 50.8477 31.6499V31.6997C51.3789 31.8049 51.8493 32.0013 52.2588 32.2891C52.6683 32.5768 52.9865 32.931 53.2134 33.3516C53.4458 33.7666 53.562 34.2314 53.562 34.7461V34.7627C53.562 35.4434 53.3628 36.0465 52.9644 36.5723C52.5715 37.0924 52.0236 37.502 51.3208 37.8008C50.618 38.0941 49.8073 38.2407 48.8887 38.2407ZM48.8887 36.6055C49.3701 36.6055 49.7935 36.5225 50.1587 36.3564C50.5295 36.1849 50.82 35.9497 51.0303 35.6509C51.2406 35.3465 51.3457 35.0034 51.3457 34.6216V34.605C51.3457 34.2176 51.2406 33.8745 51.0303 33.5757C50.8255 33.2713 50.5378 33.0334 50.167 32.8618C49.7962 32.6903 49.3701 32.6045 48.8887 32.6045C48.4017 32.6045 47.9728 32.6903 47.6021 32.8618C47.2368 33.0334 46.9491 33.2713 46.7388 33.5757C46.5285 33.8745 46.4233 34.2176 46.4233 34.605V34.6216C46.4233 35.0034 46.5285 35.3465 46.7388 35.6509C46.9546 35.9497 47.2451 36.1849 47.6104 36.3564C47.9811 36.5225 48.4072 36.6055 48.8887 36.6055ZM48.8887 30.9692C49.3092 30.9692 49.6772 30.8945 49.9927 30.7451C50.3136 30.5902 50.5627 30.3799 50.7397 30.1143C50.9224 29.8486 51.0137 29.5387 51.0137 29.1846V29.168C51.0137 28.8193 50.9224 28.5122 50.7397 28.2466C50.5627 27.981 50.3136 27.7734 49.9927 27.624C49.6717 27.4746 49.3037 27.3999 48.8887 27.3999C48.4681 27.3999 48.0973 27.4746 47.7764 27.624C47.4609 27.7734 47.2119 27.981 47.0293 28.2466C46.8522 28.5122 46.7637 28.8193 46.7637 29.168V29.1846C46.7637 29.5387 46.8522 29.8486 47.0293 30.1143C47.2119 30.3799 47.4609 30.5902 47.7764 30.7451C48.0973 30.8945 48.4681 30.9692 48.8887 30.9692ZM57.4136 36.3896C57.0373 36.3896 56.7218 36.2651 56.4673 36.0161C56.2183 35.7616 56.0938 35.4517 56.0938 35.0864C56.0938 34.7157 56.2183 34.4058 56.4673 34.1567C56.7218 33.9022 57.0373 33.7749 57.4136 33.7749C57.7954 33.7749 58.1108 33.9022 58.3599 34.1567C58.6089 34.4058 58.7334 34.7157 58.7334 35.0864C58.7334 35.4517 58.6089 35.7616 58.3599 36.0161C58.1108 36.2651 57.7954 36.3896 57.4136 36.3896ZM57.4136 30.2305C57.0373 30.2305 56.7218 30.106 56.4673 29.8569C56.2183 29.6024 56.0938 29.2925 56.0938 28.9272C56.0938 28.5565 56.2183 28.2466 56.4673 27.9976C56.7218 27.743 57.0373 27.6157 57.4136 27.6157C57.7954 27.6157 58.1108 27.743 58.3599 27.9976C58.6089 28.2466 58.7334 28.5565 58.7334 28.9272C58.7334 29.2925 58.6089 29.6024 58.3599 29.8569C58.1108 30.106 57.7954 30.2305 57.4136 30.2305ZM65.7725 38.2988C64.8206 38.2988 64.0044 38.0443 63.3237 37.5352C62.6486 37.026 62.1284 36.3011 61.7632 35.3604C61.3979 34.4196 61.2153 33.3045 61.2153 32.0151V31.9985C61.2153 30.7091 61.3979 29.5968 61.7632 28.6616C62.1284 27.7209 62.6486 26.9959 63.3237 26.4868C64.0044 25.9777 64.8206 25.7231 65.7725 25.7231C66.7243 25.7231 67.5405 25.9777 68.2212 26.4868C68.9019 26.9959 69.4248 27.7209 69.79 28.6616C70.1553 29.5968 70.3379 30.7091 70.3379 31.9985V32.0151C70.3379 33.3045 70.1553 34.4196 69.79 35.3604C69.4248 36.3011 68.9019 37.026 68.2212 37.5352C67.5405 38.0443 66.7243 38.2988 65.7725 38.2988ZM65.7725 36.564C66.2816 36.564 66.716 36.3813 67.0757 36.0161C67.4354 35.6509 67.7093 35.1307 67.8975 34.4556C68.0911 33.7749 68.188 32.9614 68.188 32.0151V31.9985C68.188 31.0522 68.0911 30.2415 67.8975 29.5664C67.7093 28.8857 67.4354 28.3656 67.0757 28.0059C66.716 27.6406 66.2816 27.458 65.7725 27.458C65.2633 27.458 64.8289 27.6406 64.4692 28.0059C64.1151 28.3656 63.8411 28.8857 63.6475 29.5664C63.4593 30.2415 63.3652 31.0522 63.3652 31.9985V32.0151C63.3652 32.9614 63.4593 33.7749 63.6475 34.4556C63.8411 35.1307 64.1151 35.6509 64.4692 36.0161C64.8289 36.3813 65.2633 36.564 65.7725 36.564ZM77.0781 38.2988C76.1263 38.2988 75.3101 38.0443 74.6294 37.5352C73.9543 37.026 73.4341 36.3011 73.0688 35.3604C72.7036 34.4196 72.521 33.3045 72.521 32.0151V31.9985C72.521 30.7091 72.7036 29.5968 73.0688 28.6616C73.4341 27.7209 73.9543 26.9959 74.6294 26.4868C75.3101 25.9777 76.1263 25.7231 77.0781 25.7231C78.0299 25.7231 78.8462 25.9777 79.5269 26.4868C80.2075 26.9959 80.7305 27.7209 81.0957 28.6616C81.4609 29.5968 81.6436 30.7091 81.6436 31.9985V32.0151C81.6436 33.3045 81.4609 34.4196 81.0957 35.3604C80.7305 36.3011 80.2075 37.026 79.5269 37.5352C78.8462 38.0443 78.0299 38.2988 77.0781 38.2988ZM77.0781 36.564C77.5872 36.564 78.0216 36.3813 78.3813 36.0161C78.741 35.6509 79.015 35.1307 79.2031 34.4556C79.3968 33.7749 79.4937 32.9614 79.4937 32.0151V31.9985C79.4937 31.0522 79.3968 30.2415 79.2031 29.5664C79.015 28.8857 78.741 28.3656 78.3813 28.0059C78.0216 27.6406 77.5872 27.458 77.0781 27.458C76.569 27.458 76.1346 27.6406 75.7749 28.0059C75.4207 28.3656 75.1468 28.8857 74.9531 29.5664C74.765 30.2415 74.6709 31.0522 74.6709 31.9985V32.0151C74.6709 32.9614 74.765 33.7749 74.9531 34.4556C75.1468 35.1307 75.4207 35.6509 75.7749 36.0161C76.1346 36.3813 76.569 36.564 77.0781 36.564Z" fill="black"/>
<path fill-rule="evenodd" clip-rule="evenodd" d="M314.614 27.0329C314.614 26.3999 314.136 25.8867 313.547 25.8867H312.481C311.892 25.8867 311.414 26.3999 311.414 27.0329V36.9669C311.414 37.5999 311.892 38.1131 312.481 38.1131H313.547C314.136 38.1131 314.614 37.5999 314.614 36.9669V27.0329ZM307.18 28.332H308.247C308.836 28.332 309.313 28.8575 309.313 29.5057V36.9394C309.313 37.5876 308.836 38.1131 308.247 38.1131H307.18C306.591 38.1131 306.113 37.5876 306.113 36.9394V29.5057C306.113 28.8575 306.591 28.332 307.18 28.332ZM302.848 30.981H301.782C301.192 30.981 300.715 31.5132 300.715 32.1697V36.9244C300.715 37.5809 301.192 38.1131 301.782 38.1131H302.848C303.437 38.1131 303.915 37.5809 303.915 36.9244V32.1697C303.915 31.5132 303.437 30.981 302.848 30.981ZM297.547 33.4263H296.481C295.892 33.4263 295.414 33.9509 295.414 34.598V36.9414C295.414 37.5885 295.892 38.1131 296.481 38.1131H297.547C298.136 38.1131 298.614 37.5885 298.614 36.9414V34.598C298.614 33.9509 298.136 33.4263 297.547 33.4263Z" fill="black"/>
<path fill-rule="evenodd" clip-rule="evenodd" d="M330.185 28.3022C332.672 28.3023 335.064 29.2244 336.866 30.8779C337.002 31.0055 337.219 31.0039 337.353 30.8743L338.65 29.6108C338.718 29.545 338.756 29.456 338.755 29.3633C338.754 29.2706 338.716 29.182 338.647 29.117C333.916 24.7423 326.452 24.7423 321.721 29.117C321.653 29.1819 321.614 29.2705 321.613 29.3632C321.613 29.4559 321.65 29.545 321.718 29.6108L323.016 30.8743C323.149 31.0041 323.367 31.0057 323.502 30.8779C325.305 29.2243 327.697 28.3022 330.185 28.3022ZM330.181 32.5225C331.539 32.5224 332.847 33.0342 333.854 33.9583C333.99 34.0894 334.204 34.0866 334.337 33.9519L335.624 32.6326C335.692 32.5634 335.729 32.4695 335.728 32.3719C335.727 32.2744 335.688 32.1813 335.619 32.1135C332.555 29.2227 327.81 29.2227 324.746 32.1135C324.677 32.1813 324.638 32.2744 324.637 32.372C324.636 32.4696 324.674 32.5635 324.741 32.6326L326.028 33.9519C326.161 34.0866 326.375 34.0894 326.512 33.9583C327.517 33.0348 328.825 32.5231 330.181 32.5225ZM332.706 35.316C332.708 35.4214 332.671 35.523 332.603 35.5968L330.427 38.0515C330.363 38.1236 330.276 38.1642 330.185 38.1642C330.094 38.1642 330.007 38.1236 329.943 38.0515L327.766 35.5968C327.699 35.5229 327.662 35.4213 327.664 35.316C327.666 35.2106 327.707 35.1108 327.777 35.0402C329.167 33.7263 331.203 33.7263 332.593 35.0402C332.663 35.1109 332.704 35.2107 332.706 35.316Z" fill="black"/>
<rect opacity="0.35" x="346.258" y="26" width="24" height="12" rx="3.8" stroke="black"/>
<path opacity="0.4" d="M371.758 30.2812V34.3567C372.563 34.0116 373.086 33.2086 373.086 32.319C373.086 31.4294 372.563 30.6264 371.758 30.2812Z" fill="black"/>
<rect x="347.758" y="27.5" width="21" height="9" rx="2.5" fill="black"/>
<path d="M84.3945 88.9668H73.3555V83.0254H84.2715V84.3789H75.3066V85.3281H83.8848V86.6289H75.3066V87.6133H84.3945V88.9668ZM85.9766 91.3398H71.5625V89.8633H85.9766V91.3398ZM84.2012 95.9453H75.166V97.0176H84.6406V98.4238H73.25V94.6094H82.2852V93.6426H73.2324V92.2539H84.2012V95.9453ZM100.285 94.3809H98.3516V82.6914H100.285V94.3809ZM100.725 98.248H89.7031V93.4316H91.6719V96.666H100.725V98.248ZM95.2227 88.668H89.8438V90.6719C91.3789 90.666 92.6592 90.6309 93.6846 90.5664C94.7158 90.4961 95.7559 90.3672 96.8047 90.1797L97.0156 91.7441C95.8789 91.9551 94.7393 92.0957 93.5967 92.166C92.46 92.2363 91.0215 92.2715 89.2812 92.2715H87.9277V87.1914H93.2891V85.3281H87.8926V83.7637H95.2227V88.668ZM121.414 93.4668H115.086V98.5645H113.152V93.4668H106.895V91.9199H121.414V93.4668ZM110.586 85.2578H117.688V83.3066H119.656V90.2676H108.652V83.3066H110.586V85.2578ZM117.688 88.6855V86.8047H110.586V88.6855H117.688ZM136.971 92.4648H130.836V95.207H128.902V92.4648H122.451V90.9004H136.971V92.4648ZM135.371 98.248H124.209V93.8711H126.143V96.666H135.371V98.248ZM126.283 84.9766H133.139V83.1836H135.072V89.6523H124.35V83.1836H126.283V84.9766ZM133.139 88.1055V86.4355H126.283V88.1055H133.139ZM155.27 85.6621V85.8555C155.264 86.7344 155.246 87.499 155.217 88.1494C155.193 88.7939 155.138 89.5439 155.05 90.3994C154.962 91.249 154.824 92.1719 154.637 93.168L152.668 92.957C152.855 92.0312 152.993 91.1582 153.081 90.3379C153.169 89.5117 153.225 88.7793 153.248 88.1406C153.277 87.502 153.295 86.752 153.301 85.8906V85.6973H143.809V84.1328H155.27V85.6621ZM156.781 96.5078H142.297V94.9082H147.641V89.3887H149.574V94.9082H156.781V96.5078ZM171.055 98.5645H169.104V82.6738H171.055V98.5645ZM163.953 87.7188C163.953 88.5332 164.114 89.3418 164.437 90.1445C164.759 90.9473 165.225 91.6709 165.834 92.3154C166.443 92.96 167.164 93.4551 167.996 93.8008L166.924 95.2949C166.027 94.9199 165.242 94.3604 164.568 93.6162C163.9 92.8721 163.379 92.0107 163.004 91.0322C162.641 92.0693 162.119 92.9863 161.439 93.7832C160.766 94.5742 159.975 95.166 159.066 95.5586L158.012 94.0469C158.832 93.6836 159.544 93.168 160.147 92.5C160.751 91.8262 161.211 91.0732 161.527 90.2412C161.844 89.4092 162.002 88.5684 162.002 87.7188V86.8926H158.504V85.3281H162.002V83.0078H163.936V85.3281H167.363V86.8926H163.953V87.7188ZM186.682 98.5645H184.713V82.6738H186.682V98.5645ZM181.936 84.3613C181.936 86.8867 181.364 89.1045 180.222 91.0146C179.079 92.9189 177.184 94.498 174.535 95.752L173.516 94.1875C175.561 93.2148 177.099 92.0518 178.13 90.6982C179.167 89.3389 179.773 87.7422 179.949 85.9082H174.324V84.3613H181.936Z" fill="#1E1E1E"/>
<g filter="url(#filter0_i_4722_1198)">
<rect x="33" y="142" width="326" height="18" rx="9" fill="#E3E7EA"/>
</g>
<rect x="29" y="138" width="334" height="26" rx="13" stroke="#F0F5FA" stroke-width="8"/>
<g filter="url(#filter1_i_4722_1198)">
<rect x="33" y="142" width="326" height="18" rx="9" fill="#E3E7EA"/>
</g>
<rect x="29" y="138" width="334" height="26" rx="13" stroke="#F0F5FA" stroke-width="8"/>
<g filter="url(#filter2_i_4722_1198)">
<rect x="33" y="142" width="128" height="18" rx="9" fill="#3C86FF"/>
</g>
<path d="M181.597 154.286V152.966L185.57 146.809H187.627V152.928H188.833V154.286H187.627V156H186.053V154.286H181.597ZM183.285 152.928H186.078V148.688H185.977L183.285 152.864V152.928ZM193.492 156.127C191.442 156.127 189.995 155.035 190.001 153.537C189.995 152.369 190.864 151.417 191.969 151.239V151.188C191.004 150.985 190.35 150.147 190.344 149.145C190.35 147.723 191.677 146.682 193.492 146.682C195.295 146.682 196.628 147.723 196.628 149.145C196.628 150.154 195.955 150.985 195.003 151.188V151.239C196.101 151.417 196.977 152.369 196.983 153.537C196.977 155.035 195.523 156.127 193.492 156.127ZM191.702 153.385C191.696 154.235 192.4 154.819 193.492 154.819C194.571 154.819 195.276 154.235 195.282 153.385C195.276 152.521 194.527 151.88 193.492 151.887C192.458 151.88 191.696 152.515 191.702 153.385ZM191.956 149.297C191.962 150.103 192.597 150.655 193.492 150.655C194.375 150.655 195.016 150.103 195.016 149.297C195.016 148.516 194.394 147.977 193.492 147.977C192.572 147.977 191.962 148.516 191.956 149.297ZM200.614 151.29C199.307 151.296 198.589 150.325 198.596 148.916C198.589 147.52 199.338 146.555 200.614 146.555C201.941 146.555 202.639 147.52 202.646 148.916C202.639 150.338 201.916 151.296 200.614 151.29ZM199.764 148.916C199.77 149.741 200.056 150.274 200.614 150.274C201.192 150.274 201.465 149.741 201.465 148.916C201.465 148.116 201.211 147.564 200.614 147.57C200.056 147.57 199.77 148.123 199.764 148.916ZM199.776 156L206.099 146.809H207.381L201.059 156H199.776ZM204.601 153.88C204.594 152.477 205.343 151.506 206.619 151.506C207.939 151.506 208.644 152.477 208.65 153.88C208.644 155.289 207.92 156.248 206.619 156.241C205.312 156.248 204.594 155.276 204.601 153.88ZM205.769 153.88C205.775 154.692 206.061 155.232 206.619 155.226C207.197 155.232 207.47 154.692 207.47 153.88C207.47 153.067 207.216 152.515 206.619 152.521C206.061 152.528 205.775 153.074 205.769 153.88Z" fill="#9E9FA7"/>
<path d="M45.5 81.5L37 90L45.5 98.5" stroke="#A0AEB9" stroke-width="2"/>
<path d="M179.309 772.621V788.617H177.182V772.621H179.309ZM176.039 772.885V787.879H173.93V779.916H171.82V778.105H173.93V772.885H176.039ZM170.537 776.91C170.537 779.564 171.363 782.254 173.701 783.59L172.383 785.242C170.959 784.398 170.019 782.966 169.482 781.252C168.929 783.115 167.962 784.697 166.494 785.594L165.141 783.941C167.496 782.5 168.375 779.617 168.375 776.91V776.049H165.756V774.256H172.963V776.049H170.537V776.91ZM195.586 779.441V781.076H189.434V782.078H193.846V785.98H184.934V786.859H194.268V788.512H182.736V784.469H191.631V783.678H182.719V782.078H187.201V781.076H181.066V779.441H195.586ZM189.416 772.604V773.869H194.215V775.521H189.697C190.137 776.453 191.771 777.218 195.006 777.35L194.355 779.002C191.385 778.861 189.328 778.105 188.309 776.893C187.298 778.105 185.232 778.861 182.244 779.002L181.629 777.35C184.837 777.218 186.463 776.453 186.92 775.521H182.438V773.869H187.201V772.604H189.416ZM209.209 772.621V778.879H211.564V780.725H209.209V788.617H206.994V772.621H209.209ZM205.904 775.012V776.805H196.5V775.012H200.121V772.867H202.371V775.012H205.904ZM201.246 777.701C203.584 777.701 205.324 779.283 205.324 781.516C205.324 783.748 203.584 785.33 201.246 785.33C198.891 785.33 197.15 783.748 197.15 781.516C197.15 779.283 198.891 777.701 201.246 777.701ZM201.246 779.512C200.121 779.529 199.295 780.285 199.295 781.516C199.295 782.764 200.121 783.502 201.246 783.484C202.371 783.502 203.18 782.764 203.18 781.516C203.18 780.285 202.371 779.529 201.246 779.512ZM225.592 772.621V788.617H223.324V772.621H225.592ZM220.793 774.291C220.793 779.143 219.088 783.168 213.375 785.875L212.197 784.082C216.328 782.131 218.147 779.6 218.508 776.049H213.059V774.291H220.793Z" fill="white"/>
<g filter="url(#filter3_d_4722_1198)">
<path d="M26 407C26 398.163 33.1634 391 42 391H353C361.837 391 369 398.163 369 407V451C369 459.837 361.837 467 353 467H42C33.1635 467 26 459.837 26 451V407Z" fill="#FEFEFE" shape-rendering="crispEdges"/>
<path d="M176.564 428.785C176.459 428.117 175.861 427.678 175 427.678C174.156 427.678 173.506 428.082 173.523 428.662C173.506 429.084 173.857 429.418 174.754 429.611L176.459 429.963C178.305 430.35 179.201 431.176 179.219 432.547C179.201 434.428 177.514 435.693 174.982 435.693C172.398 435.693 170.887 434.533 170.676 432.67H173.295C173.418 433.426 174.033 433.812 174.982 433.812C175.932 433.812 176.564 433.426 176.564 432.811C176.564 432.318 176.16 432.02 175.264 431.826L173.682 431.51C171.871 431.158 170.922 430.209 170.939 428.803C170.922 426.975 172.504 425.832 174.965 425.832C177.373 425.832 178.867 426.975 179.008 428.785H176.564ZM180.818 435.5V425.955H183.297V427.625H183.402C183.807 426.518 184.773 425.832 186.057 425.832C187.375 425.832 188.342 426.518 188.658 427.625H188.746C189.15 426.535 190.223 425.832 191.629 425.832C193.404 425.832 194.635 427.01 194.635 429.084V435.5H192.033V429.594C192.033 428.504 191.4 427.977 190.539 427.977C189.555 427.977 188.992 428.662 188.992 429.664V435.5H186.461V429.523C186.461 428.574 185.863 427.977 184.984 427.977C184.105 427.977 183.42 428.68 183.42 429.77V435.5H180.818ZM196.639 435.5V425.955H199.24V435.5H196.639ZM197.939 424.707C197.148 424.707 196.516 424.109 196.516 423.389C196.516 422.65 197.148 422.053 197.939 422.053C198.713 422.053 199.346 422.65 199.346 423.389C199.346 424.109 198.713 424.707 197.939 424.707ZM203.863 422.773V435.5H201.262V422.773H203.863ZM210.209 435.693C207.291 435.693 205.498 433.795 205.498 430.771C205.498 427.818 207.309 425.832 210.104 425.832C212.617 425.832 214.586 427.414 214.586 430.666V431.404H208.064C208.064 432.846 208.926 433.742 210.262 433.742C211.141 433.742 211.773 433.355 212.037 432.775H214.516C214.146 434.533 212.564 435.693 210.209 435.693ZM208.064 429.77H212.125C212.125 428.609 211.316 427.783 210.156 427.783C208.961 427.783 208.108 428.671 208.064 429.77ZM221.67 428.785C221.564 428.117 220.967 427.678 220.105 427.678C219.262 427.678 218.611 428.082 218.629 428.662C218.611 429.084 218.963 429.418 219.859 429.611L221.564 429.963C223.41 430.35 224.307 431.176 224.324 432.547C224.307 434.428 222.619 435.693 220.088 435.693C217.504 435.693 215.992 434.533 215.781 432.67H218.4C218.523 433.426 219.139 433.812 220.088 433.812C221.037 433.812 221.67 433.426 221.67 432.811C221.67 432.318 221.266 432.02 220.369 431.826L218.787 431.51C216.977 431.158 216.027 430.209 216.045 428.803C216.027 426.975 217.609 425.832 220.07 425.832C222.479 425.832 223.973 426.975 224.113 428.785H221.67Z" fill="#1E1E1E"/>
</g>
<g filter="url(#filter4_d_4722_1198)">
<path d="M26 499C26 490.163 33.1634 483 42 483H353C361.837 483 369 490.163 369 499V543C369 551.837 361.837 559 353 559H42C33.1635 559 26 551.837 26 543V499Z" fill="#FEFEFE" shape-rendering="crispEdges"/>
<path d="M170.324 517.955V519.906H168.531V524.564C168.531 525.32 168.9 525.514 169.428 525.531C169.691 525.531 170.148 525.514 170.465 525.479V527.535C170.184 527.588 169.727 527.623 169.076 527.623C167.195 527.623 165.912 526.779 165.93 524.934V519.906H164.611V517.955H165.93V515.67H168.531V517.955H170.324ZM176.16 527.693C173.277 527.693 171.484 525.707 171.484 522.754C171.484 519.801 173.277 517.832 176.16 517.832C179.043 517.832 180.854 519.801 180.854 522.754C180.854 525.707 179.043 527.693 176.16 527.693ZM176.178 525.672C177.514 525.672 178.199 524.424 178.199 522.754C178.199 521.066 177.514 519.818 176.178 519.818C174.824 519.818 174.121 521.066 174.121 522.754C174.121 524.424 174.824 525.672 176.178 525.672ZM192.086 520.785C191.98 520.117 191.383 519.678 190.521 519.678C189.678 519.678 189.027 520.082 189.045 520.662C189.027 521.084 189.379 521.418 190.275 521.611L191.98 521.963C193.826 522.35 194.723 523.176 194.74 524.547C194.723 526.428 193.035 527.693 190.504 527.693C187.92 527.693 186.408 526.533 186.197 524.67H188.816C188.939 525.426 189.555 525.812 190.504 525.812C191.453 525.812 192.086 525.426 192.086 524.811C192.086 524.318 191.682 524.02 190.785 523.826L189.203 523.51C187.393 523.158 186.443 522.209 186.461 520.803C186.443 518.975 188.025 517.832 190.486 517.832C192.895 517.832 194.389 518.975 194.529 520.785H192.086ZM196.34 527.5V517.955H198.818V519.625H198.924C199.328 518.518 200.295 517.832 201.578 517.832C202.896 517.832 203.863 518.518 204.18 519.625H204.268C204.672 518.535 205.744 517.832 207.15 517.832C208.926 517.832 210.156 519.01 210.156 521.084V527.5H207.555V521.594C207.555 520.504 206.922 519.977 206.061 519.977C205.076 519.977 204.514 520.662 204.514 521.664V527.5H201.982V521.523C201.982 520.574 201.385 519.977 200.506 519.977C199.627 519.977 198.941 520.68 198.941 521.77V527.5H196.34ZM212.16 527.5V517.955H214.762V527.5H212.16ZM213.461 516.707C212.67 516.707 212.037 516.109 212.037 515.389C212.037 514.65 212.67 514.053 213.461 514.053C214.234 514.053 214.867 514.65 214.867 515.389C214.867 516.109 214.234 516.707 213.461 516.707ZM219.385 514.773V527.5H216.783V514.773H219.385ZM225.73 527.693C222.812 527.693 221.02 525.795 221.02 522.771C221.02 519.818 222.83 517.832 225.625 517.832C228.139 517.832 230.107 519.414 230.107 522.666V523.404H223.586C223.586 524.846 224.447 525.742 225.783 525.742C226.662 525.742 227.295 525.355 227.559 524.775H230.037C229.668 526.533 228.086 527.693 225.73 527.693ZM223.586 521.77H227.646C227.646 520.609 226.838 519.783 225.678 519.783C224.482 519.783 223.63 520.671 223.586 521.77Z" fill="#1E1E1E"/>
</g>
<g filter="url(#filter5_d_4722_1198)">
<path d="M26 591C26 582.163 33.1634 575 42 575H353C361.837 575 369 582.163 369 591V635C369 643.837 361.837 651 353 651H42C33.1635 651 26 643.837 26 635V591Z" fill="#FEFEFE" shape-rendering="crispEdges"/>
<path d="M173.418 612.785C173.312 612.117 172.715 611.678 171.854 611.678C171.01 611.678 170.359 612.082 170.377 612.662C170.359 613.084 170.711 613.418 171.607 613.611L173.312 613.963C175.158 614.35 176.055 615.176 176.072 616.547C176.055 618.428 174.367 619.693 171.836 619.693C169.252 619.693 167.74 618.533 167.529 616.67H170.148C170.271 617.426 170.887 617.812 171.836 617.812C172.785 617.812 173.418 617.426 173.418 616.811C173.418 616.318 173.014 616.02 172.117 615.826L170.535 615.51C168.725 615.158 167.775 614.209 167.793 612.803C167.775 610.975 169.357 609.832 171.818 609.832C174.227 609.832 175.721 610.975 175.861 612.785H173.418ZM177.672 619.5V609.955H180.15V611.625H180.256C180.66 610.518 181.627 609.832 182.91 609.832C184.229 609.832 185.195 610.518 185.512 611.625H185.6C186.004 610.535 187.076 609.832 188.482 609.832C190.258 609.832 191.488 611.01 191.488 613.084V619.5H188.887V613.594C188.887 612.504 188.254 611.977 187.393 611.977C186.408 611.977 185.846 612.662 185.846 613.664V619.5H183.314V613.523C183.314 612.574 182.717 611.977 181.838 611.977C180.959 611.977 180.273 612.68 180.273 613.77V619.5H177.672ZM193.492 619.5V609.955H196.094V619.5H193.492ZM194.793 608.707C194.002 608.707 193.369 608.109 193.369 607.389C193.369 606.65 194.002 606.053 194.793 606.053C195.566 606.053 196.199 606.65 196.199 607.389C196.199 608.109 195.566 608.707 194.793 608.707ZM200.717 606.773V619.5H198.115V606.773H200.717ZM202.738 619.5V609.955H205.34V619.5H202.738ZM204.039 608.707C203.248 608.707 202.615 608.109 202.615 607.389C202.615 606.65 203.248 606.053 204.039 606.053C204.812 606.053 205.445 606.65 205.445 607.389C205.445 608.109 204.812 608.707 204.039 608.707ZM209.963 613.98V619.5H207.361V609.955H209.84V611.625H209.945C210.385 610.518 211.404 609.832 212.811 609.832C214.797 609.832 216.115 611.186 216.098 613.418V619.5H213.514V613.875C213.514 612.697 212.863 611.994 211.791 611.994C210.701 611.994 209.963 612.715 209.963 613.98ZM222.408 623.279C219.771 623.279 218.154 622.102 217.996 620.291H220.562C220.703 621.047 221.424 621.398 222.461 621.398C223.674 621.398 224.482 620.889 224.482 619.553V617.812H224.359C224.008 618.586 223.164 619.359 221.635 619.359C219.473 619.359 217.75 617.848 217.75 614.666C217.75 611.432 219.525 609.832 221.635 609.832C223.234 609.832 224.008 610.781 224.359 611.555H224.465V609.955H227.049V619.605C227.049 622.031 225.115 623.279 222.408 623.279ZM222.443 617.408C223.744 617.408 224.482 616.389 224.482 614.701C224.482 612.996 223.744 611.906 222.443 611.906C221.125 611.906 220.422 613.049 220.422 614.701C220.422 616.354 221.125 617.408 222.443 617.408Z" fill="#1E1E1E"/>
</g>
<rect x="22" y="202" width="350" height="160" rx="19" fill="white"/>
<rect x="22" y="202" width="350" height="160" rx="19" stroke="#D9D9D9" stroke-width="2"/>
<rect x="249.5" y="221.5" width="103" height="29" rx="14.5" fill="#F1F5FA"/>
<rect x="249.5" y="221.5" width="103" height="29" rx="14.5" stroke="#D9D9D9"/>
<path d="M276.109 233.219H278.078V234.656H276.109V239.328H274.375V228.781H276.109V233.219ZM273.359 231.734H264.984V230.344H268.312V228.766H270.047V230.344H273.359V231.734ZM269.172 232.312C269.844 232.312 270.44 232.424 270.961 232.648C271.482 232.872 271.888 233.19 272.18 233.602C272.471 234.008 272.62 234.479 272.625 235.016C272.62 235.547 272.471 236.016 272.18 236.422C271.888 236.823 271.482 237.135 270.961 237.359C270.44 237.578 269.844 237.688 269.172 237.688C268.495 237.688 267.893 237.578 267.367 237.359C266.841 237.135 266.432 236.823 266.141 236.422C265.849 236.016 265.703 235.547 265.703 235.016C265.703 234.479 265.849 234.008 266.141 233.602C266.432 233.19 266.841 232.872 267.367 232.648C267.893 232.424 268.495 232.312 269.172 232.312ZM269.172 233.656C268.625 233.656 268.19 233.776 267.867 234.016C267.549 234.255 267.391 234.589 267.391 235.016C267.391 235.432 267.552 235.76 267.875 236C268.198 236.24 268.63 236.354 269.172 236.344C269.714 236.354 270.148 236.24 270.477 236C270.805 235.76 270.969 235.432 270.969 235.016C270.969 234.589 270.805 234.255 270.477 234.016C270.154 233.776 269.719 233.656 269.172 233.656ZM276.672 242.609H267.062V238.5H268.797V241.203H276.672V242.609ZM290.125 230.484C290.125 231.214 290.107 231.862 290.07 232.43C290.039 232.997 289.956 233.63 289.82 234.328H291.703V235.734H286.094V237.938H290.156V242.891H288.422V239.328H280.109V237.938H284.359V235.734H278.797V234.328H288.078C288.203 233.677 288.286 233.078 288.328 232.531C288.37 231.979 288.391 231.401 288.391 230.797H280.391V229.406H290.125V230.484ZM296.484 229.797C297.12 229.797 297.693 229.966 298.203 230.305C298.714 230.643 299.13 231.128 299.453 231.758C299.776 232.383 299.977 233.12 300.055 233.969H302.75V228.766H304.469V242.906H302.75V235.375H300.078C300.016 236.271 299.826 237.052 299.508 237.719C299.19 238.38 298.771 238.891 298.25 239.25C297.729 239.604 297.141 239.781 296.484 239.781C295.776 239.781 295.148 239.578 294.602 239.172C294.055 238.766 293.628 238.185 293.32 237.43C293.013 236.674 292.859 235.792 292.859 234.781C292.859 233.781 293.013 232.906 293.32 232.156C293.628 231.401 294.055 230.82 294.602 230.414C295.154 230.003 295.781 229.797 296.484 229.797ZM296.484 231.359C296.094 231.359 295.75 231.497 295.453 231.773C295.156 232.044 294.927 232.438 294.766 232.953C294.604 233.464 294.526 234.073 294.531 234.781C294.526 235.495 294.604 236.109 294.766 236.625C294.927 237.141 295.156 237.536 295.453 237.812C295.75 238.083 296.094 238.219 296.484 238.219C296.875 238.219 297.216 238.083 297.508 237.812C297.805 237.536 298.034 237.141 298.195 236.625C298.362 236.109 298.448 235.495 298.453 234.781C298.448 234.073 298.362 233.461 298.195 232.945C298.034 232.43 297.805 232.036 297.508 231.766C297.216 231.495 296.875 231.359 296.484 231.359ZM317.141 232.406H310.219V231.016H312.844V229.172H314.562V231.016H317.141V232.406ZM313.703 233.156C314.297 233.156 314.826 233.297 315.289 233.578C315.758 233.854 316.122 234.242 316.383 234.742C316.648 235.242 316.781 235.807 316.781 236.438C316.781 237.078 316.648 237.651 316.383 238.156C316.122 238.661 315.758 239.057 315.289 239.344C314.826 239.625 314.297 239.766 313.703 239.766C313.115 239.766 312.586 239.625 312.117 239.344C311.648 239.057 311.281 238.661 311.016 238.156C310.75 237.651 310.62 237.078 310.625 236.438C310.62 235.807 310.75 235.242 311.016 234.742C311.281 234.242 311.648 233.854 312.117 233.578C312.586 233.297 313.115 233.156 313.703 233.156ZM313.703 234.594C313.396 234.594 313.125 234.672 312.891 234.828C312.656 234.979 312.474 235.195 312.344 235.477C312.214 235.753 312.151 236.073 312.156 236.438C312.151 236.812 312.214 237.141 312.344 237.422C312.474 237.703 312.656 237.919 312.891 238.07C313.125 238.216 313.396 238.286 313.703 238.281C314.005 238.286 314.273 238.216 314.508 238.07C314.742 237.919 314.924 237.703 315.055 237.422C315.185 237.141 315.25 236.812 315.25 236.438C315.25 236.073 315.185 235.753 315.055 235.477C314.924 235.195 314.742 234.979 314.508 234.828C314.273 234.672 314.005 234.594 313.703 234.594ZM322.391 242.891H320.734V235.984H319.359V242.25H317.734V229.062H319.359V234.578H320.734V228.766H322.391V242.891ZM329.203 231C329.203 231.615 329.331 232.203 329.586 232.766C329.841 233.323 330.216 233.82 330.711 234.258C331.211 234.69 331.812 235.021 332.516 235.25L331.578 236.641C330.828 236.375 330.18 235.987 329.633 235.477C329.086 234.966 328.659 234.365 328.352 233.672C328.034 234.427 327.586 235.083 327.008 235.641C326.435 236.198 325.75 236.62 324.953 236.906L324.016 235.516C324.76 235.266 325.391 234.909 325.906 234.445C326.422 233.977 326.807 233.438 327.062 232.828C327.323 232.219 327.453 231.573 327.453 230.891V229.5H329.203V231ZM335.906 242.891H334.172V239.219H326.281V237.844H335.906V242.891ZM335.906 237.156H334.172V232.938H331.359V231.516H334.172V228.766H335.906V237.156Z" fill="#6D6D6D"/>
<path d="M67.0127 288.873C66.8604 287.426 65.6924 286.562 63.8389 286.562C61.9092 286.562 60.8428 287.451 60.8174 288.67C60.792 289.99 62.1885 290.6 63.7627 290.955L65.4131 291.361C68.5615 292.072 70.9229 293.672 70.9229 296.744C70.9229 300.121 68.2822 302.254 63.8135 302.254C59.3701 302.254 56.5264 300.197 56.4248 296.262H60.1318C60.2588 298.115 61.7314 299.055 63.7627 299.055C65.7686 299.055 67.0635 298.115 67.0635 296.744C67.0635 295.5 65.9209 294.916 63.915 294.408L61.9092 293.926C58.8115 293.164 56.9072 291.615 56.9072 288.924C56.9072 285.572 59.8525 283.363 63.8643 283.363C67.9268 283.363 70.6182 285.623 70.6689 288.873H67.0127ZM77.0928 294.027V302H73.335V283.617H76.9912V290.625H77.1436C77.7783 289.025 79.1748 288.035 81.2568 288.035C84.126 288.035 86.0303 289.965 86.0303 293.215V302H82.2725V293.875C82.2725 292.174 81.3584 291.158 79.7842 291.158C78.21 291.158 77.0928 292.199 77.0928 294.027ZM95.1709 302.279C90.9561 302.279 88.3662 299.537 88.3662 295.17C88.3662 290.904 90.9814 288.035 95.0186 288.035C98.6494 288.035 101.493 290.32 101.493 295.018V296.084H92.0732C92.0732 298.166 93.3174 299.461 95.2471 299.461C96.5166 299.461 97.4307 298.902 97.8115 298.064H101.392C100.858 300.604 98.5732 302.279 95.1709 302.279ZM92.0732 293.723H97.9385C97.9385 292.047 96.7705 290.854 95.0947 290.854C93.3682 290.854 92.1367 292.136 92.0732 293.723ZM109.187 298.141C109.187 295.068 111.675 294.053 114.315 293.9C115.306 293.837 117.159 293.748 117.743 293.723V292.605C117.718 291.463 116.931 290.777 115.534 290.777C114.265 290.777 113.452 291.361 113.249 292.301H109.669C109.897 289.914 111.979 288.035 115.636 288.035C118.632 288.035 121.476 289.381 121.476 292.707V302H117.921V300.096H117.819C117.134 301.365 115.839 302.254 113.782 302.254C111.142 302.254 109.187 300.883 109.187 298.141ZM112.792 298.039C112.792 299.105 113.655 299.664 114.849 299.664C116.55 299.664 117.769 298.521 117.743 297.074V296.059C117.172 296.084 115.572 296.173 114.925 296.236C113.63 296.363 112.792 296.973 112.792 298.039ZM128.103 283.617V302H124.345V283.617H128.103ZM133.739 302L129.981 288.213H133.79L135.948 297.531H136.075L138.335 288.213H142.067L144.353 297.48H144.479L146.612 288.213H150.421L146.638 302H142.677L140.29 293.24H140.112L137.726 302H133.739ZM151.665 298.141C151.665 295.068 154.153 294.053 156.794 293.9C157.784 293.837 159.638 293.748 160.222 293.723V292.605C160.196 291.463 159.409 290.777 158.013 290.777C156.743 290.777 155.931 291.361 155.728 292.301H152.147C152.376 289.914 154.458 288.035 158.114 288.035C161.11 288.035 163.954 289.381 163.954 292.707V302H160.399V300.096H160.298C159.612 301.365 158.317 302.254 156.261 302.254C153.62 302.254 151.665 300.883 151.665 298.141ZM155.271 298.039C155.271 299.105 156.134 299.664 157.327 299.664C159.028 299.664 160.247 298.521 160.222 297.074V296.059C159.65 296.084 158.051 296.173 157.403 296.236C156.108 296.363 155.271 296.973 155.271 298.039ZM168.524 307.18C167.788 307.18 167.103 307.154 166.62 307.104V304.184C167.103 304.209 167.661 304.234 168.144 304.234C168.88 304.234 169.489 304.158 169.946 302.965L170.175 302.381L165.224 288.213H169.159L172.054 298.369H172.206L175.126 288.213H179.112L173.729 303.523C172.942 305.732 171.444 307.18 168.524 307.18ZM188.812 292.301C188.659 291.336 187.796 290.701 186.552 290.701C185.333 290.701 184.394 291.285 184.419 292.123C184.394 292.732 184.901 293.215 186.196 293.494L188.659 294.002C191.325 294.561 192.62 295.754 192.646 297.734C192.62 300.451 190.183 302.279 186.526 302.279C182.794 302.279 180.61 300.604 180.306 297.912H184.089C184.267 299.004 185.155 299.562 186.526 299.562C187.897 299.562 188.812 299.004 188.812 298.115C188.812 297.404 188.228 296.973 186.933 296.693L184.647 296.236C182.032 295.729 180.661 294.357 180.687 292.326C180.661 289.686 182.946 288.035 186.501 288.035C189.979 288.035 192.138 289.686 192.341 292.301H188.812ZM271.433 298.141C271.433 295.068 273.921 294.053 276.562 293.9C277.552 293.837 279.405 293.748 279.989 293.723V292.605C279.964 291.463 279.177 290.777 277.78 290.777C276.511 290.777 275.698 291.361 275.495 292.301H271.915C272.144 289.914 274.226 288.035 277.882 288.035C280.878 288.035 283.722 289.381 283.722 292.707V302H280.167V300.096H280.065C279.38 301.365 278.085 302.254 276.028 302.254C273.388 302.254 271.433 300.883 271.433 298.141ZM275.038 298.039C275.038 299.105 275.901 299.664 277.095 299.664C278.796 299.664 280.015 298.521 279.989 297.074V296.059C279.418 296.084 277.818 296.173 277.171 296.236C275.876 296.363 275.038 296.973 275.038 298.039ZM293.853 288.213V291.031H291.263V297.76C291.263 298.852 291.796 299.131 292.558 299.156C292.938 299.156 293.599 299.131 294.056 299.08V302.051C293.649 302.127 292.989 302.178 292.05 302.178C289.333 302.178 287.479 300.959 287.505 298.293V291.031H285.601V288.213H287.505V284.912H291.263V288.213H293.853ZM302.206 302V288.213H305.786V290.625H305.938C306.522 289.025 307.919 288.035 309.772 288.035C311.677 288.035 313.073 289.025 313.53 290.625H313.657C314.241 289.051 315.79 288.035 317.821 288.035C320.386 288.035 322.163 289.736 322.163 292.732V302H318.405V293.469C318.405 291.895 317.491 291.133 316.247 291.133C314.825 291.133 314.013 292.123 314.013 293.57V302H310.356V293.367C310.356 291.996 309.493 291.133 308.224 291.133C306.954 291.133 305.964 292.148 305.964 293.723V302H302.206ZM331.304 302.279C327.089 302.279 324.499 299.537 324.499 295.17C324.499 290.904 327.114 288.035 331.151 288.035C334.782 288.035 337.626 290.32 337.626 295.018V296.084H328.206C328.206 298.166 329.45 299.461 331.38 299.461C332.649 299.461 333.563 298.902 333.944 298.064H337.524C336.991 300.604 334.706 302.279 331.304 302.279ZM328.206 293.723H334.071C334.071 292.047 332.903 290.854 331.228 290.854C329.501 290.854 328.27 292.136 328.206 293.723Z" fill="#1E1E1E"/>
<path d="M208.819 292.301C208.667 291.336 207.804 290.701 206.56 290.701C205.341 290.701 204.401 291.285 204.427 292.123C204.401 292.732 204.909 293.215 206.204 293.494L208.667 294.002C211.333 294.561 212.628 295.754 212.653 297.734C212.628 300.451 210.19 302.279 206.534 302.279C202.802 302.279 200.618 300.604 200.313 297.912H204.097C204.274 299.004 205.163 299.562 206.534 299.562C207.905 299.562 208.819 299.004 208.819 298.115C208.819 297.404 208.235 296.973 206.94 296.693L204.655 296.236C202.04 295.729 200.669 294.357 200.694 292.326C200.669 289.686 202.954 288.035 206.509 288.035C209.987 288.035 212.146 289.686 212.349 292.301H208.819ZM214.964 302V288.213H218.544V290.625H218.696C219.28 289.025 220.677 288.035 222.53 288.035C224.435 288.035 225.831 289.025 226.288 290.625H226.415C226.999 289.051 228.548 288.035 230.579 288.035C233.144 288.035 234.921 289.736 234.921 292.732V302H231.163V293.469C231.163 291.895 230.249 291.133 229.005 291.133C227.583 291.133 226.771 292.123 226.771 293.57V302H223.114V293.367C223.114 291.996 222.251 291.133 220.981 291.133C219.712 291.133 218.722 292.148 218.722 293.723V302H214.964ZM237.815 302V288.213H241.573V302H237.815ZM239.694 286.41C238.552 286.41 237.638 285.547 237.638 284.506C237.638 283.439 238.552 282.576 239.694 282.576C240.812 282.576 241.726 283.439 241.726 284.506C241.726 285.547 240.812 286.41 239.694 286.41ZM248.251 283.617V302H244.493V283.617H248.251ZM257.417 302.279C253.202 302.279 250.612 299.537 250.612 295.17C250.612 290.904 253.228 288.035 257.265 288.035C260.896 288.035 263.739 290.32 263.739 295.018V296.084H254.319C254.319 298.166 255.563 299.461 257.493 299.461C258.763 299.461 259.677 298.902 260.058 298.064H263.638C263.104 300.604 260.819 302.279 257.417 302.279ZM254.319 293.723H260.185C260.185 292.047 259.017 290.854 257.341 290.854C255.614 290.854 254.383 292.136 254.319 293.723Z" fill="#F64B23"/>
<path d="M199.476 305.91H264.628V308.297H199.476V305.91Z" fill="#F64B23"/>
<defs>
<filter id="filter0_i_4722_1198" x="25" y="134" width="342" height="38" filterUnits="userSpaceOnUse" color-interpolation-filters="sRGB">
<feFlood flood-opacity="0" result="BackgroundImageFix"/>
<feBlend mode="normal" in="SourceGraphic" in2="BackgroundImageFix" result="shape"/>
<feColorMatrix in="SourceAlpha" type="matrix" values="0 0 0 0 0 0 0 0 0 0 0 0 0 0 0 0 0 0 127 0" result="hardAlpha"/>
<feOffset dy="4"/>
<feGaussianBlur stdDeviation="2"/>
<feComposite in2="hardAlpha" operator="arithmetic" k2="-1" k3="1"/>
<feColorMatrix type="matrix" values="0 0 0 0 0.651984 0 0 0 0 0.660851 0 0 0 0 0.705182 0 0 0 0.25 0"/>
<feBlend mode="normal" in2="shape" result="effect1_innerShadow_4722_1198"/>
</filter>
<filter id="filter1_i_4722_1198" x="25" y="134" width="342" height="38" filterUnits="userSpaceOnUse" color-interpolation-filters="sRGB">
<feFlood flood-opacity="0" result="BackgroundImageFix"/>
<feBlend mode="normal" in="SourceGraphic" in2="BackgroundImageFix" result="shape"/>
<feColorMatrix in="SourceAlpha" type="matrix" values="0 0 0 0 0 0 0 0 0 0 0 0 0 0 0 0 0 0 127 0" result="hardAlpha"/>
<feOffset dy="4"/>
<feGaussianBlur stdDeviation="2"/>
<feComposite in2="hardAlpha" operator="arithmetic" k2="-1" k3="1"/>
<feColorMatrix type="matrix" values="0 0 0 0 0.651984 0 0 0 0 0.660851 0 0 0 0 0.705182 0 0 0 0.25 0"/>
<feBlend mode="normal" in2="shape" result="effect1_innerShadow_4722_1198"/>
</filter>
<filter id="filter2_i_4722_1198" x="33" y="142" width="128" height="22" filterUnits="userSpaceOnUse" color-interpolation-filters="sRGB">
<feFlood flood-opacity="0" result="BackgroundImageFix"/>
<feBlend mode="normal" in="SourceGraphic" in2="BackgroundImageFix" result="shape"/>
<feColorMatrix in="SourceAlpha" type="matrix" values="0 0 0 0 0 0 0 0 0 0 0 0 0 0 0 0 0 0 127 0" result="hardAlpha"/>
<feOffset dy="4"/>
<feGaussianBlur stdDeviation="2"/>
<feComposite in2="hardAlpha" operator="arithmetic" k2="-1" k3="1"/>
<feColorMatrix type="matrix" values="0 0 0 0 1 0 0 0 0 1 0 0 0 0 1 0 0 0 0.25 0"/>
<feBlend mode="normal" in2="shape" result="effect1_innerShadow_4722_1198"/>
</filter>
<filter id="filter3_d_4722_1198" x="20" y="385" width="355" height="88" filterUnits="userSpaceOnUse" color-interpolation-filters="sRGB">
<feFlood flood-opacity="0" result="BackgroundImageFix"/>
<feColorMatrix in="SourceAlpha" type="matrix" values="0 0 0 0 0 0 0 0 0 0 0 0 0 0 0 0 0 0 127 0" result="hardAlpha"/>
<feOffset/>
<feGaussianBlur stdDeviation="3"/>
<feComposite in2="hardAlpha" operator="out"/>
<feColorMatrix type="matrix" values="0 0 0 0 0.734307 0 0 0 0 0.764023 0 0 0 0 0.793739 0 0 0 1 0"/>
<feBlend mode="normal" in2="BackgroundImageFix" result="effect1_dropShadow_4722_1198"/>
<feBlend mode="normal" in="SourceGraphic" in2="effect1_dropShadow_4722_1198" result="shape"/>
</filter>
<filter id="filter4_d_4722_1198" x="20" y="477" width="355" height="88" filterUnits="userSpaceOnUse" color-interpolation-filters="sRGB">
<feFlood flood-opacity="0" result="BackgroundImageFix"/>
<feColorMatrix in="SourceAlpha" type="matrix" values="0 0 0 0 0 0 0 0 0 0 0 0 0 0 0 0 0 0 127 0" result="hardAlpha"/>
<feOffset/>
<feGaussianBlur stdDeviation="3"/>
<feComposite in2="hardAlpha" operator="out"/>
<feColorMatrix type="matrix" values="0 0 0 0 0.734307 0 0 0 0 0.764023 0 0 0 0 0.793739 0 0 0 1 0"/>
<feBlend mode="normal" in2="BackgroundImageFix" result="effect1_dropShadow_4722_1198"/>
<feBlend mode="normal" in="SourceGraphic" in2="effect1_dropShadow_4722_1198" result="shape"/>
</filter>
<filter id="filter5_d_4722_1198" x="20" y="569" width="355" height="88" filterUnits="userSpaceOnUse" color-interpolation-filters="sRGB">
<feFlood flood-opacity="0" result="BackgroundImageFix"/>
<feColorMatrix in="SourceAlpha" type="matrix" values="0 0 0 0 0 0 0 0 0 0 0 0 0 0 0 0 0 0 127 0" result="hardAlpha"/>
<feOffset/>
<feGaussianBlur stdDeviation="3"/>
<feComposite in2="hardAlpha" operator="out"/>
<feColorMatrix type="matrix" values="0 0 0 0 0.734307 0 0 0 0 0.764023 0 0 0 0 0.793739 0 0 0 1 0"/>
<feBlend mode="normal" in2="BackgroundImageFix" result="effect1_dropShadow_4722_1198"/>
<feBlend mode="normal" in="SourceGraphic" in2="effect1_dropShadow_4722_1198" result="shape"/>
</filter>
</defs>
</svg>
