<svg width="393" height="852" viewBox="0 0 393 852" fill="none" xmlns="http://www.w3.org/2000/svg">
<rect width="393" height="852" fill="white"/>
<rect width="393" height="119" fill="white"/>
<rect width="393" height="66.3895" fill="white"/>
<path d="M38.9526 38V28.1304H38.8032L35.8232 30.2305V28.2217L38.9526 26.022H41.0859V38H38.9526ZM48.8887 38.2407C47.9701 38.2407 47.1593 38.0941 46.4565 37.8008C45.7537 37.502 45.2031 37.0924 44.8047 36.5723C44.4118 36.0465 44.2153 35.4434 44.2153 34.7627V34.7461C44.2153 34.2314 44.3288 33.7666 44.5557 33.3516C44.7881 32.931 45.109 32.5768 45.5186 32.2891C45.9281 32.0013 46.3984 31.8049 46.9297 31.6997V31.6499C46.2435 31.4673 45.6901 31.1408 45.2695 30.6704C44.8545 30.1945 44.647 29.6356 44.647 28.9937V28.9771C44.647 28.3628 44.8268 27.8149 45.1865 27.3335C45.5518 26.8521 46.0526 26.473 46.689 26.1963C47.3309 25.9196 48.0641 25.7812 48.8887 25.7812C49.7132 25.7812 50.4437 25.9196 51.0801 26.1963C51.722 26.473 52.2228 26.8521 52.5825 27.3335C52.9422 27.8149 53.1221 28.3628 53.1221 28.9771V28.9937C53.1221 29.6356 52.9146 30.1945 52.4995 30.6704C52.0845 31.1408 51.5339 31.4673 50.8477 31.6499V31.6997C51.3789 31.8049 51.8493 32.0013 52.2588 32.2891C52.6683 32.5768 52.9865 32.931 53.2134 33.3516C53.4458 33.7666 53.562 34.2314 53.562 34.7461V34.7627C53.562 35.4434 53.3628 36.0465 52.9644 36.5723C52.5715 37.0924 52.0236 37.502 51.3208 37.8008C50.618 38.0941 49.8073 38.2407 48.8887 38.2407ZM48.8887 36.6055C49.3701 36.6055 49.7935 36.5225 50.1587 36.3564C50.5295 36.1849 50.82 35.9497 51.0303 35.6509C51.2406 35.3465 51.3457 35.0034 51.3457 34.6216V34.605C51.3457 34.2176 51.2406 33.8745 51.0303 33.5757C50.8255 33.2713 50.5378 33.0334 50.167 32.8618C49.7962 32.6903 49.3701 32.6045 48.8887 32.6045C48.4017 32.6045 47.9728 32.6903 47.6021 32.8618C47.2368 33.0334 46.9491 33.2713 46.7388 33.5757C46.5285 33.8745 46.4233 34.2176 46.4233 34.605V34.6216C46.4233 35.0034 46.5285 35.3465 46.7388 35.6509C46.9546 35.9497 47.2451 36.1849 47.6104 36.3564C47.9811 36.5225 48.4072 36.6055 48.8887 36.6055ZM48.8887 30.9692C49.3092 30.9692 49.6772 30.8945 49.9927 30.7451C50.3136 30.5902 50.5627 30.3799 50.7397 30.1143C50.9224 29.8486 51.0137 29.5387 51.0137 29.1846V29.168C51.0137 28.8193 50.9224 28.5122 50.7397 28.2466C50.5627 27.981 50.3136 27.7734 49.9927 27.624C49.6717 27.4746 49.3037 27.3999 48.8887 27.3999C48.4681 27.3999 48.0973 27.4746 47.7764 27.624C47.4609 27.7734 47.2119 27.981 47.0293 28.2466C46.8522 28.5122 46.7637 28.8193 46.7637 29.168V29.1846C46.7637 29.5387 46.8522 29.8486 47.0293 30.1143C47.2119 30.3799 47.4609 30.5902 47.7764 30.7451C48.0973 30.8945 48.4681 30.9692 48.8887 30.9692ZM57.4136 36.3896C57.0373 36.3896 56.7218 36.2651 56.4673 36.0161C56.2183 35.7616 56.0938 35.4517 56.0938 35.0864C56.0938 34.7157 56.2183 34.4058 56.4673 34.1567C56.7218 33.9022 57.0373 33.7749 57.4136 33.7749C57.7954 33.7749 58.1108 33.9022 58.3599 34.1567C58.6089 34.4058 58.7334 34.7157 58.7334 35.0864C58.7334 35.4517 58.6089 35.7616 58.3599 36.0161C58.1108 36.2651 57.7954 36.3896 57.4136 36.3896ZM57.4136 30.2305C57.0373 30.2305 56.7218 30.106 56.4673 29.8569C56.2183 29.6024 56.0938 29.2925 56.0938 28.9272C56.0938 28.5565 56.2183 28.2466 56.4673 27.9976C56.7218 27.743 57.0373 27.6157 57.4136 27.6157C57.7954 27.6157 58.1108 27.743 58.3599 27.9976C58.6089 28.2466 58.7334 28.5565 58.7334 28.9272C58.7334 29.2925 58.6089 29.6024 58.3599 29.8569C58.1108 30.106 57.7954 30.2305 57.4136 30.2305ZM65.7725 38.2988C64.8206 38.2988 64.0044 38.0443 63.3237 37.5352C62.6486 37.026 62.1284 36.3011 61.7632 35.3604C61.3979 34.4196 61.2153 33.3045 61.2153 32.0151V31.9985C61.2153 30.7091 61.3979 29.5968 61.7632 28.6616C62.1284 27.7209 62.6486 26.9959 63.3237 26.4868C64.0044 25.9777 64.8206 25.7231 65.7725 25.7231C66.7243 25.7231 67.5405 25.9777 68.2212 26.4868C68.9019 26.9959 69.4248 27.7209 69.79 28.6616C70.1553 29.5968 70.3379 30.7091 70.3379 31.9985V32.0151C70.3379 33.3045 70.1553 34.4196 69.79 35.3604C69.4248 36.3011 68.9019 37.026 68.2212 37.5352C67.5405 38.0443 66.7243 38.2988 65.7725 38.2988ZM65.7725 36.564C66.2816 36.564 66.716 36.3813 67.0757 36.0161C67.4354 35.6509 67.7093 35.1307 67.8975 34.4556C68.0911 33.7749 68.188 32.9614 68.188 32.0151V31.9985C68.188 31.0522 68.0911 30.2415 67.8975 29.5664C67.7093 28.8857 67.4354 28.3656 67.0757 28.0059C66.716 27.6406 66.2816 27.458 65.7725 27.458C65.2633 27.458 64.8289 27.6406 64.4692 28.0059C64.1151 28.3656 63.8411 28.8857 63.6475 29.5664C63.4593 30.2415 63.3652 31.0522 63.3652 31.9985V32.0151C63.3652 32.9614 63.4593 33.7749 63.6475 34.4556C63.8411 35.1307 64.1151 35.6509 64.4692 36.0161C64.8289 36.3813 65.2633 36.564 65.7725 36.564ZM77.0781 38.2988C76.1263 38.2988 75.3101 38.0443 74.6294 37.5352C73.9543 37.026 73.4341 36.3011 73.0688 35.3604C72.7036 34.4196 72.521 33.3045 72.521 32.0151V31.9985C72.521 30.7091 72.7036 29.5968 73.0688 28.6616C73.4341 27.7209 73.9543 26.9959 74.6294 26.4868C75.3101 25.9777 76.1263 25.7231 77.0781 25.7231C78.0299 25.7231 78.8462 25.9777 79.5269 26.4868C80.2075 26.9959 80.7305 27.7209 81.0957 28.6616C81.4609 29.5968 81.6436 30.7091 81.6436 31.9985V32.0151C81.6436 33.3045 81.4609 34.4196 81.0957 35.3604C80.7305 36.3011 80.2075 37.026 79.5269 37.5352C78.8462 38.0443 78.0299 38.2988 77.0781 38.2988ZM77.0781 36.564C77.5872 36.564 78.0216 36.3813 78.3813 36.0161C78.741 35.6509 79.015 35.1307 79.2031 34.4556C79.3968 33.7749 79.4937 32.9614 79.4937 32.0151V31.9985C79.4937 31.0522 79.3968 30.2415 79.2031 29.5664C79.015 28.8857 78.741 28.3656 78.3813 28.0059C78.0216 27.6406 77.5872 27.458 77.0781 27.458C76.569 27.458 76.1346 27.6406 75.7749 28.0059C75.4207 28.3656 75.1468 28.8857 74.9531 29.5664C74.765 30.2415 74.6709 31.0522 74.6709 31.9985V32.0151C74.6709 32.9614 74.765 33.7749 74.9531 34.4556C75.1468 35.1307 75.4207 35.6509 75.7749 36.0161C76.1346 36.3813 76.569 36.564 77.0781 36.564Z" fill="black"/>
<path fill-rule="evenodd" clip-rule="evenodd" d="M314.616 27.0329C314.616 26.3999 314.138 25.8867 313.549 25.8867H312.483C311.894 25.8867 311.416 26.3999 311.416 27.0329V36.9669C311.416 37.5999 311.894 38.1131 312.483 38.1131H313.549C314.138 38.1131 314.616 37.5999 314.616 36.9669V27.0329ZM307.182 28.332H308.249C308.838 28.332 309.315 28.8575 309.315 29.5057V36.9394C309.315 37.5876 308.838 38.1131 308.249 38.1131H307.182C306.593 38.1131 306.115 37.5876 306.115 36.9394V29.5057C306.115 28.8575 306.593 28.332 307.182 28.332ZM302.85 30.981H301.783C301.194 30.981 300.717 31.5132 300.717 32.1697V36.9244C300.717 37.5809 301.194 38.1131 301.783 38.1131H302.85C303.439 38.1131 303.917 37.5809 303.917 36.9244V32.1697C303.917 31.5132 303.439 30.981 302.85 30.981ZM297.549 33.4263H296.483C295.894 33.4263 295.416 33.9509 295.416 34.598V36.9414C295.416 37.5885 295.894 38.1131 296.483 38.1131H297.549C298.138 38.1131 298.616 37.5885 298.616 36.9414V34.598C298.616 33.9509 298.138 33.4263 297.549 33.4263Z" fill="black"/>
<path fill-rule="evenodd" clip-rule="evenodd" d="M330.187 28.3022C332.674 28.3023 335.066 29.2244 336.868 30.8779C337.004 31.0055 337.221 31.0039 337.355 30.8743L338.652 29.6108C338.72 29.545 338.757 29.456 338.757 29.3633C338.756 29.2706 338.718 29.182 338.649 29.117C333.918 24.7423 326.454 24.7423 321.723 29.117C321.655 29.1819 321.616 29.2705 321.615 29.3632C321.615 29.4559 321.652 29.545 321.72 29.6108L323.018 30.8743C323.151 31.0041 323.369 31.0057 323.504 30.8779C325.307 29.2243 327.699 28.3022 330.187 28.3022ZM330.183 32.5225C331.541 32.5224 332.849 33.0342 333.856 33.9583C333.992 34.0894 334.206 34.0866 334.339 33.9519L335.626 32.6326C335.694 32.5634 335.731 32.4695 335.73 32.3719C335.729 32.2744 335.69 32.1813 335.621 32.1135C332.557 29.2227 327.812 29.2227 324.748 32.1135C324.679 32.1813 324.64 32.2744 324.639 32.372C324.638 32.4696 324.676 32.5635 324.743 32.6326L326.03 33.9519C326.163 34.0866 326.377 34.0894 326.513 33.9583C327.519 33.0348 328.827 32.5231 330.183 32.5225ZM332.708 35.316C332.71 35.4214 332.672 35.523 332.605 35.5968L330.429 38.0515C330.365 38.1236 330.278 38.1642 330.187 38.1642C330.096 38.1642 330.009 38.1236 329.945 38.0515L327.768 35.5968C327.701 35.5229 327.664 35.4213 327.666 35.316C327.668 35.2106 327.709 35.1108 327.779 35.0402C329.169 33.7263 331.205 33.7263 332.595 35.0402C332.665 35.1109 332.706 35.2107 332.708 35.316Z" fill="black"/>
<rect opacity="0.35" x="346.256" y="26" width="24" height="12" rx="3.8" stroke="black"/>
<path opacity="0.4" d="M371.756 30.2812V34.3567C372.561 34.0116 373.084 33.2086 373.084 32.319C373.084 31.4294 372.561 30.6264 371.756 30.2812Z" fill="black"/>
<rect x="347.756" y="27.5" width="21" height="9" rx="2.5" fill="black"/>
<path d="M86.0293 90.6191V92.1836H79.8945V95.1016H77.9609V92.1836H71.5098V90.6191H86.0293ZM84.166 83.3945V89.1426H73.3555V83.3945H84.166ZM75.2539 84.9238V87.6133H82.2324V84.9238H75.2539ZM84.4297 96.666V98.248H73.2676V93.6426H75.2188V96.666H84.4297ZM89.7559 83.5V85.6621H93.3066V83.5H95.2402V86.4004H98.4395V82.6738H100.391V91.3574H98.4395V88.0176H95.2402V90.8652H87.8047V83.5H89.7559ZM89.7559 89.2832H93.3066V87.1738H89.7559V89.2832ZM91.8652 92.0605V93.6777H98.4395V92.0605H100.391V98.3359H89.9141V92.0605H91.8652ZM91.8652 96.7539H98.4395V95.1895H91.8652V96.7539ZM116.352 82.6738V98.5645H114.471V82.6738H116.352ZM113.082 82.9551V97.791H111.219V90.2324H109.707C109.522 93.3262 108.195 95.2422 106.227 95.2246C104.152 95.2422 102.799 93.0449 102.799 89.5469C102.799 86.0488 104.152 83.8867 106.227 83.8867C108.151 83.8867 109.461 85.6797 109.689 88.6504H111.219V82.9551H113.082ZM106.227 85.7324C105.225 85.7148 104.592 87.0684 104.609 89.5469C104.592 92.0254 105.225 93.3789 106.227 93.3613C107.281 93.3789 107.914 92.0254 107.914 89.5469C107.914 87.0684 107.281 85.7148 106.227 85.7324ZM130.537 83.7285V90.6367H123.014V83.7285H130.537ZM124.93 85.293V89.0723H128.621V85.293H124.93ZM135.002 82.6738V86.2422H137.217V87.8594H135.002V91.6387H133.051V82.6738H135.002ZM135.23 92.4473V93.9941H131.012C131.319 95.3477 133.121 96.6221 135.898 97.0176L135.195 98.5117C132.717 98.1602 130.827 97.0967 129.922 95.6641C128.999 97.0967 127.145 98.1514 124.666 98.4766L123.945 97C126.749 96.6221 128.507 95.3828 128.832 93.9941H124.596V92.4473H135.23ZM150.893 87.1738V88.7207H139.889V83.2539H141.822V87.1738H150.893ZM152.527 90.5664V92.1133H138.008V90.5664H152.527ZM150.998 96.6133V98.1953H139.748V93.5195H141.699V96.6133H150.998ZM170.387 82.6738V87.1387H172.619V88.7559H170.387V94.1699H168.436V82.6738H170.387ZM165.641 83.9922V85.5566H160.455V89.8809C163.443 89.8896 165.104 89.7842 166.994 89.3887L167.205 90.9707C165.131 91.375 163.268 91.4805 159.805 91.4805H158.521V83.9922H165.641ZM171.02 96.666V98.248H160.209V92.957H162.16V96.666H171.02ZM177.752 83.834C179.905 83.834 181.496 85.627 181.777 88.5273H184.801V82.6738H186.734V98.582H184.801V90.1094H181.795C181.584 93.1768 179.967 95.0664 177.752 95.0664C175.361 95.0664 173.674 92.9043 173.674 89.4414C173.674 86.0137 175.361 83.834 177.752 83.834ZM177.752 85.5918C176.434 85.5918 175.537 87.0156 175.555 89.4414C175.537 91.8848 176.434 93.3086 177.752 93.3086C179.07 93.3086 179.949 91.8848 179.967 89.4414C179.949 87.0156 179.07 85.5918 177.752 85.5918ZM206.211 84.1328V85.6621C206.193 87.6309 206.193 89.8457 205.578 93.168L203.609 92.957C204.225 89.8633 204.225 87.6045 204.242 85.6973H194.75V84.1328H206.211ZM207.723 94.9082V96.5078H193.238V94.9082H198.582V89.3887H200.516V94.9082H207.723ZM223.314 95.084V96.6836H208.795V95.084H223.314ZM221.592 83.7988V88.9141H212.469V90.9883H221.961V92.5352H210.518V87.3496H219.658V85.3809H210.482V83.7988H221.592ZM237.623 82.6738V98.5645H235.654V82.6738H237.623ZM232.877 84.3613C232.877 89.0898 231.049 93.1152 225.477 95.752L224.457 94.1875C228.614 92.21 230.548 89.5205 230.891 85.9082H225.266V84.3613H232.877Z" fill="#1E1E1E"/>
<g filter="url(#filter0_i_4722_1442)">
<rect x="33" y="142" width="326" height="18" rx="9" fill="#E3E7EA"/>
</g>
<rect x="29" y="138" width="334" height="26" rx="13" stroke="#F0F5FA" stroke-width="8"/>
<g filter="url(#filter1_i_4722_1442)">
<rect x="33" y="142" width="128" height="18" rx="9" fill="#3C86FF"/>
</g>
<path d="M181.597 154.286V152.966L185.57 146.809H187.627V152.928H188.833V154.286H187.627V156H186.053V154.286H181.597ZM183.285 152.928H186.078V148.688H185.977L183.285 152.864V152.928ZM193.492 156.127C191.442 156.127 189.995 155.035 190.001 153.537C189.995 152.369 190.864 151.417 191.969 151.239V151.188C191.004 150.985 190.35 150.147 190.344 149.145C190.35 147.723 191.677 146.682 193.492 146.682C195.295 146.682 196.628 147.723 196.628 149.145C196.628 150.154 195.955 150.985 195.003 151.188V151.239C196.101 151.417 196.977 152.369 196.983 153.537C196.977 155.035 195.523 156.127 193.492 156.127ZM191.702 153.385C191.696 154.235 192.4 154.819 193.492 154.819C194.571 154.819 195.276 154.235 195.282 153.385C195.276 152.521 194.527 151.88 193.492 151.887C192.458 151.88 191.696 152.515 191.702 153.385ZM191.956 149.297C191.962 150.103 192.597 150.655 193.492 150.655C194.375 150.655 195.016 150.103 195.016 149.297C195.016 148.516 194.394 147.977 193.492 147.977C192.572 147.977 191.962 148.516 191.956 149.297ZM200.614 151.29C199.307 151.296 198.589 150.325 198.596 148.916C198.589 147.52 199.338 146.555 200.614 146.555C201.941 146.555 202.639 147.52 202.646 148.916C202.639 150.338 201.916 151.296 200.614 151.29ZM199.764 148.916C199.77 149.741 200.056 150.274 200.614 150.274C201.192 150.274 201.465 149.741 201.465 148.916C201.465 148.116 201.211 147.564 200.614 147.57C200.056 147.57 199.77 148.123 199.764 148.916ZM199.776 156L206.099 146.809H207.381L201.059 156H199.776ZM204.601 153.88C204.594 152.477 205.343 151.506 206.619 151.506C207.939 151.506 208.644 152.477 208.65 153.88C208.644 155.289 207.92 156.248 206.619 156.241C205.312 156.248 204.594 155.276 204.601 153.88ZM205.769 153.88C205.775 154.692 206.061 155.232 206.619 155.226C207.197 155.232 207.47 154.692 207.47 153.88C207.47 153.067 207.216 152.515 206.619 152.521C206.061 152.528 205.775 153.074 205.769 153.88Z" fill="#9E9FA7"/>
<path d="M45.5 81.5L37 90L45.5 98.5" stroke="#A0AEB9" stroke-width="2"/>
<path d="M179.309 772.621V788.617H177.182V772.621H179.309ZM176.039 772.885V787.879H173.93V779.916H171.82V778.105H173.93V772.885H176.039ZM170.537 776.91C170.537 779.564 171.363 782.254 173.701 783.59L172.383 785.242C170.959 784.398 170.019 782.966 169.482 781.252C168.929 783.115 167.962 784.697 166.494 785.594L165.141 783.941C167.496 782.5 168.375 779.617 168.375 776.91V776.049H165.756V774.256H172.963V776.049H170.537V776.91ZM195.586 779.441V781.076H189.434V782.078H193.846V785.98H184.934V786.859H194.268V788.512H182.736V784.469H191.631V783.678H182.719V782.078H187.201V781.076H181.066V779.441H195.586ZM189.416 772.604V773.869H194.215V775.521H189.697C190.137 776.453 191.771 777.218 195.006 777.35L194.355 779.002C191.385 778.861 189.328 778.105 188.309 776.893C187.298 778.105 185.232 778.861 182.244 779.002L181.629 777.35C184.837 777.218 186.463 776.453 186.92 775.521H182.438V773.869H187.201V772.604H189.416ZM209.209 772.621V778.879H211.564V780.725H209.209V788.617H206.994V772.621H209.209ZM205.904 775.012V776.805H196.5V775.012H200.121V772.867H202.371V775.012H205.904ZM201.246 777.701C203.584 777.701 205.324 779.283 205.324 781.516C205.324 783.748 203.584 785.33 201.246 785.33C198.891 785.33 197.15 783.748 197.15 781.516C197.15 779.283 198.891 777.701 201.246 777.701ZM201.246 779.512C200.121 779.529 199.295 780.285 199.295 781.516C199.295 782.764 200.121 783.502 201.246 783.484C202.371 783.502 203.18 782.764 203.18 781.516C203.18 780.285 202.371 779.529 201.246 779.512ZM225.592 772.621V788.617H223.324V772.621H225.592ZM220.793 774.291C220.793 779.143 219.088 783.168 213.375 785.875L212.197 784.082C216.328 782.131 218.147 779.6 218.508 776.049H213.059V774.291H220.793Z" fill="white"/>
<rect x="21" y="253" width="350" height="179" rx="19" fill="white"/>
<rect x="21" y="253" width="350" height="179" rx="19" stroke="#D9D9D9" stroke-width="2"/>
<rect x="248.5" y="272.5" width="103" height="29" rx="14.5" fill="#F1F5FA"/>
<rect x="248.5" y="272.5" width="103" height="29" rx="14.5" stroke="#D9D9D9"/>
<path d="M275.109 284.219H277.078V285.656H275.109V290.328H273.375V279.781H275.109V284.219ZM272.359 282.734H263.984V281.344H267.312V279.766H269.047V281.344H272.359V282.734ZM268.172 283.312C268.844 283.312 269.44 283.424 269.961 283.648C270.482 283.872 270.888 284.19 271.18 284.602C271.471 285.008 271.62 285.479 271.625 286.016C271.62 286.547 271.471 287.016 271.18 287.422C270.888 287.823 270.482 288.135 269.961 288.359C269.44 288.578 268.844 288.688 268.172 288.688C267.495 288.688 266.893 288.578 266.367 288.359C265.841 288.135 265.432 287.823 265.141 287.422C264.849 287.016 264.703 286.547 264.703 286.016C264.703 285.479 264.849 285.008 265.141 284.602C265.432 284.19 265.841 283.872 266.367 283.648C266.893 283.424 267.495 283.312 268.172 283.312ZM268.172 284.656C267.625 284.656 267.19 284.776 266.867 285.016C266.549 285.255 266.391 285.589 266.391 286.016C266.391 286.432 266.552 286.76 266.875 287C267.198 287.24 267.63 287.354 268.172 287.344C268.714 287.354 269.148 287.24 269.477 287C269.805 286.76 269.969 286.432 269.969 286.016C269.969 285.589 269.805 285.255 269.477 285.016C269.154 284.776 268.719 284.656 268.172 284.656ZM275.672 293.609H266.062V289.5H267.797V292.203H275.672V293.609ZM289.125 281.484C289.125 282.214 289.107 282.862 289.07 283.43C289.039 283.997 288.956 284.63 288.82 285.328H290.703V286.734H285.094V288.938H289.156V293.891H287.422V290.328H279.109V288.938H283.359V286.734H277.797V285.328H287.078C287.203 284.677 287.286 284.078 287.328 283.531C287.37 282.979 287.391 282.401 287.391 281.797H279.391V280.406H289.125V281.484ZM295.484 280.797C296.12 280.797 296.693 280.966 297.203 281.305C297.714 281.643 298.13 282.128 298.453 282.758C298.776 283.383 298.977 284.12 299.055 284.969H301.75V279.766H303.469V293.906H301.75V286.375H299.078C299.016 287.271 298.826 288.052 298.508 288.719C298.19 289.38 297.771 289.891 297.25 290.25C296.729 290.604 296.141 290.781 295.484 290.781C294.776 290.781 294.148 290.578 293.602 290.172C293.055 289.766 292.628 289.185 292.32 288.43C292.013 287.674 291.859 286.792 291.859 285.781C291.859 284.781 292.013 283.906 292.32 283.156C292.628 282.401 293.055 281.82 293.602 281.414C294.154 281.003 294.781 280.797 295.484 280.797ZM295.484 282.359C295.094 282.359 294.75 282.497 294.453 282.773C294.156 283.044 293.927 283.438 293.766 283.953C293.604 284.464 293.526 285.073 293.531 285.781C293.526 286.495 293.604 287.109 293.766 287.625C293.927 288.141 294.156 288.536 294.453 288.812C294.75 289.083 295.094 289.219 295.484 289.219C295.875 289.219 296.216 289.083 296.508 288.812C296.805 288.536 297.034 288.141 297.195 287.625C297.362 287.109 297.448 286.495 297.453 285.781C297.448 285.073 297.362 284.461 297.195 283.945C297.034 283.43 296.805 283.036 296.508 282.766C296.216 282.495 295.875 282.359 295.484 282.359ZM316.141 283.406H309.219V282.016H311.844V280.172H313.562V282.016H316.141V283.406ZM312.703 284.156C313.297 284.156 313.826 284.297 314.289 284.578C314.758 284.854 315.122 285.242 315.383 285.742C315.648 286.242 315.781 286.807 315.781 287.438C315.781 288.078 315.648 288.651 315.383 289.156C315.122 289.661 314.758 290.057 314.289 290.344C313.826 290.625 313.297 290.766 312.703 290.766C312.115 290.766 311.586 290.625 311.117 290.344C310.648 290.057 310.281 289.661 310.016 289.156C309.75 288.651 309.62 288.078 309.625 287.438C309.62 286.807 309.75 286.242 310.016 285.742C310.281 285.242 310.648 284.854 311.117 284.578C311.586 284.297 312.115 284.156 312.703 284.156ZM312.703 285.594C312.396 285.594 312.125 285.672 311.891 285.828C311.656 285.979 311.474 286.195 311.344 286.477C311.214 286.753 311.151 287.073 311.156 287.438C311.151 287.812 311.214 288.141 311.344 288.422C311.474 288.703 311.656 288.919 311.891 289.07C312.125 289.216 312.396 289.286 312.703 289.281C313.005 289.286 313.273 289.216 313.508 289.07C313.742 288.919 313.924 288.703 314.055 288.422C314.185 288.141 314.25 287.812 314.25 287.438C314.25 287.073 314.185 286.753 314.055 286.477C313.924 286.195 313.742 285.979 313.508 285.828C313.273 285.672 313.005 285.594 312.703 285.594ZM321.391 293.891H319.734V286.984H318.359V293.25H316.734V280.062H318.359V285.578H319.734V279.766H321.391V293.891ZM328.203 282C328.203 282.615 328.331 283.203 328.586 283.766C328.841 284.323 329.216 284.82 329.711 285.258C330.211 285.69 330.812 286.021 331.516 286.25L330.578 287.641C329.828 287.375 329.18 286.987 328.633 286.477C328.086 285.966 327.659 285.365 327.352 284.672C327.034 285.427 326.586 286.083 326.008 286.641C325.435 287.198 324.75 287.62 323.953 287.906L323.016 286.516C323.76 286.266 324.391 285.909 324.906 285.445C325.422 284.977 325.807 284.438 326.062 283.828C326.323 283.219 326.453 282.573 326.453 281.891V280.5H328.203V282ZM334.906 293.891H333.172V290.219H325.281V288.844H334.906V293.891ZM334.906 288.156H333.172V283.938H330.359V282.516H333.172V279.766H334.906V288.156Z" fill="#6D6D6D"/>
<path d="M99.96 339.873C99.8076 338.426 98.6396 337.562 96.7861 337.562C94.8564 337.562 93.79 338.451 93.7646 339.67C93.7393 340.99 95.1357 341.6 96.71 341.955L98.3604 342.361C101.509 343.072 103.87 344.672 103.87 347.744C103.87 351.121 101.229 353.254 96.7607 353.254C92.3174 353.254 89.4736 351.197 89.3721 347.262H93.0791C93.2061 349.115 94.6787 350.055 96.71 350.055C98.7158 350.055 100.011 349.115 100.011 347.744C100.011 346.5 98.8682 345.916 96.8623 345.408L94.8564 344.926C91.7588 344.164 89.8545 342.615 89.8545 339.924C89.8545 336.572 92.7998 334.363 96.8115 334.363C100.874 334.363 103.565 336.623 103.616 339.873H99.96ZM110.04 345.027V353H106.282V334.617H109.938V341.625H110.091C110.726 340.025 112.122 339.035 114.204 339.035C117.073 339.035 118.978 340.965 118.978 344.215V353H115.22V344.875C115.22 343.174 114.306 342.158 112.731 342.158C111.157 342.158 110.04 343.199 110.04 345.027ZM128.118 353.279C123.903 353.279 121.313 350.537 121.313 346.17C121.313 341.904 123.929 339.035 127.966 339.035C131.597 339.035 134.44 341.32 134.44 346.018V347.084H125.021C125.021 349.166 126.265 350.461 128.194 350.461C129.464 350.461 130.378 349.902 130.759 349.064H134.339C133.806 351.604 131.521 353.279 128.118 353.279ZM125.021 344.723H130.886C130.886 343.047 129.718 341.854 128.042 341.854C126.315 341.854 125.084 343.136 125.021 344.723ZM142.134 349.141C142.134 346.068 144.622 345.053 147.263 344.9C148.253 344.837 150.106 344.748 150.69 344.723V343.605C150.665 342.463 149.878 341.777 148.481 341.777C147.212 341.777 146.399 342.361 146.196 343.301H142.616C142.845 340.914 144.927 339.035 148.583 339.035C151.579 339.035 154.423 340.381 154.423 343.707V353H150.868V351.096H150.767C150.081 352.365 148.786 353.254 146.729 353.254C144.089 353.254 142.134 351.883 142.134 349.141ZM145.739 349.039C145.739 350.105 146.603 350.664 147.796 350.664C149.497 350.664 150.716 349.521 150.69 348.074V347.059C150.119 347.084 148.52 347.173 147.872 347.236C146.577 347.363 145.739 347.973 145.739 349.039ZM161.05 334.617V353H157.292V334.617H161.05ZM166.687 353L162.929 339.213H166.737L168.896 348.531H169.022L171.282 339.213H175.015L177.3 348.48H177.427L179.56 339.213H183.368L179.585 353H175.624L173.237 344.24H173.06L170.673 353H166.687ZM184.612 349.141C184.612 346.068 187.101 345.053 189.741 344.9C190.731 344.837 192.585 344.748 193.169 344.723V343.605C193.144 342.463 192.356 341.777 190.96 341.777C189.69 341.777 188.878 342.361 188.675 343.301H185.095C185.323 340.914 187.405 339.035 191.062 339.035C194.058 339.035 196.901 340.381 196.901 343.707V353H193.347V351.096H193.245C192.56 352.365 191.265 353.254 189.208 353.254C186.567 353.254 184.612 351.883 184.612 349.141ZM188.218 349.039C188.218 350.105 189.081 350.664 190.274 350.664C191.976 350.664 193.194 349.521 193.169 348.074V347.059C192.598 347.084 190.998 347.173 190.351 347.236C189.056 347.363 188.218 347.973 188.218 349.039ZM201.472 358.18C200.735 358.18 200.05 358.154 199.567 358.104V355.184C200.05 355.209 200.608 355.234 201.091 355.234C201.827 355.234 202.437 355.158 202.894 353.965L203.122 353.381L198.171 339.213H202.106L205.001 349.369H205.153L208.073 339.213H212.06L206.677 354.523C205.89 356.732 204.392 358.18 201.472 358.18ZM221.759 343.301C221.606 342.336 220.743 341.701 219.499 341.701C218.28 341.701 217.341 342.285 217.366 343.123C217.341 343.732 217.849 344.215 219.144 344.494L221.606 345.002C224.272 345.561 225.567 346.754 225.593 348.734C225.567 351.451 223.13 353.279 219.474 353.279C215.741 353.279 213.558 351.604 213.253 348.912H217.036C217.214 350.004 218.103 350.562 219.474 350.562C220.845 350.562 221.759 350.004 221.759 349.115C221.759 348.404 221.175 347.973 219.88 347.693L217.595 347.236C214.979 346.729 213.608 345.357 213.634 343.326C213.608 340.686 215.894 339.035 219.448 339.035C222.927 339.035 225.085 340.686 225.288 343.301H221.759ZM162.865 380.141C162.865 377.068 165.354 376.053 167.994 375.9C168.984 375.837 170.838 375.748 171.422 375.723V374.605C171.396 373.463 170.609 372.777 169.213 372.777C167.943 372.777 167.131 373.361 166.928 374.301H163.348C163.576 371.914 165.658 370.035 169.314 370.035C172.311 370.035 175.154 371.381 175.154 374.707V384H171.6V382.096H171.498C170.812 383.365 169.518 384.254 167.461 384.254C164.82 384.254 162.865 382.883 162.865 380.141ZM166.471 380.039C166.471 381.105 167.334 381.664 168.527 381.664C170.229 381.664 171.447 380.521 171.422 379.074V378.059C170.851 378.084 169.251 378.173 168.604 378.236C167.309 378.363 166.471 378.973 166.471 380.039ZM185.285 370.213V373.031H182.695V379.76C182.695 380.852 183.229 381.131 183.99 381.156C184.371 381.156 185.031 381.131 185.488 381.08V384.051C185.082 384.127 184.422 384.178 183.482 384.178C180.766 384.178 178.912 382.959 178.938 380.293V373.031H177.033V370.213H178.938V366.912H182.695V370.213H185.285ZM193.639 384V370.213H197.219V372.625H197.371C197.955 371.025 199.352 370.035 201.205 370.035C203.109 370.035 204.506 371.025 204.963 372.625H205.09C205.674 371.051 207.223 370.035 209.254 370.035C211.818 370.035 213.596 371.736 213.596 374.732V384H209.838V375.469C209.838 373.895 208.924 373.133 207.68 373.133C206.258 373.133 205.445 374.123 205.445 375.57V384H201.789V375.367C201.789 373.996 200.926 373.133 199.656 373.133C198.387 373.133 197.396 374.148 197.396 375.723V384H193.639ZM222.736 384.279C218.521 384.279 215.932 381.537 215.932 377.17C215.932 372.904 218.547 370.035 222.584 370.035C226.215 370.035 229.059 372.32 229.059 377.018V378.084H219.639C219.639 380.166 220.883 381.461 222.812 381.461C224.082 381.461 224.996 380.902 225.377 380.064H228.957C228.424 382.604 226.139 384.279 222.736 384.279ZM219.639 375.723H225.504C225.504 374.047 224.336 372.854 222.66 372.854C220.934 372.854 219.702 374.136 219.639 375.723Z" fill="#1E1E1E"/>
<path d="M241.767 343.301C241.614 342.336 240.751 341.701 239.507 341.701C238.288 341.701 237.349 342.285 237.374 343.123C237.349 343.732 237.856 344.215 239.151 344.494L241.614 345.002C244.28 345.561 245.575 346.754 245.601 348.734C245.575 351.451 243.138 353.279 239.481 353.279C235.749 353.279 233.565 351.604 233.261 348.912H237.044C237.222 350.004 238.11 350.562 239.481 350.562C240.853 350.562 241.767 350.004 241.767 349.115C241.767 348.404 241.183 347.973 239.888 347.693L237.603 347.236C234.987 346.729 233.616 345.357 233.642 343.326C233.616 340.686 235.901 339.035 239.456 339.035C242.935 339.035 245.093 340.686 245.296 343.301H241.767ZM247.911 353V339.213H251.491V341.625H251.644C252.228 340.025 253.624 339.035 255.478 339.035C257.382 339.035 258.778 340.025 259.235 341.625H259.362C259.946 340.051 261.495 339.035 263.526 339.035C266.091 339.035 267.868 340.736 267.868 343.732V353H264.11V344.469C264.11 342.895 263.196 342.133 261.952 342.133C260.53 342.133 259.718 343.123 259.718 344.57V353H256.062V344.367C256.062 342.996 255.198 342.133 253.929 342.133C252.659 342.133 251.669 343.148 251.669 344.723V353H247.911ZM270.763 353V339.213H274.521V353H270.763ZM272.642 337.41C271.499 337.41 270.585 336.547 270.585 335.506C270.585 334.439 271.499 333.576 272.642 333.576C273.759 333.576 274.673 334.439 274.673 335.506C274.673 336.547 273.759 337.41 272.642 337.41ZM281.198 334.617V353H277.44V334.617H281.198ZM290.364 353.279C286.149 353.279 283.56 350.537 283.56 346.17C283.56 341.904 286.175 339.035 290.212 339.035C293.843 339.035 296.687 341.32 296.687 346.018V347.084H287.267C287.267 349.166 288.511 350.461 290.44 350.461C291.71 350.461 292.624 349.902 293.005 349.064H296.585C296.052 351.604 293.767 353.279 290.364 353.279ZM287.267 344.723H293.132C293.132 343.047 291.964 341.854 290.288 341.854C288.562 341.854 287.33 343.136 287.267 344.723Z" fill="white"/>
<rect x="237.5" y="329.5" width="81" height="29" rx="10.5" fill="#EFF1FE"/>
<rect x="237.5" y="329.5" width="81" height="29" rx="10.5" stroke="#3C86FF" stroke-width="3"/>
<rect x="21" y="454" width="164" height="90" rx="9" fill="white"/>
<rect x="21" y="454" width="164" height="90" rx="9" stroke="black" stroke-width="2"/>
<path d="M79.7676 498.801C79.6152 497.836 78.752 497.201 77.5078 497.201C76.2891 497.201 75.3496 497.785 75.375 498.623C75.3496 499.232 75.8574 499.715 77.1523 499.994L79.6152 500.502C82.2812 501.061 83.5762 502.254 83.6016 504.234C83.5762 506.951 81.1387 508.779 77.4824 508.779C73.75 508.779 71.5664 507.104 71.2617 504.412H75.0449C75.2227 505.504 76.1113 506.062 77.4824 506.062C78.8535 506.062 79.7676 505.504 79.7676 504.615C79.7676 503.904 79.1836 503.473 77.8887 503.193L75.6035 502.736C72.9883 502.229 71.6172 500.857 71.6426 498.826C71.6172 496.186 73.9023 494.535 77.457 494.535C80.9355 494.535 83.0938 496.186 83.2969 498.801H79.7676ZM85.9121 508.5V494.713H89.4922V497.125H89.6445C90.2285 495.525 91.625 494.535 93.4785 494.535C95.3828 494.535 96.7793 495.525 97.2363 497.125H97.3633C97.9473 495.551 99.4961 494.535 101.527 494.535C104.092 494.535 105.869 496.236 105.869 499.232V508.5H102.111V499.969C102.111 498.395 101.197 497.633 99.9531 497.633C98.5312 497.633 97.7188 498.623 97.7188 500.07V508.5H94.0625V499.867C94.0625 498.496 93.1992 497.633 91.9297 497.633C90.6602 497.633 89.6699 498.648 89.6699 500.223V508.5H85.9121ZM108.764 508.5V494.713H112.521V508.5H108.764ZM110.643 492.91C109.5 492.91 108.586 492.047 108.586 491.006C108.586 489.939 109.5 489.076 110.643 489.076C111.76 489.076 112.674 489.939 112.674 491.006C112.674 492.047 111.76 492.91 110.643 492.91ZM119.199 490.117V508.5H115.441V490.117H119.199ZM128.365 508.779C124.15 508.779 121.561 506.037 121.561 501.67C121.561 497.404 124.176 494.535 128.213 494.535C131.844 494.535 134.688 496.82 134.688 501.518V502.584H125.268C125.268 504.666 126.512 505.961 128.441 505.961C129.711 505.961 130.625 505.402 131.006 504.564H134.586C134.053 507.104 131.768 508.779 128.365 508.779ZM125.268 500.223H131.133C131.133 498.547 129.965 497.354 128.289 497.354C126.562 497.354 125.331 498.636 125.268 500.223Z" fill="black"/>
<rect x="207" y="454" width="164" height="90" rx="9" fill="white"/>
<rect x="207" y="454" width="164" height="90" rx="9" stroke="black" stroke-width="2"/>
<path d="M258.76 498.801C258.607 497.836 257.744 497.201 256.5 497.201C255.281 497.201 254.342 497.785 254.367 498.623C254.342 499.232 254.85 499.715 256.145 499.994L258.607 500.502C261.273 501.061 262.568 502.254 262.594 504.234C262.568 506.951 260.131 508.779 256.475 508.779C252.742 508.779 250.559 507.104 250.254 504.412H254.037C254.215 505.504 255.104 506.062 256.475 506.062C257.846 506.062 258.76 505.504 258.76 504.615C258.76 503.904 258.176 503.473 256.881 503.193L254.596 502.736C251.98 502.229 250.609 500.857 250.635 498.826C250.609 496.186 252.895 494.535 256.449 494.535C259.928 494.535 262.086 496.186 262.289 498.801H258.76ZM264.904 508.5V494.713H268.484V497.125H268.637C269.221 495.525 270.617 494.535 272.471 494.535C274.375 494.535 275.771 495.525 276.229 497.125H276.355C276.939 495.551 278.488 494.535 280.52 494.535C283.084 494.535 284.861 496.236 284.861 499.232V508.5H281.104V499.969C281.104 498.395 280.189 497.633 278.945 497.633C277.523 497.633 276.711 498.623 276.711 500.07V508.5H273.055V499.867C273.055 498.496 272.191 497.633 270.922 497.633C269.652 497.633 268.662 498.648 268.662 500.223V508.5H264.904ZM287.756 508.5V494.713H291.514V508.5H287.756ZM289.635 492.91C288.492 492.91 287.578 492.047 287.578 491.006C287.578 489.939 288.492 489.076 289.635 489.076C290.752 489.076 291.666 489.939 291.666 491.006C291.666 492.047 290.752 492.91 289.635 492.91ZM298.191 490.117V508.5H294.434V490.117H298.191ZM307.357 508.779C303.143 508.779 300.553 506.037 300.553 501.67C300.553 497.404 303.168 494.535 307.205 494.535C310.836 494.535 313.68 496.82 313.68 501.518V502.584H304.26C304.26 504.666 305.504 505.961 307.434 505.961C308.703 505.961 309.617 505.402 309.998 504.564H313.578C313.045 507.104 310.76 508.779 307.357 508.779ZM304.26 500.223H310.125C310.125 498.547 308.957 497.354 307.281 497.354C305.555 497.354 304.323 498.636 304.26 500.223ZM323.912 498.801C323.76 497.836 322.896 497.201 321.652 497.201C320.434 497.201 319.494 497.785 319.52 498.623C319.494 499.232 320.002 499.715 321.297 499.994L323.76 500.502C326.426 501.061 327.721 502.254 327.746 504.234C327.721 506.951 325.283 508.779 321.627 508.779C317.895 508.779 315.711 507.104 315.406 504.412H319.189C319.367 505.504 320.256 506.062 321.627 506.062C322.998 506.062 323.912 505.504 323.912 504.615C323.912 503.904 323.328 503.473 322.033 503.193L319.748 502.736C317.133 502.229 315.762 500.857 315.787 498.826C315.762 496.186 318.047 494.535 321.602 494.535C325.08 494.535 327.238 496.186 327.441 498.801H323.912Z" fill="black"/>
<defs>
<filter id="filter0_i_4722_1442" x="25" y="134" width="342" height="38" filterUnits="userSpaceOnUse" color-interpolation-filters="sRGB">
<feFlood flood-opacity="0" result="BackgroundImageFix"/>
<feBlend mode="normal" in="SourceGraphic" in2="BackgroundImageFix" result="shape"/>
<feColorMatrix in="SourceAlpha" type="matrix" values="0 0 0 0 0 0 0 0 0 0 0 0 0 0 0 0 0 0 127 0" result="hardAlpha"/>
<feOffset dy="4"/>
<feGaussianBlur stdDeviation="2"/>
<feComposite in2="hardAlpha" operator="arithmetic" k2="-1" k3="1"/>
<feColorMatrix type="matrix" values="0 0 0 0 0.651984 0 0 0 0 0.660851 0 0 0 0 0.705182 0 0 0 0.25 0"/>
<feBlend mode="normal" in2="shape" result="effect1_innerShadow_4722_1442"/>
</filter>
<filter id="filter1_i_4722_1442" x="33" y="142" width="128" height="22" filterUnits="userSpaceOnUse" color-interpolation-filters="sRGB">
<feFlood flood-opacity="0" result="BackgroundImageFix"/>
<feBlend mode="normal" in="SourceGraphic" in2="BackgroundImageFix" result="shape"/>
<feColorMatrix in="SourceAlpha" type="matrix" values="0 0 0 0 0 0 0 0 0 0 0 0 0 0 0 0 0 0 127 0" result="hardAlpha"/>
<feOffset dy="4"/>
<feGaussianBlur stdDeviation="2"/>
<feComposite in2="hardAlpha" operator="arithmetic" k2="-1" k3="1"/>
<feColorMatrix type="matrix" values="0 0 0 0 1 0 0 0 0 1 0 0 0 0 1 0 0 0 0.25 0"/>
<feBlend mode="normal" in2="shape" result="effect1_innerShadow_4722_1442"/>
</filter>
</defs>
</svg>
